<?xml version="1.0" encoding="utf-8"?>
<!-- Generator: Adobe Illustrator 18.0.0, SVG Export Plug-In . SVG Version: 6.00 Build 0)  -->
<!DOCTYPE svg PUBLIC "-//W3C//DTD SVG 1.1//EN" "http://www.w3.org/Graphics/SVG/1.1/DTD/svg11.dtd">
<svg version="1.1" xmlns="http://www.w3.org/2000/svg" xmlns:xlink="http://www.w3.org/1999/xlink" x="0px" y="0px"
	 viewBox="1806.7 1135.6 432 432" enable-background="new 1806.7 1135.6 432 432" xml:space="preserve">
<g id="Layer_1">
	<path d="M1901.7,1270.3c3.1,0,5,2.6,5,7v15.8c0,13-5.4,21.8-13.8,35.6c-5.2,8.5-9.1,14.8-11.3,18.3v55.2c0.3,0.1,1,0.4,2.2,0.4
		c2,0,5-1,7.9-5.7c5-8,5.3-20.1,5.3-27.9v-19.5c0-4.1-1.1-6.4-2.9-6.4c-1,0-2.3,0.8-3.7,2.5c-0.6,0.7-1,0.9-1.3,0.9
		c-0.5,0-0.6-0.9-0.5-1.3c0.4-2.4,1.9-6.3,5.3-10.3c2.8-3.2,5.4-4.6,7.6-4.6c3.1,0,5.3,2.9,5.3,7.3v28c0,13-1.2,25.9-10.3,38.7
		c-5.3,7.5-10.3,8.7-12.9,8.7c-0.9,0-1.6-0.2-1.9-0.2v1.9c0,6.1-5.6,11.3-10.7,11.3c-1.8,0-3.5-0.6-4.9-2.1
		c-1.8-1.8-1.9-3.8-1.9-11.5c0-0.6,0.5-1.1,1.1-1.1s1.1,0.5,1.1,1.1c0.1,1.2,0.6,2.8,1.8,3.5c0.5,0.3,1,0.5,1.5,0.5
		c1.3,0,2.2-1.2,2.2-3.1l0-45.8l-4-2.8l4-9.6l0-39c0-2.3-0.7-3.1-1.5-3.1c-0.2,0-0.4,0-0.5,0.1c-1.3,0.5-3.1,2.7-3.1,6.4
		c0,0.6-0.5,1.1-1.1,1.1s-1.1-0.5-1.1-1.1c0-4.8,1.2-13,4.4-19.2c2-3.8,4.7-5.5,7-5.5c3.1,0,5.7,2.8,5.7,7.1v11.7v9.5v18.5
		c2.1-3.7,5.4-9.3,9-15.5c6.4-10.9,6.4-16.6,6.4-24.4v-12.9c0-4.1-1.1-6.4-2.9-6.4c-1,0-2.3,0.8-3.7,2.5c-3.9,4.7-5.9,10.4-6.6,12.4
		c-0.3,0.8-0.6,1.2-0.9,1.2c-0.4,0-0.6-0.7-0.3-1.8c1.3-4.6,4.1-15.3,11.3-22.4C1896.8,1271.6,1899.5,1270.3,1901.7,1270.3
		 M1901.7,1267.6c-3.1,0-6.5,1.8-9.8,5.1c-3.2,3.2-6,7.5-8.3,12.7c-1.4,3.2-2.3,6.2-3,8.5c-0.4-0.3-0.8-0.6-1.3-0.8
		c-1.1-0.5-2.2-0.8-3.4-0.8c-1.8,0-3.6,0.6-5.3,1.8c-1.6,1.2-3,2.9-4.2,5.1c-1.6,3-2.8,6.7-3.7,10.8c-0.7,3.3-1,6.7-1,9.6
		c0,2.2,1.8,3.9,3.9,3.9c1.6,0,3-1,3.6-2.3l0,33.5l-3.8,9.1c-0.5,1.2-0.1,2.6,1,3.3l2.8,2l0,42.8c-0.3-1.8-1.9-3.2-3.8-3.2
		c-2.2,0-3.9,1.8-3.9,3.9c0,4.3,0,6.6,0.3,8.4c0.3,2.2,1,3.7,2.3,5.1c1.8,1.9,4.2,2.9,6.9,2.9c3.2,0,6.6-1.5,9.2-4.2
		c1.3-1.3,2.3-2.8,3-4.4c0.6-1.4,1-2.9,1.1-4.4c2-0.1,4-0.8,6-1.9c3-1.7,5.8-4.3,8.4-8c4.4-6.2,7.4-12.9,9-20.3
		c1.6-7.1,1.8-14.1,1.8-20v-28c0-2.8-0.7-5.2-2-7c-1.5-2-3.6-3.1-6.1-3.1c-1.5,0-3.5,0.4-5.9,2.1c8.4-13.8,14-23,14-36.7v-15.8
		c0-2.7-0.7-5.1-1.9-6.8C1906.2,1268.6,1904.1,1267.6,1901.7,1267.6L1901.7,1267.6z M1884.3,1301.2c0.7-0.4,1.5-1.1,2-2.6
		c0-0.1,0.1-0.2,0.1-0.4c0.8-2.2,2.7-7.2,6-11.3c0.6-0.7,1-1.1,1.3-1.3c0.2,0.5,0.5,1.5,0.5,3.4v12.9c0,7.3,0,12.7-6,23
		c-1.3,2.3-2.6,4.5-3.8,6.6v-8.1v-9.5v-11.7C1884.3,1301.8,1884.3,1301.5,1884.3,1301.2L1884.3,1301.2z M1884.3,1347.9
		c0.4-0.7,0.9-1.5,1.4-2.3c0,0.9,0.2,1.9,0.9,2.7c0.6,0.7,1.5,1.1,2.4,1.1c1.6,0,2.7-1.1,3.4-1.9c0.6-0.7,1-1.1,1.3-1.3
		c0.2,0.5,0.5,1.5,0.5,3.4v19.5c0,6.1,0,18.7-4.9,26.4c-1.6,2.5-3.3,4.1-5,4.4L1884.3,1347.9L1884.3,1347.9z"/>
</g>
<g id="Layer_2">
	<g>
		<path d="M1948.3,1240.3c0.4,0,0.7,0,1.1,0.1v4.3c-0.1,0-0.2,0-0.3,0c-1.2,0-3.3,0.4-4.5,1.2c-1.7,1-1.1,3.3-1,4.5l5,47.6l3.1,3.1
			l-2.2,5.4l6,57.3c0.1,0.7,0.6,1,1.4,1c0.6,0,1.4-0.2,2.4-0.5c2.2-0.8,3.9-1.8,3.9-1.8l0,5.6c0,0-2.3,1.9-5.1,2.9
			c-1.8,0.6-3.5,1.2-4.8,1.2c-0.7,0-1.2-0.2-1.5-0.6c-0.4,1.6-3.5,3-5.8,4c-1.6,0.7-3.1,1-4.2,1c-0.5,0-0.9-0.1-1.1-0.2
			c0-2,0-5.4,0-5.4s1.5-0.2,3.3-0.9c1.8-0.8,2.2-1.3,2.2-2.6c0,0-1.7-16.5-3.4-32.7c-5.1,2.3-10.1,4.9-15,7.7l-4,35.7
			c-0.2,1.3,0.2,2.1,1.2,2.1c0.5,0,1.3-0.2,2.3-0.8c2.7-1.6,4.9-4.3,4.9-4.3v4.5c0,0-0.2,2.3-4.1,4.5c-2,1.2-3.4,1.8-4.4,1.8
			c-0.9,0-1.4-0.5-1.8-1.5c-1.2,3.3-1.8,4.3-4.7,6.2c-2.8,1.9-5,2-5.7,2c-0.2,0-0.2,0-0.2,0v-4.3c0,0,1.6,0,4.3-1.9
			c2.5-1.8,3.3-3.7,3.6-5.7l13.6-125.9l0,0c0.1-0.9-0.1-2.1-1.5-2.1c-0.6,0-1.4,0.2-2.4,0.7c-2.7,1.3-3.7,2.8-4.1,3.6v-5
			c0.8-1.4,2-2.4,4.4-3.7c1.9-1,3.3-1.4,4.5-1.4c1.2,0,2.1,0.4,2.8,1c0.7-2.5,2.4-4.9,6.6-6.2
			C1945,1240.9,1946.8,1240.3,1948.3,1240.3 M1928.5,1334.2c4.4-2.4,8.8-4.7,13.4-6.7c-1.5-14.6-1.8-17-1.8-17l-2.4-3.3l1.5-5.1
			l-3.6-34.2L1928.5,1334.2 M1948.3,1237.6C1948.3,1237.6,1948.3,1237.6,1948.3,1237.6c-2,0-4.2,0.7-6.3,1.4
			c-2.4,0.8-4.4,1.9-5.8,3.4c-0.5,0.6-1,1.2-1.4,1.8c-0.4-0.1-0.9-0.1-1.4-0.1c-1.8,0-3.7,0.6-5.8,1.8c-2.4,1.4-4.3,2.7-5.5,4.8
			c-0.2,0.4-0.4,0.9-0.4,1.4v5c0,1.3,0.9,2.4,2.2,2.7c0.2,0,0.4,0.1,0.6,0.1c1.1,0,2-0.6,2.5-1.6c0.1-0.3,0.7-1.2,2.6-2.2
			l-13.5,124.4c-0.2,1.4-0.7,2.5-2.4,3.8c-1.7,1.2-2.8,1.4-2.9,1.4c-1.4,0.1-2.6,1.3-2.6,2.8v4.3c0,1.4,1.1,2.6,2.5,2.8
			c0.1,0,0.3,0,0.5,0c1,0,3.8-0.2,7.2-2.5c2.3-1.5,3.5-2.7,4.4-4.3c0.2,0,0.4,0,0.6,0c1.5,0,3.1-0.6,5.8-2.2c4.8-2.8,5.4-6,5.4-6.6
			c0-0.1,0-0.2,0-0.3v-4.5c0-1.2-0.7-2.2-1.9-2.6c-0.3-0.1-0.6-0.2-0.9-0.2c-0.8,0-1.6,0.4-2.2,1.1c0,0.1-1.4,1.7-3.2,3l3.6-32.3
			c3.3-1.8,6.7-3.6,10.1-5.2c1.4,13.3,2.7,26,3,28.4c-0.1,0.1-0.3,0.1-0.5,0.2c-1.3,0.6-2.5,0.7-2.6,0.7c-1.4,0.2-2.4,1.3-2.4,2.7
			c0,0,0,3.5,0,5.4c0,1.1,0.6,2,1.6,2.5c0.7,0.3,1.4,0.5,2.3,0.5c1.5,0,3.4-0.4,5.3-1.2l0.1,0c1.3-0.5,2.7-1.2,3.9-1.9
			c0.7-0.4,1.2-0.8,1.7-1.2c0.2,0,0.4,0,0.6,0c1.7,0,3.6-0.6,5.7-1.3c3.3-1.1,5.9-3.3,6-3.4c0.6-0.5,1-1.3,1-2.1l0-5.6
			c0-1-0.5-1.9-1.4-2.4c-0.4-0.2-0.9-0.4-1.4-0.4c-0.5,0-1,0.1-1.4,0.4c0,0-1.6,0.9-3.4,1.6c-0.1,0-0.1,0.1-0.2,0.1l-5.8-54.8
			l1.9-4.8c0.4-1,0.2-2.2-0.6-3l-2.4-2.4l-4.9-46.6c0-0.2,0-0.5-0.1-0.7c0-0.3-0.1-0.9-0.1-1.3c0.8-0.4,2.2-0.7,2.9-0.7
			c0.1,0,0.1,0,0.1,0c0.1,0,0.2,0,0.2,0c0.7,0,1.4-0.3,1.9-0.7c0.6-0.5,0.9-1.3,0.9-2v-4.3c0-1.3-0.9-2.4-2.1-2.7
			C1949.5,1237.6,1948.9,1237.6,1948.3,1237.6L1948.3,1237.6L1948.3,1237.6z M1931.8,1329.3l3.8-35.3l0.8,7.8l-1.3,4.6
			c-0.2,0.8-0.1,1.7,0.4,2.4l1.9,2.7c0.1,1.4,0.5,5.2,1.5,14.3C1936.5,1326.9,1934.2,1328.1,1931.8,1329.3L1931.8,1329.3z"/>
	</g>
</g>
<g id="Layer_3">
	<path d="M2006.7,1225.4c7.8,0,11.1,4.8,11.1,12.7v6.1v39.8l3,4.6l-3,4.6v35.4c0,15-6.1,31.1-22,32.6c-1,0.1-1.8,0.1-2.6,0.1
		c-5,0-5.8-1.8-6.8-2.5c-0.4,2.3-1.8,4.2-7.4,5.7c-4.5,1.2-7.1,1.5-8.4,1.5c-1,0-1.3-0.1-1.3-0.1v-5.6c0,0,2.7,0,4.6-0.6
		s3-1.2,3-3.3V1298l-3.6-3.7l3.6-5.2v-41.2c0-2-0.8-2.9-1.9-2.9c-0.3,0-0.6,0.1-0.8,0.2c-1.5,0.5-2.2,2.2-2.2,4.2
		c0,0.7-0.6,1.3-1.3,1.3c-0.7,0-1.3-0.6-1.3-1.3c0-3.2-1-16.7,6.8-19.1c1.4-0.4,2.6-0.6,3.6-0.6c5,0,6.7,4.4,6.7,10.2v47.2l4.3,3.7
		l-4.3,5.2v55.3c2,2.2,4.6,3.4,7.2,3.4c0.6,0,1.1-0.1,1.7-0.2c7.1-1.6,12.7-6.4,12.7-20.7v-40.2l-3.2-4.3l3.2-4.9v-40.8
		c0-7.5-2.5-10.2-6.2-10.2c-0.3,0-0.7,0-1,0.1c-4.2,0.5-8,3-10.4,7.2c-0.3,0.5-0.8,0.7-1.2,0.7c-0.2,0-0.4,0-0.6-0.1
		c-0.5-0.3-0.8-1.2-0.4-2c3.7-7.6,7.9-13,16.9-13.6C2005.6,1225.5,2006.2,1225.4,2006.7,1225.4 M2006.7,1222.7c-0.6,0-1.2,0-1.8,0.1
		c-4.8,0.4-8.8,2-12,4.9c-1.6,1.5-3.1,3.2-4.5,5.5c-0.2-0.7-0.5-1.4-0.9-2c-0.8-1.4-1.8-2.4-3.1-3.2c-1.3-0.8-2.9-1.2-4.6-1.2
		c-1.4,0-2.9,0.3-4.5,0.7c-2.3,0.7-4.2,2.1-5.6,4.2c-1.1,1.6-1.9,3.6-2.5,6c-0.9,4-0.8,8.2-0.8,10.5c0,0.4,0,0.7,0,0.9
		c0,2.2,1.8,4.1,4.1,4.1c1.4,0,2.7-0.8,3.4-1.9v36.7l-3.1,4.5c-0.7,1.1-0.6,2.5,0.3,3.5l2.8,2.9v57.3c0,0.1,0,0.2,0,0.3
		c-0.1,0.1-0.4,0.2-1.1,0.4c-1.1,0.4-3.1,0.4-3.7,0.4c-1.5,0-2.8,1.2-2.8,2.8v5.6c0,1.1,0.7,2.2,1.7,2.6c0.6,0.2,1.3,0.3,2.4,0.3
		c2.2,0,5.3-0.5,9.2-1.6c3.1-0.8,5.2-1.8,6.8-3.1c0.4-0.3,0.7-0.7,1-1c0.1,0,0.1,0.1,0.2,0.1c1.5,0.6,3.2,0.9,5.5,0.9
		c0.9,0,1.8,0,2.8-0.1c4.3-0.4,8.2-1.8,11.5-4.1c3-2.1,5.6-5,7.6-8.5c1.8-3.2,3.2-6.8,4.1-10.9c0.8-3.7,1.3-7.7,1.3-11.8v-34.6
		l2.5-3.9c0.6-0.9,0.6-2.1,0-3l-2.5-3.9v-38.9v-6.1c0-4.7-1.1-8.4-3.3-11.1c-1.2-1.5-2.7-2.6-4.5-3.3
		C2011,1223,2008.9,1222.7,2006.7,1222.7L2006.7,1222.7z M1989.3,1244c1.5,0,2.8-0.8,3.5-2.1c1.9-3.3,4.8-5.4,8.3-5.8
		c0.2,0,0.5,0,0.7,0c1.1,0,1.7,0.3,2.2,1.1c0.6,0.8,1.2,2.6,1.2,6.3v40l-2.8,4.2c-0.6,1-0.6,2.3,0.1,3.2l2.7,3.6v39.3
		c0,6-1.1,10.6-3.2,13.5c-1.7,2.3-4,3.7-7.4,4.5c-0.3,0.1-0.7,0.1-1.1,0.1c-1.5,0-3.1-0.7-4.4-1.8V1297l3.7-4.5
		c1-1.2,0.8-2.9-0.3-3.9l-3.3-2.8L1989.3,1244L1989.3,1244z"/>
</g>
<g id="Layer_4">
	<path d="M2038.9,1225.2c2.2,0,4.9,1,5.9,2.6c1-0.8,2.8-1.1,4.8-1.1c3.3,0,7.2,0.9,8.6,2.2v5.3c-1.1-0.6-2.2-0.8-2.9-0.8
		c-0.5,0-0.9,0.1-0.9,0.1l4.8,54.2l3.9,5.1l-3.1,3.9l5.6,60.9c0.1,0.7,0.1,1.3,2,1.7c0.8,0.2,1.5,0.2,1.9,0.2c0.7,0,1-0.1,1-0.1v6.4
		c0,0,0,0,0,0c-0.1,0-8.6,0-10.5-3.3c-0.4,0.7-1.6,1-3,1c-2.8,0-6.6-1.2-7.4-2.2l-0.1-6.4c1.6,1.4,2.9,1.8,3.9,2c0.2,0,0.3,0,0.5,0
		c0.8,0,1.6-0.3,1.7-0.8l-3.3-36.2c-5.9-1-11.9-1.7-18-2.1c0,0-4.3,34.3-4.3,35.1c-0.1,0.7,1.9,1.2,3.8,1.3c0.2,0,0.4,0,0.6,0
		c2,0,4.4-0.3,4.4-0.3v6c0,0-2,0.1-4.3,0.1c-3,0-6.5-0.2-7.5-1.1c-0.5,0.6-2.1,0.8-3.7,0.8c-2.7,0-5.7-0.5-5.7-0.5v-6
		c0,0,1.9,0.5,3.9,0.7c0.2,0,0.3,0,0.5,0c1.8,0,3.3-0.6,3.4-1.3c0.1-0.8,15-121,15-121s-1.1-1-2.6-1c-0.5,0-1,0.1-1.5,0.3v-5
		C2036.9,1225.4,2037.8,1225.2,2038.9,1225.2 M2051.9,1312.2l-1.6-17.3l-3.1-5.2l2.3-3.9l-4.6-51.2l-9.4,75.6
		C2041,1310.7,2046.5,1311.3,2051.9,1312.2 M2038.9,1222.4L2038.9,1222.4c-1.8,0-3.3,0.5-4.4,1.5c-0.6,0.5-0.9,1.3-0.9,2v5
		c0,1,0.5,1.8,1.3,2.3c0.4,0.3,1,0.4,1.5,0.4c0.4,0,0.7-0.1,1.1-0.2c-1.9,15.6-13.2,106.1-14.6,117.5c-0.2,0-0.5,0.1-0.8,0.1
		c-0.1,0-0.2,0-0.3,0c-1.6-0.1-3.3-0.6-3.3-0.6c-0.2-0.1-0.5-0.1-0.7-0.1c-0.6,0-1.2,0.2-1.7,0.6c-0.7,0.5-1.1,1.3-1.1,2.2v6
		c0,1.4,1,2.5,2.4,2.7c0.1,0,3.3,0.5,6.2,0.5c1.6,0,2.8-0.1,3.7-0.4c0.7,0.2,1.6,0.4,2.7,0.6c1.3,0.2,2.9,0.2,4.8,0.2
		c2.4,0,4.4-0.1,4.5-0.1c1.5-0.1,2.6-1.3,2.6-2.8v-6c0-0.8-0.3-1.5-0.9-2.1c-0.5-0.5-1.2-0.7-1.9-0.7c-0.1,0-0.2,0-0.3,0
		c0,0-2.3,0.2-4.1,0.2c-0.2,0-0.4,0-0.5,0c-0.3,0-0.7,0-0.9-0.1c0.7-5.4,2.7-21.6,3.8-30.5c4.4,0.4,8.7,0.9,13,1.6l2.8,31.5
		c-0.4-0.2-0.8-0.5-1.3-0.9c-0.5-0.4-1.2-0.7-1.8-0.7c-0.4,0-0.8,0.1-1.2,0.3c-1,0.5-1.6,1.5-1.6,2.6l0.1,6.4c0,0.6,0.2,1.1,0.5,1.6
		c0.3,0.4,1.1,1.5,4.3,2.5c1.8,0.5,3.7,0.8,5.3,0.8c0.9,0,1.8-0.1,2.5-0.3c0.5,0.4,1.1,0.7,1.7,1c1.1,0.5,2.5,0.9,4.1,1.2
		c2.6,0.4,4.8,0.5,5.1,0.5c1.5,0,2.8-1.2,2.8-2.8v-6.4c0-0.9-0.4-1.7-1.1-2.2c-0.5-0.4-1.1-0.5-1.6-0.5c-0.2,0-0.5,0-0.7,0.1
		c0,0-0.2,0-0.3,0c-0.2,0-0.6,0-1.2-0.1l-5.4-59.1l2.4-3c0.8-1,0.8-2.4,0-3.4l-3.4-4.5l-4.4-49.8c0.2,0.1,0.4,0.1,0.6,0.1
		c0.5,0,1-0.1,1.4-0.4c0.9-0.5,1.4-1.4,1.4-2.4v-5.3c0-0.8-0.3-1.5-0.9-2.1c-1-0.9-2.6-1.7-4.8-2.2c-1.8-0.4-3.8-0.7-5.7-0.7
		c-1.6,0-3.1,0.2-4.2,0.6c-0.6-0.4-1.3-0.8-2-1.1C2041.9,1222.7,2040.3,1222.4,2038.9,1222.4L2038.9,1222.4L2038.9,1222.4z
		 M2038.6,1307.7l5.8-46.9l2.2,24.4l-1.9,3.1c-0.5,0.9-0.5,2,0,2.9l2.8,4.7l1.2,13.1C2045.4,1308.4,2042,1308,2038.6,1307.7
		L2038.6,1307.7z"/>
</g>
<path d="M2089.5,1240.9c2.4,0,4.9,0.5,7.1,1.5c8,3.5,18.9,16.3,18.9,28.1c0,1.2,0,3.9,0,3.9l3.3,6.5l-3.3,2.7c0,0,0,9,0,9.8
	c2.6,2.3,5.6,3.3,5.6,3.3v6c0,0-8-3.8-11.1-7.6c-0.1,0-0.1,0-0.2,0c-3.6,0-10.4-4.5-10.4-4.5v-6c0,0,3.3,3,6.5,3.9l0-10.3l-3.3-6.6
	l3.3-2.7c0,0,0-4.8,0-6c0-5.7-5.5-11.8-9.3-13.5c-1.1-0.5-2.3-0.7-3.4-0.7c-3,0-5.7,1.7-5.7,5.8v1.5v4.5l3.1,5.8l-3.1,3.3v7.7
	c0.4,13.7,3,15,13.7,30c11.7,16.4,14.4,25.2,14.4,34.3c0,3.2,0,9.2,0,9.2l2.1,5.7l-2.2,3.4c0,0,0,6.4,0,10.2c0,6.7-4.3,9.3-9.9,9.3
	c-3.8,0-8.2-1.2-12.3-3.1c-9.7-4.4-15.5-12.7-15.4-23.7v-10.3l-2.5-5.4l2.5-3.6v-12.8c-2.6-1.5-6-1.6-6-1.6v-6c0,0,8.8,1.3,11.3,4.4
	c0.3,0,0.5,0,0.8,0c4.7,0,9.5,3.5,9.5,3.5l-0.3,5.8c-1.1-1.2-3.8-2.6-5.6-2.8c0,1.8,0,12.8,0,12.8l2.6,5.5l-2.6,3.6c0,0,0,10.9,0,13
	c0,5.3,2.8,9.3,7.5,11.5c2,0.9,4.2,1.5,6,1.5c2.7,0,4.8-1.3,4.8-4.5c0-2.6,0-12.9,0-12.9l-2.5-6.1l2.5-3.1c0,0,0-8,0-11.2
	c0-9.7-3.1-13.8-12.8-27.2s-15.3-16.7-15.3-31.2c0-0.6,0-9.4,0-9.4l-2.6-5.5l2.7-3.5l0-4.2
	C2077.9,1244.4,2083.4,1240.9,2089.5,1240.9 M2089.5,1238.1v2.8V1238.1c-1.9,0-3.6,0.3-5.3,0.8c-1.8,0.6-3.4,1.5-4.7,2.7
	c-2,1.8-4.5,5.3-4.5,11.3l0,0l0,3.3l-2.1,2.7c-0.6,0.8-0.8,1.9-0.3,2.9l2.4,4.9v8.8c0,5.8,0.9,10.3,2.8,14.5
	c1.8,3.8,4.4,7.1,7.6,11.3c1.6,2,3.4,4.4,5.4,7.1l0.4,0.6c9.3,12.8,11.8,16.3,11.8,24.9v10.2l-1.9,2.3c-0.6,0.8-0.8,1.8-0.4,2.8
	l2.3,5.6v12.4c0,0.5-0.1,1.1-0.4,1.3c-0.3,0.2-0.9,0.4-1.7,0.4c-1.4,0-3.1-0.4-4.8-1.2c-3.8-1.7-5.9-4.8-5.9-9v-12.1l2.1-2.9
	c0.6-0.8,0.7-1.9,0.3-2.8l-2.3-5v-8.2c0.3,0.2,0.6,0.4,0.8,0.6c0.5,0.6,1.3,0.9,2.1,0.9c0.3,0,0.6-0.1,0.9-0.2
	c1.1-0.4,1.8-1.4,1.9-2.5l0.3-5.8c0-0.9-0.4-1.8-1.1-2.4c-0.1,0-1.4-1-3.4-2c-2.6-1.3-5.1-2-7.4-2c-1.5-1.3-3.8-2.3-6.9-3.2
	c-2.7-0.8-5-1.1-5.1-1.1c-0.1,0-0.3,0-0.4,0c-0.7,0-1.3,0.2-1.8,0.7c-0.6,0.5-1,1.3-1,2.1v6c0,1.5,1.2,2.8,2.7,2.8
	c0.6,0,2,0.1,3.3,0.6v10.1l-2,2.9c-0.5,0.8-0.6,1.8-0.2,2.7l2.2,4.9v9.7c0,3,0.3,5.8,1.1,8.5c0.7,2.6,1.9,5.1,3.4,7.4
	c1.5,2.2,3.3,4.2,5.4,6c2.1,1.7,4.5,3.2,7.1,4.4c4.7,2.1,9.5,3.3,13.5,3.3c8,0,12.7-4.5,12.7-12.1c0-3,0-7.6,0-9.4l1.7-2.7
	c0.5-0.7,0.6-1.6,0.3-2.5l-1.9-5.2c0-1.5,0-6.1,0-8.7c0-5.4-0.9-10.2-3-15.4c-2.3-5.8-6.1-12.3-11.9-20.5c-1.6-2.3-3.1-4.2-4.3-6
	c-7.1-9.7-8.6-11.7-8.9-22.4v-6.6l2.3-2.5c0.8-0.9,1-2.2,0.4-3.2l-2.8-5.2v-3.8v-1.5c0-1.3,0.3-3,2.9-3c0.8,0,1.6,0.2,2.3,0.5
	c1.5,0.7,3.5,2.4,5,4.4c1.7,2.3,2.7,4.6,2.7,6.6c0,0.8,0,3.2,0,4.7l-2.3,1.9c-1,0.8-1.3,2.2-0.7,3.4l3,6l0,5.1
	c-0.8-0.6-1.5-1.1-1.8-1.4c-0.5-0.5-1.2-0.7-1.9-0.7c-0.4,0-0.8,0.1-1.1,0.2c-1,0.4-1.6,1.4-1.6,2.5v6c0,0.9,0.5,1.8,1.2,2.3
	c0.1,0,1.9,1.2,4.1,2.4c2.7,1.4,4.9,2.2,6.7,2.5c1.5,1.6,3.7,3.2,6.6,4.9c2.5,1.5,4.6,2.5,4.6,2.5c0.4,0.2,0.8,0.3,1.2,0.3
	c0.5,0,1-0.1,1.5-0.4c0.8-0.5,1.3-1.4,1.3-2.3v-6c0-1.2-0.8-2.3-1.9-2.6c-0.1,0-1.9-0.6-3.7-2v-7.2l2.3-1.8c1-0.8,1.3-2.3,0.7-3.4
	l-3-5.9v-3.2c0-3.2-0.7-6.5-2-9.9c-1.2-3-2.9-6-5-8.9c-4-5.4-9-9.8-13.6-11.8C2095.2,1238.8,2092.3,1238.1,2089.5,1238.1
	L2089.5,1238.1z"/>
<path d="M2144.2,1280.3c2.4,0,4.9,0.5,7.1,1.5c8,3.5,18.9,16.3,18.9,28.1c0,3.6,0,11.9,0,11.9l2.4,5.4l-2.4,2.9c0,0,0,7,0,7.3
	c0,3.2,5.1,9,5.1,9v6c0,0-9.9-9.8-10.6-15.4c-0.2,0.1-0.5,0.1-0.7,0.1c-4.1,0-10.4-10.4-10.4-10.4v-6c0,0,5.6,8.2,6.7,8.2
	c0.1,0,0.2-0.1,0.2-0.3c0-0.6,0-10.1,0-10.1l-2.6-6.5l2.6-1.6c0,0,0-4,0-8.2c0-5.7-5.5-11.8-9.3-13.5c-1.1-0.5-2.3-0.7-3.4-0.7
	c-3,0-5.7,1.7-5.7,5.8v1.5v3l2.1,5.9l-2.1,2.2c0,17.8,2.1,19.4,13.8,35.8c11.7,16.4,14.4,25.9,14.4,35c0,5.9-0.1,21.3-0.1,21.3
	l2.4,7.6l-2.4,2.2c0,0,0,3.1,0,4.6c0,4.9-2.9,7-6.9,7c-4.6,0-10.6-2.8-14.9-7.3c-7.8-8.2-16.1-20.8-15.9-31.7v-9l-2.6-6.7l2.6-2.6
	v-11.7c-0.9-2.4-5.7-4.4-5.7-4.4v-6c0,0,9.9,3.9,12.2,10.5c0.3,0,0.5-0.1,0.8-0.1c4.8,0,8.8,6.6,8.8,6.6v6c-2.8-4.4-6.4-5.8-6.4-5.8
	c0,2.2,0,12.3,0,12.3l2.2,6.2l-2.2,3.1c0,0,0,7.1,0,8.7c0,6.1,2.2,10.6,6.2,15.7c2.7,3.4,5.9,5.2,8.3,5.2c2.2,0,3.8-1.5,3.8-4.6
	c0-1.5,0-7.3,0-7.3l-2.9-7.1l2.9-2.7c0,0,0-12.5,0-17.5c0-9.7-3.1-14.5-12.8-27.8s-15.3-19.5-15.3-33.9c0-3,0-6.8,0-8.8l-2.5-5.5
	l2.5-2.5C2133.1,1283.5,2138.4,1280.3,2144.2,1280.3 M2144.2,1277.5L2144.2,1277.5c-3.7,0-7.1,1.1-9.6,3.2c-2.6,2.2-4.3,5.3-4.7,9.2
	l-1.8,1.8c-0.8,0.8-1.1,2.1-0.6,3.1l2.2,5c0,2.1,0,5.5,0,8.2c0,6.6,1.1,11.9,3.6,17.2c2.3,4.8,5.6,9.3,9.7,14.9
	c0.8,1.1,1.6,2.2,2.5,3.4c9.5,13.1,12.3,17.3,12.3,26.2v16.3l-2,1.9c-0.9,0.8-1.1,2-0.7,3.1l2.7,6.5v6.8c0,1.1-0.3,1.5-0.4,1.6
	c0,0-0.2,0.2-0.6,0.2c-1.4,0-3.8-1.3-6.1-4.1c-4.1-5.1-5.6-9.1-5.6-14v-7.9l1.7-2.3c0.5-0.7,0.7-1.7,0.4-2.5l-2-5.8v-6.3
	c0.4,0.5,0.9,1.1,1.3,1.7c0.5,0.8,1.4,1.3,2.3,1.3c0.3,0,0.5,0,0.8-0.1c1.2-0.3,2-1.4,2-2.7v-6c0-0.5-0.1-1-0.4-1.4
	c0-0.1-1.2-1.9-3-3.8c-1.1-1.1-2.2-2-3.4-2.7c-1.2-0.7-2.5-1.2-3.8-1.3c-1.4-2.6-3.8-5-7.2-7.2c-3-1.9-5.6-3-5.7-3
	c-0.3-0.1-0.7-0.2-1-0.2c-0.5,0-1.1,0.2-1.6,0.5c-0.8,0.5-1.2,1.4-1.2,2.3v6c0,1.1,0.7,2.1,1.7,2.5c0,0,1,0.5,2.1,1.1
	c1,0.6,1.6,1.2,1.8,1.5v9.8l-1.8,1.7c-0.8,0.8-1.1,2-0.6,3l2.4,6.2v8.4c0,2.9,0.4,6,1.4,9.3c0.9,2.9,2.2,5.9,3.9,9
	c2.9,5.3,6.9,10.7,11.4,15.4c2.3,2.4,5.1,4.5,8.1,5.9c3,1.5,6.1,2.3,8.8,2.3c2.8,0,5.1-0.8,6.8-2.4c1.3-1.2,2.9-3.5,2.9-7.4
	c0-0.9,0-2.3,0-3.3l1.5-1.4c0.8-0.7,1.1-1.9,0.8-2.9l-2.3-7.1c0-2.5,0.1-15.5,0.1-20.8c0-2.6-0.2-5.1-0.6-7.5
	c-0.5-2.7-1.3-5.4-2.3-8.3c-2.3-6-6.2-12.8-11.9-20.8c-0.8-1.1-1.5-2.1-2.2-3.1c-9.4-13.1-11-15.3-11.1-30.1l1.3-1.4
	c0.7-0.8,0.9-1.8,0.6-2.8l-1.9-5.4v-2.6v-1.5c0-1.3,0.3-3,2.9-3c0.8,0,1.6,0.2,2.3,0.5c1.5,0.7,3.5,2.4,5,4.4
	c1.7,2.3,2.7,4.6,2.7,6.6v6.7l-1.2,0.8c-1.1,0.7-1.6,2.1-1.1,3.4l2.4,6v2.8c-1.1-1.4-1.9-2.6-1.9-2.6c-0.5-0.8-1.4-1.2-2.3-1.2
	c-0.3,0-0.6,0-0.8,0.1c-1.2,0.4-2,1.4-2,2.6v6c0,0.5,0.1,1,0.4,1.4c0.1,0.1,1.7,2.8,3.8,5.5c2.8,3.5,5.2,5.5,7.5,6.1
	c0.9,2.5,2.7,5.4,5.6,8.8c2.6,3.2,5.1,5.7,5.3,5.8c0.5,0.5,1.2,0.8,1.9,0.8c0.4,0,0.7-0.1,1.1-0.2c1-0.4,1.7-1.4,1.7-2.6v-6
	c0-0.7-0.2-1.3-0.7-1.8c0,0-1.2-1.4-2.4-3.1c-1.6-2.3-2-3.7-2-4.1v-6.3l1.7-2.1c0.7-0.8,0.8-1.9,0.4-2.9l-2.2-4.9V1310
	c0-3.2-0.7-6.5-2-9.9c-1.2-3-2.9-6-5-8.9c-4-5.4-9-9.8-13.6-11.8C2149.8,1278.1,2147,1277.5,2144.2,1277.5L2144.2,1277.5
	L2144.2,1277.5z"/>
<path d="M2184.9,1352.5c1.8,3.1,3.5,6.2,5.2,9.4c14.9,28.7,23.3,61.3,23.3,95.8v10.2v10.2c0-38.4-10.4-74.3-28.5-105.2v-10.2
	L2184.9,1352.5 M2184.9,1349.8c-0.2,0-0.5,0-0.7,0.1c-1.2,0.3-2,1.4-2,2.7v10.2v10.2c0,0.5,0.1,1,0.4,1.4
	c18.4,31.3,28.1,67.2,28.1,103.8c0,1.5,1.2,2.8,2.8,2.8s2.8-1.2,2.8-2.8v-10.2v-10.2c0-17.2-2.1-34.3-6.2-50.8
	c-4-16-9.8-31.6-17.5-46.3c-1.7-3.2-3.4-6.4-5.2-9.5C2186.7,1350.3,2185.8,1349.8,2184.9,1349.8L2184.9,1349.8z"/>
<path d="M1860.6,1352.5v10.2v10.2c-18.1,30.9-28.5,66.8-28.5,105.2v-10.2v-10.2c0-34.6,8.4-67.1,23.3-95.8
	C1857,1358.7,1858.8,1355.6,1860.6,1352.5 M1860.6,1349.8c-1,0-1.9,0.5-2.4,1.4c-1.8,3.1-3.6,6.3-5.2,9.5
	c-7.6,14.7-13.5,30.3-17.5,46.3c-4.1,16.5-6.2,33.6-6.2,50.8v10.2v10.2c0,1.5,1.2,2.8,2.8,2.8s2.8-1.2,2.8-2.8
	c0-36.5,9.7-72.4,28.1-103.8c0.2-0.4,0.4-0.9,0.4-1.4v-10.2v-10.2c0-1.3-0.8-2.3-2-2.7C1861.1,1349.8,1860.8,1349.8,1860.6,1349.8
	L1860.6,1349.8z"/>
</svg>
