<?xml version="1.0" encoding="utf-8"?>
<!-- Generator: Adobe Illustrator 18.0.0, SVG Export Plug-In . SVG Version: 6.00 Build 0)  -->
<!DOCTYPE svg PUBLIC "-//W3C//DTD SVG 1.1//EN" "http://www.w3.org/Graphics/SVG/1.1/DTD/svg11.dtd">
<svg version="1.1" id="Layer_4" xmlns="http://www.w3.org/2000/svg" xmlns:xlink="http://www.w3.org/1999/xlink" x="0px" y="0px"
	 viewBox="90 180 432 432" enable-background="new 90 180 432 432" xml:space="preserve">
<g id="Layer_2" display="none">
	<g display="inline">
		
			<image overflow="visible" enable-background="new    " width="1174" height="1455" id="z1LPfp_1_" xlink:href="B8FAEA46.jpeg"  transform="matrix(1.4528 -0.1537 0.1289 1.219 -1944.4082 1622.5432)">
		</image>
	</g>
</g>
<g id="Layer_2_copy" display="none">
	<g display="inline">
		
			<image overflow="visible" enable-background="new    " width="1174" height="1455" id="z1LPfp_2_" xlink:href="B8FAEA4A.jpeg"  transform="matrix(1.4528 -0.1537 0.1289 1.219 -1944.4082 1622.5432)">
		</image>
	</g>
</g>
<g id="Layer_1_1_">
</g>
<g id="Layer_3">
	<g>
		<path d="M241.9,527.3c-15.8,3.7-23.4,19.7-23.4,34.1s7.4,26.6,21.4,24.7c10.2-1.5,16.5-8.4,17.9-13.4c1.6-5.3,0-8.8-3.2-10.4
			c-3.2-1.7-7.6-0.4-9.5,3.9c-1.9,4.3-14.2,5.1-11.8-10.2c2.3-15.1,16.1-16.7,15.4-8.5c-0.3,4,3.4,5.6,5.6,5.2s7.3-2.1,7.3-10
			C261.8,534.1,255,524.1,241.9,527.3z"/>
		<g>
			<path d="M305.9,556.6c-2-4.8-10.4-27.2-14-34.6c-3.5-7.3-12.2-6-15.5,2.4c-2.2,5.6-12.3,35.7-14,42.7c-1.7,7,1.4,9.3,5.8,8.8
				c4.3-0.5,7.5-5,8.8-8.3c1.2-3.1,2-7,6.1-8.4c4.1-1.5,7,0.2,8.8,3.4c1.8,3.2,6.8,5,10.3,3.8C305.9,565.4,307.9,561.4,305.9,556.6z
				 M284,550.2c-1.7,0.1-2.6-0.4-2.4-2.4c0.2-2,1.1-5.5,2.3-5.6c0.9-0.1,2.5,4.2,2.7,5.7C286.7,549.4,285.5,550.1,284,550.2z"/>
		</g>
		<path d="M311.8,516.3c0.2-4.9,2.9-8.5,8.3-9c5.4-0.5,7.4,2.6,7.3,6.1c0,2.6-0.2,5-0.2,6.6c0,1.5,1.2,2.9,3.2,0.4
			c0,0,10-15,11.2-16.8c2.1-2.7,6.5-3.2,9.6-1.2c3.7,2.4,2.1,6.7,0.5,9.1c-1.7,2.2-10.2,15.2-10.8,16.9c-0.7,1.6-0.4,2.7,0.1,3.6
			c0.6,0.9,8.8,9.8,11.2,12.5c2.9,3.2,2.6,6.7-0.6,9.4c-3.1,2.6-7.3,2.4-10.9-1c-3.8-3.5-11.3-12-13.2-11.5
			c-1.9,0.5-1.6,9.9-1.7,13.5c-0.2,5.5-3.1,7.8-8.1,9.5c-4.6,1.6-8.2-0.9-8.1-6.5c0.1-5.7,0.1-5.7,0.1-5.7L311.8,516.3z"/>
		<path d="M358.4,508.5c0.8-8,7.6-12.7,13.1-14.2c5.6-1.6,14.2-3,17.7-3c3.6,0,7.2,1.3,7.1,6.3c-0.1,5.2-3.5,7.8-8.2,8.8
			c-5.3,1.1-9.4,1.9-12.7,2.8c-2.7,0.8-3.4,2.7-3.3,4.3c0,1.3,0.8,2.3,3.7,1.8c2.8-0.6,5.7-1,8-1.5c2.9-0.5,5.7,0.6,6,3.5
			c0.3,2.8-1.3,7.3-5.6,8.3c-4.1,0.9-6.7,1.1-8.8,2c-2,0.9-3,2-3,3.9c0,2.1,0.9,3.3,4.6,2.5c3.5-0.8,8.2-1.8,11.3-2.3
			c3-0.6,6.9,0.3,6.9,4.5c0,4.6-2.4,8.2-6.4,9.9c-4.6,1.9-19.5,4.7-23.7,5.3c-4,0.5-7.7-1.5-7.9-8.3
			C356.5,536.2,357.7,515.2,358.4,508.5z"/>
	</g>
	<g>
		<path d="M298.3,255.7c1-3,3.5-4,5.7-3.4c2.1,0.7,3.7,2.7,2.8,5.8c-0.6,1.8-4.1,11.9-5.1,14.1c-1,2.1-2.3,5.5-5.5,6.1
			c-2.7,0.5-4.4-1.1-6-4.1c-1.6-3.2-3.6-8.2-4.8-11.2c-0.9-2.3-0.4-5.4,2-6.3c2.5-1.1,4.8-0.2,5.7,2c0.7,1.6,1.6,5.6,2.1,5.4
			C296.5,263.4,297.2,259,298.3,255.7z"/>
		<path d="M314.3,246.1c-5.2,0-9.2-3.8-9.3-8.8c-0.2-6.4,3.3-11.7,9.1-13.7c3.8-1.3,7.6-0.5,10.2,2c1.8,1.9,2.8,4.5,2.8,7.2
			c-0.1,6-3.2,10.5-8.8,12.5C316.9,245.9,315.5,246.1,314.3,246.1z M317.7,230.7c-0.3,0-0.8,0.1-1.2,0.2c-3.2,1.1-3.8,3.9-3.8,6.1
			c0,0.3,0,1.2,1.5,1.2c0.4,0,0.9-0.1,1.3-0.3c1.7-0.6,3.5-1.8,3.6-5.3c0-0.7-0.2-1.3-0.5-1.7C318.5,230.9,318.2,230.7,317.7,230.7z
			"/>
		<path d="M322.3,262.3c2.2-0.6,4.1,1.9,4.1,4.2c0,2.2-1.9,3.4-3.5,4.1c-1.8,0.7-8.2,2.3-10.2,2.8c-2.8,0.7-4.7-1.1-4.6-3.9
			c0-2.7,0.1-12.6,0.2-15.2c0.1-2.2,1.3-4,4.2-5.2c2.2-0.9,8.2-2.5,10.1-3.1c1.9-0.6,4.1,1.9,4.1,4.2c0,2.2-1.5,3.4-2.7,3.8
			c-1.1,0.4-6.2,1.9-6.9,2.1c-0.7,0.2-1,0.6-1,1c0,0.3,0.3,0.7,1.2,0.4c0.9-0.3,2.7-0.9,3.5-1.1c1-0.2,2,0.2,2.2,1.7s-0.5,2.6-1.6,3
			c-1.1,0.4-3.9,1.1-4.5,1.3c-0.6,0.2-1.1,0.5-1,1c0,0.5,0.4,0.7,1,0.6C317.3,263.7,320.6,262.7,322.3,262.3z"/>
		<path d="M294.7,237.4c0-2.8-2.2-5.2-5.1-5.3c-2.8,0-5.2,2.2-5.3,5.1l-0.1,11.3c0,2.8,2.4,5.7,6.1,5c3.7-0.8,9.4-2.7,11.9-3.5
			c2.5-0.8,3.8-2,3.8-4.9c0-2.9-2.6-5.7-5.4-4.9c-3.9,1.2-6,2-6,1.2C294.6,240.5,294.7,237.4,294.7,237.4z"/>
		<path fill="#FFFFFF" stroke="#000000" stroke-width="1.0035" stroke-miterlimit="10" d="M285.1,257.1"/>
		<path fill="#FFFFFF" stroke="#000000" stroke-width="1.0035" stroke-miterlimit="10" d="M283.6,245.2"/>
		<g>
			<g>
				<g>
					<path d="M375.5,205.6c-1.7,0.5-3.1,1.1-3.1,1.3c0,0.2,0,1.9,0,3.6c0,0-0.1,12.3,0,17.8s-1.4,10.3-7.1,12.1
						c-6.3,2-9.2-4.4-9.2-7.7c0-2,0-18.2,0-18.2c0-1.8-1.4-2.8-3.1-2.3l-9.8,2.9c-1.7,0.5-3.1,2.3-3.1,4.1c0,0,0,18.3,0,23.1
						c0,12.2,10.3,23.4,28.8,18.4c14.3-3.9,20.8-20.2,20.8-24.8c0-4.6,0-23.4,0-30.5c0-1.2,0-1.2,0-1.2c0-1.7-1.4-2.6-3.1-2.1
						L375.5,205.6z"/>
				</g>
			</g>
		</g>
		<g>
			<path d="M268.2,253.4c1.7-0.5,3.1-2.3,3.1-4.1v-9.8c0-1.8-1.4-2.8-3.1-2.3L228,248.6c-1.7,0.5-3.1,2.3-3.1,4.1v9.8
				c0,1.8,1.4,2.8,3.1,2.3l8.8-2.4c1.7-0.5,3.1,0.6,3.1,2.3v10.7c0,1.8-1.4,3.6-3.1,4.1L228,282c-1.7,0.5-3.1,2.3-3.1,4.1v10.3
				c0,1.8,1.4,2.8,3.1,2.3l40.2-11.4c1.7-0.5,3.1-2.3,3.1-4.1v-10.3c0-1.8-1.4-2.8-3.1-2.3l-8.8,2.4c-1.7,0.5-3.1-0.6-3.1-2.3v-10.7
				c0-1.8,1.4-3.6,3.1-4.1L268.2,253.4z"/>
		</g>
	</g>
	<g>
		<path d="M239.4,338.5l6.1-1.6v2.3l-8.6,2.1v-22.3l2.4-0.6L239.4,338.5L239.4,338.5z"/>
		<path d="M262.8,334.9l-2.4,0.6v-22.2l2.4-0.6V334.9z"/>
		<path d="M291.6,305.6l3.3-0.8l-10.4,12.9l10.7,9.2l-3.4,0.9l-9.1-7.9l-0.6,0.8v9.6l-2.4,0.6v-22.3l2.4-0.6v9.5L291.6,305.6z"/>
		<path d="M310.1,301l11.5-2.8v2.3l-9.1,2.2v6.6l8.8-2.1v2.3l-8.8,2.1v8.7l9.1-2.2v2.3l-11.5,2.8V301L310.1,301z"/>
		<path d="M363,303.8l-2.6,6.9l-2.7,0.7l10.2-25.8l10,20.8l-2.7,0.7l-2.6-5.7L363,303.8z M367.8,291.5l-3.8,9.9l7.5-1.9L367.8,291.5
			z"/>
	</g>
	<g>
		<path d="M245.2,499.8l6.1-1.6v2.3l-8.6,2.1v-22.3l2.4-0.6V499.8L245.2,499.8z"/>
		<path d="M285.8,480.9c0,6.3-5.3,12.8-11.6,14.3c-6.3,1.6-11.6-2.1-11.6-8.6c0-6.3,5.3-12.8,11.6-14.3
			C280.6,470.7,285.8,474.6,285.8,480.9z M265.1,486.1c0,5,4.1,8.2,9.1,6.9c5.1-1.3,9.1-6.4,9.1-11.4c0-5.1-4-8.2-9.1-6.9
			C269.1,475.8,265.1,481,265.1,486.1z"/>
		<path d="M307.3,481.4l6.3-18.5l2.6-0.7l-9,25.8l-9-21.3l2.6-0.7L307.3,481.4z"/>
		<path d="M331.1,458.5l11.5-2.8v2.3l-9.1,2.2v6.6l8.8-2.1v2.3l-8.8,2.1v8.7l9.1-2.2v2.3l-11.5,2.8V458.5z"/>
		<path d="M369.2,453.5c-0.9-1.3-2-2-3.8-1.5c-2,0.5-3.7,2.3-3.7,4.4c0,2,2,2.3,3.5,2.6l1.5,0.3c2.9,0.6,5.4,1.4,5.4,4.9
			c0,3.9-3.1,7.6-7,8.6c-3.6,0.9-6.2-0.8-6.9-4l2.4-1.3c0.3,2.1,2,3.6,4.5,3c2.3-0.6,4.6-2.9,4.6-5.5c0-2.6-2-2.9-4.1-3.4l-1.4-0.3
			c-2.6-0.5-4.8-1.3-4.8-4.5c0-3.4,2.9-6.3,6.2-7.2c2.4-0.6,4.6,0.1,5.8,2L369.2,453.5z"/>
	</g>
	<g>
		<path d="M193.6,473.5c-11.2,5.4-20.8,1.9-22.6-7c-1.9-8.8,1.2-25.2,19.2-36.5s32.2-17.2,38.9-20.2c6.7-3,2.3,1.5-0.8,4.9
			c-3.1,3.4-15.6,15-18.6,19.2C210.7,442.2,214.7,463.4,193.6,473.5z"/>
		<path d="M209.7,451.1c1.5-5.8,1.9-30.6-13.7-46.6c-9.5-9.8-24.8-8.3-29.3,1.6s4.4,18.6,16.6,18.2c6.2,4.4,2.2,17.2,2.2,17.2
			L209.7,451.1z"/>
		<path d="M190.6,416.6c8.6-1.5,17.3-3.4,28.9-14.6c11.6-11.3,20.3-14.6,29.7-17.2c9.3-2.4,14.4-2.8,17.5-2.8c2.9,0,4-0.8-0.1-2.2
			c-4-1.5-27.5-7.1-44.3-2.2s-26.7,22.6-36,21.5C176.1,397.4,190.6,416.6,190.6,416.6z"/>
		<path d="M232.4,372.7c7.1-1.1,25.3,1.6,34.5,3.8s27.5,7.9,43.5,14.9c6.4,2.8,8,1.4,0.9-3.1c-7.1-4.5-26.6-17.8-49.7-20.9
			c-16.4-2.2-27.1,2.2-30,3.7C228.8,372.6,229.3,373.1,232.4,372.7z"/>
		<g>
			<path fill="none" d="M293.5,378.4c-1.5-8.9-2.7-9.4-4-7.6c-1.2,1.8-2.6,6.9-1.9,23.1c0.2,4.5,0.9,8.9,1.9,12.9
				C292.4,396.2,294.4,383.7,293.5,378.4z"/>
			<path d="M270.5,425.9c-1-4.1-3-17.4-2.2-19.8c0.8-2.4-2.9-4.1-7-5.2c-4.2-1.2-7-0.7-6.6,1c0.4,1.7,1.1,4.4-0.6,3.8
				c-3.6-1.3-13.3-2.1-19.2,3.9c-6,6.1-10.2,17.9-10.2,28.3c-0.1,13.4,8.8,18.3,17.3,14.9c8.5-3.3,14.7-10.3,16.6-12.7
				c1.9-2.3,2.6-2.1,3.5-0.1c0.8,1.8,4,4.5,10.8,2.1c4.5-1.6,9.6-7.3,12.8-11.4c-1.5-1.7-2.9-3.6-4.2-5.8
				C276.1,430.2,271.4,429.7,270.5,425.9z M246.5,435.2c-6.4,0.2-5.5-12.4-3.2-18c2.8-7.2,8-5.9,9.9-4.6c2.2,1.5,2.4,4.7,2.8,9.7
				l0.7,7C256.7,429.4,253,435,246.5,435.2z"/>
			<path d="M282.8,423.2c2.2-2.8,4.7-9.2,6.6-16.4c-1-4-1.7-8.4-1.9-12.9c-0.8-16.2,0.6-21.4,1.9-23.1c1.2-1.8,2.5-1.4,4,7.6
				c0.9,5.4-1.1,17.8-4,28.5c0.9,3.6,2,6.9,3.2,9.7c2.9-8.3,7.7-24.5,6.8-39.1c-1.4-21-13.8-26.5-20-18.5s-9.6,20.3-8.3,36
				c0.7,8.5,4.5,21.1,10.1,30.3C281.8,424.5,282.4,423.9,282.8,423.2z"/>
			<path d="M290.5,422.2c0,0,1-2.1,2.1-5.8c-1.2-2.7-2.3-6.1-3.2-9.7c-2,7.2-4.4,13.6-6.6,16.4c-0.6,0.7-1.1,1.3-1.7,1.9
				c1.3,2.1,2.7,4.1,4.2,5.8c1.7-2.2,2.8-4,3-4.4C290.5,422.2,290.5,422.2,290.5,422.2z"/>
			<path d="M310,414.1c-0.1-2.3-2.2-2.9-3,0.7c-0.8,3.7-3.2,8.6-7,9.3c-2.2,0.4-5-2.6-7.2-7.6c-1.3,3.6-2.1,5.8-2.1,5.8s0,0-2,4.2
				c-0.2,0.5-1.4,2.2-3,4.4c3.9,4.4,8.4,6.8,13.2,5.7C310.7,433.5,310.1,416.5,310,414.1z"/>
		</g>
		<path d="M302.6,438.4c4.9-1.2,10.2-8.2,11.4-27.5c1.3-19.3,2-42.4,6.2-53.4c4.3-11,12.9-19,23.2-15.8c10.3,3.2,10.3,19.1-2,24.1
			c-12.3,5-31.1-6.9-36.5-11.7c-4.3-3.9-3.5-6,0.3-3.5c11.2,7.4,31.1,6.6,31.3,6.1c0.2-0.4,2.2-0.3,2.2-0.3l1.6,2
			c0,0-2.6,4.3-3.9,9.5c-1.3,5.2-2.1,31.1-5.2,45.9c-3.1,14.6-17.6,27.4-28.5,27C300,440.7,300.3,438.9,302.6,438.4z"/>
		<path d="M332.6,381.2c7.4-5.6,28.5-20.9,32-23.7c3.5-2.7,6.7-1.3,2.1,3.5c-4.6,4.8-19.6,20.8-17.1,25.4c2,3.7,14.2,18.5,41.4,16.8
			c28.6-1.9,48.5-20.7,53.6-25.7c5.1-5,5.8-2.1,2.3,2.2s-26.4,31.3-56.8,34.6c-30.5,3.3-44.2-8.5-51.5-14.4
			C331.9,394.5,325.9,386.2,332.6,381.2z"/>
		<path d="M373,367.8c4.6-1,12.3-3,16.7-5.7c4.4-2.6,5.3-1.5,3.2,3.6c-2,5.1-10.6,27.1-0.8,27.1c4.9,0,9.7-11.3,13.2-22.6l2.1,5.5
			c0,0-1.6,14.4-12,22.4c-10.4,7.9-29.9,10.2-25.9-5.9c3-12.5,6.4-19.2,7.7-21.7c0.4-0.7,0.2-0.9-0.3-0.8c-1,0.2-2.3,0.6-3.1,0.5
			C371.8,370.2,371.2,368.2,373,367.8z"/>
		<path d="M384.3,358.7c6.3-2,10.2-6.2,9.6-11.5c-0.6-5.3-5.5-7.1-10.7-4.9c-5.3,2.2-9.8,5.7-9.4,10.6
			C374.1,357.9,377.6,360.8,384.3,358.7z"/>
		<path d="M444.1,393.3c-9.3-4.6-24.3-14.5-25.3-45.5c-1.3-45,15.1-38.9,20.5-30c3.9,6.4,6.6,17.2,6,30.3
			c-0.7,12.9-5.4,26.4-13.2,37.9c-7.7,11.4-35.5,17.4-31.2-8.1c2-12.6,11-22,26.1-20.2l1.6,10.3c-10.2-2-15.1,3.9-16,10.3
			c-0.9,6,6.7,11.8,15.7,2c7.2-7.9,13.5-22.9,13.6-33.3c0.2-12.5-2.3-17.4-5.5-19.7c-2-1.5-5.3,5.6-5,19.9
			c0.3,11.4,5.1,34.9,13.5,41.3c2.2,1.8,3.8,3.3,3.7,4.6C448.3,394.3,446,394.2,444.1,393.3z"/>
		<path d="M400.8,358.1"/>
	</g>
</g>
</svg>
