<?xml version="1.0" encoding="utf-8"?>
<!-- Generator: Adobe Illustrator 18.0.0, SVG Export Plug-In . SVG Version: 6.00 Build 0)  -->
<!DOCTYPE svg PUBLIC "-//W3C//DTD SVG 1.1//EN" "http://www.w3.org/Graphics/SVG/1.1/DTD/svg11.dtd">
<svg version="1.1" xmlns="http://www.w3.org/2000/svg" xmlns:xlink="http://www.w3.org/1999/xlink" x="0px" y="0px"
	 viewBox="90 180 432 432" enable-background="new 90 180 432 432" xml:space="preserve">
<g id="Layer_4">
	<g id="Layer_1_1_">
		<g>
			<g id="Layer_2">
				<g>
					<polygon fill="#4C4C4C" points="305.9,324.4 305.9,324.4 305.9,324.5 					"/>
				</g>
				<g>
					<polygon fill="#4C4C4C" points="244.2,410.8 305.9,468.3 305.9,439.6 259.6,396.5 					"/>
				</g>
				<g>
					<polygon fill="#4C4C4C" points="244.2,382 228.7,396.5 244.2,410.8 259.6,396.5 					"/>
				</g>
				<g>
					<polygon fill="#4C4C4C" points="244.2,382 305.9,324.5 305.9,324.4 275.1,324.4 228.7,367.6 					"/>
				</g>
				<g>
					<polygon fill="#4C4C4C" points="228.7,396.5 244.2,382 228.7,367.6 213.2,382 					"/>
				</g>
				<g>
					<polygon fill="#4C4C4C" points="197.9,425.2 182.4,410.8 167,425.2 182.4,439.6 					"/>
				</g>
				<g>
					<polygon fill="#4C4C4C" points="197.9,367.6 182.4,353.3 167,367.6 182.4,382 					"/>
				</g>
				<g>
					<polygon fill="#4C4C4C" points="167,396.5 151.5,410.8 167,425.2 182.4,410.8 					"/>
				</g>
				<g>
					<polygon fill="#4C4C4C" points="182.4,382 167,367.6 151.5,382 167,396.5 					"/>
				</g>
				<g>
					<polygon fill="#4C4C4C" points="182.4,353.3 151.5,324.4 120.7,324.4 167,367.6 					"/>
				</g>
				<g>
					<polygon fill="#4C4C4C" points="151.5,382 136.1,396.5 151.5,410.8 167,396.5 					"/>
				</g>
				<g>
					<polygon fill="#4C4C4C" points="89.7,439.6 89.7,468.3 151.5,410.8 136.1,396.5 					"/>
				</g>
				<g>
					<path fill="#4C4C4C" d="M305.9,295.1L305.9,295.1L305.9,295.1z"/>
				</g>
				<g>
					<path fill="#4C4C4C" d="M305.9,180L305.9,180L305.9,180z"/>
				</g>
				<g>
					<polygon fill="#4C4C4C" points="89.7,295.2 89.8,295.3 89.8,295.1 					"/>
				</g>
				<g>
					<polygon fill="#4C4C4C" points="244.2,266.3 290.5,309.5 305.9,295.1 305.9,295.1 259.6,252 					"/>
				</g>
				<g>
					<polygon fill="#4C4C4C" points="305.9,323.9 305.9,323.7 305.8,323.8 					"/>
				</g>
				<g>
					<polygon fill="#4C4C4C" points="244.2,266.3 259.6,252 244.2,237.6 228.7,252 					"/>
				</g>
				<g>
					<polygon fill="#4C4C4C" points="244.2,237.6 305.9,180 305.9,180 275.1,180 228.7,223.2 					"/>
				</g>
				<g>
					<polygon fill="#4C4C4C" points="228.7,252 244.2,237.6 228.7,223.2 213.3,237.6 					"/>
				</g>
				<g>
					<polygon fill="#4C4C4C" points="182.4,266.3 167,280.7 182.4,295.2 197.9,280.7 					"/>
				</g>
				<g>
					<polygon fill="#4C4C4C" points="197.9,223.2 182.4,208.8 167,223.2 182.4,237.6 					"/>
				</g>
				<g>
					<polygon fill="#4C4C4C" points="167,252 151.5,266.3 167,280.7 182.4,266.3 					"/>
				</g>
				<g>
					<polygon fill="#4C4C4C" points="182.4,237.6 167,223.2 151.5,237.6 167,252 					"/>
				</g>
				<g>
					<polygon fill="#4C4C4C" points="182.4,208.8 151.5,180 120.7,180 167,223.2 					"/>
				</g>
				<g>
					<polygon fill="#4C4C4C" points="151.5,266.3 167,252 151.5,237.6 136.1,252 					"/>
				</g>
				<g>
					<polygon fill="#4C4C4C" points="89.8,323.9 89.8,323.9 89.8,323.8 					"/>
				</g>
				<g>
					<polygon fill="#4C4C4C" points="151.5,266.3 136.1,252 89.8,295.1 89.8,295.3 105.2,309.5 					"/>
				</g>
				<polygon fill="#4C4C4C" points="275.1,323.9 275,323.9 274.9,324 305.6,324 305.7,323.9 				"/>
				<polygon fill="#4C4C4C" points="290.5,309.5 305.8,323.8 305.9,323.7 305.9,295.1 				"/>
				<polygon fill="#4C4C4C" points="275,323.9 275.1,323.9 305.7,323.9 305.8,323.8 290.5,309.5 				"/>
				<path fill="#4C4C4C" d="M275,323.9L275,323.9L275,323.9z"/>
				<g>
					<polygon fill="#4C4C4C" points="522.3,324.4 522.2,324.4 522.2,324.5 					"/>
				</g>
				<g>
					<polygon fill="#4C4C4C" points="460.4,410.8 522.2,468.3 522.2,439.6 475.9,396.5 					"/>
				</g>
				<g>
					<polygon fill="#4C4C4C" points="460.4,382 445.1,396.5 460.4,410.8 475.9,396.5 					"/>
				</g>
				<g>
					<polygon fill="#4C4C4C" points="460.4,382 522.2,324.5 522.2,324.4 491.4,324.4 445.1,367.6 					"/>
				</g>
				<g>
					<polygon fill="#4C4C4C" points="445.1,396.5 460.4,382 445.1,367.6 429.6,382 					"/>
				</g>
				<g>
					<polygon fill="#4C4C4C" points="414.1,425.2 398.7,410.8 383.3,425.2 398.7,439.6 					"/>
				</g>
				<g>
					<polygon fill="#4C4C4C" points="414.1,367.6 398.7,353.3 383.3,367.6 398.7,382 					"/>
				</g>
				<g>
					<polygon fill="#4C4C4C" points="383.3,396.5 367.9,410.8 383.3,425.2 398.7,410.8 					"/>
				</g>
				<g>
					<polygon fill="#4C4C4C" points="398.7,382 383.3,367.6 367.9,382 383.3,396.5 					"/>
				</g>
				<g>
					<polygon fill="#4C4C4C" points="398.7,353.3 367.9,324.4 336.9,324.4 383.3,367.6 					"/>
				</g>
				<g>
					<polygon fill="#4C4C4C" points="367.9,382 352.4,396.5 367.9,410.8 383.3,396.5 					"/>
				</g>
				<g>
					<polygon fill="#4C4C4C" points="306.1,439.6 306.1,468.3 367.9,410.8 352.4,396.5 					"/>
				</g>
				<g>
					<polygon fill="#4C4C4C" points="522.3,295.1 522.2,295.1 522.2,295.1 					"/>
				</g>
				<g>
					<polygon fill="#4C4C4C" points="522.3,180 522.2,180 522.2,180 					"/>
				</g>
				<g>
					<polygon fill="#4C4C4C" points="306,295.2 306.1,295.3 306.1,295.1 					"/>
				</g>
				<g>
					<polygon fill="#4C4C4C" points="460.5,266.3 506.8,309.5 522.2,295.1 522.2,295.1 475.9,252 					"/>
				</g>
				<g>
					<polygon fill="#4C4C4C" points="522.2,323.9 522.2,323.7 522.2,323.8 					"/>
				</g>
				<g>
					<polygon fill="#4C4C4C" points="460.5,266.3 475.9,252 460.5,237.6 445.1,252 					"/>
				</g>
				<g>
					<polygon fill="#4C4C4C" points="460.5,237.6 522.2,180 522.2,180 491.4,180 445.1,223.2 					"/>
				</g>
				<g>
					<polygon fill="#4C4C4C" points="445.1,252 460.5,237.6 445.1,223.2 429.6,237.6 					"/>
				</g>
				<g>
					<polygon fill="#4C4C4C" points="398.7,266.3 383.3,280.7 398.7,295.2 414.1,280.7 					"/>
				</g>
				<g>
					<polygon fill="#4C4C4C" points="414.1,223.2 398.7,208.8 383.3,223.2 398.7,237.6 					"/>
				</g>
				<g>
					<polygon fill="#4C4C4C" points="383.3,252 367.9,266.3 383.3,280.7 398.7,266.3 					"/>
				</g>
				<g>
					<polygon fill="#4C4C4C" points="398.7,237.6 383.3,223.2 367.9,237.6 383.3,252 					"/>
				</g>
				<g>
					<polygon fill="#4C4C4C" points="398.7,208.8 367.9,180 336.9,180 383.3,223.2 					"/>
				</g>
				<g>
					<polygon fill="#4C4C4C" points="367.9,266.3 383.3,252 367.9,237.6 352.4,252 					"/>
				</g>
				<g>
					<polygon fill="#4C4C4C" points="306.1,323.9 306.1,323.9 306.1,323.8 					"/>
				</g>
				<g>
					<polygon fill="#4C4C4C" points="367.9,266.3 352.4,252 306.1,295.1 306.1,295.3 321.5,309.5 					"/>
				</g>
				<polygon fill="#4C4C4C" points="491.4,323.9 491.4,323.9 491.3,324 522,324 522,323.9 				"/>
				<polygon fill="#4C4C4C" points="506.8,309.5 522.2,323.8 522.2,323.7 522.2,295.1 				"/>
				<polygon fill="#4C4C4C" points="491.4,323.9 491.4,323.9 522,323.9 522.2,323.8 506.8,309.5 				"/>
				<path fill="#4C4C4C" d="M491.4,323.9L491.4,323.9L491.4,323.9z"/>
				<g>
					<path fill="#4C4C4C" d="M305.9,583.6L305.9,583.6L305.9,583.6z"/>
				</g>
				<g>
					<path fill="#4C4C4C" d="M305.9,468.5L305.9,468.5L305.9,468.5z"/>
				</g>
				<g>
					<polygon fill="#4C4C4C" points="89.7,583.7 89.8,583.7 89.8,583.6 					"/>
				</g>
				<g>
					<polygon fill="#4C4C4C" points="244.2,554.8 290.5,598 305.9,583.6 305.9,583.6 259.6,540.5 					"/>
				</g>
				<g>
					<polygon fill="#4C4C4C" points="305.9,612.3 305.9,612.2 305.8,612.3 					"/>
				</g>
				<g>
					<polygon fill="#4C4C4C" points="244.2,554.8 259.6,540.5 244.2,526.1 228.7,540.5 					"/>
				</g>
				<g>
					<polygon fill="#4C4C4C" points="244.2,526.1 305.9,468.5 305.9,468.5 275.1,468.5 228.7,511.6 					"/>
				</g>
				<g>
					<polygon fill="#4C4C4C" points="228.7,540.5 244.2,526.1 228.7,511.6 213.3,526.1 					"/>
				</g>
				<g>
					<polygon fill="#4C4C4C" points="182.4,554.8 167,569.2 182.4,583.6 197.9,569.2 					"/>
				</g>
				<g>
					<polygon fill="#4C4C4C" points="197.9,511.6 182.4,497.3 167,511.6 182.4,526.1 					"/>
				</g>
				<g>
					<polygon fill="#4C4C4C" points="167,540.5 151.5,554.8 167,569.2 182.4,554.8 					"/>
				</g>
				<g>
					<polygon fill="#4C4C4C" points="182.4,526.1 167,511.6 151.5,526.1 167,540.5 					"/>
				</g>
				<g>
					<polygon fill="#4C4C4C" points="182.4,497.3 151.5,468.5 120.7,468.5 167,511.6 					"/>
				</g>
				<g>
					<polygon fill="#4C4C4C" points="151.5,554.8 167,540.5 151.5,526.1 136.1,540.5 					"/>
				</g>
				<g>
					<path fill="#4C4C4C" d="M89.8,612.3L89.8,612.3L89.8,612.3z"/>
				</g>
				<g>
					<polygon fill="#4C4C4C" points="151.5,554.8 136.1,540.5 89.8,583.6 89.8,583.7 105.2,598.1 					"/>
				</g>
				<polygon fill="#4C4C4C" points="275.1,612.4 275,612.4 274.9,612.4 305.6,612.4 305.7,612.4 				"/>
				<polygon fill="#4C4C4C" points="290.5,598 305.8,612.3 305.9,612.2 305.9,583.6 				"/>
				<polygon fill="#4C4C4C" points="275,612.4 275.1,612.4 305.7,612.4 305.8,612.3 290.5,598 				"/>
				<path fill="#4C4C4C" d="M275,612.4L275,612.4L275,612.4z"/>
				<g>
					<polygon fill="#4C4C4C" points="522.3,583.6 522.2,583.6 522.2,583.6 					"/>
				</g>
				<g>
					<polygon fill="#4C4C4C" points="522.3,468.5 522.2,468.5 522.2,468.5 					"/>
				</g>
				<g>
					<polygon fill="#4C4C4C" points="306,583.7 306.1,583.7 306.1,583.6 					"/>
				</g>
				<g>
					<polygon fill="#4C4C4C" points="460.5,554.8 506.8,598 522.2,583.6 522.2,583.6 475.9,540.5 					"/>
				</g>
				<g>
					<path fill="#4C4C4C" d="M522.2,612.3L522.2,612.3L522.2,612.3z"/>
				</g>
				<g>
					<polygon fill="#4C4C4C" points="460.5,554.8 475.9,540.5 460.5,526.1 445.1,540.5 					"/>
				</g>
				<g>
					<polygon fill="#4C4C4C" points="460.5,526.1 522.2,468.5 522.2,468.5 491.4,468.5 445.1,511.6 					"/>
				</g>
				<g>
					<polygon fill="#4C4C4C" points="445.1,540.5 460.5,526.1 445.1,511.6 429.6,526.1 					"/>
				</g>
				<g>
					<polygon fill="#4C4C4C" points="398.7,554.8 383.3,569.2 398.7,583.6 414.1,569.2 					"/>
				</g>
				<g>
					<polygon fill="#4C4C4C" points="414.1,511.6 398.7,497.3 383.3,511.6 398.7,526.1 					"/>
				</g>
				<g>
					<polygon fill="#4C4C4C" points="383.3,540.5 367.9,554.8 383.3,569.2 398.7,554.8 					"/>
				</g>
				<g>
					<polygon fill="#4C4C4C" points="398.7,526.1 383.3,511.6 367.9,526.1 383.3,540.5 					"/>
				</g>
				<g>
					<polygon fill="#4C4C4C" points="398.7,497.3 367.9,468.5 336.9,468.5 383.3,511.6 					"/>
				</g>
				<g>
					<polygon fill="#4C4C4C" points="367.9,554.8 383.3,540.5 367.9,526.1 352.4,540.5 					"/>
				</g>
				<g>
					<path fill="#4C4C4C" d="M306.1,612.3L306.1,612.3L306.1,612.3z"/>
				</g>
				<g>
					<polygon fill="#4C4C4C" points="367.9,554.8 352.4,540.5 306.1,583.6 306.1,583.7 321.5,598.1 					"/>
				</g>
				<polygon fill="#4C4C4C" points="491.4,612.4 491.4,612.4 491.3,612.4 522,612.4 522,612.4 				"/>
				<polygon fill="#4C4C4C" points="506.8,598 522.2,612.3 522.2,612.2 522.2,583.6 				"/>
				<polygon fill="#4C4C4C" points="491.4,612.4 491.4,612.4 522,612.4 522.2,612.3 506.8,598 				"/>
				<path fill="#4C4C4C" d="M491.4,612.4L491.4,612.4L491.4,612.4z"/>
			</g>
		</g>
	</g>
</g>
<g id="Layer_3">
	<g id="Layer_3_3_">
		<g id="Layer_3_4_">
			<g>
				<polygon fill="#707070" points="228.7,367.6 275.1,324.4 244.2,324.4 213.2,353.3 				"/>
			</g>
			<g>
				<polygon fill="#707070" points="213.2,382 228.7,367.6 213.2,353.3 197.9,367.6 				"/>
			</g>
			<g>
				<polygon fill="#707070" points="213.2,382 197.9,367.6 182.4,382 197.9,396.5 				"/>
			</g>
			<g>
				<polygon fill="#707070" points="182.4,410.8 197.9,425.2 213.2,410.8 197.9,396.5 				"/>
			</g>
			<g>
				<polygon fill="#707070" points="182.4,382 167,396.5 182.4,410.8 197.9,396.5 				"/>
			</g>
			<g>
				<polygon fill="#707070" points="182.4,439.6 151.5,468.4 182.4,468.4 197.9,454 				"/>
			</g>
			<g>
				<polygon fill="#707070" points="213.3,237.6 228.7,223.2 213.3,208.8 197.9,223.2 				"/>
			</g>
			<g>
				<polygon fill="#707070" points="213.3,237.6 197.9,223.2 182.4,237.6 197.9,252 				"/>
			</g>
			<g>
				<polygon fill="#707070" points="182.4,266.3 197.9,280.7 213.3,266.3 197.9,252 				"/>
			</g>
			<g>
				<polygon fill="#707070" points="197.9,252 182.4,237.6 167,252 182.4,266.3 				"/>
			</g>
			<g>
				<polygon fill="#707070" points="182.4,295.2 151.5,323.9 182.4,323.9 197.9,309.5 				"/>
			</g>
			<g>
				<polygon fill="#707070" points="445.1,367.6 491.4,324.4 460.5,324.4 429.6,353.3 				"/>
			</g>
			<g>
				<polygon fill="#707070" points="429.6,382 445.1,367.6 429.6,353.3 414.1,367.6 				"/>
			</g>
			<g>
				<polygon fill="#707070" points="429.6,382 414.1,367.6 398.7,382 414.1,396.5 				"/>
			</g>
			<g>
				<polygon fill="#707070" points="398.7,410.8 414.1,425.2 429.6,410.8 414.1,396.5 				"/>
			</g>
			<g>
				<polygon fill="#707070" points="398.7,382 383.3,396.5 398.7,410.8 414.1,396.5 				"/>
			</g>
			<g>
				<polygon fill="#707070" points="398.7,439.6 367.9,468.4 398.7,468.4 414.1,454 				"/>
			</g>
			<g>
				<polygon fill="#707070" points="429.6,237.6 445.1,223.2 429.6,208.8 414.1,223.2 				"/>
			</g>
			<g>
				<polygon fill="#707070" points="429.6,237.6 414.1,223.2 398.7,237.6 414.1,252 				"/>
			</g>
			<g>
				<polygon fill="#707070" points="398.7,266.3 414.1,280.7 429.6,266.3 414.1,252 				"/>
			</g>
			<g>
				<polygon fill="#707070" points="414.1,252 398.7,237.6 383.3,252 398.7,266.3 				"/>
			</g>
			<g>
				<polygon fill="#707070" points="398.7,295.2 367.9,323.9 398.7,323.9 414.1,309.5 				"/>
			</g>
			<g>
				<polygon fill="#707070" points="213.3,526.1 228.7,511.6 213.3,497.3 197.9,511.6 				"/>
			</g>
			<g>
				<polygon fill="#707070" points="213.3,526.1 197.9,511.6 182.4,526.1 197.9,540.5 				"/>
			</g>
			<g>
				<polygon fill="#707070" points="182.4,554.8 197.9,569.2 213.3,554.8 197.9,540.5 				"/>
			</g>
			<g>
				<polygon fill="#707070" points="197.9,540.5 182.4,526.1 167,540.5 182.4,554.8 				"/>
			</g>
			<g>
				<polygon fill="#707070" points="182.4,583.6 151.5,612.4 182.4,612.4 197.9,598.1 				"/>
			</g>
			<g>
				<polygon fill="#707070" points="429.6,526.1 445.1,511.6 429.6,497.3 414.1,511.6 				"/>
			</g>
			<g>
				<polygon fill="#707070" points="429.6,526.1 414.1,511.6 398.7,526.1 414.1,540.5 				"/>
			</g>
			<g>
				<polygon fill="#707070" points="398.7,554.8 414.1,569.2 429.6,554.8 414.1,540.5 				"/>
			</g>
			<g>
				<polygon fill="#707070" points="414.1,540.5 398.7,526.1 383.3,540.5 398.7,554.8 				"/>
			</g>
			<g>
				<polygon fill="#707070" points="398.7,583.6 367.9,612.4 398.7,612.4 414.1,598.1 				"/>
			</g>
		</g>
		<g>
			<polygon fill="#707070" points="398.7,468.4 429.6,468.4 414.1,454 			"/>
		</g>
		<g>
			<polygon fill="#707070" points="429.6,468.5 398.7,468.5 414.1,482.9 			"/>
		</g>
	</g>
</g>
<g id="Layer_1">
	<g id="Layer_2_1_">
		<g>
			<polygon fill="#DDDDDD" points="89.7,468.4 89.7,468.4 89.7,468.3 			"/>
		</g>
		<g>
			<polygon fill="#DDDDDD" points="259.6,396.5 305.9,353.3 305.9,324.5 244.2,382 			"/>
		</g>
		<g>
			<polygon fill="#DDDDDD" points="213.2,410.8 228.7,425.2 244.2,410.8 228.7,396.5 			"/>
		</g>
		<g>
			<polygon fill="#DDDDDD" points="197.9,425.2 213.2,439.6 228.7,425.2 213.2,410.8 			"/>
		</g>
		<g>
			<polygon fill="#DDDDDD" points="197.9,454 213.3,468.4 244.2,468.4 213.2,439.6 			"/>
		</g>
		<g>
			<polygon fill="#DDDDDD" points="213.2,353.3 244.2,324.4 213.3,324.4 197.9,338.9 			"/>
		</g>
		<g>
			<polygon fill="#DDDDDD" points="197.9,454 213.2,439.6 197.9,425.2 182.4,439.6 			"/>
		</g>
		<g>
			<polygon fill="#DDDDDD" points="213.2,353.3 197.9,338.9 182.4,353.3 197.9,367.6 			"/>
		</g>
		<g>
			<polygon fill="#DDDDDD" points="197.9,338.9 182.4,324.4 151.5,324.4 182.4,353.3 			"/>
		</g>
		<g>
			<polygon fill="#DDDDDD" points="167,425.2 151.5,410.8 89.7,468.3 89.7,468.4 120.7,468.4 			"/>
		</g>
		<g>
			<polygon fill="#DDDDDD" points="151.5,382 89.7,324.5 89.7,353.3 136.1,396.5 			"/>
		</g>
		<g>
			<polygon fill="#DDDDDD" points="89.7,323.9 89.8,323.9 89.8,323.9 			"/>
		</g>
		<g>
			<polygon fill="#DDDDDD" points="305.9,208.8 305.9,180 244.2,237.6 259.6,252 			"/>
		</g>
		<g>
			<polygon fill="#DDDDDD" points="228.7,252 213.3,266.3 228.7,280.7 244.2,266.3 			"/>
		</g>
		<g>
			<polygon fill="#DDDDDD" points="197.9,280.7 213.3,295.2 228.7,280.7 213.3,266.3 			"/>
		</g>
		<g>
			<polygon fill="#DDDDDD" points="197.9,309.5 213.3,323.9 244.2,323.9 213.3,295.2 			"/>
		</g>
		<g>
			<polygon fill="#DDDDDD" points="213.3,208.8 244.2,180 213.3,180 197.9,194.4 			"/>
		</g>
		<g>
			<polygon fill="#DDDDDD" points="182.4,295.2 197.9,309.5 213.3,295.2 197.9,280.7 			"/>
		</g>
		<g>
			<polygon fill="#DDDDDD" points="213.3,208.8 197.9,194.4 182.4,208.8 197.9,223.2 			"/>
		</g>
		<g>
			<polygon fill="#DDDDDD" points="197.9,194.4 182.4,180 151.5,180 182.4,208.8 			"/>
		</g>
		<g>
			<polygon fill="#DDDDDD" points="151.5,266.3 105.2,309.5 120.6,323.9 120.7,323.9 167,280.7 			"/>
		</g>
		<g>
			<polygon fill="#DDDDDD" points="89.8,323.9 89.8,323.9 89.8,323.9 89.9,323.9 			"/>
		</g>
		<g>
			<polygon fill="#DDDDDD" points="151.5,237.6 89.8,180 89.8,208.8 136.1,252 			"/>
		</g>
		<g>
			<polygon fill="#DDDDDD" points="89.8,208.8 89.8,295.1 136.1,252 			"/>
		</g>
		<g>
			<polygon fill="#DDDDDD" points="306,468.4 306.1,468.4 306.1,468.3 			"/>
		</g>
		<g>
			<polygon fill="#DDDDDD" points="475.9,396.5 522.2,353.3 522.2,324.5 460.4,382 			"/>
		</g>
		<g>
			<polygon fill="#DDDDDD" points="429.6,410.8 445.1,425.2 460.4,410.8 445.1,396.5 			"/>
		</g>
		<g>
			<polygon fill="#DDDDDD" points="414.1,425.2 429.6,439.6 445.1,425.2 429.6,410.8 			"/>
		</g>
		<g>
			<polygon fill="#DDDDDD" points="414.1,454 429.6,468.4 460.5,468.4 429.6,439.6 			"/>
		</g>
		<g>
			<polygon fill="#DDDDDD" points="429.6,353.3 460.5,324.4 429.6,324.4 414.1,338.9 			"/>
		</g>
		<g>
			<polygon fill="#DDDDDD" points="414.1,454 429.6,439.6 414.1,425.2 398.7,439.6 			"/>
		</g>
		<g>
			<polygon fill="#DDDDDD" points="429.6,353.3 414.1,338.9 398.7,353.3 414.1,367.6 			"/>
		</g>
		<g>
			<polygon fill="#DDDDDD" points="414.1,338.9 398.7,324.4 367.9,324.4 398.7,353.3 			"/>
		</g>
		<g>
			<polygon fill="#DDDDDD" points="383.3,425.2 367.9,410.8 306.1,468.3 306.1,468.4 336.9,468.4 			"/>
		</g>
		<g>
			<polygon fill="#DDDDDD" points="367.9,382 306.1,324.5 306.1,353.3 352.4,396.5 			"/>
		</g>
		<g>
			<path fill="#DDDDDD" d="M306.1,323.9L306.1,323.9L306.1,323.9z"/>
		</g>
		<g>
			<polygon fill="#DDDDDD" points="522.2,208.8 522.2,180 460.5,237.6 475.9,252 			"/>
		</g>
		<g>
			<polygon fill="#DDDDDD" points="445.1,252 429.6,266.3 445.1,280.7 460.5,266.3 			"/>
		</g>
		<g>
			<polygon fill="#DDDDDD" points="414.1,280.7 429.6,295.2 445.1,280.7 429.6,266.3 			"/>
		</g>
		<g>
			<polygon fill="#DDDDDD" points="414.1,309.5 429.6,323.9 460.5,323.9 429.6,295.2 			"/>
		</g>
		<g>
			<polygon fill="#DDDDDD" points="429.6,208.8 460.5,180 429.6,180 414.1,194.4 			"/>
		</g>
		<g>
			<polygon fill="#DDDDDD" points="398.7,295.2 414.1,309.5 429.6,295.2 414.1,280.7 			"/>
		</g>
		<g>
			<polygon fill="#DDDDDD" points="429.6,208.8 414.1,194.4 398.7,208.8 414.1,223.2 			"/>
		</g>
		<g>
			<polygon fill="#DDDDDD" points="414.1,194.4 398.7,180 367.9,180 398.7,208.8 			"/>
		</g>
		<g>
			<polygon fill="#DDDDDD" points="367.9,266.3 321.5,309.5 336.9,323.9 336.9,323.9 383.3,280.7 			"/>
		</g>
		<g>
			<polygon fill="#DDDDDD" points="306.1,323.9 306.1,323.9 306.1,323.9 306.2,323.9 			"/>
		</g>
		<g>
			<polygon fill="#DDDDDD" points="367.9,237.6 306.1,180 306.1,208.8 352.4,252 			"/>
		</g>
		<g>
			<polygon fill="#DDDDDD" points="89.7,612.4 89.8,612.4 89.8,612.3 			"/>
		</g>
		<g>
			<polygon fill="#DDDDDD" points="305.9,497.4 305.9,468.5 244.2,526.1 259.6,540.5 			"/>
		</g>
		<g>
			<polygon fill="#DDDDDD" points="228.7,540.5 213.3,554.8 228.7,569.2 244.2,554.8 			"/>
		</g>
		<g>
			<polygon fill="#DDDDDD" points="197.9,569.2 213.3,583.6 228.7,569.2 213.3,554.8 			"/>
		</g>
		<g>
			<polygon fill="#DDDDDD" points="197.9,598.1 213.3,612.4 244.2,612.4 213.3,583.6 			"/>
		</g>
		<g>
			<polygon fill="#DDDDDD" points="213.3,497.3 244.2,468.5 213.3,468.5 197.9,482.9 			"/>
		</g>
		<g>
			<polygon fill="#DDDDDD" points="182.4,583.6 197.9,598.1 213.3,583.6 197.9,569.2 			"/>
		</g>
		<g>
			<polygon fill="#DDDDDD" points="213.3,497.3 197.9,482.9 182.4,497.3 197.9,511.6 			"/>
		</g>
		<g>
			<polygon fill="#DDDDDD" points="197.9,482.9 182.4,468.5 151.5,468.5 182.4,497.3 			"/>
		</g>
		<g>
			<polygon fill="#DDDDDD" points="151.5,554.8 105.2,598.1 120.6,612.4 120.7,612.4 167,569.2 			"/>
		</g>
		<g>
			<polygon fill="#DDDDDD" points="89.8,612.3 89.8,612.3 89.8,612.4 89.9,612.4 			"/>
		</g>
		<g>
			<polygon fill="#DDDDDD" points="151.5,526.1 89.8,468.5 89.8,497.4 136.1,540.5 			"/>
		</g>
		<g>
			<polygon fill="#DDDDDD" points="89.8,497.4 89.8,583.6 136.1,540.5 			"/>
		</g>
		<g>
			<polygon fill="#DDDDDD" points="306.1,612.4 306.1,612.4 306.1,612.3 			"/>
		</g>
		<g>
			<polygon fill="#DDDDDD" points="522.2,497.4 522.2,468.5 460.5,526.1 475.9,540.5 			"/>
		</g>
		<g>
			<polygon fill="#DDDDDD" points="445.1,540.5 429.6,554.8 445.1,569.2 460.5,554.8 			"/>
		</g>
		<g>
			<polygon fill="#DDDDDD" points="414.1,569.2 429.6,583.6 445.1,569.2 429.6,554.8 			"/>
		</g>
		<g>
			<polygon fill="#DDDDDD" points="414.1,598.1 429.6,612.4 460.5,612.4 429.6,583.6 			"/>
		</g>
		<g>
			<polygon fill="#DDDDDD" points="429.6,497.3 460.5,468.5 429.6,468.5 414.1,482.9 			"/>
		</g>
		<g>
			<polygon fill="#DDDDDD" points="398.7,583.6 414.1,598.1 429.6,583.6 414.1,569.2 			"/>
		</g>
		<g>
			<polygon fill="#DDDDDD" points="429.6,497.3 414.1,482.9 398.7,497.3 414.1,511.6 			"/>
		</g>
		<g>
			<polygon fill="#DDDDDD" points="414.1,482.9 398.7,468.5 367.9,468.5 398.7,497.3 			"/>
		</g>
		<g>
			<polygon fill="#DDDDDD" points="367.9,554.8 321.5,598.1 336.9,612.4 336.9,612.4 383.3,569.2 			"/>
		</g>
		<g>
			<polygon fill="#DDDDDD" points="306.1,612.3 306.1,612.3 306.1,612.4 306.2,612.4 			"/>
		</g>
		<g>
			<polygon fill="#DDDDDD" points="367.9,526.1 306.1,468.5 306.1,497.4 352.4,540.5 			"/>
		</g>
		<g>
			<polygon fill="#DDDDDD" points="305.9,295.1 305.9,208.8 259.6,252 			"/>
		</g>
		<g>
			<polygon fill="#DDDDDD" points="306.1,353.3 306.1,439.6 352.4,396.5 			"/>
		</g>
		<g>
			<polygon fill="#DDDDDD" points="522.2,295.1 522.2,208.8 475.9,252 			"/>
		</g>
		<g>
			<polygon fill="#DDDDDD" points="305.9,583.6 305.9,497.4 259.6,540.5 			"/>
		</g>
		<g>
			<polygon fill="#DDDDDD" points="522.2,583.6 522.2,497.4 475.9,540.5 			"/>
		</g>
	</g>
</g>
</svg>
