<?xml version="1.0" encoding="utf-8"?>
<!-- Generator: Adobe Illustrator 18.0.0, SVG Export Plug-In . SVG Version: 6.00 Build 0)  -->
<!DOCTYPE svg PUBLIC "-//W3C//DTD SVG 1.1//EN" "http://www.w3.org/Graphics/SVG/1.1/DTD/svg11.dtd">
<svg version="1.1" id="Layer_1" xmlns="http://www.w3.org/2000/svg" xmlns:xlink="http://www.w3.org/1999/xlink" x="0px" y="0px"
	 viewBox="90 180 432 432" enable-background="new 90 180 432 432" xml:space="preserve">
<g id="Layer_2" display="none">
	
		<path display="inline" fill="none" stroke="#F4E317" stroke-width="2.2684" stroke-linecap="round" stroke-linejoin="round" stroke-miterlimit="10" d="
		M3316.6,1116.2c1.8-5.8-1.8-8.4-4.5-8.8c-2.7-0.6-7.1,1-8.2,6.4c-1.1,5.4,3,10.9,5.2,14.9c4.4,7.7,4.7,18.3-3.3,25.6
		c-6.8,6.1-18,6.4-23.5,0.7c-7.6-7.9,0.1-16.9,7.1-19.6c9.4-3.5,13.5,0.3,25.5-7.8c7.9-5.2,16.9-17.1,18-23.8
		c1.7-10.1-4.7-9.8-5.5-0.3c-0.7,7.9-2.1,21.1-3,27.2c-0.7,5.4-2.7,11.5-5.1,10.8c-2.6-0.8-0.1-6.7,3-11.8c3.1-5,6.8-12.3,11.9-10.6
		c7.2,2.4-1.1,9.6,4.3,12.6c5.4,3,9.9-7.5,12.3-14.2c1.6-4.4-1.4-4.3-3.1,0.6c-1.7,4.7-2.7,11.8,4.5,11.8c7.2,0,16.1-12.2,23.8-29.3
		c3.4-7.9-1.1-8.8-5.1-0.6s-11.3,20.8-8.5,34s24.9,13.2,28.9,3.8c4.1-9.3-6.5-16.6-25.5-8.9c-19,7.7-40.1,32-63.3,36.1
		c-13.3,2.4-21.3-1.3-26.8-6.8c-9.8-9.8-5.5-30.3,20.5-37.4c0.3,0-30.7,3.3-30.7,3.3v0.3"/>
	
		<path display="inline" fill="none" stroke="#F4E317" stroke-width="2.2684" stroke-linecap="round" stroke-linejoin="round" stroke-miterlimit="10" d="
		M3352.7,1111.5c4.5-3,2.6-7.2,0-7.7c-2.1-0.3-3.5,0.8-4,2.6c-0.4,1.8,0.7,3.7,2.7,3.7c2.1,0,4.7-1.4,16.1-2.4s20.1-0.7,20.8,3.1
		s-6.2,6.9-6.2,6.9l25.8-3.8"/>
</g>
<g id="Layer_1_1_">
	<g>
		<g>
			<path fill="#89887E" d="M285.6,381.1c-3.5,0-6.2-2.6-6.2-6.1v-86.8c0-3.2,2.8-5.8,6.2-5.8c3.2,0,5.9,2.7,5.9,5.8V375
				C291.5,378.4,288.8,381.1,285.6,381.1z M285.6,285c-1.9,0-3.4,1.4-3.4,3.1V375c0,1.9,1.5,3.3,3.4,3.3c1.7,0,3.1-1.5,3.1-3.3
				v-86.8C288.7,286.4,287.3,285,285.6,285z"/>
		</g>
		<g>
			<path fill="#FFFFFF" d="M214,243.5h-9.7c-8.5,0-15.7,7.1-15.7,15.3v87.7h-9v-87.7c0-8.5-7-15.3-15.7-15.3h-9.7
				c-8.6,0-15.7,6.9-15.7,15.3v145.8c0,8.5,7,15.3,15.7,15.3h9.7c8.6,0,15.7-6.9,15.7-15.3v-17.8h9v17.8c0,8.4,7.2,15.3,15.7,15.3
				h9.7c8.6,0,15.7-6.9,15.7-15.3V258.9C229.7,250.3,222.6,243.5,214,243.5z M218.8,404.6c0,2.7-2.1,4.7-4.8,4.7h-9.7
				c-2.4,0-4.8-2-4.8-4.7v-28.4h-30.7v28.4c0,2.7-2.1,4.7-4.8,4.7h-9.7c-2.7,0-4.8-2-4.8-4.7V258.9c0-2.7,2.1-4.7,4.8-4.7h9.7
				c2.7,0,4.8,2,4.8,4.7v98.3h30.7v-98.3c0-2.7,2.4-4.7,4.8-4.7h9.7c2.7,0,4.8,2,4.8,4.7V404.6z"/>
			<path fill="#89887E" d="M214,421.3h-9.7c-9.2,0-17.1-7.6-17.1-16.7v-16.4h-6.3v16.4c0,9.2-7.6,16.7-17.1,16.7h-9.7
				c-9.3,0-17.1-7.5-17.1-16.7V258.9c0-9.2,7.6-16.7,17.1-16.7h9.7c9.3,0,17.1,7.5,17.1,16.7v86.3h6.3v-86.3
				c0-9.1,7.8-16.7,17.1-16.7h9.7c9.3,0,17.1,7.5,17.1,16.7v145.7C231.1,413.8,223.3,421.3,214,421.3z M178.2,385.4H190v19.2
				c0,7.6,6.5,14,14.3,14h9.7c7.8,0,14.3-6.2,14.3-14V258.9c0-7.7-6.4-14-14.3-14h-9.7c-7.7,0-14.3,6.4-14.3,14V348h-11.8v-89.1
				c0-7.7-6.4-14-14.3-14h-9.7c-7.8,0-14.3,6.2-14.3,14v145.7c0,7.7,6.4,14,14.3,14h9.7c7.8,0,14.3-6.2,14.3-14V385.4z M214,410.7
				h-9.7c-3.3,0-6.2-2.9-6.2-6.1v-27h-28v27c0,3.4-2.7,6.1-6.2,6.1h-9.7c-3.4,0-6.2-2.7-6.2-6.1V258.9c0-3.4,2.7-6.1,6.2-6.1h9.7
				c3.4,0,6.2,2.7,6.2,6.1v96.9h28v-96.9c0-3.2,2.9-6.1,6.2-6.1h9.7c3.4,0,6.2,2.7,6.2,6.1v145.7C220.2,408,217.4,410.7,214,410.7z
				 M167.4,374.8h33.5v29.8c0,1.9,1.8,3.3,3.4,3.3h9.7c1.9,0,3.4-1.4,3.4-3.3V258.9c0-1.9-1.5-3.3-3.4-3.3h-9.7
				c-1.6,0-3.4,1.4-3.4,3.3v99.7h-33.5v-99.7c0-1.9-1.5-3.3-3.4-3.3h-9.7c-1.9,0-3.4,1.4-3.4,3.3v145.7c0,1.9,1.5,3.3,3.4,3.3h9.7
				c1.9,0,3.4-1.4,3.4-3.3V374.8z"/>
		</g>
		<g>
			<path fill="#FFFFFF" d="M285.6,273c-8.7,0-15.7,6.8-15.7,15v86.8c0,8.6,6.9,15.3,15.7,15.3c8.5,0,15.3-6.8,15.3-15.3V288
				C300.9,279.9,293.9,273,285.6,273z M290.1,375c0,2.6-2,4.7-4.5,4.7c-2.8,0-4.8-2-4.8-4.7v-86.8c0-2.5,2.1-4.4,4.8-4.4
				c2.5,0,4.5,2,4.5,4.4V375z"/>
			<path fill="#89887E" d="M285.6,391.7c-9.6,0-17.1-7.4-17.1-16.7v-86.8c0-9,7.6-16.4,17.1-16.4c9.2,0,16.7,7.4,16.7,16.4V375
				C302.3,384.2,294.8,391.7,285.6,391.7z M285.6,274.4c-7.8,0-14.3,6.1-14.3,13.7V375c0,7.8,6.2,14,14.3,14c7.7,0,14-6.2,14-14
				v-86.8C299.5,280.6,293.3,274.4,285.6,274.4z M285.6,381.1c-3.5,0-6.2-2.6-6.2-6.1v-86.8c0-3.2,2.8-5.8,6.2-5.8
				c3.2,0,5.9,2.7,5.9,5.8V375C291.5,378.4,288.8,381.1,285.6,381.1z M285.6,285c-1.9,0-3.4,1.4-3.4,3.1V375c0,1.9,1.5,3.3,3.4,3.3
				c1.7,0,3.1-1.5,3.1-3.3v-86.8C288.7,286.5,287.2,285,285.6,285z"/>
		</g>
		<g>
			<path fill="#FFFFFF" d="M285.6,243.5c-25.2,0-45.7,20.1-45.7,44.7V375c0,24.8,20.5,45,45.7,45c25.1,0,45.5-20.2,45.5-45v-86.8
				C331,263.6,310.6,243.5,285.6,243.5z M320.1,375c0,18.9-15.7,34.2-34.7,34.2c-19.3,0-34.9-15.3-34.9-34.2v-86.8
				c0-18.7,15.7-34,34.9-34c19,0,34.7,15.3,34.7,34V375z"/>
			<path fill="#89887E" d="M285.6,421.3c-26,0-47.1-20.8-47.1-46.3v-86.8c0-25.3,21.1-46,47.1-46c25.9,0,46.8,20.6,46.8,46v86.8
				C332.4,400.5,311.3,421.3,285.6,421.3z M285.6,244.9c-24.5,0-44.4,19.4-44.4,43.3V375c0,24,20,43.6,44.4,43.6
				c24.4,0,44.1-19.5,44.1-43.6v-86.8C329.7,264.3,309.8,244.9,285.6,244.9z M285.6,410.7c-20,0-36.3-16-36.3-35.6v-86.8
				c0-19.5,16.3-35.3,36.3-35.3c19.9,0,36,15.9,36,35.3v86.8C321.5,394.7,305.4,410.7,285.6,410.7z M285.6,255.5
				c-18.5,0-33.6,14.6-33.6,32.6V375c0,18.1,15,33,33.6,33c18.4,0,33.3-14.8,33.3-33v-86.8C318.9,270.1,303.9,255.5,285.6,255.5z"/>
		</g>
		<g>
			<path fill="#FFFFFF" d="M397.2,243.5h-46.4c-8.6,0-15.7,6.9-15.7,15.3v9.4c0,8.5,7,15.3,15.7,15.3h2.7v121
				c0,8.4,7.2,15.3,15.7,15.3h9.7c8.5,0,15.7-7.1,15.7-15.3V283.7h2.7c8.6,0,15.7-6.9,15.7-15.3v-9.4
				C412.9,250.3,405.8,243.5,397.2,243.5z M402,268.3c0,2.7-2.1,4.7-4.8,4.7h-13.5v131.6c0,2.4-2.1,4.7-4.8,4.7h-9.7
				c-2.7,0-4.8-2.4-4.8-4.7V273.1h-13.5c-2.7,0-4.8-2-4.8-4.7v-9.4c0-2.7,2.1-4.7,4.8-4.7h46.4c2.7,0,4.8,2,4.8,4.7V268.3z"/>
			<path fill="#89887E" d="M378.9,421.3h-9.7c-9.2,0-17.1-7.6-17.1-16.7V285.1h-1.3c-9.3,0-17.1-7.5-17.1-16.7v-9.4
				c0-9.2,7.6-16.7,17.1-16.7h46.4c9.3,0,17.1,7.5,17.1,16.7v9.4c0,9.2-7.6,16.7-17.1,16.7h-1.3v119.5
				C395.8,413.6,388.1,421.3,378.9,421.3z M350.8,244.9c-7.8,0-14.3,6.2-14.3,14v9.4c0,7.7,6.4,14,14.3,14h4.1v122.4
				c0,7.6,6.5,14,14.3,14h9.7c7.7,0,14.3-6.4,14.3-14V282.3h4.1c7.8,0,14.3-6.2,14.3-14v-9.4c0-7.7-6.4-14-14.3-14h-46.4V244.9z
				 M378.9,410.7h-9.7c-3.3,0-6.2-2.9-6.2-6.1V274.5h-12.1c-3.4,0-6.2-2.7-6.2-6.1v-9.4c0-3.4,2.7-6.1,6.2-6.1h46.4
				c3.4,0,6.2,2.7,6.2,6.1v9.4c0,3.4-2.7,6.1-6.2,6.1h-12.1v130.1C385,407.8,382.1,410.7,378.9,410.7z M350.8,255.5
				c-1.9,0-3.4,1.4-3.4,3.3v9.4c0,1.9,1.5,3.3,3.4,3.3h14.9v133c0,1.6,1.5,3.3,3.4,3.3h9.7c1.9,0,3.4-1.8,3.4-3.3V271.7h14.9
				c1.9,0,3.4-1.4,3.4-3.3v-9.4c0-1.9-1.5-3.3-3.4-3.3h-46.4V255.5z"/>
		</g>
	</g>
	<g>
		<g>
			<path fill="#FFFFFF" d="M328.7,400c-0.3-7.9-2.4-10.9-3.1-11.5c-1,0.8-2.8,4.7-1.9,12.8c0.5,4.4,1.1,9.7,1.7,15.3
				C327.7,410.2,328.9,404.4,328.7,400z"/>
			<path fill="#89887E" d="M324.8,422.8l-0.6-6.1c-0.6-5.7-1.2-10.9-1.7-15.3c-1-8.7,1.1-13,2.4-14.1l0.9-0.8l0.9,0.8
				c0.5,0.4,3.2,3,3.5,12.6c0.2,4.3-1,10.2-3.3,17.1L324.8,422.8z M325.7,391.1c-0.6,1.7-1.2,4.9-0.6,10c0.3,2.6,0.6,5.5,1,8.6
				c1-3.8,1.4-7.1,1.3-9.7C327.1,395.4,326.4,392.6,325.7,391.1z"/>
		</g>
		<g>
			<path fill="#FFFFFF" d="M373.9,394.9c-0.4,0-0.8,0.1-1.1,0.1c-1.8,0.4-2.7,1.5-2.7,3.6c0,1.2,0.3,2.1,1.1,2.7
				c1.2,1,2.9,0.3,6.2-1.2c0.2-1,0.1-1.9-0.3-2.9C376.4,395.7,374.9,394.8,373.9,394.9z"/>
			<path fill="#89887E" d="M372.5,403.3L372.5,403.3c-0.9,0-1.6-0.2-2.3-0.8c-1-0.9-1.6-2.3-1.6-3.9c0.1-3.4,2.1-4.6,3.9-4.9
				c0.4-0.1,0.8-0.1,1.3-0.2l0,0c1.9,0,3.6,1.3,4.5,3.2c0.5,1.2,0.6,2.4,0.4,3.6l-0.1,0.8l-0.6,0.3
				C375.6,402.6,373.9,403.3,372.5,403.3z M374,396.3c-0.3,0-0.6,0.1-0.9,0.1c-1,0.2-1.6,0.6-1.6,2.4c0,0.8,0.2,1.4,0.5,1.6
				c0.4,0.4,2-0.1,4.1-1.1c0-0.5-0.1-1-0.3-1.4C375.3,396.8,374.5,396.3,374,396.3z"/>
		</g>
		<g>
			<path fill="#FFFFFF" d="M416.7,373.1c0.9-4.4,0.8-7.2,0.4-8.5c-1.2,1.3-3.2,4.5-4.8,11.1c-0.4,1.8-1,3.8-1.5,5.8
				c-0.5,2.3-1.2,4.7-1.8,7.2c1.5-0.4,2.9-0.9,4.2-1.2C414.5,382.8,415.7,378.1,416.7,373.1z"/>
			<path fill="#89887E" d="M407.2,390.5l0.5-2.4c0.5-2.1,1.1-4.3,1.6-6.3l0.5-1.9c0.4-1.6,0.9-3.2,1.2-4.6c1.7-7.2,4-10.4,5.2-11.6
				l1.8-2l0.5,2.6c0.2,1.2,0.5,4.1-0.4,9c-1.1,4.7-2.1,9.6-3.4,14.4l-0.2,0.8l-0.8,0.2c-1.4,0.4-2.8,0.8-4.2,1.2L407.2,390.5z
				 M415.9,369.3c-0.8,1.6-1.5,3.8-2.3,6.7c-0.3,1.5-0.8,3.1-1.2,4.7l-0.5,1.9c-0.3,1.3-0.6,2.7-1,4c0.4-0.1,0.8-0.2,1.2-0.3
				c1.2-4.5,2.3-9,3.2-13.4C415.7,371.4,415.8,370.4,415.9,369.3z"/>
		</g>
		<g>
			<path fill="#FFFFFF" d="M320.7,480.6c1-1.1,2.6-6.9,2.3-16.7C320.1,473.2,320,479,320.7,480.6z"/>
			<path fill="#89887E" d="M320.4,483.2l-0.9-1.9c-1-2.1-0.6-8.5,2.3-17.7l2.5-7.8l0.2,8.3c0.2,9.3-1.2,16-2.7,17.7L320.4,483.2z"/>
		</g>
		<g>
			<path fill="#FFFFFF" d="M407.4,396.2L407.4,396.2c-1.3,5.6-2.3,11.5-2.7,17.5c2.3-5.5,4.4-11.8,6.4-18.7
				C410,395.5,408.7,395.8,407.4,396.2z"/>
			<path fill="#89887E" d="M402.6,422.3l0.8-8.7c0.4-5.4,1.3-11.2,2.7-17.6l0.2-0.8l0.8-0.2c1.4-0.4,2.7-0.8,3.9-1.2l2.5-0.8
				l-0.8,2.5c-2,6.9-4.3,13.2-6.5,18.8L402.6,422.3z M408.5,397.3c-0.3,1.5-0.5,2.9-0.9,4.3c0.5-1.5,1-2.9,1.4-4.5
				C408.9,397.2,408.7,397.3,408.5,397.3z"/>
		</g>
		<g>
			<path fill="#89887E" d="M434.5,463.2c-7.3,0-20.3-1.9-26-14.6c-0.6-1.4-1.2-2.9-1.7-4.3l-0.3-1l0.8-0.6c1.8-1.4,3.5-2.7,5.3-3.8
				c16.9-11.3,29.1-13.6,36.4-13.6c4.9,0,9.1,1.1,12.2,3.1c4.9,3.3,6.9,8.9,5.5,15.8c-1.8,9.2-13.4,17.2-27.6,18.7
				C438,463.1,436.4,463.2,434.5,463.2z M409.7,444.3c0.4,1.1,0.9,2.1,1.3,3.2c5,11.3,16.9,12.9,23.5,12.9c1.8,0,3.3-0.1,4.3-0.2
				c12.9-1.4,23.5-8.4,25.1-16.5c1.2-5.7-0.4-10.3-4.3-13c-1.8-1.2-5.2-2.7-10.6-2.7c-6.9,0-18.6,2.3-34.9,13.2
				C412.6,442.2,411.2,443.2,409.7,444.3z"/>
		</g>
		<g>
			<path fill="#FFFFFF" d="M464.1,423.9c-9.4-6.3-28.7-6.9-54.6,10.5c-1.2,0.8-2.3,1.6-3.4,2.4c-0.5-2.6-1-5-1.2-7.6
				c6.1-10.8,10.7-24.4,14.1-36.3c23.8-6.2,28.3-3.2,29.1-1.5c1.5,3.4-4.4,9.9-8.8,13.2c-1.4,1-1.8,2.9-1,4.4c0.8,1.4,2.3,2,3.8,1.7
				c0.1,0,0.3-0.1,0.4-0.1l52.1-19.3c1.8-0.6,2.7-2.6,2-4.4c-0.6-1.8-2.7-2.7-4.4-2l-38.9,14.4c1.8-3.3,2.7-7,1.1-10.6
				c-3.1-7.2-13.1-8.4-33.4-3.4c1.1-4.1,1.9-7.8,2.6-10.8c2.7-14.1-2.3-16.7-4.5-17.3c-5.3-1.2-10.3,5.3-13.2,16.7
				c-0.4,1.8-1,3.6-1.4,5.7c-0.9,3.5-1.8,7.3-2.8,11.2c-7.8,2.5-13.3,4.6-17.4,6.3c-0.2-0.9-0.4-1.8-0.9-2.7
				c-1.8-4.1-5.8-6.7-9.9-6.4c-6,0.3-10.1,4.5-10.2,10.4c-0.1,3.2,1.2,6.2,3.5,8.2c1.9,1.6,4.4,2.3,7,1.9c0.2,0.4,0.4,0.9,0.8,1.2
				c1.3,1.3,3.5,1.3,4.8,0c1.5-1.5,2.6-3,3.4-4.6c3.5-1.6,8.7-3.9,17.1-6.7c-1.7,9.2-2.9,19.1-2.1,29.2c-4.8,8.2-10,13.1-15,14.2
				c-3.5,0.8-6,0.3-7.7-1.2c-0.2-0.2-0.3-0.3-0.5-0.5c1.6-5.3,2.9-11.6,4-19.2c0.6-4.7,0-7.8-2.1-9.6c-1.3-1.1-3.1-1.3-4.7-0.6
				c-3,1.3-5.3,5.6-6.1,11.6c-0.8,5.8-1,13,1.5,18.5c-2.4,6.9-4.8,9.6-6.4,10.6c-1.3,0.8-2.5,1-4,0.5c-2.9-0.9-3.3-2.6-3.3-8.5
				c0-5.5,0.1-14.6-11.6-16c-6.3-0.8-10.8,2.6-14.3,7.6c-0.1-1.5-0.3-3-0.4-4.5c5.5-11.5,8.9-23.2,8.6-31
				c-0.4-9.2-2.9-15.5-7.1-17.5c-2.1-1.1-4.6-0.9-6.7,0.5c-4.1,2.9-5.9,10.1-4.8,19.2c0.9,7.4,1.9,17.5,3,27.6
				c-4.7,9.6-10.8,19-17.1,25.3c-2.1,2.1-4.1,4.1-6,5.7c-0.2-0.2-0.3-0.4-0.5-0.6c-1.1-1.2-2.3-2.5-3.4-3.8
				c-5.9-6.2-13.3-14.1-13.2-22.4c0.1-10.1,7.5-13.5,11.1-13.6c1.1,0,4.8,0.1,7.4,2.9c2,2.1,2.8,5.5,2.4,9.8
				c-0.2,1.9,1.2,3.5,3.1,3.8c1.9,0.2,3.5-1.2,3.8-3.1c0.8-7.9-1.8-12.7-4.2-15.1c-3-3.3-7.7-5.2-12.6-5
				c-7.3,0.2-17.6,6.7-17.7,20.4c-0.1,11.2,8.4,20.1,15.1,27.2c1.2,1.3,2.4,2.5,3.3,3.5c0.1,0.1,0.2,0.2,0.3,0.3
				c-6.9,4.9-12.7,6.8-18.6,8.7c-5.8,1.8-11.8,3.9-19,8.5c-8.6,5.6-17.8,17.1-17.9,29.3c0,5.7,1.9,13.8,11.7,20.4
				c15.6,10.4,40.9,4.3,53.2-12.7c13-17.8,9.7-38.3,0-52.9c2.1-1.8,4.4-4,6.8-6.4c4.7-4.8,9.2-11.2,13.3-18c0.2,1.8,0.3,3.6,0.5,5.4
				c-0.9,2.1-1.5,4.3-2.3,6.3c-0.4,1.4-1,2.7-1.4,4c-2.3,6.1-6.9,20.9-3,27.3c1.1,1.7,2.8,2.8,4.8,3c1.9,0.2,3.9-0.4,5.4-1.9
				c5.5-5.4,4.8-21.5,4.4-26.3c-0.2-3.1-0.5-7-1-11.4c3.3-8.5,6.9-14.2,12.2-13.5c5.4,0.6,5.6,2.8,5.6,9.1c0,5-0.1,12.7,8.2,15.1
				c3.4,1,6.8,0.5,9.7-1.3c3-1.9,5.6-5.3,7.7-10.3c3.2,2,7.3,2.6,12.1,1.6c5.6-1.2,10.6-5.3,15-10.9c0.2,1.2,0.5,2.5,0.9,3.6
				c-12,10-23.6,23-35.9,36.6c-21.4,23.9-43.5,48.6-70,59.5c-22.1,9-39.8,8.5-55.7-1.8c-9.8-6.3-15.3-17.7-14.7-30.3
				c1-19.6,15.7-38.2,40.4-50.9c1.5-0.8,2.3-2.7,1.6-4.3c-1.2-3-3.6-2.3-7-1.2l-60,19.7c-1.6,0.5-2.7,2.3-2.3,4l0.1,0.6
				c0.4,1.8,2.3,3,4.1,2.7c0.9-0.2,1.6-0.6,2-1.4c9.1-3,24.4-8.1,37.1-12.2c-14.2,12.2-22.3,27-23.1,42.6
				c-0.8,15,5.9,28.7,17.8,36.3c13.5,8.8,28.4,11.3,45.4,7.7c5.4-1.2,10.8-2.9,16.6-5.3c27.9-11.5,50.6-36.8,72.5-61.3
				c11.3-12.7,22.2-24.8,33.1-34.1c0.3,0.9,0.6,1.6,1.1,2.5c5.7,12.7,19.5,19.4,36.2,17.5c16.6-1.8,29.9-11.4,32.3-23.1
				C473.7,436.3,470.8,428.5,464.1,423.9z M377.5,400.2c-3.3,1.5-5,2.3-6.2,1.2c-0.6-0.5-1.1-1.6-1.1-2.7c0-2,0.9-3.2,2.7-3.6
				c0.3-0.1,0.6-0.1,1.1-0.1c1-0.1,2.5,0.8,3.2,2.4C377.5,398.3,377.6,399.2,377.5,400.2z M295.6,514.9
				c-10.3,14.3-31.2,19.5-43.9,11.1c-5.8-3.9-8.7-8.8-8.7-14.6c0.1-9.2,7.5-18.8,14.8-23.6c6.4-4.2,11.7-5.9,17.4-7.7
				c6.3-2,12.8-4.2,20.6-9.8C303.4,482.2,307,499.2,295.6,514.9z M320.7,480.6c-0.8-1.6-0.6-7.4,2.3-16.7
				C323.3,473.8,321.6,479.5,320.7,480.6z M323.8,401.3c-1-8.1,1-12,1.9-12.8c0.8,0.6,2.8,3.6,3.1,11.5c0.2,4.4-1.1,10.2-3.2,16.5
				C324.9,410.9,324.2,405.7,323.8,401.3z M410.9,381.4c0.5-2,1-4,1.5-5.8c1.6-6.5,3.6-9.8,4.8-11.1c0.3,1.4,0.4,4.1-0.4,8.5
				c-1.1,4.9-2.3,9.7-3.4,14.3c-1.4,0.4-2.8,0.8-4.2,1.2C409.8,386.1,410.3,383.7,410.9,381.4z M407.4,396.2L407.4,396.2
				c1.4-0.4,2.6-0.8,3.9-1.2c-2,6.9-4.2,13.1-6.4,18.7C405.2,407.7,406.1,401.8,407.4,396.2z M465.2,444
				c-1.7,8.7-12.8,16.1-26.3,17.6c-5.2,0.5-22.5,1.3-29.1-13.5c-0.6-1.4-1.2-2.8-1.7-4.2c1.7-1.3,3.4-2.6,5.3-3.8
				c23.2-15.5,39.8-15.3,47-10.5C464.7,432.6,466.4,437.7,465.2,444z"/>
			<path fill="#89887E" d="M265.9,552.1c-11.4,0-22-3.2-31.8-9.4c-12.3-7.9-19.2-22-18.5-37.6c0.6-14.1,7.2-27.6,19-39.3
				c-11.2,3.6-23.1,7.6-30.8,10.2c-0.6,0.8-1.6,1.3-2.6,1.5c-2.6,0.5-5.2-1.2-5.7-3.6l-0.1-0.6c-0.5-2.4,0.9-4.8,3.2-5.6l60-19.7
				c1.7-0.5,3.2-1.1,4.6-1.1c1.9,0,3.3,1,4.1,3c0.9,2.3-0.1,4.8-2.3,6c-24.3,12.6-38.7,30.7-39.6,49.8c-0.6,12.1,4.6,23,14.1,29
				c15.7,10.2,32.6,10.7,54.4,1.7c26.2-10.7,48.2-35.3,69.4-59.1c10-11.1,19.4-21.7,29.1-30.6c-2.6,1.8-5.2,3-7.8,3.5
				c-4.6,1-8.6,0.6-11.8-1c-2.1,4.5-4.6,7.6-7.6,9.4c-3.2,2-7,2.6-10.7,1.5c-9.2-2.8-9.2-11.3-9.1-16.4c0-6.3-0.2-7.3-4.4-7.8
				c-3.9-0.4-7,3.2-10.7,12.5c0.4,4.2,0.8,7.9,1,11.1c0.4,6.3,1,21.8-4.8,27.4c-1.8,1.7-4.1,2.6-6.4,2.3c-2.5-0.2-4.5-1.6-5.8-3.6
				c-4.1-6.7,0-20.6,2.8-28.4c0.4-1.2,0.9-2.5,1.3-3.6l0.1-0.3c0.8-2,1.4-4.1,2.1-6.1l-0.1-1c-3.6,5.8-7.5,10.8-11.4,14.8
				c-2,2-4,4-5.9,5.7c8.7,13.8,12.9,34.8-0.8,53.5c-8.2,11.2-22.4,18.4-36.4,18.4c-7.1,0-13.5-1.8-18.8-5.4
				c-10.3-6.9-12.3-15.5-12.3-21.6c0.1-12.7,9.7-24.7,18.6-30.4c7.4-4.8,13.4-6.8,19.3-8.7c5.6-1.8,10.7-3.5,17-7.6
				c-0.8-0.9-1.6-1.7-2.6-2.7c-7-7.3-15.6-16.4-15.5-28.1c0.1-14.7,11.2-21.6,19.1-21.8h0.5c5,0,9.9,2,13.1,5.5
				c2.6,2.7,5.4,7.7,4.5,16.2c-0.2,2.6-2.6,4.6-5.3,4.3c-2.6-0.2-4.5-2.6-4.3-5.3c0.4-4-0.3-6.9-2-8.7c-2-2.1-4.9-2.5-6.1-2.5
				c-3.3,0.1-9.9,3.2-9.9,12.2c-0.1,7.8,7.1,15.3,12.9,21.5c1.1,1.2,2.1,2.3,3.1,3.3c1.6-1.4,3.2-3,4.8-4.7
				c5.7-5.9,11.7-14.8,16.6-24.7c-1-9-2-18.8-3-27.2c-1.1-9.7,1-17.4,5.5-20.5c2.5-1.7,5.5-1.9,8.1-0.6c4.6,2.3,7.4,8.9,7.8,18.7
				c0.3,7.6-2.8,19-8.6,31.3l0.1,0.8c3.8-4.3,8.2-6,13.4-5.5c12.9,1.5,12.9,11.8,12.8,17.4c0,6.2,0.5,6.7,2.4,7.2
				c1.1,0.3,1.9,0.2,2.8-0.3c1.2-0.8,3.4-2.9,5.7-9.4c-1.9-4.7-2.4-11.1-1.4-18.8c0.9-6.2,3.1-10.7,6.3-12.3
				c-1.7-0.3-3.3-1.1-4.6-2.1c-2.7-2.1-4.1-5.6-4.1-9.2c0.1-6.7,4.7-11.4,11.5-11.8c4.7-0.3,9.1,2.6,11.2,7.2
				c0.2,0.4,0.4,0.9,0.5,1.4c4.5-1.8,9.6-3.6,15.2-5.5c0.9-3.5,1.7-7,2.5-10.1l0.2-0.9c0.4-1.8,0.9-3.5,1.3-5.2
				c2.8-11.4,7.6-17.9,13.3-17.9c0.5,0,1,0.1,1.5,0.2c2.7,0.5,8.6,3.6,5.6,18.9c-0.6,2.9-1.3,5.8-2,8.8c7.4-1.7,13.3-2.5,17.9-2.5
				c7.8,0,12.7,2.4,14.8,7.2c1.2,2.7,1.2,5.6,0.2,8.7l35.9-13.3c2.4-0.9,5.3,0.4,6.1,2.8c0.4,1.2,0.4,2.5-0.1,3.6s-1.5,2-2.7,2.5
				l-52.1,19.3c-0.2,0.1-0.4,0.1-0.6,0.2c-2,0.4-4.2-0.5-5.3-2.4c-1.2-2-0.5-4.7,1.4-6.1c4.7-3.4,9.3-9.3,8.4-11.6
				c-0.1-0.1-0.8-1.5-5.9-1.5c-4.8,0-11.8,1.2-20.9,3.5c-4.1,14.4-8.8,26.3-13.8,35.4c0.2,1.7,0.4,3.3,0.8,4.9
				c0.5-0.4,1.2-0.8,1.7-1.2c18.2-12.2,31.9-14.7,40.1-14.7c6.3,0,11.8,1.5,16,4.3c7.3,4.8,10.3,13.2,8.4,22.8
				c-2.5,12.3-16.2,22.2-33.5,24.2c-1.8,0.2-3.8,0.3-5.5,0.3l0,0c-14.8,0-26.8-7-32-18.7c-0.1-0.2-0.2-0.4-0.3-0.8
				c-10.4,9.1-20.6,20.6-31.6,32.8c-22,24.6-44.8,50-72.9,61.6c-5.8,2.4-11.5,4.2-16.9,5.3C275.6,551.5,270.6,552.1,265.9,552.1z
				 M246.2,459l-5.2,4.5c-14.1,12.1-21.9,26.6-22.6,41.6c-0.8,14.6,5.7,27.7,17.2,35.1c9.4,6.1,19.3,9,30.3,9
				c4.5,0,9.2-0.5,14.2-1.6c5.3-1.1,10.7-2.9,16.3-5.2c27.6-11.4,50.1-36.5,71.9-60.9c11.4-12.8,22.2-24.8,33.2-34.3l1.5-1.3
				l0.8,1.8c0.3,0.8,0.6,1.6,1,2.4c4.7,10.6,15.8,17.1,29.5,17.1l0,0c1.7,0,3.4-0.1,5.3-0.3c16.1-1.8,28.9-10.8,31.1-22
				c1.7-8.5-1-15.8-7.2-20c-3.8-2.5-8.7-3.8-14.5-3.8c-7.8,0-20.9,2.5-38.6,14.3c-1.1,0.8-2.3,1.5-3.3,2.4l-1.7,1.3l-0.4-2
				c-0.5-2.5-1-5.2-1.3-7.7V429l0.2-0.4c5.2-9.1,9.8-21.3,14-36l0.2-0.8l0.8-0.2c18.4-4.8,28.8-5,30.7-0.6
				c1.9,4.4-4.7,11.5-9.3,14.9c-0.9,0.6-1.1,1.7-0.5,2.6c0.4,0.8,1.4,1.2,2.3,1.1c0.1,0,0.2,0,0.3-0.1l52.1-19.3
				c0.5-0.2,1-0.5,1.2-1.1s0.2-1.1,0.1-1.6c-0.4-1.1-1.6-1.6-2.6-1.2l-42.3,15.7l1.7-3.2c1.9-3.4,2.3-6.7,1.1-9.3
				c-2.9-6.5-12.5-7.3-31.8-2.6l-2.3,0.5l0.5-2.3c1-3.6,1.8-7.3,2.6-10.8c1.7-8.9,0.4-14.8-3.5-15.7c-4.4-1-8.9,5.3-11.6,15.8
				c-0.4,1.6-0.9,3.4-1.3,5.3l-0.2,0.9c-0.9,3.4-1.8,7.1-2.7,10.8l-0.2,0.8l-0.8,0.2c-6.5,2.1-12.2,4.2-17.3,6.2l-1.6,0.6l-0.3-1.7
				c-0.1-0.8-0.4-1.6-0.8-2.4c-1.6-3.5-5-5.8-8.6-5.6c-5.4,0.3-8.8,3.9-8.9,9.1c-0.1,2.8,1.1,5.4,3,7.1c1.6,1.4,3.8,1.9,6,1.7
				l1.1-0.1l0.4,1c0.1,0.3,0.2,0.5,0.4,0.8c0.8,0.8,2.1,0.8,2.9,0c1.3-1.3,2.4-2.8,3.1-4.3l0.2-0.4l0.4-0.2
				c3.2-1.5,8.6-3.8,17.2-6.7l2.3-0.8l-0.4,2.3c-2.1,11.1-2.8,20.2-2.1,28.9v0.4l-0.2,0.3c-5.2,8.7-10.5,13.6-15.9,14.8
				c-4,0.9-7,0.3-8.9-1.5c-0.2-0.2-0.4-0.4-0.6-0.8l-0.4-0.5l0.2-0.8c1.5-5.2,2.9-11.5,3.9-19c0.4-2.9,0.4-6.7-1.6-8.3
				c-1-0.8-2.1-0.9-3.3-0.4c-2.6,1.1-4.5,5-5.3,10.5c-0.6,5.2-1,12.3,1.4,17.8l0.2,0.5l-0.2,0.5c-2,5.8-4.4,9.7-7,11.3
				c-1.6,1.1-3.2,1.3-5.2,0.6c-4.2-1.3-4.3-4.4-4.3-9.9c0-7.1-0.8-13.5-10.4-14.6c-5.3-0.6-9.3,1.7-13,7l-2.1,3.1l-0.9-8.7l0.2-0.3
				c5.6-11.8,8.8-23.2,8.5-30.4c-0.3-8.6-2.7-14.5-6.3-16.3c-1.7-0.9-3.6-0.6-5.3,0.4c-3.6,2.6-5.3,9.4-4.3,17.9
				c1,8.4,2,18.5,3,27.6v0.4L321,430c-5,10.2-11.4,19.5-17.3,25.7c-2,2.1-4.1,4.1-6,5.8l-1.1,1l-1.4-1.6c-1.1-1.2-2.3-2.5-3.4-3.8
				c-6.1-6.4-13.6-14.5-13.6-23.4c0.1-11.1,8.4-14.9,12.3-15h0.3c1.5,0,5.4,0.3,8.2,3.3c2.3,2.5,3.2,6.1,2.8,10.8
				c-0.1,1.1,0.8,2.1,1.8,2.3l0,0c1.3,0,2.1-0.8,2.3-1.8c0.8-7.4-1.7-11.8-3.9-14.1c-2.7-2.9-6.9-4.6-11.1-4.6h-0.4
				c-6.8,0.2-16.3,6.2-16.4,19.1c-0.1,10.6,8.2,19.3,14.7,26.2c1.2,1.3,2.4,2.5,3.3,3.6l1.2,1.4l-1.2,1c-7.1,5-12.9,6.9-19,8.9
				c-5.7,1.8-11.6,3.8-18.7,8.4c-8.3,5.4-17.3,16.4-17.3,28.1c0,5.4,1.8,13,11.2,19.2c4.7,3.2,10.7,4.8,17.3,4.8
				c13.1,0,26.5-6.8,34.1-17.3c11.2-15.3,11.1-34.6,0-51.3l-0.6-1l1-0.8c2.1-1.8,4.4-4,6.7-6.3c4.4-4.6,9-10.7,13.1-17.8l2.1-3.6
				l1,9.9l-0.1,0.3c-0.8,2.1-1.5,4.2-2.3,6.2l-0.1,0.3c-0.4,1.3-0.9,2.5-1.3,3.8c-1.7,4.6-6.9,20.1-3.1,26c0.9,1.4,2.3,2.3,3.8,2.4
				c1.6,0.2,3-0.3,4.2-1.5c4.1-4,4.7-15.6,4-25.2c-0.2-3.1-0.5-7-1-11.3v-0.3l0.1-0.3c3.1-7.9,7-15.2,13.7-14.4
				c6.5,0.8,6.8,4.1,6.8,10.5c0,4.9-0.1,11.6,7.2,13.7c3,0.9,5.9,0.5,8.5-1.2c2.7-1.7,5.2-5,7.2-9.7l0.6-1.5l1.4,0.9
				c2.9,1.9,6.7,2.4,11.2,1.4c4.8-1.1,9.7-4.5,14.2-10.4l1.8-2.4l0.6,2.9c0.2,1.2,0.5,2.4,0.9,3.6l0.2,0.9l-0.6,0.5
				c-11.9,9.9-23.5,22.8-35.7,36.5c-21.5,24-43.7,48.8-70.4,59.8c-22.8,9.3-40.5,8.7-57-1.9c-10.2-6.7-16-18.4-15.3-31.4
				c1-20.1,16-39.1,41.1-52.1c1-0.4,1.4-1.6,1-2.6c-0.4-1.2-1-1.3-1.5-1.3c-1,0-2.3,0.4-3.8,0.9l-60,19.7c-1,0.3-1.6,1.4-1.4,2.4
				l0.1,0.6c0.2,1.1,1.3,1.8,2.5,1.6c0.5-0.1,1-0.4,1.3-0.9l0.2-0.3l0.4-0.1c9.1-3,24.4-8.1,37.1-12.2L246.2,459z M398.5,440.8
				c-0.2,0.3-0.5,0.5-0.8,0.9c0.2-0.2,0.5-0.4,0.8-0.6C398.5,440.9,398.5,440.9,398.5,440.8z M376.1,439.9c1.3,1.2,3.4,1.4,6.4,0.8
				c4.4-1,9.2-5.5,13.8-13.2c-0.5-8.2,0-16.7,1.7-26.8c-6.9,2.4-11.4,4.3-14.3,5.6c-0.9,1.6-2,3.1-3.4,4.5c-0.5,0.5-1.2,1-1.8,1.2
				c1.4,2,1.8,5.2,1.3,9.2C378.7,428.4,377.6,434.8,376.1,439.9z M266,531.5c-5.7,0-10.9-1.5-15.1-4.3c-6.2-4.2-9.3-9.4-9.3-15.8
				c0.1-9.7,7.8-19.7,15.5-24.7c6.5-4.3,12-6,17.7-7.8c6.2-2,12.6-4.1,20.3-9.6l1.2-0.9l0.8,1.2c9.9,15.1,9.8,32.4-0.2,46.2
				C289.8,525.3,277.7,531.5,266,531.5z M295.3,472.3c-7.5,5.2-13.7,7.1-19.7,9.1c-5.6,1.8-10.7,3.5-17.1,7.6
				c-7,4.5-14.2,13.7-14.2,22.4c0,5.4,2.7,9.9,8.1,13.5c3.8,2.5,8.5,3.9,13.6,3.9c10.8,0,22-5.7,28.4-14.6
				C307,496.7,299.9,479.8,295.3,472.3z M320.4,483.2l-0.9-1.9c-1-2.1-0.6-8.5,2.3-17.7l2.5-7.8l0.2,8.3c0.2,9.3-1.2,16-2.7,17.7
				L320.4,483.2z M434.5,463.2c-7.3,0-20.3-1.9-26-14.6c-0.6-1.4-1.2-2.9-1.7-4.3l-0.3-1l0.8-0.6c1.8-1.4,3.5-2.7,5.3-3.8
				c16.9-11.3,29.1-13.6,36.4-13.6c4.9,0,9.1,1.1,12.2,3.1c4.9,3.3,6.9,8.9,5.5,15.8c-1.8,9.2-13.4,17.2-27.6,18.7
				C438,463.1,436.4,463.2,434.5,463.2z M409.7,444.3c0.4,1.1,0.9,2.1,1.3,3.2c5,11.3,16.9,12.9,23.5,12.9c1.8,0,3.3-0.1,4.3-0.2
				c12.9-1.4,23.5-8.4,25.1-16.5c1.2-5.7-0.4-10.3-4.3-13c-1.8-1.2-5.2-2.7-10.6-2.7c-6.9,0-18.6,2.3-34.9,13.2
				C412.6,442.3,411.1,443.2,409.7,444.3z M324.8,422.8l-0.6-6.1c-0.6-5.7-1.2-10.9-1.7-15.3c-1-8.7,1.1-13,2.4-14.1l0.9-0.8
				l0.9,0.8c0.5,0.4,3.2,3,3.5,12.6c0.2,4.3-1,10.2-3.3,17.1L324.8,422.8z M325.7,391.1c-0.6,1.7-1.2,4.9-0.6,10
				c0.3,2.6,0.6,5.5,1,8.6c1-3.8,1.4-7.1,1.3-9.7C327.1,395.4,326.4,392.6,325.7,391.1z M402.6,422.3l0.6-8.7
				c0.4-5.4,1.3-11.2,2.7-17.6l0.2-0.8l0.8-0.2c1.4-0.4,2.7-0.8,3.9-1.2l2.5-0.8l-0.8,2.5c-2,6.9-4.3,13.2-6.5,18.8L402.6,422.3z
				 M408.5,397.3c-0.3,1.5-0.5,2.9-0.9,4.3c0.5-1.5,1-2.9,1.4-4.5C408.9,397.2,408.7,397.3,408.5,397.3z M372.5,403.3
				c-0.9,0-1.6-0.2-2.3-0.8c-1-0.9-1.6-2.3-1.6-3.9c0.1-3.4,2.1-4.6,3.9-4.9c0.4-0.1,0.8-0.1,1.3-0.2h0.2c1.7,0,3.5,1.3,4.4,3.2
				c0.5,1.2,0.6,2.4,0.4,3.6l-0.1,0.8l-0.6,0.3C375.6,402.6,373.9,403.3,372.5,403.3z M374,394.9v1.4c-0.3,0-0.6,0.1-0.9,0.1
				c-1,0.2-1.6,0.6-1.6,2.4c0,0.8,0.2,1.4,0.5,1.6c0.4,0.4,2-0.1,4.1-1.1c0-0.5-0.1-1-0.3-1.4c-0.5-1.1-1.4-1.6-1.8-1.6V394.9z
				 M407.2,390.5l0.5-2.4c0.6-2.5,1.2-4.9,1.8-7.2l0.3-1.1c0.4-1.6,0.9-3.2,1.2-4.6c1.7-7.2,4-10.4,5.2-11.6l1.8-1.9l0.5,2.6
				c0.2,1.2,0.5,4.1-0.4,9c-1.1,4.7-2.1,9.4-3.4,14.4l-0.2,0.8l-0.8,0.2c-1.4,0.4-2.8,0.8-4.2,1.2L407.2,390.5z M415.9,369.3
				c-0.8,1.6-1.5,3.8-2.3,6.7c-0.3,1.5-0.8,3.1-1.2,4.7l-0.3,1.1c-0.4,1.6-0.9,3.2-1.2,4.8c0.4-0.1,0.8-0.2,1.2-0.3
				c1.2-4.6,2.3-9,3.2-13.4C415.7,371.4,415.8,370.4,415.9,369.3z"/>
		</g>
	</g>
</g>
</svg>
