<?xml version="1.0" encoding="utf-8"?>
<!-- Generator: Adobe Illustrator 18.0.0, SVG Export Plug-In . SVG Version: 6.00 Build 0)  -->
<!DOCTYPE svg PUBLIC "-//W3C//DTD SVG 1.1//EN" "http://www.w3.org/Graphics/SVG/1.1/DTD/svg11.dtd">
<svg version="1.1" id="Layer_4_1_" xmlns="http://www.w3.org/2000/svg" xmlns:xlink="http://www.w3.org/1999/xlink" x="0px" y="0px"
	 viewBox="90 180 432 432" enable-background="new 90 180 432 432" xml:space="preserve">
<g id="Layer_4">
	<path fill="#5D5D5D" d="M548,455.1c-5-15.4-13.5-29.8-24.8-41.6c-19.4-20.3-45.2-31-72.3-31c44.2,0,82.9,31.3,96.3,73.1
		C547.5,455.4,547.7,455.2,548,455.1z"/>
	<path fill="#5D5D5D" d="M242.1,325.2c1.1-0.3-2.7,3.5-2.8,2.8c-0.3-0.9-0.4-1.6-0.7-2.4c-0.4-1.6-1-3.3-1.7-4.8
		c-1.6-3-3.3-5.9-5.1-8.6c-3.8-5.5-8.4-10.6-13.3-15c-10.2-8.8-22.7-14.7-35.7-17.1c-13-2.4-26.8-1.4-39.2,3
		c-12.5,4.4-23.7,12-32.3,21.8c-4.3,5-8.1,10.3-10.9,16.3c-3,5.8-5.1,12-6.5,18.4c-1.4,6.4-1.8,12.9-1.6,19.6
		c0.1,6.7,1,13.2,2.7,19.5c1.6,6.4,3.8,12.6,7.1,18.3c3.1,5.7,7.1,11.1,11.9,15.6s10.3,8.2,16.4,10.9c3.1,1.3,6.2,2.4,9.5,3.1
		c3.3,0.7,6.7,1.3,10.1,1.6c-6.8,0.6-13.7-0.3-20.4-2.4c-6.7-2.1-12.9-5.5-18.4-10.1c-5.4-4.5-10.1-9.9-13.7-16
		c-3.7-6.1-6.4-12.6-8.2-19.4c-1.8-6.8-2.8-13.7-3.1-20.8c-0.3-6.9,0.1-14.2,1.7-21.1c2.8-13.9,9.6-26.9,19.1-37.3
		c4.8-5.2,10.2-9.8,16.2-13.6c5.9-3.8,12.3-6.8,19.1-8.9c13.5-4.3,27.8-4.8,41.4-1.8c13.6,3,26.4,9.5,36.6,18.8
		c5.1,4.7,9.6,9.9,13.5,15.7c1.8,2.8,3.5,5.9,5.1,8.9C239,321.6,241,325.4,242.1,325.2z"/>
	<path fill="#5D5D5D" d="M474.2,564.2c-7.8-1.6-14.2,1.1-21.7,0.4c-15.6-1.4-30.7-7.2-43.4-16.4c-6.4-4.7-12-10.1-17-16.1
		c-5-6.1-13-14-16.1-21.3c-3.1-7.2-1.1-13.9-2.1-21.7c-1.1-7.8-1.1-15.9-0.1-23.7c2-15.7,8.2-31,17.7-44.1
		c-5,6.2-9.4,13.2-12.6,20.5c-3.3,7.4-5.7,15.2-6.9,23.2c-1.3,8.1-1.6,16.1-0.7,24.4c0.9,8.1-1.1,12.9,1.8,20.5
		c3,7.6,11.2,18,16.1,24.5c5,6.5,10.9,12.3,17.4,17.3c13,9.9,29,16.2,45.3,17.9c8.2,0.8,27.9,1,42.4-3.7
		C499.5,564,482,565.7,474.2,564.2z"/>
	<path fill="#5D5D5D" d="M550.4,470.2c-0.3-4.1-0.9-8.1-1.7-12c-0.9-4-2-7.9-3.5-11.8c-1.6-3.8-3.5-7.4-6-10.5
		c4.1,6.9,6.1,14.7,7.1,22.7c1,7.8,1,15.9,0.3,23.7c-0.3,4-0.9,7.8-1.7,11.8c-0.7,3.8-1.6,7.6-2.7,11.5c-2.3,7.5-5.1,14.9-9.1,21.4
		c-1,1.7-2.1,3.3-3.3,4.7l-0.8,1.1l-1,1.1c-0.6,0.7-1.3,1.4-1.8,2.3c-2.5,3-5.4,5.7-8.4,8.2c-5.9,5.1-12.6,9.4-19.5,12.6
		c-6.2,3-12.8,5.1-19.5,6.4c6.2,0.3,19.4-1.1,24.6-2.8c7.8-2.5,11.6-6.9,17.9-12.3c3.1-2.7,6.1-5.5,8.9-8.6c0.7-0.7,1.4-1.6,2-2.4
		l1-1.1l0.4-0.6l0.4-0.6c1.3-1.7,2.4-3.4,3.5-5.2c2.1-3.5,4-7.4,5.5-11.2c1.6-3.8,2.8-7.8,3.8-11.8c1-4,1.8-7.9,2.4-12
		c0.6-4.1,1-8.1,1.1-12.2C550.7,478.3,550.7,474.2,550.4,470.2z"/>
	<g>
		<path fill="#5D5D5D" d="M140,435.1L140,435.1h-0.1H140z"/>
		<path fill="#5D5D5D" d="M146.2,435.7L146.2,435.7c-0.1,0-0.1,0-0.1,0H146.2z"/>
		<g>
			<path fill="#5D5D5D" d="M140,435.1L140,435.1h-0.1H140z"/>
			<path fill="#5D5D5D" d="M146.2,435.7L146.2,435.7c-0.1,0-0.1,0-0.1,0H146.2z"/>
			<path fill="#5D5D5D" d="M93.4,418.1c13.2,10.9,29.2,18.4,46,21.1h0.1l0,0l6.2,0.6h0.1h0.1c16.4,0,32.7,1,48.9,3.5
				c16.1,2.5,32.2,6.4,46.9,13.3c11.6,5.4,26.4,9.6,37.3,21.7c5.4,6,12.5,18.7,16.3,25.9c1.8,3.5,3.5,7.2,5,11
				c1.4,3.8,2.7,7.6,3.8,11.6c2.4,7.8,5,15.7,8.2,23.4c3.3,7.6,7.1,15,11.8,22c4.7,6.9,10.1,13.3,16.3,18.8
				c6.2,5.5,13,10.3,20.3,14.3c14.6,8.1,30.6,12.9,46.8,15.9c16.3,3,32.7,3.8,49.2,3.7c-16.4-0.1-32.9-1.4-49-4.5
				c-16.1-3.1-31.9-8.2-46.2-16.4c-7.1-4.1-13.7-8.9-19.7-14.5c-5.9-5.5-11.3-11.8-15.7-18.6c-4.5-6.8-8.2-14.2-11.3-21.7
				c-3.1-7.5-5.5-15.4-7.9-23.2c-1.1-4-2.4-7.9-3.8-11.8c-1.4-4-3.1-7.8-5.1-11.5c-3.8-7.4-4.7-16.6-10.2-22.8
				c-5.5-6.2-15.9-9.5-22.7-14.3c-6.8-4.8-14.2-8.8-21.7-12.3c-15.2-6.8-31.4-11.1-47.7-13.7s-32.9-3.8-49.4-3.8l0,0h-0.1
				c0,0,0,0,0.1,0l-6.1-0.6l0,0h-0.1h0.1c-8.1-1.4-15.9-3.8-23.2-7.2c-7.4-3.4-14.3-7.9-20.5-13.2c-6.2-5.2-11.8-11.3-16.3-18.1
				c-4.5-6.8-2-16.1-4.5-23.9c-5.4-15.4-12.6-30.2-9.3-46.2c3.3-16,11-31,22.2-43.1c11.1-12,25.5-21.1,41.2-25.6
				c15.7-4.7,32.7-5,48.7-0.7c15.9,4.3,30.6,12.8,42.1,24.6c5.7,5.9,10.6,12.6,14.6,19.8c2,3.5,3.7,7.4,5.1,11.2c0.4,1,0.7,2,1,2.8
				c0.3,1,0.7,2,0.9,3c0.4,2.4,0.4,5.7,0.1,8.2c0,0,2-0.4,2.6-1.4c0.7-1.3-0.1-2.1-0.1-5.1c0-2.3-0.7-6.8-1.6-8.8
				c-1.6-4-3.4-7.8-5.4-11.5c-4.1-7.4-9.2-14.3-15.2-20.3c-5.9-6.1-12.6-11.3-20-15.6c-7.4-4.3-15.2-7.5-23.4-9.8
				c-16.4-4.4-34-4.3-50.3,0.4c-16.3,4.7-31.4,13.7-43.1,26.2c-11.8,12.3-19.7,28-23.7,44.6c-2.1,9.2-1.4,14.2,0.4,21.1
				c1.1,4.7,5.4,16,8.4,22.7c1.8,4.3,2.5,7.9,2.4,10.9c-0.1,5.8-5-2.7-7.4-4.4c-3.1-2.3,8.8,19.8,14.3,27.9
				C83.3,408.3,87.5,413.3,93.4,418.1z"/>
		</g>
	</g>
	<g>
		<path fill="#5D5D5D" d="M522.6,315.7c-4.1,5.7-9.9,19-11.2,21.1c-0.4,0.7-1.1,2,0.4,0.6c1.7-1.3,10.1-6.1,16.7-15.3
			c6.7-9.2,9.5-19.4,10.2-20.7c0.7-1.3,1-4.3-0.6-2.1C536.5,301.4,526.7,309.9,522.6,315.7z"/>
		<path fill="#5D5D5D" d="M340.1,318.5c-2.1,3.3-6.1,2.8-6.2,9.5c-0.3,10.5,1.1,16.6-1,21.3c-1.4,3.3-3.5,4.4-3.5,4.8
			c-0.3,0.7,1.7-0.3,4.5-5.4c2.5-4.7,4.1-10.3,6.1-19.8c1.6-7.2,4.7-19.1,12.8-24.1h-2C344.5,308.9,341.7,316.1,340.1,318.5z"/>
		<path fill="#5D5D5D" d="M394.1,326.7c13.2,18.4,5,25.5,5,34.3s4.1,5.8,6.1,8.1c2,2.4,1.8,4.4,1.8-5.8s-1.3-21-11.8-37.3
			c-6.4-10.1-13.9-17.4-21.5-21.4h-1.8C379.4,308.2,385.9,315.4,394.1,326.7z"/>
		<path fill="#5D5D5D" d="M366.5,304.8c0,0,3.8,1.1,6.9,4.8c3.1,3.8,1.4,4.8,0.6,5.2c-4.1,1.3,2.8,6.5,7.2,12.3
			c10.2,13.3,12.2,14.2,13.6,17.9c1,2.8,1,8.9-1.6,5.4c-2.5-3.7-13.3-16.6-14-8.4c-0.7,7.9,4,6.4,9.4,14.6
			c5.4,8.2,8.4,14.6,13.2,14.7s4-0.1,2.3-1.1c-1.7-1-2.3-1.6-4.4-1.7s-7.1-4.8-9.4-13c-1.4-5.5-6.8-3.4-6.5-8.2
			c0.3-5.2,4.8-1.8,9.1,4.3c5.2,7.6,8.6,5.1,6.4-4.1c-3-11.9-5.2-5.1-17.6-20.4c-3.1-3.8-4.5-7.1-4.8-8.9c-0.4-2.7,0-5.9-2.3-8.6
			c-1.6-2-4.1-3.7-5.7-4.5L366.5,304.8L366.5,304.8z"/>
		<path fill="#5D5D5D" d="M345.2,306c-4,3.7-8.4,9.1,0.3,0.7c0.7-0.7,1.6-1.4,2.3-2h-1.1C346.2,305.2,345.8,305.6,345.2,306z"/>
		<path fill="#5D5D5D" d="M394.7,311.3c-1-1.1-2.4-4.4-3.7-6.5h-5.1C391.6,308.3,395.7,312.3,394.7,311.3z"/>
		<path fill="#5D5D5D" d="M297.9,308.4c-3.7,2.4-7.5,4.8-11.3,7.1c-3.8,2.3-7.6,4.5-11.3,7.2c-1.8,1.3-3.5,2.8-5.2,4.4
			c-1.6,1.7-3,3.5-4,5.8c-0.9,2.1-1.3,4.7-1,6.9c0.1,1.1,0.4,2.3,0.7,3.4c0.4,1.1,0.9,2.1,1.3,3.1c0.1-2.4,0.1-4.5,0.4-6.5
			s0.7-3.8,1.6-5.5c1.4-3.5,4.5-6.5,7.8-9.4c3.3-2.8,6.8-5.7,10.3-8.2c1.8-1.3,3.7-2.6,5.4-3.8c1.8-1.3,3.7-2.5,5.5-3.7
			c2.1-1.4,4.3-2.8,6.4-4.4h-1.3C301.6,306,299.8,307.2,297.9,308.4z"/>
		<path fill="#5D5D5D" d="M552.6,226.7c-2-8.8-5.4-17.3-10.1-25.2c-2.3-4-5-7.6-7.8-11.3c-3-3.5-6.2-6.8-9.6-9.9
			c-6.9-6.1-21.4-18-30-21.5c-8.8-2.7-16,1.1-20.5,1c-2.4-0.1-4.7-0.1-6.9,0c-2.3,0-4.5,0.1-6.8,0.3c-4.5,0.4-9.1,1-13.6,1.8
			c-9.1,1.7-17.9,4.7-26.1,8.6s-15.9,9.1-23,14.9c-6.9,5.8-13.3,12.2-19.3,19c-5.8,6.8-11.2,14-16.3,21.4c-9.9,15-17.6,31-27.2,45.9
			c-2.7,4.1-5.4,8.1-8.5,11.8h1.4c0.1-0.1,0.1-0.1,0.3-0.3c2.8-3.4,5.4-7.1,7.9-10.8c9.9-14.7,17.9-30.7,27.8-45.5
			c5.1-7.2,10.5-14.3,16.4-21c5.8-6.7,12.2-12.9,19.1-18.4c6.9-5.5,14.5-10.3,22.5-14c8.1-3.7,16.6-6.4,25.4-7.8
			c8.8-1.6,17.7-2.1,26.5-1.8c8.9,0.4,13-6.7,21.4-3.5c8.2,3.3,20.5,16.9,27.3,22.5c6.8,5.7,12.8,12.5,17.6,20
			c4.8,7.5,8.4,15.7,10.6,24.4c2.4,8.6,3.4,17.4,3.4,26.3C555.3,244.6,554.5,235.6,552.6,226.7z"/>
		<path fill="#5D5D5D" d="M513.5,199.5c1,1,2,2,3,3.1c0,0.1,0.1,0.1,0.1,0.3l0.7,0.4c-1.8-2.1-4.7-5.7-6.8-8.9
			c-3.4-5.4-7.9-9.8-9.1-10.6c-7.1-5.4-16.9-6.8-20-7.4c-2.3-0.4-4.3-0.7-3.1-0.3c22,3.7,27.8,15.2,27.9,15.3l-0.7,0.4
			c0,0-1.3-2.4-4.7-5.2c1,1.1,2,2.4,2.7,3.5c0.4,0.7,0,1.1-0.9,1.1c1.6,1,3,2,4.5,3.1C509.4,195.8,511.6,197.7,513.5,199.5z"/>
		<path fill="#5D5D5D" d="M386.5,224.4c5.2-13.6,14.2-25.6,25.4-34.6c11-9.2,24.4-15.4,38.5-18c14-2.6,28.8-1.8,42.2,3.1
			c2.8,1,5.8,1.6,6.5-1.3c0.7-2.4,0-3.7,1.1-4.1c1.1-0.4,2.8,2.1,4.1,4c2,2.7,3.3,6.5,9.9,10.2c6.7,3.5,14.9,8.4,16.3,9.8
			c1.3,1.4,2,1.7,0.7,0.1c-1.1-1.7-5.5-7.7-13.2-12c-7.6-4.4-14.5-11.9-17.7-14.4c-6.1-4.8-1.7,4.5-8.9,2c-14.2-5-27.2-4.3-41.9-1.3
			c-14.7,2.8-28.6,9.8-40,19.4c-11.3,9.8-20.1,22.4-25.1,36.6c-2.4,7.1-3.8,14.4-4.3,21.8c-0.1,1.8-0.1,3.7-0.1,5.5
			c-0.1,1.8-0.1,3.7,0,5.5c0.1,3.7,0.4,7.4,1,11.1c0.4,3,1,6.1,1.7,9.1c0.1,0.1,0.3,0.1,0.3,0.3c-0.7-3.1-1.3-6.2-1.7-9.3
			c-1-7.4-1.1-14.7-0.3-22.1C381.9,238.3,383.8,231.1,386.5,224.4z"/>
		<path fill="#5D5D5D" d="M549.7,236.1c-2.7-14.7-9.2-28.9-19.1-40.1c-3.7-4.1-9.5-4.3-19-10.9c-9.5-6.7-3.3-1.4-0.6,1
			c2.7,2.4,4.7,7.4,10.8,11.8c1.7,1.1,3.3,0.4,6.7,3.1c11.2,8.9,14.6,22,17.1,36c0.7,3.5,1.7,15.6,1.7,19.1
			c0.4,26.6-22.5,44.9-28.9,58.5c-6.2,13-11,26.6-23.1,34.7c-12,8.2-25.5,14.4-39.5,18.4c-7.1,2-14.2,3.4-21.4,4.1
			c-1.8,0.1-3.7,0.3-5.4,0.4c-1.8,0.1-3.7,0.1-5.5,0.1c-3.7,0-7.5,0.1-11.2,0.4c-7.5,0.4-14.9,1.3-22.2,2.4
			c-7.4,1.3-14.7,2.8-22,4.7c-6,1.6-11.9,3.1-17.9,4.7h7.8c3.5-0.9,7.1-1.8,10.5-2.7c7.2-1.8,15.2-0.9,22.4-2
			c7.4-1.1,14-4.3,21.4-4.7c3.7-0.1,7.4-0.3,11-0.3c3.7,0,7.5-0.1,11.2-0.4c7.4-0.7,14.7-2,22-4c14.3-4,28.2-10.2,40.5-18.4
			c12.3-8.2,26.5-18.7,35.3-30.7c8.8-12,11.9-25.9,15.4-40.5c1-4.1-9.9,12.9-9.3,8.8c0.4-3.3,11.2-14.4,12.6-30.9
			c0.3-3.7,0.3-7.5,0.1-11.2C550.8,243.4,550.4,239.7,549.7,236.1z M538.8,301.4c-0.7,1.3-3.4,11.5-10.2,20.7
			c-6.7,9.2-15,13.9-16.7,15.3c-1.7,1.3-0.9,0-0.4-0.6c1.3-2.1,7.1-15.4,11.2-21.1c4.1-5.7,13.9-14.3,15.6-16.3
			C539.8,297.3,539.5,300.1,538.8,301.4z"/>
		<path fill="#5D5D5D" d="M270.9,381.5c-3.4-1.4-6.8-3-10.2-4.4c-3.4-1.6-6.9-2.8-10.5-3.8c-3.5-1-7.4-1.4-11.1-1
			c3.7-0.3,7.4,0.3,10.9,1.4c3.5,1,6.9,2.5,10.3,4.1c4.8,2.3,9.6,4.5,14.6,6.5h3C275.7,383.5,273.3,382.5,270.9,381.5z"/>
		<path fill="#5D5D5D" d="M530.5,284.8c4.7-10.1,6.7-21.3,6-32.4c-0.4-5.5-1.3-11.1-2.8-16.4c-1.4-5.4-3.4-10.6-6-15.6
			c-2.4-5-5.2-9.9-8.6-14.4c-0.9-1-1.6-2.1-2.4-3.1l-8.6-6.2c-1-1.1-5.5-4.7-6.4-5.8c0.3,0.1,0.7,0.1,1,0.3c-3.1-2.1-6.5-4-9.9-5.5
			c-5.1-2.4-10.5-4.3-16-5.4s-11.2-1.6-16.7-1.4c-2.8,0.1-5.7,0.4-8.4,0.8c-2.7,0.4-5.5,1-8.2,2c-10.8,3.5-20,10.5-27.1,19.3
			c-3.4,4.4-6.4,9.2-8.1,14.6c-0.9,2.7-1.4,5.5-1.3,8.4c0.1,2.8,1.1,5.8,3.1,7.9c1,1.1,2.3,1.8,3.7,2.4c1.4,0.6,2.8,0.7,4.3,0.8
			c2.8,0.1,5.7-0.3,8.4-0.7c5.5-1,10.8-2.7,16.1-4.1c5.2-1.6,10.6-3,16-4c5.4-1,10.9-1.7,16.3-1.6c5.5,0.1,10.9,1.1,15.9,3.4
			c5,2.1,9.5,5.5,13,9.6c3.7,4.1,6.5,8.9,8.5,14c2,5.1,3.3,10.5,3.8,16c1.1,10.9-0.6,22.1-3.8,32.6c-6.8,21-20.8,39.5-39.1,51.9
			c-3,2-6.1,3.8-9.2,5.5c0,0.1,0,0.1-0.1,0.3c3.3-1.7,6.4-3.5,9.4-5.5c18.4-12.3,32.6-30.7,39.5-51.9c3.4-10.5,5.1-21.7,4.1-32.7
			c-0.6-5.5-1.7-11.1-3.7-16.2c-2-5.2-4.8-10.1-8.6-14.2c-3.7-4.1-8.2-7.7-13.3-9.9s-10.8-3.4-16.3-3.5c-5.5-0.1-11.2,0.4-16.6,1.6
			c-5.4,1-10.8,2.4-16.1,4c-5.4,1.4-10.6,3-16,4c-2.7,0.4-5.4,0.8-8.1,0.7c-2.7-0.1-5.2-1-7.1-2.8c-0.9-1-1.6-2.1-2-3.3
			c-0.4-1.3-0.7-2.6-0.7-3.8c-0.1-2.7,0.4-5.4,1.3-7.9c1.7-5.1,4.5-9.9,7.9-14.2s7.5-7.9,11.9-11.1s9.4-5.7,14.5-7.2
			c2.5-0.9,5.2-1.4,7.9-1.7c2.7-0.4,5.4-0.6,8.1-0.7c5.4-0.1,10.9,0.4,16.1,1.6c10.6,2.3,20.7,7.1,29.3,13.6
			c2.1,1.6,4.3,3.3,6.4,5.1c1,0.9,2,1.8,2.8,2.8c0.8,1,1.7,2,2.5,3.1c3.3,4.4,6.1,9.1,8.6,13.9c4.8,9.8,8.4,20.3,9.4,31.3
			c0.4,5.4,0.4,10.9-0.3,16.4C534.1,274.3,532.5,279.7,530.5,284.8z"/>
		<path fill="#5D5D5D" d="M508,196.7l8.6,6.2c0-0.1-0.1-0.1-0.1-0.3c-1-1.1-2-2.1-3-3.1c-2-2-4.2-3.7-6.4-5.4
			c-1.4-1.1-3-2.1-4.5-3.1c-0.3,0-0.6-0.1-1-0.3C502.5,192,507,195.4,508,196.7z"/>
		<path fill="#5D5D5D" d="M498.4,183.9c-5.8-4.5-11.8-5.9-17.1-7.2c-1.6-0.3-2.4-0.6-2.8-0.7c-6.5-1.1-14.5-1.6-24.2-0.7
			c-21.8,1.7-41.9,14.9-52.4,34.3c-9.2,17-8.6,36.1,0.4,52.4v-0.6c-8.8-16-8.6-34.8,0.4-51.6c10.3-19.1,30.2-32,51.7-33.7
			c26.9-2.1,40.4,5,46.6,10.2C500.1,185.3,499.2,184.5,498.4,183.9z"/>
		<path fill="#5D5D5D" d="M505.5,191.6l0.7-0.4c-0.1-0.1-6-11.5-27.9-15.3c0.4,0.1,1.3,0.4,2.8,0.7c5.4,1.3,11.3,2.7,17.1,7.2
			c0.7,0.6,1.6,1.4,2.4,2.4C504.2,189.2,505.5,191.6,505.5,191.6z"/>
	</g>
	<path fill="#5D5D5D" d="M448.8,385.4c6.5-0.3,12.9,0.6,19.3,2c6.2,1.4,12.5,3.7,18.3,6.4c11.8,5.5,22.5,13.2,31.3,22.8
		c4.4,4.8,8.2,10.2,11.5,15.7c3.4,5.5,6.4,11.3,8.6,17.4c1.1,3,2.1,6.2,2.5,9.5c0.4,3.3,0.4,6.7,0,9.8c-0.4,3.3-1,6.4-1.6,9.6
		c-0.6,3.1-1,6.4-1.7,9.6c-1.4,6.4-3.4,12.6-6.5,18.4c-3.1,5.8-7.4,11-12.9,14.7c-5.4,3.8-12,6-18.7,5.8c-6.7,0-13.2-2.3-18.7-5.8
		c-5.5-3.5-10.2-8.4-13.9-13.9c-3.7-5.4-6.4-11.5-8.4-17.7c-1-3.1-1.8-6.2-2.4-9.5c-0.7-3.1-1.6-6.1-3-9.1
		c-2.5-5.8-6.7-10.9-12-14.2c-5.4-3.4-11.8-4.8-18-4.4c-6.4,0.3-12.5,2.4-17.9,5.7c-5.4,3.4-9.9,7.9-13,13.5
		c-3.1,5.5-4.7,11.8-4.8,18.1c-0.1,6.4,1.3,12.8,3.5,18.7c2.3,6,5.4,11.6,9.1,16.9c7.2,10.5,17,19.4,28.6,25.1
		c11.5,5.7,24.5,7.9,37.4,7.2c12.9-0.7,25.5-4.5,36.8-10.6c11.3-6.1,21.5-14.5,29-25.1c3.7-5.2,6.8-11,8.9-17.1
		c2.1-6.1,3.3-12.6,3.4-19c0,6.5-1.1,12.9-3.1,19.1c-2,6.1-5.1,12-8.8,17.3c-7.4,10.6-17.6,19.3-28.9,25.5
		c-11.5,6.2-24.1,10.1-37.1,10.9c-13,0.9-26.2-1.4-38.1-7.1c-6-2.8-11.3-6.5-16.3-10.8s-9.2-9.2-12.9-14.6c-3.7-5.4-6.9-11-9.2-17.1
		c-2.3-6.1-3.7-12.6-3.7-19.3c0.1-6.5,1.7-13.2,5-19c3.3-5.8,7.9-10.6,13.6-14.2c5.7-3.5,12-5.7,18.7-6c6.7-0.4,13.5,1.1,19,4.7
		c5.7,3.5,10.1,8.9,12.6,15c1.4,3,2.3,6.2,3,9.4c0.7,3.1,1.4,6.2,2.4,9.4c2,6.1,4.5,12,8.2,17.3c3.5,5.2,8.1,9.9,13.5,13.5
		c5.4,3.4,11.5,5.5,17.9,5.5c6.4,0.1,12.6-2,17.7-5.5c5.2-3.5,9.4-8.6,12.5-14.2c3.1-5.5,5.2-11.8,6.5-18c0.7-3.1,1.1-6.4,1.7-9.5
		c0.6-3.3,1.3-6.4,1.7-9.5c0.4-3.1,0.6-6.4,0-9.5c-0.4-3.1-1.4-6.2-2.5-9.2c-2.3-6-5.2-11.8-8.5-17.3c-3.3-5.5-6.9-10.9-11.3-15.6
		c-8.6-9.6-19.1-17.4-30.9-22.9c-5.8-2.8-11.9-5-18.1-6.5C461.7,386.1,455.2,385.2,448.8,385.4z"/>
	<path fill="#5D5D5D" d="M520.8,420.5c0.9,1.1,1.6,2.3,2.3,3.5c0.7,1.3,1.3,2.6,1.6,4c0.1,0.7,0,1.6-0.3,2.1c-0.3,0.7-0.6,1.3-0.7,2
		c-0.4,1.3-0.6,2.5-0.4,4c0.3,2.7,1.3,5.2,2.3,7.8c1,2.5,2.3,5.1,3.4,7.5c2.3,5,4.5,10.1,6.5,15.3c1,2.5,1.8,5.2,2.4,8.1
		c0.6,2.7,0.8,5.5,0.4,8.5l-1.3-0.1c0.4-2.5,0.1-5.4-0.4-7.9c-0.6-2.7-1.3-5.2-2.3-7.8c-1.8-5.1-4.1-10.2-6.4-15.2
		c-1.1-2.5-2.3-5.1-3.3-7.6c-1-2.6-2-5.2-2.3-8.1c-0.1-1.4,0-2.8,0.6-4.3c0.3-0.7,0.6-1.3,0.8-1.8c0.3-0.6,0.3-1.3,0.3-1.8
		c-0.1-1.3-0.7-2.5-1.4-3.7c-0.7-1.1-1.4-2.4-2.1-3.5L520.8,420.5z"/>
	<path fill="#5D5D5D" d="M99.9,421.5c-7.1-5.7-13.9-12-19.8-18.8c-5.9-6.9-11.3-14.5-15.6-22.5c-4.4-8.1-7.6-16.7-9.9-25.5
		c-1.1-4.4-2-8.9-2.7-13.5c-0.7-4.5-1-9.1-1.3-13.6c-0.3-4.5-0.6-9.1-0.1-13.7c0.1-2.3,0.4-4.7,1.4-6.8c0.6-1.1,1.4-2,2.4-2.7
		c1-0.6,2.1-1,3.1-1.4c2.1-0.9,4-2,5.5-3.7c0.8-0.9,1.4-1.7,2.1-2.6l1.8-2.8c2.5-3.8,5.2-7.5,8.1-11c5.8-6.9,12.6-13.3,20.1-18.3
		c7.7-5.1,16-8.8,24.8-11.3c-4.4,1.4-8.5,3.1-12.6,5.1s-7.9,4.3-11.6,6.9c-7.4,5.2-13.9,11.6-19.4,18.6c-2.8,3.5-5.4,7.2-7.8,11
		l-1.8,3c-0.7,1-1.4,2-2.3,3c-0.8,1-1.8,1.8-2.8,2.6c-1.1,0.7-2.3,1.3-3.3,1.8c-1.1,0.4-2.1,0.9-2.7,1.3c-0.7,0.4-1.1,1-1.4,1.7
		c-0.7,1.6-1,3.7-1,5.8c-0.1,2.1,0,4.4,0.1,6.7c0.1,2.3,0.3,4.5,0.4,6.7c0.1,2.3,0.4,4.5,0.7,6.8c0.3,2.3,0.6,4.4,0.8,6.7
		c0.7,4.4,1.6,8.8,2.7,13c2.3,8.6,5.7,16.9,9.9,24.6c4.3,7.8,9.5,14.9,15.3,21.7c1.4,1.7,2.8,3.4,4.4,5.1c1.4,1.7,3,3.4,4.5,5
		l9.2,9.9L99.9,421.5z"/>
	<g>
		<path fill="#5D5D5D" d="M481.5,591.6c-11.8,3.1-24.2,3.5-36.3,2s-22.1-5.5-33-11c-10.9-5.5-14.5-17-23-25.6
			c-8.5-8.8-23.7-14.6-28.5-25.6c-5-11-7.6-23.2-7.8-35.3c0.3-12.3-1.3-25.4-6.9-37c-2.8-5.8-6.4-11.1-10.8-15.9
			c-2.1-2.4-4.5-4.5-6.9-6.5c-2.4-2.1-5-4-7.5-5.7c-2.6-1.7-5.2-3.4-7.9-5c-2.7-1.6-5.4-3.1-8.2-4.5l-0.6-0.3h-3.5
			c8.9,6.7,8.4,5.9,17.9,13c2.4,1.8,4.8,3.7,7.1,5.7c2.3,2,4.4,4.1,6.4,6.4c4.1,4.4,7.5,9.4,10.1,14.7c2.6,5.4,0,6.2,1.1,12.2
			c0.6,3,5.4,10.8,5.7,13.9c0.1,1.6,0.3,3,0.3,4.5c0.1,1.6,0.1,3,0.1,4.7c0.3,12.6,3.1,25.1,8.2,36.7c5.1,11.5,0,16.3,8.8,25.2
			c8.8,8.9,31.5,22.1,42.6,27.8c11.2,5.7,23.4,9.3,35.8,10.9s25.2,1,37.4-2.1L481.5,591.6z M380.7,564.6c-5.7-4-10.3-5.1-14.9-11.8
			c-2.1-3.1-2.7-6.2-2.5-8.8c0.1-2.5,2.3-2.1,4.1-0.1c1.8,1.8,16.7,9.5,20.4,12.9c4.5,4.1,5.8,10.6,7.1,13.6
			C396,573.5,386.3,568.5,380.7,564.6z"/>
		<path fill="#5D5D5D" d="M548.1,453.9c-5.8-17.1-16-32.9-29.5-45.1c-9.2-8.4-19.8-15.2-31.5-19.7c-11.5-4.5-23.9-6.7-36.4-6.7l0,0
			c12.3,0,24.6,2.8,36,7.5c11.3,4.7,21.8,11.5,30.9,19.8c13.6,12.8,23.8,29,29.2,46.7C547.4,455.6,547.8,454.8,548.1,453.9z"/>
		<path fill="#5D5D5D" d="M474.6,593.5c15.4-2.5,30.6-7.7,43.8-16.2c6.7-4.3,12.6-9.2,18-15c5.4-5.7,9.9-12.2,13.6-19.1
			c7.4-13.9,11.2-29.5,12.3-45.2c1-15.7-0.6-31.6-3.7-47c3.4,15.4,5.2,31.3,4.4,47c-0.8,15.7-4.4,31.6-11.8,45.8
			c-3.7,7.1-8.2,13.7-13.6,19.5c-5.4,6-11.5,11.2-18.1,15.4c-13.3,8.8-28.8,14.2-44.3,17L474.6,593.5z"/>
	</g>
	<path fill="#5D5D5D" d="M405.9,566.6c1.1,1.4,2.5,2.7,4,3.8c1.4,1.1,3,2.3,4.4,3.3c3.1,2,6.2,3.8,9.5,5.4c3.3,1.6,6.7,2.8,10.2,4
		c3.4,1.1,6.9,2,10.6,2.5c7.2,1.3,14.5,1.6,21.7,0.9c3.7-0.3,7.2-0.9,10.8-1.7c1.8-0.4,3.5-0.8,5.2-1.4c1.7-0.6,3.4-1.1,5.1-1.8
		c1.7-0.7,3.4-1.4,5-2.1c1.6-0.8,3.3-1.7,4.7-2.7c0.7-0.6,1.3-1.1,1.7-1.7c0.1-0.3,0.3-0.7,0.3-0.9c0-0.1-0.1-0.3-0.4-0.4
		c-0.6-0.3-1.6-0.4-2.4-0.4c-0.9,0-1.7,0-2.7,0.1c-3.5,0.3-7.2,1-10.8,1.6c-1.8,0.4-3.7,0.7-5.5,1c-1.8,0.3-3.7,0.4-5.5,0.4
		c-7.4,0.3-14.7-0.1-22.1-1.3c-3.7-0.6-7.2-1.3-10.8-2.3c-3.5-0.9-7.1-2-10.5-3.5c3.4,1.4,6.9,2.3,10.6,3.1
		c3.5,0.8,7.2,1.4,10.8,1.8c7.2,0.9,14.6,1.4,21.8,0.9c1.8-0.1,3.7-0.3,5.4-0.6c1.8-0.3,3.5-0.6,5.4-1c3.7-0.7,7.2-1.4,10.9-1.7
		c1,0,1.8-0.1,2.8-0.1c1,0,2,0.1,3,0.6c0.3,0.1,0.6,0.3,0.9,0.6s0.4,0.6,0.4,1c0.1,0.7-0.1,1.3-0.4,1.8c-0.6,1-1.3,1.6-2.1,2.3
		c-1.6,1.1-3.1,2.1-4.8,2.8c-1.7,0.8-3.4,1.6-5.1,2.3s-3.4,1.3-5.2,1.8c-1.8,0.6-3.5,1-5.4,1.4c-3.5,0.9-7.2,1.4-10.9,1.8
		c-7.4,0.7-14.9,0.4-22.2-0.9c-3.7-0.7-7.2-1.6-10.8-2.8c-3.5-1.1-6.9-2.7-10.2-4.4c-3.3-1.7-6.5-3.5-9.5-5.8
		c-1.4-1.1-3-2.3-4.3-3.5C408.3,569.4,406.9,568.1,405.9,566.6z"/>
	<path fill="#5D5D5D" d="M489.9,581.6c1.3-0.6,2.5-1.3,3.8-2.1c0.6-0.4,1.3-0.7,1.8-1.1l1.8-1.3l1.7-1.3c1.1,0.4-1-4.5,0.1-4
		c1.3-0.7,2.7-1.1,4.3-1.3c1.6-0.3,3.3-0.4,4.5-0.9c1.4-0.4,2.5-1.4,3.7-2.3c1.1-0.8,2.3-1.7,3.4-2.7c1.1-0.9,2.3-1.8,3.3-2.8
		c4.3-4,8.2-8.2,11.6-12.8c3.5-4.5,6.8-9.4,9.6-14.3c6-9.8,10.3-20.5,12.9-31.7c2.5-11.2,3.3-22.8,2-34.1
		c-1.3-11.5-4.7-22.5-9.8-32.9c-1.3-2.6-2.7-5.1-4.1-7.5c-1.4-2.4-3.1-4.8-4.7-7.4c-3.1-5-6-10.1-8.6-15.2c-2.7-5.2-5-10.5-6.9-16
		s-3.5-11.2-4.3-17c-0.8-5.8-0.8-11.8,0.4-17.4c1.3-5.7,3.8-11,7.8-15.4c-3.8,4.4-6.4,9.8-7.4,15.4c-1.1,5.7-1,11.5-0.1,17.3
		c0.8,5.7,2.5,11.3,4.5,16.7s4.5,10.6,7.2,15.7s5.7,10.1,8.8,15c1.6,2.4,3.3,4.8,4.7,7.4c1.6,2.6,3,5.1,4.3,7.6
		c5.4,10.5,8.9,21.8,10.3,33.4c1.6,11.6,1,23.5-1.6,35s-7.1,22.5-13.2,32.6c-6.2,10.1-13.9,19-22.8,26.6c-2.3,1.8-4.5,3.7-6.8,5.5
		c-2.4,1.7-4.7,3.5-7.1,5.1c-1.1,0.8-2.4,1.6-3.7,2.3c-0.6,0.4-1.6,0.3-2.1,0.7l-1.8,1.1c-2.5,1.4-5.1,2.7-7.6,4.1L489.9,581.6z"/>
	<path fill="#5D5D5D" d="M427.3,620.4c-14.6-1.6-29.2-4.8-42.8-10.2c-13.7-5.4-26.5-13.2-37.1-23.2c-10.8-10.1-19.4-22.2-25.8-35.4
		c-3.1-6.7-5.4-13.6-6.9-20.8c-1.6-7.2-2.5-14.5-3.1-21.8c-0.6-7.4-0.9-14.7-1-22.1c-0.3-7.4-0.4-14.7-1-22.1
		c-0.7-7.4-1.7-14.7-4.4-21.8c-1.3-3.5-3.1-6.9-5.4-9.9c-2.3-3-5.1-5.7-8.4-7.6c-2.1-1.4-4.4-2.5-6.7-3.7c-1.1,0.3-3.8-0.3-5-0.3
		c3.1,1.4,7.8,3.7,10.6,5.5c3,2,5.7,4.4,7.9,7.2c2.3,2.8,4,6.1,5.2,9.5c2.6,6.8,3.7,14,4.4,21.4c0.7,7.4,0.9,14.7,1.1,22.1
		c0.3,7.4,0.6,14.7,1.1,22.1c0.6,7.4,1.7,14.7,3.3,22c1.7,7.2,4,14.3,7.2,21c6.5,13.3,15.3,25.5,26.2,35.6s23.8,17.8,37.5,23.2
		c13.7,5.4,28.3,8.4,43.1,9.9c14.7,1.6,29.5,1.6,44.2,0.6C456.7,622.1,441.9,622.1,427.3,620.4z"/>
</g>
<g id="Layer_1_1_">
	<g>
		<path fill="#5D5D5D" d="M183.2,370.2c7.5,0,11.8-6.5,20.1-23.1c4.7-9.5,3.1-5.2,0.6,0.4c-2.7,5.7-11.2,23.8-20.4,23.8
			s-13.6-16.3-13.6-21.1c0-5.7,3.4-4.1,6.2,0.9c1.6,2.7,2.6,7.1,3.5,10.2c3.7,11.3,8.5,3.5,11.9-1.1c2.8-3.8,3.1-3.3,0.1,0.3
			c-3.5,4.5-7.1,16.4-12.5,0.9c-3.5-10.5-7.7-13.6-7.7-9.4C171.4,359.2,177.1,370.2,183.2,370.2z"/>
		<path fill="#5D5D5D" d="M200.3,318.1L200.3,318.1c-3,1-5.9,3.7-8.2,7.8c-1.3,2.1-2.4,4.1-3.3,5.5c-0.4,0.7-0.7,2-1,2.4
			c-0.7,1.3-1.8,2.1-1.1,0.7c0.3-0.6,2.3-5.2,5.5-10.6c3-4.8,4.4-7.1,5.2-8.4c1-1.6,23.5-37.1,48.9-37.4
			c25.4-0.1,27.3,25.2,16.6,42.6c-6.9,11.3-7.5,23.7,2.3,37.8c9.8,14,2.7,4.7-1.3,0.1c-4-4.5-17.4-21.5-4.3-39.8
			c14.2-19.7,9.1-39.4-13.5-39.1c-13.9,0.1-32.3,16.9-37.5,32C208,314.3,205,316.2,200.3,318.1z"/>
		<path fill="#5D5D5D" d="M212.4,337.1c-0.3,3.7-1.1,9.4-3.7,10.8c-2.7,1.4-3.3,1.6-5.1,4.3c-2,2.7-4.7,7.9-6.9,10.5
			c-2.3,2.7-2,2.1-0.1-0.4c2-2.7,4.5-7.1,6.7-10.8c1.6-2.7,4.4-7.6,6.7-14.2c1.3-4.3,4.1-8.2,5.4-11.3c1.3-3.1,0.4-0.1-0.1,1.4
			C214.3,328.7,212.8,332.4,212.4,337.1z"/>
		<path fill="#5D5D5D" d="M208.1,373.2c-2.6,0-6.2-1.1-7.4-3.7c-1.1-2.5-2.7-6.5-1.1-9.6c1.6-3.3,2.4-5,4.7-7.2s5-1.7,6.7-4.4
			c1.6-2.7,1.4-2.3,1.4,0.3c0,2.5-1.6,2.8-3.3,3c-1.7,0.1-3.1-0.3-5,1.8s-3.1,5.2-2.3,9.8c0.9,4.4,3.4,7.4,6.7,7.1
			c5.7-0.4,11.2-6.1,12-6.8c0.9-0.7-4.3,7.6-8.8,7.6C209.4,371.4,210.7,373.2,208.1,373.2z"/>
		<path fill="#5D5D5D" d="M174.1,366.1c-2-2.5-5-9.6-5.9-16.7c-1-7.2-0.1-16.6-5.7-16.6c-4.3,0-5.4,4-5.4,6.7
			c0,6.8,5.4,12.5,13.3,23.1c5.9,7.9,7.8,8.8,10.5,8.8c0.4,0-1.3-0.6-1.6-0.6c-0.3-0.1-1.4-0.7-2.3-1.3
			C176.7,368.9,175.8,368.5,174.1,366.1z"/>
		<path fill="#5D5D5D" d="M168.7,335.8c0-5.2-12-12.3-7.2-19.4s14.3,8.1,16.3,11.2c2.1,3.3,3.8,6.7-0.1,0.4
			c-4-6.1-10.2-8.2-11.5-4.5c-1.1,3.7,2.1,8.9,5.4,14.7c1.6,2.8,3.7,6.8,3.8,7.2c0.6,1.1,1.1,4.8,1,4.4c-2.4-5.5-5.7-5.4-7.1-7.4
			C168,340.6,168.7,338.1,168.7,335.8z"/>
		<path fill="#5D5D5D" d="M177.2,328.9c-3.5-4.5-13.3-7.5-5.5,7.9c7.8,15.4,10.6,19.1,13,18.4c3-1,4.5-12.5,5.5-20
			c0.7-6,2.4-7.9,2.8-8.6c0.4-0.9,0.4-1.3-0.3-0.3c-0.4,0.6-2.3,3.1-3.5,8.9s-2.1,12.9-6.7,12.2c-6.4-1-8.6-8.2-9.9-11.3
			c-1.1-3.1-0.4-11.8,4-7.2c4,4.1,7.4,13.2,9.4,13.6c2,0.4,1.4-3.8,2.4-6.9c1-3.1,1.6-4.3,1.7-5c0.3-0.7,0.6-1.7-0.6,0.3
			c-0.4,0.7-0.3,1.4-0.7,2.4c-0.9,1.8-2.6,3.8-4.5,2.4C181.2,333.8,179.5,331.8,177.2,328.9z"/>
		<path fill="#5D5D5D" d="M191.1,354.9c0.3-3.3,1-7.6,4-12.2c3-4.5,4.1-5.1,4.1-9.8s-4.4-4.1-6.4-0.3c-1.3,2.6-2.7,9.6-3.1,16.6
			s-2.6,16.3-7.1,15.9c-0.7-0.1-1.4-0.9-2-1.8c-0.6-0.9-0.6-0.6-0.1,0.4c0.6,1,1.3,2.8,2.8,3.1C185,367,190.3,364.5,191.1,354.9z"/>
		<path fill="#5D5D5D" d="M177.5,349c0.4,1,2.4,7.2,5.8,7.6c3.4,0.4,4.5-2.7,5.1-5.7c0.6-3,1-5.4,0.7-2c-0.3,3.4-2.7,15.6-6.4,15.3
			c-3.1-0.3-4.8-10.2-5.1-12.5C177.4,349.7,176.8,347.4,177.5,349z"/>
		<path fill="#5D5D5D" d="M212.2,360.7c0,4.8,1,8.6-3,8.6c-3.8,0-6.9-3.8-6.9-8.6c0-4.8,3.1-8.6,6.9-8.6
			C213.2,352.1,212.2,355.9,212.2,360.7z"/>
		<path fill="#5D5D5D" d="M170,371.2c0,0,0-4.7,0-5.7c0-0.9-7.4-8.6-10.1-14.9c-2.7-6.2-2.7-7.8-2.7-7.8c0-1-0.6-0.3-0.1,1
			c0.4,1.4,1.6,4.4,2.8,9.2c1.3,4.8,1.6,17.9,5.5,17.9C169.1,371.2,170,371.2,170,371.2z"/>
		<path fill="#5D5D5D" d="M163.3,371.2c0,0-2.1-2.5-2.8-7.1s-3.4-10.8-3.4-6.9c0,4-0.7,13,2.6,14
			C163.1,372.2,163.3,371.2,163.3,371.2z"/>
		<path fill="#5D5D5D" d="M243.5,281.1c-4.8,0.3-12.6,4.7-18.7,10.2c-5.7,5.1-11.1,11.9-13.9,19.3c-0.9,2.3-3,6.5-6.4,8.1
			c-5,2.3-9.2,5-11.8,9.6c-2.6,4.5-2.4,7.4-0.6,3.5c1.8-3.7,6.2-6.1,9.5-3.3c3.3,2.8,1.3,12.5-1.4,18.6c-2.7,6.1-7.1,11.5-9.5,15.6
			c-1.8,3.1-3,4.5-3.8,5.4c-1,0.9-1.6,1.1-1,1c0.6-0.1,3-1.1,4.8-2.8c3.1-2.6,6.4-8.5,11.2-17.7c2.8-5.4,6.9-18.1,8.4-27.6
			c2-14.3,9.2-23.8,15.4-29.3c5.1-4.5,10.2-7.8,14.9-9.4C242.4,281.7,245.6,281,243.5,281.1z"/>
		<path fill="#5D5D5D" d="M139.1,371.1h11.3c0,0,0-2.3,0-4.1c0-1.7-1.1-3.8-5.4-5c-4.3-1-10.1-10.1-10.1-20c0-9.9,4.4-21,11.3-22.7
			c5-1.3,5.8-2.4,6.1-2.5c0.4-0.3,0.3-0.4-0.3,0c-0.8,0.6-3.1,1.3-5.9,2.1c-4.1,1.4-13.3,6.8-13.3,23.2
			C132.9,358.7,139.1,371.1,139.1,371.1z"/>
		<path fill="#5D5D5D" d="M138.4,370.9c0,0-3.8-5.9-5.5-8.4c-1.6-2.4-4.7-6-4.7,0.4s0.3,6.7,2.1,7.1
			C132.3,370.8,140.1,374.2,138.4,370.9z"/>
		<path fill="#5D5D5D" d="M150.4,319.6c-7.9,0.4-11.3,6.4-13.3,12c-1.8,5.7-0.1,17.1,4,24.5c4.1,7.4,4.3,3,4.3,3v-5.7
			c0,0-11.1-8.1-7.4-21.1c3.7-13.2,12.6-12.2,12.6-12.2c3.7,0,7.5,0.9,7.5,5.8c0,5.7,2,4.5,5.7,5.8c3.7,1.3,4,1.6,1.1-1.7
			C161.9,327,158.1,319.1,150.4,319.6z"/>
		<path fill="#5D5D5D" d="M133,331.1c0,4.3,0,5.8,0.4,3.1c0.4-2.7,1.1-8.4,8.4-13.6c4.3-3.1,5-5.4-1.1-6.5c-2.8-0.4-4.8,2.7-5.7,4.7
			C133.2,322.9,133,328.4,133,331.1z"/>
		<path fill="#5D5D5D" d="M133.3,328.6"/>
		<g>
			<path fill="#5D5D5D" d="M136.4,314.3c-0.3,0-0.7,0.1-1,0.1c-1.1,0-1.4-0.1-3.8,0c-2.3,0.1-2.4,0.3-2.6,4.4
				c-0.1,4.1,0.7-3.1,2.6-3.3c1.3-0.1,3.1,0,4-0.1c0.9-0.1,0.4,0-0.1,0.7c-1,0.9-2.6,3.3-4.3,7.6c-1.7,4.1-3.4,2.3-3.1-3.5
				c0.1-5.8,0.3-6.1,3.4-6.2c3.1-0.1,3.5,0.1,5.1,0C137.1,314,137.6,314.1,136.4,314.3z"/>
			<path fill="#5D5D5D" d="M153.4,314.7c-2,0.6-4.7,0.3-7.8-0.6c-1.3-0.4-2.8-0.4-4.1-0.3c-0.6,0,0,0.1,0.1,0.1
				c1.3,0.1,3,0.9,4.1,1.6c1.7,1.3,4.5,2.4,6.5,0.9c2.1-1.6,3.3-2.3,3.3-2.3S155.4,314.1,153.4,314.7z"/>
		</g>
		<path fill="#5D5D5D" d="M147.3,321.2c-4.1,2-9.1,7.2-9.1,14.2c0,6.9,3.8,12.9,7.4,16.4c0,0-0.1-3.3,0-8.5c0-5.2-6.9,0.6-6.9-7.6
			c0.1-8.2,6.1-12.8,9.2-13.6c1.7-0.4,3.4-1.4,2.6-1.4C149.5,320.6,148.5,320.6,147.3,321.2z"/>
		<path fill="#5D5D5D" d="M148.2,319.1c2.1-0.7,3.1-1.1,5.7-3s4.4-2.5,5.1-0.9c0.7,1.7,0.3,5.4,2.1,8.4c1.8,3.1,0.8,1.8-1.8-1.3
			c-2.7-3-4.5-4.3-8.5-3.5C146.6,319.6,145.8,319.9,148.2,319.1z"/>
		<path fill="#5D5D5D" d="M213.5,372.1c4.3-1.4,14.7-3.5,16.9-14c2.1-10.5,4.4-9.1,8.1-14.3c3.5-5.2,3.8-6,0,4.7
			c-4.3,11.6-0.6,19.8-19.3,23C208.3,373.2,211.4,372.8,213.5,372.1z"/>
		<path fill="#5D5D5D" d="M251.5,351.5c4.4,9.2,9.4,5.5,14.3,10.9c1.8,2,3.3,3.7,4.5,5c2.6,2.5,1.8-0.1,2.6,0.6
			c1.6,1.4,4.4,4.7,6.7,6.7c2,1.6,7.4,5.2,6.9,5.4c-0.7,0.4-10.1-4.8-16.6-11.6c-10.5-10.6-14.9,0.7-21.4-10.8
			c-4.5-7.9-3.7-14-3.7-18.3c0-2.7,0.3-4,0.9-5.5c0.6-1.6-0.1,1.4,0.1,4C246.1,339.5,248.3,345,251.5,351.5z"/>
		<path fill="#5D5D5D" d="M254.4,347c1.6,2.1,5.9,9.2,7.8,11.2c1.8,2.1-1.4,0-2.8-0.3c-1.6-0.4-2.1-2.5-3.4-5.8
			c-1.3-3.3-1.7-3.8-2.6-5.7C252.4,344.4,253.3,345.6,254.4,347z"/>
		<path fill="#5D5D5D" d="M253,372.9c-4-2.1-8.5-3.3-16-2.4c-7.5,0.7-17.4,1.1-13.5,0.4c3.1-0.6,7.8-0.9,10.3-5.5s2.3-6.1,3.7-5
			c2.7,2.1,8.5,7.1,17.1,11.6c5.9,3.1,9.2,0.4,11.2,0c2-0.4,4,1.6,7.1,4.1c3.3,2.7,6.8,5,0.3,1.6C268.2,375.2,258.3,375.7,253,372.9
			z"/>
		<path fill="#5D5D5D" d="M303.6,370.9c-8.2,0-25.9-2.3-29.8-22.4c-4-20.1,11.9-26.4,15.6-24.1c3.7,2.3,7.9,0.4,12,0.4
			c5.9,0.1,10.5,4.3,10.5,4.3s-4-2.8-10.8-3.4c-7.5-0.6-22.7,5.2-22.7,22.2c0,16.9,18.4,21.1,25.5,21.1c17.7,0,32-15.6,36.1-35.1
			c3.1-14.6,9.9-23.8,11.9-22.9c0.7,0.3-1.1,0.7-1.1,6.5c0,4.5-4,5.5-7.4,16.4C339.7,346.8,324.1,370.9,303.6,370.9z"/>
		<path fill="#5D5D5D" d="M289.4,332.1c-1.8,2.4-4.1,6.2,0.4,6.2s20.4-1.8,20.3,4.1c-0.1,5.9-4.4,17.4-0.1,15.7
			c4.4-1.7,6.9-3.5,8.9-6.2c1.8-2.6,2-2.6,0.7,0.1c-1.3,2.8-7.1,10.3-12.8,12c-5.7,1.7,1.6-15.6-0.4-20.4c-2-4.8-8.1-5-16.4-4.7
			c-8.4,0.4-8.9-3.3-3.7-7.4c5.4-4.1,9.4-5,10.6-5.2C298.2,326.4,292.7,328,289.4,332.1z"/>
		<path fill="#5D5D5D" d="M306,338.2c3.3,0.6,6.5,2.1,6.5,4.4c0,2.4-2.8,6.4-0.1,6.4c2.7-0.1,1.7,5.7,1,6.9
			c-0.9,1.3,2.8-0.9,5.2-4.3c3.1-4.4,0.3-10.3-5.8-12.6C306.7,336.9,300.8,337.4,306,338.2z"/>
		<path fill="#5D5D5D" d="M314.1,338.1h10.8v16.9c0,0-0.6,2-0.9-1.4c-0.1-3.4,0.3-9.5-6.5-13C310.7,336.8,309.5,337.9,314.1,338.1z"
			/>
		<path fill="#5D5D5D" d="M320,344.4c0.9,1.7,2.7,5.4-0.4,10.8s-11.5,14-23.8,11.2c-12.3-2.8-5.5-1.1,0.1,0.7s17.4,2.7,30-7.8
			c4.3-3.5,5.7-6.2,6-6.7c0.3-0.4-1.3,2.4-6.8,5.1c-3.5,1.7-2.1,0.6-1.7-4.1c0.4-4.7-0.7-7.5-3-10.2c-2.3-2.7-5-3.4-5-3.4
			S318.8,342.2,320,344.4z"/>
		<path fill="#5D5D5D" d="M277.9,327.7c3.3-3.1,7.2-6,11.1-6.5c3.8-0.6,7.1-5.4,13.9-5.5c6.2-0.1,10.5,1,15.2,3.5
			c3,1.6,1.4,0.3,0.7-0.1c-2.7-1.8-7.4-4.7-16.1-4.7s-18.8,3.1-24.9,13C276.4,329.3,276.4,329.1,277.9,327.7z"/>
		<path fill="#5D5D5D" d="M291.5,356.9c-4.3-3.5-8.9-8.5-1.3-8.1c7.5,0.4,13.2,0.1,12.8,6.7c-0.6,6.7-3.7,8.5-10.3,6.7
			c-6.8-1.8-10.9-6.8-11.9-13c-1-6.2-1.1-5.9-1.1,0c0,6,4.5,13.3,13.6,15.6c8.9,2.3,10.9,1.6,11.8-7.4c0.9-8.9,2.5-12.6-3.5-11.8
			c-6.1,0.9-7.6,2.7-12.3,2.3c-4.7-0.4-6.9-0.4-3.4,4.5c3.4,4.8,5.5,5.5,8.9,6.8C297.8,360.3,293.8,358.7,291.5,356.9z"/>
		<path fill="#5D5D5D" d="M329.5,319.8c1.1-3.1,6.7-1.3,11.2-6c4.5-4.7,3-3,0.9,0.4c-2.1,3.4-3.1,5.2-6.1,7.6
			c-3,2.4-1.3,4.5-4.3,4.5C328.1,326.6,328.4,322.8,329.5,319.8z"/>
		<path fill="#5D5D5D" d="M346.7,329.3c-1,2.1-3.4,10.9-6.7,15.7c-3.3,4.8-5.5,9.2-5.7,12.9c0,1.4-0.4,2.4-0.3,2.7
			c0,0.3,0.6-1.1,0.9-2.5c1.3-4.7,6.5-8.5,7.8-13.5c1.3-5,3.5-13,4.4-14.7C347.9,328.1,347.1,328.4,346.7,329.3z"/>
		<path fill="#5D5D5D" d="M329.9,370.8c3-1.3,13.3-4.8,17.4-8.5c2.3-2,3.5-2.6,3.5-0.7s-0.1,9.5-0.1,9.5s-19.1,0.1-20.8,0.1
			C328.2,371.2,328.2,371.5,329.9,370.8z"/>
		<path fill="#5D5D5D" d="M320.9,373.5c5.7-2.1,24.1-10.9,27.9-13.3c3.8-2.4,0-1.8-3.1-0.4c-3.1,1.3-13.9,8.6-25.5,13
			c-15.3,6-30.5-2.4-32.6-3.8c-2.1-1.3-1.8-0.7-0.1,0.6C288.9,370.8,300.5,381,320.9,373.5z"/>
		<path fill="#5D5D5D" d="M330.8,366.5c2.8-1.4,15.6-7.6,15.6-14.2c-0.1-6.5-0.3-15.3-0.1-17c0.1-1.7,0.7-4.7-0.1-1.6
			s-2.1,9.8-2.6,14.6c-0.4,4.8-6.9,5.7-8.1,10.5c-1,3.7-2.8,6-4.7,6.9C328.8,366.8,324.1,369.9,330.8,366.5z"/>
		<path fill="#5D5D5D" d="M378.7,310.7c6,4.5,11.5,11.3,15.3,17c2,3,3.1,4.5,4.1,6.8c1,2.1,1.4,2.8-0.1,0.7
			c-1.6-2.1-3.7-2.4-5.8-7.8c-2.1-5.2-8.9-9.6-12.5-10.2c-1.8-0.3-1.6-1.8-2.1-3.8c-0.6-2.1-2.1-3.8-3.3-4.8c-1.1-1-1.4-2,0.4-0.7
			C376.8,309.2,378.7,310.7,378.7,310.7z"/>
		<path fill="#5D5D5D" d="M400.4,347.8c-0.3-5.2-3.5-10.1-8.6-13.7c-5.1-3.7-13.9-13.2-13-14.9c0.9-1.7,7.5,1,10.5,5.9
			c3.1,5,3.5,9.1,7.1,10.6c3.7,1.6,5.2,7.1,4.7,12.5C400.4,353.6,400.5,350.5,400.4,347.8z"/>
		<path fill="#5D5D5D" d="M384.9,348c-0.1-1.3,0.6-4.1,3.8-1c3.3,3.1,3.3,6,5.2,11.2c2,5.2,4,8.1,5.7,8.8c1.7,0.7,0.9,0.7-0.3,0.3
			c-1.1-0.4-6.2-4-7.5-9.4c-1.1-5.4-1.8-7.4-3.4-7.4C386.9,350.4,384.9,349.1,384.9,348z"/>
		<path fill="#5D5D5D" d="M393.4,354.1c0.7,1.6,2.7,7.6,4.7,10.3c2,2.7,0.4,0,0.1-1.4c-0.3-1.4,0.6-5.8-1-6.4
			c-1.6-0.6-2.8-2.4-4-3.8C392.3,351.4,392.3,351.7,393.4,354.1z"/>
		<path fill="#5D5D5D" d="M377.5,345.1c-3.1-4.8-5.2-8.9-8.5-11.3c-3.4-2.3-6.1-3.3,0.1-1.8c6.2,1.4,9.6,2.1,9.6,4.1
			c0,2.1-0.9,6.9,0.4,10.3C380.4,350,379,347.4,377.5,345.1z"/>
		<path fill="#5D5D5D" d="M381.8,370.9h11.5c0,0-21.7-28-22.8-29.3c-1.1-1.3,1-5.2-2.5-7.5c-3.7-2.3-6.8-3.1-9.1-7.2
			c-1-1.8-1.6-5.4-1.6-5c0,0.4,0.4,4.5,1,5.9c1.1,2.7,7.2,8.6,8.6,12.6c1.4,3.8,7.2,7.5,14,16.7c6.8,9.2,6.9,10.9,4.4,11.8
			C382.6,369.8,376.4,370.2,381.8,370.9z"/>
		<path fill="#5D5D5D" d="M384.5,367.9c-2.3,1.4-6.9,1.8-10.9-3.5c-3.8-5.4-6.5-8.8-8.9-18.7c-2.4-9.9-4.7-12.9-5.1-7.6
			c-0.4,5.2-0.4,12.9-0.4,16.7c0,3.8-0.4,4.1-1-0.7c-0.7-5-1-12.3-0.3-17.7s2-5.1,6.1,1.4c4.1,6.5,3.7,8.4,4.4,11.9
			c0.7,3.5,3.1,10.6,6,14.2c2.8,3.5,6.7,4.3,9.1,3.3c2.4-1-0.6-6-5.2-10.2c-4.7-4.3-7.8-8.1-8.9-10.3c-1.1-2.3-1-2.1,0.9,0.1
			c2,2.3,5.2,5.4,8.8,9.4C382.6,359.7,387.6,366,384.5,367.9z"/>
		<path fill="#5D5D5D" d="M407.3,350.9c-4-18.3-8.8-23.9-10.5-26.2c-1.7-2.3-1.7-6.2-1.7-7.9c0-3.3,2.3-2.6,3.7-1
			c1.6,1.7,6.8,12.9,8.2,24.9C408.4,352.6,407.3,350.9,407.3,350.9z"/>
		<path fill="#5D5D5D" d="M395.8,304.9c-0.3,0-0.4,0.1-0.7,0.1c-0.1,0-0.3,0-0.4,0l0.1,0.1c1.3,1.6,1.8,6.4,4.4,8.9
			c0.6,0.6,3.4,4.5,5.2,11.6c1.6,6.2-0.1,2.4-0.1,2.4l-0.1,3.5l3.4,13c0,0,0.3-19.1,0.3-23.1C407.7,317.2,402.5,309.4,395.8,304.9z"
			/>
		<path fill="#5D5D5D" d="M360.8,340.5c-0.1,3.1-0.1,17.3-1.8,22.1c-0.9,2.3-0.4,7.1-0.4,7.9c0,0.9,0,1.1,3.8,0.4
			c3.8-0.7,7.4,0.1,8.1,0.4c0.7,0.3,0.3-1.6-1-2.8c-1.3-1.3-6.2-7.6-6.9-18C361.7,340,361,336.2,360.8,340.5z"/>
		<path fill="#5D5D5D" d="M362.4,342.9c0.4,2.7,2.3,17,4.5,21c2.3,4,3.4,3.8,3.4,0.4s-2-4.7-3.3-7.8c-1.3-3-3.8-10.8-4.3-13.6
			C362.2,339.9,362.1,341.3,362.4,342.9z"/>
		<path fill="#5D5D5D" d="M369.2,350.1c0.6,2,3.1,9.2,4.8,11.8c3,4.4,5.4,4.1,6.8,4.3c1.3,0.1,0.9-3-2.7-7.2
			c-3.5-4.1-7.2-7.5-8.4-10.1C368.6,346.3,368.9,348.5,369.2,350.1z"/>
		<path fill="#5D5D5D" d="M370.2,363.3c0,0-0.6-4.5,0.6-2.8c1.1,1.7,1.3,1.1,0-2.1s-4.3-6.8-3.7-5.1c0.6,1.8,0.1,3.5-0.9,1.1
			c-1.1-2.4-2.1-1.1-0.3,2.1C367.6,360,370.2,363.3,370.2,363.3z"/>
		<path fill="#5D5D5D" d="M393.7,323.6c0,0,3,2.3,1.7-2.8l3.4,6.8c0,0-1-1.4-1.1-0.6c-0.1,0.7,0.3,3.1,1.8,6.4c1.7,3.3,1.1,4,1.1,4
			L393.7,323.6z"/>
		<path fill="#5D5D5D" d="M413.8,349.4c0-15.9,10.9-33.6,26.4-33.6c15.4,0,15,4.7,15.9,7.1c0.9,2.6,1,3-4,3.1c-5.1,0.1-4.3-5-12.5-5
			c-8.2,0-24.9,11.2-24.9,28.9c0,17.9,9.2,19.3,13,19.7s3.3,1.1-2,1.1c-5.2,0-12.2,0.6-12.2-5.4
			C413.5,359.7,413.8,362.1,413.8,349.4z"/>
		<path fill="#5D5D5D" d="M415.6,337.9c0.6-2,2.5-10.6,0.7-7.8c-1.8,3-2.7,3.1-2.7-0.1c0-3.3,4.4-15.2,10.2-15.4s11.2-0.1,9.6,0.7
			c-1.6,1-12.5,3.4-13.9,10.2c-1.6,6.8,1,2.3,1,2.3l1.3,1.6L415.6,337.9z"/>
		<path fill="#5D5D5D" d="M455.3,370.5c0.3-0.4,0.9-0.7,1.4-0.9c-1.1-1.1-3.4-3-6.2-4.8c-5.5-3.7-11.9-4.1-19.5-4.7
			c-7.6-0.6-14.3-5-13.7-13.3c0.6-8.4,9.2-19.8,15.2-20.8s14.7,1.4,13.3-0.1c-1.6-1.6-6.4-5.2-14.3-1.3c-7.9,4-14.2,14.3-15.4,22.1
			c-1.3,7.6,3.1,20.1,19.1,23.4C449.2,373.2,452.6,370.4,455.3,370.5z"/>
		<path fill="#5D5D5D" d="M456.6,367.5c-3.3-3.8-9.2-6.8-16.9-7.2c-7.8-0.3-3.7-0.7,0.7-0.7c4.4-0.1,16.7-1.3,16.9,0.1
			c0.1,1.4-0.3,6,0.1,7.2C457.9,368.4,458.1,369.4,456.6,367.5z"/>
		<path fill="#5D5D5D" d="M431.4,358.9c-3,0-12.2-4.7-12.6-9.8c-0.6-5.1,5.2-6.9,12.9-8.1c7.6-1.1,15.2-1.8,17.6-3.5
			c2.3-1.8,1.1,0.7,0.7,2.3c-0.4,1.6-4,6.4-19.3,7.8c-15.3,1.4-3.8,8.8,0.9,9.9C436.2,358.6,439,359,431.4,358.9z"/>
		<path fill="#5D5D5D" d="M419.5,344.6c1.7-2.4,4.4-3.1,7.9-4c3.5-0.7,8.5-2,10.2-3c1.7-1-4.1-0.6-5.2-1.7c-1.4-1.4-1-5.2-0.3-7.2
			c0.6-1.8-4.7,1.6-8.1,5.2c-3.4,3.7-5.4,8.6-5.7,10.5C417.9,346.3,418.6,345.7,419.5,344.6z"/>
		<path fill="#5D5D5D" d="M432.6,348.7c2.3-0.3,13.7-2.1,16.3-5.1c2.5-3,1.1,0.4,1,2.7c-0.1,2.3-2.5,3-7.4,3.1
			c-4.8,0.1-9.4-0.1-10.5,0.1C431,349.7,430.4,349.1,432.6,348.7z"/>
		<path fill="#5D5D5D" d="M413.5,325.2c1.4-5,4.5-8.5,6.7-10.2c2.1-1.6-2,0.1-3.5,0.1c-1.6-0.1-3.4,0.7-3.4,2.7
			C413.2,319.8,413,326.9,413.5,325.2z"/>
		<path fill="#5D5D5D" d="M445,315.1c3.3,0.3,9.6,1.6,10.6,3.4c1.1,1.8,1-1.8,0.7-3.8c-0.1-1.8-2.7-0.1-5.8-0.1
			C447.5,314.4,442.3,314.8,445,315.1z"/>
		<path fill="#5D5D5D" d="M150,322.9c-3.4,1-9.8,3.1-10.6,11c-0.4,3.5,1.8,5,4,5s2,0.3,2-2.1s-5.2-4.4-3.7-7.6
			c1.6-3.3,3.4-3.3,6.1-3c2.7,0.1,2.6-0.9,2.4-1.8C150.2,323.5,150.6,322.8,150,322.9z"/>
		<path fill="#5D5D5D" d="M323.6,322.5c-4.7,2.5-8.4,3.3-16.3,1.3c-7.9-2.1-13.3-2.7-16.4-2c-3.1,0.9-5.7,1.4-0.7,1.4
			c4.8,0-0.3,2.1,4.7,1.6c5-0.6,9.4-2,13,0.1c3.7,2,6.5,6.9,11.5,3.1c5-3.8,7.8-9.2,11-10.3c3.3-1.1,1.3-1,0-0.4
			C328,318.2,325.8,321.3,323.6,322.5z"/>
		<path fill="#5D5D5D" d="M323.7,321.2c-1.4,0.6-3.8-0.1-6.7-1.8c-2.8-1.7-9.8-3.4-16-2.4s-6.7,3-9.4,3.8c-1.3,0.4-0.1,0.4,0.4,0.3
			c0.7,0,7.4-0.1,9.9-1.3c2.5-1,9.6-2.1,13.3,0.4c3.7,2.6,6.5,2.8,8.5,1.4c2-1.4,3.5-3.1,4.5-3.7c1-0.6,0.6-0.4-0.4-0.1
			C327.3,318.2,325.4,320.6,323.7,321.2z"/>
		<path fill="#5D5D5D" d="M259.3,354.1c-4.5-7.1-12.9-17.9-4.5-29.5c9.4-12.6,16-24.4,8.1-32.4c-10.5-10.6-29.5-6.7-45.3,12.9
			c-7.4,9.1-2.6,9.1-9.2,31.3c-2.1,6.9-3.5,10.1-3.8,10.9c-0.6,2,3.1-6.5,4.5-10.8c5.5-17.1,31-55.1,51.6-43.9
			c9.8,5.4,3.8,18.7-6.9,31.2c-10.2,11.9-7.1,15-1,28.6c1.3,2.8,4.5,4.5,6.2,5.2C261.7,358.7,260.7,356.5,259.3,354.1z"/>
		<path fill="#5D5D5D" d="M223.6,360.4c3.3-6.9,12-25.2,16.4-34.3c0.6-1.1,1.7,0,2.1-0.9c0.7-1.6,0.4-4.5,0.4-4.5
			c3-5.2,8.9-1.8,12.6-4.5c3.7-2.7,5.7-3.7,1.8,1c-3.4,4.3-11.2,13-14.2,17c-2.7,3.5-9.8,9.8-11.8,14.7c-1.4,3.4-1.1,10.8-5,14.9
			c-3.7,4.1-5.7,4.7-9.2,6.4C213.5,371.9,220.6,367,223.6,360.4z"/>
		<path fill="#5D5D5D" d="M242.7,361.3c5.5,5,10.9,4.8,16.1,3.5c5.4-1.3,8.5,2.1,9.9,3.5c1.6,1.4,0.7,0.9-2-0.1
			c-2.7-1-2.3,3.4-7.8,3.3c-5.5-0.1-15.6-7.2-19.8-11.5c-1.6-1.6-2.7-3.3-0.1-10.8c2.7-7.5,3.7-12.8,1.1-9.6c-2.6,3.1-1.8,1.7,0.3-1
			s6.4-8.4,5.5-6.9c-0.9,1.6-2.1,4.1-2.4,9.4c-0.3,5,2.3,18.4-0.6,17.6C240.6,357.9,240.6,359.4,242.7,361.3z"/>
		<g>
			<path fill="#5D5D5D" d="M275.4,365.5c-6.4-8.4-15.4-25.4-13.6-35.3c-0.6-0.1-2.7,2.8-2.1,8.5c0.6,5.7,2.3,11.9,6.1,18.3v0.1
				c11.5,16.9,22.4,23.7,30.6,26.4h4.1C293.7,382,284.8,377.9,275.4,365.5z"/>
			<path fill="#5D5D5D" d="M360.4,357C360.8,355.6,361,354.9,360.4,357L360.4,357z"/>
			<path fill="#5D5D5D" d="M359.3,361.3L359.3,361.3L359.3,361.3z"/>
			<path fill="#5D5D5D" d="M359.3,361.1c0-0.3,0.1-0.4,0.1-0.7C359.4,360.9,359.3,361.1,359.3,361.1z"/>
			<path fill="#5D5D5D" d="M270.3,370.6c-1.1-0.7-3.1-1.8-4.5-1.6c-0.9,0.1-1.1,1.6-1.8,2.1c-0.6,0.6,0.9,0,1.3-0.3
				c1-0.6,2.3-0.7,3.1,0.1c1.8,2.1,8.8,8.1,19,12.3h4.7C280.1,379.6,277.8,375,270.3,370.6z"/>
			<path fill="#5D5D5D" d="M359.3,361.3c-2.5,9.4-17.1,18.1-33.4,22.1h8.8c15.6-5,25.8-12.3,25.8-12.3L359.3,361.3z"/>
			<path fill="#5D5D5D" d="M359.4,360.6C359.4,360.6,359.4,360.4,359.4,360.6C359.4,360.4,359.4,360.6,359.4,360.6z"/>
			<path fill="#5D5D5D" d="M360.1,357.9c0-0.1,0.1-0.4,0.1-0.6C360.3,357.5,360.3,357.8,360.1,357.9z"/>
			<path fill="#5D5D5D" d="M359.4,360.4c0.1-0.3,0.1-0.6,0.1-0.7C359.5,360,359.5,360.3,359.4,360.4z"/>
			<path fill="#5D5D5D" d="M360.3,357.3c0-0.1,0-0.3,0.1-0.3C360.4,357.2,360.4,357.2,360.3,357.3z"/>
			<path fill="#5D5D5D" d="M360,358.5c0-0.3,0.1-0.4,0.1-0.6C360.1,358,360.1,358.3,360,358.5z"/>
			<path fill="#5D5D5D" d="M359.7,359.7c0.1-0.4,0.1-0.9,0.3-1.1C359.8,358.9,359.8,359.3,359.7,359.7z"/>
		</g>
	</g>
	<g>
		<line fill="#5D5D5D" x1="238.1" y1="421.1" x2="353.6" y2="421.1"/>
		<path fill="#5D5D5D" d="M353.6,421.9H238.1c-0.4,0-0.9-0.4-0.9-0.9c0-0.4,0.4-0.9,0.9-0.9h115.5c0.4,0,0.9,0.4,0.9,0.9
			C354.4,421.6,354,421.9,353.6,421.9z"/>
	</g>
	<g>
		<line fill="#5D5D5D" x1="220" y1="384.1" x2="369.3" y2="384.1"/>
		<path fill="#5D5D5D" d="M369.3,384.9H220c-0.4,0-0.9-0.4-0.9-0.9c0-0.4,0.4-0.9,0.9-0.9h149.5c0.4,0,0.9,0.4,0.9,0.9
			C370.3,384.5,369.9,384.9,369.3,384.9z"/>
	</g>
	<g>
		<g>
			<g>
				<path fill="#5D5D5D" d="M212.5,399.1c-2.4-0.4-3-0.9-3-1.6l0,0c0-0.6,0.6-1.3,1.6-1.3c2.1,0,4.3,0.7,5.4,2.5l5-4
					c-2.6-2.1-5.8-4.5-10.1-4.5c-6.1,0-9.5,3.4-9.5,7.8l0,0c0,1.8,0.6,3.1,1.6,4.1h16.4C218.3,400.7,216,399.8,212.5,399.1z"/>
			</g>
			<rect x="216.5" y="390.8" fill="#5D5D5D" width="5" height="8.1"/>
			<g>
				<path fill="#5D5D5D" d="M210.8,405.9c2.4,0.4,3,0.9,3,1.6l0,0c0,0.6-0.6,1.3-1.6,1.3c-2.1,0-4.3-0.7-5.4-2.6l-5,4
					c2.6,2.1,5.8,4.5,10.1,4.5c6.1,0,9.5-3.4,9.5-7.8l0,0c0-1.8-0.6-3.1-1.6-4.1h-16.4C205,404.2,207.3,405.2,210.8,405.9z"/>
			</g>
			<rect x="201.9" y="406.1" fill="#5D5D5D" width="5" height="8.1"/>
		</g>
		<g>
			<path fill="#5D5D5D" d="M365.4,390.6h7.4l9.4,23.4H374l-1.1-3.1h-7.8l-1.1,3.1H356L365.4,390.6z M371,405.5l-2-5.7l-2,5.7H371z"
				/>
			<rect x="360.8" y="390.6" fill="#5D5D5D" width="10.8" height="6.4"/>
			<rect x="374.4" y="407.8" fill="#5D5D5D" width="8.1" height="6.4"/>
		</g>
		<g>
			<path fill="#5D5D5D" d="M315.1,390.9h19v6.4h-11.8v3.1h7.6v4.5h-7.6v2.8h11.9v6.4h-19.3v-23.2H315.1z"/>
			<rect x="313.2" y="390.9" fill="#5D5D5D" width="10.8" height="6.4"/>
			<rect x="328.2" y="390.9" fill="#5D5D5D" width="6.1" height="7.6"/>
			<rect x="328.2" y="406.5" fill="#5D5D5D" width="6.1" height="7.6"/>
			<rect x="313.2" y="407.8" fill="#5D5D5D" width="10.8" height="6.4"/>
		</g>
		<g>
			<path fill="#5D5D5D" d="M406.6,390.9h7.5v16.6h10.5v6.7h-18V390.9z"/>
			<rect x="418.3" y="406.5" fill="#5D5D5D" width="6.1" height="7.6"/>
			<rect x="404.9" y="390.8" fill="#5D5D5D" width="7.8" height="6.5"/>
		</g>
		<g>
			<path fill="#5D5D5D" d="M165.9,390.9h7.5v23.2h-7.5V390.9z"/>
			<rect x="164.1" y="390.8" fill="#5D5D5D" width="10.8" height="6.5"/>
			<rect x="164.1" y="407.6" fill="#5D5D5D" width="10.8" height="6.5"/>
		</g>
		<g>
			<path fill="#5D5D5D" d="M268.5,390.9h10.9c4,0,6.5,1,8.1,2.7c1.3,1.4,2,3.1,2,5.5l0,0c0,3.4-1.7,5.8-4.4,7.1l5.2,7.9h-8.5
				l-4.3-6.7l-1.6-2.8v2.8v6.7h-7.5L268.5,390.9L268.5,390.9z M279.1,401.9c1.8,0,2.8-0.9,2.8-2.3l0,0c0-1.6-1.1-2.3-2.8-2.3h-3.3
				v4.5L279.1,401.9L279.1,401.9z"/>
			<rect x="266.5" y="390.8" fill="#5D5D5D" width="10.8" height="6.5"/>
			<rect x="266.5" y="408.5" fill="#5D5D5D" width="8.4" height="5.7"/>
		</g>
	</g>
	<g>
		<path fill="#5D5D5D" d="M279.8,294.6h-5.4v5.2h5.4v-0.4h0.4v0.9h-6.8v-0.6h0.4v-10.8h-0.4v-0.4h6.8v0.9h-0.4v-0.4h-5.4v5.1h5.4
			v-0.4h0.4v1.3h-0.4V294.6z"/>
		<path fill="#5D5D5D" d="M282.1,288.6h1l4.5,10.8l4.5-10.8h1v0.4h-0.6l-4.7,11.1h-0.3l-4.7-11.1h-0.6v-0.4H282.1z"/>
		<path fill="#5D5D5D" d="M301.2,294.6h-5.4v5.2h5.4v-0.4h0.4v0.9h-6.8v-0.6h0.4v-10.8h-0.4v-0.4h6.8v0.9h-0.4v-0.4h-5.4v5.1h5.4
			v-0.4h0.4v1.3h-0.4V294.6z"/>
		<path fill="#5D5D5D" d="M307.6,295.4h0.3c0.9,0,2.3,0,3-0.7c0.7-0.7,1-1.6,1-2.4c0-1-0.4-2.1-1.4-2.7c-0.7-0.4-1.6-0.4-2.8-0.4
			h-2.1v11h-0.9v-0.6h0.4v-10.8h-0.4v-0.4h3.1c1.8,0,2.6,0.1,3.1,0.4c1,0.4,1.7,1.7,1.7,3.1c0,0.7-0.1,1.6-0.7,2.4
			c-0.9,1.1-1.8,1.3-3.1,1.3l2.8,4h0.7v0.4h-1L307.6,295.4z"/>
		<path fill="#5D5D5D" d="M313.2,288.6h1l3.5,7.1l3.5-7.1h1v0.4h-0.7l-3.7,7.1v3.5h0.4v0.4H317v-0.4h0.4v-3.5l-3.7-7.1h-0.7v-0.4
			H313.2z"/>
		<path fill="#5D5D5D" d="M327.1,299.7h0.4v-10.8h-2.7v0.4h-0.4v-0.9h6.8v0.9h-0.4v-0.4h-2.7v10.8h0.4v0.4h-1.3v-0.4H327.1z"/>
		<path fill="#5D5D5D" d="M340.1,299.7h0.4v-5.2H334v5.2h0.4v0.4h-1.3v-0.4h0.4v-10.8h-0.4v-0.4h1.3v0.4H334v5.1h6.5v-5.1h-0.4v-0.4
			h1.3v0.4H341v10.8h0.4v0.4h-1.3V299.7z"/>
		<path fill="#5D5D5D" d="M345.2,299.7h0.4v0.4h-1.4v-0.4h0.4v-10.8h-0.4v-0.4h1.3v0.4h-0.4v10.8H345.2z"/>
		<path fill="#5D5D5D" d="M348.4,288.6h1.1l7.9,10.9v-10.9h0.9v0.4h-0.4v11.1h-0.6l-8.1-11.1v10.6h0.4v0.4h-1.3v-0.4h0.4v-10.8h-0.4
			L348.4,288.6L348.4,288.6z"/>
		<path fill="#5D5D5D" d="M371.7,291.2c-0.4-0.6-1-1.1-1.6-1.4c-0.9-0.6-2-0.9-3.1-0.9c-3.1,0-5.5,2.4-5.5,5.5
			c0,3.3,2.4,5.5,5.5,5.5c1.4,0,2.7-0.6,3.7-1.3c1-0.9,1.7-1.8,1.8-3h-6.2v-0.4h6.8c0,0.6-0.3,1.1-0.6,1.7c-1,2-3.1,3.4-5.7,3.4
			c-3.3,0-6-2.5-6-5.9s2.7-6,6-6c2.1,0,4.3,1,5.2,2.7L371.7,291.2L371.7,291.2z"/>
		<path fill="#5D5D5D" d="M379.4,288.6h1l3.5,7.1l3.5-7.1h1v0.4h-0.7l-3.7,7.1v3.5h0.4v0.4h-1.3v-0.4h0.4v-3.5l-3.7-7.1h-0.7v-0.4
			H379.4z"/>
		<path fill="#5D5D5D" d="M389.2,294.3c0-3.4,2.7-6,6-6c3.3,0,6,2.6,6,6s-2.7,5.9-6,5.9C391.9,300.4,389.2,297.8,389.2,294.3
			L389.2,294.3z M389.6,294.4c0,3.1,2.4,5.5,5.5,5.5c3.1,0,5.5-2.4,5.5-5.5c0-3.3-2.4-5.5-5.5-5.5
			C392,288.8,389.6,291.2,389.6,294.4L389.6,294.4z"/>
		<path fill="#5D5D5D" d="M403.8,288.6h0.9v7.5c0,1.1,0,1.8,0.7,2.8c0.6,0.7,1.4,1,2.4,1c0.9,0,1.8-0.4,2.3-1c0.7-1,0.7-1.7,0.7-2.8
			v-7.5h0.9v0.4h-0.4v7.1c0,1,0,2.5-1.4,3.5c-0.6,0.4-1.4,0.7-2.1,0.7c-0.9,0-1.6-0.3-2.1-0.7c-1.4-1-1.4-2.5-1.4-3.5V289h-0.3
			V288.6z"/>
		<path fill="#5D5D5D" d="M430,297.5c-0.9,1.3-2.5,2.7-5.1,2.7c-3.3,0-6-2.5-6-5.9s2.7-6,6-6c2.4,0,4.3,1.4,5.1,2.8h-0.6
			c-0.4-0.6-2-2.4-4.5-2.4c-3.1,0-5.5,2.4-5.5,5.5c0,3.3,2.4,5.5,5.5,5.5c2.7,0,4.1-1.8,4.5-2.3L430,297.5L430,297.5z"/>
		<path fill="#5D5D5D" d="M430.4,299.7h0.6l4.8-11h0.6l4.8,11h0.6v0.4h-0.9l-1.7-4h-6.1l-1.7,4h-0.9v-0.4H430.4z M435.9,289
			l-2.8,6.7h5.7L435.9,289z"/>
		<path fill="#5D5D5D" d="M443.3,288.6h1.1l7.9,10.9v-10.9h0.9v0.4h-0.4v11.1h-0.6l-8.1-11.1v10.6h0.4v0.4h-1.3v-0.4h0.4v-10.8h-0.4
			V288.6z"/>
	</g>
	<g>
		<line fill="#5D5D5D" x1="322.6" y1="283.5" x2="423" y2="283.5"/>
		<path fill="#5D5D5D" d="M423,283.8H322.7c-0.1,0-0.4-0.1-0.4-0.4s0.1-0.4,0.4-0.4H423c0.1,0,0.4,0.1,0.4,0.4
			S423.2,283.8,423,283.8z"/>
	</g>
	<path fill="#5D5D5D" d="M375.8,332c0,0-10.3-2.7-11.5-3.1c-1.1-0.4-1-6.5-2.8-10.1c-2.8-5.9-6.2-8.8-8.6-9.6
		c-1.7-0.6-3.3-0.1-4,0.4c-1,0.6-1.4,0.9-0.4,0c1.4-1.3,7.9-3.4,15.6,8.5c5.2,8.1,10.6,12.6,11.8,13.5
		C377,332.1,377,332.3,375.8,332z"/>
	<path fill="#5D5D5D" d="M351.2,309.2c0.7,0,2.7,0.6,4.3,2c2.7,2.4,4.8,6.8,5.8,11.2c1.6,6.9,2.3,7.2,3.8,7.8s0.3,0.9-2.1-0.1
		c-2.4-0.9-4.3-4.8-4.8-8.4c-0.4-3.5-1.8-9.1-3.3-10.2c-1.3-1.3-3-1.8-4.1-1.8C349.9,309.6,349.8,309.2,351.2,309.2z"/>
	<path fill="#5D5D5D" d="M168.7,333.5"/>
	<path fill="#5D5D5D" d="M401.2,305.3H296.4c-0.1,0-0.4-0.1-0.4-0.4s0.1-0.4,0.4-0.4h104.8c0.1,0,0.4,0.1,0.4,0.4
		S401.5,305.3,401.2,305.3z"/>
</g>
</svg>
