<?xml version="1.0" encoding="utf-8"?>
<!-- Generator: Adobe Illustrator 16.0.0, SVG Export Plug-In . SVG Version: 6.00 Build 0)  -->
<!DOCTYPE svg PUBLIC "-//W3C//DTD SVG 1.1//EN" "http://www.w3.org/Graphics/SVG/1.1/DTD/svg11.dtd">
<svg version="1.1" xmlns="http://www.w3.org/2000/svg" xmlns:xlink="http://www.w3.org/1999/xlink" x="0px" y="0px" width="1024px"
	 height="768px" viewBox="0 0 1024 768" enable-background="new 0 0 1024 768" xml:space="preserve">
<g id="Layer_5">
	<path fill="#D8D8D8" d="M860.229,578.431c-6.351,2.507-9.724,10.222-10.566,16.571c-0.05,0.322,0.446,0.396,0.496,0.074
		c0.817-6.152,4.093-13.743,10.27-16.174C860.726,578.778,860.527,578.332,860.229,578.431z"/>
	<path fill="#D8D8D8" d="M862.04,581.085c-2.158,1.612-3.423,3.746-4.291,6.276c-0.942,2.729-1.464,5.53-3.2,7.913
		c-0.198,0.248,0.198,0.569,0.396,0.298c3.226-4.465,2.68-10.594,7.393-14.09C862.586,581.284,862.288,580.887,862.04,581.085z"/>
	<path fill="#D8D8D8" d="M865.811,584.757c-3.547,1.688-4.589,5.531-4.612,9.178c0,0.323,0.496,0.248,0.496-0.049
		c0.023-3.424,0.991-7.095,4.315-8.683C866.282,585.079,866.108,584.633,865.811,584.757z"/>
	<path fill="#D8D8D8" d="M487.839,733.842c-29.768-10.69-62.188-4.563-92.85-2.555c-15.504,1.017-31.306,1.141-46.512-2.506
		c-1.885-0.446-3.746-0.967-5.606-1.562c-0.868-0.272-1.736-0.569-2.58-0.868c-0.149-0.05-1.116-0.272-1.091-0.521
		c0.049-0.446,0.124-0.868,0.198-1.314c0.471-2.679,1.563-5.185,3.076-7.44c2.952-4.366,7.466-7.417,11.907-10.071
		c8.459-5.061,18.704-8.979,24.434-17.438c0.075-0.1,0.075-0.272-0.049-0.348c-5.383-3.672-11.535-6.053-17.737-7.987
		c-6.921-2.158-14.015-3.745-21.085-5.333c-7.07-1.589-14.165-3.126-21.061-5.31c-3.15-0.992-6.227-2.258-9.377-3.299
		c-3.398-1.143-6.822-2.158-10.27-3.176c-13.842-4.094-28.701-7.665-40.657-16.148c-0.174-0.124-1.762-1.166-1.613-1.364
		c0.472-0.596,0.943-1.166,1.414-1.735c1.141-1.364,2.307-2.681,3.498-3.971c2.481-2.753,4.986-5.457,7.417-8.284
		c4.217-4.911,8.658-10.469,10.195-16.918c0.05-0.224,0.1-0.472,0.149-0.694c0.025-0.124-0.074-0.271-0.198-0.271
		c-16.174-2.158-32.918-5.186-47.082-13.743c-4.639-2.804-8.013-7.021-10.94-11.485c-2.604-3.993-4.961-8.186-8.359-11.584
		c-4.292-4.316-9.997-6.301-15.951-6.847c-0.322-0.024-0.396,0.472-0.074,0.496c5.954,0.546,11.411,2.529,15.727,6.747
		c3.522,3.447,5.904,7.912,8.608,11.98c2.877,4.366,6.251,8.285,10.716,11.089c6.574,4.093,14.04,6.821,21.457,8.905
		c5.706,1.587,11.535,2.729,17.39,3.696c0.694,0.124,8.186,1.215,8.186,1.289c-0.471,2.456-1.562,4.764-2.778,6.945
		c-5.159,9.203-13.494,16.124-19.919,24.359c-0.075,0.1-0.075,0.272,0.049,0.348c11.188,8.881,25.749,12.677,39.219,16.62
		c6.772,1.984,13.445,4.093,20.093,6.499c6.425,2.308,13.147,3.845,19.795,5.358c7.244,1.637,14.487,3.175,21.631,5.185
		c6.722,1.885,13.445,4.192,19.448,7.813c0.149,0.073,1.687,1.018,1.637,1.092c-0.347,0.496-0.719,0.992-1.091,1.463
		c-0.868,1.092-1.86,2.109-2.902,3.052c-1.96,1.786-4.143,3.299-6.375,4.738c-4.664,2.951-9.625,5.356-14.363,8.211
		c-7.293,4.391-13.892,10.195-14.834,19.125c0,0.1,0.05,0.224,0.149,0.273c14.189,5.209,29.396,6.324,44.403,5.952
		c15.975-0.371,31.851-2.382,47.777-3.397c19.001-1.24,38.55-1.116,56.683,5.383C487.938,734.412,488.137,733.941,487.839,733.842z"
		/>
	<path fill="#D8D8D8" d="M852.664,605.023c-5.78,9.822-14.115,17.414-24.459,22.2c-9.427,4.366-19.746,6.375-29.867,8.359
		c-10.096,1.985-20.291,3.92-29.842,7.864c-4.49,1.859-9.079,4.118-12.924,7.119c-2.778,2.157-5.16,4.937-6.301,8.311
		c-2.209,6.425,0.991,13.022,4.861,18.033c5.309,6.847,12.552,12.205,19.919,16.646c4.986,3.002,10.22,5.581,15.628,7.689
		c4.342,1.688,8.855,3.102,13.471,3.722c-8.483,5.953-19.102,8.235-29.223,9.55c-11.882,1.563-23.913,1.712-35.87,2.108
		c-10.344,0.348-20.837,0.695-31.008,2.804c-0.322,0.074-0.248,0.546,0.05,0.496c10.865-2.258,22.104-2.53,33.166-2.878
		c11.933-0.396,23.913-0.62,35.746-2.307c9.725-1.391,19.846-3.846,27.933-9.726c0.174-0.124,0.099-0.421-0.124-0.445
		c-8.037-0.968-15.826-4.167-22.995-7.813c-8.112-4.094-15.901-9.229-22.352-15.652c-4.937-4.911-10.047-11.635-9.427-19.002
		c0.744-8.78,9.725-13.594,16.771-16.942c18.877-8.93,40.508-8.483,59.758-16.272c5.457-2.208,10.617-5.135,15.155-8.881
		c5.012-4.117,9.104-9.203,12.38-14.784C853.284,604.949,852.837,604.75,852.664,605.023z"/>
	<path fill="#D8D8D8" d="M493.296,744.757c-3.101-1.562-6.151-3.273-8.88-5.433c-0.249-0.198-0.546,0.198-0.298,0.396
		c2.753,2.185,5.854,3.92,8.979,5.482C493.37,745.352,493.569,744.905,493.296,744.757z"/>
	<path fill="#D8D8D8" d="M488.881,745.773l-5.954-4.466c-0.248-0.197-0.569,0.198-0.297,0.396l5.953,4.466
		C488.831,746.369,489.129,745.972,488.881,745.773z"/>
	<path fill="#D8D8D8" d="M484.416,746.27c-2.779-1.859-5.656-3.597-8.436-5.456c-0.271-0.175-0.569,0.223-0.298,0.396
		c2.778,1.86,5.656,3.598,8.436,5.458C484.366,746.84,484.688,746.443,484.416,746.27z"/>
	<path fill="#D8D8D8" d="M478.908,746.741c-1.339-0.446-2.629-1.042-3.969-1.488c-0.299-0.1-0.496,0.347-0.198,0.446
		c1.339,0.445,2.629,1.042,3.969,1.488C479.008,747.287,479.206,746.84,478.908,746.741z"/>
	<path fill="#AAAAAA" d="M609.298,738.316c-38.574-2.084-76.974,4.167-115.521,4.191c-0.446,0-0.372,0.694,0.073,0.694
		c38.499-0.025,76.825-6.301,115.35-4.192C609.645,739.035,609.744,738.341,609.298,738.316z"/>
</g>
<g id="Layer_4">
	<path fill="#D8D8D8" d="M846.016,586.815c2.034-3.424,4.764-6.151,8.187-8.187c0.942-0.472,1.91-0.968,2.828-1.489
		c-0.05-0.173-0.124-0.37-0.175-0.545c-0.67-1.29-1.413-2.529-2.231-3.746c-2.06-2.355-4.341-4.515-6.747-6.523
		c-2.456-1.761-5.011-3.423-7.615-4.985c-12.774-7.665-26.642-13.371-40.285-19.226c-13.246-5.682-26.74-11.312-38.847-19.199
		c-4.217-2.754-8.236-5.83-12.104-9.029c-2.208-1.836-4.316-3.771-6.202-5.929c-0.297-0.1-0.545-0.199-0.744-0.272
		c-4.315-1.786-6.027-4.764-7.317-7.069c-1.29-2.309-6.027-3.324-10.344-3.076s-12.503-2.53-15.951-4.316
		c-3.447-1.785-9.476-6.076-15.082-7.366c-5.605-1.267-9.054-2.778-9.054-2.778s-3.87-1.018-3.448-5.334
		c0.422-4.315-4.315-4.563-6.027-9.376c0,0-3.87-3.052-4.316-10.915c-0.421-7.863-4.737-15.479-5.186-18.778
		c-0.421-3.299-0.421-10.146-3.025-15.728c-2.579-5.581-11.634-14.214-10.766-18.777c-0.423-3.052-4.316-2.282-6.896-3.052
		s-3.026-2.034-3.026-2.034h-10.815c0,0-5.605-2.778-8.632-3.547c-3.026-0.771-5.706-4.068-8.634-4.812
		c-2.901-0.77-11.634-1.712-13.916-2.479c-1.018-0.348-2.827-0.72-4.515-1.042H408.607c-0.545,0.198-1.116,0.422-1.688,0.67
		c-4.515,1.91-17.141,2.282-21.011,3.423c-3.87,1.143-9.699,2.48-9.699,2.48s-7.12,3.994-17.141,5.507
		c-10.022,1.514-20.366,4.563-21.011,10.271c-0.645,5.705-4.862,8.931-5.185,11.609c-0.323,2.654,3.547,4.936,2.257,8.359
		c-1.29,3.423-4.515,5.333-4.192,8.186c0.323,2.854,2.58,9.129,1.935,12.949c-0.645,3.795-7.12,10.667-7.12,11.98
		c0,1.341-2.257,6.476,0,13.321s-2.58,8.359-12.924,10.84c-10.344,2.481-20.366,4.938-38.152,11.809
		c-8.881,3.424-24.162,12.478-43.287,19.323c-19.125,6.821-42.096,11.46-42.096,15.729c0,8.558-50.431,21.109,6.797,30.238
		c16.596,1.141,32.993,9.129,32,18.258c-0.967,9.128,53.557,22.251,67.994,18.257s37.73-13.693,49.364-11.981
		c11.634,1.712,152.285,4.564,230.871,3.425c56.955-0.819,189.842,3.446,266.791,3.249
		C843.535,592.198,844.502,589.42,846.016,586.815z"/>
</g>
<g id="Layer_3">
	<path opacity="0.3" fill="#383939" enable-background="new    " d="M595.754,638.744c53.631-4.144,102.325-9.203,102.325-9.203
		c-2.902-4.167-26.171-6.648-26.171-6.648c3.746-0.817,10.814-3.547,10.814-3.547c-8.73-3.943-22.026,4.787-22.026,4.787v-7.888
		c0,0-5.408,4.563-16.62,7.888c-9.973-1.661-84.763-0.297-84.763-0.297c4.837-3.052,3.473-10.121,3.473-10.121
		c-1.39,7.069-13.991,11.088-13.991,11.088c5.83-4.291,2.357-10.244,2.357-10.244c0.147,3.052-9.85,9.699-9.85,9.699v-4.02
		c-0.271,1.936-7.49,4.292-7.49,4.292s-10.815,0.271-21.756,0.422c-10.938,0.147-108.056-0.546-108.056-0.546
		c3.324-0.969,4.837-8.583,4.837-8.583c-2.208,6.647-12.18,8.037-12.18,8.037c4.984-2.208,4.439-12.181,4.439-12.181
		c-1.812,9.277-13.991,13.023-13.991,13.023c1.935-1.937,0-5.83,0-5.83c-0.545,3.176-4.986,5.532-4.986,5.532
		c1.935-1.116,0.967-5.532,0.967-5.532s-1.116,1.514-4.564,3.598c-3.473,2.083-14.562,1.661-27.436,2.083
		c-7.268,0.225-22.35,0.992-34.108,1.612c-7.02-10.914-14.239-22.151-17.017-34.927c-1.414-6.499-1.314-13.347,0.819-19.672
		c1.637-4.837,4.589-9.104,7.913-12.925c9.203-10.666,23.194-19.473,25.426-34.479c0.025-0.148-0.074-0.248-0.198-0.272
		c-7.641-1.538-15.554-4.067-21.929-8.683c8.161-5.854,17.463-9.997,26.195-14.908c8.88-5.011,17.885-10.766,23.987-19.126
		c5.507-7.564,8.41-17.687,5.755-26.84c-2.555-8.781-9.253-15.777-15.058-22.549c-5.309-6.202-10.617-12.8-12.8-20.812
		c-0.075-0.298-0.546-0.124-0.447,0.198c2.481,9.104,8.906,16.348,14.909,23.318c5.904,6.896,12.329,14.312,13.718,23.614
		c0.769,5.209-0.446,10.171-2.232,15.032c-1.761,4.764-4.788,8.955-8.31,12.603c-7.541,7.765-17.364,12.999-26.791,18.033
		c-6.599,3.522-13.396,6.896-19.473,11.287c-0.124,0.1-0.124,0.299,0,0.396c6.425,4.763,14.437,7.343,22.202,8.931
		c-1.637,10.319-9.253,17.91-16.422,24.905c-6.971,6.797-14.636,13.966-17.314,23.665c-5.358,19.225,6.425,37.557,16.57,53.309
		c-8.806,0.473-15.603,0.844-15.603,0.844c11.014,4.812,89.848,13.618,155.088,16.272c-5.829,1.216-0.422,2.332,27.361,2.729
		c69.457,1.018-14.14,11.684-97.24,30.586c-83.101,18.901,121.625,35.349,153.773,33.142c32.147-2.208-9.056-1.612-61.271-5.631
		c-52.217-3.994-97.761-16.372,11.411-27.511s103.243-28.452,106.939-33.166C598.557,641.324,598.011,639.786,595.754,638.744z"/>
</g>
<g id="Layer_2">
	<g>
		<path fill="#CCCCCC" d="M645.408,404.539c0.147-1.066,0.049-2.183-0.323-3.349c0,0-1.835,2.579-1.463-1.712l-0.05-3.796
			l-1.538,4.044l-0.744-1.96v3.052l-0.992-6.871l-1.018,1.836v-5.879l-1.19,1.835l-0.67-4.911l-0.818,1.463l-2.332-6.747
			l-0.941,22.971h12.081L645.408,404.539L645.408,404.539z"/>
		<path fill="#CCCCCC" d="M627.622,404.539h5.531c-0.422-1.661-1.414-5.729-1.414-5.432c0,0.371-1.339,4.043-1.339,4.043
			s-0.744-10.172-5.879-10.172C624.496,392.979,628.316,394.939,627.622,404.539z"/>
	</g>
	<path opacity="0.7" fill="#CCCCCC" enable-background="new    " d="M605.693,429.842c0,0-189.445,41.699-258.804,5.358
		c-69.358-36.316,0,0,0,0s-10.691,39.268,7.988,54.871c27.237,22.747,17.761,39.467,17.761,39.467l-24.459-18.854
		c0,0-1.24,12.801-0.496,28.154c0.298,5.88,0.868,12.105,1.91,18.158c0.546,3.102,1.191,6.128,2.009,9.029
		c3.522,12.7,9.873,22.971,21.036,24.409c31.802,4.144,78.438-2.033,133.829-0.794c55.394,1.24,88.881,5.358,109.719-17.166
		c20.838-22.523,4.315-58.938,4.392-78.686l3.919-20.663l-15.752,21.507C608.744,494.636,623.28,456.509,605.693,429.842z"/>
	<path opacity="0.7" fill="#CCCCCC" enable-background="new    " d="M617.029,400.198c-9.327-7.22-19.722-10.519-27.039-9.601
		s-69.357,3.102-85.457,0.942c-16.101-2.159-110.561,0.1-127.702,5.631c-17.141,5.507-26.542,11.411-26.542,11.411
		s-8.509,7.963,8.682,14.016c17.19,6.027,27.758,3.424,27.758,3.424s-13.594,5.21-19.274,5.21c-5.656,0,50.853,7.812,81.562,4.093
		c25.822-3.126,85.209-5.457,111.728-7.913c0.694-0.248,1.364-0.496,2.059-0.771c0.447-0.173,0.918-0.347,1.365-0.546
		c0.024,0,0.049-0.023,0.074-0.023c0,0,0.023,0,0.023-0.024c0.67-0.298,1.341-0.596,1.984-0.918c1.414-0.67,6.673-3.895,6.921-4.068
		c0.074-0.05,8.856-5.159,10.766-3.25c1.191,1.191-3.521,5.211-3.694,6.674C597.209,418.53,624.124,405.681,617.029,400.198z"/>
</g>
<g id="Layer_1">
	<path fill="#AAAAAA" d="M473.055,91.646c-173.847,0-133.782,246.585,26.857,246.585C673.759,338.231,646.901,91.646,473.055,91.646
		z"/>
</g>
</svg>
