<?xml version="1.0" encoding="utf-8"?>
<!-- Generator: Adobe Illustrator 18.0.0, SVG Export Plug-In . SVG Version: 6.00 Build 0)  -->
<!DOCTYPE svg PUBLIC "-//W3C//DTD SVG 1.1//EN" "http://www.w3.org/Graphics/SVG/1.1/DTD/svg11.dtd">
<svg version="1.1" xmlns="http://www.w3.org/2000/svg" xmlns:xlink="http://www.w3.org/1999/xlink" x="0px" y="0px"
	 viewBox="90 180 432 432" enable-background="new 90 180 432 432" xml:space="preserve">
<g id="Layer_4">
	<g id="Layer_1_2_">
		<g>
			<g id="Layer_4_2_">
				<polygon points="40.5,509.6 72.5,541.6 72.5,477.6 				"/>
				<polygon points="79,548.7 48.3,579.3 48.3,609 79,578.4 				"/>
				<polygon points="40.5,359.1 72.5,391.2 72.5,327.2 				"/>
				<polygon points="79,398.2 48.3,428.9 48.3,458.7 79,427.9 				"/>
				<polygon points="40.5,208.8 72.5,240.8 72.5,176.8 				"/>
				<polygon points="79,247.8 48.3,278.5 48.3,308.2 79,277.5 				"/>
				<polygon points="229.6,548.7 198.8,579.3 198.8,609 229.6,578.4 				"/>
				<polygon points="229.6,398.2 198.8,428.9 198.8,458.7 229.6,427.9 				"/>
				<polygon points="229.6,247.8 198.8,278.5 198.8,308.2 229.6,277.5 				"/>
				<polygon points="380,548.7 349.4,579.3 349.4,609 380,578.4 				"/>
				<polygon points="380,398.2 349.4,428.9 349.4,458.7 380,427.9 				"/>
				<polygon points="380,247.8 349.4,278.5 349.4,308.2 380,277.5 				"/>
				<polygon points="530.6,548.7 499.9,579.3 499.9,609 530.6,578.4 				"/>
				<polygon points="530.6,398.2 499.9,428.9 499.9,458.7 530.6,427.9 				"/>
				<polygon points="492.1,208.8 524,240.8 524,176.8 				"/>
				<polygon points="530.6,247.8 499.9,278.5 499.9,308.2 530.6,277.5 				"/>
			</g>
			<g id="Layer_1_1_">
				<polygon points="166,525.2 142.7,548.4 142.7,571.2 166,548 				"/>
				<polygon points="166,374.7 142.7,398 142.7,420.8 166,397.6 				"/>
				<polygon points="166,224.4 142.7,247.5 142.7,270.4 166,247.1 				"/>
				<polygon points="316.6,525.2 293.3,548.4 293.3,571.2 316.6,548 				"/>
				<polygon points="316.6,374.7 293.3,398 293.3,420.8 316.6,397.6 				"/>
				<polygon points="316.6,224.4 293.3,247.5 293.3,270.4 316.6,247.1 				"/>
				<polygon points="467.1,525.2 443.8,548.4 443.8,571.2 467.1,548 				"/>
				<polygon points="467.1,374.7 443.8,398 443.8,420.8 467.1,397.6 				"/>
				<polygon points="467.1,224.4 443.8,247.5 443.8,270.4 467.1,247.1 				"/>
			</g>
		</g>
	</g>
</g>
<g id="Layer_3_2_">
	<g id="Layer_2_5_">
		<path fill="#58595B" d="M60.5,664.6"/>
		<path fill="#58595B" d="M60.5,514.2"/>
		<path fill="#58595B" d="M60.5,363.8"/>
		<path fill="#58595B" d="M60.5,213.4"/>
		<path fill="#58595B" d="M79.7,437.3"/>
		<path fill="#58595B" d="M79.7,436.6"/>
		<polygon fill="#58595B" points="170.9,639.8 189.8,658.8 248.6,599.9 248.6,562.1 		"/>
		<path fill="#58595B" d="M211,664.6"/>
		<g>
			<polygon fill="#58595B" points="164.3,674 94.5,606.1 73,628 138.9,693.9 141.7,696.7 			"/>
		</g>
		<polygon fill="#58595B" points="170.9,489.4 189.8,508.3 248.6,449.4 248.6,411.7 		"/>
		<path fill="#58595B" d="M211,514.2"/>
		<g>
			<polygon fill="#58595B" points="164.3,523.6 94.5,455.6 73,477.6 138.9,543.5 141.7,546.2 			"/>
		</g>
		<polygon fill="#58595B" points="170.9,338.9 189.8,357.8 248.6,299.1 248.6,261.3 		"/>
		<path fill="#58595B" d="M211,363.8"/>
		<g>
			<polygon fill="#58595B" points="164.3,373.1 94.5,305.1 73,327.2 138.9,393.1 141.7,395.7 			"/>
		</g>
		<polygon fill="#58595B" points="170.9,188.5 189.8,207.4 248.6,148.6 248.6,110.8 		"/>
		<path fill="#58595B" d="M211,213.4"/>
		<g>
			<polygon fill="#58595B" points="164.3,222.7 94.5,154.8 73,176.7 138.9,242.6 141.7,245.4 			"/>
		</g>
		<path fill="#58595B" d="M230.2,437.3"/>
		<path fill="#58595B" d="M230.2,436.6"/>
		<polygon fill="#58595B" points="321.4,639.8 340.4,658.8 399.1,599.9 399.1,562.1 		"/>
		<g>
			<polygon fill="#58595B" points="314.7,674 244.9,606.1 223.5,628 289.4,693.9 292.2,696.7 			"/>
		</g>
		<polygon fill="#58595B" points="321.4,489.4 340.4,508.3 399.1,449.4 399.1,411.7 		"/>
		<path fill="#58595B" d="M361.6,514.2"/>
		<g>
			<polygon fill="#58595B" points="314.7,523.6 244.9,455.6 223.5,477.6 289.4,543.5 292.2,546.2 			"/>
		</g>
		<polygon fill="#58595B" points="321.4,338.9 340.4,357.8 399.1,299.1 399.1,261.3 		"/>
		<path fill="#58595B" d="M361.6,363.8"/>
		<g>
			<polygon fill="#58595B" points="314.7,373.1 244.9,305.1 223.5,327.2 289.4,393.1 292.2,395.7 			"/>
		</g>
		<path fill="#58595B" d="M361.6,213.4"/>
		<g>
			<polygon fill="#58595B" points="314.7,222.7 244.9,154.8 223.5,176.7 289.4,242.6 292.2,245.4 			"/>
		</g>
		<path fill="#58595B" d="M380.7,437.3"/>
		<path fill="#58595B" d="M380.7,436.6"/>
		<polygon fill="#58595B" points="472,639.8 490.8,658.8 549.7,599.9 549.7,562.1 		"/>
		<path fill="#58595B" d="M512,664.6"/>
		<g>
			<polygon fill="#58595B" points="465.3,674 395.5,606.1 374,628 440,693.9 442.8,696.7 			"/>
		</g>
		<polygon fill="#58595B" points="472,489.4 490.8,508.3 549.7,449.4 549.7,411.7 		"/>
		<path fill="#58595B" d="M512,514.2"/>
		<g>
			<polygon fill="#58595B" points="465.3,523.6 395.5,455.6 374,477.6 440,543.5 442.8,546.2 			"/>
		</g>
		<polygon fill="#58595B" points="472,338.9 490.8,357.8 549.7,299.1 549.7,261.3 		"/>
		<path fill="#58595B" d="M512,363.8"/>
		<g>
			<polygon fill="#58595B" points="465.3,373.1 395.5,305.1 374,327.2 440,393.1 442.8,395.7 			"/>
		</g>
		<g>
			<polygon fill="#58595B" points="465.3,222.7 395.5,154.8 374,176.7 440,242.6 442.8,245.4 			"/>
		</g>
		<path fill="#58595B" d="M531.2,437.3"/>
		<path fill="#58595B" d="M531.2,436.6"/>
	</g>
</g>
<g id="Layer_2_2_">
	<g id="Layer_3">
		<polygon fill="#939598" points="191,509.6 223,541.6 223,477.6 		"/>
		<polygon fill="#939598" points="191,359.1 223,391.2 223,327.2 		"/>
		<polygon fill="#939598" points="191,208.8 223,240.8 223,176.8 		"/>
		<polygon fill="#939598" points="341.5,509.6 373.6,541.6 373.6,477.6 		"/>
		<polygon fill="#939598" points="341.5,359.1 373.6,391.2 373.6,327.2 		"/>
		<polygon fill="#939598" points="341.5,208.8 373.6,240.8 373.6,176.8 		"/>
		<polygon fill="#939598" points="492.1,509.6 524,541.6 524,477.6 		"/>
		<polygon fill="#939598" points="492.1,359.1 524,391.2 524,327.2 		"/>
		<path fill="#939598" d="M512,213.4"/>
		<g id="Layer_3_1_">
			<polygon fill="#939598" points="144.7,591.5 144.7,613.1 168,636.4 168,614.8 			"/>
			<polygon fill="#939598" points="144.7,441.1 144.7,462.8 168,485.9 168,464.3 			"/>
			<polygon fill="#939598" points="140.8,571.3 140.8,548.2 114.3,521.7 114.3,544.9 			"/>
			<polygon fill="#939598" points="197.2,609 197.2,579.3 166.4,548.6 166.4,578.4 			"/>
			<polygon fill="#939598" points="144.7,290.7 144.7,312.3 168,335.6 168,313.9 			"/>
			<polygon fill="#939598" points="140.8,420.9 140.8,397.8 114.3,371.3 114.3,394.5 			"/>
			<polygon fill="#939598" points="197.2,458.7 197.2,428.9 166.4,398.2 166.4,427.9 			"/>
			<polygon fill="#939598" points="144.7,140.2 144.7,161.8 168,185.1 168,163.5 			"/>
			<polygon fill="#939598" points="140.8,270.5 140.8,247.3 114.3,220.9 114.3,244 			"/>
			<polygon fill="#939598" points="197.2,308.2 197.2,278.5 166.4,247.7 166.4,277.4 			"/>
			<polygon fill="#939598" points="295.2,591.5 295.2,613.1 318.4,636.4 318.4,614.8 			"/>
			<polygon fill="#939598" points="295.2,441.1 295.2,462.8 318.4,485.9 318.4,464.3 			"/>
			<polygon fill="#939598" points="291.4,571.3 291.4,548.2 264.9,521.7 264.9,544.9 			"/>
			<polygon fill="#939598" points="347.6,609 347.6,579.3 316.9,548.6 316.9,578.4 			"/>
			<polygon fill="#939598" points="295.2,290.7 295.2,312.3 318.4,335.6 318.4,313.9 			"/>
			<polygon fill="#939598" points="291.4,420.9 291.4,397.8 264.9,371.3 264.9,394.5 			"/>
			<polygon fill="#939598" points="347.6,458.7 347.6,428.9 316.9,398.2 316.9,427.9 			"/>
			<polygon fill="#939598" points="295.2,140.2 295.2,161.8 318.4,185.1 318.4,163.5 			"/>
			<polygon fill="#939598" points="291.4,270.5 291.4,247.3 264.9,220.9 264.9,244 			"/>
			<polygon fill="#939598" points="347.6,308.2 347.6,278.5 316.9,247.7 316.9,277.4 			"/>
			<polygon fill="#939598" points="445.7,591.5 445.7,613.1 468.9,636.4 468.9,614.8 			"/>
			<polygon fill="#939598" points="445.7,441.1 445.7,462.8 468.9,485.9 468.9,464.3 			"/>
			<polygon fill="#939598" points="441.8,571.3 441.8,548.2 415.4,521.7 415.4,544.9 			"/>
			<polygon fill="#939598" points="498.2,609 498.2,579.3 467.5,548.6 467.5,578.4 			"/>
			<polygon fill="#939598" points="445.7,290.7 445.7,312.3 468.9,335.6 468.9,313.9 			"/>
			<polygon fill="#939598" points="441.8,420.9 441.8,397.8 415.4,371.3 415.4,394.5 			"/>
			<polygon fill="#939598" points="498.2,458.7 498.2,428.9 467.5,398.2 467.5,427.9 			"/>
			<polygon fill="#939598" points="445.7,140.2 445.7,161.8 468.9,185.1 468.9,163.5 			"/>
			<polygon fill="#939598" points="441.8,270.5 441.8,247.3 415.4,220.9 415.4,244 			"/>
			<polygon fill="#939598" points="498.2,308.2 498.2,278.5 467.5,247.7 467.5,277.4 			"/>
			<polygon fill="#939598" points="592.4,571.3 592.4,548.2 566,521.7 566,544.9 			"/>
			<polygon fill="#939598" points="592.4,420.9 592.4,397.8 566,371.3 566,394.5 			"/>
			<polygon fill="#939598" points="592.4,270.5 592.4,247.3 566,220.9 566,244 			"/>
		</g>
	</g>
</g>
<g id="Layer_1">
	<g id="Layer_4_1_">
		<g id="Layer_2_1_">
			<g>
				<polygon fill="#D1D3D4" points="185.2,599.4 169.6,615.2 169.6,637.9 196.6,610.8 				"/>
			</g>
			<polygon fill="#D1D3D4" points="109.5,517.4 90.6,498.5 79.4,509.7 79.4,547.5 			"/>
			<g>
				<polygon fill="#D1D3D4" points="185.2,448.9 169.6,464.7 169.6,487.6 196.6,460.3 				"/>
			</g>
			<g>
				<polygon fill="#D1D3D4" points="140.4,573.8 113,546.3 56.8,602.5 111.8,602.5 				"/>
			</g>
			<polygon fill="#D1D3D4" points="109.5,367 90.6,348.1 79.4,359.2 79.4,397.1 			"/>
			<g>
				<polygon fill="#D1D3D4" points="185.2,298.6 169.6,314.2 169.6,337.1 196.6,309.8 				"/>
			</g>
			<g>
				<polygon fill="#D1D3D4" points="140.4,423.3 113,395.8 56.8,452 111.8,452 				"/>
			</g>
			<polygon fill="#D1D3D4" points="109.5,216.6 90.6,197.6 79.4,208.9 79.4,246.7 			"/>
			<g>
				<polygon fill="#D1D3D4" points="185.2,148.1 169.6,163.9 169.6,186.7 196.6,159.5 				"/>
			</g>
			<g>
				<polygon fill="#D1D3D4" points="140.4,272.9 113,245.5 56.8,301.5 111.8,301.5 				"/>
			</g>
			<g>
				<polygon fill="#D1D3D4" points="335.7,599.4 320.2,615.2 320.2,637.9 347,610.8 				"/>
			</g>
			<polygon fill="#D1D3D4" points="260,517.4 241.1,498.5 229.9,509.7 229.9,547.5 			"/>
			<g>
				<polygon fill="#D1D3D4" points="335.7,448.9 320.2,464.7 320.2,487.6 347,460.3 				"/>
			</g>
			<g>
				<polygon fill="#D1D3D4" points="290.9,573.8 263.5,546.3 207.4,602.5 262.3,602.5 				"/>
			</g>
			<polygon fill="#D1D3D4" points="260,367 241.1,348.1 229.9,359.2 229.9,397.1 			"/>
			<g>
				<polygon fill="#D1D3D4" points="335.7,298.6 320.2,314.2 320.2,337.1 347,309.8 				"/>
			</g>
			<g>
				<polygon fill="#D1D3D4" points="290.9,423.3 263.5,395.8 207.4,452 262.3,452 				"/>
			</g>
			<polygon fill="#D1D3D4" points="260,216.6 241.1,197.6 229.9,208.9 229.9,246.7 			"/>
			<g>
				<polygon fill="#D1D3D4" points="335.7,148.1 320.2,163.9 320.2,186.7 347,159.5 				"/>
			</g>
			<g>
				<polygon fill="#D1D3D4" points="290.9,272.9 263.5,245.5 207.4,301.5 262.3,301.5 				"/>
			</g>
			<g>
				<polygon fill="#D1D3D4" points="486.2,599.4 470.6,615.2 470.6,637.9 497.6,610.8 				"/>
			</g>
			<polygon fill="#D1D3D4" points="410.5,517.4 391.6,498.5 380.4,509.7 380.4,547.5 			"/>
			<g>
				<polygon fill="#D1D3D4" points="486.2,448.9 470.6,464.7 470.6,487.6 497.6,460.3 				"/>
			</g>
			<g>
				<polygon fill="#D1D3D4" points="441.4,573.8 414.1,546.3 357.9,602.5 412.7,602.5 				"/>
			</g>
			<polygon fill="#D1D3D4" points="410.5,367 391.6,348.1 380.4,359.2 380.4,397.1 			"/>
			<g>
				<polygon fill="#D1D3D4" points="486.2,298.6 470.6,314.2 470.6,337.1 497.6,309.8 				"/>
			</g>
			<g>
				<polygon fill="#D1D3D4" points="441.4,423.3 414.1,395.8 357.9,452 412.7,452 				"/>
			</g>
			<polygon fill="#D1D3D4" points="410.5,216.6 391.6,197.6 380.4,208.9 380.4,246.7 			"/>
			<g>
				<polygon fill="#D1D3D4" points="486.2,148.1 470.6,163.9 470.6,186.7 497.6,159.5 				"/>
			</g>
			<g>
				<polygon fill="#D1D3D4" points="441.4,272.9 414.1,245.5 357.9,301.5 412.7,301.5 				"/>
			</g>
			<polygon fill="#D1D3D4" points="561,517.4 542.1,498.5 530.9,509.7 530.9,547.5 			"/>
			<g>
				<polygon fill="#D1D3D4" points="591.9,573.8 564.5,546.3 508.4,602.5 563.3,602.5 				"/>
			</g>
			<polygon fill="#D1D3D4" points="561,367 542.1,348.1 530.9,359.2 530.9,397.1 			"/>
			<g>
				<polygon fill="#D1D3D4" points="591.9,423.3 564.5,395.8 508.4,452 563.3,452 				"/>
			</g>
			<polygon fill="#D1D3D4" points="561,216.6 542.1,197.6 530.9,208.9 530.9,246.7 			"/>
			<g>
				<polygon fill="#D1D3D4" points="591.9,272.9 564.5,245.5 508.4,301.5 563.3,301.5 				"/>
			</g>
		</g>
	</g>
</g>
</svg>
