<?xml version="1.0" encoding="utf-8"?>
<!-- Generator: Adobe Illustrator 18.0.0, SVG Export Plug-In . SVG Version: 6.00 Build 0)  -->
<!DOCTYPE svg PUBLIC "-//W3C//DTD SVG 1.1//EN" "http://www.w3.org/Graphics/SVG/1.1/DTD/svg11.dtd">
<svg version="1.1" xmlns="http://www.w3.org/2000/svg" xmlns:xlink="http://www.w3.org/1999/xlink" x="0px" y="0px"
	 viewBox="0 0 612 792" enable-background="new 0 0 612 792" xml:space="preserve">
<g id="Layer_4_1_">
	<path d="M295.8,329.6c-2.9,39.8-8,53.3-21.5,66.4c-18,17.4-43.2,15.1-50.7,25.6c-9.2,12.9,1.2,28.8,23.9,55.8
		c33.5,39.7,47.3,106.4,47.3,106.4c-8.2-57.7-21.2-78.6-42.4-112.9c-1.4-2.2-2.7-4.4-4.2-6.4c-1-1.6-1.8-3.4-1.2-4.1
		c0.1-0.3,0.5-0.4,0.8-0.4c1,0,2.4,0.8,3.5,1.6c-8.7-8-15.4-11.7-20.8-15.4c-7.6-5-10.3-15.1-5.6-22.7c3.1-4.9,8.3-7.6,13.7-7.6
		c3,0,6.1,0.8,9.1,2.6c4.1,2.3,8.6,7.2,13.2,13.6c-1.5-2.4-4.8-8.4-4.1-12.1c0.5-3.1,1.9-5,2.9-6.1c5.7-3.5,11.7-8,17.3-13.7
		C290.2,386.5,298.4,370.7,295.8,329.6L295.8,329.6z"/>
	<path d="M269.6,240.8c2.4,0.1,3.7,0.5,4.6,2.2c-0.5-0.3-1.1-0.5-1.5-0.7C271.7,241.8,270.6,241.2,269.6,240.8 M232.4,397
		c1.8,0,3.4,0.1,5,0.1c-7.3,2.3-14.4,5.7-19.2,11.4c-0.4,0.5-1.4,0.8-2.3,0.8c-1.1,0-2-0.4-2.7-1c-1.5-1.4-1.5-3.8-0.1-5.3
		c3.3-3.5,7.1-5.2,13.5-5.8C228.6,397.1,230.5,397,232.4,397 M268.1,232.8c-0.7,0-1.5,0-2.2,0c-14,0.1-32.8,14.7-32.6,30.3
		c0.1,10.3,5.7,18.4,14,23.1c7.9,4.6,39.6,12.1,40.5,44.7c0.1,6.7,0,12.2-1,20.3c-2.6,22-12.2,34.3-25.2,37.8
		c-3.7,1-6.9,1.4-10.1,1.4c-6.1,0-11.8-1.4-19.3-1.4c-2,0-4.2,0.1-6.7,0.4c-6.9,0.7-13.3,2.7-18.5,8.4c-4.4,4.6-4.1,12,0.5,16.3
		c2.2,2,5.2,3.1,8,3.1c3.1,0,6.3-1.2,8.3-3.7c8.6-10.1,28.2-11,39.7-16.2c14.4-6.5,22.7-21.5,26.8-46.4c1.2-7.1,1.6-14.4,1.6-21.2
		c-0.5-38.9-33.6-47.3-39.7-50.6c-5.7-3.1-9.7-9.1-9.7-15.6c0-5,2-9.5,6.3-13.2c3.5-3,6.8-4.1,9.8-4.1c6.7,0,12.1,5.2,16.5,5.2
		c0.3,0,0.5,0,0.8-0.1c11.2,9.1,16.7,12.6,30.2,47.1c-3-25.4-11.8-42-24.1-55.9C279.6,233.6,273.2,232.8,268.1,232.8L268.1,232.8z"
		/>
	<path d="M275.3,455.2c-4.8-8.6-9.7-16.6-14.3-23.1c0.4,0.7,0.7,1.1,0.7,1.1l-13.5-12.6c-9.7,0.1-16.7,1.2-17.8,4.2
		c-1.9,5.4-3,17.5,8.4,25.8l4.4-0.3l10.9,11.2l-1,1.5c0,0-0.7-0.7-1.8-1.4c3.5,3.3,7.5,7.2,11.8,12.2c32,37,40.7,83.8,39.6,138
		c-0.8,35.4-17.7,38.6-17.7,46.9c0,4.9,3.9,8.8,8.8,8.8l0,0c4.9,0,8.3-4.1,8.8-8.8C307.8,603.5,310.8,519.5,275.3,455.2z
		 M269.1,468.8c-2.2-2.4-4.2-4.8-6.3-6.9l-21.5-19.4c-4.8-4.6-6.7-12.2-1.5-14.6c5.2-2.3,11.6,6,16.2,10.7
		c3.4,3.7,7.9,12.2,12.4,20.3c3.9,7.1,7.3,14.6,10.3,22C275.8,476.8,272.5,472.7,269.1,468.8z M294.8,658.2c0,0.7-0.4,1.8-1,1.8
		c-0.4,0-0.8-0.3-1-0.7c0.4-0.5,1.2-1.6,2-2.6C295,657.1,295,657.7,294.8,658.2z"/>
	<path d="M238.7,415.9c-5.4,0-10.6,2.7-13.7,7.6c-4.8,7.6-2.2,17.7,5.6,22.7c5.4,3.5,12.1,7.3,20.8,15.4c1,0.7,1.8,1.4,1.8,1.4
		l1-1.5l-10.9-11.2l-4.4,0.3c-11.4-8.3-10.3-20.4-8.4-25.8c1.1-3,8.2-4.1,17.8-4.2l13.5,12.6c0,0-0.3-0.4-0.7-1.1
		c-4.6-6.4-9.1-11.2-13.2-13.6C244.8,416.8,241.7,415.9,238.7,415.9L238.7,415.9z"/>
	<path d="M235.1,279.7c1.2,11.2,28.7,25,35,31.4c7.9,8,13.1,16,15,37.9c0,0,4.6-27.6-11.4-42.6C264.9,298.4,239.8,290.5,235.1,279.7
		L235.1,279.7z"/>
	<path d="M319.3,329.6c-2.6,40.9,5.6,56.8,18.6,70.4c5.6,5.7,11.6,10.2,17.3,13.7c1,1,2.4,3,2.9,6.1c0.7,3.7-2.6,9.7-4.1,12.1
		c4.6-6.4,9.1-11.2,13.2-13.6c3-1.8,6.1-2.6,9.1-2.6c5.4,0,10.6,2.7,13.7,7.6c4.8,7.6,2.2,17.7-5.6,22.7
		c-5.4,3.5-12.1,7.3-20.8,15.4c1.1-0.8,2.6-1.6,3.5-1.6c0.4,0,0.7,0.1,0.8,0.4c0.5,0.7-0.3,2.4-1.2,4.1c-1.5,2.2-2.9,4.4-4.2,6.4
		c-21.2,34.3-34.3,55.2-42.4,112.9c0,0,13.9-66.6,47.3-106.4c22.7-26.9,33.2-42.8,23.9-55.8c-7.6-10.5-32.9-8.2-50.7-25.6
		C327.4,383.1,322.2,369.5,319.3,329.6L319.3,329.6z"/>
	<path d="M345.6,240.8c-1.1,0.5-2.2,1-3.1,1.5c-0.5,0.3-1.1,0.5-1.5,0.7C341.8,241.4,343.1,240.8,345.6,240.8 M382.6,397
		c1.9,0,3.8,0.1,5.7,0.3c6.4,0.7,10.3,2.4,13.5,5.8c1.4,1.5,1.4,3.9-0.1,5.3c-0.7,0.7-1.6,1-2.7,1c-1,0-1.8-0.3-2.3-0.8
		c-4.9-5.7-12-9-19.2-11.4C379.3,397.1,380.9,397,382.6,397 M346.9,232.8c-5.2,0-11.6,0.7-14.4,9.7c-12.2,13.9-21.2,30.5-24.1,55.9
		c13.5-34.4,19-37.8,30.2-47.1c0.3,0,0.5,0.1,0.8,0.1c4.2,0,9.8-5.2,16.5-5.2c3,0,6.3,1.1,9.8,4.1c4.2,3.7,6.3,8.2,6.3,13.2
		c0,6.5-3.9,12.6-9.7,15.6c-6.1,3.3-39.2,11.7-39.7,50.6c-0.1,6.8,0.4,14.3,1.6,21.2c4.1,24.9,12.2,39.8,26.8,46.4
		c11.6,5.2,31.3,6.1,39.7,16.2c2,2.4,5.2,3.7,8.3,3.7c2.9,0,5.8-1.1,8-3.1c4.6-4.4,4.8-11.7,0.5-16.3c-5.2-5.7-11.6-7.6-18.5-8.4
		c-2.3-0.3-4.5-0.4-6.7-0.4c-7.5,0-13.2,1.4-19.3,1.4c-3.1,0-6.4-0.3-10.1-1.4c-12.9-3.5-22.6-15.9-25.2-37.8c-1-8-1.2-13.6-1-20.3
		c1-32.6,32.6-40.1,40.5-44.7c8.2-4.8,13.9-12.8,14-23.1c0.1-15.6-18.6-30.2-32.6-30.3C348.4,232.9,347.8,232.8,346.9,232.8
		L346.9,232.8z"/>
	<path d="M384.7,424.7c-1.1-3-8.2-4.1-17.8-4.2l-13.5,12.6c0,0,0.3-0.4,0.7-1.1c-4.8,6.5-9.5,14.4-14.3,23.1
		c-35.5,64.5-32.5,148.4-27.5,203.7c0.4,4.9,3.9,8.8,8.8,8.8l0,0c4.9,0,8.8-3.9,8.8-8.8c0-8.3-16.9-11.7-17.7-46.9
		c-1.2-54.3,7.6-101,39.6-138c4.4-5,8.3-9,11.8-12.2c-1,0.7-1.8,1.4-1.8,1.4l-1-1.5l10.9-11.2l4.4,0.3
		C387.7,442.2,386.6,430.1,384.7,424.7z M322,659.2c-0.1,0.4-0.5,0.7-1,0.7c-0.5,0-1-1.1-1-1.8c0-0.5-0.1-1.1-0.1-1.6
		C320.8,657.5,321.6,658.6,322,659.2z M373.7,442.4l-21.5,19.4c-2,2.2-4.2,4.5-6.3,6.9c-3.4,3.9-6.7,8-9.5,12.2
		c3-7.6,6.4-15,10.3-22c4.5-8.2,8.3-14.3,13.1-22.3c4.8-8,12.6-11.4,16.5-8.2C380,431.8,378.5,437.8,373.7,442.4z"/>
	<path d="M376.4,415.9c-3,0-6.1,0.8-9.1,2.6c-4.1,2.3-8.6,7.2-13.2,13.6c-0.4,0.7-0.7,1.1-0.7,1.1l13.5-12.6
		c9.7,0.1,16.7,1.2,17.8,4.2c1.9,5.4,3,17.5-8.4,25.8l-4.4-0.3l-10.9,11.2l1,1.5c0,0,0.7-0.7,1.8-1.4c8.7-8,15.4-11.7,20.8-15.4
		c7.6-5,10.3-15.1,5.6-22.7C387.1,418.6,381.9,415.9,376.4,415.9L376.4,415.9z"/>
	<path d="M380,279.7c-4.6,10.7-29.8,18.8-38.5,26.8c-16,14.8-11.4,42.6-11.4,42.6c1.9-21.9,6.9-29.9,15-37.9
		C351.3,304.7,378.9,290.9,380,279.7L380,279.7z"/>
	<path d="M432.6,612.1c-49,9-73.2,17.5-83.9,33c-4.9,6.9-2,14.7,4.2,18.2c6.3,3.7,14.3,1.5,18.5-5c4.1-6.5,18.8-34.4,62.6-42
		c40.5-7.1,70.6,25.4,80.2,38.4c3.5,4.9,6.9,9.7,10.3,14.8h54.8v-43.8C537.6,609.1,473.7,604.5,432.6,612.1z"/>
	<path d="M448,630.3c-34.1-3-59.2,19.4-63,29.9c-1.2,3.3-1,6.4,0.4,9h19.2c0.1-0.3,0.3-0.5,0.4-0.8c1.9-4.9,17.7-26.4,41.6-27.3
		c21.8-0.8,44.5,9.9,64.3,28.3h5.6C497.4,648.1,474,632.6,448,630.3z"/>
	<path d="M176.7,612.5c43.8,7.8,58.5,35.5,62.6,42c4.1,6.5,12.2,8.7,18.5,5c6.3-3.7,9.1-11.4,4.2-18.2c-10.9-15.5-35.1-23.9-83.9-33
		c-40.5-7.5-103.6-3.1-145.2,12.9v48.1h51c4.4-6.5,8.4-12.5,12.8-18.5C105.9,637.9,136,605.4,176.7,612.5z"/>
	<path d="M225.5,656.7c-3.8-10.5-28.8-32.9-63-29.9c-27.5,2.4-52,19.6-71.8,42.6h5c20.7-20.5,45-32.8,68.1-31.8
		c23.9,1,39.7,22.4,41.6,27.3c0.7,1.9,1.9,3.4,3.4,4.5h12.9C225.8,666.5,227.3,661.6,225.5,656.7z"/>
	<path d="M475.2,191.7c-15.6-6.7-25.4-18.2-25.4-18.2c8.4,12.5,20.4,23.3,35.4,30.9c15,7.6,20.9,16.2,25.4,19.7
		c4.5,3.5,11.4,2.3,14.8-2.4c3.4-4.8,2.6-10.6-2.4-14.8C508.4,194.7,486.6,196.8,475.2,191.7z"/>
	<path d="M466.8,182.5c15.1,6,28.2,4.1,42.7,6.9c14.4,3,21.8,10.1,28,14.7c6.4,4.6,17.8,1.8,22.3-6.1c4.5-7.9,1.5-18.2-6.1-22.3
		c-7.6-3.9-15.8-5.2-30.3-4.9c-23.3,0.4-37.8,5.7-54.1,3.5c-16.2-2.2-31.4-18.1-31.4-18.1S451.7,176.5,466.8,182.5z"/>
	<path d="M571.2,130.8c-6.1-3-19.2-9.5-43.7-1.9c-24.5,7.8-37.8,25.4-59.8,27.9c-22,2.6-36-11.4-36-11.4s13.6,18.4,34.8,22.7
		s43.4-9.7,57.8-9.7c10.5,0,21.5,3.4,30.6,7.6c8.8,4.2,19.2,1,24.3-7.1v-20.8C577.3,135.2,574.6,132.6,571.2,130.8z"/>
	<path d="M136.5,193c-11.4,4.9-33.2,3-47.7,15.1c-5,4.2-5.8,10.1-2.4,14.8c3.4,4.8,10.2,5.8,14.8,2.4c4.5-3.5,10.5-12,25.4-19.7
		c15-7.6,26.9-18.4,35.4-30.9C162,174.7,152.2,186.2,136.5,193z"/>
	<path d="M74.3,205.3c6.4-4.6,13.6-11.7,28-14.7c14.4-3,27.5-1,42.7-6.9c15.2-6,29-26.1,29-26.1s-15.1,15.9-31.3,18.1
		c-16.2,2.2-30.9-3.1-54.1-3.5c-14.6-0.3-22.7,1-30.3,4.9c-7.6,3.9-10.6,14.4-6.1,22.3C56.4,207.1,67.9,210,74.3,205.3z"/>
	<path d="M56.8,167.4c9.1-4.4,20.3-7.6,30.6-7.6c14.4,0,36.6,14,57.8,9.7c21.2-4.4,34.8-22.7,34.8-22.7s-14,14-36,11.4
		s-35.4-20.3-59.8-27.9c-24.5-7.8-37.7-1.2-43.7,1.9c-3.3,1.6-5.8,4.1-7.9,6.9v21.8C37.9,168.5,48.1,171.5,56.8,167.4z"/>
	<path d="M422.6,420.9c5.7-12.5,9.9-31.3-1-55.4c-15.1-33.9-37.9-41.3-55.4-42.2c-0.5,0-1.1,0-1.6,0c-16.6,0-30.9,13.7-31.4,30.9
		c-0.7,17.7,13.2,32.5,30.7,33c0.5,0,1,0,1.5,0c9.8,0,19.7-3.4,29.2-3.4c6.9,0,13.7,1.9,20,8.3c6.4,6.5,8.4,15.1,6,25.2
		c-1.1,4.6-4.2,10.7-6.5,13.7c-0.4,0.5-0.8,1-1.2,1.4C415.3,430.1,420.1,425.2,422.6,420.9z M394.8,375.9c-5.3,0-10.6,1-15.6,1.8
		c-4.8,0.8-9.2,1.6-13.6,1.6c-0.4,0-0.8,0-1.2,0c-6.4-0.3-12.4-3-16.7-7.6c-4.4-4.8-6.7-10.9-6.4-17.3c0.4-12.8,11-23.3,23.5-23.3
		c0.4,0,0.8,0,1.2,0c21.9,1.2,37.8,13.5,48.6,37.5c2.7,6.1,4.5,11.8,5.3,17.1C412.9,379.1,404.7,375.9,394.8,375.9z"/>
	<g>
		<path d="M202,432.3c-0.4-0.4-0.8-1-1.2-1.4c-2.4-3-5.4-9-6.5-13.7c-2.4-10.1-0.4-18.6,6-25.2c6.3-6.5,13.1-8.3,20-8.3
			c9.5,0,19.3,3.4,29.2,3.4c0.5,0,1,0,1.5,0c17.5-0.7,31.4-15.5,30.7-33c-0.7-17.1-14.8-30.9-31.4-30.9c-0.5,0-1.1,0-1.6,0
			c-17.3,1-40.1,8.3-55.4,42.2c-10.7,24.1-6.7,42.8-1,55.4C194.9,425.2,199.8,430.1,202,432.3z M195.3,385.8
			c0.8-5.3,2.6-11,5.3-17.1c10.7-24.1,26.7-36.4,48.6-37.5c0.4,0,0.8,0,1.2,0c12.5,0,23.1,10.5,23.5,23.3c0.3,6.4-2,12.5-6.4,17.3
			c-4.4,4.8-10.3,7.5-16.7,7.6c-0.4,0-0.8,0-1.2,0c-4.4,0-8.8-0.8-13.6-1.6c-5-1-10.3-1.8-15.6-1.8
			C210.4,375.9,202.1,379.1,195.3,385.8z"/>
	</g>
</g>
<g id="Layer_3_1_">
	<g id="Layer_2_2_">
		<path fill="#323233" d="M470.6,669.4h18.8C482.4,667.6,476,668,470.6,669.4z"/>
		<path fill="#323233" d="M152.7,316.2c9.5,0,18.5,6.3,20.9,14.4c4.8,15.8-4.9,31.3-15.1,42.4c-1.5-12.6-6.7-26.1-17-33.3
			c-4.5-3.1-7.2-8-6.8-12.1c0.7-5.4,7.3-8.7,11.3-10.2C148.1,316.6,150.4,316.2,152.7,316.2 M152.7,308.3c-3.1,0-6.4,0.5-9.4,1.6
			c-23.1,8.6-18.8,27.6-6.4,36.2c13.7,9.7,16,34.3,12.8,45.7c12.2-9.7,40-35.1,31.4-63.5C177.6,316.2,165.1,308.3,152.7,308.3
			L152.7,308.3z"/>
		<path fill="#323233" d="M120,472.8c4.6,2.4,8.8,5.3,11.7,9.4c1.6,2.2,0.4,3.3-0.1,3.7c-0.5,0.4-1.2,0.5-1.5,0.5
			c-0.3,0-1.1-0.1-1.6-0.7c-0.5-0.7-1.2-1.9-2-3.1C125,479.9,122.9,476.6,120,472.8 M87.2,438.3c3.9,11.3,11,22,20.9,30.9
			s12.8,16.7,15.5,20.3c1.6,2,3.9,3.1,6.4,3.1c1.9,0,3.8-0.7,5.4-1.9c3.5-3,4.2-7.6,1.2-11.8c-8.7-12.2-25.8-15.1-33.7-21.2
			C92.3,449.2,87.2,438.3,87.2,438.3L87.2,438.3z"/>
		<path fill="#323233" d="M137.2,457.7c1.6,0.3,3.4,0.7,5.2,1.1c10.1,2.4,15.1,4.5,18.9,8c0.8,0.7,1.2,1.9,1.2,3.1
			c0,1.5-0.4,2.9-1.4,3.8c-0.8,1-2.4,1.5-3.9,1.5c-1.5,0-2.4-0.5-2.6-0.8c-0.5-0.7-1.1-1.5-1.8-2.2
			C149.5,468.2,145.1,462.5,137.2,457.7 M81.5,422.7c0,0,6.5,18.4,17,26s20.8,8.8,31.4,14c10.5,5.2,14.7,12.1,18.6,17
			c1.9,2.4,5.3,3.7,8.7,3.7c3.5,0,7.1-1.2,9.7-3.8c5-5.2,4.9-13.7-0.1-18.4c-5-4.6-11.2-7.2-22.3-9.9c-18-4.4-30.2-3.3-42.3-8.3
			C89.8,438,81.5,422.7,81.5,422.7L81.5,422.7z"/>
		<path fill="#323233" d="M159.4,427.7c15,0,21.2,5.4,24.6,8.4c3.3,2.9,3.8,7.8,1.2,10.9c-1.5,1.8-3.7,2.7-5.8,2.7
			c-1.2,0-3-0.3-4.8-1.8c-7.9-6.7-16.9-11.6-25-13.7c-2.9-0.8-6.3-1.1-10.5-1.1c-2.4,0-5,0.1-7.8,0.3c0.8-0.3,1.6-0.5,2.4-0.8
			c7.1-2.2,14.4-4.5,22.6-4.9C157.4,427.7,158.4,427.7,159.4,427.7 M79,413.1c0,0,6.7,16.9,22.2,24.5c6.5,3.3,14,3.9,21.1,3.9
			c6,0,11.7-0.5,16.7-0.5c3.1,0,6,0.1,8.4,0.8c8,2.2,15.9,6.9,22,12.1c2.9,2.4,6.4,3.5,9.8,3.5c4.5,0,9-1.9,12-5.6
			c5.4-6.5,4.1-16.3-2-21.8c-3.8-3.4-11.8-10.3-29.8-10.3c-1.1,0-2.3,0-3.4,0.1c-18.2,0.8-31.3,9.7-46.4,9.7c-1.8,0-3.5-0.1-5.3-0.4
			C86.9,426.7,79,413.1,79,413.1L79,413.1z"/>
		<path fill="#323233" d="M53.4,324.1c37.4,11.6,75.1,32.4,82.4,51.7c5.2,13.5-1.6,28.6-15.1,33.7c-3,1.1-6.1,1.8-9.2,1.8
			c-10.9,0-20.7-6.8-24.5-16.9c-3.3-8.7-5.8-15.9-8-22.3c-2.3-6.7-4.4-12.4-6.7-18.5C70.2,348.7,64.3,335.8,53.4,324.1 M32.6,310.6
			v6.9c18.5,10.5,28.6,30.1,32.1,38.9c4.8,11.8,8,23.3,14.7,40.7c5.2,13.5,18.1,21.9,31.8,21.9c3.9,0,8-0.7,12-2.2
			c17.5-6.7,26.4-26.4,19.7-43.9C132.7,345.7,77.1,319.7,32.6,310.6L32.6,310.6z"/>
		<path fill="#323233" d="M32.6,350.6v8.8c9.2,1.5,19.9,7.3,29.1,23.7C52,365.4,41.8,355.7,32.6,350.6L32.6,350.6z M61.7,383.1
			c0.4,0.7,0.7,1.4,1.1,2C62.4,384.3,62,383.6,61.7,383.1L61.7,383.1z"/>
		<path fill="#323233" d="M32.6,331.5v8c16.6,10.3,30.5,29.4,39,52.6c4.8,14.6,9,20,17.8,24.1c-10.1-6.9-11.7-13.6-15.8-24.3
			C65.4,367.3,52,344.3,32.6,331.5L32.6,331.5z"/>
		<path fill="#323233" d="M97.2,327.6c0,0-14.6-10.3-22.2-15.2c-13.3-8.4-20-13.7-27.2-31.3c-2.6-6.3-8.8-10.1-15.1-9.1v26.1
			c11.3,6.9,28.3,12.1,40.3,17.5C84.3,320.8,97.2,327.6,97.2,327.6z"/>
		<path fill="#323233" d="M58.5,265.3c-3.4,0-6.5,2.2-7.6,5.6c-1.6,5.2,0.8,12.9,8.3,23.4c6.8,9.5,24.5,21.4,24.5,21.4
			C72.1,304.9,69,300,66,293.2c-3.3-7.3-1-13.5,0.1-17.5c1.1-4.4-1.1-8.6-5.2-9.9C60,265.4,59.2,265.3,58.5,265.3L58.5,265.3z"/>
		<path fill="#323233" d="M75.1,281.2c-2,0-3.9,1.2-4.6,3.3c-0.5,1.6-1.6,7.2,2.6,15.8c3.5,7.3,7.6,9.9,7.6,9.9
			c-4.4-6-4.8-9.9-4.4-12.9c0.5-4.4,2.6-7.1,3.4-9.4c1-2.3-0.3-5.4-2.9-6.4C76.3,281.2,75.8,281.2,75.1,281.2L75.1,281.2z"/>
		<path fill="#323233" d="M225.4,309.5c-13.7,0-29.1,3.3-41.6,9.1c0,0,3.8,4.4,4.8,12.5c6.7-7.9,30.5-17.5,50.2-17.5
			c4.6,0,9.1,0.5,13.1,1.8C244.9,311.3,235.6,309.5,225.4,309.5L225.4,309.5z"/>
		<path fill="#323233" d="M462.4,316.2c2.3,0,4.6,0.4,6.7,1.2c3.9,1.5,10.6,4.8,11.3,10.2c0.5,4.1-2.2,9-6.8,12.1
			c-10.3,7.2-15.6,20.7-17,33.3c-10.2-11.2-19.9-26.5-15.1-42.4C443.9,322.3,452.9,316.2,462.4,316.2 M462.4,308.3
			c-12.4,0-24.9,8-28.4,20c-8.6,28.4,19.2,53.9,31.4,63.5c-3.3-11.4-1.1-36,12.8-45.7c12.4-8.7,16.9-27.6-6.4-36.2
			C468.8,308.8,465.5,308.3,462.4,308.3L462.4,308.3z"/>
		<path fill="#323233" d="M495.2,472.8c-3,3.8-4.9,7.1-6.5,9.7c-0.8,1.4-1.5,2.4-2,3.3c-0.5,0.7-1.4,0.7-1.6,0.7s-1-0.1-1.5-0.5
			c-0.4-0.4-1.6-1.4-0.1-3.7C486.3,478.3,490.6,475.3,495.2,472.8 M528,438.3c0,0-5.2,10.9-15.8,19.2c-7.9,6.1-24.9,9.1-33.7,21.2
			c-3,4.2-2.4,8.8,1.2,11.8c1.6,1.2,3.5,1.9,5.4,1.9c2.4,0,4.9-1.1,6.4-3.1c2.7-3.7,5.7-11.4,15.5-20.3
			C516.9,460.3,524,449.6,528,438.3L528,438.3z"/>
		<path fill="#323233" d="M477.9,457.7c-7.9,4.8-12.2,10.3-15.5,14.7c-0.5,0.8-1.2,1.5-1.8,2.2c-0.1,0.3-1.1,0.7-2.6,0.7
			c-1.6,0-3.1-0.5-3.9-1.5c-1-1-1.5-2.3-1.4-3.8c0-1.2,0.5-2.4,1.2-3.1c3.8-3.5,8.8-5.6,18.9-8C474.5,458.4,476.3,458,477.9,457.7
			 M533.7,422.7c0,0-8.4,15.4-20.4,20.3c-12.1,4.9-24.3,3.8-42.3,8.3c-11.3,2.7-17.3,5.3-22.3,9.9c-5,4.6-5.2,13.2-0.1,18.4
			c2.6,2.6,6.1,3.8,9.7,3.8c3.4,0,6.8-1.2,8.7-3.7c3.9-4.8,8-11.7,18.6-17c10.5-5.2,20.9-6.4,31.4-14
			C527.1,441,533.7,422.7,533.7,422.7L533.7,422.7z"/>
		<path fill="#323233" d="M455.7,427.7c1,0,2,0,3.1,0.1c8.2,0.4,15.5,2.7,22.6,4.9c0.8,0.3,1.6,0.5,2.4,0.8
			c-2.7-0.1-5.2-0.3-7.8-0.3c-4.4,0-7.6,0.4-10.5,1.1c-8.3,2.2-17.1,7.1-25,13.7c-1.6,1.4-3.5,1.8-4.8,1.8c-2.3,0-4.5-1-5.8-2.7
			c-2.6-3.1-2-8,1.2-10.9C434.4,433.1,440.6,427.7,455.7,427.7 M536.1,413.1c0,0-7.9,13.6-25.3,16.2c-1.8,0.3-3.5,0.4-5.3,0.4
			c-15.1,0-28-8.8-46.4-9.7c-1.2,0-2.3-0.1-3.4-0.1c-18,0-26,6.9-29.8,10.3c-6.3,5.4-7.5,15.2-2,21.8c3.1,3.7,7.5,5.6,12,5.6
			c3.4,0,6.9-1.2,9.8-3.5c6.1-5.2,14-9.9,22-12.1c2.4-0.7,5.3-0.8,8.4-0.8c5,0,10.9,0.5,16.7,0.5c7.2,0,14.6-0.7,21.1-3.9
			C529.4,429.9,536.1,413.1,536.1,413.1L536.1,413.1z"/>
		<path fill="#323233" d="M561.7,324.1c-11,11.7-16.9,24.9-18.8,29.5c-2.4,6.1-4.4,11.8-6.7,18.5c-2.2,6.4-4.8,13.6-8,22.2
			c-3.8,10.1-13.7,16.9-24.5,16.9c-3.1,0-6.3-0.5-9.2-1.8c-13.5-5.2-20.3-20.3-15.1-33.7C486.7,356,524.7,335.5,561.7,324.1
			 M579.4,311.1c-43.9,9.8-97.2,35.1-107.4,61.7c-6.7,17.5,2.2,37.3,19.7,43.9c3.9,1.5,8,2.2,12.1,2.2c13.7,0,26.8-8.4,31.8-21.9
			c6.7-17.4,9.9-28.8,14.7-40.7c3.3-8.3,12.5-26.2,29.1-37.1V311.1L579.4,311.1z"/>
		<path fill="#323233" d="M579.4,352.5c-8.3,5.4-17.3,14.8-26,30.6c8.2-14.4,17.5-20.7,26-23V352.5L579.4,352.5z M553.4,383.1
			c-0.4,0.7-0.7,1.4-1.1,2C552.6,384.3,553,383.8,553.4,383.1L553.4,383.1z"/>
		<path fill="#323233" d="M579.4,333.7c-17.7,13.2-30.1,35-37.9,58.2c-4.1,10.9-5.7,17.4-15.8,24.3c8.8-4.1,13.1-9.4,17.8-24.1
			c8-21.9,20.7-40,35.9-50.6V333.7L579.4,333.7z"/>
		<path fill="#323233" d="M567.3,281.1c-7.1,17.5-13.9,22.8-27.2,31.3c-7.6,4.9-22.2,15.2-22.2,15.2s12.8-6.8,24.2-12
			c11-4.9,26.1-9.7,37.3-15.8v-28C574.2,272.4,569.4,275.9,567.3,281.1z"/>
		<path fill="#323233" d="M556.6,265.3c-0.8,0-1.6,0.1-2.3,0.4c-4.2,1.4-6.3,5.6-5.2,9.9c1,4.1,3.4,10.2,0.1,17.5
			c-3,6.8-6.1,11.7-17.7,22.4c0,0,17.7-11.7,24.5-21.4c7.3-10.5,9.8-18.2,8.3-23.4C563.2,267.5,560,265.3,556.6,265.3L556.6,265.3z"
			/>
		<path fill="#323233" d="M539.9,281.2c-0.5,0-1.2,0.1-1.8,0.3c-2.6,1-3.8,4.1-2.9,6.4c1,2.3,3,4.9,3.4,9.4c0.3,3,0,6.9-4.4,12.9
			c0,0,4.1-2.6,7.6-9.9c4.2-8.7,3.3-14.1,2.6-15.8C543.9,282.3,542,281.2,539.9,281.2L539.9,281.2z"/>
		<path fill="#323233" d="M389.8,309.5c-10.2,0-19.6,1.8-26.4,5.8c3.9-1.2,8.3-1.8,13.1-1.8c19.7,0,43.5,9.7,50.2,17.5
			c1-8.2,4.8-12.5,4.8-12.5C418.7,312.8,403.5,309.5,389.8,309.5L389.8,309.5z"/>
		<path fill="#323233" d="M559.4,462.8c-25.4,30.3-51.8,94.8-39.3,121.7c6.8,14.8,24.3,21.2,39.2,14.3c14.8-6.8,21.1-24.5,14.3-39.2
			c-6.8-14.7-11.8-23.5-16.3-33.7c-4.5-10.1-13.7-39.2,4.2-61.1c6-7.2,12.1-12.2,18-15.6v-8.7C573.5,446.3,566.8,453.7,559.4,462.8z
			"/>
		<path fill="#323233" d="M454.4,570.6c2.6,0,5.2,1.4,6.8,3.5c3.9,5.2,7.6,9.5,11.3,13.1c-10.6-1.8-20.1-4.2-24.3-8.3
			c-0.1-0.1-0.5-0.5-0.4-1.8c0.1-2,1.6-4.4,3.5-5.7C452.1,570.9,453.2,570.6,454.4,570.6 M454.4,560.7c-3.1,0-6.1,0.8-8.7,2.6
			c-7.5,5-11,16.3-4.4,22.7c12.4,12.1,46.9,12.2,69.8,16.2c15.5,2.6,33.3,6.7,33.3,6.7s-21.1-7.9-32-11.3
			c-18.9-6-28.8-10.3-43.1-29.4C465.5,563.4,460,560.7,454.4,560.7L454.4,560.7z"/>
		<path fill="#323233" d="M479.5,545.3c-5.3,0-9.8,4.2-9.9,9.5c-0.3,6.8,5.2,15.4,17.5,25.7c11.3,9.5,36.6,18.1,36.6,18.1
			c-17.5-9.4-22.8-14.3-28.7-21.6c-6.3-7.9-5.4-16-5.4-21.4c-0.1-5.6-3.9-10.2-9.5-10.3C479.8,545.3,479.7,545.3,479.5,545.3
			L479.5,545.3z"/>
		<path fill="#323233" d="M504,559.3c-3.1,0-6,2.3-6.3,5.7c-0.1,2.2,0.4,9.2,8.3,18.4c6.7,7.8,12.5,9.7,12.5,9.7
			c-7.2-5.8-8.8-10.6-9.5-14.3c-0.8-5.6,0.8-9.4,1.2-12.5c0.4-3.1-2.2-6.5-5.6-6.9C504.4,559.3,504.3,559.3,504,559.3L504,559.3z"/>
		<path fill="#323233" d="M49.2,461.3c18.1,21.9,8.7,50.9,4.2,61.1c-4.5,10.1-9.5,19-16.3,33.7s-0.4,32.2,14.3,39.2
			c14.8,6.8,32.2,0.4,39.2-14.3c12.5-26.9-13.9-91.3-39.3-121.7c-6.9-8.3-13.1-15.1-18.5-20.7v8.2C38.1,450,43.7,454.6,49.2,461.3z"
			/>
		<path fill="#323233" d="M156.1,567c1.2,0,2.3,0.3,3.3,1c1.9,1.2,3.3,3.5,3.5,5.7c0.1,1.2-0.3,1.6-0.4,1.8
			c-4.2,4.1-13.7,6.5-24.3,8.3c3.7-3.5,7.3-7.8,11.3-13.1C151,568.3,153.7,567,156.1,567 M156.1,557c-5.6,0-11.2,2.7-14.8,7.6
			c-14.3,19-24.2,23.4-43.1,29.4c-10.9,3.4-32,11.3-32,11.3s17.8-4.1,33.3-6.7c22.7-3.8,57.3-3.9,69.8-16.2
			c6.5-6.4,3.1-17.7-4.4-22.7C162.2,557.8,159.3,557,156.1,557L156.1,557z"/>
		<path fill="#323233" d="M131,541.7c-0.1,0-0.3,0-0.4,0c-5.4,0.3-9.4,4.8-9.5,10.3c-0.1,5.3,0.8,13.5-5.4,21.4
			c-5.8,7.3-11.3,12.2-28.7,21.6c0,0,25.3-8.6,36.6-18.1c12.4-10.3,17.8-19,17.5-25.7C140.8,545.9,136.3,541.7,131,541.7L131,541.7z
			"/>
		<path fill="#323233" d="M106.5,555.7c-0.3,0-0.4,0-0.7,0c-3.4,0.4-6,3.8-5.6,6.9s2,6.9,1.2,12.5c-0.5,3.7-2.3,8.4-9.5,14.3
			c0,0,5.7-1.8,12.5-9.7c7.9-9.1,8.4-16.2,8.3-18.4C112.5,558.1,109.6,555.7,106.5,555.7L106.5,555.7z"/>
	</g>
</g>
<g id="Layer_2_3_">
	<g id="Layer_1_1_">
		<g id="Layer_2" display="none">
			<rect x="612" y="-82" display="inline" fill="#F5F5F5" width="569.8" height="1160.1"/>
			<rect x="-571.2" y="-82" display="inline" fill="#F5F5F5" width="569.8" height="1160.1"/>
			<rect x="-186.3" y="702.7" display="inline" fill="#F5F5F5" width="1172.3" height="443.4"/>
			<rect x="-186.3" y="-355.4" display="inline" fill="#F5F5F5" width="1172.3" height="443.4"/>
		</g>
		<g>
			<path fill="none" d="M366,331.1c-0.4,0-0.8,0-1.2,0c-12.5,0-23.1,10.5-23.5,23.3c-0.3,6.4,2,12.5,6.4,17.3
				c4.4,4.8,10.3,7.5,16.7,7.6c0.4,0,0.8,0,1.2,0c4.4,0,8.8-0.8,13.6-1.6c5-1,10.3-1.8,15.6-1.8c9.9,0,18.1,3.3,25,10.1
				c-0.8-5.3-2.6-11-5.3-17.1C403.8,344.6,387.9,332.2,366,331.1z"/>
			<path fill="none" d="M416,470.7c-6.7-5.8-10.6-12.2-12-19.2c-6.7,7.2-9.1,13.7-7.6,21.1c1.1,5.4,6.8,9.9,12.9,9.9
				c1,0,1.9-0.1,2.7-0.3c4.1-1.1,6.7-2.7,7.1-4.6C419.7,475.4,418.3,472.6,416,470.7z"/>
		</g>
	</g>
	<g id="Layer_3">
		<path fill="#656566" d="M557.2,513.9c2.7,12.8,11.2,22.8,22.2,28.3v-74C562.8,476.4,553.1,495,557.2,513.9z"/>
		<path fill="#656566" d="M579.4,460.6c-7.1,2.7-11.3,6.7-15.4,12.8c5.3-5.6,10.1-8.6,15.4-10.5V460.6L579.4,460.6z"/>
		<path fill="#656566" d="M436.6,663.9c-1.6,1.5-2.7,3.4-3.3,5.3h37.3c5.4-1.4,11.7-1.6,18.8,0h8.2
			C464.8,646.8,442.5,658.3,436.6,663.9z"/>
		<path fill="#656566" d="M53.3,510.2c3.9-18.4-5-36.4-20.7-44.9v72.5C42.8,532.3,50.7,522.5,53.3,510.2z"/>
		<path fill="#656566" d="M32.6,457.6v2.3c4.8,1.9,9.1,4.8,13.9,9.8C42.8,464.1,38.9,460.3,32.6,457.6L32.6,457.6z"/>
		<path fill="#656566" d="M173.9,660.2c-6.4-5.8-30.6-18.4-66,9h3.3c16.2-8,29.6-4.5,38.4,0h27.9
			C177.9,666.1,176.7,662.8,173.9,660.2z"/>
		<path fill="#656566" d="M427.2,125.8c13.7,19,40.5,23.7,59.7,9.9c5-3.5,9-8,12-13.1h-74C425.7,123.7,426.4,124.8,427.2,125.8z"/>
		<path fill="#656566" d="M419.3,122.6h-3.1c10.3,16,17.1,21.2,29.2,23.3C431.5,140.9,427.2,133.8,419.3,122.6L419.3,122.6z"/>
		<path fill="#656566" d="M124.8,136.9c19.2,13.7,46.1,9.2,59.7-9.9c1.1-1.5,2-3,3.1-4.4h-75.5C115.2,128.1,119.4,133,124.8,136.9z"
			/>
		<path fill="#656566" d="M196.4,122.6h-3.1c-8.4,11.8-12.6,19.3-27.1,24.5c12.1-2,18.9-7.3,29.4-23.5
			C195.8,123.3,196.1,123,196.4,122.6L196.4,122.6z"/>
	</g>
</g>
<g id="Layer_1_2_">
	<g id="Layer_4">
		<path fill="#AAAAAA" d="M277,134.6c0.7,0,1.1,0.1,1.5,1.2c1.1,3.8,1.2,8.4,0,14.4c-1.1-4.9-2.4-8.6-3.3-10.9
			c-0.1-0.4-0.3-0.7-0.4-1c-0.5-1.5,0-3,1.1-3.5C276.4,134.7,276.8,134.6,277,134.6 M234.2,231.4c-24.1,27.7-55.6,52.1-75.2,52.1
			c-0.3,0-0.7,0-1,0c-13.7-0.7-24.3-12.2-23.7-26c0.5-13.3,11.6-23.8,24.9-23.8c0.4,0,0.8,0,1.1,0c8.8,0.4,16.2,1,22.6,1.5
			c6.8,0.5,12.6,1,19,1.1c0.7,0,1.5,0,2.3,0C209.7,236.5,221.5,235.9,234.2,231.4 M277,126.7c-1.4,0-2.7,0.3-3.9,0.8
			c-5.2,2-7.6,7.9-5.7,13.5c2,5.6,11.7,27.5-4.4,57.5c-14.1,26.4-45.2,30.1-58.9,30.1c-0.7,0-1.5,0-2,0c-12.2-0.4-23.5-1.8-41.5-2.6
			c-0.5,0-1,0-1.5,0c-17.3,0-32,13.7-32.8,31.3c-0.8,18.1,13.2,33.3,31.3,34.1c0.4,0,1,0,1.4,0c33,0,86.9-53.3,107.2-91.8
			c17.7-33.7,24.1-52.2,19.9-66.1C284.6,129,281,126.7,277,126.7L277,126.7z"/>
		<path fill="#AAAAAA" d="M224.9,177.7c0.1,0,0.3,0,0.3,0s0,0.1,0,0.3c0.1,1,0,2.4-0.5,4.4c0-1.5,0-2.9-0.1-4.2
			C224.5,178,224.8,177.9,224.9,177.7L224.9,177.7 M224.9,170c-0.3,0-0.4,0-0.7,0c-4.5,0.4-7.9,4.4-7.6,8.8
			c0.4,4.4,1.5,32.9-36.9,36.9c48.4-4.8,53.9-30.6,53.3-38.2C232.8,173,229.2,170,224.9,170L224.9,170z M179.9,215.7
			c-0.7,0.1-1.5,0.1-2.2,0.1C178.4,215.8,179.1,215.8,179.9,215.7L179.9,215.7z"/>
		<path fill="#AAAAAA" d="M252.6,152c0,0,0.3,0.1,0.4,0.4c0.7,1.1,1.4,3.3,1.6,6.3c-0.8-2.9-1.6-5-2.4-6.3c0-0.1,0.1-0.3,0.3-0.3
			C252.4,152,252.6,152,252.6,152 M252.6,144.1c-1.4,0-2.7,0.4-4.1,1.1c-3.9,2.2-5.4,7.3-3.1,11.2c2,3.4,7.5,23.1-3.3,37.9
			c-12.8,17.4-37.9,26.8-66.5,26.8c-2.6,0-5.2-0.1-7.8-0.3c-3.1-0.3-6-0.4-8.4-0.4c-9,0-14.1,2-19.6,7.1c6.7-4.1,11.7-5,17.7-5
			c3,0,6.3,0.3,9.9,0.4c4.6,0.4,9.4,0.5,14,0.5c25.7,0,50.5-6.3,66.2-23.1c18-19,16.2-44.7,11.8-52
			C258,145.6,255.3,144.1,252.6,144.1L252.6,144.1z"/>
		<path fill="#AAAAAA" d="M115.6,251.3c-0.7,7.8,0.1,14,0.5,16.5c0.7,4.5,1.6,8.8,2.6,13.5c1,4.5,2,9.7,3.1,15.8
			c1.5,8.4-4.1,16.5-12.5,18.1c-1,0.1-1.9,0.3-2.7,0.3c-7.5,0-14-5.4-15.2-12.8C89.2,290.7,100.6,269.7,115.6,251.3 M180.2,197.8
			c-9.7,0-21.8,6.5-41.8,20.5c-25.7,18.2-59,62.3-54.9,85.5c2,11.3,12,19.3,23,19.3c1.4,0,2.7-0.1,4.1-0.4
			c12.8-2.3,21.2-14.6,18.9-27.2c-2.3-12.6-4.4-20.5-5.7-29.2c-1.4-8.7-2.7-32.9,15.6-46c11.2-8,21.2-9.9,28.7-9.9
			c5.7,0,9.8,1.1,11.7,1.5c0.5,0.1,1.2,0.1,1.8,0.1c3.4,0,6.4-2.2,7.3-5.4c1-3.8-1-7.9-5.6-8.7C182.4,197.8,181.3,197.8,180.2,197.8
			L180.2,197.8z"/>
		<path fill="#AAAAAA" d="M196.5,501h0.3c10.1,0.1,25.7,9.9,41.6,26.1c5.2,5.2,10.1,10.7,14.7,16.6c-10.2-3.4-19.3-4.1-22.4-4.2
			c-2.2,0-4.6-0.1-7.3-0.1c-2.7,0-5.6,0-8.6,0.1c-3.4,0-6.8,0.1-10.7,0.1c-2.7,0-5.4,0-8,0c-10.6-0.1-19-9-18.9-19.6
			C177.5,509.4,186.2,501,196.5,501L196.5,501 M288.5,623c-0.1,1.6-0.4,3.1-1,4.4l0,0c-0.1,0-0.1,0-0.3-0.1
			c-0.3-0.1-0.4-0.7-0.1-1.2c0.1-0.3,0.1-0.4,0.3-0.7C287.8,624.6,288.2,623.8,288.5,623 M196.5,493.1c-14.8,0-26.8,11.8-27.1,26.7
			c-0.3,15,11.8,27.3,26.7,27.6c2.9,0,5.6,0,8.2,0c7.3,0,13.5-0.1,19.2-0.1c2.3,0,4.6,0,7.1,0.1c10.2,0.3,37.9,4.2,48.8,28
			c11.7,25.6,2.6,43.2,0.5,47.7c-1.9,4.5-0.1,9.5,4.1,11.4c1.2,0.5,2.6,0.8,3.8,0.8c3,0,6-1.6,7.2-5.2c4.2-11.3-0.1-26.9-13.1-55.6
			c-15-33.3-57.7-80.9-84.9-81.5C196.8,493.1,196.7,493.1,196.5,493.1L196.5,493.1z"/>
		<path fill="#AAAAAA" d="M209.6,556.6c0.7,0.1,1.2,0.1,1.9,0.3C210.9,556.8,210.3,556.6,209.6,556.6L209.6,556.6z M211.5,556.9
			c31.4,5.3,29,28.8,28.6,32.4c-0.5,3.7,2,7.2,5.8,7.6c0.4,0,0.7,0.1,1.1,0.1c3.3,0,6.1-2.3,6.7-5.8
			C254.3,584.9,251.2,563.3,211.5,556.9L211.5,556.9z"/>
		<path fill="#AAAAAA" d="M179,545.1c5,5,9.7,6.9,19.7,6.9c1,0,2,0,3.1,0c26.2,0.1,49.5,9.4,60,25.8c8.2,12.8,2.6,28.8,0.7,31.6
			c-2.2,3-1.2,7.3,2,9.4c1.2,0.8,2.4,1.1,3.7,1.1c2.2,0,4.2-1.1,5.7-3.1c4.1-5.7,6.8-26.8-7.1-43.5c-13.9-16.7-37.9-22.8-62.2-22.8
			c-1.1,0-2,0-3.1,0C192.3,550.1,186.9,550.6,179,545.1L179,545.1z"/>
		<path fill="#AAAAAA" d="M230.5,477.1c0,0-1,7.5-7.1,10.1c4.6,0.1,13.7,4.6,18.2,6.9C236.9,483.7,230.5,477.1,230.5,477.1
			L230.5,477.1z"/>
		<path fill="#AAAAAA" d="M288.5,205.3c-0.1,1.4-0.4,2.3-0.5,2.9c-0.3,0.7-0.5,1.1-0.8,1.4c-0.1-0.1-0.1-0.3-0.1-0.5
			C287.2,208.3,287.9,206.7,288.5,205.3 M304.9,122.6h-4.4c0.1,1.2,0.1,2.3,0.1,3.5c-2.9,44.2-20.5,77-21.4,81.1s1.6,8.8,6,9.9
			c0.7,0.1,1.4,0.3,2,0.3c3.4,0,6.1-2.3,7.9-6.3c0.8-1.9,1.9-9.5,2.2-15.8c0.4-7.1,6.9-46.9,7.9-66
			C305.5,127,305.3,124.7,304.9,122.6L304.9,122.6z"/>
		<path fill="#AAAAAA" d="M338,134.6c0.4,0,0.7,0.1,1.1,0.3c1.2,0.5,1.8,2,1.2,3.5c-0.1,0.3-0.3,0.5-0.4,1c-0.8,2.3-2.2,6-3.3,10.9
			c-1.2-5.8-1.2-10.5,0-14.4C336.9,134.9,337.3,134.6,338,134.6 M380.8,231.4c12.6,4.4,24.5,5,30.1,5c0.8,0,1.6,0,2.3,0
			c6.3-0.1,12.2-0.7,19-1.1c6.4-0.5,13.7-1.1,22.6-1.5c0.4,0,0.8,0,1.1,0c13.3,0,24.2,10.5,24.9,23.8c0.7,13.7-10.1,25.3-23.7,26
			c-0.3,0-0.7,0-1,0C436.4,283.5,404.9,259.2,380.8,231.4 M338,126.7c-3.9,0-7.6,2.3-9,6.8c-4.2,13.9,2.2,32.4,19.9,66.1
			c20.3,38.5,74.1,91.8,107.2,91.8c0.4,0,1,0,1.4,0c18.1-0.8,32.1-16.2,31.3-34.1c-0.8-17.5-15.4-31.3-32.8-31.3c-0.5,0-1,0-1.5,0
			c-18,0.8-29.2,2.2-41.5,2.6c-0.7,0-1.4,0-2,0c-13.6,0-44.7-3.8-58.9-30.1c-16-29.9-6.3-52-4.4-57.5c2-5.6-0.5-11.4-5.7-13.5
			C340.7,127,339.3,126.7,338,126.7L338,126.7z"/>
		<path fill="#AAAAAA" d="M390,177.7L390,177.7c0.3,0,0.4,0.3,0.4,0.4c-0.1,1.4-0.1,2.9-0.1,4.2c-0.5-1.9-0.7-3.4-0.5-4.4
			c0-0.1,0-0.3,0-0.3C389.9,177.9,389.9,177.7,390,177.7 M390,170c-4.2,0-7.8,3.1-8.2,7.6c-0.5,7.6,4.8,33.5,53.3,38.2
			c-38.4-3.9-37.3-32.5-36.9-36.9c0.3-4.5-3-8.4-7.6-8.8C390.6,170,390.3,170,390,170L390,170z M435.2,215.7
			c0.7,0.1,1.5,0.1,2.2,0.1C436.7,215.8,435.9,215.8,435.2,215.7L435.2,215.7z"/>
		<path fill="#AAAAAA" d="M362.6,152c0,0,0.1,0,0.1,0.1c0.1,0.1,0.1,0.3,0.3,0.3c-0.7,1.2-1.6,3.4-2.4,6.3c0.3-3,1-5.2,1.6-6.3
			C362.3,152.2,362.6,152,362.6,152 M362.6,144.1c-2.7,0-5.4,1.5-7.2,4.2c-4.5,7.2-6.1,32.9,11.8,52c15.8,16.9,40.7,23.1,66.2,23.1
			c4.6,0,9.4-0.3,14-0.5c3.7-0.1,6.9-0.4,9.9-0.4c6,0,11,1,17.7,5c-5.4-4.9-10.6-7.1-19.6-7.1c-2.4,0-5.3,0.1-8.4,0.4
			c-2.6,0.1-5.2,0.3-7.8,0.3c-28.6,0-53.7-9.4-66.5-26.8c-10.7-14.8-5.3-34.5-3.3-37.9c2.3-3.8,0.8-9-3.1-11.2
			C365.3,144.5,363.9,144.1,362.6,144.1L362.6,144.1z"/>
		<path fill="#AAAAAA" d="M499.5,251.3c15,18.4,26.4,39.4,24.3,51.1c-1.4,7.5-7.8,12.8-15.2,12.8c-1,0-1.9-0.1-2.7-0.3
			c-4.1-0.7-7.6-3-10.1-6.4c-2.3-3.4-3.3-7.5-2.6-11.6c1.1-6.3,2.2-11.3,3.1-15.8c1-4.6,1.9-9,2.6-13.5
			C499.3,265.3,500.1,259,499.5,251.3 M434.9,197.8c-1.1,0-2.2,0.1-3.3,0.3c-4.6,0.7-6.5,4.8-5.6,8.7c0.8,3.3,3.8,5.4,7.3,5.4
			c0.5,0,1.1,0,1.8-0.1c1.8-0.4,6-1.5,11.7-1.5c7.5,0,17.5,1.9,28.7,9.9c18.4,13.2,17,37.4,15.6,46c-1.4,8.7-3.4,16.6-5.7,29.2
			s6.3,24.9,18.9,27.2c1.4,0.3,2.7,0.4,4.1,0.4c11.2,0,21.1-8,23-19.3c4.1-23.1-29.2-67.3-54.9-85.5
			C456.7,204.2,444.6,197.8,434.9,197.8L434.9,197.8z"/>
		<path fill="#AAAAAA" d="M418.5,501L418.5,501c10.5,0,19,8.4,19.2,18.9c0.1,5.2-1.9,9.9-5.4,13.7c-3.5,3.7-8.3,5.8-13.5,5.8
			c-2.7,0-5.3,0-8,0c-3.9,0-7.3,0-10.7-0.1c-3,0-5.7-0.1-8.6-0.1c-2.7,0-5,0-7.3,0.1c-3.1,0.1-12.2,0.7-22.4,4.2
			c4.6-5.7,9.5-11.4,14.7-16.6c15.9-16.2,31.6-25.8,41.6-26.1L418.5,501 M326.5,623c0.3,0.8,0.7,1.6,1.1,2.4
			c0.1,0.3,0.3,0.5,0.3,0.7c0.3,0.5,0.1,1.1-0.1,1.2c-0.1,0-0.1,0.1-0.3,0.1l0,0C327.1,626.1,326.7,624.6,326.5,623 M418.5,493.1
			c-0.1,0-0.3,0-0.4,0c-27.2,0.4-70,48.1-84.9,81.5c-12.9,28.7-17.1,44.3-13.1,55.6c1.4,3.5,4.2,5.2,7.2,5.2c1.2,0,2.6-0.3,3.8-0.8
			c4.2-1.9,6-6.9,4.1-11.4c-1.9-4.5-11.2-22.2,0.5-47.7c10.9-23.7,38.6-27.7,48.8-28c2.3-0.1,4.6-0.1,7.1-0.1
			c5.8,0,11.8,0.1,19.2,0.1c2.6,0,5.3,0,8.2,0c14.8-0.3,26.9-12.6,26.7-27.6C445.4,504.9,433.3,493.1,418.5,493.1L418.5,493.1z"/>
		<path fill="#AAAAAA" d="M405.4,556.6c-0.7,0.1-1.2,0.1-1.9,0.3C404.2,556.8,404.9,556.6,405.4,556.6L405.4,556.6z M403.6,556.9
			c-39.7,6.4-42.8,28-42,34.3c0.5,3.5,3.4,5.8,6.7,5.8c0.4,0,0.7,0,1.1-0.1c3.7-0.5,6.3-3.9,5.8-7.6
			C374.5,585.7,372.1,562.2,403.6,556.9L403.6,556.9z"/>
		<path fill="#AAAAAA" d="M436,545.1c-7.9,5.7-13.3,5-22.6,5.3c-1.1,0-2,0-3.1,0c-24.2,0-48.3,6.1-62.2,22.8
			c-13.9,16.7-11.2,37.8-7.1,43.5c1.5,2,3.5,3.1,5.7,3.1c1.2,0,2.6-0.4,3.7-1.1c3.1-2,4.1-6.4,2-9.4c-1.9-2.7-7.5-18.8,0.7-31.6
			c10.5-16.5,33.7-25.7,60-25.8c1.1,0,2.2,0,3.1,0C426.4,552,431.1,550.1,436,545.1L436,545.1z"/>
		<path fill="#AAAAAA" d="M384.5,477.1c0,0-6.3,6.7-11.2,17.1c4.5-2.3,13.6-6.8,18.2-6.9C385.4,484.5,384.5,477.1,384.5,477.1
			L384.5,477.1z"/>
		<path fill="#AAAAAA" d="M326.5,205.3c0.7,1.5,1.2,3,1.5,3.7c0,0.1-0.1,0.4-0.1,0.4c-0.1-0.3-0.5-0.7-0.8-1.4
			C326.9,207.5,326.8,206.6,326.5,205.3 M314.6,122.6h-4.5c-0.3,2-0.4,4.4-0.3,6.8c1,19,7.5,58.8,7.9,66c0.4,6.3,1.4,13.9,2.2,15.8
			c1.8,4.1,4.5,6.3,7.9,6.3c0.7,0,1.4-0.1,2-0.3c4.4-1.1,6.9-5.7,6-9.9c-0.8-4.1-18.5-37-21.4-81.1
			C314.4,125.1,314.4,123.9,314.6,122.6L314.6,122.6z"/>
		<path fill="#AAAAAA" d="M421.2,464.7c-8.8-7.6-13.9-18.1-5-32.2l0,0c0-0.1,0.1-0.1,0.1-0.3c1.9-2.9,4.2-6.7,6.3-11.3
			c-2.4,4.4-7.2,9.2-9.5,11.4c-3.8,4.4-7.5,6.8-11.4,10.3c-8.4,8-15.5,18-13.1,31.3c1.8,9.5,11.2,16.3,20.7,16.3
			c1.6,0,3.1-0.1,4.6-0.5C431.1,485.4,429.4,471.8,421.2,464.7z M419.2,477.5c-0.4,1.9-3,3.7-7.1,4.6c-0.8,0.3-1.8,0.3-2.7,0.3
			c-6.1,0-12-4.5-12.9-9.9c-1.4-7.2,1-13.9,7.6-21.1c1.2,6.9,5.3,13.5,12,19.2C418.3,472.6,419.7,475.4,419.2,477.5z"/>
		<path fill="#AAAAAA" d="M201,489.7c1.5,0.4,3.1,0.5,4.6,0.5c9.5,0,18.9-6.9,20.7-16.3c2.6-13.3-4.5-23.3-13.1-31.3
			c-3.8-3.7-7.5-6-11.4-10.3c-2.3-2.2-7.1-7.1-9.5-11.4c2,4.6,4.4,8.4,6.3,11.3c0,0.1,0.1,0.1,0.1,0.3l0,0c9,14.3,3.8,24.6-5,32.2
			C185.8,471.8,184,485.4,201,489.7z M199,470.7c6.7-5.8,10.6-12.2,12-19.2c6.7,7.2,9.1,13.7,7.6,21.1c-1.1,5.4-6.8,9.9-12.9,9.9
			c-1,0-1.9-0.1-2.7-0.3c-4.1-1.1-6.7-2.7-7.1-4.6C195.4,475.4,196.8,472.6,199,470.7z"/>
	</g>
</g>
</svg>
