<?xml version="1.0" encoding="utf-8"?>
<!-- Generator: Adobe Illustrator 18.0.0, SVG Export Plug-In . SVG Version: 6.00 Build 0)  -->
<!DOCTYPE svg PUBLIC "-//W3C//DTD SVG 1.1//EN" "http://www.w3.org/Graphics/SVG/1.1/DTD/svg11.dtd">
<svg version="1.1" xmlns="http://www.w3.org/2000/svg" xmlns:xlink="http://www.w3.org/1999/xlink" x="0px" y="0px"
	 viewBox="90 180 432 432" enable-background="new 90 180 432 432" xml:space="preserve">
<g id="Layer_4">
	<path d="M341.1,423.2c0-0.9-0.1-1.7-0.1-2.6c-0.1-0.7-0.1-1.4-0.2-2c-0.1-1-0.3-1.9-0.6-2.9c-0.1-0.6-0.3-1.1-0.4-1.7
		c-0.2-0.8-0.5-1.6-0.8-2.4c-0.2-0.6-0.4-1.1-0.7-1.7c-0.3-0.7-0.6-1.4-1-2.1c-1.2,0.7-2.4,1.2-3.7,1.7c-2.2,0.7-4.5,1.2-6.9,1.2
		c-0.2,0-0.4,0-0.5,0c0,0,0,0,0,0c-10.3-0.3-18.7-8-20.1-18c-0.1-0.9-0.2-1.8-0.2-2.8c0-0.6,0-1.2,0.1-1.8c-0.2,0-0.5,0-0.7,0
		c-0.5,0-0.9,0-1.3,0c-0.5,0-1.1,0.1-1.6,0.1c-0.9,0.1-1.8,0.2-2.7,0.3c-0.6,0.1-1.1,0.2-1.7,0.3c-1,0.2-2,0.5-2.9,0.7
		c-0.5,0.2-1.1,0.3-1.6,0.5c-0.8,0.3-1.6,0.6-2.4,0.9c-0.6,0.3-1.2,0.5-1.7,0.8c-0.8,0.4-1.6,0.9-2.4,1.3c-0.4,0.3-0.8,0.5-1.2,0.8
		c-0.8,0.5-1.6,1.1-2.3,1.7c-0.5,0.4-1,0.8-1.4,1.2c-0.7,0.6-1.4,1.3-2.1,1.9c-0.4,0.4-0.9,0.9-1.3,1.4c-0.6,0.7-1.2,1.3-1.7,2.1
		c-0.3,0.4-0.7,0.9-1,1.3c-0.5,0.8-1.1,1.6-1.5,2.4c-0.3,0.5-0.5,1-0.8,1.4c-0.4,0.8-0.8,1.7-1.2,2.5c-0.2,0.5-0.4,1-0.6,1.5
		c-0.3,0.8-0.6,1.6-0.8,2.4c-0.2,0.6-0.3,1.1-0.4,1.7c-0.2,1-0.4,1.9-0.6,2.9c-0.1,0.6-0.2,1.3-0.2,1.9c-0.1,0.9-0.1,1.8-0.1,2.7
		c0,0.2,0,0.4,0,0.7c0,0.3,0,0.7,0,1c0,1,0.1,2,0.2,3c0.1,0.5,0.1,1.1,0.2,1.6c0.1,0.9,0.3,1.8,0.5,2.7c0.1,0.6,0.3,1.1,0.4,1.7
		c0.3,0.9,0.6,1.8,0.9,2.7c0.2,0.5,0.4,1,0.6,1.5c0.3,0.8,0.7,1.6,1.1,2.3c0.3,0.5,0.5,1,0.8,1.4c0.5,0.8,1,1.6,1.5,2.4
		c0.4,0.5,0.7,1,1.1,1.5c0.5,0.7,1.1,1.4,1.7,2c0.1,0.1,0.3,0.3,0.4,0.4c1.6-1.8,3.8-3.2,6.2-3.7c0.5-0.1,1-0.2,1.5-0.3
		c0.4,0,0.8-0.1,1.2-0.1c0.9,0,1.8,0.1,2.7,0.3c0,0,0.1,0,0.1,0c2.1,0.5,3.9,1.5,5.4,2.9c0,0,0,0,0.1,0.1c0.8,0.8,1.5,1.7,2.1,2.7
		c0.2,0.4,0.4,0.7,0.6,1.1c0.6,1.5,1,3.1,1,4.8c0,1.1-0.2,2.1-0.4,3.1c0.1,0,0.1,0,0.2,0c0.9,0.1,1.8,0.2,2.7,0.3
		c0.6,0,1.1,0.1,1.7,0.1c0.4,0,0.9,0,1.3,0s0.9,0,1.3,0c0.6,0,1.1-0.1,1.7-0.1c1-0.1,1.9-0.2,2.9-0.4c0.6-0.1,1.1-0.2,1.7-0.3
		c0.9-0.2,1.8-0.4,2.7-0.7c0.5-0.2,1.1-0.3,1.6-0.5c0.9-0.3,1.8-0.7,2.6-1c0.5-0.2,1.1-0.5,1.6-0.8c0.8-0.4,1.6-0.8,2.3-1.3
		c0.6-0.3,1.1-0.7,1.6-1.1c0.7-0.5,1.4-1,2.1-1.5c0.5-0.4,1-0.8,1.4-1.2c0.7-0.6,1.4-1.3,2-1.9c0.3-0.3,0.7-0.7,1-1
		c0.6-0.6,1.1-1.3,1.7-2c0.4-0.5,0.8-1,1.1-1.5c0.5-0.8,1.1-1.6,1.5-2.4c0.3-0.5,0.5-1,0.8-1.4c0.4-0.8,0.8-1.5,1.1-2.3
		c0.2-0.5,0.5-1.1,0.7-1.7c0.3-0.9,0.6-1.8,0.9-2.7c0.2-0.5,0.3-1.1,0.4-1.7c0.2-0.9,0.4-1.7,0.5-2.6c0.1-0.6,0.2-1.1,0.2-1.7
		c0.1-0.9,0.2-1.9,0.2-2.8c0-0.3,0-0.7,0-1C341.1,423.7,341.1,423.5,341.1,423.2z"/>
</g>
<g id="Layer_2">
	<path fill="#E6E7E8" d="M272.5,438l-13,4.3c0.7,1.8,1.6,3.6,2.5,5.3l11.6-7.3C273.2,439.6,272.9,438.8,272.5,438z"/>
	<path fill="#E6E7E8" d="M277.1,445.8l-11.6,7.3c1.2,1.6,2.4,3.1,3.8,4.6l9.5-9.9C278.2,447.2,277.6,446.5,277.1,445.8z"/>
	<path fill="#E6E7E8" d="M276.2,456.1c0-1.8,0.4-3.4,1.1-5l-8,6.5c1.4,1.5,3,3,4.6,4.3l2.6-3.5C276.3,457.7,276.2,456.9,276.2,456.1
		z"/>
	<path fill="#E6E7E8" d="M269.8,420.5l-13.3-2.6l13.5,0.7c0.1-1,0.3-2,0.6-2.9l-12.9-4.3L271,414c0.2-0.8,0.5-1.6,0.8-2.4l-12.3-5.5
		l12.9,4c0.4-0.9,0.8-1.7,1.2-2.5l-11.6-7.3c-3.9,7.1-6.1,15.1-6.1,23.8l13.7-0.7C269.7,422.3,269.7,421.4,269.8,420.5z"/>
	<path fill="#E6E7E8" d="M271,433.8l-13.3,2.6l12.9-4.3c-0.2-0.9-0.4-1.8-0.5-2.7l-13.5,1l13.3-2.6c-0.1-1-0.2-2-0.2-3l-13.7-1
		c0,6.5,1.3,12.8,3.6,18.5l12.4-5.9C271.6,435.6,271.3,434.7,271,433.8z"/>
	<path fill="#E6E7E8" d="M305.4,459.7c-0.4,0-0.9,0-1.3,0l-1.7,13.6c1,0.1,2,0.1,3,0.1s2,0,3-0.1l-1.7-13.6
		C306.2,459.7,305.8,459.7,305.4,459.7z"/>
	<path fill="#E6E7E8" d="M276,403.6l-10.5-8.9c-1.3,1.7-2.4,3.5-3.5,5.4l12.4,5.9C274.9,405.2,275.4,404.4,276,403.6z"/>
	<path fill="#E6E7E8" d="M299.7,459.2l-3.3,13.3c1.9,0.4,3.9,0.6,5.9,0.7v-13.7C301.5,459.5,300.6,459.4,299.7,459.2z"/>
	<path fill="#E6E7E8" d="M288.1,468c-1,0-2.1-0.1-3-0.4l-0.6,1l0.4-1c-1.9-0.5-3.7-1.5-5.1-2.9l-0.7,0.9l0.6-1
		c-1.5-1.5-2.6-3.3-3.1-5.4l-2.8,2.9c4.7,3.9,10.1,6.9,16.1,8.9l0.9-3.2C289.9,467.9,289,468,288.1,468z"/>
	<path fill="#E6E7E8" d="M291.3,467.6l-1.4,3.3c2.1,0.7,4.3,1.3,6.5,1.7l1.1-9.2C296,465.3,293.8,466.9,291.3,467.6z"/>
	<path fill="#E6E7E8" d="M340.7,418.6l13.7-0.7c-0.3-2.2-0.7-4.4-1.2-6.5l-13.1,4.3C340.4,416.7,340.6,417.7,340.7,418.6z"/>
	<path fill="#E6E7E8" d="M337.4,407.9c0.3,0.7,0.7,1.4,1,2.1l12.9-4l-12.3,5.6c0.3,0.8,0.5,1.6,0.8,2.4l13.5-2.6
		c-1-4-2.6-7.8-4.5-11.3l-7.1,4.5C340.4,405.9,338.9,407,337.4,407.9z"/>
	<path fill="#E6E7E8" d="M278.6,400.2l-9.4-10c-1.3,1.4-2.6,3-3.8,4.6l11.5,7.5C277.5,401.6,278,400.9,278.6,400.2z"/>
	<path fill="#E6E7E8" d="M312.4,375c-1.3-0.2-2.6-0.3-4-0.4v5.7C309.4,378.3,310.8,376.5,312.4,375z"/>
	<path fill="#E6E7E8" d="M308.4,459.5v13.7c2.2-0.1,4.4-0.4,6.5-0.8l-3.6-13.3C310.3,459.3,309.3,459.5,308.4,459.5z"/>
	<path fill="#E6E7E8" d="M341.1,423.2l13.7,0.7c0-2-0.1-4-0.4-5.9l-13.5,2.6C341.1,421.5,341.1,422.4,341.1,423.2z"/>
	<path fill="#E6E7E8" d="M348.8,400.1c-0.7-1.2-1.4-2.4-2.2-3.6c-0.8,2.2-1.9,4.3-3.3,6.1L348.8,400.1z"/>
	<path fill="#E6E7E8" d="M285.7,394l-6.6-11.8l7.8,11.1c0.8-0.5,1.6-0.9,2.4-1.3l-4.9-12.7l6.6,11.9c0.8-0.3,1.6-0.7,2.4-0.9
		l-3.6-13.2c-5.9,2-11.4,5-16.1,8.9l9.6,9.9C284.2,395.1,284.9,394.6,285.7,394z"/>
	<path fill="#E6E7E8" d="M305.4,388.2c0.2,0,0.5,0,0.7,0c0.2-2,0.6-4,1.4-5.8l0.9-7.8c-1-0.1-2-0.1-3-0.1s-2,0-3,0.1l1.6,13.6
		C304.5,388.2,304.9,388.2,305.4,388.2z"/>
	<path fill="#E6E7E8" d="M282,396.9l-8.1-11.1c-1.6,1.3-3.1,2.8-4.6,4.3l10.6,8.7C280.6,398.2,281.3,397.5,282,396.9z"/>
	<path fill="#E6E7E8" d="M298.1,388.9l-1.6-13.6c-2.2,0.4-4.4,1-6.5,1.7l5.2,12.7C296.1,389.4,297.1,389.1,298.1,388.9z"/>
	<path fill="#E6E7E8" d="M302.4,388.3v-13.7c-2,0.1-4,0.4-5.9,0.7l3.3,13.3C300.6,388.5,301.5,388.4,302.4,388.3z"/>
	<path fill="#E6E7E8" d="M274.4,441.8l-12.4,5.9c1,1.9,2.2,3.7,3.5,5.4l10.5-8.9C275.4,443.5,274.9,442.6,274.4,441.8z"/>
	<path fill="#E6E7E8" d="M332,447.8l9.5,9.9c1.3-1.4,2.6-3,3.8-4.6l-11.6-7.3C333.1,446.5,332.6,447.2,332,447.8z"/>
	<path fill="#E6E7E8" d="M329,450.8l7.9,11.3c1.6-1.3,3.1-2.8,4.6-4.3l-10.5-8.9C330.4,449.5,329.7,450.1,329,450.8z"/>
	<path fill="#E6E7E8" d="M334.8,444.2l10.5,8.9c1.3-1.7,2.4-3.5,3.5-5.4l-12.4-5.9C335.8,442.6,335.3,443.5,334.8,444.2z"/>
	<path fill="#E6E7E8" d="M321.5,455.9l5.3,12.7c1.8-0.9,3.6-1.9,5.3-3l-8.3-11C323,455,322.3,455.4,321.5,455.9z"/>
	<path fill="#E6E7E8" d="M325.5,453.5l6.7,12c1.7-1.1,3.3-2.2,4.8-3.5l-9.4-10.1C326.9,452.5,326.2,453,325.5,453.5z"/>
	<path fill="#E6E7E8" d="M340.2,432.1l13.1,4.3c0.5-1.9,0.9-3.9,1.1-5.9l-13.7-1C340.6,430.3,340.4,431.2,340.2,432.1z"/>
	<path fill="#E6E7E8" d="M338.9,436.4l12.4,6c0.8-2,1.5-4,2-6l-13.5-2.6C339.5,434.6,339.2,435.5,338.9,436.4z"/>
	<path fill="#E6E7E8" d="M337.1,440.4l11.6,7.3c0.9-1.7,1.8-3.5,2.5-5.3l-13-4.3C337.9,438.8,337.5,439.6,337.1,440.4z"/>
	<path fill="#E6E7E8" d="M317.2,457.7l3.6,13.2c2-0.7,4-1.5,5.9-2.4l-6.9-11.9C319,457,318.1,457.3,317.2,457.7z"/>
	<path fill="#E6E7E8" d="M312.9,458.9l1.9,13.6c2-0.4,4-0.9,6-1.6l-5.2-12.7C314.7,458.4,313.8,458.7,312.9,458.9z"/>
	<path fill="#E6E7E8" d="M341.1,424.9c0,1-0.1,1.9-0.2,2.8l13.5,2.6c0.3-2.1,0.4-4.3,0.4-6.5L341.1,424.9z"/>
</g>
<g id="Layer_1">
	<g>
		<path fill="#FFFFFF" d="M305.4,359.6c-35.5,0-64.4,28.8-64.4,64.4c0,35.5,28.8,64.4,64.4,64.4c35.5,0,64.4-28.8,64.4-64.4
			C369.7,388.4,340.9,359.6,305.4,359.6z M346.6,396.6c0.8,1.2,1.5,2.3,2.2,3.6l-5.5,2.6C344.7,400.9,345.8,398.8,346.6,396.6z
			 M308.4,380.3v-5.7c1.3,0.1,2.7,0.2,4,0.4C310.8,376.5,309.4,378.3,308.4,380.3z M269.3,457.7l8-6.5c-0.7,1.5-1.1,3.2-1.1,5
			c0,0.8,0.1,1.6,0.2,2.4l-2.6,3.5C272.2,460.7,270.7,459.2,269.3,457.7z M276.6,459.2c0.6,2.1,1.7,4,3.1,5.4l-0.6,1l0.7-0.9
			c1.4,1.4,3.1,2.4,5.1,2.9l-0.4,1l0.6-1c1,0.3,2,0.4,3,0.4c0.9,0,1.8-0.1,2.7-0.3l-0.9,3.2c-5.9-2-11.4-5-16.1-8.9L276.6,459.2z
			 M291.3,467.6c2.5-0.7,4.7-2.2,6.3-4.3l-1.1,9.2c-2.2-0.4-4.4-1-6.5-1.7L291.3,467.6z M354.4,430.4l-13.5-2.6
			c-0.1,0.6-0.1,1.1-0.2,1.7L354.4,430.4c-0.3,2-0.6,4-1.1,5.9l-13.1-4.3c-0.1,0.6-0.3,1.1-0.4,1.7l13.5,2.6c-0.5,2.1-1.2,4.1-2,6
			l-12.4-6c-0.2,0.6-0.4,1.1-0.7,1.7l13,4.3c-0.7,1.8-1.6,3.6-2.5,5.3l-11.6-7.3c-0.3,0.5-0.5,1-0.8,1.4l12.4,5.9
			c-1,1.9-2.2,3.7-3.5,5.4l-10.5-8.9c-0.4,0.5-0.7,1-1.1,1.5l11.6,7.3c-1.2,1.6-2.4,3.1-3.8,4.6l-9.5-9.9c-0.3,0.4-0.6,0.7-1,1
			l10.5,8.9c-1.4,1.5-3,3-4.6,4.3l-7.9-11.3c-0.5,0.4-1,0.8-1.4,1.2l9.4,10.1c-1.5,1.3-3.1,2.4-4.8,3.5l-6.7-12
			c-0.5,0.4-1.1,0.7-1.6,1.1l8.3,11c-1.7,1.1-3.5,2.1-5.3,3l-5.3-12.7c-0.5,0.3-1.1,0.5-1.6,0.8l6.9,11.9c-1.9,0.9-3.9,1.7-5.9,2.4
			l-3.6-13.2c-0.5,0.2-1.1,0.4-1.6,0.5l5.2,12.7c-1.9,0.6-3.9,1.2-6,1.6l-1.9-13.6c-0.5,0.1-1.1,0.2-1.7,0.3l3.6,13.3
			c-2.1,0.4-4.3,0.7-6.5,0.8v-13.7c-0.6,0-1.1,0.1-1.7,0.1l1.7,13.6c-1,0.1-2,0.1-3,0.1s-2,0-3-0.1l1.7-13.6c-0.6,0-1.1-0.1-1.7-0.1
			v13.7c-2-0.1-4-0.4-5.9-0.7l3.3-13.3c-0.1,0-0.1,0-0.2,0c0.3-1,0.4-2,0.4-3.1c0-1.7-0.4-3.3-1-4.8c-0.2-0.4-0.4-0.8-0.6-1.1
			c-0.6-1-1.3-1.9-2.1-2.7c0,0,0,0-0.1-0.1c-1.5-1.4-3.3-2.4-5.4-2.9c0,0-0.1,0-0.1,0c-0.9-0.2-1.8-0.3-2.7-0.3
			c-0.4,0-0.8,0-1.2,0.1c-0.5,0.1-1,0.1-1.5,0.3c-2.5,0.6-4.6,1.9-6.2,3.7c-0.1-0.1-0.3-0.3-0.4-0.4l-9.5,9.9
			c-1.3-1.4-2.6-3-3.8-4.6l11.6-7.3c-0.4-0.5-0.8-1-1.1-1.5l-10.5,8.9c-1.3-1.7-2.4-3.5-3.5-5.4l12.4-5.9c-0.3-0.5-0.5-1-0.8-1.4
			l-11.6,7.3c-0.9-1.7-1.8-3.5-2.5-5.3l13-4.3c-0.2-0.5-0.4-1-0.6-1.5l-12.4,5.9c-2.3-5.7-3.6-11.9-3.6-18.5
			c0-8.6,2.2-16.7,6.1-23.8l11.6,7.3c0.3-0.5,0.5-1,0.8-1.4l-12.4-5.9c1-1.9,2.2-3.7,3.5-5.4l10.5,8.9c0.3-0.5,0.6-0.9,1-1.3
			l-11.5-7.5c1.2-1.6,2.4-3.1,3.8-4.6l9.4,10c0.4-0.5,0.8-0.9,1.3-1.4l-10.6-8.7c1.4-1.5,3-3,4.6-4.3l8.1,11.1
			c0.5-0.4,0.9-0.8,1.4-1.2l-9.6-9.9c4.7-3.9,10.1-6.9,16.1-8.9l3.6,13.2c0.5-0.2,1.1-0.4,1.6-0.5l-5.2-12.7
			c2.1-0.7,4.3-1.3,6.5-1.7l1.6,13.6c0.5-0.1,1.1-0.2,1.7-0.3l-3.3-13.3c1.9-0.4,3.9-0.6,5.9-0.7v13.7c0.5,0,1.1-0.1,1.6-0.1
			l-1.6-13.6c1-0.1,2-0.1,3-0.1s2,0,3,0.1l-0.9,7.8c-0.7,1.8-1.2,3.8-1.4,5.8c0,0.6-0.1,1.2-0.1,1.8c0,0.9,0.1,1.9,0.2,2.8
			c1.3,10,9.8,17.8,20.1,18c0,0,0,0,0,0c0.2,0,0.4,0,0.5,0c2.4,0,4.7-0.4,6.9-1.2c1.3-0.4,2.5-1,3.7-1.7c1.6-0.9,3-2,4.3-3.3
			l7.1-4.5c1.9,3.5,3.5,7.3,4.5,11.3l-13.5,2.6c0.2,0.5,0.3,1.1,0.4,1.7l13.1-4.3c0.5,2.1,0.9,4.3,1.2,6.5l-13.7,0.7
			c0.1,0.7,0.2,1.4,0.2,2l13.5-2.6c0.2,1.9,0.4,3.9,0.4,5.9C354.8,426.1,354.7,428.3,354.4,430.4z"/>
		<path fill="#FFFFFF" d="M270.6,415.7c0.1-0.6,0.3-1.1,0.4-1.7l-13.3-2.6L270.6,415.7z"/>
		<path fill="#FFFFFF" d="M270,418.6l-13.5-0.7l13.3,2.6C269.8,419.9,269.9,419.3,270,418.6z"/>
		<path fill="#FFFFFF" d="M338.3,410c0.2,0.5,0.4,1.1,0.7,1.7l12.3-5.6L338.3,410z"/>
		<path fill="#FFFFFF" d="M285.7,394c0.4-0.3,0.8-0.5,1.2-0.8l-7.8-11.1L285.7,394z"/>
		<path fill="#FFFFFF" d="M269.8,427.9l-13.3,2.6l13.5-1C270,428.9,269.9,428.4,269.8,427.9z"/>
		<path fill="#FFFFFF" d="M271.8,411.6c0.2-0.5,0.4-1,0.6-1.5l-12.9-4L271.8,411.6z"/>
		<path fill="#FFFFFF" d="M289.4,391.9c0.6-0.3,1.1-0.6,1.7-0.8l-6.6-11.9L289.4,391.9z"/>
		<path fill="#FFFFFF" d="M257.7,436.4l13.3-2.6c-0.2-0.6-0.3-1.1-0.4-1.7L257.7,436.4z"/>
		<path fill="#FFFFFF" d="M269.6,423.9c0-0.2,0-0.4,0-0.7l-13.7,0.7l13.7,1C269.6,424.6,269.6,424.2,269.6,423.9z"/>
		<path fill="#FFFFFF" d="M341.1,423.9c0,0.3,0,0.7,0,1l13.7-1l-13.7-0.7C341.1,423.5,341.1,423.7,341.1,423.9z"/>
	</g>
</g>
</svg>
