<?xml version="1.0" encoding="utf-8"?>
<!-- Generator: Adobe Illustrator 18.0.0, SVG Export Plug-In . SVG Version: 6.00 Build 0)  -->
<!DOCTYPE svg PUBLIC "-//W3C//DTD SVG 1.1//EN" "http://www.w3.org/Graphics/SVG/1.1/DTD/svg11.dtd">
<svg version="1.1" xmlns="http://www.w3.org/2000/svg" xmlns:xlink="http://www.w3.org/1999/xlink" x="0px" y="0px"
	 viewBox="90 180 432 432" enable-background="new 90 180 432 432" xml:space="preserve">
<g id="Layer_4">
	<g>
		<path fill="none" d="M306,270.4c-2.7,0-5.3-0.2-7.9-0.7l-18.2,42.4l51.1-0.2L312.8,270c-2.2,0.3-4.4,0.5-6.7,0.5V270.4z"/>
		<path fill="none" d="M204.7,487.2c1,0.8,2,1.7,2.9,2.6c0.9,0.9,1.8,1.9,2.7,2.9c0.4,0.5,0.8,1,1.2,1.6c0.8,1.1,1.5,2.2,2.2,3.3
			c0.3,0.6,0.7,1.1,1,1.7c0.9,1.7,1.8,3.6,2.5,5.4l30.6,0.1l-31.8-44L204.7,487.2z"/>
		<path fill="none" d="M407,486.9l-11.6-26.6l-31.6,44.8l30.2,0.1C396.6,498,401.2,491.7,407,486.9z"/>
		<polygon fill="none" points="341.9,337.2 269,337.4 227.6,433.8 279,504.9 332.8,505 383.6,433 		"/>
		<path fill="none" d="M241.3,337.5l-65.5,0.2c-1.5,5.2-4,10-7.2,14.2l41.7,57.8L241.3,337.5z"/>
		<path fill="none" d="M369.5,337.1l31.2,71.7l41.4-58.7c-2.8-4-4.9-8.4-6.1-13.3L369.5,337.1z"/>
		<path fill="#FFFFFF" d="M265.2,562.2C265.2,562.2,265.2,562.3,265.2,562.2c0,22.6,18.3,40.9,40.8,40.9V603
			C283.5,603,265.2,584.7,265.2,562.2z"/>
		<path fill="#FFFFFF" d="M308.1,603c0.2,0,0.4,0,0.7,0c0.4,0,0.9-0.1,1.3-0.1c0.3,0,0.5-0.1,0.8-0.1c0.4,0,0.8-0.1,1.2-0.2
			c0.3,0,0.6-0.1,0.8-0.1c0.4-0.1,0.7-0.1,1.1-0.2c0.3-0.1,0.6-0.1,0.9-0.2c0.4-0.1,0.7-0.2,1.1-0.2c0.3-0.1,0.6-0.1,0.9-0.2
			c0.3-0.1,0.7-0.2,1-0.3c0.3-0.1,0.6-0.2,0.9-0.3c0.3-0.1,0.7-0.2,1-0.3c0.3-0.1,0.6-0.2,0.8-0.3c0.3-0.1,0.6-0.2,1-0.4
			c0.3-0.1,0.6-0.2,0.8-0.4c0.3-0.1,0.6-0.3,0.9-0.4c0.3-0.1,0.5-0.3,0.8-0.4c0.3-0.1,0.6-0.3,0.9-0.5c0.3-0.1,0.5-0.3,0.8-0.4
			c0.3-0.2,0.6-0.3,0.9-0.5c0.3-0.2,0.5-0.3,0.8-0.5c0.3-0.2,0.6-0.4,0.8-0.5c0.3-0.2,0.5-0.3,0.8-0.5c0.3-0.2,0.5-0.4,0.8-0.6
			c0.3-0.2,0.5-0.4,0.8-0.5c0.3-0.2,0.5-0.4,0.7-0.6c0.6-0.5,1.2-1,1.8-1.5c0.1-0.1,0.2-0.2,0.3-0.3c0.3-0.2,0.5-0.5,0.8-0.8
			c0.2-0.2,0.4-0.4,0.6-0.6c0.3-0.3,0.5-0.5,0.7-0.8c0.2-0.2,0.4-0.4,0.6-0.6c0.2-0.3,0.5-0.5,0.7-0.8c0.2-0.2,0.4-0.4,0.5-0.6
			c0.2-0.3,0.5-0.6,0.7-0.8c0.2-0.2,0.3-0.4,0.5-0.6c0.2-0.3,0.4-0.6,0.6-0.9c0.2-0.2,0.3-0.4,0.5-0.6c0.2-0.3,0.4-0.6,0.6-0.9
			c0.1-0.2,0.3-0.4,0.4-0.7c0.2-0.3,0.4-0.6,0.6-1c0.1-0.2,0.3-0.4,0.4-0.7c0.2-0.3,0.4-0.7,0.5-1c0.1-0.2,0.2-0.5,0.3-0.7
			c0.2-0.3,0.3-0.7,0.5-1c0.1-0.2,0.2-0.5,0.3-0.7c0.2-0.4,0.3-0.7,0.5-1.1c0.1-0.2,0.2-0.4,0.3-0.7c0.1-0.4,0.3-0.8,0.4-1.1
			c0.1-0.2,0.1-0.4,0.2-0.6c0.1-0.4,0.3-0.8,0.4-1.2c0.1-0.2,0.1-0.4,0.2-0.6c0.1-0.4,0.3-0.9,0.4-1.3c0-0.1,0-0.2,0.1-0.3
			c0.2-0.8,0.4-1.7,0.5-2.6c0-0.1,0-0.1,0-0.2c0.1-0.9,0.3-1.7,0.4-2.6c0-0.1,0-0.1,0-0.2c0.1-0.6,0.1-1.2,0.1-1.7
			c0-0.1,0-0.2,0-0.3c0,0,0,0,0,0c0,0,0,0,0,0c0-0.7,0.1-1.4,0.1-2.1c0-8.5-2.6-16.5-7.1-23l-33.2,47l-0.5-0.7V603
			C306.7,603,307.4,603,308.1,603z"/>
		<polygon fill="#FFFFFF" points="306,542.4 306.2,542.7 315,530.3 306,530.2 		"/>
		<polygon fill="#FFFFFF" points="297.2,530.2 306,542.4 306,530.2 		"/>
		<path fill="#FFFFFF" d="M306,603v-17.5L272.5,539c-4.6,6.6-7.3,14.6-7.3,23.2C265.2,584.7,283.5,603,306,603z"/>
		<path fill="#FFFFFF" d="M306.1,254.8l-0.8-1.9l-0.8,1.9c0.5,0,1,0,1.5,0C306.1,254.8,306.1,254.8,306.1,254.8z"/>
		<path fill="#FFFFFF" d="M303.2,193.6c-15.6,1.5-27.8,14.6-27.8,30.5c0,7.1,2.5,13.7,6.6,18.9L303.2,193.6z"/>
		<path fill="#FFFFFF" d="M307.1,193.6l22,50.7c4.7-5.4,7.6-12.4,7.6-20.1C336.7,207.7,323.5,194.2,307.1,193.6z"/>
		<path fill="#FFFFFF" d="M109.5,326.5c0,14.5,11.9,26.3,26.4,26.3c0.7,0,1.4,0,2.1-0.1l-26.3-36.5
			C110.3,319.3,109.5,322.8,109.5,326.5z"/>
		<path fill="#FFFFFF" d="M135.9,300.1L135.9,300.1c-9.4,0-17.8,5-22.4,12.6l44.8-0.1C153.5,305.1,145.3,300.1,135.9,300.1z"/>
		<path fill="#FFFFFF" d="M158.4,337.8l0.7,1c0.2-0.3,0.3-0.7,0.5-1L158.4,337.8z"/>
		<path fill="#FFFFFF" d="M471.7,352.3c1.4,0.2,2.9,0.4,4.4,0.4c14.6,0,26.4-11.8,26.4-26.3c0-4.7-1.2-9.1-3.4-12.9L471.7,352.3z"/>
		<path fill="#FFFFFF" d="M459.4,306.2c-1.1,0.9-2,1.8-2.9,2.9c-0.7,0.8-1.3,1.6-1.9,2.5l43.3-0.1c-4.8-6.8-12.7-11.3-21.6-11.3v0
			C469.8,300.1,463.9,302.4,459.4,306.2z"/>
		<path fill="#FFFFFF" d="M174.6,493c-12.8,1.8-22.7,12.9-22.7,26.1c0,14.5,11.9,26.3,26.4,26.3c10.7,0,19.9-6.3,24-15.4l-43.5-0.1
			L174.6,493z"/>
		<path fill="#FFFFFF" d="M197.2,504.7l3.1,0c-0.6-0.9-1.3-1.8-2-2.7L197.2,504.7z"/>
		<path fill="#FFFFFF" d="M415,505.2l-1.5-3.5c-1,1.1-1.8,2.3-2.6,3.5L415,505.2z"/>
		<path fill="#FFFFFF" d="M433.2,545.4c14.5,0,26.4-11.8,26.4-26.3c0-13.2-9.7-24.1-22.2-26l16.3,37.5l-44.2-0.1
			C413.7,539.3,422.7,545.4,433.2,545.4z"/>
		<path fill="#282829" enable-background="new    " d="M360.6,562.2c0,11.3-3.4,21.8-9.3,30.5c5.9-8.7,9.4-19.3,9.4-30.6
			c0-11.8-3.8-22.8-10.2-31.7l-0.2,0C356.8,539.3,360.6,550.3,360.6,562.2z"/>
		<path fill="#282829" enable-background="new    " d="M345.7,571.9c0.2-0.8,0.4-1.7,0.5-2.6c0,0,0,0,0,0
			C346.1,570.2,345.9,571.1,345.7,571.9z"/>
		<path fill="#282829" enable-background="new    " d="M346.6,566.6c-0.1,0.9-0.2,1.7-0.4,2.6c0,0,0,0,0,0
			C346.4,568.3,346.5,567.4,346.6,566.6z"/>
		<path fill="#282829" enable-background="new    " d="M319.8,600.7c-0.3,0.1-0.5,0.2-0.8,0.3C319.3,600.9,319.5,600.8,319.8,600.7z
			"/>
		<path fill="#282829" enable-background="new    " d="M318.1,601.3c-0.3,0.1-0.5,0.2-0.8,0.2C317.6,601.5,317.8,601.4,318.1,601.3z
			"/>
		<path fill="#282829" enable-background="new    " d="M316.3,601.8c-0.2,0.1-0.5,0.1-0.7,0.2C315.9,601.9,316.1,601.9,316.3,601.8z
			"/>
		<path fill="#282829" enable-background="new    " d="M346.8,564.3c0,0,0,0.1,0,0.1c0,0.1,0,0.1,0,0.2c0,0.6-0.1,1.2-0.1,1.7
			c0,0.1,0,0.1,0,0.2c-0.1,0.9-0.2,1.7-0.4,2.6c0,0.1,0,0.1,0,0.2c-1.9,11-8.2,20.5-17,26.6c10.7-7.4,17.7-19.7,17.7-33.6
			c0,0,0,0,0-0.1c0,0.1,0,0.3,0,0.4C346.8,563.2,346.8,563.8,346.8,564.3z"/>
		<path fill="#282829" enable-background="new    " d="M314.5,602.2c-0.2,0-0.4,0.1-0.6,0.1C314.1,602.3,314.3,602.3,314.5,602.2z"
			/>
		<path fill="#282829" enable-background="new    " d="M321.5,600.1c-0.3,0.1-0.6,0.2-0.9,0.3C320.9,600.3,321.2,600.2,321.5,600.1z
			"/>
		<path fill="#282829" enable-background="new    " d="M326.2,597.8c-0.3,0.2-0.6,0.4-1,0.5C325.6,598.1,325.9,598,326.2,597.8z"/>
		<path fill="#282829" enable-background="new    " d="M324.7,598.6c-0.3,0.2-0.6,0.3-0.9,0.5C324.1,598.9,324.4,598.8,324.7,598.6z
			"/>
		<path fill="#282829" enable-background="new    " d="M329.2,595.9c-0.4,0.3-0.8,0.5-1.2,0.8C328.4,596.4,328.8,596.2,329.2,595.9z
			"/>
		<path fill="#282829" enable-background="new    " d="M323.1,599.4c-0.3,0.1-0.6,0.3-0.9,0.4C322.5,599.7,322.8,599.5,323.1,599.4z
			"/>
		<path fill="#282829" enable-background="new    " d="M327.7,596.9c-0.3,0.2-0.7,0.4-1,0.6C327,597.3,327.4,597.1,327.7,596.9z"/>
		<path fill="#282829" enable-background="new    " d="M346.8,564.3C346.8,564.3,346.8,564.3,346.8,564.3c0-0.6,0-1.1,0-1.7
			C346.8,563.2,346.8,563.8,346.8,564.3z"/>
		<path fill="#282829" enable-background="new    " d="M346.8,564.3C346.8,564.3,346.8,564.3,346.8,564.3c0,0.1,0,0.1,0,0.1
			C346.8,564.4,346.8,564.4,346.8,564.3z"/>
		<path fill="#282829" enable-background="new    " d="M310.1,602.9c0.4,0,0.8-0.1,1.2-0.1c0.3,0,0.5-0.1,0.8-0.1
			c0.6-0.1,1.2-0.2,1.8-0.3c0.2,0,0.4-0.1,0.6-0.1c0.4-0.1,0.7-0.2,1.1-0.2c0.2-0.1,0.5-0.1,0.7-0.2c0.3-0.1,0.6-0.2,1-0.3
			c0.3-0.1,0.5-0.2,0.8-0.2c0.3-0.1,0.6-0.2,0.9-0.3c0.3-0.1,0.5-0.2,0.8-0.3c0.3-0.1,0.5-0.2,0.8-0.3c0.3-0.1,0.6-0.2,0.9-0.3
			c0.2-0.1,0.5-0.2,0.7-0.3c0.3-0.1,0.6-0.3,0.9-0.4c0.2-0.1,0.4-0.2,0.7-0.3c0.3-0.1,0.6-0.3,0.9-0.5c0.2-0.1,0.4-0.2,0.6-0.3
			c0.3-0.2,0.7-0.4,1-0.5c0.2-0.1,0.3-0.2,0.5-0.3c0.4-0.2,0.7-0.4,1-0.6c0.1-0.1,0.2-0.1,0.3-0.2c0.4-0.3,0.8-0.5,1.2-0.8
			c0,0,0,0,0,0c8.8-6.1,15.1-15.6,17-26.6c-0.2,0.9-0.3,1.7-0.5,2.6c0,0.1,0,0.2-0.1,0.3c-0.1,0.4-0.2,0.9-0.4,1.3
			c-0.1,0.2-0.1,0.4-0.2,0.6c-0.1,0.4-0.3,0.8-0.4,1.2c-0.1,0.2-0.1,0.4-0.2,0.6c-0.1,0.4-0.3,0.8-0.4,1.1c-0.1,0.2-0.2,0.4-0.3,0.7
			c-0.1,0.4-0.3,0.7-0.5,1.1c-0.1,0.2-0.2,0.5-0.3,0.7c-0.2,0.3-0.3,0.7-0.5,1c-0.1,0.2-0.2,0.5-0.3,0.7c-0.2,0.3-0.4,0.7-0.5,1
			c-0.1,0.2-0.3,0.5-0.4,0.7c-0.2,0.3-0.4,0.6-0.6,1c-0.1,0.2-0.3,0.4-0.4,0.7c-0.2,0.3-0.4,0.6-0.6,0.9c-0.2,0.2-0.3,0.4-0.5,0.6
			c-0.2,0.3-0.4,0.6-0.6,0.9c-0.2,0.2-0.3,0.4-0.5,0.6c-0.2,0.3-0.5,0.6-0.7,0.8c-0.2,0.2-0.4,0.4-0.5,0.6c-0.2,0.3-0.5,0.5-0.7,0.8
			c-0.2,0.2-0.4,0.4-0.6,0.6c-0.2,0.3-0.5,0.5-0.7,0.8c-0.2,0.2-0.4,0.4-0.6,0.6c-0.3,0.3-0.5,0.5-0.8,0.8c-0.1,0.1-0.2,0.2-0.3,0.3
			c-0.6,0.5-1.2,1-1.8,1.5c-0.2,0.2-0.5,0.4-0.7,0.6c-0.2,0.2-0.5,0.4-0.8,0.5c-0.3,0.2-0.5,0.4-0.8,0.6c-0.3,0.2-0.5,0.3-0.8,0.5
			c-0.3,0.2-0.5,0.4-0.8,0.5c-0.3,0.2-0.5,0.3-0.8,0.5c-0.3,0.2-0.6,0.3-0.9,0.5c-0.3,0.1-0.5,0.3-0.8,0.4c-0.3,0.2-0.6,0.3-0.9,0.5
			c-0.3,0.1-0.5,0.3-0.8,0.4c-0.3,0.1-0.6,0.3-0.9,0.4c-0.3,0.1-0.6,0.2-0.8,0.4c-0.3,0.1-0.6,0.3-1,0.4c-0.3,0.1-0.6,0.2-0.8,0.3
			c-0.3,0.1-0.7,0.2-1,0.3c-0.3,0.1-0.6,0.2-0.9,0.3c-0.3,0.1-0.7,0.2-1,0.3c-0.3,0.1-0.6,0.2-0.9,0.2c-0.4,0.1-0.7,0.2-1.1,0.2
			c-0.3,0.1-0.6,0.1-0.9,0.2c-0.4,0.1-0.7,0.1-1.1,0.2c-0.3,0-0.6,0.1-0.8,0.1c-0.4,0.1-0.8,0.1-1.2,0.2
			C310.6,602.8,310.3,602.8,310.1,602.9c-0.5-0.1-1,0-1.4,0c-0.2,0-0.4,0-0.7,0c-0.7,0-1.4,0.1-2,0.1v0.1c0.7,0,1.4,0,2.1-0.1
			C308.8,603,309.5,603,310.1,602.9z"/>
		<path fill="#282829" enable-background="new    " d="M346.6,566.6c-0.1,0.9-0.2,1.7-0.4,2.6C346.4,568.3,346.5,567.4,346.6,566.6z
			"/>
		<path fill="#282829" enable-background="new    " d="M346.2,569.3c0-0.1,0-0.1,0-0.2C346.3,569.2,346.2,569.3,346.2,569.3z"/>
		<path fill="#282829" enable-background="new    " d="M346.3,569.2c0,0.1,0,0.1,0,0.2c0,0,0,0,0,0
			C346.2,569.3,346.2,569.2,346.3,569.2C346.3,569.2,346.3,569.2,346.3,569.2z"/>
		<path fill="#282829" enable-background="new    " d="M346.9,562.2L346.9,562.2c0,0.1,0,0.3,0,0.4
			C346.9,562.5,346.9,562.4,346.9,562.2z"/>
		<path fill="#282829" enable-background="new    " d="M346.9,562.6c0-0.1,0-0.3,0-0.4c0,0.7,0,1.4-0.1,2.1
			C346.8,563.8,346.8,563.2,346.9,562.6z"/>
		<path fill="#282829" enable-background="new    " d="M346.8,564.3c0,0.1,0,0.2,0,0.3c0-0.1,0-0.1,0-0.2
			C346.8,564.4,346.8,564.4,346.8,564.3z"/>
		<path fill="#282829" enable-background="new    " d="M350.4,530.3l-4.4,0l-2,2.9l-4.2,6c4.5,6.6,7.1,14.5,7.1,23c0,0,0,0,0,0.1v0
			c0,0,0,0,0,0.1c0,13.9-7,26.2-17.7,33.6c0,0,0,0,0,0c-0.4,0.3-0.8,0.5-1.2,0.8c-0.1,0.1-0.2,0.1-0.3,0.2c-0.3,0.2-0.7,0.4-1,0.6
			c-0.2,0.1-0.3,0.2-0.5,0.3c-0.3,0.2-0.6,0.4-1,0.5c-0.2,0.1-0.4,0.2-0.6,0.3c-0.3,0.2-0.6,0.3-0.9,0.5c-0.2,0.1-0.4,0.2-0.7,0.3
			c-0.3,0.1-0.6,0.3-0.9,0.4c-0.2,0.1-0.5,0.2-0.7,0.3c-0.3,0.1-0.6,0.2-0.9,0.3c-0.3,0.1-0.5,0.2-0.8,0.3c-0.3,0.1-0.5,0.2-0.8,0.3
			c-0.3,0.1-0.6,0.2-0.9,0.3c-0.3,0.1-0.5,0.2-0.8,0.2c-0.3,0.1-0.6,0.2-1,0.3c-0.2,0.1-0.5,0.1-0.7,0.2c-0.4,0.1-0.7,0.2-1.1,0.2
			c-0.2,0-0.4,0.1-0.6,0.1c-0.6,0.1-1.2,0.2-1.8,0.3c-0.3,0-0.5,0.1-0.8,0.1c-0.4,0.1-0.8,0.1-1.2,0.1c-0.7,0.1-1.3,0.1-2,0.2
			c-0.7,0-1.4,0.1-2.1,0.1v6.8v6.8c18.8,0,35.5-9.6,45.3-24.1c5.9-8.7,9.3-19.2,9.3-30.5C360.6,550.3,356.8,539.3,350.4,530.3z"/>
		<path fill="#282829" enable-background="new    " d="M322.2,599.8c-0.2,0.1-0.5,0.2-0.7,0.3C321.7,600,322,599.9,322.2,599.8z"/>
		<path fill="#282829" enable-background="new    " d="M325.2,598.3c-0.2,0.1-0.4,0.2-0.6,0.3C324.9,598.5,325.1,598.4,325.2,598.3z
			"/>
		<path fill="#282829" enable-background="new    " d="M329.2,595.9C329.2,595.9,329.2,595.9,329.2,595.9
			C329.2,595.9,329.2,595.9,329.2,595.9z"/>
		<path fill="#282829" enable-background="new    " d="M323.7,599.1c-0.2,0.1-0.4,0.2-0.7,0.3C323.3,599.3,323.5,599.2,323.7,599.1z
			"/>
		<path fill="#282829" enable-background="new    " d="M315.6,602c-0.4,0.1-0.7,0.2-1.1,0.2C314.9,602.2,315.2,602.1,315.6,602z"/>
		<path fill="#282829" enable-background="new    " d="M326.7,597.5c-0.2,0.1-0.3,0.2-0.5,0.3C326.4,597.7,326.5,597.6,326.7,597.5z
			"/>
		<path fill="#282829" enable-background="new    " d="M319,601c-0.3,0.1-0.6,0.2-0.9,0.3C318.4,601.2,318.7,601.1,319,601z"/>
		<path fill="#282829" enable-background="new    " d="M317.3,601.5c-0.3,0.1-0.6,0.2-1,0.3C316.7,601.7,317,601.6,317.3,601.5z"/>
		<path fill="#282829" enable-background="new    " d="M313.9,602.4c-0.6,0.1-1.2,0.2-1.8,0.3C312.7,602.6,313.3,602.5,313.9,602.4z
			"/>
		<path fill="#282829" enable-background="new    " d="M328,596.7c-0.1,0.1-0.2,0.1-0.3,0.2C327.8,596.8,327.9,596.7,328,596.7z"/>
		<path fill="#282829" enable-background="new    " d="M320.6,600.4c-0.3,0.1-0.5,0.2-0.8,0.3C320.1,600.6,320.3,600.5,320.6,600.4z
			"/>
		<path fill="#282829" enable-background="new    " d="M306,270.5c2.3,0,4.5-0.2,6.7-0.5l0-0.1c-2.2,0.3-4.4,0.5-6.7,0.5V270.5z"/>
		<path fill="#282829" enable-background="new    " d="M306,262.6v7.8c2.3,0,4.5-0.2,6.7-0.5l-3.3-7.5l-3.3-7.5c-0.1,0-0.1,0-0.2,0
			V262.6z"/>
		<path fill="#282829" enable-background="new    " d="M335.8,259.6L335.8,259.6c10.1-8.4,16.5-21.1,16.5-35.3c0,0,0,0,0-0.1
			C352.3,238.4,345.9,251.1,335.8,259.6z"/>
		<path fill="#282829" enable-background="new    " d="M307.1,193.5l0,0.1c16.4,0.6,29.6,14.1,29.6,30.6c0,0,0,0,0-0.1
			C336.7,207.6,323.5,194,307.1,193.5z"/>
		<path fill="#282829" enable-background="new    " d="M306,178v7.7v5.4l1,2.4c16.4,0.5,29.7,14.1,29.7,30.7c0,0,0,0,0,0.1
			s0,0,0,0.1c0,7.7-2.9,14.7-7.5,20.1l3.3,7.6l3.3,7.6c10.1-8.5,16.5-21.2,16.5-35.4C352.3,198.7,331.6,178,306,178z"/>
		<path fill="#282829" enable-background="new    " d="M135.9,300.1L135.9,300.1c9.4,0,17.7,5,22.3,12.4l0.1,0
			C153.6,305.1,145.4,300.1,135.9,300.1z"/>
		<path fill="#282829" enable-background="new    " d="M135.9,300.1c9.5,0,17.7,5,22.4,12.4l8.6,0l8.2,0c0-0.1-0.1-0.2-0.1-0.3
			c-0.5-1.3-1-2.5-1.6-3.7c-0.6-1.2-1.2-2.4-1.9-3.5s-1.4-2.2-2.2-3.3c-2.8-3.7-6.2-7-10.1-9.6c-1.1-0.7-2.2-1.4-3.4-2.1
			c-2.9-1.6-6.1-2.8-9.4-3.7c-1.3-0.3-2.7-0.6-4.1-0.8c-0.7-0.1-1.4-0.2-2.1-0.3c-1.4-0.1-2.8-0.2-4.2-0.2v7.5V300.1z"/>
		<path fill="#282829" enable-background="new    " d="M167.9,337.8l-8.3,0c-0.2,0.3-0.3,0.7-0.5,1l4.8,6.7l4.6,6.4
			c3.3-4.2,5.7-9,7.2-14.2L167.9,337.8z"/>
		<path fill="#282829" enable-background="new    " d="M143,359.6l-5-6.9c-0.7,0.1-1.4,0.1-2.1,0.1v7.5v7.5c4.1,0,8.1-0.6,11.8-1.7
			L143,359.6z"/>
		<path fill="#282829" enable-background="new    " d="M476.1,300.1L476.1,300.1c-6.4,0-12.2,2.3-16.8,6.1
			C463.9,302.4,469.8,300.1,476.1,300.1z"/>
		<path fill="#282829" enable-background="new    " d="M454.5,311.5c0.6-0.9,1.2-1.7,1.9-2.5c0.9-1,1.9-2,2.9-2.9
			c4.6-3.8,10.4-6.1,16.8-6.1v-7.5V285c-17.7,0-32.8,11-38.8,26.6l8.3,0L454.5,311.5z"/>
		<path fill="#282829" enable-background="new    " d="M436,336.9c1.3,4.8,3.4,9.3,6.1,13.3l4.7-6.6l4.7-6.7l-7.7,0L436,336.9z"/>
		<path fill="#282829" enable-background="new    " d="M476.1,352.8c-1.5,0-3-0.1-4.5-0.4l-4.7,6.7l-4.6,6.5
			c4.3,1.5,8.9,2.3,13.7,2.3v-7.5V352.8z"/>
		<path fill="#282829" enable-background="new    " d="M211.5,494.3c0.8,1.1,1.5,2.2,2.2,3.3C213.1,496.5,212.3,495.4,211.5,494.3z"
			/>
		<path fill="#282829" enable-background="new    " d="M198.3,502.1c0.7,0.8,1.4,1.7,2,2.7l0.1,0
			C199.7,503.8,199.1,502.9,198.3,502.1L198.3,502.1z"/>
		<path fill="#282829" enable-background="new    " d="M213.8,497.6c-0.7-1.1-1.4-2.2-2.2-3.3c-0.4-0.5-0.8-1.1-1.2-1.6
			c-0.8-1-1.7-2-2.7-2.9c-0.9-0.9-1.9-1.8-2.9-2.6l-3.1,7.3l-3.2,7.5c0.7,0.9,1.4,1.8,2,2.7l8.7,0l8.2,0c-0.7-1.9-1.5-3.7-2.5-5.4
			C214.5,498.8,214.1,498.2,213.8,497.6z"/>
		<path fill="#282829" enable-background="new    " d="M181.1,477.8c-0.9-0.1-1.9-0.1-2.9-0.1v6.8L181.1,477.8z"/>
		<path fill="#282829" enable-background="new    " d="M202.3,530c-4.2,9.1-13.4,15.5-24,15.5v7.5v7.5c19.2,0,35.3-12.9,40.1-30.5
			l-7.9,0L202.3,530z"/>
		<path fill="#282829" enable-background="new    " d="M433.2,477.7c-0.9,0-1.7,0-2.5,0.1l2.5,5.9V477.7z"/>
		<path fill="#282829" enable-background="new    " d="M407,486.9c-5.9,4.7-10.4,11-13,18.3l8.1,0l8.6,0c0.8-1.2,1.7-2.4,2.6-3.5
			l-3.3-7.5L407,486.9z"/>
		<path fill="#282829" enable-background="new    " d="M433.2,545.5c-10.4,0-19.5-6.1-23.8-15l-8.3,0l-7.9,0
			c4.9,17.4,21,30.1,40,30.1V553V545.5z"/>
	</g>
</g>
<g id="Layer_3">
	<g id="Layer_4_1_">
	</g>
	<path fill="#9F9FA0" d="M476.1,285v7.5v7.5c8.9,0,16.8,4.5,21.6,11.3l-43.3,0.1l-8.9,0l-8.3,0l-78.9,0.3l-22.7-52.2l0-0.1l-3.3-7.6
		l-3.3-7.6c4.7-5.4,7.5-12.4,7.5-20.1c0,0,0,0,0-0.1c0,7.7-2.9,14.7-7.6,20.1l-22-50.7l0-0.1l-1-2.4v-5.4V178
		c25.5,0,46.3,20.7,46.3,46.2c0,0,0,0,0-0.1c0-25.6-20.7-46.3-46.3-46.3s-46.3,20.7-46.3,46.3c0,13.7,6,26,15.5,34.5l-23,53.5
		l-77.2,0.3l-8.2,0l-8.6,0l-0.1,0l-44.8,0.1c4.7-7.5,13-12.6,22.4-12.6v-7.5V285c-22.9,0-41.6,18.5-41.6,41.4
		c0,22.8,18.6,41.4,41.6,41.4v-7.5v-7.5c0.7,0,1.4,0,2.1-0.1l5,6.9l4.7,6.6c-3.8,1.1-7.7,1.7-11.8,1.7c4.1,0,8.1-0.6,11.9-1.7
		l51,70.6l-17.6,41l-2.9,6.7v-6.8c-22.9,0-41.6,18.5-41.6,41.4c0.1,22.9,18.6,41.4,41.6,41.4V553v-7.5c10.6,0,19.9-6.3,24-15.5
		l8.2,0l7.9,0l43.4,0.1c-6.5,9-10.4,20.1-10.4,32c0,30.2,24.5,54.7,54.7,54.7c18.9,0,35.5-9.6,45.3-24.2
		c-9.8,14.5-26.5,24.1-45.3,24.1V610v-6.8c-22.5,0-40.8-18.3-40.8-40.8c0,0,0,0,0-0.1c0-8.6,2.7-16.6,7.3-23.2l33.6,46.5l0.5,0.7
		l33.2-47c4.5,6.6,7.1,14.5,7.1,23c0,0,0,0,0-0.1c0-8.5-2.6-16.4-7.1-23l4.2-6l2-2.9l4.4,0l0.2,0l42.6,0.1l7.9,0l8.3,0
		c4.3,8.9,13.3,15,23.8,15v7.5v7.5c22.9,0,41.6-18.5,41.6-41.4s-18.6-41.4-41.6-41.4v5.9l-2.5-5.9l-18.1-41.6l49.9-70.6l4.6-6.5
		l4.7-6.7c1.5,0.2,2.9,0.4,4.5,0.4v7.5v7.5c22.9,0,41.6-18.5,41.6-41.4S499.1,285,476.1,285z M135.9,352.7
		c-14.5,0-26.4-11.8-26.4-26.3c0-3.6,0.8-7.1,2.1-10.3l26.3,36.5C137.3,352.7,136.6,352.7,135.9,352.7z M309.4,262.4l3.3,7.5l0,0.1
		l18.2,41.9l-51.1,0.2l18.2-42.4c2.6,0.4,5.2,0.7,7.9,0.7v-7.8v-7.6c0.1,0,0.1,0,0.2,0L309.4,262.4z M305.3,252.9l0.8,1.9
		c0,0-0.1,0-0.1,0c-0.5,0-1,0-1.5,0L305.3,252.9z M303.2,193.6l-21.2,49.5c-4.1-5.2-6.6-11.8-6.6-18.9
		C275.3,208.2,287.6,195,303.2,193.6z M158.4,337.8l1.2,0c-0.2,0.3-0.3,0.7-0.5,1L158.4,337.8z M164,345.5l-4.8-6.7
		c0.2-0.3,0.4-0.7,0.5-1l8.3,0l7.9,0c-1.5,5.2-4,10-7.2,14.2L164,345.5z M168.6,352c3.3-4.2,5.8-9,7.2-14.2l65.5-0.2l-31,72.2
		L168.6,352z M178.3,545.4c-14.5,0-26.4-11.8-26.4-26.3c0-13.2,9.9-24.3,22.7-26.1l-15.8,36.9l43.5,0.1
		C198.1,539.1,188.9,545.4,178.3,545.4z M217.3,504.8l-8.2,0l-8.7,0l-0.1,0l-3.1,0l1.1-2.7l0-0.1l3.2-7.5l3.1-7.3l11.3-26.3l31.8,44
		L217.3,504.8z M306.2,542.7l-0.2-0.3l-8.8-12.2l8.8,0l9,0L306.2,542.7z M332.8,505l-53.8-0.1l-51.3-71.2l41.4-96.3l72.9-0.3
		l41.7,95.8L332.8,505z M453.6,530.6l-16.3-37.5c12.6,2,22.2,12.9,22.2,26c0,14.5-11.9,26.3-26.4,26.3c-10.5,0-19.5-6.1-23.8-14.9
		L453.6,530.6z M413.4,501.7l1.5,3.5l-4.2,0l-8.6,0l-8.1,0l-30.2-0.1l31.6-44.8l11.6,26.6l3.2,7.3L413.4,501.7z M446.8,343.5
		l-4.7,6.6l-41.4,58.7l-31.2-71.7l66.5-0.2l7.8,0l7.7,0L446.8,343.5z M476.1,352.7c-1.5,0-3-0.1-4.4-0.4l27.4-38.8
		c2.1,3.8,3.4,8.2,3.4,12.9C502.5,340.9,490.7,352.7,476.1,352.7z"/>
</g>
</svg>
