<?xml version="1.0" encoding="utf-8"?>
<!-- Generator: Adobe Illustrator 18.0.0, SVG Export Plug-In . SVG Version: 6.00 Build 0)  -->
<!DOCTYPE svg PUBLIC "-//W3C//DTD SVG 1.1//EN" "http://www.w3.org/Graphics/SVG/1.1/DTD/svg11.dtd">
<svg version="1.1" xmlns="http://www.w3.org/2000/svg" xmlns:xlink="http://www.w3.org/1999/xlink" x="0px" y="0px"
	 viewBox="90 180 432 432" enable-background="new 90 180 432 432" xml:space="preserve">
<g id="Layer_5_1_">
	<polygon points="325,410 325,410 325,410.1 	"/>
	<path d="M326.4,410.1L326.4,410.1C326.5,410,326.4,410,326.4,410.1L326.4,410.1z"/>
	<polygon points="322.5,420.1 322.5,420.1 322.5,420.1 	"/>
	<polygon points="323.1,420.5 323.1,420.5 323.1,420.5 	"/>
	<polygon points="323.1,410.7 323.1,410.7 323.1,410.7 	"/>
	<polygon points="324.4,410.2 324.4,410.1 324.4,410.1 	"/>
	<polygon points="322.5,411.1 322.5,411.1 322.5,411.1 	"/>
	<polygon points="327.2,410.1 327.2,410.1 327.1,410.2 	"/>
	<polygon points="331.2,413.9 331.2,413.9 331.2,413.9 	"/>
	<polygon points="330.9,413.2 330.9,413.2 330.9,413.2 	"/>
	<path d="M331.4,414.6C331.4,414.6,331.4,414.6,331.4,414.6l-0.1,0L331.4,414.6z"/>
	<path d="M331.4,415.3L331.4,415.3C331.5,415.3,331.5,415.3,331.4,415.3L331.4,415.3z"/>
	<polygon points="330.6,412.6 330.6,412.6 330.6,412.6 	"/>
	<path d="M331.4,416L331.4,416C331.5,416,331.5,416,331.4,416L331.4,416z"/>
	<path d="M331.3,416.7L331.3,416.7C331.4,416.7,331.4,416.7,331.3,416.7L331.3,416.7z"/>
	<polygon points="330.6,418.6 330.6,418.6 330.6,418.6 	"/>
	<polygon points="330.9,418 330.9,418 330.9,418 	"/>
	<polygon points="331.2,417.3 331.2,417.3 331.2,417.3 	"/>
	<polygon points="324.4,421 324.4,421 324.4,421 	"/>
	<polygon points="329.7,419.7 329.7,419.7 329.7,419.7 	"/>
	<polygon points="327.9,420.8 327.9,420.9 327.9,420.8 	"/>
	<polygon points="328.5,420.6 328.5,420.6 328.5,420.5 	"/>
	<path d="M329.1,420.2C329.1,420.2,329.1,420.2,329.1,420.2L329.1,420.2L329.1,420.2z"/>
	<polygon points="327.2,421.1 327.2,421.1 327.1,421 	"/>
	<path d="M312.1,478.9c1.7,0,3.1-1.4,3.1-3.1s0-7.7,0-7.7c-2.2,3.2-6.2,6-6.2,7.7S310.3,478.9,312.1,478.9z"/>
	<path d="M300.6,478.9c1.7,0,3.1-1.4,3.1-3.1s-4-4.5-6.1-7.7c-0.1,0-0.1,6-0.1,7.7S298.9,478.9,300.6,478.9z"/>
	<path fill="#020202" d="M300.1,411.7c-0.7-3.8-3-7.2-6.1-9.6c-3.1-2.3-7.1-3.5-11.1-3.3c-3.7,0.1-7.3,1.6-10.2,4
		c-1.4-0.1-2.8-0.6-4.1-1.6c-1.4-1-2.7-2.5-3.1-4.3v-0.1c-0.1-0.3-0.3-0.4-0.6-0.4c-0.3,0.1-0.5,0.3-0.5,0.6
		c0.2,2.2,1.4,4.1,2.9,5.6s3.5,2.6,5.7,2.9l0.5,0.1l0.4-0.4c2.3-2.4,5.6-3.9,9.1-4.2c3.5-0.4,7,0.6,9.9,2.5c2.8,1.9,5,4.9,5.8,8.4
		c0.2,0.9,0.4,1.7,0.4,2.6c0,0.3,0,0.6,0,0.9c0,0.6,0,1.1-0.1,1.7c-0.2,1.8-0.8,3.4-1.6,5c0,0.1,0,0.2,0,0.3c0,0.1,0.1,0.3,0.2,0.4
		c0.3,0.1,0.6,0,0.7-0.2c0.9-1.6,1.6-3.4,1.9-5.3c0.2-0.9,0.3-1.9,0.2-2.8C300.4,413.7,300.3,412.6,300.1,411.7z"/>
	<path fill="#020202" d="M346,396.3c-0.3-0.1-0.6,0.1-0.6,0.4c-0.3,1.8-1.5,3.5-2.9,4.7c-1.3,1.1-3,1.9-4.6,2.1
		c-2.9-2.5-6.4-4.1-10.2-4.3c-3.9-0.3-7.8,0.9-11,3.1c-3.1,2.2-5.4,5.6-6.2,9.4c-0.2,0.9-0.4,1.9-0.4,2.8c-0.1,0.9,0,1.9,0.1,2.8
		c0.2,1.8,0.9,3.7,1.8,5.3c0.1,0.2,0.4,0.3,0.9,0.4c0.1,0,0.2-0.1,0.2-0.2c0-0.1,0.1-0.3,0-0.4c-0.8-1.6-1.3-3.4-1.5-5.1
		c-0.1-0.9-0.1-1.7,0-2.6c0-1,0.2-1.8,0.4-2.6c0.8-3.4,3-6.3,5.9-8.2c2.9-1.9,6.3-2.8,9.8-2.4c3.2,0.3,6.3,1.8,8.6,4
		c0.1,0.1,0.1,0.1,0.2,0.2l0.6,0.6l0.7-0.1c2.3-0.5,4.4-1.8,5.9-3.4c1.5-1.6,2.6-3.7,2.7-5.9C346.4,396.6,346.3,396.3,346,396.3z"/>
	<path d="M289.9,417.4C290,417.4,290,417.3,289.9,417.4c0.1-0.2,0.1-0.4,0.2-0.6c0,0,0,0,0,0c0-0.2,0.1-0.5,0.1-0.7c0,0,0,0,0,0
		c0-0.1,0-0.3,0-0.4c0-0.1,0-0.2,0-0.3c0,0,0,0,0,0c0-0.2,0-0.5-0.1-0.7c0,0,0,0,0-0.1c0-0.2-0.1-0.4-0.2-0.7c0,0,0,0,0,0
		c-0.1-0.2-0.2-0.5-0.3-0.7c0,0,0,0,0,0c-0.1-0.2-0.2-0.4-0.3-0.5c0,0-0.1,0-0.1,0c0,0-0.1,0-0.1,0c0,0,0,0,0,0
		c-1.9,0-3.5-1.2-4.2-2.8c-0.2,0-0.3,0-0.5,0c0,0,0,0,0,0c0,0,0,0,0,0c-0.2,0-0.5,0-0.7,0c0,0,0,0-0.1,0c-0.2,0-0.5,0.1-0.7,0.1
		c0,0,0,0-0.1,0c-0.2,0.1-0.4,0.1-0.6,0.2c0,0,0,0-0.1,0c-0.2,0.1-0.5,0.2-0.7,0.3c0,0,0,0,0,0c-0.2,0.1-0.4,0.2-0.6,0.4
		c0,0,0,0,0,0c-0.2,0.1-0.3,0.3-0.5,0.4c0,0,0,0,0,0c-0.2,0.2-0.3,0.3-0.5,0.5c0,0,0,0,0,0c-0.1,0.2-0.3,0.4-0.4,0.6c0,0,0,0,0,0
		c-0.1,0.2-0.2,0.4-0.3,0.6c0,0,0,0,0,0.1c-0.1,0.2-0.2,0.4-0.3,0.7c0,0,0,0,0,0.1c-0.1,0.2-0.1,0.5-0.2,0.7c0,0,0,0,0,0.1
		c0,0.2-0.1,0.5-0.1,0.7c0,0,0,0,0,0c0,0.1,0,0.2,0,0.3c0,0.1,0,0.3,0,0.4c0,0,0,0,0,0c0,0.2,0,0.5,0.1,0.7c0,0,0,0,0,0
		c0,0.2,0.1,0.4,0.2,0.6c0,0,0,0,0,0.1c0.1,0.2,0.2,0.5,0.3,0.7c0,0,0,0,0,0.1c0.1,0.2,0.2,0.4,0.3,0.6c0,0,0,0,0,0
		c0.1,0.2,0.3,0.4,0.4,0.6c0,0,0,0,0,0c0.1,0.2,0.3,0.3,0.5,0.5c0,0,0,0,0,0c0.2,0.1,0.3,0.3,0.5,0.4c0,0,0,0,0,0
		c0.2,0.1,0.4,0.3,0.6,0.4c0,0,0,0,0,0c0.2,0.1,0.4,0.2,0.7,0.3c0,0,0,0,0.1,0c0.2,0.1,0.4,0.1,0.6,0.2c0,0,0,0,0,0
		c0.2,0.1,0.5,0.1,0.7,0.1c0,0,0,0,0,0c0.2,0,0.4,0,0.7,0c0,0,0,0,0,0s0,0,0,0c0.2,0,0.5,0,0.7,0c0,0,0,0,0,0c0.2,0,0.5-0.1,0.7-0.1
		c0,0,0,0,0.1,0c0.2-0.1,0.5-0.1,0.7-0.2c0,0,0,0,0,0c0.2-0.1,0.4-0.2,0.6-0.3c0,0,0,0,0,0c0.2-0.1,0.4-0.2,0.6-0.4c0,0,0,0,0,0
		c0.2-0.1,0.4-0.3,0.5-0.4c0,0,0,0,0,0c0.2-0.1,0.3-0.3,0.4-0.5c0,0,0,0,0,0c0.1-0.2,0.3-0.4,0.4-0.6c0,0,0,0,0,0
		c0.1-0.2,0.2-0.4,0.3-0.6c0,0,0,0,0,0C289.8,417.8,289.9,417.6,289.9,417.4z"/>
	<path d="M326.4,410c-0.2,0-0.4,0-0.6,0c-0.3,0-0.5,0-0.8,0.1v0l0,0c-0.2,0-0.4,0.1-0.6,0.1l0,0l0,0c-0.5,0.1-0.9,0.3-1.3,0.5l0,0
		l0,0c-0.2,0.1-0.4,0.3-0.6,0.4l0,0l0,0c-1.4,1-2.3,2.7-2.3,4.5c0,1.9,0.9,3.5,2.3,4.5l0,0l0,0c0.2,0.1,0.4,0.3,0.6,0.4l0,0l0,0
		c0.4,0.2,0.8,0.4,1.3,0.5l0,0l0,0c0.5,0.1,0.9,0.2,1.4,0.2c0.5,0,0.9-0.1,1.3-0.2l0,0l0,0c0.2-0.1,0.5-0.1,0.7-0.2l0,0l0,0
		c0.2-0.1,0.4-0.2,0.6-0.3l0-0.1l0,0c0.2-0.1,0.4-0.2,0.6-0.4l0-0.1l0.1,0.1c0.2-0.1,0.4-0.3,0.6-0.5l0,0l0,0
		c0.4-0.3,0.7-0.7,0.9-1.1l0,0l0,0c0.1-0.2,0.2-0.4,0.3-0.6l0,0l0,0c0.1-0.2,0.2-0.5,0.3-0.7l0,0l0,0c0.1-0.2,0.1-0.4,0.2-0.6
		l-0.1,0l0.1,0c0-0.2,0.1-0.5,0.1-0.7l-0.1,0l0.1,0c0-0.1,0-0.3,0-0.4c0-0.1,0-0.2,0-0.3l-0.1,0l0.1,0c0-0.2,0-0.5-0.1-0.7l-0.1,0
		l0.1,0c0-0.2-0.1-0.5-0.2-0.7l0,0l0,0c-0.1-0.2-0.2-0.5-0.3-0.7l0,0l0,0c-0.1-0.2-0.2-0.4-0.3-0.6l0,0l0,0c0-0.1-0.1-0.1-0.1-0.2
		c-1.1-0.3-2.1-1.1-2.7-2c-0.2-0.1-0.4-0.1-0.6-0.2l0,0l0,0C326.9,410.1,326.7,410,326.4,410L326.4,410L326.4,410z"/>
</g>
<g id="Layer_4_1_">
	<path fill="#282829" d="M393,412.4c-9-9.3-21-17.1-35.3-22.1c-2.9-1-5.9-1.8-8.8-2.6c-1.5-6.4-4.3-12.2-8.2-17.2c0-0.1,0-0.2,0-0.4
		c0-0.3,0-0.7-0.1-1c-0.2-1.6-0.4-3.1-0.6-4.6c-0.5-4.8-0.5-9,0.4-12.8c0.6-2.5,1.6-4.9,3.3-7.4c1.8-2.5,4.2-5.1,7.1-7.9
		c5.7-5.4,12.7-12.1,16.7-20c0.6-1.1,1.1-2.2,1.6-3.4c3-6.7,4.3-13.7,4.8-20.5c0-0.1,0-0.2,0-0.4l0,0l0-0.1c0-0.1-0.1-0.3-0.2-0.3
		c-0.2-0.1-0.4,0-0.5,0.2c-3.3,7.3-7.6,14-13.2,18.7c-5.5,4.9-11.9,7.5-19.3,10.8c-3.7,1.6-7.8,3.5-12,6.2c-4.1,2.7-8.4,6.5-11.6,11
		c-2.9,3.9-5.1,8.1-6.9,12.4l0,0c-0.2,0.5-0.4,1-0.6,1.5c-0.1,0.2-0.2,0.5-0.3,0.7c-0.1,0.2-0.1,0.3-0.2,0.5
		c-1.1-0.1-2.2-0.2-3.4-0.2c-1.1,0-2.3,0.1-3.4,0.2c-1.9-5.1-4.4-10.3-8-15.1c-3.2-4.4-7.4-8.2-11.6-11c-4.1-2.8-8.2-4.6-12-6.2
		c-4.7-2-8.9-3.8-12.7-6c-1.5-0.9-3-1.9-4.5-3c-0.7-0.5-1.4-1.1-2.1-1.7c-5.5-4.8-9.9-11.5-13.2-18.7l0,0c0-0.1-0.1-0.2-0.3-0.2l0,0
		h0l-0.1,0l-0.1,0.1c-0.1,0.1-0.1,0.2-0.1,0.3c0.5,8,2.2,16.4,6.4,24.2c1,2,2.2,3.9,3.5,5.7c0.7,0.9,1.3,1.8,2,2.7
		c1.1,1.3,2.2,2.6,3.3,3.8c0.4,0.4,0.8,0.8,1.1,1.2c0.8,0.8,1.5,1.6,2.3,2.3c1.5,1.5,3,2.9,4.5,4.3c2.8,2.8,5.3,5.4,7.1,7.9l0,0
		c1,1.5,1.8,2.9,2.3,4.4c0.1,0.2,0.2,0.4,0.2,0.6c0.3,0.8,0.5,1.6,0.7,2.5l0,0c1.1,5,0.8,10.6-0.2,17.5c0,0.1,0,0.3,0,0.5
		c0,0.3-0.1,0.6-0.1,0.9c-3.8,4.9-6.5,10.5-8,16.7c0,0.1-0.1,0.2-0.1,0.4c-2.9,0.7-5.9,1.5-8.9,2.6c-19.5,6.8-35.1,19-44.3,33.1
		c14,4.7,30.9,5.2,48.1,0.7c2.4-0.6,4.8-1.4,7.3-2.2c1.1-0.4,2.1-0.8,3.2-1.2c4.6,7.4,11.2,13.4,19.2,17c-1,2.7-1.5,5.7-1.5,8.9
		c0,6.3,2.2,12,5.8,16.1c0.4,0.5,0.9,1,1.4,1.5c-1.2,1.8-1.9,4.1-1.9,6.5c0,3.3,1.3,6.3,3.3,8.2c-2,2.1-3.2,5-3.2,8.8
		c0,17.7,5.5,33.7,14.4,45.1l0,0l0.1,0.1c8.9-11.4,14.3-27.4,14.3-45.2c0-3.6-1.2-6.5-3.1-8.6c2-2,3.3-5,3.3-8.4
		c0-2.4-0.7-4.7-1.9-6.5c4.3-4.2,7-10.5,7-17.7c0-3.1-0.5-6.1-1.5-8.8c8-3.6,14.8-9.6,19.4-17c0.3,0.1,0.6,0.2,0.9,0.3
		c0.7,0.3,1.4,0.6,2.2,0.9c11,3.8,22.1,5.5,32.5,5.3c8.2-0.1,15.9-1.4,23-3.8C399.5,419.7,396.5,415.9,393,412.4z M269.9,415.6
		c0-8,6.5-14.6,14.6-14.6c8,0,14.5,6.4,14.6,14.4c0-0.3,0-0.6,0-0.9c0-0.9-0.2-1.7-0.4-2.6c-0.8-3.4-3-6.4-5.8-8.4
		c-2.8-1.9-6.3-2.9-9.9-2.5c-3.4,0.3-6.7,1.8-9.1,4.2l-0.4,0.4l-0.5-0.1c-2.2-0.3-4.2-1.4-5.7-2.9s-2.7-3.4-2.9-5.6
		c0-0.3,0.2-0.5,0.5-0.6c0.3,0,0.5,0.1,0.6,0.4v0.1c0.4,1.8,1.7,3.3,3.1,4.3c1.3,0.9,2.7,1.4,4.1,1.6c2.9-2.4,6.5-3.9,10.2-4
		c3.9-0.2,7.9,1,11.1,3.3c3.1,2.3,5.4,5.7,6.1,9.6c0.2,0.9,0.3,2,0.3,2.8c0.1,0.9,0,1.9-0.2,2.8c-0.3,1.9-1,3.7-1.9,5.3
		c-0.1,0.2-0.4,0.3-0.7,0.2c-0.1-0.1-0.2-0.2-0.2-0.4c-0.6,1-1.2,2-2,2.8c-5,0.3-10.2,1.7-15.3,4.2
		C274.2,427.6,269.9,422.1,269.9,415.6z M297.6,468c2.1,3.2,6.1,6,6.1,7.7s-1.4,3.1-3.1,3.1s-3.1-1.4-3.1-3.1S297.5,468,297.6,468z
		 M314.1,479.8c-0.3,0.5-0.8,1-1.3,1.5l0,0.1c0,1.3-3,5.2-6.6,5.2c-3.6,0-6.7-3.7-6.7-5l0-0.2c-0.6-0.5-1.1-1-1.4-1.6
		c-0.4-0.5,0.1-0.6,0.5-0.3c1.2,1.1,2.7,1.2,6.1,1.5c0.6,0,1.1,0.3,1.4,0.6c0.3-0.3,0.8-0.5,1.4-0.6c3.4-0.3,4.9-0.4,6.1-1.5
		C314,479.2,314.5,479.3,314.1,479.8z M315.2,475.8c0,1.7-1.4,3.1-3.1,3.1s-3.1-1.4-3.1-3.1s4-4.5,6.2-7.7
		C315.2,468,315.2,474,315.2,475.8z M343.6,402.7c-1.5,1.6-3.6,2.9-5.9,3.4l-0.7,0.1l-0.6-0.6l-0.2-0.2c2.5,2.6,4.1,6.2,4.1,10.1
		c0,6.5-4.3,12-10.2,13.9c-5.1-2.4-10.3-3.8-15.3-4.2c-0.7-0.8-1.3-1.6-1.8-2.5c0,0.1-0.1,0.2-0.2,0.2c-0.5-0.1-0.8-0.2-0.9-0.4
		c-0.9-1.6-1.6-3.5-1.8-5.3c-0.1-0.9-0.2-1.9-0.1-2.8c0-0.9,0.2-1.9,0.4-2.8c0.8-3.7,3.1-7.1,6.2-9.4c3.1-2.2,7-3.4,11-3.1
		c3.8,0.2,7.3,1.8,10.2,4.3c1.7-0.2,3.3-1,4.6-2.1c1.4-1.2,2.6-2.9,2.9-4.7c0-0.3,0.3-0.5,0.6-0.4c0.3,0,0.4,0.3,0.4,0.5
		C346.3,399,345.2,401.1,343.6,402.7z"/>
	<polygon fill="#282829" points="322.8,424.5 323.7,420.8 322.8,424.5 	"/>
</g>
<g id="Layer_3">
	<path fill="#5B5B5B" d="M313.6,479.5c-1.2,1.1-2.7,1.2-6.1,1.5c-0.6,0-1.1,0.3-1.4,0.6c-0.3-0.3-0.8-0.5-1.4-0.6
		c-3.4-0.3-4.9-0.4-6.1-1.5c-0.4-0.3-0.9-0.2-0.5,0.3c0.4,0.6,0.9,1.1,1.4,1.6c0,0,0,0,0,0c0,0.1,0,0.1,0,0.2c0,1.3,3.1,5,6.7,5
		c3.6,0,6.6-3.9,6.6-5.2c0,0,0-0.1,0-0.1c0,0,0,0,0,0c0.5-0.5,1-1,1.3-1.5C314.5,479.3,314,479.2,313.6,479.5z"/>
</g>
<g id="Layer_1">
	<g id="Layer_5" display="none">
		<g display="inline">
			<g>
				<polygon fill="#FFFFFF" points="489.6,472.8 382.1,580.4 489.6,580.4 				"/>
				<path fill="#939598" d="M489.6,472.8v107.5H382.1L489.6,472.8 M525,387.2l-60.6,60.6L357,555.3l-60.5,60.6h85.6h107.5h35.4
					v-35.4V472.8v-85.6H525z"/>
			</g>
			<g>
				<polygon fill="#FFFFFF" points="122.4,213.2 122.4,320.7 230,213.2 				"/>
				<path fill="#939598" d="M230,213.2L122.4,320.7V213.2H230 M315.6,177.8H230H122.4H87v35.4v107.5v85.6l60.6-60.6L255,238.3
					L315.6,177.8L315.6,177.8z"/>
			</g>
			<g>
				<polygon fill="#FFFFFF" points="489.6,213.2 382.1,213.2 489.6,320.7 				"/>
				<path fill="#939598" d="M489.6,213.2v107.5L382.1,213.2H489.6 M525,177.8h-35.4H382.1h-85.6l60.6,60.6l107.5,107.5l60.6,60.6
					v-85.6V213.2v-35.4H525z"/>
			</g>
			<g>
				<polygon fill="#FFFFFF" points="122.4,580.4 230,580.4 122.4,472.8 				"/>
				<path fill="#939598" d="M122.4,472.8L230,580.4H122.4V472.8 M87,387.3v85.6v107.5v35.4h35.4H230h85.6L255,555.3L147.5,447.8
					L87,387.3L87,387.3z"/>
			</g>
			<g>
				<polygon fill="#FFFFFF" points="489.6,320.7 382.1,213.2 230,213.2 122.4,320.7 122.4,472.8 230,580.4 382.1,580.4 489.6,472.8 
									"/>
				<path fill="#939598" d="M382.1,213.2l107.5,107.5v152.1L382.1,580.4H230L122.4,472.8V320.7L230,213.2H382.1 M396.8,177.8h-14.7
					H230h-14.7l-10.4,10.4L97.4,295.7L87,306v14.7v152.1v14.7l10.4,10.4l107.5,107.5l10.4,10.4H230h152.1h14.7l10.4-10.4
					l107.5-107.5l10.4-10.4v-14.7V320.7V306l-10.4-10.4L407.1,188.1L396.8,177.8L396.8,177.8z"/>
			</g>
		</g>
		<g display="inline">
			<path fill="#D1D3D4" d="M398.8,312.2L523.8,179L393.2,306l107.6-127L383.6,306L478,179L373.9,306L455,179l-90.7,127l67.8-127
				l-77.5,127l54.5-127l-64.2,127l41.2-127l-50.9,127l28.1-127l-37.6,127l14.7-127L316.1,306l1.4-127l-11.1,127L294.6,179l2.2,127
				l-25.2-127l15.5,127l-38.4-127l28.9,127l-51.8-127l42.2,127l-65-127l55.4,127L180,179l68.7,127L157,179l82,127L134.1,179
				l95.3,127L111.1,179l108.6,127L88.2,179l125.7,132.6L88.2,201.9l125.7,119.2L88.2,224.8l125.7,105.8L88.2,247.8l125.7,92.5
				L88.2,270.7l125.7,79l-125.7-56l125.7,65.6L88.2,316.6l125.7,52.2L88.2,339.5l125.7,38.8l-125.7-16l125.7,25.5l-125.7-2.5
				l125.7,12.1L88.2,408.3l125.7-1.4L88.2,431.2l125.7-14.8L88.2,454.1L213.9,426L88.2,477.1l125.7-41.6L88.2,500l125.7-54.9
				L88.2,522.9l125.7-68.4L88.2,545.8L213.9,464L88.2,568.7l125.7-95.2L88.2,591.7l125.7-108.6L88.2,614.6l130.2-127l-107.2,127
				l118.9-127l-96,127l105.4-127l-82.5,127l92.1-127l-69.1,127l78.6-127l-55.7,127l65.2-127l-42.3,127l51.8-127l-28.9,127l38.3-127
				l-15.4,127l25-127l-2,127l11.5-127l11.5,127l-2-127l24.8,127l-15.3-127l38.3,127l-28.9-127l51.7,127l-42.3-127l65.2,127
				l-55.6-127l78.6,127l-69.1-127l92.1,127l-82.5-127l105.4,127l-96-127l118.9,127l-109.4-127l132.3,127L398.8,480.1l125.1,111.7
				l-125.1-121l125.1,98.1L398.8,461.4l125.1,84.4L398.8,452l125.1,70.8l-125.1-80.2l125.1,57.2l-125.1-66.6L523.8,477L398.8,424
				l125.1,30.1l-125.1-39.3l125.1,16.4l-125.1-25.8l125.1,2.8l-125.1-12.2l125.1-10.8l-125.1,1.4l125.1-24.3l-125.1,15.1l125.1-37.9
				l-125.1,28.7l125.1-51.6l-125.1,42.3l125.1-65.2l-125.1,55.8l125.1-78.8l-125.1,69.4l125.1-92.4l-125.1,83.1l125.1-106
				l-125.1,96.7l125.1-119.6L398.8,312.2z"/>
		</g>
	</g>
	<g id="Layer_1_1_" display="none">
		<g display="inline">
			<g>
				<g>
					<path fill="#FFFFFF" d="M306,514.4c26.4,0,47.8,21.4,47.8,47.8S332.4,610,306,610c-26.4,0-47.8-21.4-47.8-47.8
						S279.7,514.4,306,514.4z"/>
					<path fill="#58595B" d="M306,603.1c-22.5,0-40.8-18.3-40.8-40.8c0-22.5,18.3-40.8,40.8-40.8c22.5,0,40.8,18.3,40.8,40.8
						C346.9,584.8,328.6,603.1,306,603.1 M306,616.9c30.2,0,54.6-24.5,54.6-54.7c0-30.2-24.5-54.7-54.6-54.7
						c-30.2,0-54.7,24.5-54.7,54.7C251.3,592.4,275.8,616.9,306,616.9L306,616.9z"/>
				</g>
				<g>
					<path fill="none" d="M346.9,562.2c0-22.5-18.3-40.8-40.8-40.8l0,0v81.8l0,0C328.6,603.1,346.9,584.8,346.9,562.2z"/>
					<path fill="none" d="M265.2,562.2c0,22.5,18.3,40.8,40.8,40.8v-81.8C283.5,521.3,265.2,539.6,265.2,562.2z"/>
					<path opacity="0.75" enable-background="new    " d="M306,521.3c22.5,0,40.8,18.3,40.8,40.8c0,22.5-18.3,40.8-40.8,40.8l0,0
						v13.8l0,0c30.2,0,54.7-24.5,54.7-54.7c0-30.2-24.5-54.7-54.7-54.7l0,0V521.3L306,521.3z"/>
				</g>
			</g>
			<g>
				<g>
					<path fill="#FFFFFF" d="M306,185.7c21.2,0,38.4,17.2,38.4,38.4s-17.2,38.4-38.4,38.4c-21.2,0-38.4-17.2-38.4-38.4
						C267.6,203,284.8,185.7,306,185.7z"/>
					<path fill="#58595B" d="M306,254.8c-16.9,0-30.7-13.8-30.7-30.7s13.8-30.7,30.7-30.7c16.9,0,30.7,13.8,30.7,30.7
						S322.9,254.8,306,254.8 M306,270.4c25.6,0,46.3-20.7,46.3-46.3s-20.7-46.3-46.3-46.3c-25.6,0-46.3,20.7-46.3,46.3
						S280.5,270.4,306,270.4L306,270.4z"/>
				</g>
				<path opacity="0.75" enable-background="new    " d="M306,193.6c16.9,0,30.7,13.8,30.7,30.7s-13.8,30.7-30.7,30.7l0,0v15.6l0,0
					c25.6,0,46.3-20.7,46.3-46.3S331.6,178,306,178l0,0V193.6L306,193.6z"/>
			</g>
			<path fill="none" stroke="#7E6766" stroke-width="16.7727" stroke-miterlimit="10" d="M438.8,479.3"/>
			<g>
				<g>
					<path fill="#FFFFFF" d="M135.9,292.6c18.7,0,34,15.2,34,33.9s-15.2,33.9-34,33.9c-18.7,0-33.9-15.2-33.9-33.9
						C101.9,307.7,117.2,292.6,135.9,292.6z"/>
					<path fill="#58595B" d="M135.9,352.7c-14.5,0-26.4-11.8-26.4-26.3c0-14.5,11.9-26.4,26.4-26.4c14.6,0,26.4,11.8,26.4,26.4
						C162.3,340.9,150.4,352.7,135.9,352.7 M135.9,367.9c22.9,0,41.6-18.5,41.6-41.4c0-22.9-18.6-41.4-41.6-41.4
						s-41.6,18.5-41.6,41.4C94.3,349.3,113,367.9,135.9,367.9L135.9,367.9z"/>
				</g>
				<g>
					<path opacity="0.75" enable-background="new    " d="M135.9,367.9v-15.1c14.5,0,26.4-11.8,26.4-26.4
						c0-14.5-11.9-26.4-26.4-26.4V285c22.9,0,41.6,18.5,41.6,41.4C177.3,349.3,158.8,367.9,135.9,367.9z"/>
				</g>
			</g>
			<g>
				<g>
					<path fill="#FFFFFF" d="M476.1,292.6c-18.7,0-34,15.2-34,33.9s15.2,33.9,34,33.9c18.7,0,33.9-15.2,33.9-33.9
						C510.2,307.7,494.9,292.6,476.1,292.6z"/>
					<path fill="#58595B" d="M476.1,352.7c-14.6,0-26.4-11.8-26.4-26.3c0-14.5,11.9-26.4,26.4-26.4c14.5,0,26.4,11.8,26.4,26.4
						C502.5,340.9,490.7,352.7,476.1,352.7 M476.1,367.9c22.9,0,41.6-18.5,41.6-41.4c0-22.9-18.6-41.4-41.6-41.4
						c-22.9,0-41.6,18.5-41.6,41.4C434.7,349.3,453.2,367.9,476.1,367.9L476.1,367.9z"/>
				</g>
				<g>
					<path opacity="0.75" enable-background="new    " d="M476.1,367.9v-15.1c-14.5,0-26.4-11.8-26.4-26.4
						c0-14.5,11.9-26.4,26.4-26.4V285c-22.9,0-41.6,18.5-41.6,41.4C434.7,349.3,453.2,367.9,476.1,367.9z"/>
				</g>
			</g>
			<g>
				<g>
					<path fill="#FFFFFF" d="M178.3,485.2c18.7,0,34,15.2,34,33.9s-15.2,33.9-34,33.9c-18.7,0-33.9-15.2-33.9-33.9
						S159.5,485.2,178.3,485.2z"/>
					<path fill="#58595B" d="M178.3,545.4c-14.5,0-26.4-11.8-26.4-26.3c0-14.5,11.9-26.4,26.4-26.4c14.6,0,26.4,11.8,26.4,26.4
						C204.6,533.6,192.8,545.4,178.3,545.4 M178.3,560.6c22.9,0,41.6-18.5,41.6-41.4s-18.6-41.4-41.6-41.4s-41.6,18.5-41.6,41.4
						C136.8,542.1,155.3,560.6,178.3,560.6L178.3,560.6z"/>
				</g>
				<g>
					<path opacity="0.75" enable-background="new    " d="M178.3,560.6v-15.1c14.5,0,26.4-11.8,26.4-26.4
						c0-14.5-11.9-26.4-26.4-26.4v-15.1c22.9,0,41.6,18.5,41.6,41.4C219.8,542.1,201.2,560.6,178.3,560.6z"/>
				</g>
			</g>
			<g>
				<g>
					<path fill="#FFFFFF" d="M433.2,485.2c-18.7,0-34,15.2-34,33.9s15.2,33.9,34,33.9c18.7,0,33.9-15.2,33.9-33.9
						S451.9,485.2,433.2,485.2z"/>
					<path fill="#58595B" d="M433.2,545.4c-14.6,0-26.4-11.8-26.4-26.3c0-14.5,11.9-26.4,26.4-26.4s26.4,11.8,26.4,26.4
						C459.5,533.6,447.7,545.4,433.2,545.4 M433.2,560.6c22.9,0,41.6-18.5,41.6-41.4s-18.6-41.4-41.6-41.4
						c-22.9,0-41.6,18.5-41.6,41.4C391.6,542.1,410.2,560.6,433.2,560.6L433.2,560.6z"/>
				</g>
				<g>
					<path opacity="0.75" enable-background="new    " d="M433.2,560.6v-15.1c-14.5,0-26.4-11.8-26.4-26.4
						c0-14.5,11.9-26.4,26.4-26.4v-15.1c-22.9,0-41.6,18.5-41.6,41.4C391.6,542.1,410.2,560.6,433.2,560.6z"/>
				</g>
			</g>
			<path fill="#58595B" d="M306.5,586.2L109.1,312.7l391.6-1.3L306.5,586.2z M158.4,337.8l147.8,204.8l145.3-205.8L158.4,337.8z"/>
			<path fill="#58595B" d="M453.6,530.6l-294.9-0.7L305.1,189L453.6,530.6z M197.2,504.7l217.8,0.5L305.3,252.9L197.2,504.7z"/>
		</g>
	</g>
	<polygon fill="none" points="403.7,235 366.2,370.4 437.3,432.1 366.2,370.4 	"/>
	<polygon fill="none" points="307,583.9 307,584.1 349.2,432.1 349.1,432.1 	"/>
	<polygon fill="none" points="210.1,235 247.5,369.7 175.2,432.1 247.6,369.7 	"/>
	<path fill="#D1D3D4" d="M403.7,235l-97.1,83.7L210.1,235l37.4,134.7l-72.3,62.4h89.5L307,583.9l42.1-151.8h0.1h88.1l-71.1-61.7
		L403.7,235z M393,412.4c3.4,3.5,6.5,7.2,9,11.1c-7,2.4-14.8,3.6-23,3.8c-10.4,0.2-21.5-1.5-32.5-5.3c-0.8-0.3-1.5-0.6-2.2-0.9
		c-0.3-0.1-0.6-0.2-0.9-0.3c-4.6,7.4-11.3,13.4-19.4,17c1,2.7,1.5,5.7,1.5,8.8c0,7.1-2.7,13.4-7,17.7c1.2,1.8,1.9,4.1,1.9,6.5
		c0,3.4-1.3,6.4-3.3,8.4c1.9,2.1,3.1,5,3.1,8.6c0,17.8-5.4,33.8-14.3,45.2c0,0-0.1-0.1-0.1-0.1c0,0,0,0,0,0
		c-8.9-11.4-14.4-27.4-14.4-45.1c0-3.7,1.2-6.6,3.2-8.8c-2-1.9-3.3-4.9-3.3-8.2c0-2.4,0.7-4.7,1.9-6.5c-0.5-0.5-0.9-1-1.4-1.5
		c-3.5-4.1-5.8-9.8-5.8-16.1c0-3.1,0.5-6.1,1.5-8.9c-8-3.6-14.6-9.6-19.2-17c-1.1,0.4-2.1,0.8-3.2,1.2c-2.4,0.8-4.8,1.6-7.3,2.2
		c-17.1,4.6-34.1,4-48.1-0.7c9.2-14.1,24.7-26.3,44.3-33.1c2.9-1.1,5.9-1.9,8.9-2.6c0-0.1,0.1-0.2,0.1-0.4c1.5-6.2,4.2-11.9,8-16.7
		c0-0.3,0.1-0.6,0.1-0.9c0-0.2,0-0.3,0-0.5c1-6.9,1.3-12.5,0.2-17.5c0,0,0,0,0,0c-0.2-0.8-0.4-1.6-0.7-2.5c-0.1-0.2-0.1-0.4-0.2-0.6
		c-0.6-1.5-1.3-2.9-2.3-4.4c0,0,0,0,0,0c-1.8-2.5-4.3-5.1-7.1-7.9c-1.4-1.4-2.9-2.8-4.5-4.3c-0.8-0.8-1.5-1.5-2.3-2.3
		c-0.4-0.4-0.8-0.8-1.1-1.2c-1.1-1.2-2.2-2.5-3.3-3.8c-0.7-0.9-1.4-1.8-2-2.7c-1.3-1.8-2.5-3.7-3.5-5.7c-4.2-7.8-5.9-16.2-6.4-24.2
		c0-0.1,0-0.2,0.1-0.3c0,0,0.1-0.1,0.1-0.1c0,0,0.1,0,0.1,0h0c0,0,0,0,0,0c0.2,0,0.3,0.1,0.3,0.2l0,0c3.3,7.2,7.6,13.9,13.2,18.7
		c0.7,0.6,1.4,1.2,2.1,1.7c1.4,1.1,2.9,2.1,4.5,3c3.9,2.3,8.1,4,12.7,6c3.7,1.6,7.8,3.4,12,6.2c4.1,2.7,8.4,6.5,11.6,11
		c3.5,4.8,6.1,10,8,15.1c1.1-0.1,2.3-0.2,3.4-0.2c1.2,0,2.3,0.1,3.4,0.2c0.1-0.2,0.1-0.3,0.2-0.5c0.1-0.2,0.2-0.5,0.3-0.7
		c0.2-0.5,0.4-1,0.6-1.5c0,0,0,0,0,0c1.8-4.3,4-8.5,6.9-12.4c3.2-4.4,7.4-8.2,11.6-11c4.1-2.7,8.2-4.6,12-6.2
		c7.4-3.2,13.8-5.8,19.3-10.8c5.5-4.7,9.9-11.4,13.2-18.7c0.1-0.2,0.3-0.3,0.5-0.2c0.1,0,0.2,0.2,0.2,0.3c0,0,0,0.1,0,0.1
		c0,0,0,0,0,0c0,0.1,0,0.2,0,0.4c-0.5,6.8-1.8,13.8-4.8,20.5c-0.5,1.1-1,2.3-1.6,3.4c-4,7.9-11,14.6-16.7,20
		c-2.9,2.8-5.3,5.4-7.1,7.9c-1.7,2.5-2.7,4.9-3.3,7.4c-0.8,3.8-0.9,8-0.4,12.8c0.2,1.5,0.3,3,0.6,4.6c0.1,0.4,0.1,0.7,0.1,1
		c0,0.1,0,0.2,0,0.4c3.9,5,6.7,10.8,8.2,17.2c2.9,0.8,5.9,1.6,8.8,2.6C372,395.3,384,403.1,393,412.4z"/>
	<path fill="#D1D3D4" d="M312.8,481.4c0,0,0-0.1,0-0.1c0,0,0,0,0,0C312.7,481.3,312.8,481.3,312.8,481.4z"/>
	<path fill="#D1D3D4" d="M299.4,481.4c0,0.1,0,0.1,0,0.2C299.4,481.5,299.4,481.4,299.4,481.4C299.4,481.4,299.4,481.4,299.4,481.4z
		"/>
	<path fill="#D1D3D4" d="M275.3,422.2l4.2-3.5c0,0,0,0,0,0l-4.9,2.3l4.6-2.9c0,0,0,0,0-0.1l-5.2,1.6l4.9-2.3c0,0,0,0,0-0.1l-5.3,1.1
		l5.1-1.7c0,0,0,0,0,0l-5.4,0.3l5.4-1c0,0,0,0,0,0l-5.5-0.4c0,2.6,0.9,4.9,2.3,6.8c0.5-0.6,1.2-1,2.1-1c0.1,0,0.3,0,0.4,0l2-2.1
		c0,0,0,0,0,0L275.3,422.2z"/>
	<path fill="#D1D3D4" d="M280.2,424.8c-0.1,0.4-0.3,0.7-0.5,1c0.4,0.2,0.9,0.4,1.3,0.5l1.3-5.3c0,0,0,0-0.1,0L280.2,424.8z"/>
	<path fill="#D1D3D4" d="M283.7,404.4c-0.5,0-0.9,0.1-1.4,0.2l1.3,5.3c0,0,0,0,0.1,0V404.4z"/>
	<path fill="#D1D3D4" d="M278.6,415.3l-5.3-1.1l5.4,0.4c0,0,0,0,0-0.1l-5.1-1.7l5.3,1.1c0,0,0,0,0-0.1l-4.9-2.3l5.2,1.6
		c0,0,0,0,0-0.1l-4.6-2.9l4.9,2.3c0,0,0,0,0,0l-4.2-3.5l4.6,2.9c0,0,0,0,0,0l-3.7-4l4.2,3.5c0,0,0,0,0,0l-3.2-4.4l3.7,4c0,0,0,0,0,0
		l-2.6-4.7l3.2,4.4c0,0,0,0,0,0l-1.9-5l2.6,4.7c0,0,0,0,0.1,0l-1.4-5.2l1.9,5c0,0,0,0,0.1,0l-0.7-5.4c-5.2,1-9.2,5.5-9.2,11.1
		L278.6,415.3C278.6,415.3,278.6,415.3,278.6,415.3z"/>
	<path fill="#D1D3D4" d="M282.3,426.7c0.5,0.1,0.9,0.1,1.4,0.2v-5.4c0,0,0,0,0,0L282.3,426.7z"/>
	<path fill="#D1D3D4" d="M281,426.3c0.4,0.1,0.9,0.2,1.3,0.3l0.7-5.4c0,0,0,0,0,0L281,426.3z"/>
	<path fill="#D1D3D4" d="M284.4,409.8l0.1-1.2c0-0.2-0.1-0.5-0.1-0.7c0-0.7,0.1-1.3,0.4-1.9l0.2-1.6c-0.2,0-0.5,0-0.7,0
		s-0.5,0-0.7,0L284.4,409.8C284.4,409.8,284.4,409.8,284.4,409.8C284.4,409.8,284.4,409.8,284.4,409.8z"/>
	<path fill="#D1D3D4" d="M294.9,411.5l-4.9,2.4c0,0,0,0,0,0l5.3-1.1c-0.3-1.3-0.9-2.5-1.6-3.5c-0.2,0.6-0.5,1.1-0.8,1.5l1.4-0.6
		l-1.9,1.2c-0.4,0.3-0.8,0.6-1.3,0.8l-1.4,0.9c0,0,0,0,0,0L294.9,411.5z"/>
	<path fill="#D1D3D4" d="M278.4,421.6c0.2,0.1,0.4,0.2,0.6,0.3l1.4-2c0,0,0,0,0,0L278.4,421.6z"/>
	<path fill="#D1D3D4" d="M295.6,414.2l-5.3,1.1c0,0,0,0,0,0l5.4,0.3c0-1-0.1-1.9-0.4-2.8l-5.2,1.7c0,0,0,0,0,0.1L295.6,414.2z"/>
	<path fill="#D1D3D4" d="M290.2,416l5.4,1l-5.4-0.3c0,0,0,0,0,0l5.2,1.6c0.2-0.9,0.4-1.8,0.4-2.8L290.2,416
		C290.2,416,290.2,416,290.2,416z"/>
	<path fill="#D1D3D4" d="M285.1,404.4v1.2c0.2-0.4,0.5-0.8,0.8-1.1C285.7,404.4,285.4,404.4,285.1,404.4z"/>
	<path fill="#D1D3D4" d="M284.4,421.4l-0.7,5.4c0.2,0,0.5,0,0.7,0s0.5,0,0.7,0L284.4,421.4C284.4,421.4,284.4,421.4,284.4,421.4
		C284.4,421.4,284.4,421.4,284.4,421.4z"/>
	<path fill="#D1D3D4" d="M279.3,422.1c0.2,0.1,0.3,0.3,0.5,0.5l1.2-2.2c0,0,0,0,0,0L279.3,422.1z"/>
	<path fill="#D1D3D4" d="M280,422.9c0.2,0.4,0.3,0.8,0.3,1.2c0,0,0,0,0,0.1l1.3-3.5c0,0,0,0,0,0L280,422.9z"/>
	<path fill="#D1D3D4" d="M290.4,425.1c0.4-0.3,0.8-0.6,1.2-0.9l-3.8-4c0,0,0,0,0,0L290.4,425.1z"/>
	<path fill="#D1D3D4" d="M286.5,426.7c0.5-0.1,0.9-0.2,1.4-0.4l-2-5.1c0,0,0,0-0.1,0L286.5,426.7z"/>
	<path fill="#D1D3D4" d="M291.6,424.2c0.3-0.3,0.7-0.6,1-0.9l-4.2-3.5c0,0,0,0,0,0L291.6,424.2z"/>
	<path fill="#D1D3D4" d="M292.6,423.3c0.3-0.3,0.6-0.7,0.9-1.1l-4.6-2.9c0,0,0,0,0,0L292.6,423.3z"/>
	<path fill="#D1D3D4" d="M285.1,426.8c0.5,0,0.9-0.1,1.4-0.2l-1.4-5.3c0,0,0,0,0,0V426.8z"/>
	<path fill="#D1D3D4" d="M289.2,425.8l-2.6-4.8c0,0,0,0,0,0l1.3,5.3c0.9-0.3,1.7-0.7,2.5-1.2l-3.2-4.4c0,0,0,0,0,0L289.2,425.8z"/>
	<path fill="#D1D3D4" d="M293.5,422.2c0.3-0.4,0.5-0.8,0.7-1.2l-4.9-2.3c0,0,0,0,0,0L293.5,422.2z"/>
	<path fill="#D1D3D4" d="M289.9,417.4l4.9,2.4l-5.2-1.7c0,0,0,0,0,0l4.6,2.9c0.5-0.8,0.8-1.7,1-2.6L289.9,417.4
		C290,417.3,290,417.4,289.9,417.4z"/>
	<path fill="#D1D3D4" d="M325,404.4c-0.5,0-0.9,0.1-1.4,0.2l1.4,5.5c0,0,0,0,0,0V404.4z"/>
	<path fill="#D1D3D4" d="M326.4,404.4c-0.2,0-0.5,0-0.7,0c-0.2,0-0.5,0-0.7,0l0.7,5.6L326.4,404.4z"/>
	<path fill="#D1D3D4" d="M326.4,410C326.4,410,326.5,410,326.4,410l0.6-2.4c0-0.6,0.2-1.2,0.5-1.8l0.3-1.3c-0.5-0.1-0.9-0.1-1.4-0.2
		V410z"/>
	<path fill="#D1D3D4" d="M319.2,421.6l2.2-2.4l-4.7,3l4.3-3.6l-5.1,2.4l4.8-3l-5.4,1.7l5.1-2.4l-5.5,1.1l5.3-1.7l-5.6,0.3l5.6-1
		l-5.6-0.4l5.6-0.3l-5.6-1.1l5.6,0.4l-5.3-1.8l5.5,1.1l-5.1-2.4l5.4,1.7l-4.8-3c-0.9,1.6-1.4,3.5-1.4,5.4c0,0.3,0,0.7,0.1,1
		c0,0.1,0,0.2,0,0.3c0,0.2,0.1,0.5,0.1,0.7c0,0.1,0,0.2,0.1,0.3c0.1,0.2,0.1,0.5,0.2,0.7c0,0.1,0.1,0.2,0.1,0.3
		c0.1,0.3,0.2,0.5,0.3,0.8c0,0,0,0.1,0.1,0.1c0.5,1.3,1.3,2.5,2.2,3.5c0,0,0,0,0,0C317.8,422.5,318.4,421.9,319.2,421.6z"/>
	<path fill="#D1D3D4" d="M320.1,421.4c0.2,0,0.4,0,0.5,0.1l1.3-1.8l-2.1,1.7C319.9,421.4,320,421.4,320.1,421.4z"/>
	<path fill="#D1D3D4" d="M322.5,420.1C322.5,420.1,322.5,420.1,322.5,420.1l-1.4,1.5c0.2,0.1,0.3,0.1,0.5,0.2L322.5,420.1z"/>
	<path fill="#D1D3D4" d="M322.8,424.1c0,0.1,0,0.3,0,0.4l0.9-3.7l-1.2,2.1C322.7,423.3,322.8,423.7,322.8,424.1z"/>
	<path fill="#D1D3D4" d="M322,422.2c0.1,0.1,0.2,0.3,0.4,0.4l0.8-2c0,0,0,0,0,0L322,422.2z"/>
	<path fill="#D1D3D4" d="M321.9,426.2c0.1,0.1,0.3,0.1,0.4,0.2l0.3-1.2C322.5,425.6,322.2,425.9,321.9,426.2z"/>
	<path fill="#D1D3D4" d="M319.8,406.1l3.3,4.5c0,0,0,0,0,0l-2.1-5.2l2.7,4.9l-1.4-5.4l2.1,5.2c0,0,0,0,0,0l-0.8-5.6
		c-2.3,0.5-4.4,1.6-6,3.3l4.3,3.6l-3.3-4.5l3.9,4.1c0,0,0,0,0,0L319.8,406.1z"/>
	<path fill="#D1D3D4" d="M316.7,409l4.7,3l-3.8-4.1c-0.7,0.7-1.2,1.5-1.7,2.3l5.1,2.4L316.7,409z"/>
	<path fill="#D1D3D4" d="M328.3,404.6c-0.2,0-0.3-0.1-0.5-0.1l-0.1,0.9C327.9,405.1,328.1,404.9,328.3,404.6z"/>
	<path fill="#D1D3D4" d="M327.4,409.6c0-0.1-0.1-0.2-0.1-0.4l-0.1,0.9c0,0,0,0,0,0L327.4,409.6z"/>
	<path fill="#D1D3D4" d="M336.6,412.8c-0.1-0.4-0.2-0.9-0.4-1.3l-5,2.4c0,0,0,0,0,0L336.6,412.8z"/>
	<path fill="#D1D3D4" d="M336.2,411.5c-0.1-0.4-0.3-0.7-0.5-1.1c-0.8,1.3-2.3,2.1-3.9,2.2l-0.9,0.6c0,0,0,0,0,0L336.2,411.5z"/>
	<path fill="#D1D3D4" d="M336.9,414.2l-5.4,1.1c0,0,0,0,0,0l5.5,0.3c0-1-0.1-1.9-0.4-2.8l-5.3,1.8c0,0,0,0,0,0L336.9,414.2z"/>
	<path fill="#D1D3D4" d="M330.8,412.5C330.8,412.5,330.7,412.5,330.8,412.5l-0.2,0.1c0,0,0,0,0,0L330.8,412.5z"/>
	<path fill="#D1D3D4" d="M331.5,416l5.5,1l-5.5-0.3c0,0,0,0,0,0l5.3,1.7c0.2-0.9,0.4-1.8,0.4-2.8L331.5,416
		C331.5,416,331.5,416,331.5,416z"/>
	<path fill="#D1D3D4" d="M334.9,422.2c0.3-0.4,0.5-0.8,0.8-1.2l-5-2.4c0,0,0,0,0,0L334.9,422.2z"/>
	<path fill="#D1D3D4" d="M335.6,421c0.2-0.4,0.4-0.8,0.6-1.3l-5.3-1.7c0,0,0,0,0,0L335.6,421z"/>
	<path fill="#D1D3D4" d="M334,423.3c0.3-0.3,0.6-0.7,0.9-1.1l-4.7-3L334,423.3z"/>
	<path fill="#D1D3D4" d="M336.2,419.7c0.2-0.4,0.3-0.8,0.4-1.3l-5.4-1.1c0,0,0,0,0,0L336.2,419.7z"/>
	<path fill="#D1D3D4" d="M322.3,426.3c0.4,0.1,0.9,0.2,1.3,0.3l0.8-5.6c0,0,0,0,0,0L322.3,426.3z"/>
	<path fill="#D1D3D4" d="M333,424.2c0.3-0.3,0.7-0.6,1-0.9l-4.3-3.6c0,0,0,0,0,0L333,424.2z"/>
	<path fill="#D1D3D4" d="M330.6,425.8l-2.7-4.9c0,0,0,0,0,0l1.4,5.5c0.9-0.3,1.7-0.7,2.5-1.2l-3.3-4.6c0,0,0,0,0,0L330.6,425.8z"/>
	<path fill="#D1D3D4" d="M331.8,425.1c0.4-0.3,0.8-0.6,1.2-0.9l-3.9-4.1c0,0,0,0,0,0L331.8,425.1z"/>
	<path fill="#D1D3D4" d="M326.4,426.8c0.5,0,0.9-0.1,1.4-0.2l-1.4-5.4V426.8z"/>
	<path fill="#D1D3D4" d="M325,426.8v-5.6l-1.4,5.4C324.1,426.7,324.6,426.8,325,426.8z"/>
	<path fill="#D1D3D4" d="M325,426.8c0.2,0,0.5,0,0.7,0s0.5,0,0.7,0l-0.7-5.6L325,426.8z"/>
	<path fill="#D1D3D4" d="M327.9,426.7c0.5-0.1,0.9-0.2,1.4-0.4l-2.1-5.2c0,0,0,0,0,0L327.9,426.7z"/>
</g>
<g id="Layer_0">
	<polygon fill="#FFFFFF" points="306.9,584.1 307,583.9 264.8,432.1 	"/>
	<path fill="#FFFFFF" d="M297.4,422.5c0-0.1,0-0.2,0-0.3c0.8-1.6,1.4-3.2,1.6-5c0.1-0.6,0.1-1.1,0.1-1.7c-0.1-8-6.6-14.4-14.6-14.4
		c-8,0-14.6,6.5-14.6,14.6c0,6.5,4.3,12,10.1,13.9c5.1-2.4,10.4-3.8,15.3-4.2C296.1,424.5,296.8,423.5,297.4,422.5z M285.1,404.4
		c0.3,0,0.6,0,0.8,0.1c-0.3,0.3-0.6,0.7-0.8,1.1V404.4z M294.2,421l-4.6-2.9c-0.1,0.2-0.2,0.4-0.3,0.6L294.2,421
		c-0.2,0.4-0.5,0.8-0.7,1.2l-4.2-3.5c-0.1,0.2-0.3,0.4-0.4,0.6l4.6,2.9c-0.3,0.4-0.6,0.7-0.9,1.1l-3.8-3.9c-0.1,0.2-0.3,0.3-0.4,0.5
		l4.2,3.5c-0.3,0.3-0.6,0.6-1,0.9l-3.2-4.4c-0.2,0.2-0.3,0.3-0.5,0.4l3.8,4c-0.4,0.3-0.8,0.6-1.2,0.9l-2.6-4.8
		c-0.2,0.1-0.4,0.3-0.6,0.4l3.2,4.4c-0.8,0.5-1.6,0.9-2.5,1.2l-1.3-5.3c-0.2,0.1-0.4,0.2-0.7,0.2l2,5.1c-0.5,0.1-0.9,0.3-1.4,0.4
		l-0.7-5.4c-0.2,0.1-0.5,0.1-0.7,0.1l1.4,5.3c-0.5,0.1-0.9,0.1-1.4,0.2v-5.4c-0.2,0-0.4,0-0.7,0l0.7,5.4c-0.2,0-0.5,0-0.7,0
		s-0.5,0-0.7,0l0.7-5.4c-0.2,0-0.5,0-0.7,0v5.4c-0.5,0-0.9-0.1-1.4-0.2l1.4-5.3c-0.2,0-0.5-0.1-0.7-0.1l-0.7,5.4
		c-0.4-0.1-0.9-0.2-1.3-0.3l1.9-5.1c-0.2-0.1-0.4-0.1-0.6-0.2l-1.3,5.3c-0.4-0.1-0.9-0.3-1.3-0.5c0.2-0.3,0.4-0.6,0.5-1l2.1-3.8
		c-0.2-0.1-0.5-0.2-0.7-0.3l-1.3,3.5c0,0,0,0,0-0.1c0-0.4-0.1-0.9-0.3-1.2l1.6-2.2c-0.2-0.1-0.4-0.2-0.6-0.4l-1.2,2.2
		c-0.1-0.2-0.3-0.4-0.5-0.5l1.6-1.8c-0.2-0.1-0.3-0.3-0.5-0.4l-1.4,2c-0.2-0.1-0.4-0.2-0.6-0.3l2-1.7c-0.2-0.2-0.3-0.3-0.5-0.5
		l-2,2.1c-0.1,0-0.3,0-0.4,0c-0.9,0-1.6,0.4-2.1,1c-1.5-1.9-2.3-4.3-2.3-6.8c0-5.5,3.9-10.1,9.2-11.1l0.7,5.4
		c0.2-0.1,0.4-0.1,0.7-0.1l-1.3-5.3c0.5-0.1,0.9-0.1,1.4-0.2v5.4c0.2,0,0.4,0,0.7,0l-0.7-5.4c0.2,0,0.5,0,0.7,0s0.5,0,0.7,0
		l-0.2,1.6c-0.3,0.6-0.4,1.2-0.4,1.9c0,0.2,0,0.5,0.1,0.7l-0.1,1.2c0.2,0,0.3,0,0.5,0c0.7,1.6,2.3,2.7,4.2,2.8c0,0,0,0,0,0
		c0,0,0.1,0,0.1,0c0,0,0.1,0,0.1,0c0.1,0.2,0.2,0.4,0.3,0.5l1.4-0.9c0.5-0.2,0.9-0.5,1.3-0.8l1.9-1.2l-1.4,0.6
		c0.4-0.5,0.6-1,0.8-1.5c0.7,1.1,1.3,2.3,1.6,3.5l-5.3,1.1c0.1,0.2,0.1,0.4,0.2,0.7l5.2-1.7c0.2,0.9,0.4,1.8,0.4,2.8
		c0,1-0.1,1.9-0.4,2.8l-5.2-1.6c0,0.2-0.1,0.4-0.1,0.6l5.3,1.1C295.1,419.3,294.7,420.2,294.2,421z"/>
	<path fill="#FFFFFF" d="M279.1,418.1c-0.1-0.2-0.2-0.4-0.3-0.7l-4.9,2.3L279.1,418.1z"/>
	<path fill="#FFFFFF" d="M278.8,413.8c0.1-0.2,0.2-0.5,0.3-0.7l-5.2-1.6L278.8,413.8z"/>
	<path fill="#FFFFFF" d="M280.4,411.3c0.2-0.1,0.3-0.3,0.5-0.4l-3.7-4L280.4,411.3z"/>
	<path fill="#FFFFFF" d="M279.5,412.4c0.1-0.2,0.3-0.4,0.4-0.6l-4.6-2.9L279.5,412.4z"/>
	<path fill="#FFFFFF" d="M278.7,416.7c0-0.2-0.1-0.5-0.1-0.7l-5.4,1L278.7,416.7z"/>
	<path fill="#FFFFFF" d="M278.8,417.4c-0.1-0.2-0.1-0.4-0.2-0.6l-5.1,1.7L278.8,417.4z"/>
	<path fill="#FFFFFF" d="M278.6,415.3c0-0.2,0-0.5,0.1-0.7l-5.4-0.4L278.6,415.3z"/>
	<path fill="#FFFFFF" d="M278.7,414.5c0-0.2,0.1-0.5,0.2-0.7l-5.3-1.1L278.7,414.5z"/>
	<path fill="#FFFFFF" d="M281,410.9c0.2-0.1,0.4-0.3,0.6-0.4l-3.2-4.4L281,410.9z"/>
	<path fill="#FFFFFF" d="M281.6,410.5c0.2-0.1,0.4-0.2,0.7-0.3l-2.6-4.7L281.6,410.5z"/>
	<path fill="#FFFFFF" d="M290.2,416c0,0.2,0,0.5-0.1,0.7l5.4,0.3L290.2,416z"/>
	<path fill="#FFFFFF" d="M282.3,410.1c0.2-0.1,0.4-0.1,0.6-0.2l-1.9-5L282.3,410.1z"/>
	<path fill="#FFFFFF" d="M279.9,411.8c0.1-0.2,0.3-0.3,0.5-0.5l-4.2-3.5L279.9,411.8z"/>
	<path fill="#FFFFFF" d="M290.1,414.6c0,0.2,0.1,0.5,0.1,0.7l5.3-1.1L290.1,414.6z"/>
	<path fill="#FFFFFF" d="M289.7,413.1c0.1,0.2,0.2,0.5,0.3,0.7l4.9-2.4L289.7,413.1z"/>
	<path fill="#FFFFFF" d="M279.5,418.7c-0.1-0.2-0.2-0.4-0.3-0.6l-4.6,2.9L279.5,418.7z"/>
	<path fill="#FFFFFF" d="M287.2,420.7c-0.2,0.1-0.4,0.2-0.6,0.3l2.6,4.8L287.2,420.7z"/>
	<path fill="#FFFFFF" d="M279.9,419.3c-0.1-0.2-0.3-0.4-0.4-0.6l-4.2,3.5L279.9,419.3z"/>
	<path fill="#FFFFFF" d="M294.9,419.7l-4.9-2.4c-0.1,0.2-0.2,0.5-0.3,0.7L294.9,419.7z"/>
	<path fill="#FFFFFF" d="M278.6,415.6c0-0.1,0-0.2,0-0.3l-5.4,0.3l5.5,0.4C278.6,415.9,278.6,415.7,278.6,415.6z"/>
	<path fill="#FFFFFF" d="M279.1,413c0.1-0.2,0.2-0.4,0.3-0.6l-4.9-2.3L279.1,413z"/>
	<path fill="#FFFFFF" d="M290.2,415.6c0,0.1,0,0.3,0,0.4l5.5-0.4l-5.4-0.3C290.2,415.4,290.2,415.5,290.2,415.6z"/>
	<path fill="#FFFFFF" d="M322,422.2L322,422.2l1.2-1.6c-0.2-0.1-0.4-0.3-0.6-0.4l-2.7,5L322,422.2z"/>
	<path fill="#FFFFFF" d="M317.9,403.8c-2.9,1.9-5.1,4.8-5.9,8.2c-0.2,0.8-0.4,1.6-0.4,2.6c-0.1,0.9-0.1,1.7,0,2.6
		c0.2,1.7,0.7,3.5,1.5,5.1c0.1,0.1,0,0.2,0,0.4c0.5,0.9,1.1,1.8,1.8,2.5c5,0.4,10.2,1.8,15.3,4.2c5.9-1.9,10.2-7.4,10.2-13.9
		c0-3.9-1.6-7.5-4.1-10.1c-2.3-2.2-5.3-3.8-8.6-4C324.2,401,320.8,401.9,317.9,403.8z M325.7,404.3c0.2,0,0.5,0,0.7,0l-0.7,5.6
		l-0.7-5.6C325.3,404.3,325.5,404.3,325.7,404.3z M317.6,407.9l3.8,4.1l-4.7-3l4.3,3.6l-5.1-2.4
		C316.4,409.3,316.9,408.5,317.6,407.9z M325,426.8c-0.5,0-0.9-0.1-1.4-0.2l1.4-5.4V426.8z M325.7,426.9c-0.2,0-0.5,0-0.7,0l0.7-5.6
		l0.7,5.6C326.2,426.8,326,426.9,325.7,426.9z M326.4,426.8v-5.6l1.4,5.4C327.4,426.7,326.9,426.8,326.4,426.8z M334,423.3l-3.8-4.1
		l4.7,3C334.6,422.6,334.3,423,334,423.3z M328.3,404.6c-0.2,0.2-0.4,0.5-0.6,0.8l0.1-0.9C328,404.6,328.2,404.6,328.3,404.6z
		 M327.5,405.8c-0.3,0.5-0.4,1.1-0.5,1.8l-0.6,2.4c0.2,0,0.5,0.1,0.7,0.1l0.1-0.9c0,0.1,0.1,0.3,0.1,0.4l-0.2,0.6
		c0.2,0.1,0.4,0.1,0.6,0.2c0.6,1,1.5,1.7,2.7,2c0.1,0.1,0.1,0.1,0.1,0.2l0.2-0.1c0,0,0,0,0.1,0l-0.2,0.1c0.1,0.2,0.2,0.4,0.3,0.6
		l0.9-0.6c1.6,0,3.1-0.9,3.9-2.2c0.2,0.3,0.3,0.7,0.5,1.1l-5.3,1.7c0.1,0.2,0.2,0.5,0.3,0.7l5-2.4c0.2,0.4,0.3,0.8,0.4,1.3l-5.4,1.1
		c0.1,0.2,0.1,0.4,0.2,0.7l5.3-1.8c0.2,0.9,0.4,1.8,0.4,2.8c0,1-0.1,1.9-0.4,2.8l-5.3-1.7c0,0.2-0.1,0.4-0.2,0.6l5.4,1.1
		c-0.1,0.4-0.2,0.9-0.4,1.3l-5-2.4c-0.1,0.2-0.2,0.5-0.3,0.7l5.3,1.7c-0.2,0.4-0.4,0.9-0.6,1.3l-4.7-3c-0.1,0.2-0.2,0.4-0.3,0.6
		l5,2.4c-0.2,0.4-0.5,0.8-0.8,1.2l-4.3-3.6c-0.3,0.4-0.6,0.8-0.9,1.1l4.3,3.6c-0.3,0.3-0.6,0.6-1,0.9l-3.3-4.5
		c-0.2,0.2-0.4,0.3-0.6,0.5l3.9,4.1c-0.4,0.3-0.8,0.6-1.2,0.9l-2.7-4.9c-0.2,0.1-0.4,0.3-0.6,0.4l3.3,4.6c-0.8,0.5-1.6,0.9-2.5,1.2
		l-1.4-5.5c-0.2,0.1-0.5,0.2-0.7,0.2l2.1,5.2c-0.5,0.1-0.9,0.3-1.4,0.4l-0.7-5.6c-0.4,0.1-0.9,0.2-1.3,0.2c-0.5,0-1-0.1-1.4-0.2
		l-0.8,5.6c-0.4-0.1-0.9-0.2-1.3-0.3l2.1-5.3c-0.5-0.1-0.9-0.3-1.3-0.5l-0.8,2l0,0l-1.3,3.2l2.7-4.9l-0.9,3.7v0l-0.5,1.8
		c-0.1,0-0.3-0.1-0.4-0.2l0,0c-1.7-0.6-3.2-1.6-4.4-2.9l0,0c0,0,0,0,0,0c-0.9-1-1.7-2.2-2.2-3.5c0,0,0-0.1-0.1-0.1
		c-0.1-0.3-0.2-0.5-0.3-0.8c0-0.1-0.1-0.2-0.1-0.3c-0.1-0.2-0.1-0.5-0.2-0.7c0-0.1,0-0.2-0.1-0.3c0-0.2-0.1-0.5-0.1-0.7
		c0-0.1,0-0.2,0-0.3c0-0.3-0.1-0.7-0.1-1c0-2,0.5-3.8,1.4-5.4l4.8,3l-5.4-1.7l5.1,2.4l-5.5-1.1l5.3,1.8l-5.6-0.4l5.6,1.1l-5.6,0.3
		l5.6,0.4l-5.6,1l5.6-0.3l-5.3,1.7l5.5-1.1l-5.1,2.4l5.4-1.7l-4.8,3l5.1-2.4l-4.3,3.6l4.7-3l-3.8,4.1l4.3-3.6l-3.3,4.5l2.5-2.6l0,0
		l1.4-1.5c-1.4-1-2.3-2.7-2.3-4.5c0-1.9,0.9-3.5,2.3-4.5l-3.9-4.1l3.3,4.5l-4.3-3.6c1.6-1.7,3.7-2.9,6-3.3l0.8,5.6
		c0.2-0.1,0.4-0.1,0.6-0.1l-1.4-5.5c0.5-0.1,0.9-0.1,1.4-0.2v5.7c0.3,0,0.5-0.1,0.8-0.1c0.2,0,0.4,0,0.6,0v-5.6
		c0.5,0,0.9,0.1,1.4,0.2L327.5,405.8z"/>
	<path fill="#FFFFFF" d="M315.3,419.7c-0.1-0.3-0.2-0.5-0.3-0.8C315.1,419.2,315.2,419.5,315.3,419.7z"/>
	<path fill="#FFFFFF" d="M314.9,418.7c-0.1-0.2-0.1-0.5-0.2-0.7C314.8,418.2,314.8,418.4,314.9,418.7z"/>
	<path fill="#FFFFFF" d="M314.5,416.6c0-0.3-0.1-0.7-0.1-1C314.5,415.9,314.5,416.3,314.5,416.6z"/>
	<path fill="#FFFFFF" d="M319.8,425.2l2.7-5l-0.9,1.7c-0.2-0.1-0.3-0.2-0.5-0.2l-2.5,2.6l3.3-4.5l-1.3,1.8c-0.2,0-0.3-0.1-0.5-0.1
		c-0.1,0-0.2,0-0.3,0l2.1-1.7l-4.3,3.6l3.8-4.1l-2.2,2.4c-0.8,0.3-1.4,0.9-1.7,1.7c1.2,1.3,2.7,2.3,4.4,2.9c0.3-0.3,0.6-0.6,0.7-1
		l-0.3,1.2l0.5-1.8c0-0.1,0-0.3,0-0.4c0-0.4-0.1-0.8-0.3-1.2l1.2-2.1l-2.7,4.9l1.3-3.2c-0.1-0.1-0.2-0.3-0.4-0.4L319.8,425.2z"/>
	<path fill="#FFFFFF" d="M317.5,423.3c-0.9-1-1.7-2.2-2.2-3.5C315.8,421.1,316.6,422.3,317.5,423.3z"/>
	<path fill="#FFFFFF" d="M314.7,417.7c0-0.2-0.1-0.5-0.1-0.7C314.6,417.2,314.6,417.4,314.7,417.7z"/>
	<path fill="#FFFFFF" d="M331.4,414.6c0,0.2,0.1,0.5,0.1,0.7l5.4-1.1L331.4,414.6z"/>
	<path fill="#FFFFFF" d="M331.5,416c0,0.2,0,0.5-0.1,0.7l5.5,0.3L331.5,416z"/>
	<path fill="#FFFFFF" d="M328.5,420.6c-0.2,0.1-0.4,0.2-0.6,0.3l2.7,4.9L328.5,420.6z"/>
	<path fill="#FFFFFF" d="M323.7,410.4l-2.7-4.9l2.1,5.2c0.4-0.2,0.8-0.4,1.3-0.5l-2.1-5.2L323.7,410.4z"/>
	<path fill="#FFFFFF" d="M322.5,411.1c0.2-0.1,0.4-0.3,0.6-0.4l-3.3-4.5L322.5,411.1z"/>
	<path fill="#FFFFFF" d="M331.5,415.6c0,0.1,0,0.3,0,0.4l5.6-0.4l-5.5-0.3C331.5,415.4,331.5,415.5,331.5,415.6z"/>
	<path fill="#FFFFFF" d="M445.3,422.9L380,366.3l35.5-128l10.7-38.5L395.9,226l-89.1,76.9L218.2,226l-30.5-26.5l10.8,38.7
		l35.3,127.3l-66.5,57.3l-24.7,21.3h32.7h80.4l39.6,143.2l11.7,42.2l11.7-42.2l39.7-143.1h79h32.5L445.3,422.9z M349.2,432.1
		l-42.2,152l-0.1-0.2l-0.1,0.2l-42.2-152h-89.5l72.2-62.4L210.1,235l96.5,83.7l97.1-83.7l-37.5,135.4l71.1,61.7H349.2z"/>
</g>
</svg>
