<?xml version="1.0" encoding="utf-8"?>
<!-- Generator: Adobe Illustrator 18.0.0, SVG Export Plug-In . SVG Version: 6.00 Build 0)  -->
<!DOCTYPE svg PUBLIC "-//W3C//DTD SVG 1.1//EN" "http://www.w3.org/Graphics/SVG/1.1/DTD/svg11.dtd">
<svg version="1.1" id="Layer_4" xmlns="http://www.w3.org/2000/svg" xmlns:xlink="http://www.w3.org/1999/xlink" x="0px" y="0px"
	 viewBox="90 180 432 432" enable-background="new 90 180 432 432" xml:space="preserve">
<g id="Layer_2" display="none">
	<path display="inline" opacity="0.23" enable-background="new    " d="M1310.8-2376.4c-16.3,4.4-22.4-1-24.4-8.2
		c-2.3-8.6,1.4-19.3,1.4-19.3c12.5,3.5,25.4,3.8,36.1,1c22.4-5.9,37-25.1,28.5-57.4c-8.6-32.7-42.1-42.2-71.8-34.3
		c-31.9,8.5-59.2,37-48.2,78.2c12,45.2,66.9,122.5,85.4,192.2c32.6,121.7-65.3,210.8-159.4,236c-72.2,19.3-112.8-9.9-125.1-56
		c-19.8-74.4,34-193.2,144.5-222.8c42.9-11.5,67.3,6.9,74.9,35.7c13.3,49.4-21.1,129.5-91.7,148.3c-26.6,7.1-49.6-9.8-54.5-28.3
		c-3.4-12.9,1.7-26.6,19.8-34.3c-3.5,7.4-3.8,14.9-2,21.7c4.7,17.1,23.7,30,46,24.1c49-13,76.9-72.1,66.9-109.9
		c-6.4-24.1-28.1-39.5-69.7-28.3c-84.7,22.7-137.3,127.4-120.3,191c10.2,38.3,45.5,61.5,113.8,43.3
		c77.8-20.8,146.3-97.2,118.7-200.3c-17.7-66.2-65.7-140.8-78.3-188.1c-15.2-56.8,39-110.8,90.7-124.7c35.3-9.3,69.4-0.1,80.2,39.8
		C1382.2-2440.2,1360.7-2389.7,1310.8-2376.4z"/>
	<path display="inline" opacity="0.23" enable-background="new    " d="M1910.5-2528.3c-5,3.7-147.1,72-377.7,153
		c-27.5,48.7-63.2,104.8-97.5,154.1c-16.2,56.8-24.5,108.4-16.9,136.7c4.7,17.1,15,25.5,33.6,20.5c18.4-5,33.9-23.4,33.9-23.4
		c1.3-0.3,2.3-0.1,2.6,1.1c0.3,0.8,0.1,1.8-0.6,3c-22.2,27.1-43.3,41.5-61.3,46.3c-25.8,6.9-40.4-3-46-24.1
		c-14.6-54.5,29.3-184.7,79.3-289.3c-28.8,9.5-58.5,18.8-89.5,28.5c-6.7,0.9-19.4,4.7-22.2-5.5c-0.8-3,0.1-6.1,3.7-6.9
		c38.7-10.3,77.9-22.2,117.3-35c35.6-70.3,72-125.7,91.7-130.9c9.9-2.7,15.6,0,17.6,6.8c4.3,15.9-10.8,53.1-34.8,98.7
		c148.3-53.4,285.3-118.2,363.5-156.5c0,0,5.2-2.8,6.1-3c1.3-0.3,2.7-0.3,3.1,1.4C1917.7-2546,1915.5-2532,1910.5-2528.3z
		 M1485.5-2359c-15.9,35.6-31.3,76.1-43.3,115.2c27.5-38.3,56.4-85.6,79.2-127.5L1485.5-2359z M1560.7-2472.2
		c-17.1,5-41.9,42.9-66.4,94.6c12.2-4.3,24.5-8.4,36.6-13c21-40.7,34.4-72.8,32.4-80C1563.2-2471.9,1562-2472.5,1560.7-2472.2z"/>
	<path display="inline" opacity="0.23" enable-background="new    " d="M1701.3-2324.8c-34.3,54.3-65.7,129.9-58.5,156.5
		c3,11.2,7.9,15.9,14,14.2c12.5-3.4,31.3-32.7,57.1-88c0,0,3.8,0.4,4.5,3.4c0.3,0.9,0.4,1.7,0,3.3c-27.2,63.9-56.7,96.6-78.5,102.4
		c-20.7,5.5-31-0.4-34.1-12.5c-8.6-32.3,31.2-109.2,52.1-142.4c-21.7,1.7-39.1,0.3-52.3-2.6c-10.8,33.7-27.1,73.1-43.2,108.8
		c0,0-4.5,0.3-5.4-2.7c-0.3-1.3,0-3.3,1.6-6.4l5.4-11.1c14.2-29.6,26.1-62.8,33.9-90.5c-19.6-5.8-29.6-16-32.6-27.2
		c-5.4-20.3,12.6-43.9,38-50.7c8.2-2.1,12.8,1.1,14.7,8.5c2.7,10.3-0.1,29-6.4,51.9c8.5,0.6,18.7-0.9,31.2-4.1
		c29.2-7.8,50.6-17.7,50.6-17.7s7.5-1.1,8.8,3.3C1702-2327.7,1701.8-2326.4,1701.3-2324.8z M1591.1-2353.3
		c-10.3,2.7-15.7,13.5-13,23.8c2.3,8.2,9.8,15.9,23.9,19c3.5-16.1,4.7-29.3,2.7-36.7C1602.5-2355,1597-2355,1591.1-2353.3z"/>
	<path display="inline" opacity="0.23" enable-background="new    " d="M1738.3-2264.5c-0.3,9.4,0.6,17.9,2.6,25.1
		c5.1,18.8,18,29.8,41.7,23.4c25.8-6.9,47.2-28.8,61.2-50.4c6.4-10.5,11.8-22.9,18.6-37.3c0,0,3.8,0.4,4.5,3.4
		c0.3,0.8,0.4,1.7,0,3.3c-5.9,14-11.9,26.2-18,37.5c-19.3,34.7-52.3,62.8-82,70.7c-37,9.9-56.1-1.6-62.2-24.4
		c-15.4-58.1,53.3-186.9,118.6-204.4c14.2-3.8,22.1,2,25.2,13C1857.1-2371.3,1817.7-2289.4,1738.3-2264.5z M1805.5-2393.4
		c-32.2,8.6-60.3,67.3-66,114.9l3-0.9c51.1-13.7,86-81.5,79.5-106C1820.1-2392.3,1815-2396,1805.5-2393.4z"/>
	<path display="inline" opacity="0.23" enable-background="new    " d="M2050.9-2461.3c-26.9,32-63.6,141.4-54.1,176.7
		c3,11.2,7.9,15.9,13.9,14.2c12.5-3.4,31.3-32.7,57.1-88c0,0,3.8,0.4,4.5,3.4c0.3,0.8,0.4,1.7-0.1,3.3
		c-27.1,63.9-56.7,96.6-78.5,102.6c-13.7,3.7-27.3,2.7-32-14.4c-8.8-32.7,21.4-109.4,45.2-153c-0.3-1.3-1.3-1-2.1-0.8
		c-11.2,3-88.1,133.6-103.3,159.8c-5.9,10.3-15.3,32.2-28.8,35.7c-8.6,2.3-15.7-1.8-18.3-11.8l72.5-183.3c4-9.3,7.5-9.8,17.4-12.5
		c6.8-1.8,14.4-3,15.4,1c0.3,0.9,0,1.4-0.3,2.4c0,0-25.9,61.8-43.6,122.7c22-38.5,95.5-156.3,131.2-165.9c2.6-0.7,3.8,0.4,4.3,2.1
		C2052-2465.4,2051.6-2462,2050.9-2461.3z"/>
	<path display="inline" opacity="0.23" enable-background="new    " d="M2261-2500.9c-0.9,0.3-5.5-22.5-25.8-17
		c-75.6,20.3-136.6,162.6-128.6,192.8c1.1,4.3,4,6.4,8.4,5.1c34.4-9.2,78.2-79.5,92.5-105.3c5.2-9.6,12.8-26.5,16.7-34
		c2.8-5,12.3-8.8,17.6-10.2c7.8-2.1,15.4-2.7,16.3,0.7c0.1,0.9-0.1,1.4-0.3,2.4c-18.4,45.1-73.8,259.7-180.9,288.3
		c-9.5,2.6-19.3,2-19.8-0.3c-0.4-1.3,2-2.8,7.9-4.8c59.2-19.6,123.3-174.8,121.7-178.9c-0.3-1.3-1.4-2-2.7-1.6
		c-0.9,0.3-1.6,0.8-2.8,3.1c-7.9,13.6-48,75.5-82,84.6c-15.9,4.3-24.8-1.7-28.3-14.6c-13.9-52,66.7-214.1,179.3-244.1
		c15-4,21.7,0.1,23.4,6.7C2276.2-2518.2,2267.4-2502.6,2261-2500.9z"/>
	
		<text transform="matrix(1 0 0 1 8417.7734 -114.7586)" display="inline" font-family="'ArialMT'" font-size="339.7845" letter-spacing="-6">Phil  Jack</text>
	
		<text transform="matrix(1 0 0 1 8417.7734 -114.7586)" display="inline" fill="none" stroke="#000000" stroke-width="2" stroke-miterlimit="10" font-family="'ArialMT'" font-size="339.7845" letter-spacing="-6">Phil  Jack</text>
	
		<text transform="matrix(1 0 0 1 9613.8652 -114.7586)" display="inline" font-family="'ArialMT'" font-size="339.7845" letter-spacing="11">s</text>
	
		<text transform="matrix(1 0 0 1 9613.8652 -114.7586)" display="inline" fill="none" stroke="#000000" stroke-width="2" stroke-miterlimit="10" font-family="'ArialMT'" font-size="339.7845" letter-spacing="11">s</text>
	
		<text transform="matrix(1 0 0 1 9760.9141 -114.7586)" display="inline" font-family="'ArialMT'" font-size="339.7845" letter-spacing="-6">on</text>
	
		<text transform="matrix(1 0 0 1 9760.9141 -114.7586)" display="inline" fill="none" stroke="#000000" stroke-width="2" stroke-miterlimit="10" font-family="'ArialMT'" font-size="339.7845" letter-spacing="-6">on</text>
</g>
<g id="Layer_1_1_">
	<g>
		<g>
			<path d="M252.8,309.6c-12.1,3.8-47.6,20.2-54.4,39c-6.7,19,12.1,22.3,29.7,10.4c13.4-9.1,20.3-19.1,19.9-30.3
				c-0.2-7.4-7.5-9.3-13.3-11.5c-5.7-2-12.3-4.8-12.5-8.8c-0.5-8.1,4.5-12.4,10.6-15c6.1-2.5,9.8,1.8,9.8,4.3c0,2.6-0.8,6.7-4.7,9
				c4.5,0.5,11.6-4.7,11.1-11c-0.5-6.4-8.5-8.1-17-4.3c-8.5,3.8-18.1,11.7-17.4,20.7c0.7,9,24,5,24.2,19.3
				c0.1,10-3.8,18.1-13.4,24.5c-8.2,5.5-20.7,5.5-19.6-8c1.2-16,27.2-28.3,48.5-36.9"/>
			<path d="M314,280.5c1.2-3.2,1.2-5.8,0.1-3.5c-1.1,2.4-5.4,4.8-7.6,6.6c-9,5.3-20.5,11.9-37.7,19.6c2.5-5.6,6.9-16.6,6.3-18.5
				c-0.2-0.8-1-1.1-2.1-0.7c-2.3,0.8-9.2,14.1-12.8,22.8c-4.5,1.9-9.2,3.6-13.7,5.1c-0.4,0.1-0.5,0.5-0.4,0.8
				c0.5,1.2,1.9,0.6,2.7,0.5c3.6-1.4,7-2.7,10.4-4.2c-5,12.9-9.2,28.8-6.9,35.2c0.8,2.5,2.6,4.4,6.8,3.2c4.2-1.7,11.6-6,18.6-33.5
				c1.7,0.1,3.1,0.1,5.6-0.2c-2.3,4.2-6.3,13.7-5,17.4c0.5,1.4,1.8,2,4.2,1.2c0.7-0.2,1.4-0.7,2.1-1.4c-0.1-0.4-0.4-0.8-0.6-1.2
				c-0.6,0.1-1.2-0.5-1.6-1.7c-1.1-3.1,2-12.4,5.6-19.2c0-0.2,0-0.4,0-0.5c-0.1-0.5-1.1-0.4-1.1-0.4s-3.9,3.5-9,3.3
				c0.6-2.7,0.1-5.1-0.4-6.3c-0.2-0.8-0.8-1.2-1.8-0.8c-3,1.1-4.9,4.1-4.1,6.3c0.5,1.3,1.8,2.4,4.2,3c-4.3,18.1-12.2,27.7-15.4,29.2
				c-2.1,1-3.3,0.2-4.1-1.7c-1.2-3.3-0.6-9.5,0.8-16.5c3.7-6.2,7.4-13.1,10.3-19.2c26.9-11.7,38.9-18.9,39.5-19.2
				C309.5,284.9,312.8,283.7,314,280.5z M273.4,309.4c-0.5-1.2,0.1-2.5,1.3-3c0.7-0.2,1.3-0.4,1.7,0.6c0.2,0.8,0.2,2.4,0,4.4
				C274.7,311.3,273.8,310.4,273.4,309.4z M258,321.9c1.1-4.8,2.6-9.8,4.2-14.1l4.2-1.8C264,311.3,261,317.2,258,321.9z
				 M267.3,303.7c-1.4,0.6-2.9,1.3-4.3,1.9c2.5-6.3,8.1-17.5,10-18.3c0.1,0,0.2,0,0.4,0.1C273.8,288.4,269.5,298.7,267.3,303.7z"/>
			<path d="M306.4,314.1c-2.1,4.2-5.8,9.4-9.3,10.6c-4.3,1.6-6.7,0.2-7.6-2.4c-2.4-6.8,4.8-22.8,12.4-25.4c1.7-0.6,2.6,0,3.1,1.3
				c1,2.7-1.2,11.2-6.1,16.8c-2.3,2.6-5.5,6.8-8.1,9.9c-3.9,4.7-4.7,6.9-9.3,7.8c0.8-0.5,2.6-2.9,2.6-2.9c2.3-0.2,3-2.3,5.8-5.8
				c2.5-3.2,6.1-7.5,8-10.1c3.9-5.5,4.9-11.2,4.3-13.1c-0.2-0.8-1-1.2-2-0.8c-3.8,1.3-6.6,8.6-6.9,14.3v1.7c0,1.1,0.2,2.1,0.5,3
				c0.7,2.3,2.4,3.3,5.1,2.4c3-1.1,5.1-5.5,6.7-8.1c3.5-5.7,7.2-17,9.9-18.4c2.7-1.4,0.2,3,0.2,3s-0.6,1.9-2.1,4.3
				C312,304.3,308.9,309.2,306.4,314.1z"/>
			<path d="M328.7,289.7c-3,4.1-6.3,17.4-4.9,21.5c0.5,1.3,1.1,1.8,1.8,1.6c1.4-0.5,5.8-6.2,8.4-13c0,0,0.5,0,0.6,0.4
				c0,0.1,0.1,0.2,0,0.4c-2.6,7.9-8.2,14.1-10.9,14.9c-1.7,0.6-3.2,0.6-3.9-1.4c-1.3-3.8,1.7-13.3,4.1-18.6c0-0.1-0.1-0.1-0.2-0.1
				c-1.3,0.5-9.3,16.7-11,19.9c-0.6,1.3-1.6,3.9-3.1,4.5c-1,0.4-1.9-0.1-2.3-1.2l7-22.4c0.4-1.2,0.8-1.2,2-1.7
				c0.8-0.2,1.7-0.5,1.8,0c0,0.1,0,0.1,0,0.2c0,0-2.5,7.6-4.2,15c2.3-4.8,10-19.5,14.2-20.9c0.4-0.1,0.5,0,0.5,0.2
				C328.8,289.2,328.8,289.6,328.7,289.7z"/>
			<path d="M315.7,333.2c-25.9,3.1-41.8,10.3-43.6,11.1c-1.2,0.6-1.1,0.2-0.8-0.1c4.8-8.6,25.9-10,43.1-14.2
				c17.3-4.2,25.1-13.3,27.8-20.2c2-4.9,3.6-9.2,3.5-9.4c0-0.1-0.2-0.2-0.4-0.1c-0.1,0-0.2,0.1-0.4,0.4c-0.8,1.7-5.1,9.4-9.1,10.7
				c-1.9,0.6-3,0-3.5-1.4c-2.1-6.1,6.1-26.1,19.3-30.7c1.8-0.6,2.6-0.1,2.9,0.6c0.4,1.2-0.5,3.1-1.3,3.3c-0.1,0-0.8-2.6-3.2-1.8
				c-8.8,3.1-14.9,20.5-13.7,24.1c0.1,0.5,0.5,0.7,1.1,0.6c4.1-1.4,8.6-10.1,10.1-13.4c0.6-1.2,1.3-3.2,1.7-4.2
				c0.2-0.6,1.4-1.2,2-1.3c1-0.4,1.8-0.5,1.9,0c0,0.1,0,0.1,0,0.2c-1.1,3.2-3.1,13.1-6.9,22C342.4,317.9,335.5,330.8,315.7,333.2z"
				/>
			<path d="M385.1,263.2l1.4-2.3c0,0-11,5.1-13.1,6.2c-1.1,0.5-2.1,1-3.3,1.6c3.6-7.5,5.8-14,5-16.2c-0.2-0.8-1-1.1-2.3-0.7
				c-2.3,0.7-7.3,10.3-11.3,20.7c-2.6,1.1-5.1,2-7.5,2.9c-0.4,0.1-0.5,0.5-0.4,0.8c0.5,1.2,1.9,0.7,2.7,0.5c1.4-0.6,3-1.2,4.3-1.8
				c-3.6,9.7-6.1,19.6-4.5,24c0.7,2,2.3,2.9,4.9,1.9c2.5-0.8,5.8-5,8.5-12.9c0-0.2,0-0.2,0-0.4c-0.1-0.4-0.6-0.4-0.6-0.4
				c-2.6,6.8-4.5,10.5-6.1,11c-1.1,0.4-1.9-0.1-2.3-1.3c-0.7-2-0.5-6.3,0.5-11.2c2.6-4.5,5.4-9.4,7.8-14.2c1.7-0.7,3.2-1.3,4.7-2
				C378.6,267.2,385.1,263.2,385.1,263.2z M373.3,255c0.2-0.1,0.2,0,0.4,0.1c0.4,1.2-1.7,7.3-4.8,14.1c-1.3,0.6-2.6,1.2-3.8,1.7
				C367.7,262.9,370.9,255.8,373.3,255z M364.2,273.2c1.2-0.5,2.3-1,3.3-1.4c-1.8,3.8-3.8,7.6-5.8,11
				C362.3,279.7,363.3,276.5,364.2,273.2z"/>
			<path d="M381.3,264.3c5.1-14.8,10-27.8,17.7-30.4c1.3-0.5,2.1,0,2.5,1.1c1.6,4.5-5.1,20.4-17.4,29.6c-1.2,3.7-2.1,7.2-3.1,9.7
				c0,0-0.1,0.4,0,0.5c0,0.1,0.1,0.1,0.4,0.1c4.1-5.6,8-9.2,10.4-10c1-0.4,1.8-0.5,2,0.2c0.1,0.5,0.1,1.6-0.5,3.1
				c-1.7,4.7-5,13.8-3.9,16.8c0.5,1.3,1.1,1.8,1.8,1.6c1.4-0.5,3.5-4.2,6.1-11c0,0,0.5,0,0.6,0.4c0,0.1,0.1,0.2,0,0.4
				c-2.7,8.2-6.3,12.8-9.1,13.6c-1.6,0.6-2.9-0.1-3.5-2c-1.6-4.5,5.7-18.5,5.1-20.3c-0.1-0.2-0.2-0.2-0.5-0.1
				c-1.4,0.5-4.2,3.2-7,7.5c-2.7,3.9-5.8,13.5-8.4,17.3c-0.2,0.5-1,0.8-1.6,1.1c-1,0.4-1.9-0.1-2.3-1.2c3.7-7.6,6.8-16.6,9.8-25.1
				L381.3,264.3z M398.2,236c-5,1.8-9.7,14.7-13.1,25.8c10.5-8.1,15.9-21.6,14.7-25.1C399.3,236,398.9,235.8,398.2,236z"/>
			<g>
				<polygon points="391.6,308.6 388.2,309.8 387.8,294.8 391.1,293.7 				"/>
				<polygon points="374.4,314.7 371.2,315.9 370.7,300.9 374,299.7 				"/>
				<polygon points="380.7,312.4 377.4,313.6 376.9,298.7 380.2,297.5 				"/>
				<polygon points="387.6,310 384.4,311.2 383.9,296.3 387.3,295.1 				"/>
				<g>
					<polygon points="376.3,298.9 368.1,301.8 368.2,305.4 376.4,302.4 					"/>
				</g>
				<g>
					<polygon points="396.2,303.2 388.2,306.1 388.2,309.8 396.5,306.9 					"/>
				</g>
				<g>
					<polygon points="396,292 387.9,294.8 388,298.4 396.1,295.6 					"/>
				</g>
				<g>
					<polygon points="395,297.9 388.1,300.3 388.1,304 395.2,301.7 					"/>
				</g>
				<g>
					<polygon points="386.1,301.1 379.1,303.6 379.2,307.3 386.2,304.8 					"/>
				</g>
			</g>
			<g>
				<polygon points="336,280.8 333.2,281.8 332.5,270.1 335.2,269.1 				"/>
				<polygon points="322,286 319.2,287 318.5,275.4 321.3,274.3 				"/>
				<polygon points="327,284.1 324.4,285.1 323.7,273.4 326.4,272.4 				"/>
				<polygon points="332.7,282 330,282.9 329.4,271.3 332,270.3 				"/>
				<g>
					<polygon points="324.4,277.9 326.2,280 330.5,278.6 330.2,275.9 					"/>
				</g>
				<g>
					<polygon points="323.1,273.6 316.4,276.1 316.6,278.9 323.3,276.3 					"/>
				</g>
				<g>
					<polygon points="339.5,267.5 332.9,270 333,272.8 339.7,270.3 					"/>
				</g>
				<g>
					<polygon points="340,276.3 333.3,278.9 333.5,281.7 340.1,279.1 					"/>
				</g>
				<g>
					<polygon points="338.2,272.8 333.5,274.6 333.6,277.3 338.3,275.5 					"/>
				</g>
			</g>
			<g>
				<g>
					<path d="M352.2,322.8c-3.2,1.1-5.1-0.6-5.3-3.8l-0.1-4.8c0-1.6-0.1-4.8,4.4-6.3c3.3-1.2,5.5,1.2,5.6,3.7l0.1,5.1
						C357,319.4,355.4,321.6,352.2,322.8z M351.6,310.8c-0.8,0.4-1.2,1.1-1.2,2.3c0,0.4,0.1,3.9,0.1,3.9c0,1.6,0.2,2.5,1.4,2.1
						c1.2-0.4,1.6-1,1.4-3l-0.1-4.5C353.1,311.1,352.4,310.6,351.6,310.8z"/>
				</g>
			</g>
			<polygon points="360.8,319.4 357.6,320.6 357.1,305.7 360.4,304.5 			"/>
			<g>
				<polygon points="365.3,302.7 357.1,305.7 357.2,309.2 365.4,306.3 				"/>
			</g>
			<g>
				<polygon points="364.2,308.8 357.2,311.2 357.4,314.9 364.5,312.4 				"/>
			</g>
		</g>
		<g>
			<path fill="none" stroke="#010101" stroke-width="1.7026" stroke-linecap="round" stroke-miterlimit="10" d="M383.5,338.9
				c1.7,0,6.3-3.2,10.3-9.1c3.9-5.8,7.9-11.6,14.4-11.8c6.6-0.1,8.2,4.4,8.2,4.4"/>
			<path fill="none" stroke="#010101" stroke-width="1.7026" stroke-linecap="round" stroke-miterlimit="10" d="M420.7,326
				c-3-1.2-6.1-3.9-7.5-12.3c-1.4-8.5-1.9-16.8-1.9-16.8"/>
			<path fill="none" stroke="#010101" stroke-width="1.7026" stroke-linecap="round" stroke-miterlimit="10" d="M425.7,325
				c7-8.4-7.5-25.1-8.6-26.9c-1.1-1.8-0.4-4.4-3-6.7c-2.6-2.3-10.5-2.6-11.6-2c-1.1,0.6-2.4,5.6-2,6.8c0.4,1.2,3.5,4.3,5.8,4.8
				s4.4-1.2,4.4-1.2c0.4-1.7,0.2-3.5,0.2-3.5l-2.5-0.8"/>
			<path fill="none" stroke="#010101" stroke-width="1.7026" stroke-linecap="round" stroke-miterlimit="10" d="M427.6,323.9
				c0,0,0.8,4.4-1.2,7c-2.1,2.6-16.7-2-16.7-2"/>
			<path fill="none" stroke="#010101" stroke-width="1.7026" stroke-linecap="round" stroke-miterlimit="10" d="M401.3,330.4
				c0,0-0.2,12.5-12.9,20.1"/>
			<path fill="none" stroke="#010101" stroke-width="1.7026" stroke-linecap="round" stroke-miterlimit="10" d="M416.3,330.9
				c0,0-5.1,7.4-15.2,3"/>
			<path fill="none" stroke="#010101" stroke-width="1.7026" stroke-linecap="round" stroke-miterlimit="10" d="M416.3,323.9
				c0,0-6.7,9.4-20.4,3.6"/>
		</g>
		<g>
			<g>
				<g>
					<g>
						<g>
							<path fill="#010101" d="M455.9,459.7c0,1.7-1.4,3.1-3.1,3.1l0,0c-1.7,0-3.1-1.4-3.1-3.1v-6.9c0-1.7,1.4-1.6,3.1-1.6l0,0
								c1.7,0,3.1-0.1,3.1,1.7V459.7z"/>
						</g>
						<circle fill="#010101" cx="452.9" cy="449" r="2.1"/>
						<path fill="none" stroke="#010101" stroke-width="1.1375" stroke-linecap="round" stroke-miterlimit="10" d="M450.4,452.4
							c0,0-2.5,1.1-2.5,8.6"/>
						<path fill="none" stroke="#010101" stroke-width="1.1375" stroke-linecap="round" stroke-miterlimit="10" d="M455.1,452.4
							c0,0,2.5,1.1,2.5,8.6"/>
						<g>
							
								<line fill="none" stroke="#010101" stroke-width="1.4721" stroke-linecap="round" stroke-miterlimit="10" x1="451.2" y1="459.2" x2="451.2" y2="472.4"/>
							
								<line fill="none" stroke="#010101" stroke-width="1.4721" stroke-linecap="round" stroke-miterlimit="10" x1="454.5" y1="458.7" x2="454.5" y2="472.4"/>
						</g>
						<g>
							<path fill="#FFFFFF" d="M455,451.2h-0.6v0.7l0,0c0,0.8-0.7,1.6-1.6,1.6c-0.8,0-1.6-0.7-1.6-1.6v-0.7h-0.5
								c0,1.1,0.2,5.1-1.2,5v8.5h2.5h1.4h2.5v-8.5C454.6,456.2,455,452.3,455,451.2z"/>
						</g>
					</g>
					<path fill="#010101" d="M454.3,457.4c0,0.7-0.5,1.4-1.4,1.4c-1,0-1.4-0.7-1.4-1.4c0-0.4,0.1-0.7,0.4-1
						c-0.1-0.2-0.2-0.5-0.2-0.7c0-0.7,0.4-1.1,1.3-1.1c0.8,0,1.3,0.5,1.3,1.1c0,0.2-0.1,0.6-0.2,0.8
						C454.1,456.7,454.3,457.1,454.3,457.4z M453.3,457.4c0-0.2-0.1-0.4-0.5-0.4c-0.2,0-0.5,0.1-0.5,0.4s0.1,0.4,0.5,0.4
						C453.1,457.8,453.3,457.7,453.3,457.4z M452.8,456.2c0.2,0,0.4-0.1,0.4-0.4s-0.1-0.4-0.4-0.4c-0.2,0-0.4,0.1-0.4,0.4
						C452.3,456.1,452.6,456.2,452.8,456.2z"/>
					<rect x="449.7" y="460.4" fill="#010101" width="6.2" height="0.4"/>
				</g>
				<g>
					<g>
						<g>
							<path fill="#010101" d="M429.7,462.6c0,1.3-1.1,2.4-2.4,2.4l0,0c-1.3,0-2.4-1.1-2.4-2.4v-5.3c0-1.3,1.1-1.2,2.4-1.2l0,0
								c1.3,0,2.4-0.1,2.4,1.3V462.6z"/>
						</g>
						<circle fill="#010101" cx="427.4" cy="454.3" r="1.7"/>
						<path fill="none" stroke="#010101" stroke-width="0.7939" stroke-linecap="round" stroke-miterlimit="10" d="M425.5,457
							c0,0-1.9,0.8-1.9,6.6"/>
						<path fill="none" stroke="#010101" stroke-width="0.7939" stroke-linecap="round" stroke-miterlimit="10" d="M429.1,457
							c0,0,1.9,0.8,1.9,6.6"/>
						<g>
							
								<line fill="none" stroke="#010101" stroke-width="1.2702" stroke-linecap="round" stroke-miterlimit="10" x1="426.1" y1="462.2" x2="426.1" y2="472.2"/>
							
								<line fill="none" stroke="#010101" stroke-width="1.2702" stroke-linecap="round" stroke-miterlimit="10" x1="428.6" y1="461.8" x2="428.6" y2="472.4"/>
						</g>
						<g>
							<path fill="#FFFFFF" d="M428.9,456h-0.5v0.6l0,0c0,0.6-0.5,1.2-1.2,1.2c-0.6,0-1.2-0.5-1.2-1.2V456h-0.4c0,0.8,0.2,3.9-1,3.9
								v6.6h2h1.1h2v-6.6C428.7,459.9,428.9,457,428.9,456z"/>
						</g>
					</g>
					<path fill="#010101" d="M427.8,458.7c0.1,0,0.1,0,0.1,0.1v2.7c0,0.1,0,0.1-0.1,0.1h-0.5c-0.1,0-0.1,0-0.1-0.1v-1.9
						c0-0.1,0-0.1-0.1-0.1h-0.2c-0.1,0-0.1,0-0.1-0.1v-0.1c0-0.1,0-0.1,0.1-0.1l0.6-0.4l0,0h0.4V458.7z"/>
					<rect x="424.9" y="462.7" fill="#010101" width="4.8" height="0.4"/>
				</g>
				<g>
					<path fill="none" stroke="#010101" stroke-width="1.0586" stroke-linecap="round" stroke-miterlimit="10" d="M436.7,446.1
						c0,0-1.8-0.5-2.6,2.5c-0.6,1.8-0.5,6-0.5,11"/>
					<g>
						<path fill="#010101" d="M442,453.7c0,1.7-1.4,4.2-3.1,4.2l0,0c-1.7,0-3.1-2.5-3.1-4.2v-6.9c0-1.7,1.4-1.6,3.1-1.6l0,0
							c1.7,0,3.1-0.1,3.1,1.7V453.7z"/>
					</g>
					<circle fill="#010101" cx="439" cy="443.1" r="2.1"/>
					<path fill="none" stroke="#010101" stroke-width="1.0586" stroke-linecap="round" stroke-miterlimit="10" d="M441.1,446.1
						c0,0,1.8-0.5,2.6,2.5c0.6,1.8,0.5,6,0.5,11"/>
					<g>
						
							<line fill="none" stroke="#010101" stroke-width="1.4291" stroke-linecap="round" stroke-miterlimit="10" x1="437.3" y1="453.3" x2="437.3" y2="472.4"/>
						
							<line fill="none" stroke="#010101" stroke-width="1.4291" stroke-linecap="round" stroke-miterlimit="10" x1="440.5" y1="452.8" x2="440.5" y2="472.4"/>
					</g>
					<g>
						<path fill="#FFFFFF" d="M441,445.3h-0.6v0.7l0,0c0,0.8-0.7,1.6-1.6,1.6c-0.8,0-1.6-0.7-1.6-1.6v-0.7h-0.5c0,1.1,0.2,5.1-1.2,5
							v9h2.5h1.4h2.5v-9C440.8,450.3,441,446.3,441,445.3z"/>
					</g>
					<path fill="#010101" d="M437.5,450.3c-0.1,0-0.1-0.1-0.1-0.2c0-0.5,0.2-1.3,1.6-1.3c1,0,1.4,0.6,1.4,1.3c0,0.5-0.2,0.7-0.5,0.8
						c0,0,0,0,0,0.1c0.2,0.1,0.4,0.4,0.5,0.8c0,0.7-0.5,1.3-1.4,1.3c-1.3,0-1.6-0.8-1.6-1.3c0-0.1,0-0.1,0.1-0.2l0.7-0.1
						c0.1,0,0.2,0,0.2,0.1c0,0.2,0.2,0.4,0.5,0.4s0.5-0.2,0.4-0.5c-0.1-0.1-0.4-0.2-0.6-0.4c-0.1,0-0.2-0.1-0.2-0.2v-0.4
						c0-0.1,0.1-0.1,0.2-0.2c0.2,0,0.5-0.1,0.6-0.4s-0.1-0.5-0.4-0.5c-0.2,0-0.5,0.1-0.5,0.4c0,0.1-0.1,0.1-0.2,0.1L437.5,450.3z"/>
					<rect x="435.8" y="454.9" fill="#010101" width="6.2" height="0.4"/>
				</g>
				<g>
					<g>
						<g>
							<path fill="#010101" d="M419.2,458.1c0,1.7-1.4,3.1-3.1,3.1l0,0c-1.7,0-3.1-1.4-3.1-3.1v-6.9c0-1.7,1.4-1.6,3.1-1.6l0,0
								c1.7,0,3.1-0.1,3.1,1.7V458.1z"/>
						</g>
						<circle fill="#010101" cx="416.1" cy="447.4" r="2.1"/>
						<path fill="none" stroke="#010101" stroke-width="1.3727" stroke-linecap="round" stroke-miterlimit="10" d="M413.7,451
							c0,0-2.5,1.1-2.5,8.6"/>
						<path fill="none" stroke="#010101" stroke-width="1.3727" stroke-linecap="round" stroke-miterlimit="10" d="M418.3,451
							c0,0,2.5,1.1,2.5,8.6"/>
						<g>
							
								<line fill="none" stroke="#010101" stroke-width="1.8774" stroke-linecap="round" stroke-miterlimit="10" x1="414.4" y1="457.7" x2="414.4" y2="472.4"/>
							
								<line fill="none" stroke="#010101" stroke-width="1.8774" stroke-linecap="round" stroke-miterlimit="10" x1="417.6" y1="457.1" x2="417.6" y2="472.4"/>
						</g>
						<g>
							<path fill="#FFFFFF" d="M418.2,449.6h-0.6v0.7l0,0c0,0.8-0.7,1.6-1.6,1.6s-1.6-0.7-1.6-1.6v-0.7H414c0,1.1,0.2,5.1-1.2,5v10
								h2.5h1.4h2.5v-10C417.8,454.7,418.2,450.7,418.2,449.6z"/>
						</g>
					</g>
					<path fill="#010101" d="M417.4,454.3c0,0.1-0.1,0.2-0.2,0.2h-1.4c0,0-0.1,0-0.1,0.1v0.1c0,0.1,0.1,0.2,0.2,0.2h0.2
						c1.1,0,1.6,1,1.6,1.4c0,0.6-0.4,1.4-1.6,1.4c-1.3,0-1.6-0.8-1.6-1.3c0-0.1,0-0.1,0.1-0.2l0.7-0.1c0.1,0,0.2,0,0.2,0.1
						c0,0.2,0.2,0.4,0.5,0.4s0.4-0.2,0.4-0.5c0-0.4-0.2-0.5-0.7-0.5h-0.8c-0.1,0-0.2-0.1-0.2-0.2v-2c0-0.1,0.1-0.2,0.2-0.2h2.5
						c0.1,0,0.2,0.1,0.2,0.2v0.8H417.4z"/>
					<rect x="413" y="459.1" fill="#010101" width="6.2" height="0.4"/>
				</g>
				<g>
					<g>
						<path fill="#010101" d="M470.6,459c0,1.9-1.6,3.6-3.6,3.6l0,0c-1.9,0-3.6-1.6-3.6-3.6v-6.8c0-1.9,1.6-1.8,3.6-1.8l0,0
							c1.9,0,3.6-0.1,3.6,1.9V459z"/>
						<circle fill="#010101" cx="467.1" cy="447.9" r="2.5"/>
						<path fill="none" stroke="#010101" stroke-width="1.5686" stroke-linecap="round" stroke-miterlimit="10" d="M464.3,451.9
							c0,0-2.9,0.1-2.9,8.7"/>
						<path fill="none" stroke="#010101" stroke-width="1.5686" stroke-linecap="round" stroke-miterlimit="10" d="M469.7,451.9
							c0,0,2.9,0.1,2.9,8.7"/>
						<g>
							
								<line fill="none" stroke="#010101" stroke-width="2.1454" stroke-linecap="round" stroke-miterlimit="10" x1="465.2" y1="458.5" x2="465.2" y2="472.2"/>
							
								<line fill="none" stroke="#010101" stroke-width="2.1454" stroke-linecap="round" stroke-miterlimit="10" x1="468.9" y1="457.8" x2="468.9" y2="472.4"/>
						</g>
						<path fill="#FFFFFF" d="M469.5,450.4h-0.7v0.8l0,0c0,1-0.8,1.8-1.8,1.8s-1.8-0.8-1.8-1.8v-0.8h-0.6c0,1.3,0.2,5.3-1.4,5.3v8.6
							h2.9h1.6h2.9v-8.6C469.2,455.5,469.5,451.6,469.5,450.4z"/>
					</g>
					<path fill="#010101" d="M467,458.6c-1.3,0-1.4-1.3-1.4-2c0-0.7,0-2,1.4-2c1.3,0,1.4,1.3,1.4,2
						C468.3,457.3,468.3,458.6,467,458.6z M466.6,456.5c0,0.6,0,1.1,0.5,1.1c0.4,0,0.5-0.5,0.5-1.1s0-1.1-0.5-1.1
						S466.6,456,466.6,456.5z"/>
					<rect x="463.6" y="460.1" fill="#010101" width="7" height="0.4"/>
				</g>
			</g>
			
				<line fill="none" stroke="#010101" stroke-width="1.4721" stroke-linecap="round" stroke-miterlimit="10" x1="407.3" y1="434.4" x2="476.2" y2="434.4"/>
			<g>
				<g>
					<g>
						<path fill="#010101" d="M446.5,410.2c0,2.5-2,4.5-4.5,4.5l0,0c-2.5,0-4.5-2-4.5-4.5v-10c0-2.5,2-2.3,4.5-2.3l0,0
							c2.5,0,4.5-0.1,4.5,2.4V410.2z"/>
					</g>
					<circle fill="#010101" cx="442.1" cy="394.6" r="3.2"/>
					<path fill="none" stroke="#010101" stroke-width="1.4977" stroke-linecap="round" stroke-miterlimit="10" d="M438.5,399.4
						c0,0-3.7,1.4-3.7,12.4"/>
					<path fill="none" stroke="#010101" stroke-width="1.4977" stroke-linecap="round" stroke-miterlimit="10" d="M445.2,399.4
						c0,0,3.7,1.4,3.7,12.4"/>
					<g>
						
							<line fill="none" stroke="#010101" stroke-width="2.3962" stroke-linecap="round" stroke-miterlimit="10" x1="439.6" y1="409.6" x2="439.6" y2="428.4"/>
						
							<line fill="none" stroke="#010101" stroke-width="2.3962" stroke-linecap="round" stroke-miterlimit="10" x1="444.3" y1="408.7" x2="444.3" y2="428.7"/>
					</g>
					<g>
						<path fill="#FFFFFF" d="M445.1,397.9h-0.8v1.1l0,0c0,1.2-1,2.3-2.3,2.3c-1.2,0-2.3-1-2.3-2.3v-1.1H439c0,1.7,0.4,7.4-1.8,7.4
							v12.3h3.7h2h3.7v-12.3C444.6,405.1,445.1,399.4,445.1,397.9z"/>
					</g>
				</g>
				<path fill="#010101" d="M442.7,403c0.1,0,0.2,0.1,0.2,0.2v5.1c0,0.1-0.1,0.2-0.2,0.2h-0.8c-0.1,0-0.2-0.1-0.2-0.2v-3.5
					c0-0.1-0.1-0.2-0.2-0.2H441c-0.1,0-0.2-0.1-0.2-0.2V404c0-0.1,0-0.2,0.1-0.2l1.1-0.6h0.1h0.6V403z"/>
				<rect x="437.4" y="410.4" fill="#010101" width="9.1" height="0.7"/>
			</g>
		</g>
		<g>
			<g>
				<g>
					<g>
						<path fill="#010101" d="M176.8,410.2c0,1.7-1.4,3.1-3.1,3.1l0,0c-1.7,0-3.1-1.4-3.1-3.1v-6.9c0-1.7,1.4-1.6,3.1-1.6l0,0
							c1.7,0,3.1-0.1,3.1,1.7V410.2z"/>
					</g>
					<circle fill="#010101" cx="173.7" cy="399.4" r="2.1"/>
					<path fill="none" stroke="#010101" stroke-width="1.1375" stroke-linecap="round" stroke-miterlimit="10" d="M171.3,402.9
						c0,0-2.5,1.1-2.5,8.6"/>
					<path fill="none" stroke="#010101" stroke-width="1.1375" stroke-linecap="round" stroke-miterlimit="10" d="M175.9,402.9
						c0,0,2.5,1.1,2.5,8.6"/>
					<g>
						
							<line fill="none" stroke="#010101" stroke-width="1.4721" stroke-linecap="round" stroke-miterlimit="10" x1="172.1" y1="409.7" x2="172.1" y2="422.8"/>
						
							<line fill="none" stroke="#010101" stroke-width="1.4721" stroke-linecap="round" stroke-miterlimit="10" x1="175.3" y1="409.2" x2="175.3" y2="422.8"/>
					</g>
					<g>
						<path fill="#FFFFFF" d="M175.9,401.7h-0.6v0.7l0,0c0,0.8-0.7,1.6-1.6,1.6c-0.8,0-1.6-0.7-1.6-1.6v-0.7h-0.5
							c0,1.1,0.2,5.1-1.2,5v8.5h2.5h1.4h2.5v-8.5C175.5,406.7,175.9,402.8,175.9,401.7z"/>
					</g>
				</g>
				<path fill="#010101" d="M175,407.9c0,0.7-0.5,1.4-1.4,1.4c-1,0-1.4-0.7-1.4-1.4c0-0.4,0.1-0.7,0.4-1c-0.1-0.2-0.2-0.5-0.2-0.7
					c0-0.7,0.4-1.1,1.3-1.1c0.8,0,1.3,0.5,1.3,1.1c0,0.2-0.1,0.6-0.2,0.8C174.9,407.2,175,407.5,175,407.9z M174.1,407.9
					c0-0.2-0.1-0.4-0.5-0.4c-0.2,0-0.5,0.1-0.5,0.4s0.1,0.4,0.5,0.4C174,408.2,174.1,408.1,174.1,407.9z M173.7,406.7
					c0.2,0,0.4-0.1,0.4-0.4s-0.1-0.4-0.4-0.4c-0.2,0-0.4,0.1-0.4,0.4C173.3,406.6,173.4,406.7,173.7,406.7z"/>
				<rect x="170.6" y="410.9" fill="#010101" width="6.2" height="0.4"/>
			</g>
			<g>
				<g>
					<g>
						<path fill="#010101" d="M150.6,413c0,1.3-1.1,2.4-2.4,2.4l0,0c-1.3,0-2.4-1.1-2.4-2.4v-5.3c0-1.3,1.1-1.2,2.4-1.2l0,0
							c1.3,0,2.4-0.1,2.4,1.3V413z"/>
					</g>
					<circle fill="#010101" cx="148.3" cy="404.8" r="1.7"/>
					<path fill="none" stroke="#010101" stroke-width="0.7939" stroke-linecap="round" stroke-miterlimit="10" d="M146.4,407.4
						c0,0-1.9,0.8-1.9,6.6"/>
					<path fill="none" stroke="#010101" stroke-width="0.7939" stroke-linecap="round" stroke-miterlimit="10" d="M150,407.4
						c0,0,1.9,0.8,1.9,6.6"/>
					<g>
						
							<line fill="none" stroke="#010101" stroke-width="1.2702" stroke-linecap="round" stroke-miterlimit="10" x1="147" y1="412.7" x2="147" y2="422.7"/>
						
							<line fill="none" stroke="#010101" stroke-width="1.2702" stroke-linecap="round" stroke-miterlimit="10" x1="149.5" y1="412.3" x2="149.5" y2="422.8"/>
					</g>
					<g>
						<path fill="#FFFFFF" d="M149.9,406.5h-0.5v0.6l0,0c0,0.6-0.5,1.2-1.2,1.2c-0.6,0-1.2-0.5-1.2-1.2v-0.6h-0.4
							c0,0.8,0.2,3.9-1,3.9v6.6h2h1.1h1.9v-6.6C149.6,410.4,149.9,407.4,149.9,406.5z"/>
					</g>
				</g>
				<path fill="#010101" d="M148.5,409.2c0.1,0,0.1,0,0.1,0.1v2.7c0,0.1,0,0.1-0.1,0.1h-0.5c-0.1,0-0.1,0-0.1-0.1v-1.9
					c0-0.1,0-0.1-0.1-0.1h-0.2c-0.1,0-0.1,0-0.1-0.1v-0.2c0-0.1,0-0.1,0.1-0.1l0.6-0.4l0,0L148.5,409.2L148.5,409.2z"/>
				<rect x="145.8" y="413.1" fill="#010101" width="4.8" height="0.4"/>
			</g>
			<g>
				<path fill="none" stroke="#010101" stroke-width="1.0586" stroke-linecap="round" stroke-miterlimit="10" d="M157.6,396.6
					c0,0-1.8-0.5-2.6,2.5c-0.6,1.8-0.5,6-0.5,11"/>
				<g>
					<path fill="#010101" d="M162.9,404.2c0,1.7-1.4,4.2-3.1,4.2l0,0c-1.7,0-3.1-2.5-3.1-4.2v-6.9c0-1.7,1.4-1.6,3.1-1.6l0,0
						c1.7,0,3.1-0.1,3.1,1.7V404.2z"/>
				</g>
				<circle fill="#010101" cx="159.9" cy="393.6" r="2.1"/>
				<path fill="none" stroke="#010101" stroke-width="1.0586" stroke-linecap="round" stroke-miterlimit="10" d="M162,396.6
					c0,0,1.8-0.5,2.6,2.5c0.6,1.8,0.5,6,0.5,11"/>
				<g>
					
						<line fill="none" stroke="#010101" stroke-width="1.4291" stroke-linecap="round" stroke-miterlimit="10" x1="158.2" y1="403.8" x2="158.2" y2="422.8"/>
					
						<line fill="none" stroke="#010101" stroke-width="1.4291" stroke-linecap="round" stroke-miterlimit="10" x1="161.4" y1="403.2" x2="161.4" y2="422.8"/>
				</g>
				<g>
					<path fill="#FFFFFF" d="M161.9,395.7h-0.6v0.7l0,0c0,0.8-0.7,1.6-1.6,1.6c-0.8,0-1.6-0.7-1.6-1.6v-0.7h-0.5
						c0,1.1,0.2,5.1-1.2,5v9h2.5h1.4h2.5v-9C161.6,400.7,161.9,396.8,161.9,395.7z"/>
				</g>
				<path fill="#010101" d="M158.5,400.7c-0.1,0-0.1-0.1-0.1-0.2c0-0.5,0.2-1.3,1.6-1.3c1,0,1.4,0.6,1.4,1.3c0,0.5-0.2,0.7-0.5,0.8
					c0,0,0,0,0,0.1c0.2,0.1,0.4,0.4,0.5,0.8c0,0.7-0.5,1.3-1.4,1.3c-1.3,0-1.6-0.8-1.6-1.3c0-0.1,0-0.1,0.1-0.2l0.7-0.1
					c0.1,0,0.2,0,0.2,0.1c0,0.2,0.2,0.4,0.5,0.4c0.2,0,0.5-0.2,0.4-0.5c-0.1-0.1-0.4-0.2-0.6-0.4c-0.1,0-0.2-0.1-0.2-0.2V401
					c0-0.1,0.1-0.1,0.2-0.2c0.2,0,0.5-0.1,0.6-0.4s-0.1-0.5-0.4-0.5s-0.5,0.1-0.5,0.4c0,0.1-0.1,0.1-0.2,0.1L158.5,400.7z"/>
				<rect x="156.7" y="405.4" fill="#010101" width="6.2" height="0.4"/>
			</g>
			<g>
				<g>
					<g>
						<path fill="#010101" d="M140.1,408.6c0,1.7-1.4,3.1-3.1,3.1l0,0c-1.7,0-3.1-1.4-3.1-3.1v-6.9c0-1.7,1.4-1.6,3.1-1.6l0,0
							c1.7,0,3.1-0.1,3.1,1.7V408.6z"/>
					</g>
					<circle fill="#010101" cx="137" cy="397.9" r="2.1"/>
					<path fill="none" stroke="#010101" stroke-width="1.3727" stroke-linecap="round" stroke-miterlimit="10" d="M134.6,401.4
						c0,0-2.5,1.1-2.5,8.6"/>
					<path fill="none" stroke="#010101" stroke-width="1.3727" stroke-linecap="round" stroke-miterlimit="10" d="M139.1,401.4
						c0,0,2.5,1.1,2.5,8.6"/>
					<g>
						
							<line fill="none" stroke="#010101" stroke-width="1.8774" stroke-linecap="round" stroke-miterlimit="10" x1="135.3" y1="408.1" x2="135.3" y2="422.8"/>
						
							<line fill="none" stroke="#010101" stroke-width="1.8774" stroke-linecap="round" stroke-miterlimit="10" x1="138.5" y1="407.5" x2="138.5" y2="422.8"/>
					</g>
					<g>
						<path fill="#FFFFFF" d="M139,400h-0.6v0.7l0,0c0,0.8-0.7,1.6-1.6,1.6c-0.8,0-1.6-0.7-1.6-1.6V400h-0.5c0,1.1,0.2,5.1-1.2,5v10
							h2.5h1.4h2.5v-10C138.8,405.1,139,401.2,139,400z"/>
					</g>
				</g>
				<path fill="#010101" d="M138.3,404.8c0,0.1-0.1,0.2-0.2,0.2h-1.6c0,0-0.1,0-0.1,0.1v0.1c0,0.1,0.1,0.2,0.2,0.2h0.2
					c1.1,0,1.6,1,1.6,1.4c0,0.6-0.4,1.4-1.6,1.4c-1.3,0-1.6-0.8-1.6-1.3c0-0.1,0-0.1,0.1-0.2l0.7-0.1c0.1,0,0.2,0,0.2,0.1
					c0,0.2,0.2,0.4,0.5,0.4c0.2,0,0.4-0.2,0.4-0.5c0-0.4-0.2-0.5-0.7-0.5h-0.8c-0.1,0-0.2-0.1-0.2-0.2v-2c0-0.1,0.1-0.2,0.2-0.2h2.5
					c0.1,0,0.2,0.1,0.2,0.2v0.8H138.3z"/>
				<rect x="133.9" y="409.6" fill="#010101" width="6.2" height="0.4"/>
			</g>
			<g>
				<g>
					<path fill="#010101" d="M191.5,409.4c0,1.9-1.6,3.6-3.6,3.6l0,0c-1.9,0-3.6-1.6-3.6-3.6v-6.8c0-1.9,1.6-1.8,3.6-1.8l0,0
						c1.9,0,3.6-0.1,3.6,1.9V409.4z"/>
					<circle fill="#010101" cx="188.1" cy="398.3" r="2.5"/>
					<path fill="none" stroke="#010101" stroke-width="1.5686" stroke-linecap="round" stroke-miterlimit="10" d="M185.2,402.4
						c0,0-2.9,0.1-2.9,8.7"/>
					<path fill="none" stroke="#010101" stroke-width="1.5686" stroke-linecap="round" stroke-miterlimit="10" d="M190.4,402.4
						c0,0,2.9,0.1,2.9,8.7"/>
					<g>
						
							<line fill="none" stroke="#010101" stroke-width="2.1454" stroke-linecap="round" stroke-miterlimit="10" x1="186" y1="409" x2="186" y2="422.7"/>
						
							<line fill="none" stroke="#010101" stroke-width="2.1454" stroke-linecap="round" stroke-miterlimit="10" x1="189.8" y1="408.2" x2="189.8" y2="422.8"/>
					</g>
					<path fill="#FFFFFF" d="M190.3,400.8h-0.7v0.8l0,0c0,1-0.8,1.8-1.8,1.8s-1.8-0.8-1.8-1.8v-0.8h-0.6c0,1.3,0.2,5.3-1.4,5.3v8.6
						h2.9h1.6h2.9v-8.6C190,406,190.3,402,190.3,400.8z"/>
				</g>
				<path fill="#010101" d="M187.8,409.1c-1.3,0-1.4-1.3-1.4-2s0-2,1.4-2c1.3,0,1.4,1.3,1.4,2C189.3,407.8,189.1,409.1,187.8,409.1z
					 M187.5,406.9c0,0.6,0,1.1,0.5,1.1c0.4,0,0.5-0.5,0.5-1.1s0-1.1-0.5-1.1C187.5,405.9,187.5,406.5,187.5,406.9z"/>
				<rect x="184.4" y="410.5" fill="#010101" width="7" height="0.4"/>
			</g>
			
				<line fill="none" stroke="#010101" stroke-width="1.4721" stroke-linecap="round" stroke-miterlimit="10" x1="128.3" y1="428.9" x2="197.1" y2="428.9"/>
			<g>
				<g>
					<g>
						<path fill="#010101" d="M167.3,454c0,2.5-2,4.5-4.5,4.5l0,0c-2.5,0-4.5-2-4.5-4.5v-10c0-2.5,2-2.3,4.5-2.3l0,0
							c2.5,0,4.5-0.1,4.5,2.4V454z"/>
					</g>
					<circle fill="#010101" cx="162.9" cy="438.4" r="3.2"/>
					<path fill="none" stroke="#010101" stroke-width="1.4977" stroke-linecap="round" stroke-miterlimit="10" d="M159.3,443.3
						c0,0-3.7,1.4-3.7,12.4"/>
					<path fill="none" stroke="#010101" stroke-width="1.4977" stroke-linecap="round" stroke-miterlimit="10" d="M166.1,443.3
						c0,0,3.7,1.4,3.7,12.4"/>
					<g>
						
							<line fill="none" stroke="#010101" stroke-width="2.3962" stroke-linecap="round" stroke-miterlimit="10" x1="160.5" y1="453.4" x2="160.5" y2="472.2"/>
						
							<line fill="none" stroke="#010101" stroke-width="2.3962" stroke-linecap="round" stroke-miterlimit="10" x1="165.1" y1="452.5" x2="165.1" y2="472.5"/>
					</g>
					<g>
						<path fill="#FFFFFF" d="M166,441.7h-0.8v1.1l0,0c0,1.2-1,2.3-2.3,2.3c-1.2,0-2.3-1-2.3-2.3v-1.1h-0.7c0,1.7,0.4,7.4-1.8,7.4
							v12.3h3.7h2h3.7v-12.3C165.5,449,166,443.2,166,441.7z"/>
					</g>
				</g>
				<path fill="#010101" d="M163.5,446.8c0.1,0,0.2,0.1,0.2,0.2v5.1c0,0.1-0.1,0.2-0.2,0.2h-0.8c-0.1,0-0.2-0.1-0.2-0.2v-3.5
					c0-0.1-0.1-0.2-0.2-0.2h-0.4c-0.1,0-0.2-0.1-0.2-0.2v-0.5c0-0.1,0-0.2,0.1-0.2l1.1-0.6h0.1h0.6V446.8z"/>
				<rect x="158.3" y="454.2" fill="#010101" width="9.1" height="0.7"/>
			</g>
		</g>
		<g>
			<g>
				<path d="M212.2,390v1.8c0,0.5-0.4,1-1,1h-2.5v23.6c0,0.5-0.4,1-1,1H206c-0.5,0-1-0.5-1-1v-23.6h-2.5c-0.5,0-1-0.4-1-1V390
					c0-0.5,0.4-1,1-1h8.8C211.8,389,212.2,389.5,212.2,390z"/>
				<path d="M219.9,392.7v8.6h5c0.5,0,1,0.4,1,1v1.8c0,0.5-0.4,1-1,1h-5v8.7h5c0.5,0,1,0.4,1,1v1.8c0,0.5-0.4,1-1,1h-6.8
					c-1.1,0-1.8-0.8-1.8-1.8v-24.6c0-1.1,0.8-1.8,1.8-1.8h6.8c0.5,0,1,0.4,1,1v1.8c0,0.5-0.4,1-1,1h-5V392.7z"/>
				<path d="M243.8,395.7v20.7c0,0.5-0.4,1-1,1h-1.8c-0.5,0-1-0.4-1-1V405h-5.8v11.3c0,0.5-0.4,1-1,1h-1.8c-0.5,0-1-0.4-1-1v-20.7
					c0-3.6,3-6.6,6.6-6.6C240.8,389.1,243.8,392.1,243.8,395.7z M240.1,395.7c0-1.6-1.3-2.9-2.9-2.9c-1.7,0-3,1.3-3,2.9v5.7h5.8
					V395.7z"/>
				<path d="M271.1,395.6v20.8c0,0.5-0.4,1-1,1h-1.8c-0.5,0-1-0.5-1-1v-20.8c0-1.6-1.3-2.9-3-2.9c-1.6,0-2.9,1.3-2.9,2.9v20.8
					c0,0.5-0.4,1-1,1h-1.8c-0.5,0-1-0.5-1-1v-20.8c0-1.6-1.3-2.9-2.9-2.9c-1.7,0-3,1.3-3,2.9v20.8c0,0.5-0.4,1-1,1h-1.8
					c-0.5,0-1-0.5-1-1v-20.8c0-3.6,3-6.6,6.6-6.6c1.8,0,3.6,0.8,4.8,2c1.2-1.3,2.9-2,4.8-2C268.2,389,271.1,392,271.1,395.6z"/>
			</g>
			<g>
				<path d="M203.3,452.5c0,0.2-0.2,0.5-0.5,0.5h-1c-0.2,0-0.5-0.2-0.5-0.5v-14c0-0.2,0.2-0.5,0.5-0.5h1c0.2,0,0.5,0.2,0.5,0.5
					V452.5z M202.5,439c0-0.1-0.1-0.1-0.1-0.1h-0.1c-0.1,0-0.1,0.1-0.1,0.1v13c0,0.1,0.1,0.1,0.1,0.1h0.1c0.1,0,0.1-0.1,0.1-0.1V439
					z"/>
				<path d="M212.2,441.6v11c0,0.2-0.2,0.5-0.5,0.5h-1c-0.2,0-0.5-0.2-0.5-0.5v-11c0-0.8-0.7-1.6-1.6-1.6s-1.6,0.7-1.6,1.6v11
					c0,0.2-0.2,0.5-0.5,0.5h-1c-0.2,0-0.5-0.2-0.5-0.5v-11c0-1.9,1.6-3.5,3.5-3.5C210.6,438.1,212.2,439.6,212.2,441.6z
					 M211.3,441.6c0-1.4-1.2-2.6-2.6-2.6s-2.6,1.2-2.6,2.6v10.5c0,0.1,0.1,0.1,0.1,0.1h0.1c0.1,0,0.1-0.1,0.1-0.1v-10.5
					c0-1.3,1.1-2.4,2.4-2.4c1.3,0,2.4,1.1,2.4,2.4v10.5c0,0.1,0.1,0.1,0.1,0.1h0.1c0.1,0,0.1-0.1,0.1-0.1v-10.5H211.3z"/>
				<path d="M221,441.6v7.9c0,1.9-1.6,3.5-3.5,3.5H215c-0.5,0-1-0.5-1-1V439c0-0.6,0.5-1,1-1h2.5C219.6,438.1,221,439.6,221,441.6z
					 M220.3,441.6c0-1.4-1.2-2.6-2.6-2.6h-2.5c-0.1,0-0.1,0.1-0.1,0.1v13c0,0.1,0.1,0.1,0.1,0.1h2.5c1.4,0,2.6-1.2,2.6-2.6V441.6z
					 M219.9,441.6v7.9c0,1.3-1.1,2.4-2.4,2.4h-2.4v-12.7h2.4C218.9,439.2,219.9,440.2,219.9,441.6z M219.1,441.6
					c0-0.8-0.7-1.6-1.6-1.6H216v11h1.6c0.8,0,1.6-0.7,1.6-1.6V441.6z"/>
				<path d="M224.8,452.5c0,0.2-0.2,0.5-0.5,0.5h-1c-0.2,0-0.5-0.2-0.5-0.5v-14c0-0.2,0.2-0.5,0.5-0.5h1c0.2,0,0.5,0.2,0.5,0.5
					V452.5z M224.1,439c0-0.1-0.1-0.1-0.1-0.1h-0.1c-0.1,0-0.1,0.1-0.1,0.1v13c0,0.1,0.1,0.1,0.1,0.1h0.1c0.1,0,0.1-0.1,0.1-0.1V439
					z"/>
				<path d="M233.7,438.6v9.3c0,0.7-0.2,1.3-0.6,1.9l-1.7,2.9c-0.1,0.1-0.2,0.2-0.5,0.2h-1.7c-0.2,0-0.4-0.1-0.5-0.2l-1.7-2.9
					c-0.4-0.6-0.6-1.2-0.6-1.9v-9.3c0-0.2,0.2-0.5,0.5-0.5h1c0.2,0,0.5,0.2,0.5,0.5v9.3c0,0.2,0,0.4,0.1,0.5l1.4,2.6l1.4-2.6
					c0-0.1,0.1-0.4,0.1-0.5v-9.3c0-0.2,0.2-0.5,0.5-0.5h1C233.5,438.1,233.7,438.3,233.7,438.6z M232.9,439c0-0.1-0.1-0.1-0.1-0.1
					h-0.1c-0.1,0-0.1,0.1-0.1,0.1v8.8c0,0,0,0.6-0.4,1.2l-1.6,2.7h-1l-1.6-2.7c-0.4-0.5-0.4-1.2-0.4-1.2V439c0-0.1-0.1-0.1-0.1-0.1
					h-0.1c-0.1,0-0.1,0.1-0.1,0.1v8.8c0,0,0,0.7,0.4,1.3l1.7,2.9l0.1,0.1h1.1c0.1,0,0.1-0.1,0.1-0.1l1.7-2.9
					c0.4-0.6,0.4-1.3,0.4-1.3V439H232.9z"/>
				<path d="M237.6,452.5c0,0.2-0.2,0.5-0.5,0.5h-1c-0.2,0-0.5-0.2-0.5-0.5v-14c0-0.2,0.2-0.5,0.5-0.5h1c0.2,0,0.5,0.2,0.5,0.5
					V452.5z M236.8,439c0-0.1-0.1-0.1-0.1-0.1h-0.1c-0.1,0-0.1,0.1-0.1,0.1v13c0,0.1,0.1,0.1,0.1,0.1h0.1c0.1,0,0.1-0.1,0.1-0.1V439
					z"/>
				<path d="M246.4,441.6v7.9c0,1.9-1.6,3.5-3.5,3.5h-2.5c-0.5,0-1-0.5-1-1V439c0-0.6,0.5-1,1-1h2.5
					C244.9,438.1,246.4,439.6,246.4,441.6z M245.6,441.6c0-1.4-1.2-2.6-2.6-2.6h-2.5c-0.1,0-0.1,0.1-0.1,0.1v13
					c0,0.1,0.1,0.1,0.1,0.1h2.5c1.4,0,2.6-1.2,2.6-2.6V441.6z M245.4,441.6v7.9c0,1.3-1.1,2.4-2.4,2.4h-2.4v-12.7h2.4
					C244.3,439.2,245.4,440.2,245.4,441.6z M244.5,441.6c0-0.8-0.7-1.6-1.6-1.6h-1.6v11h1.6c0.8,0,1.6-0.7,1.6-1.6V441.6z"/>
				<path d="M255.3,438.6v11c0,1.9-1.6,3.5-3.5,3.5c-1.9,0-3.5-1.6-3.5-3.5v-11c0-0.2,0.2-0.5,0.5-0.5h1c0.2,0,0.5,0.2,0.5,0.5v11
					c0,0.8,0.7,1.6,1.6,1.6c0.8,0,1.6-0.7,1.6-1.6v-11c0-0.2,0.2-0.5,0.5-0.5h1C255,438.1,255.3,438.3,255.3,438.6z M254.5,439
					c0-0.1-0.1-0.1-0.1-0.1h-0.1c-0.1,0-0.1,0-0.1,0.1v10.5c0,1.3-1.1,2.4-2.4,2.4c-1.3,0-2.4-1.1-2.4-2.4V439
					c0-0.1-0.1-0.1-0.1-0.1h-0.1c-0.1,0-0.1,0-0.1,0.1v10.5c0,1.4,1.2,2.6,2.6,2.6c1.4,0,2.6-1.2,2.6-2.6V439H254.5z"/>
				<path d="M264.1,441.6v11c0,0.2-0.2,0.5-0.5,0.5h-1c-0.2,0-0.5-0.2-0.5-0.5v-6h-3.1v6c0,0.2-0.2,0.5-0.5,0.5h-1
					c-0.2,0-0.5-0.2-0.5-0.5v-11c0-1.9,1.6-3.5,3.5-3.5C262.5,438.1,264.1,439.6,264.1,441.6z M263.4,441.6c0-1.4-1.2-2.6-2.6-2.6
					c-1.4,0-2.6,1.2-2.6,2.6v10.5c0,0.1,0.1,0.1,0.1,0.1h0.1c0.1,0,0.1-0.1,0.1-0.1v-6.4h4.7v6.4c0,0.1,0,0.1,0.1,0.1h0.1
					c0.1,0,0.1-0.1,0.1-0.1v-10.5H263.4z M263,441.6v3.8h-4.7v-3.8c0-1.3,1.1-2.4,2.4-2.4C261.9,439.3,263,440.2,263,441.6z
					 M262.2,441.6c0-0.8-0.7-1.6-1.6-1.6c-0.8,0-1.6,0.7-1.6,1.6v3h3.1V441.6z"/>
				<path d="M271,451.6v1c0,0.2-0.2,0.5-0.5,0.5H267c-0.6,0-1-0.5-1-1v-13.5c0-0.2,0.2-0.5,0.5-0.5h1c0.2,0,0.5,0.2,0.5,0.5v12.5
					h2.6C270.8,451.1,271,451.3,271,451.6z M270.3,451.9c0-0.1-0.1-0.1-0.1-0.1h-3V439c0-0.1-0.1-0.1-0.1-0.1H267
					c-0.1,0-0.1,0-0.1,0.1v13c0,0.1,0.1,0.1,0.2,0.1h3.1C270.2,452.2,270.3,452.2,270.3,451.9L270.3,451.9z"/>
				<path d="M216.2,460.8v13.4c0,0.2-0.2,0.6-0.6,0.6h-1.2c-0.4,0-0.6-0.2-0.6-0.6v-13.4c0-1.1-0.8-1.9-1.9-1.9
					c-1.1,0-1.9,0.8-1.9,1.9v13.4c0,0.2-0.2,0.6-0.6,0.6h-1.2c-0.4,0-0.6-0.2-0.6-0.6v-13.4c0-1.1-0.8-1.9-1.9-1.9
					c-1.1,0-1.9,0.8-1.9,1.9v13.4c0,0.2-0.2,0.6-0.6,0.6H202c-0.2,0-0.6-0.2-0.6-0.6v-13.4c0-2.3,1.9-4.2,4.3-4.2
					c1.2,0,2.3,0.5,3.1,1.3c0.7-0.8,1.9-1.3,3.1-1.3C214.3,456.6,216.2,458.5,216.2,460.8z M215.3,460.8c0-1.8-1.4-3.2-3.2-3.2
					c-1.4,0-2.6,0.8-3.1,2.1c-0.5-1.2-1.7-2.1-3.1-2.1c-1.8,0-3.2,1.4-3.2,3.2v12.9c0,0.1,0.1,0.1,0.1,0.1h0.1
					c0.1,0,0.2-0.1,0.2-0.1v-12.9c0-1.6,1.3-2.9,2.9-2.9c1.6,0,2.9,1.3,2.9,2.9v12.9c0,0.1,0.1,0.1,0.1,0.1h0.1
					c0.1,0,0.1-0.1,0.1-0.1v-12.9c0-1.6,1.3-2.9,2.9-2.9s2.9,1.3,2.9,2.9v12.9c0,0.1,0.1,0.1,0.2,0.1h0.1c0.1,0,0.1-0.1,0.1-0.1
					v-12.9H215.3z"/>
				<path d="M220.9,459v5.6h3.2c0.4,0,0.6,0.2,0.6,0.6v1.2c0,0.4-0.2,0.6-0.6,0.6h-3.2v5.6h3.2c0.4,0,0.6,0.2,0.6,0.6v1.2
					c0,0.4-0.2,0.6-0.6,0.6h-4.4c-0.7,0-1.2-0.6-1.2-1.2v-15.9c0-0.7,0.5-1.2,1.2-1.2h4.4c0.4,0,0.6,0.2,0.6,0.6v1.2
					c0,0.4-0.2,0.6-0.6,0.6h-3.2V459z M219.8,465.4v-7.5h3.7c0.1,0,0.1,0,0.1-0.1v-0.1c0-0.1-0.1-0.1-0.1-0.1h-3.8
					c-0.1,0-0.2,0.1-0.2,0.2v15.9c0,0.1,0.1,0.2,0.2,0.2h3.8c0.1,0,0.1-0.1,0.1-0.1v-0.1c0-0.1-0.1-0.2-0.1-0.2h-3.7v-7.5h3.7
					c0.1,0,0.1,0,0.1-0.1v-0.1c0-0.1-0.1-0.1-0.1-0.1h-3.7V465.4z"/>
				<path d="M241.5,460.8v13.4c0,0.2-0.2,0.6-0.6,0.6h-1.2c-0.4,0-0.6-0.2-0.6-0.6v-13.4c0-1.1-0.8-1.9-1.9-1.9s-1.9,0.8-1.9,1.9
					v13.4c0,0.2-0.2,0.6-0.6,0.6h-1.2c-0.4,0-0.6-0.2-0.6-0.6v-13.4c0-1.1-0.8-1.9-1.9-1.9c-1.1,0-1.9,0.8-1.9,1.9v13.4
					c0,0.2-0.2,0.6-0.6,0.6h-1.2c-0.2,0-0.6-0.2-0.6-0.6v-13.4c0-2.3,1.9-4.2,4.3-4.2c1.2,0,2.3,0.5,3.1,1.3
					c0.7-0.8,1.9-1.3,3.1-1.3C239.6,456.6,241.5,458.5,241.5,460.8z M240.5,460.8c0-1.8-1.4-3.2-3.2-3.2c-1.4,0-2.6,0.8-3.1,2.1
					c-0.5-1.2-1.7-2.1-3.1-2.1c-1.8,0-3.2,1.4-3.2,3.2v12.9c0,0.1,0.1,0.1,0.1,0.1h0.1c0.1,0,0.2-0.1,0.2-0.1v-12.9
					c0-1.6,1.3-2.9,2.9-2.9c1.6,0,2.9,1.3,2.9,2.9v12.9c0,0.1,0.1,0.1,0.1,0.1h0.1c0.1,0,0.1-0.1,0.1-0.1v-12.9
					c0-1.6,1.3-2.9,2.9-2.9s2.9,1.3,2.9,2.9v12.9c0,0.1,0.1,0.1,0.2,0.1h0.1c0.1,0,0.1-0.1,0.1-0.1v-12.9H240.5z"/>
				<path d="M252.3,462.6c0,1.2-0.5,2.3-1.3,3.1c0.8,0.7,1.3,1.9,1.3,3.1v1.8c0,2.4-1.9,4.3-4.2,4.3H245c-0.7,0-1.2-0.6-1.2-1.2
					v-15.9c0-0.7,0.5-1.2,1.2-1.2h3.1c2.3,0,4.2,1.9,4.2,4.3V462.6z M251.3,460.9c0-1.8-1.4-3.2-3.2-3.2H245c-0.1,0-0.2,0.1-0.2,0.2
					v15.9c0,0.1,0.1,0.2,0.2,0.2h3.1c1.8,0,3.2-1.4,3.2-3.2V469c0-1.4-1-2.6-2.1-3.1c1.2-0.5,2.1-1.7,2.1-3.1V460.9z M250.8,460.9
					v1.8c0,1.6-1.3,2.9-2.9,2.9h-2.9V458h2.9C249.7,457.9,250.8,459.2,250.8,460.9z M248,465.9c1.6,0,2.9,1.3,2.9,2.9v1.8
					c0,1.6-1.3,2.9-2.9,2.9h-2.9v-7.5H248z M249.9,460.9c0-1.1-0.8-1.9-1.9-1.9h-1.9v5.6h1.9c1.1,0,1.9-0.8,1.9-1.9V460.9z
					 M248,466.9h-1.9v5.6h1.9c1.1,0,1.9-0.8,1.9-1.9v-1.8C249.9,467.7,249.1,466.9,248,466.9z"/>
				<path d="M256.8,459v5.6h3.2c0.4,0,0.6,0.2,0.6,0.6v1.2c0,0.4-0.2,0.6-0.6,0.6h-3.2v5.6h3.2c0.4,0,0.6,0.2,0.6,0.6v1.2
					c0,0.4-0.2,0.6-0.6,0.6h-4.4c-0.7,0-1.2-0.6-1.2-1.2v-15.9c0-0.7,0.5-1.2,1.2-1.2h4.4c0.4,0,0.6,0.2,0.6,0.6v1.2
					c0,0.4-0.2,0.6-0.6,0.6h-3.2V459z M255.9,465.4v-7.5h3.7c0.1,0,0.1,0,0.1-0.1v-0.1c0-0.1-0.1-0.1-0.1-0.1h-3.8
					c-0.1,0-0.2,0.1-0.2,0.2v15.9c0,0.1,0.1,0.2,0.2,0.2h3.8c0.1,0,0.1-0.1,0.1-0.1v-0.1c0-0.1-0.1-0.2-0.1-0.2h-3.7v-7.5h3.7
					c0.1,0,0.1,0,0.1-0.1v-0.1c0-0.1-0.1-0.1-0.1-0.1h-3.7V465.4z"/>
				<path d="M271.1,462.6c0,1.2-0.5,2.3-1.3,3.1c0.8,0.7,1.3,1.8,1.3,3.1v5.5c0,0.2-0.2,0.6-0.6,0.6h-1.2c-0.4,0-0.6-0.2-0.6-0.6
					v-5.5c0-1.1-0.8-1.9-1.9-1.9h-1.9v7.4c0,0.2-0.2,0.6-0.6,0.6h-1.2c-0.4,0-0.6-0.2-0.6-0.6v-16.5c0-0.7,0.5-1.2,1.2-1.2h3.1
					c2.4,0,4.2,1.9,4.2,4.2v1.8H271.1z M270.2,460.8c0-1.8-1.4-3.2-3.2-3.2h-3.1c-0.1,0-0.2,0.1-0.2,0.2v15.9c0,0.1,0.1,0.1,0.1,0.1
					h0.1c0.1,0,0.1-0.1,0.1-0.1v-7.8h2.9c1.6,0,2.9,1.3,2.9,2.9v4.9c0,0.1,0.1,0.1,0.1,0.1h0.1c0.1,0,0.2-0.1,0.2-0.1v-4.9
					c0-1.4-1-2.6-2.1-3.1c1.2-0.5,2.1-1.7,2.1-3.1V460.8L270.2,460.8z M269.8,460.8v1.8c0,1.6-1.3,2.9-2.9,2.9h-2.9v-7.5h2.9
					C268.5,457.9,269.8,459.2,269.8,460.8z M268.8,460.8c0-1.1-0.8-1.9-1.9-1.9h-1.9v5.6h1.9c1.1,0,1.9-0.8,1.9-1.9V460.8z"/>
			</g>
			<g>
				<path d="M227.8,426.8c-0.7,0.8-2.3,2.9-2.3,3.7c0,0.2,0.1,0.5,0.2,0.5c0.4,0,1-0.6,1.9-1.8c0,0,0.1,0,0.1,0.1c0,0,0,0,0,0.1
					c-1.1,1.4-2,2-2.6,2c-0.4,0-0.6-0.2-0.6-0.6c0-1,1.7-3.2,2.4-3.9c0.2-0.2,0.4-0.2,0.6-0.2C227.7,426.6,227.8,426.6,227.8,426.8
					L227.8,426.8z M228.2,425.9c-0.4,0-0.6-0.2-0.6-0.6c0-0.5,0.5-1,1-1c0.4,0,0.6,0.2,0.6,0.6C229.1,425.4,228.6,425.9,228.2,425.9
					z"/>
				<path d="M231,429.4c-1.1,1.3-2,1.8-3.1,1.8s-1.4-0.5-1.4-1.1s0.5-1.2,0.8-1.2c0.1,0,0.1,0,0.2,0c0.5-0.5,1-1.1,1.4-1.7
					c0-0.1,0-0.4,0-0.5c0-1,0.5-1.3,0.8-1.3c0.1,0,0.2,0.1,0.2,0.2c0,0.4-0.4,0.8-0.7,1.4c0.1,0.6,0.2,1.3,0.2,2.1
					c0,0.7-0.4,1.2-0.7,1.4c0.6-0.2,1.3-0.7,2-1.6C231,429.3,231.2,429.3,231,429.4C231.2,429.4,231.2,429.4,231,429.4z
					 M229.1,427.6c-0.5,0.5-0.8,1-1.3,1.4h0.1c-0.6,0.6-0.8,1.1-0.8,1.4c0,0.2,0.1,0.2,0.4,0.2c0.8,0,1.8-1.3,1.8-3.1l0,0H229.1z
					 M229.7,425.9c-0.1,0-0.2,0.1-0.2,0.6c0,0.1,0,0.1,0,0.4c0.2-0.4,0.5-0.6,0.5-0.8C229.8,426,229.7,425.9,229.7,425.9z"/>
				<path d="M233.7,429.4c-0.1,0.2-0.1,0.5-0.1,0.6c0,0.5,0.2,0.8,0.8,0.8c0.7,0,1.3-0.4,1.8-0.8c0.2-0.2,0.5-0.5,0.7-0.7
					c0,0,0.1,0,0.1,0.1c0,0,0,0,0,0.1c-0.2,0.2-0.5,0.6-0.7,0.8c-0.7,0.7-1.7,1.2-2.4,1.2c-1,0-1.3-0.4-1.3-1c0-1.4,2.5-4.2,4.2-4.2
					c0.4,0,0.5,0.2,0.5,0.5C237.2,427.6,235.8,429.3,233.7,429.4z M236.2,426.8c-0.8,0-1.9,1.2-2.3,2.4h0.1c1.3,0,2.6-1.4,2.6-2
					C236.5,426.9,236.4,426.8,236.2,426.8z"/>
				<path d="M241.7,426.9c0,0,0-0.4-0.5-0.4c-1.9,0-4.1,2.9-4.1,3.6c0,0.1,0,0.2,0.1,0.2c0.8,0,2.1-1.3,2.6-1.8
					c0.4-0.4,1.2-1.4,1.6-1.4c0.1,0,0.1,0,0.2,0c0.2,0,0.4,0,0.4,0.1l0,0c-0.6,0.6-1.1,1.1-1.6,1.8c-0.6,0.8-0.8,1.7-0.8,2.3
					c0,0.7,0.4,1.1,1.1,1.1c0.5,0,1-0.4,1-0.4l0,0l0,0c-0.7,0.5-1.3,0.7-1.8,0.7c-0.8,0-1.2-0.6-1.2-1.3c0-0.6,0.2-1.3,0.5-1.8l0,0
					c0,0,0,0-0.1,0c-0.2,0.2-1.7,1.6-2.5,1.6c-0.5,0-0.6-0.2-0.6-0.6c0-1.3,2.9-4.5,5.7-4.5c0.4,0,0.5,0.1,0.5,0.2
					C242,426.5,241.7,426.9,241.7,426.9z"/>
				<path d="M245,427.1c0,0,0-0.4-0.5-0.4c-1.6,0-3,2-3,3.2c0,0.5,0.2,0.8,0.8,0.8c0.7,0,1.3-0.4,1.8-0.8c0.2-0.2,0.5-0.5,0.7-0.7
					c0,0,0.1,0,0.1,0.1c0,0,0,0,0,0.1c-0.2,0.2-0.5,0.6-0.7,0.8c-0.7,0.7-1.7,1.2-2.4,1.2c-1,0-1.3-0.5-1.3-1c0-1.4,2.4-4.1,4.7-4.1
					c0.2,0,0.4,0.1,0.4,0.2C245.5,426.8,245.1,427.1,245,427.1z"/>
				<path d="M247.7,426.2c-0.5,0.6-1,1.2-1.3,1.7c0,0,0,0,0,0.1l0,0c1.2-0.8,2.1-1.3,2.7-1.3c0.2,0,0.4,0,0.4,0.2
					c0,0.1-0.1,0.2-0.4,0.6c-0.6,0.7-2.1,2.9-2.1,4.1c0,0.5,0.2,0.7,0.8,0.7c0.5,0,1-0.4,1-0.4l0,0l0,0c-0.7,0.5-1.3,0.7-1.8,0.7
					c-0.8,0-1.1-0.4-1.1-0.8c0-1.3,1.8-3.6,2.5-4.5c0.1-0.1,0.1-0.2,0.1-0.2c0-0.1-0.1-0.1-0.1-0.1c-0.4,0-1.1,0.4-1.9,1
					c-0.8,0.6-2,2.3-2.7,2.9c-0.1,0.1-0.2,0.1-0.4,0.1c-0.2,0-0.4-0.1-0.4-0.4c1.2-1.2,2.5-2.7,3.6-4.3c-0.2,0-0.5,0.1-0.8,0.1
					c-0.1,0-0.5-0.1-0.5-0.4c0-0.1,0-0.1,0.1-0.1c0.1,0,0.2,0,0.5,0c0.4,0,0.7,0,1.1-0.1c2-2.5,3.8-4.8,5.5-4.8
					c0.2,0,0.5,0.1,0.5,0.4C253.2,422.6,250.8,425.2,247.7,426.2z M252.5,421.6c-1.1,0-2.9,2.3-4.3,4.2c2.6-0.8,4.5-3.2,4.5-3.9
					C252.8,421.6,252.6,421.6,252.5,421.6z"/>
			</g>
		</g>
		<g>
			<g>
				<path d="M339.8,446.9v1.8c0,0.5-0.4,1-1,1h-2.5v23.6c0,0.5-0.4,1-1,1h-1.8c-0.5,0-1-0.5-1-1v-23.6h-2.5c-0.5,0-1-0.4-1-1v-1.8
					c0-0.5,0.4-1,1-1h8.8C339.4,446,339.8,446.3,339.8,446.9z"/>
				<path d="M347.5,449.7v8.6h5c0.5,0,1,0.4,1,1v1.8c0,0.5-0.4,1-1,1h-5v8.7h5c0.5,0,1,0.4,1,1v1.8c0,0.5-0.4,1-1,1h-6.8
					c-1.1,0-1.8-0.8-1.8-1.8V448c0-1.1,0.8-1.8,1.8-1.8h6.8c0.5,0,1,0.4,1,1v1.8c0,0.5-0.4,1-1,1h-5V449.7z"/>
				<path d="M371.3,452.5v20.7c0,0.5-0.4,1-1,1h-1.8c-0.5,0-1-0.4-1-1v-11.3h-5.8v11.3c0,0.5-0.4,1-1,1H359c-0.5,0-1-0.4-1-1v-20.7
					c0-3.6,3-6.6,6.6-6.6C368.4,446,371.3,449,371.3,452.5z M367.7,452.5c0-1.6-1.3-2.9-2.9-2.9c-1.7,0-3,1.3-3,2.9v5.7h5.8V452.5z"
					/>
				<path d="M398.7,452.5v20.8c0,0.5-0.4,1-1,1H396c-0.5,0-1-0.5-1-1v-20.8c0-1.6-1.3-2.9-3-2.9c-1.6,0-2.9,1.3-2.9,2.9v20.8
					c0,0.5-0.4,1-1,1h-1.8c-0.5,0-1-0.5-1-1v-20.8c0-1.6-1.3-2.9-2.9-2.9c-1.7,0-3,1.3-3,2.9v20.8c0,0.5-0.4,1-1,1h-1.8
					c-0.5,0-1-0.5-1-1v-20.8c0-3.6,3-6.6,6.6-6.6c1.8,0,3.6,0.8,4.8,2c1.2-1.3,2.9-2,4.8-2C395.8,446,398.7,449,398.7,452.5z"/>
			</g>
			<g>
				<path d="M331.9,404.1c0,0.2-0.2,0.5-0.5,0.5h-1c-0.2,0-0.5-0.2-0.5-0.5v-14c0-0.2,0.2-0.5,0.5-0.5h1c0.2,0,0.5,0.2,0.5,0.5
					V404.1z M331.1,390.6c0-0.1-0.1-0.1-0.1-0.1h-0.1c-0.1,0-0.1,0.1-0.1,0.1v13c0,0.1,0.1,0.1,0.1,0.1h0.1c0.1,0,0.1-0.1,0.1-0.1
					V390.6z"/>
				<path d="M340.7,393.1v11c0,0.2-0.2,0.5-0.5,0.5h-1c-0.2,0-0.5-0.2-0.5-0.5v-11c0-0.8-0.7-1.6-1.6-1.6s-1.6,0.7-1.6,1.6v11
					c0,0.2-0.2,0.5-0.5,0.5h-1c-0.2,0-0.5-0.2-0.5-0.5v-11c0-1.9,1.6-3.5,3.5-3.5S340.7,391.2,340.7,393.1z M339.9,393.1
					c0-1.4-1.2-2.6-2.6-2.6c-1.4,0-2.6,1.2-2.6,2.6v10.5c0,0.1,0.1,0.1,0.1,0.1h0.1c0.1,0,0.1-0.1,0.1-0.1v-10.5
					c0-1.3,1.1-2.4,2.4-2.4c1.3,0,2.4,1.1,2.4,2.4v10.5c0,0.1,0.1,0.1,0.1,0.1h0.1c0.1,0,0.1-0.1,0.1-0.1v-10.5H339.9z"/>
				<path d="M349.6,393.1v7.9c0,1.9-1.6,3.5-3.5,3.5h-2.5c-0.5,0-1-0.5-1-1v-13c0-0.6,0.5-1,1-1h2.5
					C348,389.6,349.6,391.2,349.6,393.1z M348.9,393.1c0-1.4-1.2-2.6-2.6-2.6h-2.5c-0.1,0-0.1,0.1-0.1,0.1v13c0,0.1,0.1,0.1,0.1,0.1
					h2.5c1.4,0,2.6-1.2,2.6-2.6V393.1z M348.5,393.1v7.9c0,1.3-1.1,2.4-2.4,2.4h-2.4v-12.7h2.4C347.4,390.8,348.5,391.8,348.5,393.1
					z M347.7,393.1c0-0.8-0.7-1.6-1.6-1.6h-1.6v11h1.6c0.8,0,1.6-0.7,1.6-1.6V393.1z"/>
				<path d="M353.4,404.1c0,0.2-0.2,0.5-0.5,0.5h-1c-0.2,0-0.5-0.2-0.5-0.5v-14c0-0.2,0.2-0.5,0.5-0.5h1c0.2,0,0.5,0.2,0.5,0.5
					V404.1z M352.6,390.6c0-0.1-0.1-0.1-0.1-0.1l0,0c-0.1,0-0.1,0.1-0.1,0.1v13c0,0.1,0.1,0.1,0.1,0.1h0.1c0.1,0,0.1-0.1,0.1-0.1
					v-13H352.6z"/>
				<path d="M362.2,390.1v9.3c0,0.7-0.2,1.3-0.6,1.9l-1.7,2.9c-0.1,0.1-0.2,0.2-0.5,0.2h-1.7c-0.2,0-0.4-0.1-0.5-0.2l-1.7-2.9
					c-0.4-0.6-0.6-1.2-0.6-1.9v-9.3c0-0.2,0.2-0.5,0.5-0.5h1c0.2,0,0.5,0.2,0.5,0.5v9.3c0,0.2,0,0.4,0.1,0.5l1.4,2.6l1.4-2.6
					c0-0.1,0.1-0.4,0.1-0.5v-9.3c0-0.2,0.2-0.5,0.5-0.5h1C362,389.6,362.2,389.9,362.2,390.1z M361.5,390.6c0-0.1-0.1-0.1-0.1-0.1
					h-0.1c-0.1,0-0.1,0.1-0.1,0.1v8.8c0,0,0,0.6-0.4,1.2l-1.6,2.7h-1l-1.6-2.7c-0.4-0.5-0.4-1.2-0.4-1.2v-8.8c0-0.1-0.1-0.1-0.1-0.1
					h-0.1c-0.1,0-0.1,0.1-0.1,0.1v8.8c0,0,0,0.7,0.4,1.3l1.7,2.9l0.1,0.1h1.1c0.1,0,0.1-0.1,0.1-0.1l1.7-2.9
					c0.4-0.6,0.4-1.3,0.4-1.3v-8.8H361.5z"/>
				<path d="M366,404.1c0,0.2-0.2,0.5-0.5,0.5h-1c-0.2,0-0.5-0.2-0.5-0.5v-14c0-0.2,0.2-0.5,0.5-0.5h1c0.2,0,0.5,0.2,0.5,0.5V404.1z
					 M365.3,390.6c0-0.1-0.1-0.1-0.1-0.1h-0.1c-0.1,0-0.1,0.1-0.1,0.1v13c0,0.1,0.1,0.1,0.1,0.1h0.1c0.1,0,0.1-0.1,0.1-0.1V390.6z"
					/>
				<path d="M375,393.1v7.9c0,1.9-1.6,3.5-3.5,3.5H369c-0.5,0-1-0.5-1-1v-13c0-0.6,0.5-1,1-1h2.5C373.4,389.6,375,391.2,375,393.1z
					 M374.2,393.1c0-1.4-1.2-2.6-2.6-2.6H369c-0.1,0-0.1,0.1-0.1,0.1v13c0,0.1,0.1,0.1,0.1,0.1h2.5c1.4,0,2.6-1.2,2.6-2.6V393.1z
					 M373.8,393.1v7.9c0,1.3-1.1,2.4-2.4,2.4H369v-12.7h2.4C372.7,390.8,373.8,391.8,373.8,393.1z M373,393.1c0-0.8-0.7-1.6-1.6-1.6
					h-1.6v11h1.6c0.8,0,1.6-0.7,1.6-1.6V393.1z"/>
				<path d="M383.8,390.1v11c0,1.9-1.6,3.5-3.5,3.5c-1.9,0-3.5-1.6-3.5-3.5v-11c0-0.2,0.2-0.5,0.5-0.5h1c0.2,0,0.5,0.2,0.5,0.5v11
					c0,0.8,0.7,1.6,1.6,1.6c0.8,0,1.6-0.7,1.6-1.6v-11c0-0.2,0.2-0.5,0.5-0.5h1C383.6,389.6,383.8,389.9,383.8,390.1z M383,390.6
					c0-0.1-0.1-0.1-0.1-0.1h-0.1c-0.1,0-0.1,0-0.1,0.1v10.5c0,1.3-1.1,2.4-2.4,2.4c-1.3,0-2.4-1.1-2.4-2.4v-10.5
					c0-0.1-0.1-0.1-0.1-0.1h-0.1c-0.1,0-0.1,0-0.1,0.1v10.5c0,1.4,1.2,2.6,2.6,2.6s2.6-1.2,2.6-2.6v-10.5H383z"/>
				<path d="M392.7,393.1v11c0,0.2-0.2,0.5-0.5,0.5h-1c-0.2,0-0.5-0.2-0.5-0.5v-6h-3.1v6c0,0.2-0.2,0.5-0.5,0.5h-1
					c-0.2,0-0.5-0.2-0.5-0.5v-11c0-1.9,1.6-3.5,3.5-3.5C391.1,389.6,392.7,391.3,392.7,393.1z M391.8,393.1c0-1.4-1.2-2.6-2.6-2.6
					s-2.6,1.2-2.6,2.6v10.5c0,0.1,0.1,0.1,0.1,0.1h0.1c0.1,0,0.1-0.1,0.1-0.1v-6.3h4.7v6.4c0,0.1,0,0.1,0.1,0.1h0.1
					c0.1,0,0.1-0.1,0.1-0.1v-10.6H391.8z M391.6,393.1v3.8h-4.7v-3.8c0-1.3,1.1-2.4,2.4-2.4C390.5,390.8,391.6,391.9,391.6,393.1z
					 M390.8,393.1c0-0.8-0.7-1.6-1.6-1.6c-0.8,0-1.6,0.7-1.6,1.6v3h3.1L390.8,393.1L390.8,393.1z"/>
				<path d="M399.6,403.1v1c0,0.2-0.2,0.5-0.5,0.5h-3.6c-0.6,0-1-0.5-1-1v-13.5c0-0.2,0.2-0.5,0.5-0.5h1c0.2,0,0.5,0.2,0.5,0.5v12.5
					h2.6C399.3,402.6,399.6,402.9,399.6,403.1z M398.7,403.6c0-0.1-0.1-0.1-0.1-0.1h-3v-12.9c0-0.1-0.1-0.1-0.1-0.1h-0.1
					c-0.1,0-0.1,0-0.1,0.1v13c0,0.1,0.1,0.1,0.2,0.1h3.1C398.7,403.7,398.7,403.7,398.7,403.6L398.7,403.6z"/>
				<path d="M344.8,412.3v13.4c0,0.2-0.2,0.6-0.6,0.6H343c-0.4,0-0.6-0.2-0.6-0.6v-13.4c0-1.1-0.8-1.9-1.9-1.9s-1.9,0.8-1.9,1.9
					v13.4c0,0.2-0.2,0.6-0.6,0.6h-1.2c-0.4,0-0.6-0.2-0.6-0.6v-13.4c0-1.1-0.8-1.9-1.9-1.9s-1.9,0.8-1.9,1.9v13.4
					c0,0.2-0.2,0.6-0.6,0.6h-1.2c-0.2,0-0.6-0.2-0.6-0.6v-13.4c0-2.3,1.9-4.2,4.3-4.2c1.2,0,2.3,0.5,3.1,1.3
					c0.7-0.8,1.9-1.3,3.1-1.3C342.9,408.1,344.8,410,344.8,412.3z M343.7,412.3c0-1.8-1.4-3.2-3.2-3.2c-1.4,0-2.6,0.8-3.1,2.1
					c-0.5-1.2-1.7-2.1-3.1-2.1c-1.8,0-3.2,1.4-3.2,3.2v12.9c0,0.1,0.1,0.1,0.1,0.1h0.1c0.1,0,0.2-0.1,0.2-0.1v-12.9
					c0-1.6,1.3-2.9,2.9-2.9s2.9,1.3,2.9,2.9v12.9c0,0.1,0.1,0.1,0.1,0.1h0.1c0.1,0,0.1-0.1,0.1-0.1v-12.9c0-1.6,1.3-2.9,2.9-2.9
					s2.9,1.3,2.9,2.9v12.9c0,0.1,0.1,0.1,0.2,0.1h0.1c0.1,0,0.1-0.1,0.1-0.1v-12.9H343.7z"/>
				<path d="M349.3,410.5v5.6h3.2c0.4,0,0.6,0.2,0.6,0.6v1.2c0,0.4-0.2,0.6-0.6,0.6h-3.2v5.6h3.2c0.4,0,0.6,0.2,0.6,0.6v1.2
					c0,0.4-0.2,0.6-0.6,0.6h-4.4c-0.7,0-1.2-0.6-1.2-1.2v-15.9c0-0.7,0.5-1.2,1.2-1.2h4.4c0.4,0,0.6,0.2,0.6,0.6v1.2
					c0,0.4-0.2,0.6-0.6,0.6h-3.2V410.5z M348.4,417v-7.5h3.7c0.1,0,0.1,0,0.1-0.1v-0.1c0-0.1-0.1-0.1-0.1-0.1h-3.8
					c-0.1,0-0.2,0.1-0.2,0.2v15.9c0,0.1,0.1,0.2,0.2,0.2h3.8c0.1,0,0.1-0.1,0.1-0.1v-0.1c0-0.1-0.1-0.2-0.1-0.2h-3.7v-7.5h3.7
					c0.1,0,0.1,0,0.1-0.1v-0.1c0-0.1-0.1-0.1-0.1-0.1h-3.7V417z"/>
				<path d="M370,412.3v13.4c0,0.2-0.2,0.6-0.6,0.6h-1.2c-0.4,0-0.6-0.2-0.6-0.6v-13.4c0-1.1-0.8-1.9-1.9-1.9
					c-1.1,0-1.9,0.8-1.9,1.9v13.4c0,0.2-0.2,0.6-0.6,0.6H362c-0.4,0-0.6-0.2-0.6-0.6v-13.4c0-1.1-0.8-1.9-1.9-1.9
					c-1.1,0-1.9,0.8-1.9,1.9v13.4c0,0.2-0.2,0.6-0.6,0.6h-1.2c-0.2,0-0.6-0.2-0.6-0.6v-13.4c0-2.3,1.9-4.2,4.3-4.2
					c1.2,0,2.3,0.5,3.1,1.3c0.7-0.8,1.9-1.3,3.1-1.3C368.1,408.1,370,410,370,412.3z M369,412.3c0-1.8-1.4-3.2-3.2-3.2
					c-1.4,0-2.6,0.8-3.1,2.1c-0.5-1.2-1.7-2.1-3.1-2.1c-1.8,0-3.2,1.4-3.2,3.2v12.9c0,0.1,0.1,0.1,0.1,0.1h0.1
					c0.1,0,0.2-0.1,0.2-0.1v-12.9c0-1.6,1.3-2.9,2.9-2.9s2.9,1.3,2.9,2.9v12.9c0,0.1,0.1,0.1,0.1,0.1h0.1c0.1,0,0.1-0.1,0.1-0.1
					v-12.9c0-1.6,1.3-2.9,2.9-2.9c1.6,0,2.9,1.3,2.9,2.9v12.9c0,0.1,0.1,0.1,0.2,0.1h0.1c0.1,0,0.1-0.1,0.1-0.1v-12.9H369z"/>
				<path d="M380.7,414.1c0,1.2-0.5,2.3-1.3,3.1c0.8,0.7,1.3,1.9,1.3,3.1v1.8c0,2.4-1.9,4.3-4.2,4.3h-3.1c-0.7,0-1.2-0.6-1.2-1.2
					v-15.9c0-0.7,0.5-1.2,1.2-1.2h3.1c2.3,0,4.2,1.9,4.2,4.3V414.1z M379.8,412.4c0-1.8-1.4-3.2-3.2-3.2h-3.1
					c-0.1,0-0.2,0.1-0.2,0.2v15.9c0,0.1,0.1,0.2,0.2,0.2h3.1c1.8,0,3.2-1.4,3.2-3.2v-1.8c0-1.4-1-2.6-2.1-3.1
					c1.2-0.5,2.1-1.7,2.1-3.1V412.4z M379.4,412.4v1.8c0,1.6-1.3,2.9-2.9,2.9h-2.9v-7.5h2.9C378.1,409.4,379.4,410.8,379.4,412.4z
					 M376.5,417.4c1.6,0,2.9,1.3,2.9,2.9v1.8c0,1.6-1.3,2.9-2.9,2.9h-2.9v-7.5H376.5L376.5,417.4z M378.5,412.4
					c0-1.1-0.8-1.9-1.9-1.9h-1.9v5.6h1.9c1.1,0,1.9-0.8,1.9-1.9V412.4z M376.5,418.4h-1.9v5.6h1.9c1.1,0,1.9-0.8,1.9-1.9v-1.8
					C378.5,419.2,377.6,418.4,376.5,418.4z"/>
				<path d="M385.4,410.5v5.6h3.2c0.4,0,0.6,0.2,0.6,0.6v1.2c0,0.4-0.2,0.6-0.6,0.6h-3.2v5.6h3.2c0.4,0,0.6,0.2,0.6,0.6v1.2
					c0,0.4-0.2,0.6-0.6,0.6h-4.4c-0.7,0-1.2-0.6-1.2-1.2v-15.9c0-0.7,0.5-1.2,1.2-1.2h4.4c0.4,0,0.6,0.2,0.6,0.6v1.2
					c0,0.4-0.2,0.6-0.6,0.6h-3.2V410.5z M384.4,417v-7.5h3.7c0.1,0,0.1,0,0.1-0.1v-0.1c0-0.1-0.1-0.1-0.1-0.1h-3.8
					c-0.1,0-0.2,0.1-0.2,0.2v15.9c0,0.1,0.1,0.2,0.2,0.2h3.8c0.1,0,0.1-0.1,0.1-0.1v-0.1c0-0.1-0.1-0.2-0.1-0.2h-3.7v-7.5h3.7
					c0.1,0,0.1,0,0.1-0.1v-0.1c0-0.1-0.1-0.1-0.1-0.1h-3.7V417z"/>
				<path d="M399.7,414.1c0,1.2-0.5,2.3-1.3,3.1c0.8,0.7,1.3,1.8,1.3,3.1v5.5c0,0.2-0.2,0.6-0.6,0.6h-1.2c-0.4,0-0.6-0.2-0.6-0.6
					v-5.5c0-1.1-0.8-1.9-1.9-1.9h-1.9v7.4c0,0.2-0.2,0.6-0.6,0.6h-1.2c-0.4,0-0.6-0.2-0.6-0.6v-16.5c0-0.7,0.5-1.2,1.2-1.2h3.1
					c2.4,0,4.2,1.9,4.2,4.2v1.8H399.7z M398.7,412.3c0-1.8-1.4-3.2-3.2-3.2h-3.1c-0.1,0-0.2,0.1-0.2,0.2v15.9c0,0.1,0.1,0.1,0.1,0.1
					h0.1c0.1,0,0.1-0.1,0.1-0.1v-7.8h2.9c1.6,0,2.9,1.3,2.9,2.9v4.9c0,0.1,0.1,0.1,0.1,0.1h0.1c0.1,0,0.2-0.1,0.2-0.1v-4.9
					c0-1.4-1-2.6-2.1-3.1c1.2-0.5,2.1-1.7,2.1-3.1V412.3z M398.3,412.3v1.8c0,1.6-1.3,2.9-2.9,2.9h-2.9v-7.5h2.9
					C397.1,409.4,398.3,410.8,398.3,412.3z M397.3,412.3c0-1.1-0.8-1.9-1.9-1.9h-1.9v5.6h1.9c1.1,0,1.9-0.8,1.9-1.9V412.3z"/>
			</g>
			<g>
				<path d="M358.2,435.8c-0.7,0.8-2.3,2.9-2.3,3.7c0,0.2,0.1,0.5,0.2,0.5c0.4,0,1-0.6,1.9-1.8c0,0,0.1,0,0.1,0.1c0,0,0,0,0,0.1
					c-1.1,1.4-2,2-2.6,2c-0.4,0-0.6-0.2-0.6-0.6c0-1,1.7-3.2,2.4-3.9c0.2-0.2,0.4-0.2,0.6-0.2C358,435.6,358.2,435.6,358.2,435.8
					C358.2,435.7,358.2,435.8,358.2,435.8z M358.6,434.9c-0.4,0-0.6-0.2-0.6-0.6c0-0.5,0.5-1,1-1c0.4,0,0.6,0.2,0.6,0.6
					C359.6,434.4,359.1,434.9,358.6,434.9z"/>
				<path d="M361.5,438.4c-1.1,1.3-2,1.8-3.1,1.8s-1.4-0.5-1.4-1.1c0-0.6,0.5-1.2,0.8-1.2c0.1,0,0.1,0,0.2,0c0.5-0.5,1-1.1,1.4-1.7
					c0-0.1,0-0.4,0-0.5c0-1,0.5-1.3,0.8-1.3c0.1,0,0.2,0.1,0.2,0.2c0,0.4-0.4,0.8-0.7,1.4c0.1,0.6,0.2,1.3,0.2,2.1
					c0,0.7-0.4,1.2-0.7,1.4c0.6-0.2,1.3-0.7,2-1.6C361.5,438.2,361.5,438.2,361.5,438.4C361.5,438.3,361.5,438.3,361.5,438.4z
					 M359.6,436.5c-0.5,0.5-0.8,1-1.3,1.4h0.1c-0.6,0.6-0.8,1.1-0.8,1.4c0,0.2,0.1,0.2,0.4,0.2c0.8,0,1.8-1.3,1.8-3.1v0H359.6z
					 M360.1,434.9c-0.1,0-0.2,0.1-0.2,0.6c0,0.1,0,0.1,0,0.4c0.2-0.4,0.5-0.6,0.5-0.8C360.3,435,360.2,434.9,360.1,434.9z"/>
				<path d="M370.1,434.6c-0.7,1-1.3,1.8-1.8,2.3c0,0,0,0,0,0.1l0,0c1.2-0.8,2.1-1.3,2.7-1.3c0.2,0,0.4,0,0.4,0.2
					c0,0.1-0.1,0.2-0.4,0.6c-0.6,0.7-2.1,2.9-2.1,4.1c0,0.5,0.2,0.7,0.8,0.7c0.5,0,1-0.4,1-0.4l0,0l0,0c-0.7,0.5-1.3,0.7-1.8,0.7
					c-0.8,0-1.1-0.4-1.1-0.8c0-1.3,1.8-3.6,2.5-4.5c0.1-0.1,0.1-0.2,0.1-0.2c0-0.1-0.1-0.1-0.1-0.1c-0.4,0-1.1,0.4-1.9,1
					c-0.8,0.6-2,2.3-2.7,2.9c-0.1,0.1-0.2,0.1-0.4,0.1c-0.1,0-0.2-0.1-0.4-0.2c-0.5,0.4-0.8,0.5-1.2,0.5c-0.6,0-0.8-0.2-0.8-0.7
					c0-1,1.2-2.7,2.6-4.4c-0.5,0-1,0-1.4,0c-0.1,0-0.5,0-0.5-0.2c0-0.1,0-0.1,0.1-0.1h0.5c0.6,0,1.2,0,1.7,0
					c1.4-1.7,3.1-3.2,3.6-3.2c0.2,0,0.4,0.1,0.4,0.2c0,0.5-0.8,1.6-2,2.7c0.6-0.1,1.1-0.1,1.6-0.2c1.8-2.3,3.5-4.2,5.1-4.2
					c0.4,0,0.6,0.2,0.6,0.6C375.2,431.8,373.8,433.6,370.1,434.6z M367.6,435c-0.8,0.8-1.7,1.7-2.6,2.4c-0.5,1-0.8,1.7-0.8,2.1
					c0,0.2,0.1,0.4,0.4,0.4c0.5,0,1.6-1.3,1.9-1.8c1-1.1,1.9-2.3,2.7-3.5C368.7,434.9,368.1,435,367.6,435z M366.5,435.1
					c-0.5,0.6-0.8,1.2-1.2,1.8c0.7-0.5,1.3-1.2,2-1.8C367,435.1,366.8,435.1,366.5,435.1z M369.4,432.2c-0.5,0-1.6,1.1-2.6,2.5
					c0.4,0,0.6,0,1-0.1C368.7,433.6,369.5,432.6,369.4,432.2C369.5,432.2,369.5,432.2,369.4,432.2z M374.4,430.6
					c-1.3,0-2.7,1.8-3.9,3.6c3.2-0.8,4.4-2.4,4.4-3.1C374.9,430.7,374.8,430.6,374.4,430.6z"/>
				<path d="M371.5,438.3c-0.1,0.2-0.1,0.5-0.1,0.6c0,0.5,0.2,0.8,0.8,0.8c0.7,0,1.3-0.4,1.8-0.8c0.2-0.2,0.5-0.5,0.7-0.7
					c0,0,0.1,0,0.1,0.1c0,0,0,0,0,0.1c-0.2,0.2-0.5,0.6-0.7,0.8c-0.7,0.7-1.7,1.2-2.4,1.2c-1,0-1.3-0.4-1.3-1c0-1.4,2.5-4.2,4.2-4.2
					c0.4,0,0.5,0.2,0.5,0.5C375.1,436.5,373.6,438.2,371.5,438.3z M374,435.7c-0.8,0-1.9,1.2-2.3,2.4h0.1c1.3,0,2.6-1.4,2.6-2
					C374.3,435.8,374.3,435.7,374,435.7z"/>
			</g>
		</g>
		<g>
			<path fill="#010101" d="M288.3,433c0,0,4.5,0,4.9,0c0.4,0,1-0.4,1-1c0-0.7-0.6-1-1-1c-0.5,0-4.9,0-4.9,0
				c-3.3-0.2-4.7-2.4-4.7-5.1c0-4.8,7.9-18.3,7.9-30.7c0-9.2-4.8-17.1-14.4-17.1h-1.2c0,0-1.6,0-1.9,0s-1,0.4-1,1c0,0.7,0.6,1,1,1
				c0.5,0,1.9,0,1.9,0h1c5,0,10.1,7.9,10.1,15.4c0,9.4-7.3,22.1-7.5,28.8c-0.1,4.1,1.4,6.1,3.9,7.8"/>
			<path fill="#010101" d="M288.3,432.8c-3.3,0.2-4.7,2.4-4.7,5.1c0,4.8,7.9,18.3,7.9,30.7c0,9.2-4.8,17.1-14.4,17.1h-1.2
				c0,0-1.6,0-1.9,0s-1-0.4-1-1c0-0.7,0.6-1,1-1c0.5,0,1.9,0,1.9,0h1c5,0,10.1-7.9,10.1-15.4c0-9.4-7.3-22.1-7.5-28.8
				c-0.1-4.1,1.4-6.1,3.9-7.8"/>
		</g>
		<g>
			<path fill="#010101" d="M113,430.9c0,0-4.5,0-4.9,0c-0.4,0-1,0.4-1,1c0,0.7,0.6,1,1,1c0.5,0,4.9,0,4.9,0c3.3,0.2,4.7,2.4,4.7,5.1
				c0,4.8-7.9,18.3-7.9,30.7c0,9.2,4.8,17.1,14.4,17.1h1.2c0,0,1.6,0,1.9,0s1-0.4,1-1c0-0.7-0.6-1-1-1c-0.5,0-1.9,0-1.9,0h-1
				c-5,0-10.1-7.9-10.1-15.4c0-9.4,7.3-22.1,7.5-28.8c0.1-4.1-1.4-6.1-3.9-7.8"/>
			<path fill="#010101" d="M113,431c3.3-0.2,4.7-2.4,4.7-5.1c0-4.8-7.9-18.3-7.9-30.7c0-9.2,4.8-17.1,14.4-17.1h1.2c0,0,1.6,0,1.9,0
				s1,0.4,1,1c0,0.7-0.6,1-1,1c-0.5,0-1.9,0-1.9,0h-1c-5,0-10.1,7.9-10.1,15.4c0,9.4,7.3,22.1,7.5,28.8c0.1,4.1-1.4,6.1-3.9,7.8"/>
		</g>
		<g>
			<path fill="#010101" d="M497.5,433c0,0,4.5,0,4.9,0c0.4,0,1-0.4,1-1c0-0.7-0.6-1-1-1c-0.5,0-4.9,0-4.9,0
				c-3.3-0.2-4.7-2.4-4.7-5.1c0-4.8,7.9-18.3,7.9-30.7c0-9.2-4.8-17.1-14.4-17.1h-1.2c0,0-1.6,0-1.9,0c-0.4,0-1,0.4-1,1
				c0,0.7,0.6,1,1,1c0.5,0,1.9,0,1.9,0h1c5,0,10.1,7.9,10.1,15.4c0,9.4-7.3,22.1-7.5,28.8c-0.1,4.1,1.4,6.1,3.9,7.8"/>
			<path fill="#010101" d="M497.5,432.8c-3.3,0.2-4.7,2.4-4.7,5.1c0,4.8,7.9,18.3,7.9,30.7c0,9.2-4.8,17.1-14.4,17.1h-1.2
				c0,0-1.6,0-1.9,0c-0.4,0-1-0.4-1-1c0-0.7,0.6-1,1-1c0.5,0,1.9,0,1.9,0h1c5,0,10.1-7.9,10.1-15.4c0-9.4-7.3-22.1-7.5-28.8
				c-0.1-4.1,1.4-6.1,3.9-7.8"/>
		</g>
		<g>
			<path fill="#010101" d="M316.4,430.9c0,0-4.5,0-4.9,0s-1,0.4-1,1c0,0.7,0.6,1,1,1c0.5,0,4.9,0,4.9,0c3.3,0.2,4.7,2.4,4.7,5.1
				c0,4.8-7.9,18.3-7.9,30.7c0,9.2,4.8,17.1,14.4,17.1h1.2c0,0,1.6,0,1.9,0c0.4,0,1-0.4,1-1c0-0.7-0.6-1-1-1c-0.5,0-1.9,0-1.9,0h-1
				c-5,0-10.1-7.9-10.1-15.4c0-9.4,7.3-22.1,7.5-28.8c0.1-4.1-1.4-6.1-3.9-7.8"/>
			<path fill="#010101" d="M316.4,431c3.3-0.2,4.7-2.4,4.7-5.1c0-4.8-7.9-18.3-7.9-30.7c0-9.2,4.8-17.1,14.4-17.1h1.2
				c0,0,1.6,0,1.9,0c0.4,0,1,0.4,1,1c0,0.7-0.6,1-1,1c-0.5,0-1.9,0-1.9,0h-1c-5,0-10.1,7.9-10.1,15.4c0,9.4,7.3,22.1,7.5,28.8
				c0.1,4.1-1.4,6.1-3.9,7.8"/>
		</g>
		
			<line fill="none" stroke="#010101" stroke-width="1.7026" stroke-linecap="round" stroke-miterlimit="10" x1="332.3" y1="258.6" x2="251.4" y2="287"/>
		<path fill="none" stroke="#010101" stroke-width="1.7026" stroke-linecap="round" stroke-miterlimit="10" d="M302.8,348.7
			l80.9-28.5l0,0c3.9-3.3,14.4-5.1,18.9-0.6"/>
		<path fill="#010101" d="M423.1,362.1c0.1,0.5,2.3,12.4,2.3,12.4s12.4-11.7,12.8-12.1c0.4-0.4,0.1-0.7-0.4-0.7s-5.3-0.2-5.3-0.2
			c4.8-19.8-17.1-16.8-17.1-16.8v9.1c0,0,13.5-1.3,12.3,7.5c0,0-3.5-0.1-3.9-0.1C423.1,361.2,423,361.7,423.1,362.1z"/>
		<path fill="#010101" d="M181,364c-0.1,0.5-2.3,12.4-2.3,12.4s-12.4-11.7-12.8-12.1c-0.4-0.4-0.1-0.7,0.4-0.7
			c0.5,0,5.3-0.2,5.3-0.2c-4.8-19.8,17.1-16.8,17.1-16.8v9.1c0,0-13.5-1.3-12.3,7.5c0,0,3.5-0.1,3.9-0.1
			C181,363,181.1,363.5,181,364z"/>
		<g>
			<path d="M276.5,495.4c0,0-0.4-0.5-1.1-0.5c-1.6,0-4.2,2.4-6.4,5c-4.2,4.7-9.7,12.5-12.3,15.8l-0.1,0.2c0,0.1,0,0.1,0.2,0.1
				c3.9-2.9,7.4-4.3,9.2-4.3c0.7,0,1.3,0.1,1.3,0.6c0,0.4-0.2,1-1.1,1.9c-2.1,2.7-6.4,8-6.4,10.3c0,1,0.2,1.4,0.8,1.4
				c1.1,0,3.2-2,6.6-5.8c0,0,0.2,0.1,0.2,0.4c0,0.1,0,0.1-0.1,0.2c-3.7,4.8-7.2,6.9-9.1,6.9c-1.2,0-1.8-0.7-1.8-2.1
				c0-3.3,8-11,8-12.3c0-0.1-0.1-0.2-0.2-0.2c-1.1,0-3.5,1.2-6.4,3.3c-2.7,2-6.9,7.5-9.4,9.5c-0.2,0.2-0.8,0.4-1.3,0.4
				c-0.7,0-1.2-0.5-1.2-1.3c7.3-7.3,15.8-19.5,22.1-26.3c3.2-3.5,6.3-5.7,8.1-5.7c0.8,0,1.1,0.5,1.1,1
				C277,494.7,276.6,495.4,276.5,495.4z"/>
			<path d="M274.4,512c-2.4,3-7.8,9.7-7.8,12.7c0,1,0.2,1.4,0.8,1.4c1.1,0,3.2-2,6.6-5.8c0,0,0.2,0.1,0.2,0.4c0,0.1,0,0.1-0.1,0.2
				c-3.7,4.7-6.9,6.8-9,6.8c-1.2,0-1.9-0.8-1.9-2.1c0-3.2,5.6-10.9,8-13.1c0.8-0.8,1.1-0.8,2-0.8c0.7,0,1.1,0.1,1.1,0.4
				C274.4,511.9,274.4,511.9,274.4,512z M275.8,508.9c-1.3,0-2.1-0.8-2.1-2.1c0-1.8,1.7-3.2,3.3-3.2c1.3,0,2.1,1,2.1,2.1
				C279.1,507.4,277.5,508.9,275.8,508.9z"/>
			<path d="M277.3,517c-2,3.5-3.2,6.3-3.2,7.9c0,0.7,0.2,1.2,1,1.2c1.1,0,3.2-2,6.6-5.8c0,0,0.2,0.1,0.2,0.4c0,0.1,0,0.1-0.1,0.2
				c-3.6,4.5-6.7,6.6-8.6,6.6c-1.8,0-2.5-0.8-2.5-2.3c0-7.8,22.4-32.7,25.8-32.7c1.2,0,1.8,0.5,1.8,1.3
				C298.2,497.9,286.3,510,277.3,517z M295.9,494.7c-2.7,0-12.1,11.6-17.5,20.7c7.4-6,18-17.9,18-20.2
				C296.3,494.9,296.2,494.7,295.9,494.7z"/>
			<path d="M234.4,504.6c2.5-4.9,3.6-6.7,3.7-9.2c0-1.1-1.1-1.9-2-1.9c-1.4,0.1-4.3,3-8.6,8.5c0,0-0.5-0.1-0.5-0.5
				c0-0.1,0-0.2,0.1-0.4c4.7-6.6,8.7-9.5,11.3-9.7c2.4-0.1,3.6,1.1,3.6,3c0.5,10.6-32.7,48.9-37.2,49.2c-1.7,0.1-2.4-0.6-2.5-1.8
				C202,536.2,222.6,514.6,234.4,504.6z M206.3,539.2c3.8-0.1,19.5-18.3,26.5-31.2c-9.8,8.6-27.2,27.3-27.1,30.6
				C205.7,539,206,539.2,206.3,539.2z"/>
			<path d="M327.1,512.5c-3.6,0.4-9.4,1.6-11.8,2.5c3.1-6.3,5.6-11.3,6.2-15.6c0.2-1.4,0.4-2.6-0.6-2.6c-0.4,0-1.8,0.5-1.8,0.5
				c-0.6,0.2-5.5,1-8.1,0.1c-0.6-0.2-0.6,0-1,0.6c-0.6,0.7-0.4,1.1,1.6,1.3c3.2,0.4,7.8-0.4,7.8-0.4c0.1,0,0.1,0,0.1,0.1
				c0,4.2-3.7,10.5-7.5,17.3c-12.2,7.6-24.7,18-25.5,26.1c-0.1,1.6,1.2,1.7,2.4,1.7c8.5,0,18.9-13.8,25.5-27.1
				c4.2-2.6,8.2-3,12.9-3.7c3.5-0.6,6.2-1.1,6.8-2c0.6-1-1.7-0.5-1.7-0.5S333.9,511.7,327.1,512.5z M290.7,540.6
				c-0.6,0-0.6-0.5-0.6-0.7c1-5.4,11.9-14.1,19.8-20.1C302.7,532.2,294.9,540.6,290.7,540.6z"/>
			<path d="M333.5,511.9c-0.6,0.1,0-1.3-1.8-1.3c-6.4,0-13.8,9.7-13.8,12.2c0,0.4,0.2,0.7,0.6,0.7c3,0,7.2-4.3,8.8-6.1
				c1.3-1.4,3.5-4.3,4.4-4.3c0.2,0,0.5-0.1,0.8-0.1c0.7,0,1.3,0.1,1.3,0.4c0,0.1,0,0.1-0.1,0.2c-1.9,2-3,3.1-4.7,5.6
				c-2,2.9-2.9,5.6-2.9,7.6c0,2.3,1.2,3.7,3.7,3.7c1.6,0,3.2-1.2,3.2-1.2c0.1,0,0.2,0.1,0.2,0.2c0,0.1,0,0.1-0.1,0.2
				c-2.4,1.7-4.4,2.4-6,2.4c-2.9,0-3.8-2-3.8-4.5c0-2.1,0.7-4.5,1.7-6.2c0-0.1-0.1-0.2-0.2-0.2c-0.1,0-0.1,0-0.2,0.2
				c-1,1-5.5,5.4-8.5,5.4c-1.4,0-2-0.7-2-1.9c0-4.4,9.5-15.3,19.2-15.3c1.2,0,1.4,0.2,1.4,0.7C334.6,510.9,333.9,511.7,333.5,511.9z
				"/>
			<path d="M342.2,523.7c-2.7,2-5.7,3.1-8.4,3.1c-3.2,0-4.5-1.4-4.5-3.3c0-5,8.1-13.5,15.6-13.5c1,0,1.3,0.4,1.3,0.8
				c0,0.8-1.1,2-1.6,2c-0.1,0,0-1.3-1.8-1.3c-5.3,0-10.3,6.3-10.3,10.5c0,1.7,0.8,2.9,3,2.9c2.3,0,4.4-1.2,6.2-2.5
				c1.8-1.2,14.1-10.4,14.1-10.4l0.1,0.6C356,512.7,344.9,521.7,342.2,523.7z"/>
			<path d="M354.6,510.2c1.1-1.4,14.1-17.2,19.6-17.2c0.8,0,1.2,0.4,1.2,1.1c0,3.3-12.7,14.4-20.9,19.7l-0.7,1c0,0-0.8,1-0.8,1.1
				s0,0.1,0.2,0.1c4.7-3.5,7.9-4.8,9.7-4.8c0.8,0,1.3,0.4,1.3,1c0,1.4-2.6,4.2-8.4,7c-0.7,1.2-1.2,3.2-1.2,5.3
				c0,3.1,1.1,6.1,4.1,6.1c1.6,0,3.2-1.2,3.2-1.2c0.1,0,0.2,0.1,0.2,0.2s0,0.1-0.1,0.2c-2.4,1.7-4.4,2.4-6,2.4c-3.2,0-4.3-3-4.3-6.2
				s1.1-6.7,1.8-7c5.4-2.6,7.8-5,7.8-6c0-0.2-0.2-0.4-0.5-0.4c-1,0-3.2,1.1-6.6,3.7c-2.6,2-6.9,7.5-9.4,9.5
				c-0.2,0.2-0.8,0.4-1.3,0.4c-0.7,0-1.2-0.5-1.2-1.3c3.9-3.9,7.6-8.6,11.3-13.3L354.6,510.2z M373.2,494.2
				c-3.9,0-12.5,11.3-17.7,18.1c7-4.9,18.3-14.8,18.3-17.4C373.8,494.4,373.6,494.2,373.2,494.2z"/>
			<path d="M372.6,513.9c0.2-0.6,0.4-1.1,0.4-1.4c0-1.4-1.1-2-2.1-2c-1.3,0-2.9,1-2.9,2.6c0,1.3,2.1,4.4,2.1,7.2
				c0,2-0.8,3.9-3.7,5.4c2.5-0.2,5.1-2,8.1-5.6c0,0,0.2,0.1,0.2,0.4c0,0.1,0,0.1-0.1,0.2c-3.6,4.5-7.6,6.4-11,6.4
				c-3.7,0-4.9-1.8-4.9-3.7c0-2,1.4-4.3,2.7-4.3c0.8,0,1.6,0.4,1.6,0.6c-1.8,1.4-3,3.2-3,4.4c0,0.8,0.6,1.3,1.4,1.3
				c1.8,0,4.8-2.1,4.8-6.3c0-2-0.7-4.4-0.7-5.3c0-3.2,3-4.4,5.5-4.4c2,0,3.8,0.7,3.8,1.9C375.1,512.1,374.4,512.9,372.6,513.9z"/>
			<path d="M394.8,512.5c-0.8,0.8-2.5,3.7-6.9,3.9c-2.4,4.9-7.4,10.7-13,10.7c-1.7,0-2.4-0.8-2.4-2.1c0-4.7,8.6-15.2,15-15.2
				c1.2,0,1.7,0.7,1.7,1.9c0,1-0.2,2.1-0.8,3.3c3.6,0.1,5.1-2.5,6.1-3.1c0,0,0.4,0.1,0.4,0.2C394.9,512.2,394.9,512.3,394.8,512.5z
				 M383.5,513.8c0-0.7,0.2-1.3,0.6-2c-3.8,2.5-8.2,9.2-8.2,11.6c0,1.2,0.6,1.7,1.6,1.7c3.6,0,7.3-4.7,9.1-8.6
				C384.3,516.2,383.5,515.1,383.5,513.8z M387.2,511c-0.8,0.1-1.4,1.1-1.4,2c0,0.8,0.4,1.6,1.4,1.8c0.4-1,0.6-2,0.6-2.7
				C387.6,511.5,387.5,511,387.2,511z"/>
			<path d="M405.2,511.3c-6.2,5.3-8.8,12.2-9,17.2c0.5,0,1,0,1.4,0c4.1,0,5.7,1.7,5.7,3.6c0,2.7-2.6,4.1-5.1,4.1
				c-4.2,0-5.6-2.3-5.6-5.4v-0.4c-12.5,2-45.5,14-64.1,12.1c-9.5-1-14-4.8-14-7.9c0-1.4,1.7-3.3,3.8-4.3c0.4,6.2,5.3,8.1,11.8,8.8
				c19.7,2.1,50.6-8,62.4-10c0.8-5.3,4.8-12.1,7.9-15c0-0.1-0.1-0.1-0.1-0.1c-1,0-10,9-11.8,10.7c-0.7,0.7-1.9,2.3-3.1,2.3
				c-0.7,0-1.2-0.5-1.2-1.3l9.8-13.3c0.5-0.6,0.8-0.6,1.7-0.6c0.6,0,1.2,0.1,1.2,0.4c0,0.1,0,0.1-0.1,0.2c0,0-3.5,4.4-6.2,9
				c2.6-2.6,11.1-10.6,14.2-10.6c0.2,0,0.4,0.1,0.4,0.2C405.4,511,405.3,511.3,405.2,511.3z M397.2,529.9h-0.8
				c0.2,2.9,1.6,4.8,3.5,4.8c1,0,1.8-0.7,1.8-2.1C401.6,531.2,400.4,529.9,397.2,529.9z"/>
			<path d="M224.5,515.6c-0.6,3.3,0.2,7.8,3.6,10.1c7.4,5,17.3-2.7,23.4-11.3c5.5-7.6,10.4-21.2,2.4-21.4c-4.9,0-11.3,5.4-15.4,9.1
				c0.4,0.6-5.7,5.4-5.4,6c4.4-4.5,12.9-9.5,16.5-10.6c7.5-2.3,4.4,8.7-1,15.8c-4.3,5.8-12.8,13.7-19.7,10.6
				c-3.6-1.7-3.7-5.5-3.6-8.1c0.1-1.2,0.2-2.1,0.6-3.3C225.4,513.2,224.7,514.5,224.5,515.6z"/>
			<g>
				<path d="M228,523.9c0,0,0.2,0.1,0.6,0.4c0.4,0.2,0.8,0.6,1.7,0.8c0.7,0.4,1.7,0.6,2.9,0.6c1.1,0.1,2.4-0.1,3.8-0.5
					c2.7-0.7,5.8-2.4,9-4.3c3.2-1.9,6.6-3.9,9.9-6.1c3.3-2.1,6.6-4.4,9.4-6.7c1.4-1.1,2.9-2.3,4.2-3.3c1.3-1.1,2.4-2.1,3.5-3.2
					c1-1.1,1.8-2.1,2.4-3.1c0.6-1,1.1-1.9,1.3-2.6c0.1-0.4,0.1-0.7,0.1-0.8c0-0.1-0.1-0.1-0.1-0.1c-0.1,0-0.4,0-0.2,0l0.1-1.8
					c0,0,0.4,0,1.1,0.4c0.4,0.2,0.7,0.8,0.7,1.3s-0.1,1-0.2,1.4c-0.4,1-0.8,1.9-1.6,2.9c-0.7,1.1-1.6,2.1-2.6,3.2
					c-1.1,1.1-2.3,2.3-3.6,3.3c-1.3,1.1-2.7,2.3-4.2,3.3c-3,2.3-6.2,4.5-9.5,6.7c-3.3,2.1-6.7,4.2-9.9,6.1c-3.2,1.9-6.3,3.6-9.3,4.4
					c-1.4,0.5-2.9,0.6-4.2,0.6c-1.3-0.1-2.4-0.4-3.2-0.7c-0.8-0.4-1.4-0.7-1.9-1c-0.4-0.2-0.6-0.4-0.6-0.4L228,523.9z"/>
			</g>
			<path fill="none" stroke="#000000" stroke-width="0.768" stroke-miterlimit="10" d="M224.9,518.1c-0.1-3.3,1.2-10.3,3.1-9.1
				c1.8,1.1-1.8,3.5-2.5,5.5c-1.3,3.5-0.1,7.6,2.4,9.7"/>
			
				<line fill="none" stroke="#010101" stroke-width="1.1032" stroke-linecap="round" stroke-miterlimit="10" x1="208.9" y1="512.6" x2="220" y2="512.6"/>
		</g>
	</g>
</g>
</svg>
