<?xml version="1.0" encoding="utf-8"?>
<!-- Generator: Adobe Illustrator 16.0.0, SVG Export Plug-In . SVG Version: 6.00 Build 0)  -->
<!DOCTYPE svg PUBLIC "-//W3C//DTD SVG 1.1//EN" "http://www.w3.org/Graphics/SVG/1.1/DTD/svg11.dtd">
<svg version="1.1" xmlns="http://www.w3.org/2000/svg" xmlns:xlink="http://www.w3.org/1999/xlink" x="0px" y="0px" width="1024px"
	 height="768px" viewBox="0 0 1024 768" enable-background="new 0 0 1024 768" xml:space="preserve">
<g id="Layer_4">
	<g>
		<path d="M511.206,252.676c0,0,1.662,0.224,2.034-0.992c0.372-1.215,0.521-4.614,2.183-5.532s3.026,0.323,3.002,0.67
			c-0.023,0.372-0.372-0.149-1.116,0.322c-0.744,0.472-1.562,1.985-1.042,2.58c0.521,0.62,0.225,3.969-0.62,4.788
			c-0.844,0.818-1.562,1.513-1.562,1.513L511.206,252.676z"/>
		<path fill="#FFFFFF" stroke="#000000" stroke-width="2.1637" stroke-miterlimit="10" d="M452.291,248.781c0,0,1.538,0,4.044,0
			c0.818,0,1.761,0,2.778,0c8.509-0.446,17.092-1.24,25.327-0.024c1.141,0.024,2.231,0.024,3.199,0.024c2.902,0,4.737,0,4.737,0
			v5.011c0,0-0.818,0-2.207,0c-0.695,0-1.538,0-2.506,0c-0.794-0.049-1.588-0.124-2.382-0.173
			c-9.054-1.786-17.909-0.174-27.112,0.173c-1.191,0-2.232,0-3.102,0c-1.736,0-2.778,0-2.778,0S451.572,251.113,452.291,248.781z"/>
		<path fill="#FFFFFF" stroke="#000000" stroke-width="2.1637" stroke-miterlimit="10" d="M454.697,253.792v1.34
			c0,0,1.34,0.099,1.712,0.794l0.894,0.719c0,0,0.967,0,2.604,0c7.987-0.521,16.298-1.612,24.482-0.298
			c0.894,0.05,1.786,0.099,2.68,0.149c0.894,0.05,1.786,0.099,2.704,0.149c1.611,0,2.604,0,2.604,0v-2.853c0,0-0.769,0-2.083,0
			c-0.67,0-1.464,0-2.356,0c-0.844-0.049-1.712-0.124-2.556-0.148c-8.905-1.538-17.487-0.199-26.22,0.173c-1.364,0-2.481,0-3.25,0
			C455.145,253.792,454.697,253.792,454.697,253.792z"/>
		<path d="M453.805,248.781v-3.944h2.778c0,0,0.322,0.57,0.794,1.215c0.496,0.62,1.166,1.29,1.885,1.463v1.241c0,0-1.363,0-2.729,0
			C455.169,248.781,453.805,248.781,453.805,248.781z"/>
		<path fill="#FFFFFF" stroke="#000000" stroke-width="2.1637" stroke-miterlimit="10" d="M492.354,248.781
			c0,0,2.778-0.396,2.604-1.959h15.926c0,0,1.786-0.546,2.158,2.505c0.272,0.794,1.24,1.24,2.158,1.959
			c0.893,0.72,1.513,2.332,1.166,4.912c0,0-1.24-0.793-1.34,0.447c-0.349,1.067-1.887,3.051-4.118,2.604v1.24h-17.812v1.34h-0.72
			v-13.048L492.354,248.781L492.354,248.781z"/>
		<path fill="#FFFFFF" stroke="#000000" stroke-width="1.0819" stroke-miterlimit="10" d="M493.073,261.83
			c0,0,1.637,0.347,2.604,0.694c0.968,0.347,1.886,1.91,1.886,1.91l4.466,1.166l15.031,2.332c0,0,2.854-0.347,4.02,0.546v-1.786
			l3.497-6.698c0,0-4.291-0.273-4.737-0.545c-0.446-0.273-0.496-2.704-3.87-3.398c0,0-0.719-0.496-0.941,0.62
			c-0.349,0.744-1.066,2.654-3.672,2.654l-0.446-0.05v1.24h-17.812v1.315H493.073L493.073,261.83z"/>
		<path d="M521.079,268.453c0,0,4.663,2.158,4.663,6.648c0,4.49,0,8.459,0,8.459s-0.123,0.868,0.794,0.868
			c0.942,0,15.628,0,15.628,0s0.744-0.471,0-1.538s-3.621-6.971-4.217-8.931c-0.597-1.935-4.688-11.336-8.731-12.75
			c-4.019-1.414-4.664-1.241-4.664-1.241l-3.497,6.698v1.786L521.079,268.453L521.079,268.453z"/>
		<g>
			<path d="M501.631,264.633c0,0,3.026,0.471,4.02,0.595c0,0-1.786,2.332-1.488,4.093c0.322,1.861,2.084,3.299,4.292,3.225
				c2.629-0.075,4.961-0.075,5.507-2.158c0.546-2.084-1.067-3.746-1.067-3.746l-0.347-0.348c0,0,2.854,0.149,3.869,0.422
				c0,0-1.19,5.854-4.117,6.499c-3.149,0.695-7.591,0.794-9.055-2.604c-0.595-1.488-0.272-3.101-0.744-4.292
				C502.053,265.104,501.631,264.633,501.631,264.633z"/>
		</g>
		<circle fill="none" stroke="#000000" stroke-width="1.0819" stroke-miterlimit="10" cx="516.168" cy="259.696" r="1.265"/>
		<path fill="#FFFFFF" stroke="#000000" stroke-width="0.5393" stroke-miterlimit="10" d="M454.871,253.792v-0.793l0.62-0.546
			c0,0,0.77,0,2.107,0c9.676-0.347,19.002-1.687,28.627-0.025c1.142,0.025,2.134,0.025,2.978,0.025c1.687,0,2.704,0,2.704,0h0.223
			v1.339c0,0-0.769,0-2.059,0c-0.646,0-1.438,0-2.332,0c-0.843-0.049-1.688-0.124-2.53-0.148
			c-8.607-1.538-17.389-0.199-25.922,0.148c-1.34,0-2.456,0-3.2,0C455.318,253.792,454.871,253.792,454.871,253.792z"/>
		<path fill="none" stroke="#000000" stroke-width="1.0819" stroke-miterlimit="10" d="M492.354,255.479c0,0-0.918,0-2.455,0
			c-0.77,0-1.688,0-2.704-0.025c-0.868-0.124-1.711-0.223-2.556-0.322c-7.641-0.893-15.43-0.893-22.896,0.322
			c-1.537,0.025-2.455,0.025-2.455,0.025"/>
		<path fill="none" stroke="#000000" stroke-width="1.0819" stroke-miterlimit="10" d="M497.19,252.453v-2.902
			c0,0,3.25-0.793,6.797-0.719c3.548,0.074,6.351,0.57,6.351,0.57v0.199c0,0,0.62,1.141,0.57,5.383
			c-0.049,4.242-0.57,5.507-0.57,5.507H497.19V252.453z"/>
		
			<line fill="none" stroke="#000000" stroke-width="1.0819" stroke-miterlimit="10" x1="493.073" y1="252.453" x2="497.19" y2="252.453"/>
		
			<line fill="none" stroke="#000000" stroke-width="1.0819" stroke-miterlimit="10" x1="493.073" y1="255.901" x2="497.19" y2="255.901"/>
		<path fill="none" stroke="#000000" stroke-width="1.0819" stroke-miterlimit="10" d="M498.084,252.081v2.853h5.681
			c0,0,3.323-1.24,0-2.853C499.622,252.081,498.084,252.081,498.084,252.081z"/>
		<path fill="none" stroke="#000000" stroke-width="0.9574" stroke-miterlimit="10" d="M498.084,258.257v2.232h5.681
			c0,0,3.323-0.992,0-2.232C499.622,258.257,498.084,258.257,498.084,258.257z"/>
	</g>
</g>
<g id="Layer_3">
	<g>
		<g>
			<path fill="#414042" d="M469.705,408.683l-0.297,49.092l-13.471-1.39l0.148-16.1l-10.518,1.39l0.769,59.609l9.277,0.147
				l-0.77,18.282l-34.53-1.24l-0.619-18.878h7.44l0.149-60.08l-9.303-0.148l-0.148,12.081l-12.999-1.092l-0.62-38.251
				L469.705,408.683z"/>
			<path fill="#414042" d="M542.934,407.119l-1.092,27.856l-8.211-0.769l0.918,56.037l4.64-0.473l-0.299,23.07l-29.42-1.092
				l-0.769-22.301l9.128,0.769V477.27l-19.349-0.918l0.472,14.091l5.729-0.148v25.401l-32.197,1.239l-0.917-26.171l10.367-0.471
				l-2.009-55.27h-7.269l-0.918-28.328l32.968-1.092l-0.771,23.541l-4.639,0.299l0.621,34.207l15.007,1.39l0.62-30.04l-4.019,0.471
				l-1.538-29.892L542.934,407.119z"/>
			<path fill="#414042" d="M605.644,407.913l-0.918,43.51l-13.172,0.472l0.298-12.079h-24.931v18.578l25.401-0.471l-0.62,13.32
				l-18.108-0.77l-0.62,19.671l14.389,0.299l-0.148-9.601l18.281-0.918l-0.77,39.491l-57.6,1.39l-0.62-26.791l6.027,0.148
				l1.24-50.778l-7.739,1.092l-1.092-33.909L605.644,407.913z"/>
		</g>
	</g>
	<g>
		<g>
			<path fill="#414042" d="M484.961,619.932c0,7.938-3.101,13.271-9.277,15.95c-4.961,2.158-14.237,3.25-27.856,3.25h-30.338
				l1.538-27.856h7.269l0.918-53.581l-7.74-0.473l-0.471-26.642h33.438c21.681,0,32.521,7.441,32.521,22.301v24.781
				c0,7.219-4.589,11.46-13.768,12.701c4.639,0.719,7.987,1.959,10.07,3.721c2.481,2.158,3.723,5.482,3.723,9.897v15.949
				L484.961,619.932L484.961,619.932z M459.113,566.375v-1.711c0-2.481-0.372-4.242-1.092-5.26c-0.72-1.041-2.158-1.537-4.342-1.537
				c-0.72,0-1.538,0.049-2.479,0.147l-9.129,1.093l-0.148,13.939l9.277-0.147c3.101-0.101,5.185-0.496,6.274-1.166
				C458.567,571.039,459.113,569.253,459.113,566.375z M460.354,608.794v-7.889c0-2.778-0.521-4.564-1.537-5.333
				c-1.042-0.771-3.15-1.166-6.352-1.166h-10.071l0.149,20.911h9.896c3.398,0.1,5.582-0.272,6.5-1.165
				C459.882,613.259,460.354,611.473,460.354,608.794z"/>
			<path fill="#414042" d="M555.932,628.614l-26.938-1.24l-1.712-21.061h6.499l-1.39-14.091h-15.182l-2.158,22.302h6.648
				l0.62,20.116l-34.208,1.24l1.239-21.356h5.582l9.897-65.812h-6.201l-0.918-24.781l50.778,3.398l-0.298,23.565h-6.202
				l8.509,55.441h5.408v22.276h0.025V628.614z M530.381,578.754l-5.407-23.988l-5.109,23.988H530.381z"/>
			<path fill="#414042" d="M628.688,605.445c0.198,10.318-2.01,17.611-6.647,21.829c-4.639,4.241-12.948,6.351-24.93,6.351
				c-2.383,0-4.962-0.1-7.74-0.298l-25.229-1.39l2.011-36.241l8.062,0.471l0.298-45.519l-8.062-0.771l0.298-26.642l21.357,0.769
				c15.479,0.521,25.849,2.556,31.133,6.127c5.259,3.572,7.986,10.816,8.211,21.756L628.688,605.445z M608.396,593.836
				l-0.148-26.643c-0.1-3.497-0.62-5.729-1.538-6.647c-1.24-1.142-4.019-1.86-8.359-2.158l-10.07-0.472l-0.298,45.049l10.69-0.148
				C605.146,602.592,608.396,599.615,608.396,593.836z"/>
		</g>
	</g>
	<path fill="#414042" d="M655.107,651.684c-7.194,13.867-34.084,8.359-45.545,4.688c-15.702-5.011-31.009-12.204-47.032-15.38
		c5.879,0.224,12.478,2.506,17.364,3.771c8.954,2.332,17.438,6.028,26.27,8.684c14.388,4.341,43.387,9.104,49.538-10.171
		c3.374-10.519-0.496-21.31-11.857-23.541c-8.161-1.589-18.704,3.671-15.132,13.692c1.414,3.969,5.186,5.481,9.129,3.845
		c-0.445-0.024-0.794,0.051-1.239-0.05c-4.044-8.78,12.948-8.955,11.634,2.53c-0.967,8.459-10.418,13.321-18.083,14.636
		c-17.216,2.927-33.117-5.631-49.191-10.593c-12.75-3.943-25.129-6.797-37.854-4.291c-2.259,0.124-4.54,0.372-6.872,0.744
		c-12.651,2.084-29.668,14.438-23.665,29.321c1.836,4.538,5.284,8.062,10.245,8.78c3.447,0.496,9.698-0.67,8.683-5.383v-1.96
		c-4.563-0.942-5.012-6.797-0.968-9.401c3.82-2.455,9.377-1.314,13.172,0.124c4.168,1.562,5.557,4.812,8.807,7.716
		c5.159,4.612,4.737-1.391,2.108-5.21c5.481,0.894,7.812,17.066,3.795,20.315c0.894,1.216,2.332,1.812,3.796,1.688
		c-0.918,2.356-4.093,2.456-5.854,1.066c3.025,10.097,17.239,2.828,19.447-4.613c1.314-4.415,0.844-10.345-0.968-14.637
		c-1.389-3.299-7.938-7.715-7.641-10.69c6.697,0.197,11.933,16.348,14.215,21.433c2.977,6.697,5.729,11.336,11.51,15.554
		c0.224-2.529,0-5.159,0.174-7.689c1.959,0.77,2.184,6.202,4.191,8.335c2.406,2.556,5.481,2.902,8.038,5.086
		c2.331-2.902,3.771-6.896,3.771-10.568c0.024-3.473-2.556-6.474-2.58-9.104c1.562,1.313,3.35,2.355,4.564,4.044
		c-0.05-3.3,0.521-6.352-1.588-9.104c-1.562-2.033-4.465-2.604-5.682-4.812c3.522,1.612,6.054,5.036,9.699,6.647
		c5.408,2.406,11.733,2.928,17.588,2.556c4.737-0.298,24.062-4.144,21.879-12.154c-1.239,0.297-2.803,0.646-4.167,0.322
		C653.866,665.352,657.514,656.992,655.107,651.684z"/>
	<path fill="#414042" d="M413.321,668.453c3.149-7.591,17.513-5.88,23.688-4.466c8.459,1.936,16.818,5.036,25.354,6.003
		c-3.103,0.148-6.648-0.77-9.278-1.215c-4.812-0.818-9.401-2.383-14.164-3.398c-7.739-1.638-23.169-2.854-25.551,7.516
		c-1.29,5.682,1.19,11.163,7.244,11.833c4.341,0.473,9.648-2.754,7.343-7.839c-0.918-2.009-2.952-2.653-4.962-1.611
		c0.248,0,0.422-0.051,0.646-0.024c2.506,4.439-6.399,5.259-6.227-0.819c0.148-4.488,4.887-7.44,8.831-8.482
		c8.905-2.308,17.612,1.488,26.27,3.397c6.848,1.515,13.495,2.456,20.044,0.57c1.19-0.174,2.382-0.396,3.571-0.694
		c6.549-1.638,14.935-8.881,11.113-16.422c-1.166-2.307-3.125-3.992-5.755-4.167c-1.836-0.124-5.062,0.77-4.316,3.199l0.074,1.019
		c2.432,0.298,2.928,3.349,0.918,4.887c-1.91,1.464-4.861,1.092-6.921,0.521c-2.257-0.646-3.125-2.281-4.961-3.672
		c-2.902-2.183-2.432,0.942-0.895,2.828c-2.927-0.224-4.86-8.606-2.877-10.493c-0.521-0.596-1.313-0.844-2.059-0.72
		c0.372-1.29,2.033-1.463,3.024-0.818c-2.032-5.159-9.178-0.72-9.996,3.274c-0.495,2.382,0,5.457,1.142,7.641
		c0.868,1.662,4.515,3.696,4.465,5.26c-3.522,0.197-6.995-8.037-8.409-10.617c-1.859-3.374-3.497-5.682-6.722-7.665
		c0,1.34,0.223,2.704,0.248,4.043c-1.067-0.322-1.414-3.15-2.58-4.191c-1.39-1.241-3.002-1.266-4.44-2.308
		c-1.092,1.638-1.662,3.796-1.514,5.706c0.149,1.811,1.638,3.273,1.762,4.663c-0.867-0.62-1.859-1.092-2.58-1.936
		c0.175,1.736,0,3.35,1.24,4.713c0.918,0.992,2.456,1.166,3.2,2.282c-1.91-0.693-3.398-2.382-5.383-3.051
		c-2.952-1.019-6.276-1.019-9.327-0.571c-2.48,0.372-12.428,3.227-10.939,7.344c0.646-0.224,1.438-0.446,2.184-0.348
		C413.37,661.234,411.832,665.773,413.321,668.453z"/>
</g>
<g id="Layer_2">
	<g>
		<path fill="#010101" d="M466.282,399.256c0.348-0.422,0.645-0.941,0.817-1.562c0,0-1.712,0.62-0.124-1.29l1.217-1.812
			l-2.061,1.414l0.298-1.166l-0.992,1.439l1.786-3.548l-1.092,0.546l1.91-2.778l-1.166,0.472l1.29-2.529l-0.868,0.422l1.092-3.944
			l-8.186,10.84c0,0,1.364-3.572,1.24-3.397c-0.124,0.174-1.96,1.464-1.96,1.464s2.977-5.036,0.546-6.724
			c0,0,1.239,2.309-2.605,6.848l-1.165-0.794c0,0-1.886,3.993-0.521,6.103h10.543V399.256z"/>
		<path d="M512.322,355.597v1.315c0,0,0.521,0.669,2.928,0.421C515.274,357.309,515.572,354.382,512.322,355.597"/>
		<g>
			<g>
				<g>
					<g>
						<path fill="#E5E5E5" d="M520.261,400.67c0.348,0.124,0.694,0.272,1.018,0.396l-1.142-9.923c0,0-0.472,0.1-1.29,0.224
							C520.261,394.27,520.707,397.544,520.261,400.67z"/>
					</g>
				</g>
			</g>
		</g>
		<g>
			<path fill="#010101" d="M475.485,367.454c0.023,0,0.023,1.29,0.794,3.498c0.347,1.116,0.918,2.431,1.34,4.143
				c0.099,0.422,0.173,0.868,0.223,1.34c0.05,0.446,0.101,0.917,0.124,1.413c0.05,0.969,0.074,2.011,0.05,3.103
				c-0.024,0.545-0.024,1.116-0.298,2.827c-0.224,1.39-0.174,2.382-0.521,4.292l0.099-4.168c0.025-1.34,0.025-3.001-0.05-4.911
				c-0.049-0.942-0.1-2.011-0.248-3.076c-0.148-1.066-0.471-2.184-0.793-3.374c-0.149-0.595-0.199-0.894-0.397-2.133
				C475.634,369.464,475.386,368.596,475.485,367.454"/>
		</g>
		<g>
			<path fill="#010101" d="M474.518,370.332c0.025,0,0.124,0.744,0.771,1.86c0.322,0.569,0.769,1.216,1.265,2.059
				c0.248,0.422,0.496,0.894,0.721,1.438c0.223,0.546,0.321,1.165,0.371,1.812c0.024,0.322,0.051,0.645-0.123,1.637
				c-0.074,0.397-0.101,0.744-0.149,1.116s-0.099,0.794-0.322,1.29c0,0,0.124-0.843,0.025-2.331c-0.05-0.745-0.124-1.662-0.372-2.68
				c-0.273-0.968-0.918-2.034-1.538-3.324c-0.149-0.322-0.174-0.496-0.348-1.215C474.717,371.448,474.493,370.977,474.518,370.332"
				/>
		</g>
		<g>
			<path fill="#010101" d="M482.158,372.986c0,0,0.521,0.693,1.29,2.133c0.372,0.72,0.794,1.638,1.116,2.804
				c0.147,0.57,0.298,1.19,0.371,1.885c0.051,0.694,0.051,1.414-0.023,2.158c-0.05,0.372-0.05,0.77-0.422,1.936
				c-0.149,0.472-0.225,0.867-0.349,1.314c-0.124,0.446-0.247,0.942-0.619,1.488c0,0,0.348-0.942,0.521-2.754
				c0.075-0.894,0.149-2.034,0.124-3.324c-0.024-1.265-0.347-2.729-0.843-4.341c-0.124-0.396-0.124-0.62-0.372-1.438
				C482.754,374.201,482.406,373.705,482.158,372.986"/>
		</g>
		<g>
			<path fill="#010101" d="M483.696,366.14c0,0,0.124,0.446,0.472,1.19c0.347,0.744,1.017,1.736,2.009,2.928
				c0.124,0.148,0.248,0.297,0.597,0.818c0.271,0.422,0.569,0.62,0.991,1.166c0,0-0.396-0.323-1.115-0.992
				c-0.349-0.323-0.771-0.744-1.217-1.29c-0.445-0.546-0.918-1.191-1.29-2.034c-0.073-0.198-0.1-0.322-0.197-0.744
				C483.845,366.834,483.721,366.562,483.696,366.14"/>
		</g>
		<g>
			<path fill="#010101" d="M491.783,367.776c0,0,0.074,0.148,0.197,0.446c0.125,0.297,0.248,0.77,0.57,1.24
				c0.67,1.042,1.488,2.629,3.176,4.093c0.198,0.198,0.446,0.372,1.042,1.066c0.224,0.272,0.446,0.521,0.646,0.794
				s0.396,0.62,0.446,1.116c0,0-0.024-0.198-0.198-0.521s-0.496-0.744-0.992-1.216s-1.216-0.968-1.96-1.687
				c-0.744-0.721-1.414-1.713-2.009-2.854c-0.149-0.272-0.199-0.447-0.447-1.042C492.08,368.769,491.98,368.348,491.783,367.776"/>
		</g>
		<g>
			<path fill="#010101" d="M463.9,369.712c0,0,0.224,0.719,1.042,1.812c0.396,0.546,0.941,1.189,1.487,2.033
				c0.273,0.422,0.521,0.894,0.721,1.465c0.197,0.545,0.271,1.164,0.348,1.785c0.049,0.322,0.074,0.646,0.099,1.638
				c0,0.817,0.124,1.363,0.198,2.506c0,0-0.198-0.844-0.421-2.382c-0.124-0.77-0.248-1.736-0.472-2.828
				c-0.225-1.066-0.918-2.133-1.736-3.324c-0.198-0.297-0.273-0.446-0.62-1.091C464.322,370.803,464.05,370.356,463.9,369.712"/>
		</g>
		<g>
			<path fill="#010101" d="M482.208,374.449c0,0,0.223,0.248,0.496,0.794c0.147,0.272,0.298,0.571,0.57,0.894
				c0.247,0.322,0.62,0.72,0.794,1.314v-0.024c0.1,0.297,0.174,0.62,0.223,0.968c0.025,0.174,0.05,0.371,0.025,0.942
				c-0.025,0.471,0.073,0.77,0.073,1.389c0,0-0.1-0.298-0.197-0.844c-0.124-0.545-0.198-1.364-0.496-2.331l0,0l0,0
				c-0.101-0.496-0.521-0.942-0.868-1.538c-0.1-0.174-0.124-0.298-0.225-0.694C482.506,375.021,482.355,374.772,482.208,374.449"/>
		</g>
		<g>
			<path fill="#FFFFFF" d="M453.433,408.979c0,0-9.202-9.55-6.82-18.777c2.381-9.203,5.457-6.475,8.532-9.897
				c3.076-3.423,10.244-8.186,9.551-13.644c-0.67-5.457,3.746-6.151,7.517-11.609c3.746-5.457,7.839-3.075,16.05-2.729
				c8.187,0.348,15.354,1.712,18.432,9.203c3.075,7.517,6.821,15.577,9.896,18.703c3.076,3.127,6.152,17.142,5.458,19.522
				c-0.695,2.381-15.703,12.974-23.541,15.355c-7.839,2.381-17.414,5.108-25.947,2.059
				C464.024,414.09,453.433,408.979,453.433,408.979"/>
		</g>
		<g>
			<path fill="#414042" d="M480.918,419.225c-3.15,0-5.979-0.471-8.607-1.414c-8.459-3.051-19.075-8.16-19.176-8.211l-0.197-0.147
				c-0.397-0.396-9.451-9.947-6.995-19.423c1.687-6.45,3.795-7.394,5.854-8.312c0.968-0.422,1.886-0.844,2.828-1.859
				c0.744-0.818,1.712-1.712,2.704-2.654c3.175-2.952,7.145-6.623,6.673-10.468c-0.472-3.82,1.438-5.606,3.646-7.69
				c1.239-1.166,2.653-2.479,3.969-4.391c1.886-2.729,3.944-3.846,7.145-3.846c1.266,0,2.629,0.148,4.192,0.348
				c1.538,0.174,3.299,0.396,5.283,0.472c7.417,0.322,15.628,1.34,19.025,9.649c3.92,9.574,7.293,15.976,9.749,18.479
				c3.35,3.424,6.352,17.639,5.631,20.192c-0.817,2.901-16.271,13.47-24.012,15.826
				C492.726,417.588,486.871,419.225,480.918,419.225z M453.854,408.409c1.166,0.569,11.015,5.259,18.928,8.11
				c2.479,0.895,5.135,1.341,8.137,1.341c5.755,0,11.51-1.612,17.364-3.374c7.839-2.381,22.523-12.925,23.095-14.884
				c0.595-2.108-2.406-15.9-5.284-18.854c-2.629-2.679-6.003-9.054-10.046-18.927c-2.777-6.797-9.129-8.436-17.836-8.781
				c-2.034-0.074-3.82-0.298-5.383-0.472c-1.538-0.175-2.854-0.348-4.044-0.348c-2.282,0-4.167,0.545-6.027,3.249
				c-1.39,2.034-2.878,3.398-4.168,4.614c-2.183,2.034-3.621,3.373-3.225,6.524c0.569,4.539-3.671,8.458-7.095,11.634
				c-0.992,0.918-1.936,1.786-2.63,2.555c-1.115,1.24-2.281,1.762-3.273,2.208c-1.937,0.844-3.599,1.588-5.086,7.394
				C445.122,398.66,452.961,407.441,453.854,408.409z"/>
		</g>
		<g>
			<path fill="#414042" d="M460.949,380.676c0,0,0.322-0.099,0.868-0.198c0.546-0.099,1.265-0.197,2.257-0.224
				c0.124,0,0.248,0,0.67,0.124c0.348,0.1,0.546-0.099,1.018-0.049c0,0-0.272,0.248-0.894,0.496
				c-0.597,0.248-1.538,0.496-2.729,0.248c-0.148-0.025-0.224-0.101-0.496-0.248C461.396,380.75,461.172,380.8,460.949,380.676"/>
		</g>
		<g>
			<path fill="#414042" d="M464.694,381.197c0,0,1.363-0.67,3.597-0.273c0.148,0.025,0.298,0.05,0.72,0.273
				c0.372,0.173,0.62,0.023,1.116,0.197c0,0-0.372,0.175-1.092,0.272c-0.719,0.1-1.761,0.1-3.025-0.124
				c-0.148-0.024-0.224-0.099-0.546-0.223C465.216,381.172,464.992,381.271,464.694,381.197"/>
		</g>
		<g>
			<path fill="#414042" d="M468.093,382.735c0,0,0.771,0.271,2.185,0.719c1.412,0.446,3.473,1.018,6.15,1.438
				c0.349,0.051,0.67,0.125,1.762,0.373c0.868,0.198,1.488,0.05,2.729,0.173c0,0-0.918,0.225-2.654,0.273
				c-1.712,0.024-4.341-0.124-7.293-1.39c-0.348-0.148-0.521-0.298-1.189-0.72C469.234,383.306,468.688,383.156,468.093,382.735"/>
		</g>
		<g>
			<path fill="#414042" d="M484.118,388.515c0,0,0.223-0.147,0.595-0.321c0.372-0.149,0.943-0.372,1.762-0.322
				c0.1,0,0.224,0.023,0.521,0.223c0.248,0.174,0.422,0.05,0.72,0.273c0,0-0.272,0.074-0.72,0.147
				c-0.447,0.074-1.042,0.225-1.96,0.198c-0.099,0-0.173-0.074-0.396-0.147C484.465,388.49,484.316,388.589,484.118,388.515"/>
		</g>
		<g>
			<path fill="#414042" d="M490.27,388.515c0,0,0.149-0.271,0.547-0.645c0.396-0.372,1.042-0.794,1.96-1.042
				c0.124-0.025,0.247-0.074,0.645-0.025c0.348,0.025,0.496-0.173,0.943-0.173c0,0-0.248,0.248-0.744,0.545
				c-0.497,0.298-1.241,0.67-2.258,1.019c-0.124,0.05-0.225,0-0.496,0.05C490.642,388.267,490.518,388.44,490.27,388.515"/>
		</g>
		<g>
			<path fill="#414042" d="M505.551,386.63c0,0,0.173-0.05,0.57-0.05c0.372,0,0.967,0.124,1.588,0.496
				c0.645,0.372,1.314,1.017,1.959,1.786c0.348,0.396,0.67,0.817,1.042,1.239c0.446,0.521,0.694,1.116,0.942,1.736
				c0.1,0.322,0.272,0.646,0.322,1.712c0.024,0.446,0.05,0.793,0.024,1.19c-0.024,0.198-0.05,0.422-0.174,0.62
				c-0.124,0.197-0.347,0.396-0.646,0.396c-0.024,0,0.248-0.049,0.422-0.372c0.174-0.321,0.148-0.918-0.05-1.662
				c-0.224-0.743-0.569-1.661-1.116-2.604c-0.073-0.124-0.148-0.224-0.224-0.322c-0.05-0.074-0.198-0.198-0.271-0.322
				c-0.199-0.248-0.423-0.495-0.62-0.77c-0.397-0.521-0.819-1.091-1.315-1.612c-0.248-0.248-0.297-0.445-0.868-0.918
				C506.717,386.778,506.195,386.679,505.551,386.63"/>
		</g>
		<g>
			<path fill="#414042" d="M510.312,394.071c0,0,0.174,0.147,0.272,0.521c0.1,0.349,0.025,0.943-0.422,1.439
				c-0.049,0.05-0.099,0.124-0.396,0.223c-0.224,0.075-0.197,0.273-0.472,0.397c0,0,0-0.248,0.124-0.597
				c0.101-0.372,0.322-0.794,0.596-1.34c0.024-0.074,0.124-0.099,0.224-0.248C510.338,394.344,510.238,394.245,510.312,394.071"/>
		</g>
		<g>
			<path fill="#414042" d="M464.521,391.615c0,0.024,0.619-0.224,1.836-0.248c1.216-0.024,3.025,0.272,5.011,1.266
				c0.248,0.124,0.496,0.248,1.216,0.77c0.57,0.445,1.092,0.496,1.91,1.042c0,0-0.744-0.148-2.034-0.597
				c-1.29-0.421-3.076-1.215-5.433-1.811c-0.299-0.074-0.422-0.174-1.042-0.348C465.538,391.565,465.092,391.665,464.521,391.615"/>
		</g>
		<g>
			<path fill="#414042" d="M476.453,396.155c0,0,0.471-0.124,1.289,0.099c0.844,0.174,1.936,0.744,3.2,1.514
				c0.074,0.051,0.148,0.1,0.272,0.175c0.124,0.073,0.298,0.223,0.521,0.471c0.348,0.396,0.67,0.521,1.065,1.067
				c0,0-0.124-0.051-0.347-0.175c-0.224-0.124-0.521-0.321-0.918-0.496c-0.198-0.1-0.422-0.174-0.67-0.272
				c-0.298-0.1-0.57-0.248-0.894-0.396c-0.62-0.321-1.266-0.72-1.984-1.166c-0.173-0.1-0.248-0.224-0.595-0.472
				C477.146,396.304,476.825,396.304,476.453,396.155"/>
		</g>
		<g>
			<path fill="#414042" d="M487.789,360.087c0,0-1.092,0.62-2.754,2.133c-0.843,0.744-1.835,1.737-3.199,2.729
				s-3.126,1.711-4.59,3.101c-0.198,0.174-0.372,0.348-0.646,0.62c-0.271,0.298-0.645,0.67-1.092,1.364
				c-0.744,1.141-0.843,2.107-1.612,3.82l0.248-0.992c0.175-0.646,0.397-1.639,0.918-2.878c0.272-0.62,0.646-1.29,1.19-1.936
				c0.273-0.322,0.571-0.62,0.894-0.941c0.322-0.323,0.721-0.597,1.116-0.869c0.794-0.545,1.688-1.041,2.58-1.587
				c0.894-0.546,1.786-1.216,2.729-1.96c0.471-0.349,0.719-0.496,1.735-1.166C486.127,361.055,486.771,360.483,487.789,360.087"/>
		</g>
		<g>
			<path fill="#414042" d="M476.105,370.431c0,0,0.123,0.323,0.1,0.918c-0.025,0.597-0.224,1.464-0.77,2.356
				c-0.074,0.124-0.148,0.224-0.472,0.546c-0.272,0.248-0.224,0.521-0.521,0.918c0,0-0.024-0.396,0.124-1.042
				c0.148-0.645,0.495-1.513,1.017-2.555c0.05-0.124,0.149-0.174,0.323-0.446C476.056,370.902,476.006,370.679,476.105,370.431"/>
		</g>
		<g>
			<path fill="#414042" d="M469.805,367.032c0,0-0.05,0.496-0.023,1.34c0.023,0.844,0.099,2.059,0.223,3.622
				c0.025,0.198,0.025,0.396-0.023,1.041c-0.025,0.546,0.197,0.844,0.371,1.538c0,0-0.396-0.421-0.77-1.39
				c-0.347-0.941-0.669-2.431-0.396-4.292c0.024-0.223,0.125-0.347,0.272-0.793C469.631,367.752,469.605,367.404,469.805,367.032"/>
		</g>
		<g opacity="0.32">
			<g>
				<g>
					<rect x="464.496" y="370.555" fill="none" width="44.056" height="15.679"/>
				</g>
				<g>
					<path fill="#010101" d="M468.02,384.496c10.07,3.92,32.321,0.422,37.805-2.48c5.457-2.901,1.29-4.093-0.074-4.861
						c-1.364-0.77-11.089-1.29-12.974-1.166c-1.887,0.124-4.168-1.984-6.054-4.465s-8.285,0.422-9.203,2.208
						c-0.942,1.785-9.551,3.919-11.014,4.688c-0.72,0.372-1.39,1.141-1.861,1.786c-0.471,0.645,0.447,2.108,0.447,2.108
						L468.02,384.496z"/>
				</g>
			</g>
		</g>
		<g>
			<path fill="#414042" d="M450.48,383.479c0,0.024,0.197-0.694,1.216-1.514c0.496-0.396,1.216-0.769,2.059-1.116
				c0.422-0.174,0.868-0.321,1.315-0.496c0.396-0.147,0.843-0.445,1.339-0.743c0.124-0.074,0.272-0.148,0.496-0.248
				c0.124-0.051,0.248-0.101,0.422-0.124c0.198-0.05,0.396-0.024,0.645,0c0.771,0.1,1.241,0.05,2.282,0.147
				c0,0-0.198,0.075-0.57,0.124c-0.371,0.075-0.941,0.101-1.611,0.174c-0.148,0.025-0.349,0.051-0.473,0.101
				s-0.297,0.147-0.471,0.248c-0.348,0.223-0.695,0.521-1.166,0.794c-0.224,0.147-0.521,0.297-0.794,0.372
				c-0.272,0.099-0.521,0.198-0.818,0.271c-0.546,0.174-1.142,0.349-1.712,0.597c-0.271,0.124-0.472,0.099-1.065,0.372
				C451.175,382.686,450.902,383.082,450.48,383.479"/>
		</g>
		<g>
			<path fill="#414042" d="M510.388,379.659c0,0,0.074,0.271,0.372,0.693c0.272,0.423,0.894,0.894,1.812,1.166
				c0.472,0.148,1.018,0.248,1.611,0.396c0.298,0.074,0.62,0.174,0.969,0.298c0.348,0.124,0.67,0.298,0.991,0.472
				c0.646,0.372,1.314,0.844,1.936,1.488c0.298,0.322,0.571,0.694,0.794,1.116l0.074,0.147l0.075,0.124
				c0.05,0.101,0.123,0.225,0.173,0.322c0.1,0.225,0.198,0.447,0.272,0.695c0.148,0.471,0.248,0.967,0.349,2.431
				c0.073,0.597,0.247,1.066,0.445,1.612c0.174,0.521,0.422,1.116,0.472,1.96c0,0-0.05-0.298-0.272-0.868
				c-0.198-0.57-0.62-1.313-1.018-2.479c-0.173-0.57-0.298-1.217-0.472-1.86c-0.1-0.323-0.197-0.67-0.348-0.968
				c-0.074-0.148-0.148-0.322-0.248-0.473l-0.024-0.049c0-0.024-0.023-0.05-0.05-0.075l-0.023-0.023l-0.075-0.124
				c-0.049-0.074-0.099-0.148-0.148-0.248c-0.422-0.646-1.042-1.24-1.786-1.762c-0.371-0.248-0.769-0.521-1.189-0.72
				c-0.421-0.197-0.895-0.348-1.414-0.521c-0.248-0.074-0.422-0.148-0.67-0.272s-0.57-0.248-1.018-0.521
				c-0.348-0.225-0.694-0.447-0.968-0.771C510.686,380.552,510.462,380.155,510.388,379.659"/>
		</g>
		<g opacity="0.32">
			<g>
				<g>
					<path fill="#010101" d="M519.417,385.935c0,0-4.911,0.845-6.276,1.887c-1.363,1.017-5.68,8.806-9.674,9.972
						s-13.768,2.754-15.926,1.86c-2.158-0.917-11.386-7.641-20.938-6.723c-9.55,0.917-14.287-0.05-16.174-0.942
						c-1.908-0.868-4.515-1.438-4.24,1.414c0.297,2.853,4.812,15.578,7.912,16.472c3.102,0.868,11.237,4.489,13.297,5.333
						c2.084,0.818,9.253,5.036,19.695,2.804c10.443-2.232,14.313-4.342,19.622-6.698c5.481-3.373,13.644-8.757,14.511-10.394
						c0.845-1.538,0.943-2.828,0.496-5.358C521.327,392.955,520.013,385.836,519.417,385.935"/>
				</g>
			</g>
		</g>
		<g>
			<path fill="#414042" d="M452.887,408.483c0-0.024,0.546,0.472,1.688,0.646c0.57,0.099,1.29,0.148,2.158,0.248
				c0.224,0.024,0.446,0.05,0.694,0.099c0.248,0.051,0.496,0.124,0.744,0.175c0.496,0.148,0.992,0.321,1.513,0.521
				c0.273,0.099,0.521,0.198,1.314,0.62c0.67,0.322,1.166,0.297,2.158,0.521c0,0-0.77,0.175-2.184-0.073
				c-0.693-0.124-1.538-0.322-2.479-0.597l-0.744-0.197l-0.372-0.101l-0.396-0.074c-0.547-0.099-1.166-0.197-1.786-0.371
				c-0.298-0.1-0.472-0.175-1.041-0.496C453.705,409.129,453.234,408.979,452.887,408.483"/>
		</g>
		<g>
			<path fill="#414042" d="M488.062,415.702c0,0,0.471-0.024,1.313-0.198c0.868-0.174,2.084-0.596,3.646-1.24
				c1.562-0.646,3.572-1.363,5.953-1.935c1.191-0.298,2.456-0.571,3.797-0.968c0.669-0.198,1.339-0.422,2.033-0.67l2.158-0.721
				l1.314-0.445c0.569-0.198,1.34-0.446,2.505-0.918c0.942-0.396,1.688-0.818,2.456-1.364c0.77-0.57,1.611-1.215,2.431-2.356
				c0,0-0.223,0.496-0.893,1.267c-0.67,0.769-1.86,1.784-3.598,2.703c-1.735,0.968-3.993,1.836-6.647,2.754
				c-1.314,0.496-2.803,0.893-4.365,1.239c-1.562,0.349-3.2,0.694-4.912,1.217c-0.818,0.223-1.266,0.321-3.002,0.843
				C490.915,415.256,489.699,415.752,488.062,415.702"/>
		</g>
	</g>
</g>
<g id="Layer_5">
	<path fill="#636363" d="M543.876,315.709c0,0-2.604,13.742-1.042,17.364c1.562,3.621,4.887,14.09,3.672,17.364
		c-1.216,3.248-0.05,4.217,1.885,0.769c1.936-3.423,0.496-8.509,4.068-12.403c3.572-3.894,4.664-5.309,4.664-5.309l1.835-7.863
		L543.876,315.709z"/>
	<path fill="#414042" d="M570.617,304.298c0,0,7.889,11.659,8.434,14.164c0.546,2.506-1.265,9.477-4.217,10.097
		s-0.396,13.742-0.67,18.703c0.943,5.78,2.952,13.769,3.225,14.811c0.273,1.017,1.067,8.062-2.183,20.613
		c-0.843,3.199-3.125,7.418-2.902,7.739c0.225,0.322-5.854-0.769-5.557-4.439c0.323-3.671,1.216-5.779,1.39-8.187
		c0.175-2.407,0-5.903,0.05-7.244c0.05-1.339,0.446-2.505,0.546-3.671s0.124-1.735-0.124-2.405c-0.1-0.248-0.297-0.62-0.472-0.969
		c-0.321-0.569-0.77-2.853-0.77-2.853l-0.198-2.729c0,0-1.786-8.137-5.655-13.692c-1.712-2.158-3.695-6.302-4.218-7.169
		c-0.546-0.844-0.744-1.39-0.893-2.184c-0.175-1.018-0.942-1.836-1.612-2.231c-0.67-0.397-1.142-0.868-1.439-1.166
		c-2.033-2.158-2.381-4.168-2.405-4.564c-0.05-0.396-0.272-0.769-0.272-0.769s-11.287-10.346-17.836-18.109
		c-6.549-7.789-6.847-7.417-6.847-7.417s-0.396,0.173-0.942-0.298c-0.546-0.471-1.364-1.116-1.364-1.116v0.57l-0.645-0.099
		c0,0,0.124,0.397,0,0.471c-0.124,0.075-0.447,0.174-0.447,0.174s0.199,1.017,0.225,1.364c0.023,0.372,1.166,5.78,1.34,6.35
		c0.173,0.571-0.446,2.158-0.597,3.15c-0.174,1.018-0.918,10.345-0.968,14.289c-0.074,3.943-1.859,10.74-3.373,11.014
		c-1.514,0.272-4.838-1.066-4.912-6.251c-0.099-5.185-0.62-8.137-1.438-9.401c-0.794-1.239-0.895-2.68-0.895-4.737
		c0-2.059-2.776-24.683-2.331-27.907c0.272-1.885-0.991-2.778,0.795-3.299c1.784-0.546,5.282-1.439,6.522-0.993
		c1.24,0.447,12.974,3.299,24.409,11.708c11.361,7.517,23.021,6.003,24.707,6.45C567.789,302.537,570.617,304.298,570.617,304.298z"
		/>
	<path fill="none" stroke="#000000" stroke-width="1.0819" stroke-miterlimit="10" d="M567.069,307.026c0,0,6.399,4.737,8.955,5.655
		"/>
	<path d="M569.104,358.697c-0.619-1.091-1.313-2.133-2.355-3.051c-0.248-0.225-0.646,0.1-0.422,0.321
		c1.018,0.868,1.662,1.886,2.282,2.952C568.757,359.169,569.253,358.945,569.104,358.697z"/>
	<path fill="#BCBCBC" stroke="#000000" stroke-width="3.7865" stroke-miterlimit="10" d="M562.01,265.277
		c0,0-2.828,18.481-4.788,23.318c-1.96,4.837,17.612,18.233,18.828,22.002c1.216,3.771,3.845-2.208,9.947-17.464
		c6.102-15.256,6.522-40.161-4.515-43.584C570.468,246.127,564.291,259.423,562.01,265.277z"/>
	<path fill="none" stroke="#000000" stroke-width="1.0819" stroke-miterlimit="10" d="M558.438,308.093c0,0-6.87,3.522-9.601,1.886
		c-2.729-1.638-7.913-5.805-9.352-7.393c-1.438-1.587-5.11-2.48-5.457-2.604c-0.349-0.124-1.612-0.521-3.126-3.771
		c-1.515-3.25-3.572-6.227-8.979-6.921c-5.408-0.695-8.137-0.794-8.161,0.669c-0.024,1.489,0.942,4.167-0.396,6.4
		c-1.34,2.232-0.918,3.398,0.521,6.177c0.819,1.786,2.259,8.632,1.166,16.793"/>
	<path fill="none" stroke="#000000" stroke-width="0.8114" stroke-miterlimit="10" d="M573.99,304.174
		c1.588-9.675,3.672-19.299,4.366-29.073"/>
	<path fill="#969696" d="M584.137,267.411c0,0-1.562,3.646-1.936,9.551c-0.843,3.448-2.06,4.118-2.06,4.118
		s-6.275,18.877-8.509,22.103c2.456,1.24,4.738,2.679,4.938,2.58c0.199-0.099,10.419-15.95,10.69-16.248
		c0.273-0.298,0.521-7.715,0.447-9.005c-0.1-1.314-1.166-9.972-1.438-10.245C586.021,269.991,584.137,267.411,584.137,267.411z"/>
	<path fill="none" stroke="#000000" stroke-width="0.8114" stroke-miterlimit="10" d="M572.304,303.33
		c1.588-9.674,3.598-18.778,4.292-28.577"/>
	<path d="M560.546,308.366c-0.57-1.116-1.314-2.158-1.812-3.324c-0.024-0.025-0.024-0.05-0.05-0.075c0-0.595,0.024-1.19,0.1-1.786
		c0.05-0.348-0.496-0.348-0.546,0c-0.248,2.009-0.049,4.019,0.422,5.979c0.074,0.347,0.596,0.198,0.521-0.149
		c-0.224-0.918-0.372-1.836-0.446-2.753c0.422,0.793,0.918,1.562,1.34,2.381C560.224,308.938,560.694,308.664,560.546,308.366z"/>
	<path fill="none" stroke="#000000" stroke-width="0.8114" stroke-miterlimit="10" d="M578.456,299.957
		c1.587-9.674,3.671-19.299,4.365-29.073c0,0,0.868-7.269,3.102-7.74"/>
	<path fill="none" stroke="#000000" stroke-width="0.8114" stroke-miterlimit="10" d="M565.408,266.021c0,0,9.426-1.91,18.033,2.307
		"/>
	<path fill="none" stroke="#000000" stroke-width="0.8114" stroke-miterlimit="10" d="M564.688,269.296
		c0,0,11.485-1.463,18.456,2.208"/>
	<path fill="#FFFFFF" stroke="#000000" stroke-width="1.0819" stroke-miterlimit="10" d="M565.507,300.056
		c0,0,10.767,5.631,14.115,6.425l-4.168,2.455l-10.567-6.027L565.507,300.056z"/>
	<path fill="none" stroke="#000000" stroke-width="0.2705" stroke-miterlimit="10" d="M516.143,319.206
		c0,0,0.473-10.22-0.073-13.445c-0.546-3.225-3.053-6.425-1.639-8.459c1.414-2.034-0.124-7.69,1.019-7.318
		c1.166,0.372,9.476-0.198,11.758,3.15c2.282,3.349,4.788,8.93,7.839,9.005c3.051,0.074,5.011,4.019,5.011,4.019
		s6.747,5.581,10.172,5.557c3.423-0.024,8.434-2.53,8.434-2.53"/>
	<path fill="#FFFFFF" stroke="#000000" stroke-width="3.7865" stroke-miterlimit="10" d="M579.82,247.343
		c0,0,33.438,22.201,29.396,30.412c-4.019,8.211-22.995,24.087-21.755,32.844c0,0-4.292-9.402,0-15.38
		c3.199-4.465,7.193-14.859,9.6-17.34c0.818-0.843,0.868-1.265-0.495-1.885c-1.712-0.769-3.673-3.25-9.104-7.69
		C577.637,260.292,579.82,247.343,579.82,247.343z"/>
	<path fill="none" stroke="#000000" stroke-width="0.2705" stroke-miterlimit="10" d="M563.795,331.213c0,0,0.323-2.902-0.347-3.722
		c-0.67-0.794-0.597-1.24,0.223-1.215c0.819,0.049,2.481-0.67,2.778-1.019c0.323-0.347,0.396-0.893,1.438-1.438
		c1.018-0.546,2.258-1.662,3.102-3.126c0.844-1.438,2.704-4.316,2.704-4.316l1.786-2.231c0,0,2.381,8.532,1.389,10.194
		s-6.599,6.003-9.005,6.45"/>
	<path fill="none" stroke="#000000" stroke-width="0.8114" stroke-miterlimit="10" d="M565.408,272.248
		c0,0,10.914-1.29,16.817,2.307"/>
	<path opacity="0.2" fill="#010101" enable-background="new    " d="M519.591,317.197c0,0-0.992-0.794-0.646-3.026
		c0.348-2.233,2.58-4.218,2.58-5.557c0-1.34,1.166-4.341-0.62-4.044c-1.786,0.298-4.787-1.389-3.125-1.984
		c1.661-0.595,3.001-4.019,2.257-5.309s0.248-3.349,1.91-1.463s2.853,1.439,2.653,0c-0.198-1.439,1.414-2.059,2.134,0.794
		s6.771,9.451,9.129,11.46c2.382,2.009,16.546,17.166,19.846,19.671c3.323,2.506,8.136,4.191,8.136,4.191s-3.819,4.416-3.473,5.879
		c0.348,1.464,7.069,15.927,7.765,18.208c0.694,2.282,0.545,3.474,0.148,4.64c-0.397,1.166,0.272,3.397,0.546,3.969
		c0.272,0.571-1.687-1.935-1.562-2.753s-0.125-3.721-0.868-5.631c-0.744-1.91-1.96-4.688-3.177-6.896
		c-1.661-3.374-4.465-9.501-4.465-9.501s-1.96-3.473-2.281-4.315c-0.397-1.042-1.116-2.282-2.135-3.15
		c-0.992-0.868-2.901-3.175-3.198-4.465c-0.299-1.29-3.2-4.268-3.87-4.887c-0.67-0.646-12.479-12.677-12.479-12.677l-8.137-9.352
		c0,0-0.843-0.223-1.91-0.868c-1.041-0.645-1.463-0.447-1.463-0.447l-0.62,0.769l0.124,1.265c0,0,1.438,6.228,1.339,6.871
		c-0.074,0.646-0.843,7.442-0.843,7.442l-0.273,1.042C523.039,317.098,520.607,316.428,519.591,317.197z"/>
	<path fill="none" stroke="#000000" stroke-width="0.8114" stroke-miterlimit="10" d="M564.688,263.74c0,0,11.337-2.679,19.448,2.48
		"/>
	<path fill="none" stroke="#000000" stroke-width="0.8114" stroke-miterlimit="10" d="M567.069,260.366
		c0,0,10.047-0.198,16.818,2.307"/>
	<path fill="none" stroke="#000000" stroke-width="0.8114" stroke-miterlimit="10" d="M567.318,258.034
		c0,0,8.706-1.067,16.817,2.307"/>
	<path fill="none" stroke="#000000" stroke-width="1.0819" stroke-miterlimit="10" d="M568.509,255.826c0,0-1.91,11.336-2.432,19.25
		"/>
	<path fill="none" stroke="#000000" stroke-width="1.0819" stroke-miterlimit="10" d="M575.729,255.182
		c0,0-1.29,11.138-2.481,19.721"/>
	<path fill="none" stroke="#000000" stroke-width="1.0819" stroke-miterlimit="10" d="M582.227,257.414c0,0,0,9.749-2.432,17.984"/>
	<path d="M536.781,227.101c0,0-0.818-0.496-1.438,2.803c-0.62,3.324-1.34,5.333-1.34,5.333s1.688,0.248,2.778-0.521
		c1.092-0.794,2.231-4.242,2.231-4.242S539.411,226.53,536.781,227.101z"/>
	<path fill="#F2F2F2" d="M538.617,233.079h-0.422c0,0-1.488,3.349-1.538,4.912c0,0,0.868-0.323,0.992-0.075
		c0.1,0.224,2.134,2.034,2.853,1.191c0.72-0.843,1.216,0.967,2.233,0.496c1.017-0.496,2.702,0.099,3.225-0.347
		c0.546-0.447,1.314-1.191,1.314-1.191l1.189-1.687v-1.017c0,0-0.147-0.472-0.595-0.67c-0.447-0.198-1.042-0.074-1.042-0.074
		l-0.198,0.297l-0.447-0.446c0,0-0.147-0.397-0.843,0.049c-0.695,0.447-0.918,0.695-0.918,0.695l-0.77-0.918
		c0,0-0.968,0.422-1.19,0.67c0,0-0.72-0.794-1.141-1.042c-0.422-0.223-1.937-0.297-1.937-0.297l-0.496,0.396L538.617,233.079z"/>
	<path fill="#FFFFFF" d="M537.773,230.623c0,0,0.743,1.588,0.817,2.208c0.05,0.446,0.05,0.446,0.05,0.446l0.248,0.323v0.273
		c0,0,1.984,0.223,2.654,0v-0.199c0,0,0.918,0.769,1.662,0.471c0.744-0.297,0.744-0.297,0.744-0.297s0.546,0.744,0.693,0.769
		c0.175,0,0.845-0.422,1.067-0.72c0.396,0.298,0.893,0.273,0.893,0.273h0.248c0,0,0.895,0.794,1.589,0.447
		c0,0-1.662-3.746-3.696-3.82c-2.034-0.05-5.062,0.149-6.228-0.174H537.773L537.773,230.623z"/>
	<path fill="#FFFFFF" stroke="#000000" stroke-width="3.7865" stroke-miterlimit="10" d="M545.984,202.22
		c0,0-7.317,10.542-6.922,12.081c0,0,1.19,1.488,0.521,2.232c-0.669,0.744-17.885,1.563-17.091,11.981
		c0.099,1.191,0.693,2.208,0.893,2.431c0.323,0.347,0.744,0.744,1.414,1.116c4.664,2.629,11.783-5.557,12.527-5.135
		c0.744,0.397-0.349,1.736-0.67,1.687c-0.322-0.049-0.521,0.571-0.174,0.943c0.272,0.298,1.19,0.595,1.812,0.868
		c0.793,0.347,2.455,0.546,3.051,0.446c0.446-0.074,3.722-0.595,4.465,0.1c0.744,0.694,2.879,3.076,3.177,5.457
		c0,0-0.895-0.347-2.456,3.076c-0.794,0.397-8.757,1.389-10.071-1.116l0.101-0.546c0,0-1.887,0.496-2.406,1.439
		c-0.62,1.091-0.225,2.332,0.322,2.679c0.546,0.348,2.355,1.265,2.629,1.935c0.396,0.868,0.894,1.389,0.322,2.232
		c-0.348,0.521-1.39,1.811-2.134,2.853c-0.496,0.669-1.042,1.091-0.596,2.778c0.447,1.662,1.936,3.026,2.084,3.2
		c0.868,1.116,3.126,0.819,4.59-0.049c1.289-0.744,4.067-2.109,4.961-2.381c0.894-0.273,4.341-0.149,7.689,2.381
		c1.514,2.208,3.25,1.935,4.59,1.414c2.406-0.967,4.167-0.272,4.167-0.272s4.688-0.124,7.243-1.067s2.68-2.952,3.35-6.574
		c0.669-3.622,0.669-6.846,0.669-6.846v-1.216c0,0-1.885-1.687-2.952-3.746c-1.065-2.084-1.065-2.555-1.065-2.555
		s2.084-3.696,1.414-8.186c-0.67-4.49-9.601-6.921-9.327-11.46c0.272-4.564,6.375-12.552,6.375-12.825
		c0-0.273,2.355-4.887-3.226-4.217c-5.557,0.67-13.741,0.497-17.836,3.845C546.803,201.426,545.984,202.22,545.984,202.22z"/>
	<path d="M598.127,275.622c0-0.124,0.05-0.223,0.074-0.322c-0.024,0-0.049-0.025-0.074-0.025l0,0c0.67-2.778,1.662-7.02,2.01-15.653
		c0.545-12.701-7.517-42.939-10.021-48.843c-2.506-5.904-8.138-8.484-8.138-8.484s-0.646,1.513-0.198,3.125
		c0.446,1.613-0.322,8.831-1.24,11.262c-0.942,2.431,0,8.682,0,11.808s3.3,12.155,5.11,17.712
		c1.785,5.557,5.729,14.313,7.689,17.538c1.959,3.225,1.959,28.279,3.051,26.121c1.066-2.158,0.894-8.062,1.066-11.088
		c0.05-0.893,0.273-1.811,0.546-2.977c0,0,0.024,0,0.024,0.025c0.024,0,0.05,0.024,0.074,0.024
		C598.127,275.746,598.127,275.696,598.127,275.622z"/>
	<path fill="#292929" d="M568.559,307.398c0,0,3.424,2.604,5.333,3.126c0.1,0.023,0.198,0.049,0.272,0.049
		c1.836,0.323,1.439-3.226,1.612-4.341c0,0-3.919-1.688-5.159-2.927L568.559,307.398z"/>
	<path fill="none" stroke="#000000" stroke-width="0.2705" stroke-miterlimit="10" d="M562.506,332.031c0,0-0.72,10.938,6.97,20.093
		c3.771,5.358,5.137,8.062,3.771,14.09c-1.364,6.028-2.133,11.437-1.612,13.172"/>
	<path fill="none" stroke="#000000" stroke-width="1.0819" stroke-miterlimit="10" d="M560.794,331.485
		c0,0,0.347,11.484,5.903,19.175c4.02,6.004,6.549,8.658,5.681,13.146c-0.868,4.49-2.827,13.544-1.761,15.729"/>
	<path fill="none" stroke="#000000" stroke-width="2.1637" stroke-miterlimit="10" d="M572.304,316.726c0,0-3.025,5.31-4.439,5.93
		c-1.414,0.596-1.463,0.794-1.761,1.513c-0.521,0.249-1.786,1.315-3.771,1.018c-0.273,0.372-0.199,1.116,0.174,2.308
		c0.372,1.216,0.646,3.622,0.646,3.622s2.506,0.893,4.613,0c2.108-0.895,3.398-1.86,3.398-1.86s6.573-2.084,7.714-5.83
		c1.143-3.745-2.281-10.69-2.281-10.69l-2.258-3.745l-0.844-0.646C573.494,308.291,573.42,314.096,572.304,316.726z"/>
	<path fill="#292929" d="M552.359,300.056c0,0,0.298,7.145,3.126,14.115c2.827,6.97,8.633,12.254,18.355,9.972l0.597-7.417
		c0,0-7.046,2.456-11.338-5.557c-4.291-8.012-4.937-13.892-4.937-13.892L552.359,300.056z"/>
	<g>
		<g>
			<path fill="none" stroke="#000000" stroke-width="0.5409" stroke-miterlimit="10" d="M556.8,298.418c0,0,0.025,0.099,0.074,0.248
				"/>
			<path fill="none" stroke="#000000" stroke-width="0.5409" stroke-miterlimit="10" stroke-dasharray="2.1658,2.1658" d="
				M557.073,299.188c0.941,2.803,4.391,12.577,7.268,15.33c3.076,3.398,6.177,3.722,10.643,3.448"/>
			<path fill="none" stroke="#000000" stroke-width="0.5409" stroke-miterlimit="10" d="M575.256,317.966c0.1,0,0.174,0,0.272-0.023
				"/>
		</g>
	</g>
	<path fill="none" stroke="#000000" stroke-width="0.5409" stroke-miterlimit="10" stroke-dasharray="2.1637" d="M553.451,301.321
		c0,0,1.266,14.015,8.137,19.647c3.225,2.654,6.228,3.447,10.964,3.15"/>
	<path fill="#FFFFFF" stroke="#000000" stroke-width="3.7865" stroke-miterlimit="10" d="M565.606,277.805
		c-0.721,2.977-1.515,7.119-1.589,9.005c-0.1,2.332-0.546,1.166-2.059-0.893c-1.514-2.332-12.007-13.917-16.62-17.687
		c-1.142-0.819-2.084-1.364-8.087-3.597c-6.003-2.233-4.912,3.299-2.68,4.391c2.232,1.066,3.846,2.679,3.846,2.679
		s2.604,3.126,5.457,6.177c2.854,3.051,12.006,21.582,14.312,24.881c2.034,2.902,2.951,3.696,4.962,5.11
		c2.084,1.438,4.167,0.546,4.688,0.173c5.358-3.845,12.279-26.914,12.279-26.914s0.073-2.059-0.895-2.233
		C569.848,277.061,565.705,277.333,565.606,277.805z"/>
	<path d="M545.736,202.096l0.72-0.397v0.397c0,0,0.347-0.05,0.942-0.397v0.397c0,0,0.77-0.05,1.065-0.943
		c0.447-0.62,0.447-0.62,0.447-0.62v1.116l2.231-1.116l-0.57,0.794l0.57-0.198l-0.546,0.545c0,0,1.341-0.049,2.854-0.769
		c0.941-0.322,9.079-1.116,9.799-0.942c0.719,0.174,0.322,0.794-3.225,2.406c-3.523,1.612-4.912,2.381-4.912,2.381l-0.473,0.124
		l0.62,0.397l-0.174,0.719h0.323l0.099,0.496h0.447l-0.224,0.67h0.224l-0.224,0.397h0.769l-0.545,1.017l1.215,0.224l-0.57,0.496
		c0,0,0.671,0.446,0.992,0.496c0,0-0.321,0.446-1.017,0.347c0,0,0.496,0.496,1.116,0.397l-0.546,0.496h1.785l-1.438,0.794h0.621
		l-0.05,0.496h0.271c0,0-0.05,4.391-0.396,4.961c0,0,0.271,0.571,0.769,0.943c0.496,0.347,4.242,3.076,4.168,6.127
		c-0.1,3.051-0.1,3.721-0.1,3.721s-0.175,1.116,0.124,1.885c0,0,0.445-1.166,0.693-2.282c0.124-0.521,1.712-5.458,5.16-5.061
		c0,0,3.051,0.595,2.902,5.408c0,0,4.563-4.589,6.251-6.946c1.687-2.356,3.423-5.036,4.019-8.459
		c0.868-1.339,1.936-8.93-1.611-13.966c-1.688-2.083-7.394-4.093-10.865-3.895C565.929,194.977,553.179,196.192,545.736,202.096z"/>
	<path fill="#5C5C5C" d="M508.701,318.884c0.271-0.224,0.893,0,1.488,0c0.569,0,2.133,0.272,2.753,0.349
		c2.604,0.347,4.365,0,5.879-1.439c2.405-2.257,6.399-1.215,10.07,5.954c0,0-4.267,6.35-4.936,10.642
		c-0.67,4.291-2.481,8.979-0.794,12.677c0.868,1.886,1.538,5.903,1.066,7.045c-0.473,1.142-0.597,1.811-0.597,1.811l-8.31,1.216
		c0,0,0-1.885-1.414-1.611c-1.414,0.272-8.062,1.611-12.006,0.794c-5.358-1.019-9.552-2.259-11.411-5.31
		c-0.521-0.844-1.886-5.507,0-10.667c1.885-5.159,3.025-6.448,3.696-6.177c0.67,0.273-0.868,7.442,0.545,9.799
		c1.414,2.356,2.828,2.604,4.218,2.877c1.414,0.273,7.862,1.117,10.865-3.149c0.495-0.72,0.991-1.886,0.941-3.547
		C510.338,326.797,508.428,319.107,508.701,318.884z"/>
	<path fill="#5C5C5C" d="M563.597,374.524c0.273-0.225,0.895,0,1.488,0c0.571,0,2.134,0.271,2.754,0.347
		c2.604,0.348,4.366,0,5.879-1.438c2.406-2.258,6.4-1.216,10.071,5.953c0,0-4.268,6.352-4.938,10.644
		c-0.67,4.291-1.811,10.863-0.794,12.676c1.019,1.811,1.538,5.903,1.067,7.045c-0.472,1.141-0.596,1.811-0.596,1.811l-8.312,1.217
		c0,0-0.023-1.24-1.413-1.612c-5.16-1.364-5.929,1.612-12.007,0.794c-5.357-1.018-9.55-2.258-11.411-5.309
		c-0.521-0.845-1.885-5.509,0-10.667c1.887-5.16,3.027-6.449,3.696-6.178c0.67,0.272-0.868,7.441,0.546,9.8
		c1.414,2.355,2.828,2.604,4.217,2.877c1.414,0.272,4.219,0.472,6.178-0.272c0.818-0.323,3.35-0.77,4.688-2.878
		c0.472-0.744,1.018-1.885,0.943-3.547c-0.075-1.688-0.695-8.657-0.943-12.155C564.664,379.336,563.324,374.747,563.597,374.524z"/>
	<g>
		<g>
			<g>
				<path d="M538.84,222.611c0,0,0.199-0.124,0.621-0.347c0.223-0.099,0.471-0.248,0.818-0.372c0.347-0.124,0.744-0.298,1.215-0.397
					c0.248-0.05,0.521-0.099,0.844,0c0.074,0.025,0.174,0.074,0.248,0.124c0.05,0.049,0.1,0.099,0.174,0.124
					c0.101,0.099,0.224,0.174,0.349,0.273c0.248,0.173,0.521,0.372,0.769,0.595c0.124,0.124,0.272,0.248,0.396,0.422
					c0.05,0.099,0.124,0.223,0.1,0.397c0,0.049-0.024,0.074-0.024,0.124c-0.024,0.049-0.024,0.049-0.024,0.074l-0.074,0.124
					c-0.348,0.67-0.769,1.389-1.364,2.083c-0.298,0.348-0.646,0.67-1.092,0.918c-0.05,0.025-0.099,0.075-0.173,0.099l-0.174,0.075
					c-0.124,0.049-0.248,0.074-0.372,0.099c-0.075,0.025-0.124,0-0.199,0.025c-0.074,0-0.147,0-0.198,0
					c-0.073-0.025-0.147-0.025-0.197-0.05l-0.101-0.049c-0.049-0.025-0.074-0.05-0.124-0.075l-0.049-0.074l-0.025-0.05l-0.05-0.099
					c-0.049-0.074-0.074-0.124-0.124-0.198c-0.099-0.124-0.198-0.248-0.322-0.348c-0.124-0.099-0.271-0.173-0.422-0.223
					c-0.147-0.05-0.321-0.05-0.496-0.05c-0.347,0-0.693,0-1.065,0.05c-0.174,0.025-0.372,0.05-0.546,0.074
					c-0.1,0.025-0.198,0.025-0.272,0.05c-0.05,0-0.1,0.025-0.148,0.05c-0.024,0.024-0.05,0-0.1,0.074c0,0-0.024,0.05,0,0.075
					c0,0.024,0.024,0.049,0.024,0.049c0.023,0.025,0.05,0.025,0.05,0.05c0,0,0,0-0.025,0c0,0-0.023,0-0.073-0.05
					c0,0-0.024-0.049-0.024-0.074c0-0.025,0-0.05,0.024-0.05c0.024-0.025,0.024-0.025,0.05-0.05c0.023-0.024,0.074-0.049,0.1-0.049
					c0.148-0.075,0.348-0.124,0.67-0.199c0.322-0.074,0.744-0.148,1.289-0.173c0.149,0,0.298,0,0.473,0
					c0.174,0.025,0.348,0.099,0.521,0.173c0.173,0.1,0.322,0.224,0.446,0.373c0.073,0.074,0.124,0.148,0.198,0.248
					c0.023,0.049,0.05,0.074,0.1,0.124l0.049,0.074c0.025,0.025,0,0,0,0.025h0.025c0.023,0,0.049,0.025,0.073,0.025
					c0.051,0,0.124,0.024,0.198,0.024s0.124,0,0.198-0.024c0.075-0.025,0.149-0.05,0.224-0.05c0.272-0.099,0.57-0.273,0.845-0.521
					c0.546-0.496,1.065-1.191,1.538-2.009c0.123-0.198,0.247-0.422,0.347-0.645l0.024-0.049l0,0v-0.025c0,0,0-0.025,0-0.05
					s-0.024-0.025-0.024-0.049c-0.05-0.075-0.124-0.174-0.224-0.273c-0.371-0.348-0.844-0.67-1.289-1.092
					c-0.149-0.173-0.447-0.173-0.744-0.149c-0.299,0.025-0.597,0.1-0.918,0.174C540.13,222.115,539.485,222.338,538.84,222.611z"/>
			</g>
		</g>
	</g>
	<path d="M538.171,227.324c-0.348-0.521-1.018-0.67-1.612-0.67c-0.174,0-0.174,0.273,0,0.273c0.472,0,1.092,0.124,1.364,0.521
		C538.047,227.597,538.27,227.473,538.171,227.324z"/>
	<path fill="#464646" d="M510.908,355.994c0.894-0.101,1.488-0.225,2.158-0.323c0.646-0.124,0.894-0.124,1.34-0.147
		c-0.225-0.372-0.422-0.894-1.042-0.818c-1.314,0.198-2.804,0.023-4.192,0.422c-4.639,1.265-7.193-0.571-12.7-3.424
		c-7.193-5.11-2.232-15.032-2.604-17.389c-0.174-1.217-2.109,2.853-2.109,2.853s-2.951,4.812-2.307,10.245
		c0.422,3.597,0.67,5.259,5.209,6.97C501.358,356.887,505.923,357.135,510.908,355.994z"/>
	<path d="M537.848,228.887c-0.421,0-0.793-0.099-1.141-0.347c-0.148-0.099-0.273,0.124-0.124,0.223
		c0.372,0.273,0.818,0.372,1.265,0.372C538.021,229.16,538.021,228.887,537.848,228.887z"/>
	<path d="M549.73,216.285c-0.895-1.19-2.282-1.711-3.646-2.183c-0.174-0.05-0.224,0.198-0.074,0.248
		c1.215,0.421,2.505,0.893,3.35,1.91c-0.721-0.125-1.414-0.571-2.108-0.819c-0.844-0.298-1.662-0.62-2.506-0.918
		c-0.174-0.049-0.224,0.199-0.074,0.248c0.844,0.298,1.662,0.62,2.505,0.918c0.794,0.298,1.538,0.794,2.383,0.868
		c0.1,0,0.147-0.074,0.123-0.149C549.755,216.384,549.78,216.335,549.73,216.285z"/>
	<path d="M537.253,230.127c0,0,0.521,0.819,1.538,1.29c0,0-0.05-0.595,0.595-0.496c0.646,0.099,1.515,0.198,2.084,1.24
		c0,0,1.042-2.009,2.282-1.017c0.496,0.67,0.496,0.67,0.496,0.67s0.818-1.042,1.488-0.67c0.174,0.769,0.073,1.017,0.073,1.017
		s0.721-0.545,0.992,0c0.273,0.546,0.224,0.918,0.224,0.918h0.57l0.62,1.066c0,0-1.562-3.349-3.397-3.547
		c-2.01,0.024-3.25,0.297-3.993,0.248c-0.744-0.05-3.646-0.918-3.646-0.918L537.253,230.127z"/>
	<path fill="#434343" d="M536.559,237.817c0,0,1.116-0.372,1.537-1.86c0,0-0.62,2.555,0.695,2.803
		c1.314,0.248,2.877-0.893,3.051-1.885c0.148-1.017,0.148-1.091,0.148-1.091s-0.322,3.076,0.546,3.547
		c0.396,0.248,1.712-0.62,1.712-1.438c0.024-0.794,0-2.034,0-2.034s0.248,2.679,0.893,3.001c0.646,0.323,1.365-0.645,1.465-1.488
		c0,0,0.05,0.794,0.348,0.744c0.298-0.05,1.216-1.513,1.265-1.935c0.074-0.396,0.225-1.562,0.225-1.562l0.546,1.637
		c0,0-0.744,0.397-1.019,0.744c-0.271,0.347-1.438,2.108-1.463,2.48c0,0-4.688,0.868-6.896,0.397
		c-2.208-0.471-3.076-1.017-3.15-1.513C536.387,237.868,536.559,237.817,536.559,237.817z"/>
	<path d="M536.657,226.183c0,0,0.348,0.198,0.868,0.099c0.272-0.05,2.01-0.496,2.703,0.372c0,0-0.348-0.843-1.562-0.843
		C537.525,225.835,536.359,226.108,536.657,226.183z"/>
	<path d="M562.927,230.995c-0.297-0.669-0.545-1.339-0.521-2.083c0-0.174-0.272-0.174-0.272,0c-0.024,0.794,0.248,1.488,0.545,2.208
		C562.754,231.293,563.002,231.169,562.927,230.995z"/>
	<path d="M562.679,231.715c-0.099-0.397-0.223-0.769-0.321-1.166c-0.051-0.174-0.299-0.099-0.248,0.074
		c0.1,0.397,0.224,0.769,0.321,1.166C562.456,231.938,562.704,231.864,562.679,231.715z"/>
	<path d="M569.896,233.897c-0.347,0.769-0.794,1.489-1.216,2.208c-0.073,0.149,0.149,0.298,0.225,0.124
		c0.396-0.719,0.868-1.463,1.216-2.208C570.195,233.873,569.972,233.749,569.896,233.897z"/>
	<path d="M567.119,224.645c0.472-0.471,1.042-0.769,1.688-0.719c0.174,0,0.174-0.248,0-0.273c-0.844-0.05-1.514,0.421-2.06,1.017
		c0,0,0,0-0.024,0.024c-0.174,0.199-0.348,0.422-0.496,0.645c-0.817,1.265-0.817,2.952-0.694,4.416
		c0.05,0.769,0.125,1.513-0.049,2.282c-0.175,0.72-0.695,1.216-1.24,1.662c-0.895,0.744-1.836,1.538-1.786,2.803
		c0,0.173,0.271,0.173,0.271,0c-0.023-0.447,0.101-0.819,0.273-1.141c0.024,0.794,0.198,1.612,1.041,1.86
		c1.24,0.372,1.812-0.918,2.58-1.563c0.124-0.099-0.05-0.297-0.198-0.198c-0.569,0.471-0.918,1.265-1.687,1.488
		c-1.315,0.372-1.488-1.091-1.488-1.984l0,0c0.297-0.372,0.694-0.719,1.091-1.042c0.025,0,0.025,0,0.05,0
		c0.322-0.149,0.67-0.248,0.969,0c0.271,0.223,0.321,0.67,0.298,0.992c0,0.174,0.271,0.174,0.271,0
		c0.024-0.446-0.073-0.917-0.422-1.215c-0.198-0.174-0.446-0.198-0.67-0.174c0.694-0.669,0.992-1.488,1.019-2.48
		c0-0.372,0-0.719-0.025-1.066c1.166-0.819,1.886-1.886,1.414-3.349c-0.05-0.173-0.322-0.099-0.248,0.075
		c0.422,1.29-0.174,2.232-1.166,2.977c-0.05-0.943-0.124-1.86,0.1-2.828c0.124-0.62,0.446-1.339,0.918-1.91
		c4.787-0.049,1.638,8.484,0.124,10.543c-0.1,0.149,0.124,0.273,0.224,0.124C568.831,233.401,571.882,224.843,567.119,224.645z"/>
	<g>
		<g>
			<g>
				<path d="M544.596,221.296c0,0,0.074-0.024,0.198,0c0.074,0,0.148,0.05,0.248,0.075c0.05,0.025,0.099,0.049,0.148,0.074
					c0.049,0.025,0.124,0.05,0.197,0.075c0,0-0.049,0.024-0.173,0c-0.075,0-0.148-0.025-0.248-0.075
					C544.868,221.42,544.769,221.371,544.596,221.296z"/>
			</g>
		</g>
	</g>
	<g>
		<g>
			<g>
				<path d="M553.229,217.302c0,0,0.074,0.149,0.123,0.496c0.051,0.174,0.101,0.372,0.149,0.62s0.124,0.546,0.174,0.918
					c0,0-0.05-0.099-0.124-0.372C553.451,218.642,553.253,218.146,553.229,217.302z"/>
			</g>
		</g>
	</g>
	<g>
		<g>
			<g>
				<path d="M553.501,218.021c0,0,0.024,0.025,0.05,0.1c0.024,0.074,0.049,0.173,0.1,0.297c0.05,0.124,0.1,0.298,0.148,0.521
					s0.074,0.472,0.049,0.769c0,0,0-0.025-0.023-0.074c0-0.05-0.024-0.124-0.05-0.248c-0.024-0.124-0.051-0.298-0.124-0.521
					C553.625,218.642,553.525,218.369,553.501,218.021z"/>
			</g>
		</g>
	</g>
	<g>
		<g>
			<g>
				<path d="M553.896,218.915c0,0,0.175,0.248-0.023,0.819C553.873,219.758,553.799,219.609,553.896,218.915z"/>
			</g>
		</g>
	</g>
	<g>
		<g>
			<g>
				<path d="M540.428,212.664c0,0,0.074-0.05,0.248-0.174c0.074-0.049,0.174-0.149,0.298-0.248c0.124-0.099,0.248-0.223,0.446-0.347
					c0.348-0.248,0.794-0.546,1.34-0.868c0.546-0.347,1.266-0.645,2.084-0.943c0,0-0.05,0.025-0.199,0.1
					c-0.147,0.074-0.371,0.173-0.719,0.347c-0.348,0.149-0.794,0.397-1.364,0.744c-0.298,0.174-0.596,0.397-0.968,0.62
					C541.246,212.093,540.924,212.44,540.428,212.664z"/>
			</g>
		</g>
	</g>
	<g>
		<g>
			<g>
				<path d="M537.501,229.185c0,0,0.099-0.025,0.248-0.025c0.174-0.025,0.396,0,0.744-0.025c0,0-0.05,0.025-0.198,0.075
					C538.146,229.259,537.896,229.309,537.501,229.185z"/>
			</g>
		</g>
	</g>
	<g>
		<g>
			<g>
				<path d="M562.282,236.155c0,0,0,0.024,0.023,0.074c0,0.05,0.025,0.124,0.05,0.198c0.024,0.174,0.101,0.447,0.372,0.744
					c0,0-0.023,0-0.05-0.024c-0.023-0.025-0.074-0.05-0.147-0.1c-0.074-0.049-0.149-0.148-0.225-0.297
					C562.258,236.602,562.232,236.403,562.282,236.155z"/>
			</g>
		</g>
	</g>
	<g>
		<g>
			<g>
				<path d="M568.607,223.504c0,0,0.024,0,0.05-0.025c0.023,0,0.05-0.025,0.073-0.025c0.025,0,0.075,0,0.101,0
					c0.174,0.025,0.372,0.199,0.496,0.496c0,0-0.05-0.024-0.148-0.124c-0.05-0.049-0.1-0.099-0.199-0.198
					C568.905,223.603,568.781,223.504,568.607,223.504z"/>
			</g>
		</g>
	</g>
	<path d="M536.757,243.448c0,0,0.174,0.868-0.323,1.141h0.521c0,0-0.794,0.173-0.942,0.992c-0.148,0.421-0.546,0.645-0.546,0.645
		s0.62,0.049,0.967-0.397c0.349-0.447,0.721-0.422,0.721-0.422l-0.721,0.819l1.315-0.645c0,0,0.271-0.174,0.271-0.571
		C538.021,244.589,538.071,243.919,536.757,243.448z"/>
	<path d="M546.555,201.873c0,0-0.793,0.843-1.414,0.471c-0.645-0.372-0.445-0.943-1.141-0.347c-0.694,0.595-1.464,1.984-1.017,3.026
		c0.445,1.042-0.101,3.125-2.681,4.366c-1.363,0.943-2.381,2.406-2.381,2.406s0.818-1.687,1.936-2.58
		c1.115-0.917,2.629-1.935,2.604-2.877c-0.023-0.942-0.868-2.679,0.348-4.043c1.217-1.389,1.612-1.711,2.034-1.215
		c0.446,0.496,2.133,0.298,2.778-0.223L546.555,201.873z"/>
	<path fill="#FFFFFF" stroke="#000000" stroke-width="1.0819" stroke-miterlimit="10" d="M581.383,201.203
		c0,0,1.019-0.546,1.96,0.397c0,0,0.72,4.564-0.62,6.797C582.723,208.397,581.283,201.575,581.383,201.203z"/>
	<g>
		<path d="M551.393,216.558c0-0.025,0-0.049-0.024-0.074c-1.142-3.001-4.241-4.143-7.243-4.019c-0.348,0.024-0.298,0.545,0.05,0.545
			c2.654-0.124,5.383,0.819,6.549,3.324c-1.514-0.546-3.796-1.24-4.961-0.992c-1.538,0-2.556-0.224-2.754-0.744
			c-0.198-0.521-0.372-0.224-0.693,0.272c-0.323,0.521-0.372,0.918-1.688,1.092c0,0-1.811,0.124,0.1,0.546
			c0,0,0.795,0.074,1.736,0.049c0,0.794,0,1.612,0.298,2.332c-0.321,0.099-0.546,0.223-0.72,0.322
			c-1.166,0.744-0.918,1.538-0.67,2.009c0,0,0.298,0.322,0.447-0.347c0.05-0.199,0.099-0.323,0.173-0.422c0,0,0.024,0,0.024,0.025
			c1.589,0.67,2.556,2.282,4.068,3.101c0.223,0.124,0.396-0.198,0.198-0.322c-1.19-0.645-2.034-1.712-3.076-2.505
			c0.322,0.025,0.694-0.099,0.942-0.347c0.396-0.422,2.878-0.993,3.695-1.166c0.819-0.174,4.268-1.563,4.416-2.307
			C552.211,216.881,551.913,216.757,551.393,216.558z M542.834,216.533c0.273-0.024,0.57-0.049,0.844-0.074
			c0.322-0.05,0.719-0.099,1.19-0.174c-0.298,0.893-1.092,1.414-1.984,1.588C542.81,217.426,542.834,216.98,542.834,216.533z
			 M543.107,218.766c-0.101-0.199-0.149-0.422-0.199-0.621c1.042-0.223,1.96-0.818,2.231-1.885c1.464-0.149,3.498-0.199,5.532,0.62
			C549.681,217.302,545.29,218.071,543.107,218.766z"/>
		<path d="M551.243,210.009c1.018,1.116,6.078,8.186,6.028,10.146c0,0,0-3.026-2.654-7.517c-0.496-0.67-0.942-1.265-1.34-1.811
			c-0.322-1.613-0.845-3.175-1.514-4.688c-0.596-1.315-1.514-3.001-2.978-3.547c0.621-0.05,1.266,0.025,1.886,0.298
			c0.224,0.099,0.396-0.224,0.198-0.323c-2.53-1.091-4.938,0.521-6.724,2.232c-2.032,1.96-3.597,4.391-5.085,6.772
			c-0.124,0.099-0.248,0.173-0.347,0.248c-1.786,1.364-2.531,1.166-2.382,1.488c0,0,0.992,2.257,1.612,2.431
			c0.619,0.173,1.141-1.092,2.258-1.737C541.346,213.358,550.201,208.893,551.243,210.009z M543.752,205.743
			c1.116-1.24,2.654-2.604,4.316-3.026c0.023,0.05,0.05,0.074,0.124,0.099c1.735,0.298,2.679,2.282,3.323,3.721
			c0.496,1.141,0.894,2.332,1.19,3.547c-1.736-2.307-2.58-3.175-3.398-3.051c-0.918,0.124-6.821,2.555-9.524,4.093
			C540.998,209.24,542.264,207.38,543.752,205.743z"/>
	</g>
	<path d="M539.461,226.108c0,0,13.346,2.778,14.982,8.36c0.05,0.149-1.984-0.67-1.91-0.546c0.224,0.298,1.836,0.844,2.282,2.009
		c2.183,5.507,6.076,13.147,9.849,13.123c0,0-9.477,0.744-13.297-2.158c-3.82-2.877-13.099-10.964-13.444-14.139
		c-0.348-3.175-0.72-4.242,0.62-4.664C539.907,227.696,539.461,226.108,539.461,226.108z"/>
	<path d="M556.453,247.119c-0.496,0.323-0.992,0.621-1.488,0.918c-0.024-0.025-0.05-0.025-0.075-0.025
		c-0.099,0-0.124,0.075-0.124,0.149c-1.265,0.744-2.555,1.414-3.869,2.034c0.05-0.074,0-0.198-0.1-0.198
		c-0.174,0-0.174,0.248-0.023,0.272c-1.836,0.844-3.696,1.613-5.606,2.307c-0.322,0.124-0.174,0.645,0.148,0.521
		c3.969-1.463,7.862-3.15,11.436-5.482C557.023,247.392,556.75,246.921,556.453,247.119z"/>
	<path d="M538.071,242.183c-0.969,0.372-2.208,0.223-3.052-0.397c-0.422-0.323-0.818,0.372-0.396,0.694
		c0.992,0.744,2.506,0.918,3.672,0.496C538.741,242.778,538.543,241.984,538.071,242.183z"/>
	<path d="M546.58,239.38c-0.074,1.042-1.314,1.364-2.084,1.811c-0.148,0.075-0.024,0.323,0.124,0.224
		c0.894-0.496,2.108-0.844,2.208-2.034C546.854,239.206,546.58,239.206,546.58,239.38z"/>
	<path d="M544.271,240.843c-0.247,0.149-0.471,0.298-0.693,0.472c-0.124,0.099,0.05,0.297,0.198,0.198
		c0.198-0.149,0.422-0.298,0.646-0.422C544.546,240.992,544.422,240.744,544.271,240.843z"/>
	<path d="M549.656,228.143c-0.546-1.24-1.315-2.133-2.433-2.877c-0.743-0.471-1.463-0.893-2.107-1.513
		c-0.62-0.595-1.216-1.19-1.96-1.662c-0.148-0.099-0.272,0.149-0.124,0.223c1.314,0.819,2.232,2.084,3.571,2.878
		c1.29,0.769,2.209,1.662,2.828,3.076C549.482,228.44,549.705,228.292,549.656,228.143z"/>
	<path d="M537.625,247.144c0.271-0.719,0.248-1.488,0.248-2.257c0-0.173-0.273-0.173-0.273,0c0,1.042-0.023,1.96-0.645,2.877
		c-0.472,0.67-0.968,1.191-1.266,1.96c-0.596,1.538,0.348,2.952,1.116,4.242c0.1,0.149,0.322,0.025,0.224-0.124
		c-0.422-0.719-0.894-1.438-1.142-2.232c-0.298-0.943,0.024-1.935,0.546-2.729C536.831,248.285,537.377,247.814,537.625,247.144z"/>
	<path d="M568.459,236.552c-0.844,1.861-3.498,5.185-5.854,4.961c-0.024-0.099-0.148-0.149-0.225-0.074l-0.023,0.024
		c-0.521-0.099-1.018-0.397-1.488-0.917c-0.124-0.124-0.298,0.049-0.198,0.198c0.471,0.546,0.967,0.843,1.488,0.967
		c-1.24,1.662-1.886,3.795-3.547,5.11c-0.125,0.099,0.049,0.297,0.197,0.198c1.712-1.339,2.356-3.547,3.646-5.234
		c2.479,0.322,5.309-3.101,6.201-5.085C568.757,236.527,568.533,236.403,568.459,236.552z"/>
	<path d="M547.771,231.243"/>
	<path d="M563.597,287.529c-0.248,0.694-0.693,1.091-1.389,1.339c-0.496,0.149-0.273,0.943,0.223,0.769
		c0.447-0.149,0.845-0.323,1.191-0.62c0.372-0.323,0.595-0.794,0.769-1.265C564.539,287.256,563.771,287.033,563.597,287.529z"/>
	<path d="M552.037,217.55c-0.148,0.62-0.818,0.992-1.314,1.29c-0.77,0.422-1.588,0.694-2.405,0.943
		c-1.414,0.446-2.878,0.769-4.342,1.017c-0.174,0.025-0.1,0.298,0.074,0.248c1.612-0.272,3.226-0.669,4.787-1.166
		c1.092-0.348,3.176-0.968,3.498-2.282C552.335,217.451,552.087,217.377,552.037,217.55z"/>
	<path d="M549.358,220.006c-1.067,0.496-2.208,0.744-3.324,1.116c-0.174,0.049-0.101,0.322,0.074,0.248
		c1.142-0.397,2.281-0.67,3.397-1.166C549.631,220.18,549.507,219.957,549.358,220.006z"/>
	<path d="M548.217,221.147c-0.817,0.471-1.662,0.694-2.604,0.645c-0.174,0-0.174,0.248,0,0.273c0.992,0.05,1.886-0.198,2.754-0.694
		C548.49,221.296,548.366,221.073,548.217,221.147z"/>
	<path d="M550.549,229.507c-0.1-0.669-0.546-1.265-0.72-1.935c-0.049-0.174-0.297-0.1-0.248,0.074
		c0.149,0.595,0.472,1.141,0.67,1.736c0.198,0.596,0.124,1.34,0.1,1.96c-0.024,0.173,0.248,0.173,0.272,0
		C550.648,230.723,550.648,230.127,550.549,229.507z"/>
	<path d="M557.346,246.673c-0.05,0.174-0.147,0.347-0.197,0.546c-0.051,0.173,0.197,0.223,0.248,0.074
		c0.05-0.174,0.147-0.347,0.197-0.546C557.644,246.574,557.396,246.499,557.346,246.673z"/>
	<path d="M490.047,287.826c-0.174,0-0.174,0.273,0,0.273C490.22,288.099,490.22,287.826,490.047,287.826z"/>
	<path d="M565.656,308.143c-2.58-0.371-4.392-2.901-5.086-5.259c-0.148-0.496-0.918-0.298-0.77,0.223
		c0.77,2.604,2.778,5.432,5.655,5.83C565.929,309.011,566.152,308.217,565.656,308.143z"/>
	<path d="M543.454,276.961c-0.521,0-0.521,0.793,0,0.793C543.976,277.755,543.976,276.961,543.454,276.961z"/>
	<path d="M565.283,331.213c-2.753-0.024-5.333-0.546-7.913-1.464c-1.314-0.472-2.679-1.116-3.845-1.91
		c-0.968-0.646-1.762-1.538-2.729-2.208c-0.422-0.298-0.817,0.397-0.396,0.694c1.091,0.744,2.009,1.712,3.101,2.456
		c1.091,0.744,2.431,1.266,3.671,1.735c2.604,1.019,5.334,1.465,8.111,1.515C565.78,332.031,565.78,331.213,565.283,331.213z"/>
	<path d="M524.006,352.968c-2.455,0.521-4.911,0.694-7.392,0.719c-2.259,0.025-4.292,0.349-6.499,0.895
		c-4.838,1.166-10.245-0.546-14.115-3.896c-2.927-2.529-3.299-6.498-2.456-10.221c0.372-1.662,1.364-4.763,0.472-6.549
		c-0.224,0.149-0.445,0.298-0.693,0.422c0.569,1.166,0.049,3.2-0.174,4.242c-0.299,1.488-0.795,2.977-0.818,4.489
		c-0.1,4.067,1.413,7.193,4.613,9.327c3.746,2.506,8.111,3.993,12.526,3.199c1.19-0.223,2.356-0.569,3.522-0.817
		c1.363-0.272,2.729-0.225,4.118-0.248c2.405-0.024,4.786-0.225,7.144-0.744C524.726,353.712,524.527,352.868,524.006,352.968z"/>
	<path fill="#FFFFFF" d="M568.335,194.629c-0.472,0.124-0.918,0.248-1.364,0.372c-1.042,0.149-2.107,0.298-3.126,0.471
		c-1.983,0.372-3.919,0.893-5.829,1.563c-2.777,0.943-5.952,1.91-8.036,4.118c-0.199,0.224,0.298,0.149,0.422,0.025
		c2.331-2.456,6.325-3.473,9.45-4.44c1.438-0.446,2.928-0.719,4.415-0.942c-0.991,0.347-1.96,0.744-2.927,1.166
		c-3.149,1.389-6.177,3.101-9.327,4.416c-0.298,0.124-0.174,0.372,0.124,0.248c2.854-1.191,5.605-2.679,8.409-3.994
		c1.488-0.694,3.001-1.314,4.589-1.811c0.349-0.1,0.694-0.224,1.066-0.323c1.19-0.198,2.356-0.397,3.498-0.719
		C569.253,194.704,568.781,194.654,568.335,194.629z"/>
	<path fill="#FFFFFF" d="M573.941,195.299c-0.101-0.025-0.199-0.075-0.248-0.124c-2.282,0.173-4.516,0.446-6.772,1.29
		c-3.87,1.463-7.591,3.324-11.535,4.564c-0.248,0.075-0.372,0.422-0.023,0.298c3.349-1.066,6.549-2.555,9.799-3.895
		c1.959-0.794,3.919-1.513,6.027-1.811c1.042-0.149,2.107-0.198,3.149-0.248C574.238,195.349,574.09,195.324,573.941,195.299z"/>
	<path fill="#FFFFFF" d="M575.032,195.572c-2.108,0.297-4.192,0.843-6.127,1.538c-3.15,1.116-5.953,3.001-9.179,3.87
		c-0.248,0.074-0.371,0.397-0.024,0.297c2.804-0.769,5.333-2.232,7.987-3.398c2.455-1.091,5.26-1.811,8.013-2.108
		C575.479,195.721,575.256,195.646,575.032,195.572z"/>
	<path fill="#FFFFFF" d="M577.438,196.44c-3.845,0.62-7.467,2.257-11.037,3.746c-4.118,1.736-8.188,3.671-11.685,6.499
		c-0.272,0.224,0.198,0.224,0.347,0.1c3.301-2.679,7.146-4.515,11.039-6.177c3.82-1.637,7.739-3.423,11.883-3.944
		C577.811,196.589,577.637,196.515,577.438,196.44z"/>
	<path fill="#FFFFFF" d="M578.48,196.887c-4.218,1.141-8.386,2.778-12.255,4.738c-2.084,1.042-4.143,2.183-6.151,3.349
		c-1.463,0.843-3.547,1.811-4.539,3.225c-0.174,0.248,0.322,0.174,0.422,0.025c0.57-0.818,1.513-1.265,2.331-1.786
		c0.794-0.521,1.612-1.017,2.432-1.513c1.984-1.166,4.02-2.232,6.077-3.274c3.771-1.885,7.839-3.448,11.907-4.54
		c-3.448,2.208-7.045,4.242-10.419,6.574c-2.009,1.389-4.167,2.282-6.425,3.125c-1.762,0.645-3.646,1.141-5.284,2.084
		c-0.322,0.173,0.024,0.322,0.249,0.198c1.711-0.992,3.745-1.488,5.604-2.183c2.011-0.744,3.92-1.563,5.706-2.753
		c3.572-2.357,7.293-4.54,10.891-6.872C578.828,197.135,578.654,197.011,578.48,196.887z"/>
	<path fill="#FFFFFF" d="M580.316,198.524c-1.166,0.967-2.332,1.91-3.673,2.654c-2.157,1.215-4.217,2.555-6.301,3.87
		c-2.107,1.34-4.241,2.481-6.522,3.473c-2.185,0.942-4.242,2.083-6.524,2.753c-0.248,0.074-0.372,0.397-0.024,0.298
		c2.184-0.646,4.168-1.688,6.228-2.63c2.183-0.967,4.241-1.91,6.251-3.2c2.208-1.414,4.415-2.828,6.697-4.143
		c1.414-0.819,2.704-1.786,3.969-2.803c-0.099,0.099-0.173,0.174-0.272,0.273c-0.844,0.893-1.464,1.984-2.231,2.952
		c-1.762,2.233-4.068,4.118-6.4,5.706c-2.231,1.513-4.563,2.877-6.771,4.44c-2.258,1.587-4.516,3.2-6.872,4.688
		c-0.297,0.198,0.024,0.322,0.248,0.198c2.356-1.463,4.59-3.076,6.872-4.688c2.331-1.637,4.787-3.076,7.144-4.688
		c2.084-1.414,3.97-3.101,5.656-4.961c0.918-1.017,1.637-2.183,2.479-3.25c0.124-0.149,0.248-0.298,0.372-0.447
		C580.539,198.847,580.416,198.673,580.316,198.524z"/>
	<path fill="#FFFFFF" d="M581.234,200.012c-6.028,8.459-14.909,14.289-23.69,19.547c-0.322,0.174,0.025,0.323,0.248,0.199
		c8.732-5.209,17.563-11.039,23.616-19.349C581.358,200.285,581.309,200.161,581.234,200.012z"/>
	<path fill="#FFFFFF" d="M581.929,202.319c-0.918,2.009-2.63,3.721-4.093,5.333c-1.712,1.885-3.548,3.696-5.408,5.457
		c-3.373,3.175-7.316,5.73-11.56,7.591c0.074,0.075,0.124,0.149,0.174,0.223c4.316-1.91,8.261-4.515,11.708-7.714
		c1.91-1.761,3.722-3.646,5.482-5.532c1.514-1.637,3.225-3.374,4.143-5.433C582.499,202.021,581.979,202.17,581.929,202.319z"/>
	<path fill="#FFFFFF" d="M600.037,252.701c-1.414-16.967-10.096-32.149-17.166-47.405c-0.049-0.099-0.223-0.074-0.347,0l0,0
		c0.073-0.248-0.423-0.099-0.473,0.05c-0.67,2.059-2.183,3.696-3.622,5.284c-1.761,1.935-3.547,3.87-5.53,5.582
		c-1.887,1.637-4.068,2.853-6.128,4.242c-1.413,0.943-2.827,1.836-4.365,2.505c0.023,0.1,0.05,0.174,0.073,0.273
		c1.341-0.57,2.604-1.315,3.82-2.133c2.084-1.364,4.268-2.654,6.228-4.192c2.084-1.637,3.919-3.622,5.705-5.581
		c1.588-1.737,3.349-3.522,4.191-5.73c6.4,13.768,14.09,27.51,16.521,42.542c-0.198-0.645-0.446-1.265-0.694-1.91
		c-1.811-4.316-4.019-8.534-6.077-12.75c-1.018-2.059-2.034-4.118-2.977-6.202c-0.943-2.108-1.688-4.267-2.58-6.4
		c-1.612-3.87-3.969-7.988-3.374-12.329c0.024-0.149-0.224-0.1-0.372,0c0.124-0.397,0.224-0.794,0.298-1.216
		c0.024-0.198-0.472-0.049-0.496,0.149c-0.1,0.769-0.348,1.463-0.67,2.158c-0.074,0.049-0.124,0.099-0.148,0.149
		c-0.024,0.074-0.024,0.148-0.05,0.223c-0.794,1.513-1.96,2.877-2.927,4.292c-1.414,2.059-2.804,4.118-4.416,6.028
		c-1.314,1.563-2.853,2.952-4.49,4.167c0.101,0,0.199,0.05,0.273,0.124c1.438-1.091,2.803-2.282,4.043-3.597
		c2.01-2.158,3.597-4.664,5.284-7.095c0.67-0.968,1.389-1.885,2.033-2.853c-1.638,9.798,1.736,19.001,6.228,27.659
		c2.431,4.713,5.185,9.252,7.541,14.016c2.479,5.036,5.209,10.716,3.969,16.372c-0.05,0.173,0.868-3.671,0.595-5.408
		c-0.521-3.398-2.032-6.723-3.446-9.848c-2.208-4.837-5.012-9.426-7.518-14.115c-4.937-9.277-8.831-19.225-6.673-29.842
		c0.148-0.298,0.298-0.596,0.422-0.918c-0.422,3.845,1.438,7.591,2.952,11.014c0.818,1.885,1.463,3.82,2.257,5.73
		c0.942,2.257,2.034,4.465,3.102,6.673c2.084,4.217,4.168,8.459,6.151,12.726c0.992,2.158,1.786,4.316,2.258,6.624
		c0.198,1.86,0.743,3.547,0.743,5.432c0,0.124-0.123,0.05,0,0c0.025-1.19-0.073-2.133,0.051-3.324
		C600.161,253.47,600.087,253.073,600.037,252.701z"/>
	<path fill="#FFFFFF" d="M583.219,203.138c-0.024-0.174-0.521,0.024-0.496,0.223c1.093,5.185,7.293,7.194,8.955,12.155
		c0.051,0.174,0.546-0.024,0.496-0.223C590.512,210.332,584.335,208.298,583.219,203.138z"/>
	<path fill="#393939" d="M564.416,274.803c0,0,0.074,3.646,0.123,3.771c0.05,0.124,0.025,0.124,0.298,0.173
		c0.273,0.05,0.744-0.471,1.464-0.471s11.188,1.215,12.305,1.538c1.115,0.322,1.836,0.843,2.134,0.942
		c0.271,0.1,0.595-0.024,0.595-0.198c0.025-0.174,0.447-1.414,0.596-2.108c0.124-0.546,0.322-1.166,0.298-1.811
		c-0.024-0.372-0.298-0.67-2.06-1.166c-1.786-0.496-4.415-1.24-6.846-1.339C570.89,274.059,564.639,273.786,564.416,274.803z"/>
	<path fill="none" stroke="#FFFFFF" stroke-width="0.2705" stroke-miterlimit="10" d="M548.465,201.153c0,0,2.034-2.108,4.168-2.877
		"/>
	<path d="M562.258,254.289c-1.638,0.322-2.878,1.488-4.466,1.91c-0.496,0.124-0.223,0.868,0.273,0.744
		c1.513-0.372,2.702-1.562,4.267-1.86C562.828,254.983,562.778,254.189,562.258,254.289z"/>
	<path d="M547.349,279.938v6.574c0,0.521,0.794,0.446,0.794-0.075v-6.573C548.143,279.367,547.349,279.442,547.349,279.938z"/>
	<path d="M550.028,283.237c-0.025-0.521-0.845-0.447-0.794,0.074c0.124,1.885,0.124,3.746,0.124,5.631
		c0,0.521,0.794,0.446,0.794-0.075C550.152,286.983,550.152,285.098,550.028,283.237z"/>
	<path d="M551.219,286.933c-0.024,1.712-0.248,3.398-0.272,5.11c0,0.521,0.794,0.446,0.794-0.075
		c0.024-1.711,0.248-3.398,0.272-5.11C552.037,286.338,551.243,286.413,551.219,286.933z"/>
	<g>
		<g>
			<path fill="none" stroke="#000000" stroke-width="3.2456" stroke-miterlimit="10" d="M569.848,197.78
				c0,0,27.411-17.587,42.245-17.29"/>
			<path fill="none" stroke="#000000" stroke-width="3.2456" stroke-miterlimit="10" d="M611.25,180.49
				c0,0,7.367-0.967,13.122,3.423C624.372,183.913,614.053,184.558,611.25,180.49"/>
		</g>
		<path fill="#5C5C5C" d="M605.42,211.572c0,0-3.076-0.298-5.953-1.662c-2.878-1.364-15.702-6.971-18.777-7.938
			c-3.076-0.943-28.677-9.104-34.135-9.501c-5.457-0.397-10.27-0.818-11.162-2.282c-0.894-1.463,1.812-4.515,6.922-2.803
			c5.108,1.711,16.396,7.814,20.786,8.682c0,0,4.837-17.315,6.302-19.969c1.487-2.654,3.92-8.086,11.658-3.82
			c7.716,4.291,0,7.342,2.902,11.113s5.779,0.397,4.589,6.028c-1.189,5.606-3.397,12.229-3.397,12.229s-1.762,0.992,11.411,2.704
			C609.736,206.09,608.348,211.448,605.42,211.572z"/>
		<path fill="#E4E4E4" d="M585.997,197.358c-18.158-10.072-21.284-6.797-21.284-6.797l-1.339,4.937c0,0,16.322,6.822,21.805,6.152
			C586.071,198.797,585.997,197.358,585.997,197.358z"/>
		<path d="M585.699,201.55c-1.736-0.545-3.522-0.769-5.31-1.141c-1.909-0.397-3.795-0.942-5.681-1.463
			c-3.845-1.067-7.467-2.704-11.287-3.795c-0.669-0.198-0.868,0.868-0.198,1.066c3.82,1.092,7.468,2.729,11.287,3.795
			c1.736,0.472,3.448,0.943,5.186,1.365c1.935,0.446,3.895,0.645,5.778,1.24C586.146,202.815,586.344,201.749,585.699,201.55z"/>
	</g>
	<path fill="#8D8D8D" d="M572.105,303.479c0,0-2.507,5.234-2.58,5.73l1.909,1.266l2.681-6.053L572.105,303.479z"/>
	<path d="M578.828,409.228c-3.448-0.147-6.946,0.571-10.221,1.639c-0.496,0.147-0.224,0.918,0.272,0.744
		c3.2-1.042,6.623-1.736,9.997-1.589C579.423,410.047,579.349,409.253,578.828,409.228z"/>
	<path d="M571.932,357.656v1.562c0,0,1.488-0.396,2.828,0.744C574.734,359.963,575.454,357.73,571.932,357.656z"/>
	<ellipse cx="552.483" cy="222.09" rx="0.794" ry="0.645"/>
	<ellipse cx="551.771" cy="223.12" rx="0.323" ry="0.323"/>
	<ellipse transform="matrix(-0.8446 -0.5354 0.5354 -0.8446 899.183 708.2457)" cx="552.386" cy="223.615" rx="0.298" ry="0.322"/>
	<g>
		<path fill="#393939" d="M548.267,328.013c-0.124,1.538,5.358,3.497,7.69-0.075c2.331-3.57,4.936-7.242,5.928-6.722
			c0.993,0.546,2.406,0.372,1.985-1.688c-0.496-2.505-5.532-3.226-6.524-5.384c-0.992-2.133-1.712-1.487-1.712-1.487
			S548.664,322.679,548.267,328.013z"/>
		<path fill="#393939" d="M555.609,312.657c0,0,0.693,2.183,2.059,3.126c1.488,1.042,5.408,2.207,6.177,3.721
			c0,0,0.075-0.446-0.67-1.189c-0.545-0.547-1.661-1.267-3.125-2.011c-1.514-0.893-2.183-1.091-2.952-2.604
			C556.354,312.235,555.609,312.657,555.609,312.657z"/>
	</g>
	<path fill="#BCBCBC" d="M580.763,260.788c-0.023-0.074-0.05-0.149-0.073-0.248c-0.845-1.265-2.432-3.349-3.87-3.746
		c-2.084-0.546-8.285-1.637-10.195,7.814c-0.893,4.465-0.496,4.391-0.496,4.391s3.82-1.315,4.54-4.912
		C571.312,260.688,577.662,257.24,580.763,260.788C580.763,260.812,580.763,260.788,580.763,260.788z"/>
	<circle cx="557.098" cy="317.321" r="0.595"/>
	<path opacity="0.1" enable-background="new    " d="M522.815,226.654c0,0,2.231,5.656,7.417,1.687
		c5.159-3.994,8.211-4.961,10.492-3.125l1.143,1.315c0,0,5.879,9.873,4.984,12.85c-0.893,2.977-2.853,2.232-5.109,2.853
		c-2.232,0.62-3.671,1.34-3.075,3.126c0.57,1.786-0.224,4.688-0.224,4.688s-0.942,0.571,0.596,2.381
		c1.538,1.786,3.497,1.067,4.812,0.571c1.314-0.471,12.204-5.135,12.874-5.458c0.67-0.298-1.735,2.902-2.183,4.292
		c-0.447,1.389,1.612,4.391,4.019,3.299c2.406-1.067,6.352-3.001,6.848-2.381s-2.185,3.349-2.185,3.349s-1.487-0.397-3.225-0.248
		c-1.712,0.149-2.704,1.836-4.738,0.273c-2.034-1.538-5.433-4.242-7.564-3.721c-2.134,0.521-8.014,3.2-9.029,3.521
		c-1.018,0.297-3.374-2.704-3.895-3.919c-0.521-1.216-0.423-2.332,0.619-3.498c1.041-1.166,3.102-3.771,1.712-4.837
		c-1.39-1.042-3.373-1.935-3.447-2.902c-0.075-0.967,1.165-2.381,2.033-2.679c0.868-0.298,1.909-1.438,2.184-2.133
		c0.248-0.694,0.496-1.711,0.57-0.719c0.074,0.992,0.445,2.629,1.363,2.48c0.918-0.149,2.061-3.845,2.061-3.845
		s-4.664-0.769-5.136-1.265c-0.446-0.472,0.596-5.408-0.148-5.135s-3.771,2.927-6.127,4.043c-2.356,1.117-6.227,0.918-7.368-1.562
		C521.972,227.522,522.815,226.654,522.815,226.654z"/>
	<path opacity="0.1" enable-background="new    " d="M542.71,215.591c0,0-0.174-2.084,1.96-3.919
		c2.133-1.811,6.077-4.937,8.559,1.215c1.34,3.349,0.794,5.11-1.736,4.167C548.938,216.112,543.729,214.648,542.71,215.591z"/>
	<path opacity="0.1" enable-background="new    " d="M542.734,220.006c0,0,1.414,2.48,3.35,3.547
		c1.935,1.066,3.349,0.818,3.597-0.447c0.225-1.24,0.024-3.423,1.24-4.217c1.216-0.794,1.86-2.778,0.024-1.811
		C549.085,218.021,542.734,220.006,542.734,220.006z"/>
	<path display="none" opacity="0.2" fill="#010101" enable-background="new    " d="M562.183,286.041
		c-0.546-0.497-1.239-1.216-2.083-2.233c-5.334-6.251-14.76-15.603-14.76-15.603s-1.216-1.612-2.06-2.009
		c-0.396-0.198-0.496-0.198-0.446-0.149c-0.446-0.397-1.588-1.414-2.257-1.959c-0.819-0.695-3.424,0.099-5.682-1.687
		c-0.918-0.57-1.936-1.265-3.424-0.769c-0.298,0.273-0.645,0.472-1.042,0.67c-0.496,0.248-0.967,0.521-1.487,0.744
		c-2.952,1.711-8.435,4.292-8.435,4.292s-1.018,0.794-1.166,1.414c-0.174,0.62-3.771,3.051-3.548,3.622c0,0,4.688-3.001,7.045-3.324
		c2.357-0.347,4.218-2.232,7.394-3.795c3.199-1.562,5.854-1.488,7.045-0.645c7.417,5.284,14.041,13.296,16.298,15.702
		c1.363,1.463,2.777,2.927,4.267,4.267c0.396,0.347,0.771,0.695,1.19,1.042c0.124,0.099,0.396,0.297,0.57,0.446
		c0.472,0.347,3.474,2.282,3.993,2.555C563.795,288.471,562.108,286.115,562.183,286.041z"/>
	<g>
		<g>
			<path fill="none" stroke="#000000" stroke-width="1.0819" stroke-miterlimit="10" d="M538.617,250.939"/>
		</g>
	</g>
	<g>
		<g>
			<path fill="none" stroke="#000000" stroke-width="1.0819" stroke-miterlimit="10" d="M538.89,253.346"/>
		</g>
	</g>
	<path d="M540.85,251.063c-0.174,0-0.174,0.273,0,0.273C541.024,251.336,541.023,251.063,540.85,251.063z"/>
	<path d="M539.609,252.676c-0.175,0-0.175,0.273,0,0.273C539.783,252.949,539.783,252.676,539.609,252.676z"/>
	<path d="M538.691,251.336c-0.175,0-0.175,0.273,0,0.273C538.865,251.609,538.865,251.336,538.691,251.336z"/>
	<path d="M540.676,249.897c-0.174,0-0.174,0.273,0,0.273S540.85,249.897,540.676,249.897z"/>
	<path d="M544.694,250.964c-0.173,0-0.173,0.273,0,0.273C544.868,251.237,544.868,250.964,544.694,250.964z"/>
	<path d="M542.562,252.676c-0.175,0-0.175,0.273,0,0.273C542.734,252.949,542.734,252.676,542.562,252.676z"/>
	<path d="M539.857,253.842c-0.175,0-0.175,0.273,0,0.273C540.031,254.115,540.031,253.842,539.857,253.842z"/>
	<path d="M537.896,253.743c-0.174,0-0.174,0.273,0,0.273C538.071,254.016,538.071,253.743,537.896,253.743z"/>
	<path d="M536.731,251.783c-0.174,0-0.174,0.272,0,0.272C536.905,252.056,536.905,251.783,536.731,251.783z"/>
	<path d="M537.104,249.997c-0.173,0-0.173,0.272,0,0.272C537.277,250.27,537.277,249.997,537.104,249.997z"/>
	<path d="M538.791,247.839c-0.174,0-0.174,0.273,0,0.273S538.965,247.839,538.791,247.839z"/>
	<path d="M539.237,248.732c-0.175,0-0.175,0.273,0,0.273C539.411,249.005,539.411,248.732,539.237,248.732z"/>
	<path d="M538.443,250.071c-0.175,0-0.175,0.273,0,0.273C538.617,250.344,538.617,250.071,538.443,250.071z"/>
	<path d="M535.393,250.791c-0.174,0-0.174,0.273,0,0.273C535.567,251.064,535.566,250.791,535.393,250.791z"/>
	<path d="M537.451,248.657c-0.174,0-0.174,0.273,0,0.273C537.625,248.905,537.625,248.657,537.451,248.657z"/>
	<path d="M541.122,247.045c-0.173,0-0.173,0.273,0,0.273C541.296,247.318,541.296,247.045,541.122,247.045z"/>
	<path d="M544.248,248.459c-0.174,0-0.174,0.273,0,0.273S544.422,248.459,544.248,248.459z"/>
	<path d="M547.026,249.352c-0.175,0-0.175,0.273,0,0.273C547.2,249.625,547.2,249.352,547.026,249.352z"/>
	<path d="M542.908,252.229c-0.174,0-0.174,0.273,0,0.273S543.082,252.229,542.908,252.229z"/>
	<path d="M542.908,250.617c-0.174,0-0.174,0.272,0,0.272C543.082,250.89,543.082,250.617,542.908,250.617z"/>
	<path d="M542.115,248.905c-0.174,0-0.174,0.273,0,0.273C542.264,249.178,542.264,248.905,542.115,248.905z"/>
	<path d="M545.514,246.4c-0.174,0-0.174,0.273,0,0.273S545.688,246.4,545.514,246.4z"/>
	<path d="M547.82,248.285c-0.174,0-0.174,0.273,0,0.273S547.994,248.285,547.82,248.285z"/>
	<path d="M546.754,250.518c-0.174,0-0.174,0.273,0,0.273C546.927,250.791,546.927,250.518,546.754,250.518z"/>
	<path d="M545.762,249.55c-0.174,0-0.174,0.273,0,0.273C545.935,249.823,545.935,249.55,545.762,249.55z"/>
	<path d="M546.754,247.119c-0.174,0-0.174,0.273,0,0.273C546.927,247.392,546.927,247.119,546.754,247.119z"/>
	<path d="M543.528,246.946c-0.173,0-0.173,0.273,0,0.273C543.702,247.219,543.702,246.946,543.528,246.946z"/>
	<path d="M552.037,248.112c-0.174,0-0.174,0.272,0,0.272S552.211,248.112,552.037,248.112z"/>
	<path d="M547.746,250.17c-0.174,0-0.174,0.273,0,0.273S547.92,250.17,547.746,250.17z"/>
	<path d="M550.152,249.178c-0.175,0-0.175,0.273,0,0.273C550.325,249.451,550.325,249.178,550.152,249.178z"/>
	<path d="M550.697,247.219c-0.173,0-0.173,0.272,0,0.272C550.871,247.491,550.871,247.219,550.697,247.219z"/>
	<path d="M551.938,245.061c-0.173,0-0.173,0.273,0,0.273C552.111,245.333,552.111,245.061,551.938,245.061z"/>
	<path d="M563.944,253.147c-0.298,0-0.298,0.446,0,0.446C564.217,253.594,564.217,253.147,563.944,253.147z"/>
	<path d="M554.171,245.706c-0.174,0-0.174,0.273,0,0.273C554.344,245.954,554.344,245.706,554.171,245.706z"/>
	<path d="M554.543,246.499c-0.124,0-0.148,0.149-0.1,0.224c-0.051,0.074-0.024,0.223,0.1,0.223s0.148-0.149,0.099-0.223
		C554.691,246.648,554.667,246.499,554.543,246.499z"/>
	<path d="M549.879,245.333c-0.174,0-0.174,0.273,0,0.273S550.053,245.333,549.879,245.333z"/>
	<path d="M548.019,244.986c-0.174,0-0.174,0.273,0,0.273C548.168,245.259,548.168,244.986,548.019,244.986z"/>
	<path d="M539.237,245.706c-0.175,0-0.175,0.273,0,0.273C539.411,245.954,539.411,245.706,539.237,245.706z"/>
	<path d="M538.071,247.491c-0.175,0-0.175,0.273,0,0.273C538.245,247.764,538.245,247.491,538.071,247.491z"/>
	<path d="M542.908,245.259c-0.174,0-0.174,0.273,0,0.273C543.082,245.507,543.082,245.259,542.908,245.259z"/>
	<path d="M542.363,248.112c-0.174,0-0.174,0.272,0,0.272C542.536,248.384,542.536,248.112,542.363,248.112z"/>
	<path d="M540.577,248.558c-0.174,0-0.174,0.273,0,0.273C540.75,248.831,540.75,248.558,540.577,248.558z"/>
	<path d="M541.742,250.071c-0.173,0-0.173,0.273,0,0.273C541.916,250.344,541.916,250.071,541.742,250.071z"/>
	<path d="M541.023,252.229c-0.175,0-0.175,0.273,0,0.273C541.197,252.502,541.197,252.229,541.023,252.229z"/>
	<path d="M539.957,251.163c-0.174,0-0.174,0.273,0,0.273C540.13,251.411,540.13,251.163,539.957,251.163z"/>
	<path d="M537.997,252.577c-0.174,0-0.174,0.273,0,0.273S538.171,252.577,537.997,252.577z"/>
	<path d="M540.676,253.296c-0.174,0-0.174,0.273,0,0.273S540.85,253.296,540.676,253.296z"/>
	<path d="M543.528,249.55c-0.173,0-0.173,0.273,0,0.273C543.702,249.823,543.702,249.55,543.528,249.55z"/>
	<path d="M544.148,252.056c-0.174,0-0.174,0.273,0,0.273S544.322,252.056,544.148,252.056z"/>
	<path d="M545.688,248.657c-0.174,0-0.174,0.273,0,0.273C545.86,248.905,545.86,248.657,545.688,248.657z"/>
	<path d="M548.267,246.871c-0.174,0-0.174,0.273,0,0.273C548.44,247.119,548.44,246.871,548.267,246.871z"/>
	<path d="M545.414,247.392c-0.174,0-0.174,0.273,0,0.273S545.588,247.392,545.414,247.392z"/>
	<path d="M547.299,245.78c-0.173,0-0.173,0.273,0,0.273C547.473,246.053,547.473,245.78,547.299,245.78z"/>
	<path d="M549.358,248.012c-0.175,0-0.175,0.273,0,0.273C549.532,248.285,549.532,248.012,549.358,248.012z"/>
	<path d="M548.465,249.352c-0.174,0-0.174,0.273,0,0.273S548.639,249.352,548.465,249.352z"/>
	<path d="M546.133,251.411c-0.173,0-0.173,0.273,0,0.273C546.307,251.684,546.307,251.411,546.133,251.411z"/>
	<path d="M548.639,250.344c-0.174,0-0.174,0.273,0,0.273S548.812,250.344,548.639,250.344z"/>
	<path d="M549.805,249.625c-0.174,0-0.174,0.272,0,0.272S549.979,249.625,549.805,249.625z"/>
	<path d="M547.101,250.964c-0.174,0-0.174,0.273,0,0.273C547.275,251.237,547.274,250.964,547.101,250.964z"/>
	<path d="M551.491,248.905c-0.173,0-0.173,0.273,0,0.273C551.665,249.178,551.665,248.905,551.491,248.905z"/>
	<path d="M550.697,248.211c-0.173,0-0.173,0.273,0,0.273C550.871,248.459,550.871,248.211,550.697,248.211z"/>
	<path d="M548.912,246.053c-0.174,0-0.174,0.273,0,0.273C549.085,246.326,549.085,246.053,548.912,246.053z"/>
	<path d="M551.863,246.673c-0.174,0-0.174,0.273,0,0.273S552.037,246.673,551.863,246.673z"/>
	<path d="M553.377,247.938c-0.174,0-0.174,0.273,0,0.273S553.551,247.938,553.377,247.938z"/>
	<path d="M555.709,246.499c-0.174,0-0.174,0.273,0,0.273C555.882,246.772,555.882,246.499,555.709,246.499z"/>
	<path d="M552.483,248.905c-0.174,0-0.174,0.273,0,0.273S552.657,248.905,552.483,248.905z"/>
	<path d="M552.831,246.499c-0.174,0-0.174,0.273,0,0.273S553.005,246.499,552.831,246.499z"/>
	<path d="M551.145,243.274c-0.174,0-0.174,0.273,0,0.273C551.319,243.547,551.318,243.274,551.145,243.274z"/>
	<path d="M544.868,244.887c-0.174,0-0.174,0.273,0,0.273S545.042,244.887,544.868,244.887z"/>
	<path d="M540.676,246.053c-0.174,0-0.174,0.273,0,0.273S540.85,246.053,540.676,246.053z"/>
	<path d="M539.411,246.499c-0.174,0-0.174,0.273,0,0.273C539.584,246.772,539.584,246.499,539.411,246.499z"/>
	<path d="M537.451,251.336c-0.174,0-0.174,0.273,0,0.273S537.625,251.336,537.451,251.336z"/>
	<path d="M538.071,249.178c-0.175,0-0.175,0.273,0,0.273C538.245,249.451,538.245,249.178,538.071,249.178z"/>
	<path d="M556.874,242.307c-0.173,0-0.173,0.273,0,0.273C557.048,242.555,557.048,242.307,556.874,242.307z"/>
	<path d="M557.222,243.721c-0.174,0-0.174,0.273,0,0.273C557.396,243.994,557.396,243.721,557.222,243.721z"/>
	<path d="M554.443,243.374c-0.175,0-0.175,0.273,0,0.273C554.617,243.647,554.617,243.374,554.443,243.374z"/>
	<path d="M552.559,244.093c-0.174,0-0.174,0.273,0,0.273C552.731,244.366,552.731,244.093,552.559,244.093z"/>
	<path d="M555.957,244.986c-0.174,0-0.174,0.273,0,0.273C556.13,245.259,556.13,244.986,555.957,244.986z"/>
	<path d="M558.388,244.986c-0.174,0-0.174,0.273,0,0.273C558.562,245.259,558.562,244.986,558.388,244.986z"/>
	<path d="M559.729,242.208c-0.175,0-0.175,0.272,0,0.272C559.9,242.48,559.9,242.208,559.729,242.208z"/>
	<path d="M557.321,240.05c-0.175,0-0.175,0.272,0,0.272C557.494,240.322,557.494,240.05,557.321,240.05z"/>
	<path d="M558.908,236.478c-0.174,0-0.174,0.273,0,0.273S559.082,236.478,558.908,236.478z"/>
	<path d="M560.968,233.005c-0.174,0-0.174,0.272,0,0.272C561.141,233.277,561.141,233.005,560.968,233.005z"/>
	<path d="M559.182,232.36c-0.174,0-0.174,0.273,0,0.273C559.356,232.633,559.355,232.36,559.182,232.36z"/>
	<path d="M558.388,235.237c-0.174,0-0.174,0.273,0,0.273C558.562,235.51,558.562,235.237,558.388,235.237z"/>
	<path d="M560.446,234.865c-0.175,0-0.175,0.273,0,0.273C560.62,235.138,560.62,234.865,560.446,234.865z"/>
	<path d="M560.62,237.47c-0.174,0-0.174,0.273,0,0.273S560.794,237.47,560.62,237.47z"/>
	<path d="M558.908,240.694c-0.174,0-0.174,0.273,0,0.273S559.082,240.694,558.908,240.694z"/>
	<path d="M555.336,240.868c-0.173,0-0.173,0.273,0,0.273C555.51,241.141,555.51,240.868,555.336,240.868z"/>
	<path d="M558.66,238.636c-0.174,0-0.174,0.273,0,0.273S558.834,238.636,558.66,238.636z"/>
	<path d="M556.428,236.478c-0.174,0-0.174,0.273,0,0.273C556.577,236.75,556.577,236.478,556.428,236.478z"/>
	<path d="M558.214,245.706c-0.174,0-0.174,0.273,0,0.273C558.388,245.954,558.388,245.706,558.214,245.706z"/>
	<path d="M553.104,250.89c-0.173,0-0.173,0.272,0,0.272C553.277,251.163,553.277,250.89,553.104,250.89z"/>
	<path d="M550.251,251.336c-0.174,0-0.174,0.273,0,0.273S550.425,251.336,550.251,251.336z"/>
	<path d="M551.765,251.51c-0.174,0-0.174,0.273,0,0.273C551.938,251.783,551.938,251.51,551.765,251.51z"/>
	<path d="M553.104,252.775c-0.173,0-0.173,0.272,0,0.272C553.277,253.023,553.277,252.775,553.104,252.775z"/>
	<path d="M554.096,253.842c-0.173,0-0.173,0.273,0,0.273C554.27,254.115,554.27,253.842,554.096,253.842z"/>
	<path d="M554.543,251.609c-0.174,0-0.174,0.273,0,0.273C554.717,251.857,554.717,251.609,554.543,251.609z"/>
	<path d="M556.056,249.625c-0.174,0-0.174,0.272,0,0.272C556.23,249.897,556.229,249.625,556.056,249.625z"/>
	<path d="M555.262,249.277c-0.174,0-0.174,0.273,0,0.273S555.436,249.277,555.262,249.277z"/>
	<path d="M554.89,250.071c-0.173,0-0.173,0.273,0,0.273S555.062,250.071,554.89,250.071z"/>
	<path d="M553.724,249.823c-0.173,0-0.173,0.273,0,0.273C553.896,250.071,553.896,249.823,553.724,249.823z"/>
	<path d="M551.938,252.502c-0.173,0-0.173,0.273,0,0.273C552.111,252.775,552.111,252.502,551.938,252.502z"/>
	<path d="M555.51,253.396c-0.174,0-0.174,0.272,0,0.272S555.684,253.396,555.51,253.396z"/>
	<path d="M556.428,254.636c-0.174,0-0.174,0.273,0,0.273C556.577,254.909,556.577,254.636,556.428,254.636z"/>
	<path d="M555.262,255.182c-0.174,0-0.174,0.272,0,0.272S555.436,255.182,555.262,255.182z"/>
	<path d="M557.569,253.396c-0.175,0-0.175,0.272,0,0.272C557.742,253.668,557.742,253.396,557.569,253.396z"/>
	<path d="M556.949,251.411c-0.174,0-0.174,0.273,0,0.273C557.122,251.684,557.122,251.411,556.949,251.411z"/>
	<path d="M557.048,249.277c-0.174,0-0.174,0.273,0,0.273S557.222,249.277,557.048,249.277z"/>
	<path d="M557.768,248.012c-0.174,0-0.174,0.273,0,0.273C557.942,248.285,557.941,248.012,557.768,248.012z"/>
	<path d="M560.72,252.329c-0.174,0-0.174,0.273,0,0.273C560.893,252.577,560.893,252.329,560.72,252.329z"/>
	<path d="M557.842,254.909c-0.174,0-0.174,0.273,0,0.273S558.016,254.909,557.842,254.909z"/>
	<path d="M560.968,254.115c-0.174,0-0.174,0.273,0,0.273C561.141,254.388,561.141,254.115,560.968,254.115z"/>
	<path d="M563.225,254.115c-0.174,0-0.174,0.273,0,0.273C563.398,254.363,563.398,254.115,563.225,254.115z"/>
	<path d="M558.66,249.997c-0.174,0-0.174,0.272,0,0.272S558.834,249.997,558.66,249.997z"/>
	<path d="M559.182,252.577c-0.174,0-0.174,0.273,0,0.273C559.356,252.85,559.355,252.577,559.182,252.577z"/>
	<path d="M556.329,252.403c-0.174,0-0.174,0.272,0,0.272C556.502,252.676,556.502,252.403,556.329,252.403z"/>
	<path d="M560.968,249.55c-0.174,0-0.174,0.273,0,0.273C561.141,249.823,561.141,249.55,560.968,249.55z"/>
	<path d="M561.24,246.673c-0.174,0-0.174,0.273,0,0.273S561.414,246.673,561.24,246.673z"/>
	<path d="M562.133,243.994c-0.173,0-0.173,0.273,0,0.273C562.307,244.267,562.307,243.994,562.133,243.994z"/>
	<path d="M562.58,242.828c-0.174,0-0.174,0.272,0,0.272S562.754,242.828,562.58,242.828z"/>
	<path d="M559.454,243.646c-0.174,0-0.174,0.273,0,0.273S559.628,243.646,559.454,243.646z"/>
	<path d="M550.152,246.326c-0.175,0-0.175,0.273,0,0.273C550.325,246.599,550.325,246.326,550.152,246.326z"/>
	<path d="M549.979,243.994c-0.174,0-0.174,0.273,0,0.273C550.153,244.267,550.152,243.994,549.979,243.994z"/>
	<path d="M556.056,238.71c-0.174,0-0.174,0.273,0,0.273C556.23,238.983,556.229,238.71,556.056,238.71z"/>
	<path d="M549.433,240.422c-0.174,0-0.174,0.272,0,0.272C549.607,240.694,549.606,240.422,549.433,240.422z"/>
	<path d="M551.219,240.868c-0.174,0-0.174,0.273,0,0.273S551.393,240.868,551.219,240.868z"/>
	<path d="M552.211,240.694c-0.174,0-0.174,0.273,0,0.273S552.385,240.694,552.211,240.694z"/>
	<path d="M552.831,241.215c-0.174,0-0.174,0.273,0,0.273S553.005,241.215,552.831,241.215z"/>
	<path d="M550.524,242.307c-0.175,0-0.175,0.273,0,0.273C550.673,242.555,550.673,242.307,550.524,242.307z"/>
	<path d="M552.111,242.108c-0.174,0-0.174,0.273,0,0.273S552.285,242.108,552.111,242.108z"/>
	<path d="M550.251,241.488c-0.174,0-0.174,0.273,0,0.273S550.425,241.488,550.251,241.488z"/>
	<path d="M563.398,251.411c-0.175,0-0.175,0.273,0,0.273C563.572,251.684,563.572,251.411,563.398,251.411z"/>
	<path d="M559.454,254.561c-0.174,0-0.174,0.273,0,0.273C559.628,254.809,559.628,254.561,559.454,254.561z"/>
	<path d="M561.86,252.949c-0.175,0-0.175,0.273,0,0.273C562.034,253.222,562.034,252.949,561.86,252.949z"/>
	<path d="M560,250.344c-0.174,0-0.174,0.273,0,0.273S560.174,250.344,560,250.344z"/>
	<path d="M558.562,251.609c-0.175,0-0.175,0.273,0,0.273C558.734,251.857,558.734,251.609,558.562,251.609z"/>
	<path d="M555.609,250.791c-0.175,0-0.175,0.273,0,0.273C555.783,251.064,555.783,250.791,555.609,250.791z"/>
	<path d="M554.369,252.577c-0.174,0-0.174,0.273,0,0.273S554.543,252.577,554.369,252.577z"/>
	<path d="M560.348,247.566c-0.174,0-0.174,0.273,0,0.273S560.521,247.566,560.348,247.566z"/>
	<path d="M559.008,248.657c-0.174,0-0.174,0.273,0,0.273C559.182,248.905,559.182,248.657,559.008,248.657z"/>
	<path d="M560,249.178c-0.174,0-0.174,0.273,0,0.273S560.174,249.178,560,249.178z"/>
	<path d="M561.24,248.112c-0.174,0-0.174,0.272,0,0.272S561.414,248.112,561.24,248.112z"/>
	<path d="M559.107,247.491c-0.175,0-0.175,0.273,0,0.273C559.28,247.764,559.28,247.491,559.107,247.491z"/>
	<path fill="#48483B" d="M545.042,406.003c0,0-3.473-4.44,3.2-16.099c0,0,0.992,0.545,0.198,5.53
		c-0.818,4.986-3.673,9.552,2.827,15.231C551.269,410.642,546.63,409.327,545.042,406.003z"/>
	<path opacity="0.3" enable-background="new    " d="M492.354,260.937c0,0,3.722,0.297,4.564,1.24
		c0.818,0.942,2.158,1.513,3.051,1.91c0.868,0.397,7.194,0.918,8.856,1.116c1.661,0.198,11.905,1.091,12.254,2.059
		c0.348,0.967-1.314,0.521-2.679,0.57c-1.365,0.075-9.377-1.166-10.865-1.414c-1.488-0.223-9.625-1.811-9.625-1.811
		s-1.019-0.868-1.314-1.166c-0.298-0.298-0.744-0.967-1.314-1.166c-0.596-0.198-2.877-0.446-2.877-0.446v-0.893L492.354,260.937
		L492.354,260.937z"/>
	<path fill="none" stroke="#000000" stroke-width="1.0819" stroke-miterlimit="10" d="M493.073,261.011c0,0,3.025,0.447,3.845,1.166
		c0.819,0.719,2.133,2.059,8.013,2.654c5.903,0.595,13.866,1.513,16.1,2.183"/>
	<path opacity="0.3" enable-background="new    " d="M498.108,253.073c0,0,6.523-0.669,7.118,0.248c0,0-0.421,1.191-1.487,1.612
		h-5.705L498.108,253.073z"/>
	<path opacity="0.3" enable-background="new    " d="M504.583,260.465c0.472-0.497,0.67-1.042,0.67-1.042
		c-0.62-0.943-7.12-0.248-7.12-0.248l-0.023,1.314h6.475L504.583,260.465L504.583,260.465z"/>
	<path fill="none" stroke="#000000" stroke-width="1.0819" stroke-miterlimit="10" d="M510.115,249.401
		c0,0,1.587,5.259,0.023,11.163"/>
	<path d="M507.336,265.625c0,0-0.396,1.811,0.273,2.679c0.669,0.868,0.023,2.282-0.57,2.506c0,0,0.124,0.322,0.843,0.372
		c0.72,0.074,2.233-1.538,2.382-2.183c0.149-0.645,0.646-3.001,0.646-3.001L507.336,265.625z"/>
	<path fill="none" stroke="#010101" stroke-width="0.971" stroke-miterlimit="10" d="M510.214,249.55c0,0,1.116,0,1.29,1.265
		c0.124,0.893,0.596,1.141,1.216,1.513c0.595,0.372,3.621,3.448,0,6.822"/>
	<rect x="490.766" y="258.406" width="1.588" height="0.992"/>
	<path opacity="0.3" enable-background="new    " d="M497.216,250.493c0,0,4.589-1.935,13.246-0.546l-0.124-0.546
		c0,0-9.178-1.389-13.146,0.149L497.216,250.493z"/>
	<g>
		<path fill="#414042" d="M409.823,518.375l4.093-0.174c-0.347-1.215-1.24-4.191-1.24-3.993c0.025,0.272-0.868,3.051-0.868,3.051
			s-0.893-7.517-4.713-7.343C407.119,509.916,410.021,511.256,409.823,518.375z"/>
	</g>
	<g>
		<path fill="#414042" d="M608.322,519.863l-5.507-0.248c0.495-1.638,1.687-5.655,1.661-5.357c-0.023,0.371,1.166,4.093,1.166,4.093
			s1.19-10.12,6.325-9.896C611.969,508.428,608.05,510.238,608.322,519.863z"/>
	</g>
	<g>
		<path fill="#414042" d="M608.769,519.789l4.095-0.174c-0.349-1.215-1.24-4.192-1.24-3.993c0.023,0.271-0.868,3.051-0.868,3.051
			s-0.894-7.517-4.714-7.343C606.065,511.33,608.968,512.645,608.769,519.789z"/>
	</g>
	<path fill="#383938" d="M565.507,397.246c0,0,1.216,3.87,5.234,3.771c4.019-0.099,6.15-0.173,7.095,1.042
		c0.942,1.217,1.116,3.425,1.314,4.715c0,0-1.488-4.343-5.16-3.351c-3.671,0.992-9.55,1.985-11.832-1.983
		C562.158,401.464,565.234,399.95,565.507,397.246z"/>
	<path fill="#010101" d="M588.825,402.63c-0.298-0.075-0.62,0.124-0.67,0.446l0,0l-2.034-0.446l0.271-2.06
		c0.299,0.05,0.571-0.148,0.646-0.446s-0.124-0.62-0.447-0.67c-0.297-0.074-0.62,0.124-0.669,0.446c-0.05,0.174,0,0.348,0.124,0.472
		l-1.613,1.313l-1.265-1.313c0.024-0.05,0.05-0.101,0.05-0.148c0.074-0.298-0.124-0.62-0.445-0.67
		c-0.299-0.074-0.62,0.124-0.67,0.446c-0.074,0.298,0.123,0.62,0.445,0.67c0.024,0,0.024,0,0.05,0l0.024,1.761l-1.936,0.175
		c-0.05-0.198-0.224-0.348-0.422-0.396c-0.298-0.074-0.619,0.124-0.67,0.446c-0.073,0.298,0.124,0.62,0.446,0.67
		c0.224,0.05,0.422-0.025,0.571-0.198l0.967,0.744c-1.538-0.348-2.902,0.023-2.902,0.023l0.199,1.713
		c0.521-0.918,1.885-0.969,2.902-0.819l-0.794,1.216c-0.051-0.023-0.074-0.023-0.124-0.05c-0.299-0.074-0.62,0.124-0.67,0.447
		c-0.051,0.321,0.123,0.62,0.445,0.669c0.298,0.074,0.62-0.124,0.67-0.446c0.024-0.099,0.024-0.198,0-0.272l1.936-0.472l0.62,1.886
		c-0.224,0.05-0.422,0.198-0.472,0.446c-0.074,0.298,0.124,0.62,0.446,0.67c0.298,0.074,0.62-0.124,0.67-0.447
		c0.05-0.223-0.05-0.445-0.198-0.569l0.868-1.885l1.835,0.693c0,0.024,0,0.024-0.023,0.05c-0.074,0.299,0.124,0.62,0.445,0.67
		c0.298,0.074,0.62-0.124,0.67-0.446c0.074-0.297-0.124-0.62-0.445-0.669c-0.101-0.025-0.225-0.025-0.322,0.023l-0.868-1.762
		l1.785-1.066c0.075,0.124,0.199,0.225,0.372,0.273c0.298,0.074,0.62-0.124,0.67-0.447
		C589.346,403.002,589.146,402.704,588.825,402.63z M585.229,404.167c-0.125,0.546-0.67,0.918-1.24,0.794
		c-0.546-0.124-0.918-0.67-0.794-1.24c0.125-0.546,0.67-0.918,1.239-0.794C584.979,403.076,585.352,403.622,585.229,404.167z"/>
	<path fill="#383938" d="M510.486,341.755c0,0,1.216,3.87,5.233,3.771c4.02-0.1,6.152-0.175,7.095,1.042
		c0.943,1.216,1.116,3.423,1.314,4.713c0,0-1.488-4.341-5.159-3.35c-3.672,0.992-9.551,1.984-11.833-1.983
		C507.138,345.947,510.238,344.435,510.486,341.755z"/>
	<path fill="#010101" d="M533.829,347.113c-0.297-0.074-0.62,0.124-0.669,0.445l0,0l-2.034-0.445l0.272-2.06
		c0.298,0.05,0.569-0.148,0.645-0.446s-0.123-0.62-0.446-0.67c-0.298-0.074-0.62,0.125-0.67,0.446c-0.049,0.174,0,0.348,0.124,0.472
		l-1.611,1.314l-1.266-1.314c0.024-0.05,0.05-0.1,0.05-0.148c0.074-0.298-0.124-0.62-0.446-0.67
		c-0.297-0.074-0.62,0.124-0.669,0.446c-0.075,0.298,0.124,0.619,0.445,0.67c0.024,0,0.024,0,0.05,0l0.024,1.762l-1.935,0.173
		c-0.051-0.198-0.225-0.347-0.423-0.396c-0.298-0.074-0.619,0.124-0.67,0.445c-0.073,0.298,0.124,0.62,0.446,0.67
		c0.224,0.051,0.422-0.023,0.571-0.197l0.967,0.744c-1.538-0.349-2.902,0.023-2.902,0.023l0.198,1.712
		c0.521-0.918,1.886-0.968,2.902-0.817l-0.794,1.215c-0.05-0.024-0.074-0.024-0.123-0.049c-0.298-0.074-0.621,0.124-0.67,0.445
		c-0.074,0.298,0.124,0.62,0.445,0.67c0.298,0.074,0.62-0.124,0.67-0.445c0.024-0.101,0.024-0.199,0-0.273l1.936-0.471l0.62,1.885
		c-0.225,0.05-0.422,0.198-0.473,0.446c-0.073,0.298,0.125,0.62,0.447,0.67c0.298,0.074,0.62-0.124,0.67-0.446
		c0.049-0.224-0.05-0.446-0.199-0.57l0.895-1.886l1.835,0.694c0,0.024,0,0.024-0.024,0.05c-0.073,0.298,0.124,0.62,0.446,0.67
		c0.298,0.074,0.62-0.124,0.67-0.446c0.074-0.298-0.124-0.62-0.446-0.67c-0.1-0.024-0.224-0.024-0.321,0.024l-0.868-1.761
		l1.786-1.066c0.073,0.123,0.198,0.223,0.372,0.272c0.297,0.073,0.62-0.124,0.669-0.446
		C534.325,347.485,534.127,347.188,533.829,347.113z M530.232,348.676c-0.124,0.546-0.67,0.918-1.24,0.794
		c-0.546-0.124-0.918-0.67-0.794-1.239c0.124-0.547,0.67-0.918,1.239-0.795C529.984,347.56,530.332,348.105,530.232,348.676z"/>
</g>
<g id="Layer_1">
	<path fill="#7D7D7D" d="M573.296,239.603c0,0,1.538-1.364,2.356-0.57c0.794,0.793,10.814,10.121,13.072,15.107
		c2.158,4.812,10.195,8.285,6.821,39.64c-0.124,1.042-1.166,5.433-1.513,6.574c-6.871,22.375,0.422,49.96,0.57,54.4
		c0.148,4.663,0,16.77-3.896,13.94c-0.57-0.423-2.406-1.514-2.679-2.505c-0.273-0.992-1.887-4.219-3.177-4.564
		c-1.288-0.348-6.846-1.786-10.07-1.712c-3.226,0.1-8.657-2.53-8.384-3.597c0.271-1.066-0.175-33.042,3.671-39.394
		c3.845-6.351,5.507-20.862,7.293-24.583c1.786-3.721,7.789-17.588,6.45-22.946c-1.341-5.358-3.847-14.537-11.016-12.775
		c-7.144,1.761-6.251,11.436-6.971,14.462c-0.719,3.051-1.612,17.985-7.145,26.567c-5.557,8.583-8.583,11.981-11.263,18.158
		c-2.679,6.178-3.497,11.188-6.003,12.527c-2.505,1.34-3.572,6.449-3.398,8.955c0.175,2.505,0.943,4.391-0.023,4.019
		c-0.968-0.348-1.042-4.292-1.688-6.448c-0.62-2.158-0.546-3.053,0-5.186c0.545-2.134,0.62-4.392,0.1-5.805
		c-0.546-1.439,2.158-13.693,2.158-16.646c0-2.952,1.239-6.523,0.72-9.848c-0.546-3.299-1.712-4.564-0.794-6.177
		c0.893-1.613,11.236-13.247,12.526-18.63c1.612-6.747,8.037-13.445,11.46-16.148c3.398-2.704,6.028-7.988,8.062-10.27
		C574.04,242.084,573.296,239.603,573.296,239.603z"/>
	<path fill="#5C5C5C" d="M544.694,267.783c0,0-0.272-0.893-0.868-1.29c-0.57-0.397-1.29-0.273-1.364-0.67
		c-0.099-0.397-0.322-0.62-0.546-0.719c-0.223-0.099-0.719-0.397-1.042-0.769c-0.694-0.843-4.787-0.744-5.979-1.91
		c-1.216-1.166-2.604-0.942-2.951-0.893c-0.349,0.05-1.786,0.943-2.011,1.116c-0.223,0.174-7.392,3.646-8.854,4.44
		c-1.488,0.794-1.538,1.067-1.736,1.687c-0.198,0.595-2.208,1.935-2.556,2.356c-0.348,0.397-1.142,0.546-1.018,1.265
		c0.124,0.744,0.845,1.563,1.116,1.538c0.918-0.075,0.349-0.025,0.942-0.298c1.241-0.545,1.216-0.595,2.58-1.315
		c0,0,0.396,1.687,1.34,1.538c0.693-0.099,0.744,0.199,0.744,0.199s1.216,1.24,1.611,1.314c0.396,0.075,0.918,0.1,0.918,0.1
		s0.671,1.687,1.736,1.339c1.066-0.348,2.854-1.538,3.87-1.811s5.085-0.868,5.903-1.29c0.817-0.397,2.059-2.059,2.059-2.059
		l0.323,0.372c0,0,1.265-2.877,2.479-3.622C542.611,267.708,544.694,267.783,544.694,267.783z"/>
</g>
</svg>
