<?xml version="1.0" encoding="utf-8"?>
<!-- Generator: Adobe Illustrator 16.0.0, SVG Export Plug-In . SVG Version: 6.00 Build 0)  -->
<!DOCTYPE svg PUBLIC "-//W3C//DTD SVG 1.1//EN" "http://www.w3.org/Graphics/SVG/1.1/DTD/svg11.dtd">
<svg version="1.1" xmlns="http://www.w3.org/2000/svg" xmlns:xlink="http://www.w3.org/1999/xlink" x="0px" y="0px" width="1024px"
	 height="768px" viewBox="0 0 1024 768" enable-background="new 0 0 1024 768" xml:space="preserve">
<g id="Layer_4">
	<path fill="#D1D3D4" d="M756.295,572.157c3.746-0.818,10.814-3.547,10.814-3.547c-8.73-3.944-22.027,4.787-22.027,4.787v-7.888
		c0,0-5.408,4.563-16.619,7.888c-9.973-1.661-84.764-0.297-84.764-0.297c4.838-3.053,3.473-10.121,3.473-10.121
		c-1.389,7.068-13.99,11.088-13.99,11.088c5.83-4.291,2.355-10.245,2.355-10.245c0.148,3.052-9.848,9.699-9.848,9.699v-4.02
		c-0.271,1.937-7.49,4.292-7.49,4.292s-10.816,0.272-21.756,0.423c-10.939,0.147-108.057-0.547-108.057-0.547
		c3.324-0.968,4.838-8.583,4.838-8.583c-2.208,6.648-12.18,8.037-12.18,8.037c4.984-2.208,4.439-12.18,4.439-12.18
		c-1.812,9.277-13.991,13.022-13.991,13.022c1.935-1.936,0-5.829,0-5.829c-0.546,3.176-4.986,5.531-4.986,5.531
		c1.935-1.116,0.967-5.531,0.967-5.531s-1.116,1.514-4.564,3.597c-3.473,2.084-14.561,1.662-27.436,2.084
		c-4.366,0.148-11.51,0.472-19.101,0.844c0.198-6.375,2.927-7.889,2.927-7.889c-3.547,0.1-4.862,5.011-5.333,8.013
		c-0.372,0.024-0.744,0.05-1.141,0.05c-0.298-0.818-0.571-1.588-0.596-1.736c0-0.148-0.198,0.694-0.446,1.785
		c-0.422,0.025-0.843,0.051-1.265,0.075l-1.364-19.3l-2.133,6.797l-0.844-1.438l-0.496,4.937l-1.24-1.811l0.174,5.879l-1.067-1.812
		l-0.769,6.896l-0.099-3.051l-0.67,1.983l-1.662-3.994l0.074,3.797c0.074,0.743,0.099,1.265,0.05,1.66
		c-8.633,0.447-15.281,0.819-15.281,0.819c13.296,5.829,125.494,17.463,193.239,17.042c67.746-0.422,204.057-14.537,204.057-14.537
		C779.562,574.663,756.295,572.157,756.295,572.157z"/>
</g>
<g id="Layer_3">
	<g>
		<g>
			<g>
				<path fill="#FFFFFF" stroke="#010101" stroke-width="13.277" stroke-miterlimit="10" d="M719.355,538.021
					c0,0,12.997-6.771,16.843-15.183c3.845-8.409,11.461-52.19,10.543-76.526c-0.942-24.335-5.011-48.174,8.234-50.754
					c13.246-2.58,27.709,2.232,30.389,48.744c2.679,46.513-1.266,118.698-40.235,128.248c-18.63,3.92-24.657,0.771-24.657,0.771
					S702.512,553.203,719.355,538.021z"/>
				<path fill="#010101" d="M755.15,455.715c0.1-5.284-0.148-10.617-0.771-15.876c-0.595-4.788-2.231-9.401-3.373-14.09
					c-1.216-4.986-1.414-9.773-0.05-14.735c1.314-4.837,3.2-9.4,3.3-14.485c0.049-1.588-2.432-1.515-2.48,0.073
					c-0.148,5.953-2.928,11.312-3.993,17.093c-0.992,5.383,0.297,10.914,1.711,16.099c0.695,2.604,1.464,5.186,2.01,7.839
					c0.67,3.15,0.844,6.425,1.018,9.649c0.371,6.45,0.1,12.925-0.446,19.35c-0.868,10.17-2.356,20.392-4.392,30.387
					c-1.836,8.932-4.315,17.786-8.16,26.071c-4.911,10.644-12.429,19.87-22.797,25.129c0.546,0.422,0.867,1.092,0.817,1.812
					c-0.023,0.173-0.023,0.347-0.05,0.521v0.025c13.941-6.946,22.574-20.44,27.732-35.103c3.026-8.532,4.912-17.463,6.4-26.394
					C753.488,478.09,754.927,466.902,755.15,455.715z"/>
				<path fill="#010101" d="M759.193,463.852c0.248-6.077,1.39-12.057,1.562-18.134c0.174-5.805-0.77-11.51-2.754-16.968
					c-1.96-5.383-4.068-10.766-2.58-16.521c1.538-5.929,5.061-11.188,6.5-17.189c0.372-1.563-2.034-2.134-2.406-0.571
					c-1.438,6.004-4.613,11.337-6.499,17.191c-1.638,5.135,0.024,10.394,1.736,15.256c2.033,5.779,3.497,11.361,3.522,17.538
					c0.023,6.003-1.143,11.956-1.515,17.935c-0.794,12.851,0.794,25.849-1.538,38.6c-1.588,8.707-4.465,17.313-8.161,25.352
					c-6.448,14.017-17.29,28.155-33.588,30.388c-1.562,0.225-1.487,2.68,0.075,2.48c17.662-2.406,29.196-17.389,36.117-32.646
					c3.598-7.938,6.275-16.396,7.938-24.954C760.087,489.179,758.673,476.378,759.193,463.852z"/>
				<path fill="#010101" d="M767.95,468.938c-0.298-11.214-1.042-22.426-3.299-33.414c-1.042-5.062-1.96-10.071-1.96-15.257
					c0-6.053,0.596-12.304,1.115-18.355c0.124-1.588-2.332-1.488-2.456,0.074c-0.545,6.301-1.115,12.751-1.115,19.075
					c0,5.384,1.142,10.643,2.208,15.9c2.506,12.155,2.928,24.683,3.176,37.062c0.123,6.475-1.34,12.7-2.704,18.977
					c-1.34,6.103-2.084,12.155-2.432,18.382c-0.348,5.854-0.521,11.659-2.184,17.34c-1.389,4.737-3.795,9.104-7.021,12.824
					c-4.713,5.433-11.41,8.781-17.488,12.403c-3.373,2.01-6.797,3.895-10.443,5.357c-3.051,1.24-6.522,2.257-9.822,1.562
					c-1.562-0.322-2.133,2.084-0.57,2.406c3.969,0.844,7.987-0.349,11.659-1.812c4.341-1.736,8.409-4.143,12.378-6.574
					c3.771-2.281,7.715-4.391,11.188-7.095c3.672-2.827,6.698-6.35,9.029-10.344c5.681-9.675,5.21-20.713,6.104-31.528
					c0.521-6.475,2.183-12.751,3.473-19.102C767.95,480.844,768.1,475.014,767.95,468.938z"/>
				<path fill="#010101" d="M781.494,480.198c0.794-16.77,2.778-34.68-2.854-50.854c-0.023-0.073-0.073-0.147-0.099-0.224
					c0.272-0.446,0.322-1.066-0.124-1.562c-3.672-4.067-3.746-10.244-4.267-15.38c-0.547-5.383-1.391-10.964-4.765-15.38
					c-0.967-1.265-3.051,0.05-2.083,1.315c6.871,8.979,1.835,22.274,9.129,30.883c-0.198,0.272-0.298,0.62-0.148,1.067
					c3.622,10.418,3.819,21.704,3.548,32.619c-0.298,11.584-0.993,23.22-1.96,34.778c-1.092,12.974-2.729,26.418-7.27,38.722
					c-3.349,9.056-9.202,17.267-16.372,23.666c-8.16,7.317-18.703,11.782-29.594,10.939c8.312-0.546,16.57-4.044,23.467-8.311
					c9.525-5.903,18.828-15.257,20.688-26.767c0.174-1.042-1.438-1.438-1.612-0.396c-1.786,10.988-10.518,19.646-19.498,25.452
					c-8.335,5.383-19.076,9.55-29.195,8.186c16.421-5.11,34.032-10.939,43.262-26.643c2.555-4.341,4.217-9.229,5.407-14.114
					c1.588-6.476,1.514-13.246,2.456-19.846c0.894-6.351,2.63-12.602,3.92-18.901c1.239-6.027,1.835-12.105,1.885-18.257
					c0.148-22.524-7.293-44.205-9.005-66.557c-0.074-1.065-1.736-1.017-1.638,0.05c1.86,24.336,10.295,47.9,8.807,72.51
					c-0.77,12.898-5.233,25.253-6.375,38.15c-0.992,11.411-3.249,22.6-10.716,31.653c-9.575,11.609-24.955,16.174-38.772,20.465
					c-0.645,0.198-0.67,0.894-0.372,1.314c-0.445-0.074-0.893-0.174-1.34-0.272c-1.041-0.248-1.414,1.364-0.396,1.612
					c1.042,0.248,2.084,0.422,3.149,0.546c-0.396,0.646-0.248,1.662,0.72,1.86c19.373,4.242,36.961-7.938,47.28-23.491
					c6.177-9.327,9.029-20.143,11.014-31.058C780.031,505.551,780.899,492.8,781.494,480.198z"/>
			</g>
			<g>
				<path fill="#FFFFFF" stroke="#010101" stroke-width="13.0294" stroke-miterlimit="10" d="M710.104,712.979
					c0,0-34.729,2.034-39.566-10.814c-2.282-6.077-4.117-48.893-5.433-92.428c-1.464-48.744-2.281-98.356-2.281-98.356
					s6.102-34.927,5.829-73.029c-0.149-22.375,3.199-40.559,3.745-55.715c0.446-12.229-1.909-23.417-2.01-26.171
					c-0.968-29.246,53.532-46.288,59.039-4.093c2.902,17.588,7.716,121.799,7.716,172.527c0,9.104-5.706,21.979,2.009,51.895
					s-2.009,119.269-2.009,119.269S738.506,713.104,710.104,712.979z"/>
				<path fill="#010101" d="M730.493,559.776c-0.422-8.483-1.91-16.744-3.274-25.104c-1.313-8.111-2.382-16.271-3.149-24.459
					c-2.383-25.648,1.687-54.201,1.414-54.847c0.794-6.177,1.587-12.354,2.033-18.58c0.546-7.962,0.72-15.976,0.77-23.962
					c0.1-16.496-0.595-32.992-0.844-49.488c-0.123-8.335-0.198-16.67-0.298-25.005c-0.67-0.397-1.314-0.868-1.909-1.414
					c0.124,10.493,0.174,20.986,0.396,31.479c0.322,16.794,0.968,33.588,0.695,50.382c-0.125,8.161-0.496,16.348-1.241,24.482
					c-0.148,1.588-0.322,3.15-0.496,4.738c-0.049-4.019-0.271-8.062-0.694-12.081c-0.794-7.764-2.257-15.429-3.397-23.144
					c-1.24-8.211-2.06-16.446-1.812-24.732c0.248-8.086,1.364-16.099,2.282-24.136c1.142-10.022,1.414-20.02,1.166-30.041
					c-0.646-0.297-1.29-0.595-1.91-0.917c0.272,7.342,0.299,14.66-0.298,21.978c-0.646,8.062-1.836,16.075-2.58,24.112
					c-0.744,7.863-0.817,15.702-0.073,23.565c0.743,7.839,2.157,15.604,3.374,23.393c1.215,7.789,2.033,15.603,2.083,23.491
					c0.05,8.087-0.646,16.147-1.142,24.211c-1.936,31.899,2.184,63.752,1.438,95.651c-0.248,10.741-1.142,21.482-3.001,32.101
					c-1.937,10.964-3.92,21.829-5.186,32.893c-2.48,21.482-3.102,43.14-3.126,64.744c0,1.241,1.91,0.993,1.91-0.223
					c0-16.322,0.396-32.646,1.637-48.942c1.24-16.224,3.723-32.199,6.648-48.199c4.589-25.104,3.25-50.777,2.034-76.229
					c1.91,13.173,4.465,26.221,4.837,39.565c0.447,15.753-0.992,31.479-1.215,47.206c-0.248,15.826,1.389,31.628,0.991,47.479
					c-0.247,9.302-0.495,18.778-1.712,28.006c-0.991,7.615-2.977,19.398-11.658,21.879c-1.19,0.349-0.446,2.134,0.743,1.786
					c8.436-2.431,11.016-12.75,12.354-20.292c1.762-9.872,1.812-20.093,2.158-30.09c0.596-17.19-1.266-34.308-0.894-51.474
					C729.873,592.942,731.312,576.372,730.493,559.776z"/>
				<path fill="#010101" d="M697.997,705.811c-0.57,1.563-1.39,3.673-3.25,3.994c-1.612,0.272-3.225-1.166-4.316-2.134
					c-3.225-2.877-5.557-6.945-7.541-10.716c-6.398-12.205-3.001-26.915-3.125-40.087c-0.148-15.729-4.191-31.032-6.475-46.512
					c-2.506-16.919-3.002-34.084-3.349-51.15c-0.323-17.141,0.073-34.629-2.084-51.671c-2.184-17.216-1.438-34.928,0.321-52.144
					c1.763-17.142,2.654-34.332,3.97-51.498c1.29-16.893,3.3-33.687,5.582-50.456c0.794-5.929,1.363-11.882,1.414-17.859
					c-0.671,0.472-1.341,0.941-2.011,1.414c0.074,1.662,0.101,3.299,0.101,4.961c0,2.828-0.199,5.656-0.571,8.435
					c-0.744,5.655-1.688,11.263-2.803,16.868c-0.124,1.066-0.272,2.133-0.372,3.2c-1.91,17.265-3.398,34.53-4.589,51.845
					c-1.191,17.166-3.15,34.282-3.944,51.448c-0.124,2.53-0.198,5.061-0.224,7.591c0.074,8.483,0.77,16.942,0.918,25.401
					c0.024,0,0.05,0,0.073-0.024c0.521,5.805,1.116,11.608,1.414,17.438c0.868,17.265,0.694,34.555,1.341,51.819
					c0.619,16.646,2.431,33.066,5.433,49.464c1.414,7.641,2.778,15.256,3.473,22.994c0.794,8.634-0.05,17.093-0.197,25.726
					c-0.101,6.127-0.322,13.37,1.909,19.175c1.414,3.646,3.398,7.12,5.558,10.345c3.001,4.465,9.896,12.305,14.237,4.837
					c0.349-0.62,0.597-1.29,0.845-1.96C700.205,705.389,698.443,704.62,697.997,705.811z"/>
				<path fill="#010101" d="M708.564,451.969c-1.887-17.438-4.59-34.58-4.218-52.167c0.372-16.693,2.48-33.29,4.291-49.886
					c0.794-7.293,1.464-14.586,1.936-21.879c-0.595-0.248-1.19-0.521-1.786-0.794c-1.116,16.472-3.398,32.844-4.936,49.266
					c-1.563,16.57-2.185,33.215-0.397,49.786c1.86,17.339,4.242,34.579,5.581,51.993c2.704,35.324,2.506,70.624-0.297,105.947
					c-0.844,10.566-1.937,21.086-3.052,31.628c-1.116,10.493-2.556,21.036-3.15,31.554c-0.57,9.799,1.092,19.572,2.282,29.271
					c0.596,5.034,1.042,10.07,1.066,15.132c0.024,4.242,0.396,8.558-0.396,12.7c-0.496,0.024-1.066,0.396-1.066,1.042v2.901
					c0,0.992,1.514,1.116,1.836,0.273c2.68-6.797,1.736-15.082,1.364-22.228c-0.422-8.385-1.886-16.67-2.729-25.028
					c-0.894-8.882-0.174-17.464,0.694-26.319c0.868-8.807,1.835-17.588,2.753-26.395c3.598-34.754,5.458-69.531,4.094-104.483
					C711.814,486.821,710.449,469.358,708.564,451.969z"/>
				<path fill="#010101" d="M698.394,611.002c-0.023-16.372-1.115-32.695-2.059-49.018c-0.968-16.299-1.19-32.57-1.662-48.894
					c-0.446-16-2.332-31.9-3.82-47.802c-1.464-15.752-2.951-31.95-1.363-47.752c1.487-14.71,6.177-28.899,7.765-43.609
					c0.794-7.417,0.496-14.958,0.322-22.375c-0.174-7.813-0.62-15.652-1.639-23.393c-0.073-0.473-0.122-0.942-0.197-1.438
					c-0.596,0.224-1.215,0.396-1.86,0.521c0.446,3.796,0.895,7.565,1.19,11.387c1.166,15.503,1.39,31.23-1.463,46.536
					c-2.681,14.388-6.375,28.279-6.55,42.989c-0.174,16,1.339,31.95,2.902,47.851c1.562,15.977,2.853,31.901,2.952,47.951
					c0.099,16.372,1.215,32.694,2.183,49.017c0.646,11.113,1.216,22.228,1.39,33.341c0.174,10.938-0.074,21.879-0.1,32.817
					c-0.05,21.333,0.967,42.567,5.209,63.528c0.248,1.216,2.158,0.992,1.91-0.223C697.352,672.224,698.443,641.637,698.394,611.002z
					"/>
				<path fill="#010101" d="M697.923,699.783c0,1.065-0.05,1.91-0.298,2.828c-5.979-3.548-7.641-11.783-8.509-18.158
					c-1.266-9.354-0.918-18.878-0.597-28.279c0.25-7.591,0.943-15.454-0.099-23.021c-1.662-12.105-5.979-23.565-6.227-35.87
					c-0.175-7.813,0.744-15.677,0.894-23.517c0.148-7.467,0.148-14.934,0.1-22.399c-0.1-16.148-0.818-32.272-1.538-48.372
					c-0.694-16.05-1.464-32.124-1.812-48.198c-0.174-8.187-0.023-16.348,0.372-24.533c0.372-7.366,1.612-14.512,3.274-21.681
					c1.637-7.07,3.447-14.065,4.341-21.284c0.918-7.367,0.992-14.908,0.817-22.325c-0.297-11.461-1.587-22.871-2.753-34.258
					l-1.836,1.315c0.818,7.963,1.688,15.925,2.232,23.913c1.042,15.429,0.396,30.536-3.102,45.594
					c-1.637,7.069-3.447,14.064-4.341,21.283c-0.941,7.467-0.918,15.156-0.968,22.673c-0.124,16,0.771,32.075,1.464,48.05
					c1.364,31.926,3.2,64,1.266,95.926c-0.396,6.449-0.298,12.727,0.77,19.126c0.992,6.027,2.629,11.956,3.895,17.936
					c1.786,8.385,1.812,16.422,1.538,24.955c-0.298,9.276-0.72,18.58-0.073,27.856c0.496,7.293,1.562,15.652,6.201,21.606
					c1.313,1.662,3.002,2.977,4.91,3.895c0.473,0.224,1.067-0.024,1.267-0.496c0.645-1.588,0.794-3.126,0.794-4.838
					C699.857,698.319,697.947,698.567,697.923,699.783z"/>
			</g>
			<g>
				<path fill="#FFFFFF" stroke="#010101" stroke-width="15.5611" stroke-miterlimit="10" d="M674.803,489.997
					c-0.297,0.223-53.531,19.2-63.651-35.424c-10.121-54.647,2.653-84.144,9.352-89.699c6.673-5.581,21.358-3.819,27.263,2.357
					c5.903,6.15,5.283,43.56,2.308,54.746c-2.977,11.188,1.611,18.928,11.882,24.212
					C672.224,451.448,699.957,472.261,674.803,489.997z"/>
				<path fill="#010101" d="M674.778,460.403c-20.888-2.978-37.482-23.665-34.282-44.875c1.464-9.699,5.433-18.902,7.367-28.502
					c1.638-8.111,2.06-17.29-3.745-23.913c-0.819-0.942-2.233,0.396-1.414,1.313c6.697,7.591,4.267,18.878,1.984,27.733
					c-2.309,9.005-6.302,18.158-6.524,27.56c-0.471,20.912,16,39.665,36.54,42.593C675.944,462.512,675.994,460.577,674.778,460.403
					z"/>
				<path fill="#010101" d="M676.291,467.597c-9.178-1.91-17.984-5.406-25.476-11.138c-7.766-5.929-13.173-14.338-15.876-23.69
					c-3.3-11.533-2.506-24.11,1.514-35.322c2.877-8.037,9.104-17.315,5.755-26.121c-0.446-1.166-2.134-0.225-1.688,0.918
					c1.837,4.86-0.173,10.418-1.935,15.008c-1.86,4.861-4.093,9.5-5.481,14.536c-3.075,11.039-2.827,23.145,0.77,34.009
					c6.201,18.704,23.268,29.769,41.848,33.638C676.912,469.705,677.507,467.845,676.291,467.597z"/>
				<path fill="#010101" d="M674.258,473.575c-4.838-0.67-9.725-1.018-14.512-2.06c-4.763-1.042-9.055-3.176-12.899-6.151
					c-8.831-6.871-15.504-16.074-18.878-26.741c-3.646-11.51-5.829-24.31-3.125-36.242c2.406-10.666,9.674-19.745,10.666-30.809
					c0.101-1.24-1.811-1.314-1.935-0.074c-0.521,5.805-2.927,11.188-5.284,16.446c-2.455,5.507-4.737,10.89-5.879,16.843
					c-2.257,11.833,0.496,25.154,4.391,36.366c3.622,10.442,10.543,18.928,19.053,25.822c8.211,6.674,18.307,7.146,28.327,8.51
					C675.398,475.659,675.473,473.749,674.258,473.575z"/>
				<path fill="#010101" d="M676.738,481.066c-10.319,2.703-21.036,1.96-30.537-3.125c-9.128-4.888-15.9-13.271-20.241-22.524
					c-5.83-12.403-7.219-26.468-6.276-39.987c0.521-7.517,1.812-14.958,3.35-22.301c1.39-6.723,3.3-13.396,4.366-20.168
					c0.197-1.24-1.736-1.29-1.936-0.074c-1.142,7.22-3.176,14.313-4.639,21.482c-1.464,7.243-2.605,14.536-3.126,21.903
					c-0.942,13.421,0.817,27.139,6.301,39.517c4.068,9.153,10.617,17.266,19.126,22.623c8.533,5.383,18.703,7.12,28.603,5.706
					c1.835-0.273,3.646-0.67,5.433-1.143C678.375,482.63,677.929,480.744,676.738,481.066z"/>
				<path fill="#010101" d="M660.664,487.343c-4.59-2.208-9.774-1.638-14.711-2.208c-5.481-0.645-10.617-3.919-14.412-7.789
					c-4.316-4.391-7.393-10.096-10.369-15.454c-3.125-5.655-5.879-11.585-7.516-17.859c-2.878-10.915-2.952-22.996-0.225-33.937
					c1.314-5.232,2.928-10.368,4.094-15.651c1.018-4.564,1.836-9.377,0.941-14.04c-0.223-1.217-2.107-0.794-1.885,0.445
					c0.942,4.986-0.224,10.245-1.39,15.082c-1.289,5.384-2.978,10.667-4.218,16.051c-2.529,10.914-1.836,23.169,1.166,33.909
					c1.736,6.178,4.614,12.031,7.716,17.638c2.927,5.309,6.053,10.69,10.245,15.132c3.571,3.771,8.013,6.301,12.924,7.864
					c5.357,1.711,11.386-0.025,16.546,2.454C660.738,489.525,661.78,487.889,660.664,487.343z"/>
			</g>
		</g>
		<path opacity="0.3" fill="#383938" enable-background="new    " d="M693.309,664.359c-4.515-12.402-17.687-131.696-8.459-152.731
			c9.254-21.036,5.979-46.363,5.979-46.363s0,0-8.608-14.536c-6.177-10.442,6.6-97.487-1.463-116.341
			c-1.189,0.845-2.382,1.712-3.597,2.556c0.074,1.661-6.475,12.503-8.013,19.746c-0.124,0.569-0.198,1.363-0.225,2.331
			c0.721,1.936,1.34,3.944,1.812,6.004c0.197,2.107,0.396,4.217,0.595,6.324c0.546,3.301,0.771,6.648,0.646,10.021
			c-0.1,2.184-0.322,4.366-0.694,6.5c-0.024,0.595-0.049,1.165-0.074,1.761c-0.099,1.936-0.198,3.87-0.521,5.755
			c-0.225,1.414-0.447,2.978-0.67,4.59c-0.051,4.094-0.273,8.21-0.671,12.278c-0.693,6.971-1.811,13.892-2.803,20.838
			c-0.447,3.026,1.612,12.552,1.018,18.308c-1.339,12.602,8.187,32.05-36.614,8.062c-6.945-3.722-13.32,10.195-9.872,19.102
			c3.448,8.905,30.188,14.71,37.185,14.659c6.995-0.073,4.539,6.747,4.539,6.747s5.209,165.532,6.178,183.146
			c0.968,17.612,6.399,34.479,21.109,32.445C704.796,713.526,697.823,676.763,693.309,664.359z"/>
		<path fill="#414042" d="M693.309,715.51c0,0,0.299-11.062,7.518-16.595c7.218-5.532,12.8-7.12,15.925-10.369
			c0,0-0.173,5.655-3.15,10.271c0,0-5.557,12.676-10.119,14.288c0,0,21.209-21.333,27.262-20.539s14.264-2.406,16.794-4.02
			c0,0-9.873,21.531-22.028,22.896C725.507,711.467,708.192,715.932,693.309,715.51z"/>
		<path fill="#414042" d="M659.646,708.589c0,0,17.289-5.779,29.072-0.023c11.782,5.755,7.367,6.522,7.367,6.522
			S670.114,718.388,659.646,708.589z"/>
	</g>
</g>
<g id="Layer_2">
	<g>
		<g>
			<path fill="#383938" d="M656.024,352.844c0,0-0.348-0.224-0.446-0.472c-0.074-0.198-0.148-1.116-0.124-1.836
				c0-0.148,0.024-0.272,0.024-0.396c0.05-0.496,0.298-1.39-0.422-1.438c-0.372-0.025-0.472,0.446-0.569,0.719
				c-0.05,0.149-0.075,0.348-0.124,0.57c-0.174,1.166-0.248,2.901,0.471,3.548c0.1,0.1,0.224,0.174,0.348,0.224
				c0.322,0.124,0.818,0.173,0.918-0.248c0.05-0.1,0.074-0.198,0.074-0.322C656.174,353.092,656.124,352.968,656.024,352.844z"/>
			<path fill="#383938" d="M655.182,353.811L655.182,353.811c-0.496-0.173-0.817-0.693-0.918-1.562c-0.1-0.818,0-1.762,0.074-2.258
				c0.025-0.124,0.05-0.248,0.074-0.348s0.05-0.197,0.075-0.298c0.073-0.224,0.147-0.445,0.321-0.596
				c0.198-0.173,0.521-0.099,0.67,0.124c0.272,0.397,0.124,0.894,0.074,1.315c-0.024,0.123-0.024,0.247-0.024,0.371
				c-0.024,0.694,0.05,1.612,0.124,1.812c0.074,0.224,0.422,0.446,0.422,0.446l0,0l0,0c0.1,0.1,0.148,0.224,0.174,0.348
				s0,0.248-0.05,0.396c-0.1,0.148-0.198,0.396-0.422,0.371C655.652,353.91,655.454,353.91,655.182,353.811z M656.074,353.514
				c0.05-0.125,0.074-0.224,0.05-0.322c-0.024-0.1-0.074-0.198-0.148-0.299c-0.05-0.023-0.372-0.248-0.446-0.495
				c-0.1-0.248-0.198-1.537-0.1-2.232c0.024-0.124,0.024-0.223,0.05-0.322c0.024-0.271,0.074-0.569-0.024-0.844
				c-0.074-0.173-0.298-0.272-0.473-0.223c-0.297,0.073-0.37,0.422-0.445,0.67c-0.05,0.173-0.074,0.347-0.124,0.569
				c-0.074,0.472-0.174,1.414-0.074,2.232c0.074,0.546,0.224,0.968,0.446,1.216c0.124,0.124,0.248,0.224,0.396,0.272
				c0.224,0.05,0.422,0.147,0.67,0.074C655.9,353.786,656,353.662,656.074,353.514z"/>
		</g>
		<g>
			<path fill="#383938" d="M655.206,350.412c0-0.148,0.025-0.297,0.074-0.446c0.024-0.124,0.075-0.248,0.124-0.372
				c0.124-0.271-0.1-0.546-0.074-0.817c0.148,0.298,0.273,0.645,0.124,0.941c-0.024,0.074-0.05,0.124-0.074,0.198
				c-0.023,0.1-0.05,0.174-0.05,0.273c-0.024,0.173-0.024,0.371-0.024,0.545c0,0.298,0.024,0.596,0.051,0.868
				c0.023,0.248,0.073,0.521,0.173,0.77c0.124,0.322,0.298,0.596,0.596,0.769c-0.023,0-0.023,0.025-0.023,0.051c0,0,0,0,0,0.024l0,0
				c-0.373-0.224-0.597-0.646-0.695-1.066c-0.074-0.248-0.1-0.521-0.124-0.77C655.182,351.058,655.182,350.735,655.206,350.412z"/>
		</g>
		<g>
			<path fill="#383938" d="M655.058,350.636c0-0.174,0-0.348,0-0.521c0-0.174,0.051-0.323,0.124-0.473
				c0.224-0.321-0.024-0.646-0.124-0.941c0-0.025,0.051-0.025,0.051-0.025c0.099,0.298,0.321,0.62,0.147,0.918
				c-0.074,0.148-0.124,0.298-0.124,0.473c-0.023,0.173,0,0.347,0,0.521c0,0.372-0.1,0.744-0.05,1.116
				c0.025,0.248,0.074,0.496,0.174,0.744c0.148,0.422,0.422,0.844,0.894,0.941c0.05,0,0.024,0.075,0,0.075
				c-0.124-0.024-0.248-0.075-0.348-0.148c-0.298-0.198-0.496-0.547-0.62-0.894c-0.073-0.248-0.148-0.496-0.174-0.744
				C654.982,351.355,655.058,350.983,655.058,350.636z"/>
		</g>
		<g>
			<path fill="#383938" d="M654.81,350.76c0.024-0.147,0.051-0.321,0.074-0.472c0.024-0.148,0.074-0.322,0.1-0.471
				c0.148-0.299,0-0.62,0.074-0.943c0.1,0.323,0.074,0.67-0.024,0.968c-0.05,0.174-0.1,0.349-0.124,0.521
				c-0.024,0.174-0.049,0.348-0.074,0.521c-0.024,0.174,0,0.372,0.025,0.546c0.023,0.174,0.023,0.348,0.023,0.521
				s-0.023,0.322,0.024,0.496c0.024,0.148,0.075,0.272,0.174,0.396c0.124,0.173,0.298,0.272,0.472,0.396
				c0.1,0.074,0.174,0.124,0.272,0.174c0.074,0.05,0.174,0.074,0.272,0.074c0.05,0,0.05,0.074,0,0.074
				c-0.124,0.024-0.224-0.024-0.322-0.074c-0.124-0.05-0.224-0.148-0.348-0.225c-0.1-0.073-0.198-0.147-0.298-0.223
				c-0.1-0.1-0.174-0.198-0.224-0.322c-0.148-0.298-0.1-0.596-0.1-0.918c0-0.197-0.024-0.372-0.05-0.546
				C654.784,351.082,654.784,350.934,654.81,350.76z"/>
		</g>
		<g>
			<path fill="#383938" d="M654.388,351.032c0.024-0.472,0-0.992,0.225-1.438l0,0c0-0.023,0-0.023,0-0.05
				c0.049-0.023,0.049-0.05,0.073-0.099c0.124-0.225,0.024-0.521,0.198-0.721c0.024-0.023,0.05,0,0.05,0.024
				c-0.148,0.298-0.05,0.62-0.272,0.844v0.024c-0.124,0.298-0.174,0.62-0.174,0.918c-0.024,0.323-0.024,0.67-0.024,0.992
				c0,0.372,0,0.77,0.1,1.115c0.074,0.273,0.224,0.521,0.396,0.721c0.1,0.124,0.224,0.197,0.372,0.271
				c0.148,0.075,0.298,0.101,0.446,0.101c-0.124-0.024-0.224-0.051-0.348-0.101c-0.1-0.049-0.224-0.124-0.298-0.197
				c-0.248-0.198-0.496-0.496-0.521-0.818c0-0.024,0.049-0.05,0.049,0c0.024,0.322,0.248,0.596,0.496,0.769
				c0.124,0.101,0.248,0.175,0.372,0.225c0.148,0.05,0.298,0.1,0.422,0.073c-0.124-0.05-0.224-0.099-0.348-0.147
				c-0.348-0.149-0.67-0.372-0.818-0.72c-0.074-0.124-0.1-0.272-0.124-0.422c-0.024-0.198,0-0.372-0.024-0.57
				c0-0.174-0.05-0.372-0.073-0.546c-0.025-0.173-0.025-0.348,0-0.521c0.023-0.321,0.099-0.646,0.197-0.941
				c0.024-0.101,0.05-0.199,0.074-0.298c0.05-0.198,0.074-0.397,0.1-0.597c0,0,0.05,0,0.05,0.025
				c-0.024,0.124-0.05,0.198-0.05,0.321c-0.024,0.1-0.05,0.198-0.074,0.322c-0.124,0.446-0.272,0.894-0.272,1.364
				c0,0.372,0.074,0.744,0.074,1.116c0,0.321,0.024,0.646,0.224,0.941c0.174,0.273,0.471,0.422,0.77,0.571
				c0.1,0.049,0.198,0.074,0.298,0.124c0,0.05,0.073,0.024,0.073,0.05c-0.147,0.123-0.371,0.123-0.546,0.049
				c-0.123-0.023-0.248-0.099-0.347-0.174c-0.224-0.147-0.396-0.372-0.521-0.595c-0.148-0.273-0.198-0.596-0.248-0.918
				C654.363,351.776,654.363,351.404,654.388,351.032z"/>
		</g>
		<g>
			<path fill="#383938" d="M657.538,354.604c-0.198-0.05-0.397-0.147-0.397-0.347c-0.023-0.521,0.447-0.794,0.819-1.042
				c0.074-0.075,0.148-0.174,0.198-0.272c0.05-0.1,0.1-0.248,0.1-0.396c0-0.124,0-0.322,0.024-0.57
				c0.023-0.619,0.023-1.488,0.073-1.688c0.051-0.248,0.322-0.471,0.547-0.471c0.05,0,0.1,0,0.147,0.023
				c0.025,0,0.025,0.024,0.05,0.024c0.124,0.05,0.299,0.1,0.397,0.521c0.099,0.473,0.124,1.34,0.023,2.629
				c0,0.175-0.05,0.323-0.099,0.496c-0.05,0.149-0.125,0.298-0.224,0.447c-0.273,0.471-0.818,0.744-1.341,0.719
				C657.762,354.654,657.637,354.63,657.538,354.604z"/>
		</g>
		<g>
			<path fill="#383938" d="M656.546,359.517c0,0,0.843,0.074,0.967-0.372c0.025-0.074,0.025-0.247,0.05-0.521
				c0-0.124,0.025-0.298,0.025-0.446c-0.224-1.513-0.298-2.977,0.1-4.515c0.05-0.148,0.024-0.298,0-0.446c0-0.148,0-0.272,0-0.396
				c0-0.224,0-0.348,0-0.348s-0.074-1.266-0.148-2.604c0-0.224,0-0.421,0-0.62c-0.074-1.066,0.446-2.753-0.744-3.249
				c-0.224-0.1-0.496,0.05-0.596,0.271c-0.446,1.042-0.248,2.185-0.272,3.301c0,0.173,0,0.347,0,0.546
				c-0.024,1.041-0.05,2.107-0.05,2.827c0,0.148,0,0.322,0,0.495c0,0.101,0,0.225,0,0.323c-0.224,1.339-0.496,2.703-0.023,4.043
				c0.049,0.148,0.023,0.298,0.023,0.446c0,0.198,0,0.372,0,0.496s0,0.174,0,0.174S655.852,359.517,656.546,359.517z"/>
			<path fill="#383938" d="M656.546,359.565L656.546,359.565c-0.248,0-0.422-0.074-0.546-0.198
				c-0.174-0.174-0.174-0.422-0.174-0.446c0,0,0-0.074,0-0.198c0-0.174,0.024-0.348-0.024-0.521c-0.248-1.438-0.396-2.803,0-4.217
				c0.05-0.175,0.024-0.372,0.024-0.57c0-0.174,0-0.348,0-0.496c0-0.72,0.024-1.762,0.05-2.804c0-0.198,0-0.372,0-0.545
				c0.024-1.093-0.174-2.282,0.272-3.324c0.123-0.322,0.546-0.446,0.844-0.248c1.018,0.744,0.521,2.158,0.596,3.2
				c0,0.198,0,0.396,0,0.62c0.074,1.313,0.148,2.604,0.148,2.629l0,0l0,0c0,0.024,0,0.124,0,0.272s0,0.348,0,0.57
				c0.05,0.893-0.322,1.761-0.349,2.679c-0.023,0.744,0.323,1.464,0.225,2.232c0,0.174-0.024,0.323-0.024,0.447
				c-0.025,0.247-0.025,0.421-0.05,0.495c-0.101,0.372-0.596,0.422-0.895,0.422C656.62,359.565,656.57,359.565,656.546,359.565z
				 M657.514,349.792c0-0.223,0-0.396,0-0.595c0.049-0.868,0.1-1.736-0.125-2.605c-0.049-0.271-0.271-0.496-0.569-0.545
				c-0.298-0.05-0.546,0.124-0.62,0.396c-0.298,1.018-0.224,2.084-0.224,3.126c0,0.173,0,0.347,0,0.545
				c-0.024,1.042-0.05,2.108-0.05,2.878c0,0.147,0,0.322,0,0.496c0.024,0.62-0.198,1.189-0.272,1.786
				c-0.124,0.991,0.124,1.935,0.272,2.927c0.05,0.199,0,0.396,0.024,0.571c0,0.124,0,0.173,0,0.173l0,0c0,0,0,0.224,0.148,0.372
				c0.1,0.1,0.272,0.174,0.472,0.174l0,0l0,0c0,0,0.05,0,0.124,0c0.224,0,0.72-0.024,0.794-0.347
				c0.024-0.075,0.024-0.248,0.05-0.496c0-0.124,0.023-0.273,0.023-0.447c0.025-0.198,0.025-0.396,0-0.595
				c-0.099-0.646-0.297-1.24-0.247-1.887c0.1-0.817,0.396-1.588,0.371-2.431c0-0.224,0-0.422,0-0.546c0-0.148,0-0.224,0-0.224
				C657.662,352.372,657.588,351.082,657.514,349.792z"/>
		</g>
		<g>
			<path fill="#383938" d="M655.702,355.87c0.074-0.868,0.72-1.638,0.496-2.506c0-0.024,0-0.05,0-0.074l0,0
				c-0.024,0-0.024,0-0.05-0.025v-0.023c0-0.024,0-0.024,0-0.05h0.024c-0.024-0.148-0.05-0.299-0.05-0.446
				c-0.024-0.198-0.024-0.396-0.024-0.596c0-0.396,0.024-0.818,0.024-1.216c0-0.1,0-0.198,0-0.298s0-0.198,0-0.298
				c0.1-1.364-0.224-2.828,0.298-4.143c0.024,0,0.05,0,0.05,0.023c-0.446,1.166-0.198,2.433-0.298,3.672c0,0.1,0,0.175,0,0.272
				c0,0.323,0,0.62,0,0.942c0,0.422-0.024,0.818-0.024,1.24c0,0.198,0,0.396,0.024,0.596c0,0.05,0,0.074,0,0.123
				c0-0.099,0-0.197,0.024-0.297c0.024-0.198,0.05-0.373,0.075-0.57c0.023-0.198,0.049-0.396,0.049-0.596
				c0-0.198-0.024-0.396-0.049-0.596c-0.025-0.198-0.025-0.396-0.025-0.596c0.025-0.868,0.147-1.688,0.074-2.556
				c-0.05-0.422,0-0.867,0.198-1.239c-0.198,0.794-0.148,1.588-0.125,2.405c0.025,0.198-0.049,0.396-0.073,0.596
				c-0.024,0.174-0.024,0.322-0.05,0.521c0,0.198-0.024,0.422,0,0.62s0.05,0.396,0.074,0.596c0.024,0.198,0.024,0.372,0,0.57
				s-0.05,0.372-0.074,0.57s-0.05,0.372-0.05,0.569c0,0.101,0,0.199,0,0.299s0,0.197,0.024,0.298
				c0.025,0.147,0.025,0.271-0.05,0.396c-0.446,1.267-0.496,2.654,0.224,3.87c0.074,0.148,0.05,0.298,0.05,0.446
				c0,0.124,0,0.272,0.024,0.396c0,0.124,0,0.272,0,0.396c0,0.023-0.05,0.023-0.05,0c0-0.148,0-0.298,0-0.446
				c0.024-0.248,0-0.472-0.074-0.67c-0.298-1.017-0.894-2.084-0.396-3.149c-0.546,1.041,0,2.157,0.124,3.25
				c0.024,0.147,0,0.297,0,0.445c0,0.124,0.024,0.224,0.024,0.348c0.025,0.198,0.074,0.472,0.298,0.546c0.024,0,0,0.05-0.025,0.05
				c-0.197-0.05-0.271-0.322-0.297-0.496c-0.024-0.124-0.024-0.248-0.05-0.372c0.05-0.818-0.271-1.588-0.372-2.406
				C655.678,356.118,655.678,355.994,655.702,355.87z"/>
		</g>
		<g>
			<path fill="#383938" d="M656.844,359.343c0.024,0.05,0.024,0.1,0.074,0.1s0.074-0.024,0.099-0.05
				c0.075-0.074,0.124-0.174,0.175-0.272c0.073-0.148,0.1-0.322,0.1-0.471c0-0.124-0.025-0.248-0.025-0.372
				c-0.049-0.323,0.075-0.646,0.025-0.992c-0.224-1.241,0.099-2.357,0.271-3.572c0.025-0.174,0-0.348,0-0.521
				c0-0.1-0.023-0.198-0.023-0.322c-0.025-0.322-0.05-0.62-0.074-0.942c-0.025-0.422-0.075-0.817-0.148-1.24
				c-0.024-0.174-0.051-0.348-0.024-0.495c0.298-1.364,0.198-2.704-0.248-4.02c0.372,1.018,0.62,2.083,0.396,3.175
				c-0.024,0.198-0.074,0.372-0.074,0.57c-0.024,0.199-0.024,0.422,0,0.62c0.023,0.199,0.05,0.396,0.074,0.596
				c0.05,0.422,0.073,0.844,0.124,1.266c0,0.1,0.024,0.198,0.024,0.322c0,0.1,0.024,0.198,0.024,0.322
				c0,0.298,0.05,0.62-0.024,0.918c-0.372,1.587-0.298,3.051-0.248,4.613c0,0.148,0,0.323-0.05,0.472
				c-0.025,0.1-0.074,0.174-0.124,0.248c-0.074,0.1-0.248,0.298-0.348,0.124c0-0.024-0.024-0.024-0.024-0.05
				C656.794,359.343,656.844,359.317,656.844,359.343z"/>
		</g>
		<g>
			<path fill="#383938" d="M658.58,351.206c0,0.198,0,0.372,0.023,0.57c0.025,0.174,0.025,0.322,0.025,0.496
				c0,0.322-0.05,0.646-0.174,0.918c-0.05,0.124-0.124,0.247-0.198,0.372c-0.124,0.174-0.272,0.371-0.496,0.371
				c0.198-0.124,0.446-0.271,0.521-0.495c0.074-0.148,0.147-0.299,0.198-0.446c0.05-0.148,0.073-0.298,0.1-0.473
				c0.023-0.347-0.025-0.693-0.05-1.017c0-0.174,0-0.372,0-0.546s0.023-0.347,0.073-0.521c0.025-0.1,0.025-0.174,0.051-0.272
				c0-0.024,0.05-0.024,0.05,0c-0.025,0.174-0.05,0.348-0.074,0.521C658.58,350.834,658.58,351.008,658.58,351.206z"/>
		</g>
		<g>
			<path fill="#383938" d="M657.588,354.48c0.57,0.123,1.141-0.272,1.438-0.72c0.023-0.075,0.05-0.148,0.073-0.224
				c0.051-0.174,0.124-0.322,0.149-0.496c0.024-0.174,0.049-0.348,0.049-0.521c0-0.371-0.023-0.743-0.023-1.115
				c0-0.198-0.024-0.396-0.074-0.57s-0.101-0.372-0.101-0.57c0-0.024,0.051-0.05,0.051,0c0,0.175,0.05,0.349,0.1,0.546
				c0.049,0.174,0.049,0.372,0.074,0.547c0.023,0.371,0.023,0.719,0.023,1.091c0,0.348-0.023,0.72-0.147,1.042
				c-0.05,0.147-0.074,0.271-0.174,0.422c-0.322,0.422-0.895,0.817-1.465,0.67C657.588,354.506,657.588,354.48,657.588,354.48z"/>
		</g>
		<g>
			<path fill="#383938" d="M656.372,357.185c-0.596-1.042-0.124-2.231,0.124-3.323c0.05-0.124,0.05-0.272,0.074-0.396
				c0-0.1,0.024-0.224,0.024-0.323c0.05-0.421,0.124-0.843,0.1-1.289c0-0.396-0.05-0.818-0.1-1.216c0-0.1-0.024-0.197-0.024-0.298
				c0-0.1-0.024-0.198-0.024-0.298c-0.024-0.372,0-0.744,0.024-1.141c0.124-0.942,0.124-1.836,0.198-2.778
				c0.074,1.166-0.125,2.307-0.198,3.473c-0.024,0.148,0,0.322,0.024,0.473c0,0.099,0.024,0.197,0.024,0.298
				c0.023,0.297,0.074,0.62,0.1,0.917c0.05,0.396,0.05,0.818,0,1.216c-0.024,0.224-0.05,0.422-0.075,0.645
				c0,0.101-0.023,0.225-0.023,0.323c-0.57,1.562-0.546,3.2,0.124,4.737c0.05,0.124-0.05,0.298-0.05,0.447
				c-0.024,0.123-0.024,0.247-0.024,0.371c0,0.1,0,0.198,0,0.322c0,0,0.024,0,0.024,0.024v0.075c0,0.023-0.024,0.023-0.05,0
				c-0.074-0.175-0.05-0.372-0.024-0.547c0-0.1,0.024-0.198,0.024-0.298c0.1-0.372,0-0.794-0.148-1.115
				C656.446,357.358,656.422,357.284,656.372,357.185z"/>
		</g>
		<g>
			<path fill="#383938" d="M656.72,359.269c0.049-0.174,0.074-0.371,0.074-0.546c0.05-0.197,0.05-0.396,0-0.569
				c-0.496-1.588-0.273-3.15,0.223-4.688c0.025-0.199,0.051-0.396,0.051-0.596s0-0.396,0-0.596c-0.024-0.372-0.148-0.72-0.198-1.066
				c-0.024-0.174,0-0.372,0-0.546c0-0.198,0.023-0.372,0.05-0.57c0.024-0.124,0.024-0.248,0.05-0.348
				c0.173-0.744-0.05-1.488-0.148-2.232c-0.024-0.174-0.074-0.347,0.05-0.496c0,0.943,0.372,1.836,0.147,2.778
				c-0.023,0.174-0.049,0.348-0.073,0.546c-0.024,0.372-0.024,0.771,0.024,1.142c0.074,0.348,0.148,0.694,0.148,1.042
				c0,0.198,0,0.396-0.024,0.596c-0.024,0.174-0.024,0.348-0.075,0.496c-0.445,1.438-0.693,2.901-0.197,4.391
				c0.073,0.224,0.05,0.446,0.024,0.67c-0.024,0.198-0.05,0.396-0.075,0.57C656.77,359.293,656.72,359.293,656.72,359.269z"/>
		</g>
		<g>
			<path fill="#383938" d="M656.844,359.193c0,0.024,0,0.05,0,0.074c0.148-0.1,0.198-0.298,0.198-0.446
				c0.024-0.124,0.024-0.224,0.024-0.348c0-0.248,0-0.495-0.024-0.72c-0.124-0.794-0.248-1.538-0.124-2.332
				c0.124-0.769,0.347-1.463,0.372-2.231c0-0.1,0-0.198,0-0.299c0-0.099,0-0.197,0-0.297c0-0.174-0.05-0.348-0.074-0.521
				c-0.05-0.174-0.075-0.348-0.1-0.521c-0.025-0.174-0.024-0.372-0.024-0.546c0-0.198,0.024-0.372,0.049-0.569
				c0.025-0.199,0.051-0.372,0.051-0.547c0.148-0.844-0.024-1.735,0-2.579c0.124,0.968,0.148,1.935,0,2.928
				c-0.024,0.198-0.051,0.372-0.051,0.569c-0.023,0.372,0,0.744,0.075,1.116c0.049,0.174,0.074,0.348,0.1,0.521
				c0.024,0.174,0.024,0.372,0.024,0.546c0,0.198,0,0.396-0.024,0.596c-0.472,1.562-0.423,3.2-0.198,4.787c0,0.124,0,0.224,0,0.348
				c0,0.175-0.05,0.372-0.148,0.521c-0.024,0.05-0.074,0.075-0.124,0.1h-0.024c-0.024-0.05-0.024-0.073-0.024-0.124
				C656.818,359.169,656.844,359.169,656.844,359.193z"/>
		</g>
		<g>
			<path fill="#383938" d="M657.637,354.282c0.497,0.074,1.067-0.225,1.29-0.694c0.05-0.1,0.075-0.199,0.124-0.298
				c0.124-0.521,0.025-1.116,0-1.638c-0.023-0.521,0.05-1.018,0.05-1.537c0-0.025,0.051-0.025,0.051,0
				c0,0.371-0.051,0.769-0.051,1.141c0,0.348,0.051,0.72,0.051,1.066c0.023,0.321,0.023,0.646-0.051,0.968
				c-0.023,0.099-0.05,0.198-0.099,0.298c-0.224,0.521-0.794,0.77-1.365,0.719C657.612,354.332,657.612,354.282,657.637,354.282z"/>
		</g>
		<g>
			<path fill="#383938" d="M657.637,354.158c0.447-0.024,0.819-0.298,1.042-0.67c0.05-0.148,0.124-0.298,0.175-0.446
				c0.1-0.348,0.024-0.744-0.024-1.092c-0.025-0.174-0.025-0.322-0.025-0.496c0-0.148,0-0.322,0-0.472
				c0-0.298,0.025-0.62,0.149-0.894c0-0.023,0.05,0,0.05,0.024c-0.124,0.298-0.149,0.62-0.149,0.942c0,0.348,0,0.67,0.051,1.018
				c0.023,0.348,0.1,0.693,0,1.018c-0.051,0.148-0.101,0.297-0.174,0.446c-0.224,0.396-0.646,0.67-1.093,0.693
				C657.612,354.208,657.612,354.158,657.637,354.158z"/>
		</g>
		<g>
			<path fill="#383938" d="M657.712,354.084c0.272-0.05,0.62-0.199,0.744-0.496c0.074-0.148,0.124-0.298,0.173-0.447
				c0.075-0.173,0.1-0.347,0.125-0.521c0.024-0.348,0-0.694-0.025-1.042c-0.023-0.372-0.023-0.719,0-1.092
				c0.025-0.173,0.051-0.322,0.074-0.496c0-0.024,0.05-0.024,0.05,0c-0.174,0.72-0.073,1.438-0.05,2.184
				c0.025,0.322,0,0.646-0.124,0.967c-0.05,0.149-0.099,0.299-0.173,0.447c-0.125,0.322-0.472,0.471-0.77,0.521
				C657.688,354.158,657.688,354.108,657.712,354.084z"/>
		</g>
		<g>
			<path fill="#383938" d="M657.662,353.637c0.174-0.049,0.322-0.147,0.446-0.271s0.148-0.272,0.224-0.422
				c0.023-0.024,0.049,0,0.049,0.024c-0.074,0.148-0.099,0.297-0.223,0.421c-0.124,0.125-0.298,0.225-0.473,0.298
				C657.662,353.688,657.637,353.662,657.662,353.637z"/>
		</g>
		<g>
			<path fill="#383938" d="M656.77,353.762c0.472,0.148,1.092,0,1.34-0.472c0.073-0.149,0.124-0.322,0.148-0.546
				c0.1-1.364-0.272-2.034-0.472-2.158c-0.174-0.124-0.521-0.05-0.67,0.124c-0.124,0.174-0.024,1.066,0.074,1.34
				c0.1,0.272,0,0.472-0.224,0.62c-0.1,0.05-0.224,0.174-0.348,0.322c-0.1,0.147-0.174,0.322-0.148,0.472
				C656.521,353.588,656.62,353.688,656.77,353.762z"/>
			<path fill="#383938" d="M656.744,353.811c-0.198-0.099-0.298-0.247-0.298-0.422c0-0.147,0.073-0.321,0.174-0.445
				c0.1-0.124,0.248-0.248,0.322-0.299c0.224-0.147,0.298-0.321,0.197-0.569c-0.099-0.248-0.223-1.19-0.073-1.39
				c0.1-0.124,0.298-0.198,0.472-0.198c0.099,0,0.174,0.024,0.248,0.074c0.198,0.124,0.595,0.844,0.472,2.207
				c0,0.149-0.05,0.299-0.075,0.423c-0.147,0.472-0.619,0.694-1.115,0.67C656.893,353.86,656.744,353.811,656.744,353.811z
				 M657.166,350.76c-0.1,0.148,0,1.018,0.099,1.29c0.101,0.272,0.025,0.496-0.248,0.67c-0.099,0.05-0.223,0.173-0.297,0.272
				c-0.1,0.124-0.174,0.248-0.174,0.372c0.099,0.396,0.546,0.446,0.894,0.372c0.272-0.074,0.546-0.198,0.646-0.496
				c0.074-0.124,0.124-0.298,0.124-0.521c0.05-0.744-0.025-1.239-0.124-1.538c-0.1-0.372-0.248-0.546-0.322-0.596
				c-0.05-0.023-0.125-0.05-0.198-0.05C657.414,350.586,657.24,350.66,657.166,350.76z"/>
		</g>
		<g>
			<path fill="#383938" d="M656.72,353.066c0.496-0.124,0.843-0.67,0.72-1.19c-0.051-0.224-0.175-0.446-0.248-0.67
				c-0.051-0.198-0.1-0.422,0.024-0.595c0.024-0.025,0.049,0,0.049,0.023c-0.147,0.198-0.049,0.473,0.025,0.67
				c0.074,0.224,0.198,0.422,0.223,0.646c0.075,0.496-0.297,1.018-0.769,1.142C656.694,353.116,656.67,353.066,656.72,353.066z"/>
		</g>
		<g>
			<path fill="#383938" d="M656.694,353.24c0.224-0.074,0.422-0.174,0.596-0.349c0.174-0.173,0.271-0.372,0.322-0.619
				c0.05-0.298,0-0.596-0.124-0.868c-0.101-0.198-0.272-0.396-0.198-0.62c0-0.024,0.05,0,0.05,0.024
				c-0.025,0.124,0.024,0.248,0.074,0.372s0.124,0.224,0.174,0.348c0.099,0.272,0.124,0.546,0.074,0.818
				c-0.101,0.472-0.496,0.793-0.942,0.917C656.67,353.29,656.67,353.265,656.694,353.24z"/>
		</g>
		<g>
			<path fill="#383938" d="M656.744,353.389c0.248-0.049,0.496-0.099,0.645-0.271c0.101-0.101,0.175-0.198,0.248-0.322
				c0.075-0.124,0.125-0.248,0.149-0.372c0.05-0.298,0.074-0.596-0.024-0.894c-0.074-0.248-0.298-0.446-0.348-0.72
				c0-0.024,0.05-0.024,0.05,0c0.024,0.148,0.099,0.272,0.173,0.396c0.075,0.124,0.149,0.248,0.199,0.396
				c0.074,0.272,0.05,0.62,0,0.894c-0.025,0.124-0.074,0.248-0.149,0.372c-0.073,0.124-0.147,0.224-0.247,0.322
				c-0.198,0.174-0.446,0.224-0.67,0.272C656.72,353.438,656.72,353.389,656.744,353.389z"/>
		</g>
		<g>
			<path fill="#383938" d="M656.72,353.562c0.372,0.024,0.793-0.074,1.018-0.423c0.073-0.099,0.124-0.223,0.174-0.347
				c0.1-0.322,0.1-0.67,0.05-0.992c-0.025-0.174-0.075-0.348-0.148-0.546c-0.05-0.147-0.125-0.322-0.148-0.472
				c0-0.024,0.05-0.024,0.05,0c0.049,0.174,0.124,0.348,0.173,0.521c0.05,0.175,0.101,0.348,0.124,0.521
				c0.05,0.322,0.05,0.67-0.049,0.968c-0.05,0.124-0.1,0.224-0.149,0.322c-0.223,0.348-0.67,0.546-1.065,0.472
				C656.67,353.612,656.67,353.562,656.72,353.562z"/>
		</g>
		<g>
			<path fill="#383938" d="M657.116,353.688c0.224-0.1,0.521-0.074,0.693-0.322c0.101-0.124,0.149-0.272,0.225-0.396
				c0.05-0.148,0.124-0.298,0.147-0.446c0.051-0.272,0-0.57-0.073-0.818c-0.051-0.124-0.1-0.248-0.148-0.372
				c-0.025-0.099-0.075-0.223-0.05-0.348c0-0.024,0.05-0.024,0.05,0c0,0.125,0.024,0.249,0.074,0.373s0.099,0.248,0.147,0.372
				c0.101,0.247,0.101,0.569,0.051,0.817c-0.024,0.148-0.074,0.298-0.148,0.446c-0.05,0.147-0.124,0.271-0.224,0.396
				c-0.175,0.175-0.446,0.273-0.721,0.323C657.116,353.736,657.092,353.688,657.116,353.688z"/>
		</g>
	</g>
	<g>
		<g>
			<path fill="#383938" d="M353.86,442.592c0,0-0.942-0.62-1.19-1.289c-0.199-0.57-0.422-3.025-0.372-4.912
				c0.024-0.372,0.049-0.72,0.074-1.042c0.149-1.363,0.769-3.771-1.116-3.868c-0.967-0.051-1.29,1.165-1.513,1.935
				c-0.124,0.422-0.223,0.918-0.298,1.513c-0.471,3.103-0.669,7.766,1.265,9.552c0.273,0.247,0.596,0.445,0.968,0.569
				c0.893,0.349,2.183,0.496,2.505-0.645c0.124-0.248,0.198-0.546,0.173-0.868C354.282,443.262,354.158,442.915,353.86,442.592z"/>
			<path fill="#383938" d="M351.603,445.197L351.603,445.197c-1.364-0.473-2.183-1.887-2.48-4.219c-0.298-2.231,0-4.736,0.198-6.053
				c0.05-0.347,0.099-0.669,0.174-0.967c0.074-0.298,0.124-0.571,0.198-0.819c0.199-0.595,0.397-1.189,0.868-1.611
				c0.571-0.472,1.439-0.248,1.786,0.298c0.72,1.065,0.347,2.406,0.174,3.521c-0.05,0.299-0.075,0.646-0.075,1.019
				c-0.074,1.859,0.174,4.314,0.348,4.86c0.223,0.62,1.141,1.217,1.141,1.217h0.025l0,0c0.272,0.271,0.421,0.596,0.471,0.918
				c0.049,0.321,0,0.693-0.174,1.042c-0.248,0.421-0.57,1.042-1.141,0.991C352.843,445.47,352.372,445.445,351.603,445.197z
				 M354.034,444.378c0.149-0.322,0.174-0.62,0.149-0.893c-0.05-0.272-0.174-0.546-0.397-0.794c-0.124-0.074-0.992-0.671-1.24-1.341
				c-0.248-0.693-0.546-4.116-0.298-6.003c0.05-0.298,0.074-0.62,0.124-0.893c0.074-0.771,0.223-1.538-0.025-2.258
				c-0.198-0.472-0.769-0.72-1.29-0.62c-0.819,0.198-0.968,1.116-1.191,1.812c-0.124,0.446-0.223,0.942-0.323,1.537
				c-0.198,1.29-0.471,3.796-0.198,5.979c0.198,1.487,0.595,2.58,1.216,3.273c0.322,0.349,0.669,0.597,1.091,0.744
				c0.595,0.101,1.166,0.422,1.786,0.224C353.538,445.122,353.835,444.8,354.034,444.378z"/>
		</g>
		<g>
			<path fill="#383938" d="M351.678,436.043c0.024-0.396,0.074-0.818,0.173-1.215c0.075-0.372,0.223-0.67,0.298-0.992
				c0.347-0.744-0.273-1.464-0.223-2.232c0.421,0.77,0.719,1.736,0.322,2.53c-0.05,0.173-0.124,0.348-0.174,0.545
				c-0.074,0.248-0.099,0.496-0.148,0.744c-0.075,0.496-0.1,0.992-0.1,1.489c0,0.793,0.05,1.587,0.124,2.355
				c0.075,0.694,0.199,1.39,0.447,2.06c0.297,0.844,0.818,1.612,1.587,2.084c-0.049,0.023-0.074,0.074-0.074,0.124
				c0,0.023,0,0.023,0,0.049l0,0c-1.017-0.62-1.588-1.736-1.885-2.877c-0.174-0.67-0.248-1.364-0.323-2.084
				C351.653,437.755,351.603,436.887,351.678,436.043z"/>
		</g>
		<g>
			<path fill="#383938" d="M351.306,436.639c0.024-0.472-0.025-0.941,0-1.414c0.024-0.445,0.124-0.867,0.297-1.239
				c0.571-0.845-0.049-1.712-0.297-2.53c0-0.05,0.099-0.05,0.148-0.05c0.248,0.818,0.868,1.638,0.397,2.48
				c-0.173,0.396-0.297,0.793-0.347,1.266c-0.05,0.472,0,0.918,0,1.389c-0.025,0.993-0.248,1.985-0.149,2.978
				c0.075,0.67,0.223,1.364,0.447,2.01c0.396,1.115,1.141,2.281,2.381,2.556c0.124,0.024,0.099,0.223-0.025,0.198
				c-0.347-0.074-0.645-0.198-0.893-0.397c-0.794-0.521-1.315-1.463-1.637-2.381c-0.223-0.646-0.372-1.313-0.446-1.96
				C351.058,438.573,351.256,437.606,351.306,436.639z"/>
		</g>
		<g>
			<path fill="#383938" d="M350.586,436.961c0.05-0.422,0.099-0.868,0.174-1.29c0.074-0.421,0.174-0.843,0.298-1.265
				c0.372-0.818,0.024-1.688,0.223-2.506c0.248,0.867,0.198,1.785-0.075,2.63c-0.148,0.445-0.248,0.918-0.322,1.389
				c-0.074,0.472-0.124,0.943-0.174,1.414c-0.049,0.496,0.025,0.992,0.075,1.488c0.049,0.472,0.074,0.942,0.049,1.438
				c-0.024,0.446-0.049,0.894,0.05,1.339c0.074,0.372,0.223,0.721,0.446,1.042c0.323,0.446,0.819,0.744,1.265,1.067
				c0.248,0.173,0.496,0.347,0.769,0.496c0.223,0.124,0.496,0.223,0.744,0.198c0.124-0.025,0.149,0.174,0.025,0.197
				c-0.298,0.051-0.62-0.073-0.893-0.224c-0.322-0.173-0.62-0.372-0.918-0.595c-0.272-0.198-0.57-0.397-0.818-0.62
				c-0.273-0.248-0.471-0.546-0.62-0.868c-0.372-0.794-0.248-1.638-0.248-2.456c0-0.496-0.075-0.992-0.149-1.488
				C350.512,437.879,350.537,437.433,350.586,436.961z"/>
		</g>
		<g>
			<path fill="#383938" d="M349.47,437.73c0.05-1.29,0.025-2.681,0.57-3.896c0,0,0,0,0-0.025c-0.024-0.023-0.024-0.073,0.025-0.124
				c0.1-0.049,0.149-0.173,0.199-0.271c0.297-0.62,0.049-1.39,0.521-1.935c0.049-0.051,0.148,0,0.148,0.049
				c-0.421,0.77-0.148,1.638-0.744,2.282c0.025,0.024,0.025,0.05,0,0.073c-0.347,0.771-0.446,1.639-0.496,2.481
				c-0.049,0.893-0.074,1.786-0.099,2.679c0,1.019,0.025,2.06,0.298,3.026c0.198,0.72,0.595,1.39,1.091,1.935
				c0.298,0.298,0.62,0.571,0.992,0.744c0.372,0.174,0.769,0.298,1.191,0.298c-0.323-0.05-0.62-0.147-0.918-0.298
				c-0.298-0.148-0.57-0.322-0.818-0.496c-0.695-0.521-1.34-1.289-1.414-2.207c0-0.075,0.124-0.1,0.124-0.024
				c0.049,0.867,0.669,1.588,1.314,2.084c0.298,0.224,0.645,0.445,1.017,0.596c0.372,0.147,0.769,0.248,1.166,0.223
				c-0.298-0.124-0.62-0.248-0.918-0.396c-0.917-0.422-1.761-0.992-2.208-1.937c-0.174-0.347-0.273-0.744-0.323-1.116
				c-0.074-0.521-0.025-1.04-0.049-1.536c-0.025-0.497-0.124-0.993-0.174-1.489c-0.05-0.471-0.05-0.942-0.025-1.413
				c0.075-0.868,0.298-1.712,0.521-2.53c0.074-0.272,0.149-0.546,0.223-0.818c0.149-0.521,0.199-1.042,0.248-1.612
				c0,0,0.149,0,0.149,0.05c-0.049,0.298-0.099,0.57-0.124,0.844c-0.049,0.272-0.099,0.546-0.174,0.868
				c-0.347,1.215-0.719,2.406-0.744,3.671c-0.024,0.992,0.224,1.984,0.224,2.978c0,0.894,0.099,1.762,0.595,2.506
				c0.496,0.72,1.265,1.141,2.059,1.513c0.272,0.124,0.521,0.225,0.793,0.323c-0.025,0.147,0.199,0.074,0.199,0.147
				c-0.422,0.299-0.968,0.349-1.439,0.175c-0.347-0.101-0.669-0.248-0.967-0.446c-0.595-0.397-1.092-0.968-1.414-1.613
				c-0.422-0.769-0.546-1.611-0.645-2.455C349.42,439.689,349.445,438.697,349.47,437.73z"/>
		</g>
		<g>
			<path fill="#383938" d="M357.929,447.306c-0.521-0.148-1.042-0.396-1.091-0.968c-0.05-1.389,1.24-2.158,2.232-2.778
				c0.198-0.197,0.397-0.445,0.57-0.743c0.149-0.299,0.273-0.67,0.273-1.093c0-0.321,0.025-0.893,0.05-1.538
				c0.049-1.687,0.099-4.019,0.173-4.515c0.124-0.669,0.844-1.289,1.489-1.289c0.124,0,0.248,0.024,0.372,0.074
				c0.049,0.024,0.099,0.024,0.148,0.05c0.348,0.124,0.794,0.272,1.067,1.438c0.298,1.29,0.322,3.597,0.074,7.068
				c-0.024,0.447-0.124,0.895-0.248,1.315c-0.149,0.421-0.322,0.817-0.57,1.189c-0.744,1.266-2.183,1.984-3.622,1.96
				C358.524,447.454,358.227,447.38,357.929,447.306z"/>
		</g>
		<g>
			<path fill="#383938" d="M355.324,460.527c0,0,2.282,0.197,2.604-1.019c0.05-0.173,0.099-0.67,0.124-1.364
				c0.025-0.347,0.05-0.769,0.05-1.215c-0.596-4.044-0.794-8.038,0.272-12.131c0.1-0.396,0.05-0.817,0.025-1.216
				c0-0.396,0-0.769,0.025-1.066c0-0.595,0-0.918,0-0.918s-0.198-3.423-0.397-6.995c-0.025-0.595-0.025-1.141,0-1.687
				c-0.173-2.853,1.215-7.393-2.009-8.732c-0.62-0.248-1.339,0.149-1.587,0.721c-1.241,2.804-0.67,5.879-0.769,8.881
				c0,0.472,0,0.941,0,1.464c-0.075,2.778-0.124,5.631-0.124,7.615c0,0.396,0,0.844,0,1.313c-0.025,0.298,0,0.57,0,0.845
				c-0.596,3.597-1.29,7.242-0.075,10.864c0.1,0.396,0.05,0.77,0.05,1.19c0,0.57,0,1.017,0,1.34c0,0.322,0,0.496,0,0.496
				S353.439,460.552,355.324,460.527z"/>
			<path fill="#383938" d="M355.299,460.651L355.299,460.651c-0.645,0-1.141-0.175-1.464-0.521
				c-0.471-0.496-0.446-1.141-0.446-1.189c0-0.024,0-0.225,0-0.57c0-0.472,0.05-0.942-0.05-1.39c-0.669-3.846-1.066-7.517,0-11.312
				c0.149-0.471,0.05-0.967,0.05-1.513c0-0.473,0-0.918,0-1.315c0-1.935,0.05-4.763,0.124-7.541c0-0.521,0-1.017,0-1.488
				c0.074-2.95-0.496-6.127,0.744-8.93c0.347-0.868,1.488-1.24,2.257-0.67c2.753,1.984,1.439,5.779,1.637,8.633
				c-0.025,0.545-0.025,1.091,0,1.688c0.199,3.547,0.397,6.995,0.397,7.045l0,0l0,0c0,0.074,0,0.322,0,0.72
				c0,0.396,0,0.918-0.025,1.538c0.099,2.431-0.868,4.737-0.917,7.193c-0.05,1.983,0.868,3.943,0.62,5.979
				c-0.025,0.446-0.05,0.843-0.05,1.19c-0.05,0.693-0.074,1.166-0.124,1.34c-0.248,0.967-1.612,1.116-2.381,1.116
				C355.473,460.676,355.324,460.651,355.299,460.651z M357.904,434.356c-0.025-0.57,0-1.093,0.025-1.638
				c0.149-2.355,0.248-4.664-0.372-7.021c-0.149-0.721-0.719-1.34-1.538-1.488c-0.769-0.1-1.488,0.348-1.637,1.066
				c-0.769,2.754-0.62,5.582-0.595,8.385c0,0.472,0,0.941,0,1.438c-0.075,2.778-0.124,5.656-0.124,7.716c0,0.396,0,0.844,0,1.313
				c0.049,1.638-0.571,3.176-0.769,4.812c-0.298,2.653,0.297,5.21,0.719,7.889c0.099,0.57,0,1.065,0.05,1.562
				c0,0.323,0,0.496,0,0.496l0,0c0,0-0.025,0.597,0.372,1.019c0.273,0.298,0.694,0.445,1.265,0.445h0.025l0,0c0,0,0.124,0,0.322,0
				c0.57,0,1.935-0.1,2.158-0.941c0.05-0.174,0.074-0.646,0.124-1.34c0.025-0.349,0.05-0.744,0.05-1.19
				c0.049-0.521,0.049-1.092,0-1.612c-0.248-1.735-0.819-3.323-0.67-5.061c0.248-2.208,1.066-4.292,0.967-6.549
				c0-0.62,0.025-1.143,0.025-1.488c0-0.372,0-0.596,0-0.62C358.276,441.303,358.078,437.854,357.904,434.356z"/>
		</g>
		<g>
			<path fill="#383938" d="M352.992,450.729c0.223-2.331,1.91-4.364,1.364-6.746c0-0.051-0.024-0.124-0.024-0.175h-0.025
				c-0.025-0.023-0.075-0.023-0.099-0.05c0-0.023,0.024-0.049,0.024-0.074c0-0.05,0-0.073,0-0.124c0.025,0,0.05,0.025,0.075,0.025
				c-0.05-0.397-0.099-0.819-0.124-1.216c-0.025-0.521-0.05-1.042-0.05-1.588c0-1.092,0.05-2.184,0.05-3.249
				c0-0.273,0-0.546,0-0.819c0-0.271,0-0.546,0-0.818c0.297-3.695-0.571-7.591,0.793-11.162c0.05,0,0.149,0,0.149,0.05
				c-1.215,3.126-0.57,6.549-0.818,9.823c0,0.247,0,0.495,0,0.743c-0.025,0.845-0.025,1.688-0.025,2.507
				c-0.025,1.115-0.074,2.206-0.05,3.323c0,0.545,0.025,1.066,0.075,1.612c0,0.099,0.025,0.198,0.025,0.322
				c0-0.273,0.024-0.521,0.049-0.794c0.05-0.521,0.149-1.018,0.223-1.514c0.075-0.546,0.149-1.092,0.124-1.638
				c-0.024-0.521-0.099-1.066-0.148-1.588c-0.05-0.521-0.075-1.042-0.075-1.587c0.075-2.332,0.422-4.516,0.174-6.872
				c-0.099-1.116,0-2.308,0.57-3.323c-0.57,2.158-0.397,4.291-0.297,6.499c0.049,0.57-0.1,1.066-0.174,1.612
				c-0.05,0.445-0.099,0.868-0.124,1.414c-0.025,0.546-0.025,1.115,0,1.662c0.05,0.521,0.124,1.065,0.174,1.587
				c0.049,0.521,0.049,1.042,0,1.562c-0.05,0.521-0.149,1.018-0.224,1.538c-0.074,0.521-0.124,1.017-0.148,1.537
				c0,0.272,0,0.521,0.024,0.794c0,0.273,0.025,0.521,0.05,0.794c0.05,0.372,0.05,0.744-0.124,1.092
				c-1.24,3.423-1.34,7.119,0.62,10.395c0.198,0.422,0.099,0.817,0.124,1.216c0.025,0.347,0.025,0.719,0.05,1.066
				c0.024,0.348,0,0.72,0,1.065c0,0.075-0.124,0.075-0.124-0.023c0-0.396,0-0.794-0.025-1.217c0.074-0.645-0.025-1.239-0.223-1.811
				c-0.819-2.754-2.406-5.631-1.067-8.483c-1.488,2.804,0,5.779,0.347,8.707c0.05,0.421,0,0.77,0,1.165
				c0.025,0.298,0.05,0.62,0.075,0.918c0.074,0.496,0.198,1.267,0.769,1.439c0.074,0.023,0.024,0.147-0.05,0.124
				c-0.546-0.149-0.719-0.844-0.818-1.34c-0.05-0.322-0.1-0.646-0.1-0.992c0.124-2.185-0.769-4.292-1.017-6.45
				C352.967,451.349,352.967,451.051,352.992,450.729z"/>
		</g>
		<g>
			<path fill="#383938" d="M356.118,460.056c0.05,0.101,0.099,0.248,0.223,0.273c0.1,0.023,0.224-0.075,0.273-0.149
				c0.224-0.197,0.372-0.445,0.496-0.693c0.199-0.397,0.249-0.845,0.249-1.29c0-0.349-0.05-0.67-0.075-0.992
				c-0.149-0.868,0.223-1.736,0.075-2.654c-0.621-3.324,0.248-6.351,0.719-9.575c0.049-0.472,0-0.918,0-1.389
				c-0.025-0.273-0.05-0.571-0.075-0.844c-0.074-0.844-0.124-1.688-0.173-2.557c-0.075-1.115-0.223-2.207-0.372-3.322
				c-0.05-0.447-0.099-0.918-0.099-1.364c0.818-3.646,0.521-7.269-0.67-10.791c0.967,2.704,1.687,5.631,1.091,8.509
				c-0.074,0.496-0.173,0.967-0.223,1.514c-0.05,0.569-0.074,1.115-0.025,1.688c0.05,0.521,0.149,1.041,0.199,1.587
				c0.124,1.143,0.223,2.282,0.297,3.424c0.025,0.272,0.05,0.57,0.075,0.844c0.024,0.272,0.049,0.57,0.074,0.844
				c0,0.794,0.149,1.662-0.05,2.479c-1.017,4.242-0.769,8.188-0.645,12.403c0,0.396,0.024,0.868-0.124,1.265
				c-0.1,0.248-0.224,0.473-0.373,0.67c-0.198,0.299-0.645,0.818-0.942,0.322c-0.025-0.049-0.05-0.074-0.05-0.124
				C355.969,460.031,356.068,459.981,356.118,460.056z"/>
		</g>
		<g>
			<path fill="#383938" d="M360.757,438.177c-0.025,0.496,0,0.992,0.049,1.514c0.05,0.446,0.075,0.868,0.075,1.314
				c0,0.843-0.124,1.712-0.447,2.505c-0.149,0.349-0.347,0.67-0.546,0.968c-0.322,0.473-0.719,0.969-1.339,0.969
				c0.57-0.349,1.166-0.721,1.414-1.315c0.223-0.372,0.397-0.769,0.546-1.189c0.124-0.396,0.198-0.845,0.248-1.266
				c0.074-0.918-0.075-1.836-0.1-2.777c0-0.496,0.025-0.969,0.025-1.465c0-0.472,0.099-0.941,0.174-1.414
				c0.049-0.248,0.074-0.495,0.099-0.743c0-0.074,0.124-0.074,0.124,0.023c-0.05,0.472-0.149,0.943-0.223,1.414
				C360.757,437.185,360.781,437.681,360.757,438.177z"/>
		</g>
		<g>
			<path fill="#383938" d="M358.103,446.958c1.562,0.298,3.026-0.72,3.895-1.96c0.099-0.198,0.148-0.396,0.223-0.595
				c0.149-0.446,0.322-0.868,0.397-1.364c0.074-0.472,0.099-0.943,0.099-1.439c0-1.017-0.05-2.009-0.075-3.025
				c-0.024-0.521-0.049-1.041-0.173-1.562c-0.099-0.496-0.223-0.992-0.273-1.513c0-0.075,0.124-0.1,0.124-0.025
				c0.025,0.496,0.149,0.969,0.248,1.439c0.099,0.496,0.149,0.992,0.174,1.488c0.049,0.991,0.074,1.959,0.099,2.95
				c0,0.918-0.05,1.91-0.422,2.778c-0.149,0.372-0.223,0.771-0.471,1.116c-0.893,1.166-2.381,2.184-3.895,1.812
				C358.078,447.032,358.103,447.008,358.103,446.958z"/>
		</g>
		<g>
			<path fill="#383938" d="M354.828,454.227c-1.637-2.827-0.348-6.003,0.322-8.954c0.099-0.349,0.149-0.721,0.174-1.066
				c0.024-0.273,0.049-0.571,0.099-0.844c0.124-1.143,0.297-2.282,0.273-3.448c-0.025-1.092-0.174-2.183-0.273-3.274
				c-0.025-0.271-0.05-0.546-0.075-0.817c-0.024-0.273-0.049-0.546-0.049-0.794c-0.075-1.018-0.025-2.034,0.074-3.052
				c0.298-2.506,0.347-4.962,0.571-7.467c0.198,3.125-0.348,6.201-0.571,9.303c-0.049,0.422,0,0.867,0.05,1.289
				c0.025,0.273,0.049,0.547,0.074,0.818c0.075,0.819,0.174,1.638,0.273,2.481c0.099,1.091,0.149,2.183,0.025,3.273
				c-0.05,0.57-0.124,1.142-0.199,1.711c-0.024,0.273-0.074,0.571-0.099,0.845c-1.538,4.217-1.488,8.582,0.298,12.726
				c0.149,0.348-0.099,0.818-0.099,1.216c-0.05,0.322-0.075,0.669-0.075,0.992c0,0.271-0.025,0.57,0.025,0.843
				c0.025,0,0.074,0.025,0.074,0.075v0.198c0,0.073-0.099,0.073-0.124,0.023c-0.173-0.445-0.124-0.992-0.099-1.464
				c0.025-0.271,0.05-0.545,0.075-0.817c0.272-1.018,0-2.108-0.422-3.026C355.051,454.723,354.927,454.499,354.828,454.227z"/>
		</g>
		<g>
			<path fill="#383938" d="M355.746,459.833c0.099-0.497,0.174-0.993,0.223-1.489c0.149-0.545,0.149-1.041,0-1.513
				c-1.339-4.242-0.719-8.483,0.596-12.603c0.049-0.521,0.099-1.041,0.124-1.562s0.025-1.042-0.025-1.563
				c-0.099-0.967-0.397-1.909-0.521-2.877c-0.05-0.495-0.025-0.991-0.025-1.464c0-0.521,0.05-1.042,0.1-1.538
				c0.049-0.347,0.099-0.645,0.148-0.941c0.497-1.984-0.124-3.969-0.372-5.979c-0.049-0.472-0.198-0.918,0.1-1.34
				c0,2.506,1.017,4.962,0.372,7.467c-0.075,0.473-0.149,0.969-0.199,1.488c-0.074,1.019-0.099,2.061,0.099,3.076
				c0.174,0.942,0.422,1.86,0.422,2.828c0,0.521-0.025,1.042-0.049,1.588c-0.05,0.471-0.05,0.942-0.199,1.339
				c-1.166,3.895-1.885,7.839-0.521,11.783c0.199,0.62,0.099,1.24,0.05,1.811c-0.05,0.521-0.124,1.042-0.223,1.563
				C355.87,459.932,355.721,459.932,355.746,459.833z"/>
		</g>
		<g>
			<path fill="#383938" d="M356.118,459.659c0,0.074,0,0.124,0.025,0.198c0.397-0.225,0.496-0.771,0.571-1.19
				c0.049-0.298,0.049-0.62,0.049-0.918c-0.025-0.646-0.025-1.29-0.074-1.91c-0.298-2.158-0.67-4.143-0.348-6.301
				c0.298-2.06,0.918-3.944,0.993-5.979c0-0.271,0-0.546,0-0.817c0-0.273-0.025-0.546-0.025-0.818
				c-0.025-0.496-0.099-0.942-0.223-1.438c-0.1-0.472-0.224-0.918-0.298-1.39c-0.05-0.496-0.074-0.992-0.05-1.464
				c0.025-0.521,0.05-1.017,0.1-1.538c0.049-0.496,0.099-1.017,0.173-1.487c0.397-2.282-0.049-4.64,0-6.945
				c0.348,2.604,0.422,5.209,0.025,7.839c-0.05,0.496-0.099,1.017-0.149,1.513c-0.074,1.019-0.025,2.011,0.199,3.002
				c0.099,0.472,0.223,0.918,0.297,1.414c0.05,0.496,0.05,0.992,0.075,1.488c0,0.521,0,1.066-0.05,1.587
				c-1.265,4.242-1.116,8.583-0.521,12.899c0,0.298,0,0.62-0.025,0.918c-0.024,0.472-0.099,1.042-0.396,1.414
				c-0.075,0.099-0.199,0.197-0.323,0.248c-0.025,0.023-0.074,0-0.074-0.024c-0.05-0.1-0.05-0.199-0.05-0.323
				C355.994,459.56,356.118,459.584,356.118,459.659z"/>
		</g>
		<g>
			<path fill="#383938" d="M358.227,446.462c1.364,0.198,2.853-0.62,3.498-1.885c0.124-0.273,0.223-0.546,0.297-0.819
				c0.372-1.414,0.075-2.977,0-4.415c-0.074-1.364,0.124-2.729,0.124-4.093c0-0.075,0.124-0.075,0.124,0.024
				c0,1.042-0.124,2.059-0.148,3.075c-0.025,0.968,0.099,1.91,0.173,2.877c0.05,0.845,0.05,1.763-0.149,2.58
				c-0.074,0.273-0.173,0.546-0.297,0.794c-0.62,1.364-2.158,2.034-3.646,1.96C358.127,446.586,358.152,446.462,358.227,446.462z"/>
		</g>
		<g>
			<path fill="#383938" d="M358.251,446.115c1.191-0.075,2.233-0.794,2.828-1.812c0.149-0.396,0.322-0.769,0.446-1.166
				c0.273-0.941,0.05-1.959-0.024-2.927c-0.025-0.446-0.05-0.894-0.05-1.34c-0.025-0.422-0.025-0.868-0.025-1.29
				c0-0.818,0.099-1.662,0.397-2.431c0.025-0.074,0.149-0.024,0.124,0.05c-0.347,0.794-0.397,1.687-0.397,2.555
				c0,0.895,0.025,1.836,0.099,2.729c0.1,0.918,0.248,1.836-0.024,2.729c-0.124,0.396-0.298,0.793-0.447,1.165
				c-0.595,1.092-1.711,1.786-2.952,1.836C358.127,446.238,358.152,446.115,358.251,446.115z"/>
		</g>
		<g>
			<path fill="#383938" d="M358.4,445.941c0.744-0.124,1.662-0.521,1.984-1.315c0.174-0.396,0.298-0.818,0.472-1.215
				c0.173-0.447,0.273-0.895,0.322-1.364c0.099-0.918-0.025-1.861-0.099-2.778c-0.074-0.968-0.099-1.96,0-2.928
				c0.05-0.446,0.124-0.893,0.223-1.313c0.025-0.074,0.149-0.074,0.124,0.023c-0.496,1.937-0.198,3.896-0.124,5.83
				c0.05,0.894-0.025,1.761-0.347,2.604c-0.149,0.396-0.298,0.817-0.471,1.216c-0.323,0.843-1.241,1.24-2.059,1.364
				C358.351,446.09,358.301,445.966,358.4,445.941z"/>
		</g>
		<g>
			<path fill="#383938" d="M358.301,444.726c0.446-0.174,0.843-0.396,1.19-0.72c0.323-0.297,0.373-0.744,0.596-1.116
				c0.049-0.073,0.149-0.023,0.124,0.051c-0.199,0.372-0.273,0.817-0.571,1.115c-0.347,0.349-0.793,0.62-1.265,0.794
				C358.276,444.874,358.227,444.75,358.301,444.726z"/>
		</g>
		<g>
			<path fill="#383938" d="M355.87,445.073c1.265,0.396,2.902-0.025,3.597-1.24c0.198-0.372,0.347-0.869,0.397-1.464
				c0.272-3.646-0.769-5.482-1.241-5.805c-0.471-0.322-1.414-0.101-1.761,0.348c-0.347,0.446-0.049,2.877,0.224,3.597
				c0.273,0.719,0.024,1.24-0.62,1.662c-0.249,0.148-0.621,0.471-0.918,0.868c-0.298,0.396-0.496,0.843-0.372,1.29
				C355.25,444.602,355.448,444.85,355.87,445.073z"/>
			<path fill="#383938" d="M355.795,445.172c-0.521-0.271-0.769-0.645-0.794-1.091c-0.025-0.422,0.199-0.844,0.496-1.216
				c0.298-0.349,0.645-0.646,0.893-0.818c0.62-0.422,0.794-0.894,0.571-1.514c-0.273-0.694-0.621-3.2-0.224-3.722
				c0.248-0.321,0.769-0.546,1.29-0.546c0.248,0,0.496,0.051,0.645,0.175c0.546,0.372,1.587,2.281,1.29,5.929
				c-0.025,0.422-0.124,0.794-0.224,1.116c-0.396,1.265-1.688,1.885-2.977,1.811C356.242,445.296,355.845,445.197,355.795,445.172z
				 M356.937,436.986c-0.298,0.372-0.025,2.729,0.248,3.473s0.05,1.34-0.645,1.811c-0.248,0.175-0.571,0.447-0.843,0.771
				c-0.248,0.322-0.447,0.694-0.447,1.042c0.298,1.091,1.464,1.189,2.406,0.992c0.719-0.199,1.439-0.571,1.712-1.34
				c0.173-0.372,0.297-0.818,0.347-1.391c0.149-1.959-0.099-3.323-0.323-4.117c-0.297-0.991-0.669-1.464-0.843-1.588
				c-0.124-0.074-0.298-0.124-0.521-0.124C357.582,436.539,357.135,436.713,356.937,436.986z"/>
		</g>
		<g>
			<path fill="#383938" d="M355.721,443.188c1.34-0.348,2.282-1.811,1.935-3.175c-0.173-0.62-0.496-1.19-0.694-1.812
				c-0.174-0.521-0.248-1.116,0.074-1.587c0.05-0.075,0.149,0,0.099,0.073c-0.397,0.547-0.149,1.266,0.075,1.837
				c0.223,0.569,0.545,1.141,0.62,1.761c0.173,1.364-0.769,2.704-2.084,3.051C355.646,443.336,355.646,443.213,355.721,443.188z"/>
		</g>
		<g>
			<path fill="#383938" d="M355.671,443.659c0.595-0.198,1.141-0.472,1.587-0.918c0.472-0.446,0.769-1.042,0.868-1.662
				c0.124-0.77,0-1.588-0.347-2.307c-0.248-0.496-0.719-1.067-0.57-1.662c0.024-0.074,0.149-0.025,0.124,0.05
				c-0.1,0.322,0.074,0.669,0.223,0.967s0.322,0.596,0.471,0.918c0.273,0.694,0.347,1.488,0.199,2.232
				c-0.273,1.266-1.315,2.107-2.506,2.506C355.646,443.808,355.597,443.684,355.671,443.659z"/>
		</g>
		<g>
			<path fill="#383938" d="M355.845,444.056c0.645-0.147,1.29-0.271,1.737-0.72c0.273-0.248,0.496-0.545,0.669-0.868
				c0.174-0.321,0.298-0.669,0.372-1.017c0.149-0.77,0.199-1.637-0.049-2.382c-0.223-0.669-0.769-1.216-0.918-1.936
				c-0.025-0.074,0.099-0.1,0.124-0.023c0.075,0.372,0.273,0.719,0.471,1.042c0.199,0.347,0.397,0.669,0.496,1.065
				c0.224,0.77,0.149,1.638-0.024,2.406c-0.075,0.347-0.224,0.694-0.397,0.992c-0.174,0.298-0.397,0.569-0.67,0.844
				c-0.521,0.471-1.19,0.57-1.786,0.744C355.771,444.205,355.771,444.056,355.845,444.056z"/>
		</g>
		<g>
			<path fill="#383938" d="M355.721,444.552c1.017,0.05,2.134-0.198,2.704-1.116c0.198-0.271,0.347-0.596,0.446-0.893
				c0.298-0.844,0.298-1.786,0.124-2.654c-0.099-0.496-0.223-0.968-0.372-1.438c-0.148-0.421-0.297-0.843-0.421-1.289
				c-0.025-0.075,0.099-0.101,0.124-0.025c0.124,0.473,0.297,0.918,0.446,1.364c0.149,0.472,0.273,0.942,0.347,1.414
				c0.149,0.868,0.149,1.786-0.124,2.63c-0.099,0.322-0.248,0.62-0.421,0.894c-0.62,0.941-1.786,1.487-2.877,1.239
				C355.622,444.651,355.646,444.527,355.721,444.552z"/>
		</g>
		<g>
			<path fill="#383938" d="M356.788,444.825c0.62-0.273,1.439-0.174,1.86-0.844c0.248-0.322,0.422-0.721,0.571-1.093
				c0.173-0.396,0.297-0.794,0.372-1.215c0.099-0.744,0.024-1.538-0.224-2.232c-0.124-0.322-0.272-0.669-0.372-0.992
				c-0.099-0.297-0.173-0.596-0.148-0.917c0-0.075,0.124-0.075,0.124,0.023c-0.025,0.322,0.074,0.67,0.198,0.969
				c0.124,0.347,0.273,0.669,0.397,1.017c0.248,0.694,0.273,1.514,0.173,2.232c-0.074,0.422-0.223,0.817-0.372,1.216
				c-0.148,0.372-0.322,0.744-0.57,1.065c-0.496,0.473-1.215,0.744-1.91,0.868C356.788,444.974,356.713,444.874,356.788,444.825z"/>
		</g>
	</g>
</g>
<g id="Layer_1">
	<g>
		<g>
			<path fill="#FFFFFF" d="M448.57,307.2c0,0,4.985-3.2,6.251-6.723c1.042-2.927,2.258-15.876,1.91-25.749
				c-0.074-1.984-0.198-3.845-0.421-5.457c-0.819-7.095-4.045-19.721,5.879-20.242c5.108-0.272,6.696,6.177,7.986,10.121
				c0.597,2.208,1.142,4.837,1.612,7.938c2.406,16.323,3.473,40.732-6.599,50.109c-1.438,1.339-3.102,2.355-5.035,3.025
				c-4.688,1.812-11.411,2.604-13.099-3.374c-0.596-1.363-1.018-2.927-0.868-4.563C446.338,310.623,447.008,308.887,448.57,307.2z"
				/>
			<path fill="#010101" d="M452.391,322.258c-2.977,0.348-4.662-2.901-5.929-5.16c-0.844-1.91-1.141-3.746-0.868-5.481
				c0.273-1.736,1.092-3.373,2.48-4.861l0.05-0.05l0.074-0.05c0.05-0.024,4.812-3.125,5.979-6.375
				c1.018-2.853,2.208-15.752,1.86-25.526c-0.074-1.959-0.198-3.795-0.396-5.383c-0.968-5.854-2.854-12.825,0.918-18.456
				c1.886-2.952,6.449-4.019,9.401-1.612c2.406,2.158,3.497,5.358,4.489,8.434c0.396,1.29,0.77,2.704,1.092,4.242
				s0.62,3.225,0.893,5.011c1.019,6.871,2.481,20.118,0.993,31.777c-1.588,12.229-5.979,19.671-13.049,22.078h-0.024
				C456.409,322.059,453.854,322.282,452.391,322.258z M450.679,320.769c3.227,0.969,6.177-0.645,9.304-1.189
				c2.183-0.744,4.093-2.034,5.729-3.845c3.274-3.622,5.407-9.353,6.425-17.142c1.488-11.485,0.024-24.608-0.992-31.405
				c-0.446-3.101-1.018-5.805-1.638-8.087c-1.116-3.622-1.935-8.459-6.227-9.525c-2.68-0.546-5.631,0.794-6.697,3.225
				c-1.34,3.746-0.546,7.79-0.198,11.783c0.174,1.438,0.396,3.001,0.596,4.639c1.266,9.972-0.248,27.907-1.538,31.529
				c-1.24,3.498-5.779,6.574-6.449,7.021c-1.166,1.265-1.86,2.653-2.084,4.117s0.024,3.026,0.744,4.663
				C448.67,318.735,450.258,320.372,450.679,320.769z"/>
		</g>
		<g>
			<path fill="#010101" d="M460.056,272.769c-0.147-2.133-0.445-4.267-0.893-6.375c-0.397-1.91-1.142-3.522-1.638-5.135
				c-1.762-3.919,1.464-7.665,1.19-11.684c-2.158,4.019-3.746,9.129-1.737,13.247c0.323,0.918,0.62,1.761,0.943,2.803
				c0.372,1.24,0.57,2.555,0.77,3.845c0.371,2.58,0.496,5.209,0.521,7.814c0.024,4.118-0.224,8.31-0.695,12.403
				c-0.422,3.671-1.091,7.318-2.355,10.791c-1.612,4.465-4.291,8.459-8.285,10.939c0.224,0.149,0.396,0.422,0.396,0.694
				c0,0.074,0,0.148,0,0.224l0,0c5.358-3.299,8.36-9.054,9.924-15.132c0.918-3.547,1.363-7.219,1.637-10.865
				C460.18,281.823,460.354,277.284,460.056,272.769z"/>
		</g>
		<g>
			<path fill="#010101" d="M461.966,275.895c-0.124-2.456,0.124-4.912-0.023-7.367c-0.124-2.332-0.721-4.589-1.589-6.549
				c-2.977-4.391,0.225-8.955,1.562-13.247c0-0.273-0.545-0.273-0.793-0.273c-1.34,4.292-4.564,8.583-2.084,12.999
				c0.893,2.034,1.637,4.143,1.86,6.648c0.224,2.431-0.025,4.862,0.023,7.293c0.149,5.209,1.24,10.394,0.771,15.628
				c-0.323,3.572-1.191,7.144-2.383,10.518c-2.107,5.878-5.952,11.957-12.451,13.445c-0.621,0.147-0.496,1.141,0.124,0.992
				c1.761-0.396,3.322-1.116,4.736-2.034c4.218-2.778,6.972-7.615,8.633-12.428c1.166-3.324,1.936-6.847,2.308-10.344
				C463.23,286.065,462.214,280.955,461.966,275.895z"/>
		</g>
		<g>
			<path fill="#010101" d="M465.688,277.631c-0.272-2.257-0.57-4.515-0.968-6.722c-0.396-2.233-0.918-4.44-1.562-6.624
				c-2.009-4.267-0.124-8.831-1.215-13.123c-1.341,4.564-1.067,9.402,0.372,13.768c0.719,2.406,1.239,4.862,1.637,7.343
				c0.396,2.48,0.693,4.986,0.968,7.467c0.272,2.604-0.074,5.16-0.422,7.739c-0.322,2.505-0.396,4.961-0.322,7.492
				c0.074,2.381,0.198,4.713-0.248,7.069c-0.396,1.96-1.19,3.82-2.382,5.433c-1.712,2.356-4.291,3.944-6.599,5.632
				c-1.289,0.918-2.604,1.812-4.02,2.529c-1.189,0.597-2.555,1.143-3.895,0.992c-0.646-0.074-0.794,0.918-0.148,0.992
				c1.639,0.199,3.2-0.421,4.64-1.142c1.687-0.867,3.225-1.96,4.763-3.101c1.438-1.067,2.952-2.034,4.267-3.25
				c1.364-1.265,2.48-2.803,3.274-4.49c1.936-4.093,1.364-8.533,1.313-12.924c-0.023-2.629,0.422-5.209,0.721-7.813
				C466.108,282.418,465.96,280.062,465.688,277.631z"/>
		</g>
		<g>
			<path fill="#010101" d="M471.541,281.674c-0.298-6.797-0.124-14.065-2.977-20.391c-0.025-0.025-0.025-0.049-0.051-0.074
				c0.101-0.199,0.101-0.447-0.099-0.62c-0.571-0.298-0.844-0.844-1.092-1.389c-1.612-3.225-0.273-7.244-2.681-10.195
				c-0.271-0.273-0.793,0-0.793,0.272c2.158,4.019,0.793,8.583,3.846,11.957c-0.074,0.124-0.101,0.273-0.025,0.422
				c1.836,4.068,2.332,8.608,2.605,13.023c0.297,4.688,0.445,9.401,0.471,14.09c0.025,5.259-0.148,10.741-1.538,15.876
				c-1.017,3.77-3.075,7.292-5.755,10.121c-1.513,1.612-3.299,2.978-5.259,3.92c-1.96,0.968-4.068,1.514-6.275,1.538
				c1.661-0.272,3.299-0.818,4.837-1.562s3.001-1.662,4.316-2.654c3.621-2.729,7.045-6.821,7.392-11.535
				c0.025-0.421-0.62-0.521-0.67-0.099c-0.322,4.49-3.547,8.285-6.945,10.964c-1.588,1.241-3.423,2.357-5.383,3.176
				c-1.96,0.794-4.043,1.266-6.077,1.166c1.588-0.646,3.226-1.34,4.838-2.084c4.812-2.258,9.276-5.185,11.634-10.171
				c0.868-1.835,1.363-3.869,1.662-5.879c0.396-2.679,0.124-5.408,0.271-8.086c0.125-2.605,0.621-5.185,0.895-7.765
				c0.271-2.48,0.298-4.937,0.1-7.417c-0.372-4.54-1.514-8.93-2.729-13.296c-0.396-1.464-0.817-2.902-1.215-4.341
				c-0.77-2.753-1.042-5.457-1.29-8.409c0,0-0.794,0-0.794,0.273c0.272,1.612,0.546,2.952,0.646,4.465
				c0.248,1.464,0.521,2.927,0.968,4.49c1.762,6.35,3.721,12.651,3.895,19.299c0.149,5.234-1.216,10.369-1.189,15.604
				c0,4.639-0.496,9.228-3.176,13.147c-2.579,3.771-6.623,6.054-10.767,7.89c-1.389,0.619-2.777,1.189-4.116,1.735
				c0.073,0.721-0.992,0.446-0.992,0.721c2.156,1.611,5.085,1.885,7.564,0.843c1.786-0.472,3.497-1.266,5.036-2.331
				c3.101-2.084,5.68-5.136,7.466-8.459c2.158-3.994,2.929-8.435,3.324-12.924C471.863,291.944,471.765,286.785,471.541,281.674z"/>
		</g>
		<g>
			<path fill="#010101" d="M422.549,332.676c-7.565,0.074-15.082-3.695-19.025-10.294c-1.266-1.91-2.258-3.994-3.002-6.202
				c-0.744-2.183-1.19-4.489-1.364-6.847c-1.24-18.208-1.091-30.313,0.422-37.011c1.364-6.053,3.696-6.871,5.557-7.516
				c0.273-0.099,0.521-0.173,0.744-0.273c0.596-0.248,1.24-0.397,1.937-0.397c3.349,0,7.169,3.25,7.812,6.698
				c0.496,2.58,0.77,14.735,0.968,23.616c0.074,3.423,0.148,6.4,0.198,8.111c0.074,2.208,0.67,4.118,1.488,5.73
				c0.817,1.613,1.91,2.928,2.952,3.97c5.259,3.299,11.98,7.317,11.708,14.586c-0.272,2.952-2.952,4.291-5.729,5.035
				C425.699,332.329,424.137,332.602,422.549,332.676z M407.814,265.476c-0.496,0-0.969,0.099-1.414,0.273
				c-0.273,0.124-0.571,0.223-0.845,0.322c-3.126,1.091-7.839,2.729-5.085,43.164c0.148,2.033,0.521,4.019,1.092,5.902
				c0.57,1.887,1.34,3.672,2.281,5.31c4.416,8.78,17.019,14.958,25.079,8.78c7.518-5.902-3.225-12.602-8.583-16
				c-1.166-1.141-2.355-2.578-3.249-4.341c-0.918-1.761-1.538-3.845-1.638-6.301c-0.074-1.736-0.124-4.688-0.198-8.136
				c-0.198-8.831-0.472-20.937-0.941-23.393C413.842,268.577,410.741,265.476,407.814,265.476z"/>
		</g>
		<g>
			<path fill="#FFFFFF" d="M440.955,401.24c0,0-11.981,0.992-13.668-5.333c-0.248-0.895-0.472-3.474-0.67-7.194
				c-0.101-1.86-0.198-4.019-0.298-6.35c3.149-21.16,4.217-42.098-1.414-63.555c-0.546-2.157-0.272-4.292-0.148-6.425
				c-0.024-2.134-0.05-3.994-0.074-5.532c-0.05-3.076-0.05-4.862-0.05-4.862s1.042-17.96,2.06-36.688c0.174-3.125,0.1-5.978,0-8.856
				c0.918-14.908-6.325-38.797,10.593-45.767c3.225-1.34,6.97,0.793,8.31,3.746c6.449,14.76,3.498,30.859,4.02,46.561
				c-0.024,2.481-0.024,4.986,0,7.715c0.422,14.561,0.693,29.544,0.693,39.962c0,2.084,0,4.392,0,6.896
				c0.05,1.488,0.025,2.978,0.025,4.466c3.051,18.928,6.821,37.979,0.372,57.029c-0.546,2.157-0.273,4.02-0.322,6.251
				c-0.05,2.952-0.05,5.357-0.05,7.021s0,2.604,0,2.604S450.754,401.29,440.955,401.24z"/>
			<path fill="#010101" d="M439.193,401.96c-4.094,0-11.188-0.77-12.526-5.879c-0.248-0.895-0.472-3.398-0.67-7.021
				c-0.101-1.811-0.198-3.895-0.298-6.177c-1.29-10.667,3.521-20.887,3.25-31.33c-0.273-12.875-5.358-24.955-4.812-37.706
				c-0.05-3.299-0.1-6.077-0.124-8.111s-0.05-3.349-0.05-3.721v-0.025v-0.025c0.024-0.347,1.066-18.332,2.059-36.986
				c0.175-3.101,0.101-5.954,0-8.831c1.043-14.884-5.952-34.729,8.533-45.197c4.02-2.952,9.923-1.067,11.81,3.498
				c6.448,14.76,3.497,31.405,3.895,46.884c-0.024,2.48-0.05,5.036,0,7.789c0.396,14.561,0.694,29.445,0.694,39.566
				c0,2.059,0,4.365,0,6.847c0,2.803-0.546,5.48,0.271,7.888c5.631,19.87,3.498,39.194,0,59.312
				c-0.546,2.404-0.271,4.837-0.248,7.293c0,1.761,0,2.777,0,2.927c0.025,0.322,0.101,3.696-2.307,6.251
				c-1.736,1.836-4.292,2.754-7.591,2.754h-0.074C440.831,401.91,440.161,401.96,439.193,401.96z M425.303,301.966
				c0,0.199,0.024,1.364,0.049,3.274c0.025,1.935,0.051,4.613,0.101,7.862c-0.546,11.857,3.746,22.848,5.11,34.383
				c0.794,9.129-2.158,17.438-3.498,26.566c-0.272,2.679-0.272,5.631-0.051,8.409c0.074,2.307,0.175,4.416,0.299,6.227
				c0.197,3.646,0.422,6.151,0.646,7.021c1.165,4.415,8.26,4.887,11.262,4.887c1.018,0,1.712-0.05,1.712-0.05h0.024h0.124
				c2.927,0,5.159-0.794,6.623-2.332c2.084-2.208,1.96-5.259,1.96-5.283v-0.05c0,0,0-0.918,0-2.604
				c0.248-2.557-0.298-5.234,0.248-8.188c2.158-13.966,5.357-27.386,3.746-41.327c-1.067-8.583-4.292-16.645-4.021-25.253
				c0-2.505,0-4.837,0-6.896c0-10.865-0.297-25.973-0.719-40.484c-0.025-2.704-0.025-5.135,0-7.591
				c0.174-14.76,0.967-29.52-3.052-44.006c-0.793-3.746-4.563-6.177-8.583-5.631c-4.291,0.794-7.243,4.019-8.062,7.789
				c-3.225,12.354-2.679,24.409-1.886,36.788c0.125,2.803,0.273,5.482,0.1,8.558C426.419,282.369,425.401,300.354,425.303,301.966z"
				/>
		</g>
		<g>
			<path fill="#010101" d="M453.16,349.792c-1.143-12.204-9.997-22.945-7.146-35.423c0.024-0.298,0.074-0.596,0.101-0.895
				c0.049,0,0.099-0.023,0.147-0.049c0.175-0.075,0.349-0.174,0.521-0.248c-0.05-0.148-0.124-0.272-0.148-0.422
				c-0.023-0.198-0.05-0.396-0.05-0.596c-0.124,0.05-0.223,0.124-0.348,0.174c0.272-2.134,0.546-4.267,0.694-6.425
				c0.198-2.753,0.248-5.507,0.272-8.261c0.025-5.705-0.198-11.386-0.298-17.091c-0.024-1.439-0.049-2.902-0.049-4.341
				c-0.025-1.438-0.025-2.902-0.051-4.341c-1.538-19.374,3.026-39.764-4.218-58.542c-0.271,0-0.793,0-0.793,0.272
				c6.449,16.373,2.951,34.357,4.268,51.572c0.023,1.29,0.05,2.58,0.05,3.969c0.074,4.391,0.074,8.781,0.173,13.172
				c0.124,5.805,0.323,11.584,0.248,17.389c-0.05,2.828-0.173,5.631-0.421,8.458c-0.05,0.546-0.101,1.092-0.174,1.638
				c-0.025-1.39-0.101-2.777-0.248-4.167c-0.273-2.679-0.771-5.333-1.166-7.988c-0.422-2.828-0.721-5.681-0.62-8.533
				c0.074-2.778,0.471-5.557,0.794-8.335c0.322-2.753,0.446-5.532,0.422-8.285c-0.348-12.155-2.233-23.715-0.894-36.043
				c0.546-5.904,0-12.081-2.952-17.439c2.952,11.262,2.157,22.549,1.611,34.084c-0.271,2.952,0.546,5.631,0.895,8.508
				c0.298,2.381,0.496,4.564,0.595,7.368c0.124,2.902,0.174,5.83-0.049,8.732c-0.224,2.778-0.62,5.556-0.895,8.334
				c-0.248,2.729-0.271,5.433-0.023,8.137c0.248,2.704,0.744,5.383,1.166,8.062c0.421,2.679,0.693,5.383,0.719,8.111
				c0,1.39-0.05,2.778-0.124,4.192c-0.074,1.389-0.147,2.803-0.198,4.191c-0.197,2.01-0.197,3.87,0.597,5.756
				c6.448,17.983,6.97,37.309-3.227,54.474c-1.065,2.158-0.545,4.292-0.595,6.352c-0.1,1.859-0.174,3.721-0.198,5.582
				c-0.024,1.859-0.05,3.721-0.05,5.604c0,0.422,0.67,0.348,0.67-0.074c0-2.107,0.024-4.217,0.074-6.351
				c-0.422-3.349,0.124-6.549,1.189-9.501c4.293-14.486,12.603-29.52,5.632-44.552c7.789,14.76,0,30.338-1.886,45.618
				c-0.272,2.158,0,4.02-0.024,6.128c-0.1,1.611-0.224,3.225-0.421,4.837c-0.349,2.63-1.019,6.697-4.02,7.565
				c-0.422,0.124-0.148,0.744,0.248,0.62c2.902-0.844,3.795-4.391,4.268-6.995c0.297-1.712,0.445-3.448,0.545-5.185
				c-0.596-11.511,3.97-22.5,5.357-33.786C453.234,353.116,453.234,351.454,453.16,349.792z"/>
		</g>
		<g>
			<path fill="#010101" d="M436.787,398.76c-0.198,0.546-0.471,1.266-1.116,1.364c-0.545,0.1-1.116-0.396-1.488-0.744
				c-1.115-0.992-1.909-2.406-2.604-3.696c-1.116-2.107-1.364-4.439-1.34-6.797c0.024-1.786,0.248-3.473,0.396-5.158
				c0.744-4.564-1.142-9.13-0.321-13.968c3.225-17.438-1.341-33.289-3.746-50.183c-0.272-2.406,0-4.837-0.024-7.293
				c0.148-1.488,0.272-2.952,0.396-4.44c0.372-4.44,0.619-8.905,0.968-13.346c0.445-5.829,1.141-11.634,1.935-17.414
				c0.322-2.381,0.546-4.763,0.472-7.144c-4.291-19.076-2.68-38.127,3.498-56.632c-5.109,14.214-8.855,29.519-5.682,44.626
				c0.422,2.63,0.968,5.085,1.216,7.914c0.273,2.977,0.396,5.854,0.124,8.831c-0.271,2.778-0.769,5.532-1.092,8.285
				c-0.669,5.954-1.165,11.907-1.587,17.91c-0.1,1.488-0.224,2.952-0.348,4.44s-0.248,2.952-0.396,4.44
				c-0.024,4.192-0.844,8.757,0.248,13.048c5.357,22.276,4.019,42.939,3.349,65.042c-0.023,2.108-0.123,4.614,0.67,6.623
				c0.496,1.267,1.166,2.456,1.91,3.572c1.041,1.538,3.424,4.242,4.911,1.662c0.124-0.225,0.198-0.446,0.298-0.67
				C437.532,398.636,436.938,398.363,436.787,398.76z"/>
		</g>
		<g>
			<path fill="#010101" d="M412.403,283.981c0.073,2.654,0,5.259-0.225,7.888c-0.197,2.282-0.348,4.589-0.372,6.896
				c-0.05,4.49,0.597,8.955,2.406,13.073c0.77,1.761,1.762,3.448,2.878,5.062c1.662,2.405,3.82,5.085,7.045,5.085
				c-2.952-1.886-6.177-3.745-7.441-6.922c-1.216-1.983-2.134-4.043-2.804-6.177c-0.67-2.133-1.092-4.366-1.266-6.673
				c-0.372-4.862,0.447-9.649,0.546-14.512c0.05-2.555-0.124-5.085-0.147-7.64c-0.025-2.53-0.473-4.961-0.918-7.417
				c-0.248-1.29-0.446-2.58-0.57-3.895c-0.05-0.422-0.695-0.347-0.67,0.074c0.223,2.481,0.817,4.912,1.189,7.393
				C412.403,278.797,412.329,281.401,412.403,283.981z"/>
		</g>
		<g>
			<path fill="#010101" d="M426.344,330.047c-8.136,1.612-15.925-3.746-20.438-10.221c-0.496-0.992-0.819-2.084-1.191-3.125
				c-0.794-2.357-1.637-4.614-2.059-7.095c-0.422-2.481-0.546-4.986-0.57-7.518c-0.05-5.284,0.223-10.567,0.422-15.851
				c0.099-2.753,0.322-5.458,0.894-8.161c0.546-2.605,1.239-5.185,1.363-7.864c0.024-0.421-0.645-0.521-0.67-0.099
				c-0.124,2.58-0.769,5.061-1.313,7.566c-0.57,2.58-0.794,5.185-0.918,7.814c-0.248,5.135-0.422,10.294-0.473,15.454
				c-0.023,4.862,0.248,9.998,2.158,14.538c0.819,1.935,1.216,4.019,2.406,5.779c4.688,6.077,12.453,11.46,20.466,9.427
				C426.419,330.493,426.395,330.27,426.344,330.047z"/>
		</g>
		<g>
			<path fill="#010101" d="M443.485,368.224c8.532-14.81,1.836-31.455-1.662-47.008c-0.546-1.886-0.794-3.746-0.942-5.582
				c-0.148-1.487-0.298-2.977-0.472-4.489c-0.646-6.027-1.588-11.932-1.464-18.01c0.124-5.755,0.869-11.485,1.487-17.215
				c0.149-1.439,0.299-2.902,0.423-4.341c0.123-1.414,0.224-2.828,0.298-4.143c0.372-5.284,0.1-10.642-0.446-16
				c-1.612-13.147-1.886-26.021-2.952-39.194c-1.065,16.372,1.886,32.472,2.952,48.844c0.271,2.158,0,4.564-0.224,6.797
				c-0.1,1.389-0.198,2.828-0.348,4.267c-0.422,4.316-0.968,8.632-1.363,12.949c-0.546,5.706-0.745,11.46-0.149,17.191
				c0.322,3.001,0.694,5.978,1.042,8.955c0.174,1.488,0.348,2.977,0.496,4.466c8.062,22.127,7.789,44.948-1.612,66.679
				c-0.794,1.886,0.546,4.291,0.546,6.325c0.198,1.736,0.348,3.473,0.372,5.234c0,1.464,0.148,2.952-0.124,4.391
				c-0.174,0-0.372,0.124-0.372,0.372v0.992c0,0.348,0.521,0.372,0.646,0.1c0.918-2.355,0.596-5.21,0.472-7.665
				c-0.074-1.438-0.224-2.878-0.422-4.315c-1.364-5.408-0.024-11.039,2.158-15.803C442.369,370.778,442.915,369.538,443.485,368.224
				z"/>
		</g>
		<g>
			<path fill="#010101" d="M438.673,397.618c-0.521-2.604-0.893-5.233-1.166-7.838c-0.794-2.805-0.794-5.508,0.025-7.914
				c6.97-22.275,3.745-44.552-3.15-66.108c-0.298-2.729-0.571-5.48-0.694-8.26c-0.125-2.754-0.125-5.532,0.148-8.236
				c0.521-5.085,2.133-9.972,2.679-15.058c0.272-2.555,0.175-5.16,0.124-7.715c-0.05-2.704-0.223-5.408-0.569-8.086
				c-0.248-1.786-0.521-3.374-0.771-4.986c-2.604-10.369,0.621-20.837,1.96-31.305c0.273-2.406,1.066-4.837-0.546-6.971
				c0,13.147-5.357,26.022-1.959,39.144c0.347,2.431,0.793,5.036,1.018,7.74c0.396,5.358,0.472,10.791-0.496,16.074
				c-0.918,4.961-2.208,9.749-2.258,14.834c-0.024,2.753,0.074,5.531,0.272,8.285c0.224,2.505,0.224,4.911,1.042,7.069
				c6.177,20.391,9.922,41.055,2.679,61.718c-1.065,3.227-0.546,6.45-0.198,9.551c0.272,2.729,0.671,5.457,1.217,8.188
				C438.077,398.115,438.747,398.04,438.673,397.618z"/>
		</g>
		<g>
			<path fill="#010101" d="M436.763,396.701c0,0.372-0.023,0.669-0.099,0.967c-2.061-1.215-2.63-4.068-2.928-6.275
				c-0.224-1.611-0.299-3.25-0.299-4.861c0.101-3.35,0.101-6.821,0.349-10.047c1.612-11.263,3.497-21.729,1.885-33.018
				c-1.612-10.741-4.837-20.664-5.135-31.354c-0.024-1.414-0.024-2.828,0-4.241c0.024-1.414,0.075-2.828,0.148-4.242
				c0.124-2.555,0.546-5.011,1.142-7.492c0.57-2.431,1.19-4.862,1.488-7.342c0.321-2.555,0.348-5.135,0.272-7.715
				c-0.074-2.679-0.298-5.333-0.571-8.012c-0.271-2.654-0.569-5.309-0.867-7.814c-2.108-12.006,0.298-24.36,0.024-36.44
				c-1.886,13.693-2.158,27.386-0.174,41.128c0.271,2.654,0.57,5.333,0.744,7.988c0.372,5.333,0.147,10.542-1.066,15.752
				c-0.569,2.431-1.19,4.862-1.488,7.343c-0.322,2.58-0.322,5.234-0.348,7.839c-0.024,2.753,0.074,5.53,0.272,8.335
				c6.624,22.177,5.805,44.998,2.68,67.597c-0.05,1.612-0.025,3.2,0.099,4.812c0.175,2.529,0.546,5.406,2.134,7.467
				c0.446,0.569,1.043,1.041,1.688,1.339c0.174,0.074,0.372,0,0.447-0.174c0.223-0.545,0.271-1.091,0.271-1.661
				C437.408,396.18,436.763,396.279,436.763,396.701z"/>
		</g>
		<g>
			<path fill="#010101" d="M425.625,327.441c-7.145,1.018-14.934-3.274-18.307-9.849c-0.695-1.414-1.217-2.877-1.588-4.366
				c-1.91-7.417-0.423-15.603,0.023-23.094c0.422-7.194-0.595-14.338-0.595-21.532c0-0.422-0.67-0.347-0.67,0.074
				c0,5.408,0.62,10.791,0.719,16.174c0.1,5.061-0.545,10.071-0.868,15.107c-0.298,4.49-0.271,9.204,0.844,13.594
				c0.372,1.463,0.868,2.877,1.488,4.217c3.2,7.193,11.262,10.691,19.126,10.319C426.22,328.062,426.047,327.417,425.625,327.441z"
				/>
		</g>
		<g>
			<path fill="#010101" d="M425.575,325.681c-6.301-0.445-11.659-4.191-14.76-9.524c-0.818-2.034-1.712-4.044-2.332-6.152
				c-1.464-4.961-0.224-10.319,0.174-15.355c0.198-2.307,0.224-4.639,0.298-6.97c0.074-2.233,0.148-4.49,0.124-6.723
				c-0.05-4.316-0.446-8.732-2.134-12.726c-0.174-0.397-0.793-0.149-0.62,0.248c1.762,4.217,2.084,8.88,2.107,13.396
				c0.025,4.738-0.122,9.575-0.569,14.313c-0.446,4.788-1.314,9.625,0.074,14.338c0.62,2.107,1.514,4.116,2.356,6.15
				c3.101,5.656,9.004,9.401,15.454,9.675C426.171,326.251,425.997,325.631,425.575,325.681z"/>
		</g>
		<g>
			<path fill="#010101" d="M424.781,324.787c-3.919-0.62-8.731-2.777-10.395-6.871c-0.918-2.108-1.611-4.291-2.431-6.399
				c-0.894-2.308-1.39-4.737-1.638-7.193c-0.473-4.862,0.147-9.773,0.472-14.611c0.347-5.11,0.496-10.245,0-15.33
				c-0.224-2.332-0.62-4.664-1.191-6.946c-0.099-0.421-0.769-0.347-0.669,0.075c2.53,10.096,1.092,20.391,0.62,30.611
				c-0.224,4.639,0.124,9.253,1.761,13.644c0.795,2.134,1.538,4.291,2.432,6.399c1.736,4.391,6.549,6.524,10.791,7.219
				C425.005,325.482,425.229,324.887,424.781,324.787z"/>
		</g>
		<g>
			<path fill="#010101" d="M425.277,318.363c-2.332-0.845-4.44-2.135-6.228-3.796c-1.711-1.612-2.009-3.919-3.101-5.904
				c-0.198-0.372-0.818-0.124-0.62,0.249c1.092,1.984,1.438,4.241,3.052,5.903c1.812,1.859,4.167,3.25,6.673,4.168
				C425.476,319.156,425.675,318.512,425.277,318.363z"/>
		</g>
		<g>
			<path fill="#FFFFFF" d="M438.028,320.224c-6.698,2.06-15.281-0.074-18.805-6.549c-1.042-2.01-1.786-4.54-2.033-7.715
				c-1.464-19.125,4.019-28.775,6.499-30.437c2.506-1.662,7.467-0.521,9.277,1.811c1.812,2.332,0.223,15.132-1.216,18.877
				c-1.438,3.721-0.148,6.549,3.2,8.756c1.24,0.819,3.249,2.481,4.787,4.516c1.538,2.033,2.604,4.415,1.96,6.723
				C441.327,317.644,440.211,319.032,438.028,320.224z"/>
			<path fill="#010101" d="M433.34,321.364c-6.822,0.372-13.52-2.854-15.604-9.477c-0.597-1.662-1.018-3.622-1.19-5.879
				c-1.464-19.076,3.944-29.148,6.797-31.058c0.894-0.596,2.06-0.893,3.423-0.893c2.681,0,5.458,1.166,6.748,2.853
				c2.083,2.704,0.248,15.926-1.117,19.522c-1.265,3.274-0.321,5.805,2.929,7.963c1.29,0.843,3.149,2.381,4.639,4.242
				c1.513,1.887,2.679,4.094,2.58,6.352c-0.05,2.405-1.438,4.315-4.143,5.778C438.227,320.844,436.093,321.314,433.34,321.364z
				 M426.766,275.374c-1.091,0-2.009,0.223-2.679,0.67c-0.918,0.62-2.902,3.051-4.465,8.31c-1.241,4.118-2.53,11.212-1.737,21.532
				c0.225,2.977,0.895,5.358,1.836,7.268c1.439,4.019,5.21,5.879,8.955,6.971c4.838,1.066,11.015,0.546,12.553-5.209
				c0.074-1.786-0.942-3.722-2.282-5.408c-1.339-1.687-3.052-3.149-4.365-4.019c-3.771-2.48-4.938-5.681-3.448-9.55
				s2.828-16.273,1.314-18.232C431.404,276.366,429.023,275.374,426.766,275.374z"/>
		</g>
		<g>
			<path fill="#010101" d="M438.847,310.301c-7.045-1.786-12.007-9.501-10.121-16.67c0.868-3.274,2.556-6.301,3.572-9.525
				c0.868-2.729,1.339-5.854-0.396-8.335c-0.248-0.347-0.77,0.05-0.521,0.397c2.009,2.853,0.77,6.648-0.348,9.6
				c-1.116,3.001-2.827,6.003-3.249,9.228c-0.943,7.169,4.043,14.214,10.964,15.976C439.169,311.045,439.243,310.4,438.847,310.301z
				"/>
		</g>
		<g>
			<path fill="#010101" d="M439.095,312.807c-3.075-0.991-5.979-2.506-8.335-4.764c-2.456-2.332-3.994-5.407-4.563-8.707
				c-0.721-4.068,0.023-8.36,1.811-12.081c1.29-2.654,3.771-5.606,2.929-8.757c-0.101-0.421-0.721-0.148-0.62,0.248
				c0.445,1.737-0.446,3.572-1.217,5.085c-0.817,1.612-1.762,3.101-2.431,4.788c-1.464,3.671-1.812,7.839-0.992,11.708
				c1.438,6.647,6.896,11.063,13.122,13.098C439.219,313.551,439.491,312.955,439.095,312.807z"/>
		</g>
		<g>
			<path fill="#010101" d="M438.177,314.791c-3.349-0.844-6.821-1.364-9.104-3.82c-1.391-1.34-2.58-2.853-3.498-4.515
				c-0.942-1.662-1.612-3.448-1.984-5.358c-0.817-4.093-1.092-8.558,0.248-12.552c1.216-3.572,4.043-6.425,4.787-10.171
				c0.075-0.421-0.57-0.521-0.669-0.099c-0.397,1.984-1.414,3.721-2.432,5.458c-1.042,1.811-2.034,3.572-2.629,5.557
				c-1.217,3.969-0.744,8.657,0.174,12.651c0.421,1.861,1.165,3.572,2.107,5.16c0.967,1.589,2.133,3.053,3.474,4.392
				c2.679,2.479,6.177,3.002,9.426,3.97C438.499,315.56,438.599,314.89,438.177,314.791z"/>
		</g>
		<g>
			<path fill="#010101" d="M438.821,317.42c-5.333,0.298-11.237-1.042-14.164-5.903c-1.018-1.438-1.812-3.075-2.381-4.737
				c-1.538-4.465-1.515-9.352-0.671-13.966c0.446-2.555,1.166-5.061,1.961-7.541c0.719-2.258,1.611-4.465,2.231-6.772
				c0.124-0.421-0.546-0.496-0.67-0.099c-0.646,2.431-1.612,4.788-2.382,7.194c-0.77,2.431-1.438,4.887-1.885,7.392
				c-0.819,4.564-0.721,9.352,0.719,13.792c0.521,1.637,1.29,3.225,2.232,4.663c3.226,4.888,9.401,7.839,15.106,6.573
				C439.343,317.99,439.243,317.37,438.821,317.42z"/>
		</g>
		<g>
			<path fill="#010101" d="M433.216,318.934c-3.2-1.487-7.492-0.942-9.799-4.416c-1.34-1.687-2.183-3.744-3.001-5.704
				c-0.869-2.06-1.588-4.192-1.936-6.4c-0.57-3.845-0.175-7.987,1.166-11.659c0.645-1.736,1.389-3.448,1.983-5.209
				c0.521-1.538,0.968-3.15,0.844-4.788c-0.024-0.421-0.694-0.347-0.67,0.075c0.148,1.736-0.446,3.498-1.042,5.135
				c-0.645,1.811-1.414,3.547-2.034,5.358c-1.265,3.646-1.487,7.888-0.844,11.684c0.373,2.183,1.143,4.291,2.01,6.325
				c0.818,1.937,1.688,3.896,2.978,5.582c2.58,2.53,6.326,3.869,9.973,4.489C433.216,319.628,433.588,319.132,433.216,318.934z"/>
		</g>
	</g>
</g>
<g id="Layer_5">
	<path fill="#010101" d="M480.62,397.768c-1.612-0.05-3.226-0.1-4.837-0.148c0,0,0-0.024-0.025-0.024
		c-2.431-2.034-4.984-0.794-7.59-0.023c-3.15,0.049-6.301,0.223-9.451,0.595c-5.682,0.646-11.337,1.364-16.968,0.77
		c-0.422-0.174-0.844-0.371-1.24-0.596c-0.348-0.198-0.62,0.05-0.693,0.349c-1.29-0.225-2.58-0.496-3.87-0.895
		c-0.646-0.198-1.092,0.794-0.422,0.992c1.96,0.596,3.943,0.968,5.953,1.216c3.621,1.464,7.863,1.141,11.685,1.018
		c5.705-0.174,11.286,1.266,16.992,1.041c0.693-0.023,0.545-1.091-0.124-1.065c-5.31,0.224-10.52-1.166-15.853-1.066
		c-0.298,0-0.596,0.024-0.894,0.024c1.216-0.124,2.406-0.272,3.622-0.446c2.804-0.396,5.605-0.62,8.409-0.744
		c0.073,0.198,0.272,0.372,0.546,0.349c0.743-0.025,1.487-0.199,2.258-0.447c4.117-0.074,8.235,0.025,12.354,0.174
		C481.141,398.859,481.314,397.792,480.62,397.768z"/>
	<path d="M480.298,234.964c-0.174,0-0.174,0.273,0,0.273S480.472,234.964,480.298,234.964z"/>
	<path d="M454.871,254.512"/>
	<path opacity="0.3" enable-background="new    " d="M455.27,255.231c0,0,4.961,0,9.476-0.297c4.49-0.298,14.363-1.141,21.929,0.446
		c4.961,0.099,5.682,0.099,5.682,0.099v1.166c0,0-7.665,0.124-10.021-0.595c-3.324-0.273-15.256-0.273-19.473,0.595
		c-2.185,0.124-4.342,0.322-5.558,0C455.615,256.223,455.27,255.231,455.27,255.231z"/>
	<path d="M459.262,256.818v1.563h1.34c0,0-0.546-0.992,0-0.992c0.547,0,0.894-0.67,0.894-0.67L459.262,256.818z"/>
	<g>
		<path fill="#5C5C5C" d="M470.896,221.792c0,0-3.053,0.472-6.178-0.124c-3.126-0.595-16.942-2.877-20.143-3.051
			c-3.227-0.149-30.017-1.736-35.424-0.769c-5.384,0.942-10.146,1.736-11.387,0.545c-1.216-1.19,0.646-4.812,6.003-4.44
			c5.358,0.397,17.812,3.522,22.302,3.274c0,0,0.396-17.985,1.166-20.912c0.769-2.927,1.811-8.806,10.344-6.574
			c8.534,2.257,12.65-3.398,11.484,14.76c-0.371,5.73-0.271,12.701-0.271,12.701s-1.464,1.389,11.733-0.198
			S473.699,220.974,470.896,221.792z"/>
		<path fill="#E4E4E4" d="M448.546,212.837c-20.093-5.284-22.301-1.315-22.301-1.315l-0.074,5.11c0,0,17.513,2.58,22.647,0.57
			C448.992,214.202,448.546,212.837,448.546,212.837z"/>
		<path d="M449.29,216.98c-1.812-0.099-3.622,0.124-5.408,0.223c-1.959,0.099-3.919,0.025-5.854-0.025
			c-3.971-0.074-7.913-0.769-11.884-0.893c-0.693-0.024-0.619,1.042,0.074,1.067c3.971,0.124,7.913,0.793,11.883,0.893
			c1.786,0.049,3.572,0.049,5.358,0.024c1.984-0.024,3.919-0.322,5.903-0.223C450.059,218.071,449.984,217.005,449.29,216.98z"/>
	</g>
	<g>
		<g>
			<path fill="#414042" d="M432.596,402.282c0.148-1.066,0.049-2.184-0.322-3.35c0,0-1.836,2.58-1.464-1.712l-0.05-3.795
				l-1.538,4.043l-0.743-1.96v3.052l-0.992-6.871l-1.018,1.836v-5.879l-1.19,1.836l-0.67-4.912l-0.818,1.464l-2.332-6.747
				l-0.942,22.971h12.081L432.596,402.282L432.596,402.282z"/>
			<path fill="#414042" d="M414.834,402.282h5.532c-0.422-1.662-1.414-5.73-1.414-5.434c0,0.372-1.34,4.043-1.34,4.043
				s-0.744-10.17-5.879-10.17C411.684,390.723,415.528,392.683,414.834,402.282z"/>
		</g>
	</g>
	<g opacity="0.3">
		<path fill="#383938" d="M350.313,374.4c0.149-1.067,0.05-2.185-0.322-3.351c0,0-1.835,2.58-1.463-1.711l-0.05-3.796l-1.538,4.044
			l-0.744-1.96v3.051l-0.992-6.871l-1.017,1.836v-5.879l-1.191,1.835l-0.669-4.911l-0.819,1.465l-2.332-6.748l-0.943,22.971h12.081
			L350.313,374.4L350.313,374.4z"/>
		<path fill="#383938" d="M332.552,374.4h5.532c-0.421-1.662-1.414-5.73-1.414-5.434c0,0.372-1.34,4.043-1.34,4.043
			s-0.744-10.171-5.879-10.171C329.401,362.815,333.247,364.8,332.552,374.4z"/>
	</g>
	<g>
		<path fill="#414042" d="M419.92,518.449l-5.508-0.248c0.496-1.637,1.688-5.655,1.662-5.357c-0.024,0.372,1.166,4.094,1.166,4.094
			s1.189-10.121,6.326-9.897C423.566,507.039,419.671,508.825,419.92,518.449z"/>
	</g>
	<path opacity="0.3" fill="#383938" enable-background="new    " d="M362.89,597.209c-26.369-4.093-52.788-7.839-78.934-13.072
		c-8.756-1.762-17.463-3.695-26.245-5.334c-8.235-1.562-16.471-3.199-24.607-5.209c-8.385-2.084-16.72-4.563-24.658-7.963
		c-6.921-2.977-13.866-6.771-18.902-12.502c-2.604-2.977-4.539-6.673-4.738-10.667c-0.198-3.646,1.587-6.921,3.969-9.55
		c5.358-5.88,13.594-9.055,20.862-11.833c4.738-1.812,9.476-3.597,14.363-4.986c6.425-1.811,12.899-3.397,19.349-5.159
		c6.847-1.859,13.718-3.796,20.341-6.325c3.2-1.216,8.657-2.854,10.344-6.201c3.25-6.4-23.467-8.037-26.096-8.235
		c-3.919-0.298-7.839-0.521-11.733-0.77c-2.133-0.124-4.341-0.148-6.45-0.496c21.408-12.057,44.924-19.448,68.639-25.525
		c23.914-6.127,48.521-8.657,72.534-14.288c5.978-1.39,11.882-3.025,17.711-4.912c5.358-1.735,10.791-3.597,15.976-5.879
		c-0.025-0.174-0.025-0.348-0.05-0.521c-5.136,2.331-10.667,4.117-16,5.879c-23.467,7.715-48.199,10.493-72.385,15.181
		c-23.938,4.664-47.975,11.438-70.276,21.334c-5.805,2.58-11.485,5.457-17.017,8.607c-0.198,0.1-0.124,0.472,0.075,0.496
		c4.664,0.894,9.625,0.744,14.338,1.042c6.921,0.445,13.916,0.968,20.738,2.307c1.935,0.372,12.254,2.356,9.178,6.152
		c-1.29,1.588-3.473,2.555-5.259,3.423c-2.704,1.29-5.557,2.308-8.384,3.273c-12.701,4.343-25.873,7.046-38.723,10.915
		c-5.507,1.662-10.989,3.846-16.298,6.077c-6.499,2.729-13.693,6.202-17.835,12.155c-8.905,12.775,7.715,24.732,17.587,29.594
		c15.058,7.442,32.025,10.915,48.422,14.09c20.639,4.02,41.203,8.409,61.966,11.857c26.22,4.342,52.564,7.889,78.76,12.503
		c7.219,1.265,14.388,2.703,21.557,4.192c0-0.174-0.023-0.349-0.023-0.521C397.693,602.915,380.329,599.913,362.89,597.209z"/>
	<path opacity="0.3" fill="#383938" enable-background="new    " d="M326.847,393.848c10.791,7.293,23.938,11.113,36.341,14.637
		c11.237,3.199,22.896,5.433,33.886,9.501c2.455,0.918,4.86,2.084,7.192,3.273c0.051-0.174,0.124-0.347,0.175-0.521
		c-0.992-0.496-1.984-0.943-2.928-1.364c-1.812-0.844-3.622-1.662-5.508-2.332c-5.011-1.762-10.195-3.076-15.305-4.416
		c-13.172-3.473-26.468-6.771-39.144-11.857c-5.73-2.307-11.436-5.011-16.397-8.73c-3.944-2.952-7.566-6.797-8.781-11.708
		c-0.744-3.076-0.298-6.276,0.793-9.203c0.1-0.248-0.223-0.62-0.347-0.273c-1.538,4.168-1.662,8.56,0.223,12.651
		C319.082,387.895,322.952,391.193,326.847,393.848z"/>
	<path opacity="0.3" fill="#383938" enable-background="new    " d="M574.016,705.514c-0.67,0.074-1.34,0.123-2.01,0.198
		c-12.204,3.944-25.203,5.705-37.903,6.995c-12.85,1.314-25.749,1.86-38.673,2.282c-18.777,0.595-37.531,2.009-56.311,2.479
		c-53.755,1.364-107.51-0.769-161.215-3.025c-9.848-0.423-19.721-0.845-29.569-1.24c-0.273,0-0.273,0.521-0.025,0.546
		c53.656,2.208,107.312,4.837,161.017,4.688c13.42-0.05,26.84-0.272,40.234-0.72c12.305-0.422,24.583-1.265,36.888-1.859
		c10.593-0.521,21.21-0.646,31.802-1.314c14.363-0.894,28.8-2.332,42.89-5.408c4.986-1.092,10.295-2.381,15.355-4.242
		C575.652,705.092,574.834,705.314,574.016,705.514z"/>
</g>
</svg>
