<?xml version="1.0" encoding="utf-8"?>
<!-- Generator: Adobe Illustrator 16.0.0, SVG Export Plug-In . SVG Version: 6.00 Build 0)  -->
<!DOCTYPE svg PUBLIC "-//W3C//DTD SVG 1.1//EN" "http://www.w3.org/Graphics/SVG/1.1/DTD/svg11.dtd">
<svg version="1.1" xmlns="http://www.w3.org/2000/svg" xmlns:xlink="http://www.w3.org/1999/xlink" x="0px" y="0px" width="1024px"
	 height="768px" viewBox="0 0 1024 768" enable-background="new 0 0 1024 768" xml:space="preserve">
<g id="Layer_5">
	<g>
		<g>
			<path fill="none" stroke="#000000" stroke-miterlimit="10" d="M354.902,369.935"/>
		</g>
	</g>
	<path fill="#FFFFFF" d="M413.867,171.56c0,0-19.697-2.034-20.292,0c-0.57,2.034-0.397,4.763,0,5.085
		c0.397,0.347,1.017,2.381-0.372,2.381c-1.364,0-19.374,1.687-19.969,0c-0.57-1.687,2.505-3.2-2.133-3.82
		c-4.639-0.595-12.75,0.943-13.916,0c-1.166-0.942-0.968-1.959-2.902-1.959c-1.935,0,3.274-2.481-3.101-2.605
		s-17.762,3.969-16.794,7.021c0.967,3.051,0.198,5.433,4.068,6.102c3.87,0.67,2.307,3.051,1.538,3.398
		c-0.769,0.348-1.166,0.348-0.967,2.381c0.198,2.034,1.488,5.582-2.778,5.582c-4.242,0-17.513-0.297-12.875,4.812
		c4.639,5.085,5.408,3.87,9.451,6.921c4.068,3.051,6.946,0,8.31,3.051c1.364,3.051-0.198,3.051,4.242,4.763
		c4.44,1.687,10.046,1.687,12.949,0c2.903-1.687,5.209-6.797,8.508-4.763c3.274,2.034-2.505,3.398,7.145,4.416
		c9.649,1.017,45.246-3.051,51.993-4.068c6.748-1.017,6.177-6.102,7.715-9.848c1.538-3.721,1.166-3.051,5.408-3.721
		c4.241-0.67,6.772-1.364,6.945-5.78c0.198-4.416-4.043-8.484-8.88-7.467c-4.838,1.017-8.51-0.67-9.08-4.763
		c-0.57-4.068-2.331-5.78-5.233-5.78c-2.901,0-3.448,2.381-5.581,2.034C415.206,174.611,415.776,171.733,413.867,171.56z"/>
	<g>
		<path fill="#FFFFFF" d="M686.934,236.155c0,0-34.604-2.034-35.621,0c-1.018,2.034-0.671,4.763,0,5.085
			c0.67,0.347,1.762,2.381-0.646,2.381s-34.06,1.687-35.076,0c-1.018-1.687,4.415-3.2-3.721-3.82c-8.137-0.596-22.4,0.942-24.436,0
			c-2.033-0.943-1.687-1.96-5.085-1.96c-3.397,0,5.779-2.48-5.433-2.604c-11.188-0.124-31.231,3.969-29.521,7.02
			c1.688,3.051,0.349,5.433,7.119,6.103c6.797,0.669,4.068,3.051,2.704,3.398c-1.364,0.347-2.034,0.347-1.687,2.381
			c0.347,2.034,2.604,5.581-4.862,5.581s-30.76-0.297-22.623,4.812c8.136,5.085,9.501,3.87,16.62,6.921
			c7.119,3.051,12.204,0,14.586,3.051c2.381,3.051-0.348,3.051,7.467,4.763c7.813,1.687,17.638,1.687,22.747,0
			c5.085-1.687,9.153-6.797,14.935-4.763c5.778,2.034-4.416,3.398,12.552,4.416c16.967,1.017,79.504-3.051,91.386-4.068
			s10.865-6.102,13.569-9.848c2.703-3.721,2.034-3.051,9.501-3.721c7.466-0.67,11.882-1.364,12.204-5.78
			c0.348-4.416-7.119-8.484-15.604-7.467c-8.483,1.017-14.934-0.67-15.951-4.763c-1.017-4.068-4.093-5.78-9.203-5.78
			c-5.085,0-6.076,2.381-9.822,2.034C689.314,239.206,690.332,236.329,686.934,236.155z"/>
	</g>
	<path opacity="0.3" fill="#383939" enable-background="new    " d="M672.546,420.763c-4.217,23.642-19.25,42.47-32.472,61.769
		c-0.248,0.372,0.298,0.794,0.546,0.422c13.296-19.398,28.378-38.326,32.62-62.09C673.314,420.416,672.62,420.316,672.546,420.763z"
		/>
	<path opacity="0.3" fill="#383939" enable-background="new    " d="M634.518,447.231c-1.562,4.515-4.217,8.532-6.673,12.602
		c-0.174,0.272,0.225,0.57,0.397,0.297c2.479-4.117,5.159-8.136,6.723-12.7C635.062,447.132,634.617,446.934,634.518,447.231z"/>
	<path fill="#BABABA" d="M672.05,523.758c-10.419-5.779-18.977-13.792-25.451-23.812c-3.126-4.837-5.755-9.974-8.211-15.183
		c-2.479-5.233-4.563-10.74-7.467-15.775c-5.879-10.271-14.686-18.805-23.987-25.974c-9.698-7.467-20.613-13.718-32.248-17.637
		c-2.506-0.844-5.061-1.562-7.664-2.108c-0.323-0.074-0.372,0.422-0.075,0.496c11.883,2.556,23.045,8.235,33.092,14.934
		c10.344,6.896,19.969,15.354,27.213,25.501c3.373,4.738,5.68,9.896,8.086,15.157c2.406,5.309,4.912,10.615,7.765,15.701
		c5.434,9.699,12.453,18.232,21.558,24.683c2.307,1.638,4.713,3.101,7.194,4.466C672.124,524.378,672.322,523.907,672.05,523.758z"
		/>
	<path fill="#BABABA" d="M672.174,634.89c-2.754-2.604-5.16-5.507-6.921-8.78c-1.464-2.729-2.406-5.682-3.126-8.657
		c-1.637-6.697-2.406-13.47-5.581-19.746c-2.853-5.655-7.343-10.244-11.783-14.809c-2.63-2.681-5.185-5.384-7.44-8.335
		c-2.63-3.425-5.186-6.896-7.69-10.395c-10.194-14.239-19.547-29.023-29.022-43.709c-4.663-7.243-9.353-14.438-14.188-21.581
		c-4.466-6.574-8.459-13.396-12.453-20.242c-11.112-19.149-21.755-39.119-37.532-55.343c-0.247-0.271-0.743,0.074-0.471,0.348
		c11.113,11.437,19.621,24.831,27.609,38.302c8.012,13.493,15.578,27.162,24.358,40.26c9.699,14.463,18.878,29.223,28.479,43.733
		c4.812,7.269,9.724,14.462,14.859,21.531c2.479,3.423,4.91,7.045,7.738,10.221c2.308,2.604,4.787,5.061,7.22,7.565
		c3.299,3.398,6.425,6.896,8.806,10.939c2.754,4.688,4.067,9.799,5.136,15.008c0.867,4.242,1.661,8.509,3.299,12.552
		c1.812,4.44,4.787,8.261,8.335,11.634C672.074,635.584,672.422,635.138,672.174,634.89z"/>
	<path fill="#BABABA" d="M533.805,496.174c-0.321,0-0.248,0.496,0.051,0.496C534.177,496.67,534.127,496.174,533.805,496.174z"/>
</g>
<g id="Layer_4">
	<path fill="#F4F4F4" d="M649.427,82.456c-7.293,0-4.64,0-4.315-2.778c0.321-2.778-0.323-2.778-1.662-3.25
		c-1.314-0.471-3.969-3.721,2.654-4.639c6.622-0.918,5.309-4.192,6.971-8.359c1.662-4.192-17.91-9.749-28.825-9.6
		c-10.939,0.149-1.984,3.572-5.309,3.572c-3.325,0-2.978,1.389-4.962,2.679c-1.983,1.29-15.9-0.818-23.862,0
		c-7.963,0.819-2.654,2.902-3.646,5.209c-0.991,2.332-11.933,0-14.289,0c-2.355,0-1.29-2.778-0.62-3.25
		c0.671-0.471,0.992-4.192,0-6.97c-0.991-2.778-34.803,0-34.803,0c-3.3,0.248-2.332,4.192-5.979,4.639
		c-3.646,0.471-4.614-2.778-9.575-2.778s-7.987,2.332-8.979,7.888c-0.124,0.67-0.322,1.265-0.57,1.836
		c-1.711-0.099-3.497-0.05-5.31,0.174c-11.607,1.389-20.438-0.918-21.854-6.5c-1.391-5.582-5.606-7.888-12.603-7.888
		c-6.971,0-8.335,3.25-13.444,2.778c-5.11-0.472-3.722-4.391-8.359-4.639c0,0-47.404-2.778-48.794,0c-1.39,2.778-0.918,6.499,0,6.97
		c0.918,0.471,2.431,3.25-0.868,3.25s-18.629,2.332-20.043,0c-1.389-2.332,6.053-4.391-5.11-5.209
		c-11.163-0.819-30.686,1.29-33.464,0c-2.778-1.29-2.332-2.679-6.971-2.679s7.889-3.398-7.441-3.572
		c-15.331-0.149-42.766,5.433-40.435,9.6c2.332,4.192,0.472,7.442,9.749,8.36c9.302,0.917,5.582,4.192,3.721,4.639
		c-1.861,0.471-2.778,0.471-2.332,3.25c0.471,2.778,4.192,2.778-6.053,2.778c-10.22,0-73.897,1.86-62.735,8.831
		c11.163,6.971,33.464,8.36,40.905,8.36c7.442,0,3.25-0.471,13.023,3.721c9.749,4.192,16.719,0,19.994,4.192
		c3.25,4.192-0.471,4.192,10.22,6.499c10.691,2.332,24.161,2.332,31.132,0c6.971-2.332,12.552-9.302,20.44-6.499
		c7.913,2.778-6.053,4.639,17.19,6.053c4.788,0.297,11.064,0.273,18.134,0.074c-0.77,0.843-0.817,1.786,0.175,2.877
		c6.35,6.971,19.051,8.36,23.268,8.36s1.86-0.471,7.417,3.721c5.557,4.192,9.526,0,11.387,4.192s-0.272,4.192,5.829,6.5
		c6.077,2.332,13.742,2.332,17.712,0s8.136-0.968,21.434-0.472c58.642,2.208,63.752-13.941,65.859-19.051
		c0.546-1.315,0.918-2.208,1.24-2.853c11.832,1.092,23.392,1.761,30.462,1.166c16.57-1.389,6.623-3.25,12.254-6.053
		c5.631-2.778,9.602,4.192,14.586,6.5c4.962,2.332,14.587,2.332,22.202,0s4.961-2.332,7.293-6.5c2.332-4.192,7.293,0,14.265-4.192
		c6.971-4.192,3.969-3.721,9.276-3.721s21.209-1.389,29.172-8.36C702.114,84.316,656.694,82.456,649.427,82.456z"/>
</g>
<g id="Layer_3">
	<path fill="#BABABA" d="M695.243,695.269l29.271-20.911c0,0,12.998,0.321,24.855,4.365c11.856,4.043,21.78,8.386,20.788,16.646
		c-0.992,8.261,2.479,14.71,7.44,18.68c4.962,3.969,4.467,20.392,4.467,20.392s-0.597,11.36-19.896,12.85
		c-19.3,1.488-41.625,8.93-66.928-3.225c-25.302-12.155-19.845-27.884-18.356-31.431
		C678.375,709.085,693.755,704.77,695.243,695.269z"/>
</g>
<g id="Layer_2">
	<g opacity="0.7">
		<path fill="#CCCCCC" d="M339.448,479.479c0.57-12.452-3.051-67.397-4.316-74.767c-1.24-7.367-5.458-66.604-5.458-66.604h-3.547
			c0,0,4.44,43.262,5.408,55.242c0.968,11.981-1.066,37.606-1.86,42.966c-0.793,5.357-9.625,32.347-9.625,32.347
			s-12.899,30.091-16.447,49.266s-2.902,60.378,8.161,77.445c11.064,17.066,30.065,21.631,30.065,21.631
			S338.877,491.932,339.448,479.479z M334.115,609.514c-39.764-37.233-25.228-76.057-20.688-99.226
			c4.54-23.169,14.562-45.098,14.562-45.098l4.267,4.714l2.257,0.991C334.512,470.871,335.281,536.607,334.115,609.514z"/>
	</g>
	<g>
		<path fill="#CCCCCC" d="M704.446,621.594c-3.026-16.348-12.824-40.606-15.678-47.43c-2.084,0.695-4.218,0.819-6.301,0.372
			c3.249,8.013,9.004,23.417,12.13,39.417c4.366,22.252,17.936,58.891-16.148,94.734c-0.348,1.34-1.39,2.406-2.703,2.754
			c-0.348,0.322-0.695,0.67-1.042,0.991c-0.224-10.367-3.052-139.584-2.382-162.927c0.62-21.854,8.037-90.146,9.477-103.145
			c-0.62,0.57-1.438,0.942-2.332,0.992c-0.521,5.012-7.343,70.945-9.675,96.942c-2.431,27.038-1.042,176.992-1.042,176.992
			s0.819-0.894,1.861-2.084c6.274-2.406,17.935-8.235,25.698-20.192C707.349,681.997,707.969,640.794,704.446,621.594z"/>
		<path fill="#CCCCCC" d="M682.642,566.599c0.101,0.051,0.225,0.124,0.323,0.175c-0.57-1.465-1.216-2.929-1.861-4.392
			c0.051,1.24,0.075,2.48,0.125,3.745C681.699,566.177,682.195,566.325,682.642,566.599z"/>
	</g>
</g>
<g id="Layer_1">
	<g>
		<path fill="#BABABA" d="M473.724,424.657c-5.604,11.98-16.147,23.715-25.327,33.092c-9.4,9.625-19.101,18.853-27.731,29.196
			c-9.824,11.759-18.704,24.286-27.461,36.838c-4.316,6.201-8.583,12.452-12.974,18.604c-4.217,5.879-8.806,11.485-13.644,16.868
			c-7.144,7.963-14.809,15.43-22.772,22.549c1.364-62.288-0.248-112.968-2.828-151.963c11.014,5.482,21.681,13.246,34.456,13.296
			c5.408,0.025,10.27-1.662,14.611-4.837c4.341-3.175,7.963-7.192,12.205-10.493c0.843-0.67,1.736-1.29,2.604-1.885
			c0.271-0.174-0.025-0.571-0.298-0.396c-4.614,3.101-8.459,7.095-12.676,10.667c-4.242,3.597-9.004,6.026-14.635,6.398
			c-13.396,0.895-24.856-7.64-36.316-13.32c-4.267-64.521-11.088-96.894-11.088-96.894l-4.167,2.06l4.167,38.499
			c0,0,0,0,3.87,48.473c2.729,34.009,1.612,120.086,0.719,168.482c-3.522,2.978-7.07,5.879-10.667,8.781
			c-7.045-8.979-13.693-21.259-15.975-36.49c-4.515-30.361,17.438-92.998,17.438-92.998c-0.471-6.275-6.425,0-6.425,0
			s-16.124,39.394-20.639,54.724s-4.515,39.564-2.58,55.069c1.935,15.504,23.243,40.683,28.428,44.576
			c5.16,3.869-12.279,10.989-12.279,10.989s8.385,3.226,15.504,3.869c7.095,0.646,83.97,0,83.97,0s-9.699-5.805-15.504-11.634
			c-5.805-5.829-18.729-7.095-27.138-4.516c-8.434-13.52-22.301-8.854-25.699-7.44c0.397-11.089,0.72-21.83,0.968-32.273
			c13.892-12.354,26.89-25.724,37.581-40.904c17.019-24.188,33.216-49.093,54.053-70.228c13.545-13.718,30.412-28.8,38.724-46.562
			C474.319,424.559,473.873,424.359,473.724,424.657z M334.115,609.514c-3.101-2.68-6.574-6.177-9.972-10.443
			c3.473-2.778,6.921-5.605,10.344-8.483C334.363,597.879,334.214,604.279,334.115,609.514z"/>
		<path fill="#404041" d="M375.64,336.918c-11.163-8.781-28.378-9.575-33.835-8.111c0,0,3.274-4.64,8.136-6.376
			c4.862-1.735,8.186-2.877,8.186-2.877l-3.895-7.269l7.417,5.259l7.169-3.696l1.365-6.127l2.555,6.549c0,0,5.706,5.31,5.16,12.132
			l3.994-9.602c0,0-2.927-12.626-6.574-19.026c-3.622-6.4-10.89-8.384-10.89-8.384l0.992,4.937l-4.639-2.282l-7.491,4.738
			l4.043,5.631l-6.921-3.522l-14.487,14.909c0,0,6.4-22.996,0.421-31.405c-5.978-8.41-20.44-13.817-20.44-13.817
			s-24.359-0.273-25.649,25.501l6.896-1.389l6.549-13.371l-1.513,9.972l9.923-0.223l4.887-2.257l-1.712,5.432l7.194,3.919
			l6.524-4.788l-4.416,8.137c0,0,3.994,12.477,1.935,21.656c0,0-10.518-13.569-18.604-16.248
			c-8.087-2.679-29.197-2.654-38.425,10.716c-9.104,13.173-1.712,26.271-3.25,28.503l7.169-9.129l-0.124-6.995l3.448,3.598
			l7.145-5.036l0.446-8.012l3.076,5.605l10.27-1.762l-0.223-9.923l4.937,10.271l6.797,3.695c0,0-23.12,1.066-30.884,11.237
			c-7.74,10.171-7.938,10.07-10.617,15.479c-2.704,5.408,6.624,22.053,6.624,22.053l4.143-10.791l-1.389-7.366l4.664,4.489
			c0,0-2.729-10.318-2.456-12.602l5.854,6.375l0.967-5.854l4.788,1.143l5.383-3.126l0.521-10.345l7.269,6.399l0.148-9.724
			l4.639,6.351c0,0,10.27-4.912,12.205-3.076s5.309,3.547,5.309,3.547s1.835-0.05,4.043,1.562c1.117-0.793,1.017,2.432,1.39,1.042
			c1.463-5.457,9.327-1.612,9.327-1.612s16.249,3.944,22.326,12.155l3.82-10.171c0,0,1.19,13.146,0.025,15.703l4.143,8.136
			l3.001-5.507l-1.191,8.931l3.523,9.749l9.773-17.96C386.58,362.741,386.803,345.675,375.64,336.918z"/>
		<path fill="#FFFFFF" d="M316.85,494.438c-2.704-0.348-5.358-0.942-8.087-1.289c-0.149-0.025-0.173,0.197-0.025,0.223
			c2.704,0.348,5.358,0.943,8.087,1.29C316.974,494.66,316.999,494.438,316.85,494.438z"/>
		<path fill="#FFFFFF" d="M311.02,517.681h-10.989c-0.149,0-0.1,0.225,0.024,0.225h10.989
			C311.194,517.904,311.144,517.681,311.02,517.681z"/>
		<path fill="#FFFFFF" d="M306.183,547.721c-4.118,0.695-8.062,2.232-12.279,2.258c-0.149,0-0.099,0.224,0.025,0.224
			c4.217-0.024,8.161-1.562,12.279-2.257C306.332,547.919,306.307,547.721,306.183,547.721z"/>
		<path fill="#FFFFFF" d="M311.343,577.116c-5.73,0.05-10.022,4.49-15.504,5.481c-0.124,0.024-0.1,0.248,0.025,0.224
			c5.482-0.992,9.773-5.457,15.503-5.481C311.516,577.34,311.467,577.116,311.343,577.116z"/>
		<path fill="#FFFFFF" d="M326.499,600.385c-5.73,2.556-10.989,6.003-16.471,9.055c-0.124,0.074-0.049,0.272,0.075,0.197
			c5.482-3.051,10.741-6.474,16.471-9.054C326.698,600.533,326.623,600.335,326.499,600.385z"/>
		<path fill="#FFFFFF" d="M335.95,372.986c-2.059-0.695-4.167-1.29-6.127-2.259c-0.124-0.05-0.198,0.149-0.074,0.198
			c1.959,0.968,4.068,1.563,6.127,2.258C336,373.209,336.074,373.011,335.95,372.986z"/>
		<path fill="#FFFFFF" d="M339.175,404.639c-2.233-0.645-4.515-1.29-6.847-0.968c-0.149,0.025-0.099,0.224,0.025,0.224
			c2.307-0.298,4.54,0.349,6.723,0.969C339.225,404.862,339.299,404.664,339.175,404.639z"/>
		<path fill="#FFFFFF" d="M341.755,445.99c-2.282-0.967-4.688-1.587-7.144-1.936c-0.149-0.023-0.174,0.198-0.025,0.225
			c2.431,0.347,4.812,0.967,7.07,1.935C341.805,446.238,341.879,446.04,341.755,445.99z"/>
		<path fill="#FFFFFF" d="M343.367,493.792c-2.654-1.017-5.184-2.555-8.111-2.579c-0.149,0-0.174,0.223-0.025,0.223
			c2.902,0.025,5.408,1.562,8.037,2.58C343.417,494.04,343.516,493.842,343.367,493.792z"/>
		<path fill="#FFFFFF" d="M343.343,529.314c-2.58-0.67-5.061-1.91-7.765-1.936c-0.148,0-0.173,0.225-0.024,0.225
			c2.704,0.023,5.184,1.288,7.764,1.935C343.442,529.562,343.491,529.364,343.343,529.314z"/>
		<path fill="#FFFFFF" d="M344.335,565.829c-2.952-0.967-6.078-1.29-9.054-2.257c-0.124-0.051-0.223,0.147-0.075,0.197
			c2.952,0.969,6.078,1.29,9.054,2.259C344.384,566.077,344.484,565.879,344.335,565.829z"/>
		<path fill="#FFFFFF" d="M345.327,600.062c-3.87-1.639-7.244-4.242-10.989-6.129c-0.124-0.073-0.198,0.124-0.074,0.199
			c3.746,1.885,7.095,4.489,10.989,6.127C345.352,600.335,345.451,600.137,345.327,600.062z"/>
	</g>
	<path fill="#404041" d="M276.465,509.693c0.223,6.026,16.372,16.197,16.372,16.197l-1.513-11.461l-4.738-5.805l6.251,1.712
		c0,0-7.318-7.765-8.186-9.896l8.186,2.803l-1.935-5.605l4.738-1.29l3.225-5.309l-4.49-9.327l9.451,2.158l-4.515-8.608l7.095,3.374
		c0,0,6.673-9.228,9.253-8.533c2.58,0.694,2.877-0.05,2.877-0.05s10.046-0.62,9.401,0.894s-3.87,11.833-3.87,11.833l8.409,11.634
		V482.58c0,0,4.515-7.095,4.515-9.699c0-2.58-1.513-8.409-1.513-8.409s16.149-4.315,25.402,0l-1.513-10.767
		c0,0,7.318,10.989,7.541,13.793l7.541,5.159v-6.251l3.225,8.409l7.765,6.896v-20.466c0,0-7.963-15.082-21.954-17.438
		c-13.991-2.355-29.495,5.16-33.588,9.056c0,0,0.645-5.632,4.093-9.501c3.448-3.846,5.805-6.449,5.805-6.449l-6.896-4.517
		l9.054,1.067l4.515-6.673l-1.711-6.028l5.383,4.516c0,0,7.541,1.936,10.344,8.187l-1.067-10.345c0,0-8.607-9.699-14.859-13.568
		c-6.251-3.87-13.569-2.158-13.569-2.158l3.225,3.869l-5.16,0.225l-4.316,7.738l6.251,3.026l-7.765,0.224l-5.606,20.02
		c0,0-5.383-23.27-14.636-27.783c-9.252-4.515-24.558-2.355-24.558-2.355s-21.532,11.41-10.344,34.679l5.383-4.515l-0.645-14.858
		l3.448,9.476l8.608-4.961l3.225-4.315l1.092,5.605h8.186l3.448-7.317v9.253c0,0,9.476,9.055,12.056,18.084
		c0,0-15.728-6.896-24.112-5.384c-8.409,1.514-26.915,11.635-28.651,27.782c-1.712,16.149,11.411,24.112,10.766,26.691l1.935-11.561
		l-3.448-6.102l4.738,1.513l3.87-7.839l-3.448-7.243l5.383,3.448l8.161-6.45l-4.936-8.606l9.252,6.673h7.765
		c0,0-19.82,11.98-21.755,24.633C276.465,503.665,276.242,503.665,276.465,509.693z"/>
	<g>
		<path fill="#BABABA" d="M682.766,574.114c0,0,21.656,61.768,17.191,91.709c-4.466,29.94-26.121,48.396-33.762,52.217
			c0,0-16.547-8.285-26.121,6.995c-8.285-2.555-21.012-1.266-26.741,4.466c-5.729,5.729-15.28,11.46-15.28,11.46
			s75.783,0.646,82.778,0c6.995-0.645,15.28-3.82,15.28-3.82s-17.19-6.994-12.105-10.814c5.086-3.819,26.121-28.65,28.031-43.933
			c1.91-15.279,1.91-39.192-2.555-54.301c-4.467-15.105-20.416-53.953-20.416-53.953S683.237,567.938,682.766,574.114z"/>
		<path fill="#404041" d="M730.939,614.053c-0.224,5.953-16.124,15.95-16.124,15.95l1.487-11.287l4.664-5.729l-6.151,1.687
			c0,0,7.219-7.641,8.062-9.772l-8.062,2.753l1.909-5.531l-4.663-1.266l-3.176-5.233l4.44-9.203l-9.303,2.133l4.466-8.482
			l-6.996,3.323c0,0-6.573-9.104-9.128-8.409c-2.557,0.694-2.854-0.024-2.854-0.024s-9.896-0.595-9.252,0.895
			c0.646,1.487,3.819,11.684,3.819,11.684l-8.285,11.46v-11.684c0,0-4.465-6.995-4.465-9.551s1.488-8.285,1.488-8.285
			s-15.927-4.241-25.055,0l1.488-10.616c0,0-7.219,10.84-7.442,13.594l-7.44,5.085v-6.177l-3.177,8.285l-7.64,6.797V566.28
			c0,0,7.863-14.859,21.655-17.191c13.793-2.331,29.098,5.086,33.116,8.905c0,0-0.646-5.557-4.043-9.352
			c-3.398-3.796-5.73-6.352-5.73-6.352l6.797-4.465l-8.905,1.065l-4.465-6.572l1.688-5.954l-5.31,4.466c0,0-7.44,1.91-10.194,8.062
			l1.065-10.194c0,0,8.484-9.55,14.661-13.37c6.151-3.82,13.37-2.134,13.37-2.134l-3.175,3.819l5.085,0.225l4.242,7.64l-6.152,2.978
			l7.641,0.224l5.531,19.746c0,0,5.31-22.921,14.438-27.387s24.211-2.331,24.211-2.331s21.233,11.262,10.194,34.183l-5.309-4.465
			l0.646-14.661l-3.397,9.353l-8.484-4.887l-3.175-4.242l-1.065,5.532h-8.062l-3.398-7.219v9.128c0,0-9.352,8.906-11.882,17.836
			c0,0,15.504-6.797,23.789-5.31c8.285,1.488,26.542,11.462,28.229,27.388c1.687,15.925-11.264,23.789-10.617,26.319l-1.91-11.411
			l3.398-6.003l-4.663,1.487l-3.82-7.715l3.398-7.145l-5.31,3.397l-8.062-6.375l4.861-8.482l-9.129,6.572h-7.64
			c0,0,19.521,11.809,21.432,24.285C730.939,608.124,731.138,608.124,730.939,614.053z"/>
		<path fill="#BABABA" d="M674.431,727.021c0,0-3.818-152.188,0-199.964c3.82-47.802,3.82-47.802,3.82-47.802l4.093-37.953
			l-4.093-2.034c0,0-19.745,93.645-12.726,279.964l-1.514,11.708L674.431,727.021z"/>
		<path fill="#404041" d="M633.153,443.709c11.015-8.658,27.98-9.427,33.363-8.013c0,0-3.225-4.589-8.012-6.302
			c-4.812-1.712-8.062-2.827-8.062-2.827l3.845-7.169l-7.317,5.185l-7.069-3.646l-1.34-6.028l-2.529,6.45
			c0,0-5.606,5.232-5.086,11.956l-3.943-9.451c0,0,2.902-12.452,6.474-18.753c3.572-6.302,10.741-8.262,10.741-8.262l-0.967,4.888
			l4.589-2.258l7.394,4.688l-3.994,5.557l6.82-3.473l14.289,14.71c0,0-6.301-22.673-0.422-30.958s20.144-13.618,20.144-13.618
			s24.037-0.272,25.303,25.153l-6.797-1.39l-6.45-13.173l1.488,9.823l-9.798-0.223l-4.812-2.208l1.688,5.357l-7.096,3.869
			l-6.425-4.713l4.366,8.013c0,0-3.944,12.305-1.91,21.357c0,0,10.369-13.37,18.356-16.024c7.986-2.653,28.8-2.63,37.903,10.544
			c8.979,12.997,1.688,25.896,3.199,28.104l-7.069-9.005l0.101-6.896l-3.398,3.549l-7.045-4.963l-0.422-7.888l-3.026,5.531
			l-10.12-1.736l0.224-9.799l-4.888,10.146l-6.723,3.646c0,0,22.797,1.042,30.438,11.063c7.641,10.021,7.813,9.922,10.469,15.256
			c2.654,5.333-6.549,21.729-6.549,21.729l-4.093-10.616l1.363-7.269l-4.59,4.44c0,0,2.681-10.172,2.406-12.429l-5.755,6.275
			l-0.968-5.755l-4.714,1.115l-5.309-3.075l-0.496-10.195l-7.169,6.326l-0.147-9.602l-4.564,6.276c0,0-10.121-4.837-12.031-3.026
			c-1.91,1.812-2.505,1.314-2.505,1.314s-4.54,2.134-6.723,3.721c-1.093-0.793-1.019,2.406-1.391,1.042
			c-1.438-5.356-9.203-1.587-9.203-1.587s-16.023,3.896-22.003,11.981l-3.771-10.047c0,0-1.166,12.974-0.024,15.479l-4.094,8.038
			l-2.952-5.408l1.166,8.808l-3.473,9.623l-9.649-17.711C622.338,469.16,622.14,452.366,633.153,443.709z"/>
		<path fill="#FFFFFF" d="M691.101,599.021c2.681-0.349,5.284-0.943,7.964-1.267c0.124-0.023,0.174,0.198,0.024,0.198
			c-2.68,0.348-5.284,0.943-7.963,1.266C691.002,599.243,690.952,599.045,691.101,599.021z"/>
		<path fill="#FFFFFF" d="M696.855,621.966h10.841c0.147,0,0.099,0.225-0.025,0.225h-10.84
			C696.707,622.164,696.731,621.966,696.855,621.966z"/>
		<path fill="#FFFFFF" d="M701.644,651.584c4.044,0.695,7.964,2.208,12.105,2.233c0.147,0,0.099,0.223-0.025,0.197
			c-4.143-0.024-8.062-1.538-12.104-2.231C701.47,651.758,701.494,651.56,701.644,651.584z"/>
		<path fill="#FFFFFF" d="M696.533,680.559c5.656,0.05,9.896,4.415,15.281,5.407c0.123,0.024,0.099,0.248-0.025,0.198
			c-5.408-0.992-9.649-5.383-15.28-5.407C696.385,680.757,696.409,680.559,696.533,680.559z"/>
		<path fill="#FFFFFF" d="M681.6,703.504c5.656,2.53,10.842,5.904,16.248,8.93c0.124,0.075,0.051,0.273-0.073,0.199
			c-5.407-3.002-10.593-6.399-16.248-8.931C681.401,703.628,681.476,703.454,681.6,703.504z"/>
		<path fill="#FFFFFF" d="M672.271,479.28c2.034-0.669,4.118-1.266,6.054-2.232c0.124-0.05,0.198,0.124,0.075,0.198
			c-1.937,0.943-4.02,1.562-6.054,2.232C672.224,479.504,672.148,479.306,672.271,479.28z"/>
		<path fill="#FFFFFF" d="M669.098,510.486c2.208-0.62,4.44-1.266,6.747-0.968c0.124,0.024,0.101,0.224-0.023,0.198
			c-2.258-0.298-4.465,0.322-6.623,0.942C669.048,510.71,668.974,510.512,669.098,510.486z"/>
		<path fill="#FFFFFF" d="M666.543,551.243c2.232-0.942,4.613-1.562,7.045-1.91c0.124-0.024,0.174,0.199,0.024,0.199
			c-2.382,0.347-4.764,0.967-6.972,1.909C666.493,551.491,666.419,551.317,666.543,551.243z"/>
		<path fill="#FFFFFF" d="M664.955,598.4c2.63-0.992,5.11-2.53,7.987-2.557c0.124,0,0.174,0.198,0.024,0.198
			c-2.853,0.025-5.334,1.563-7.938,2.53C664.905,598.648,664.831,598.449,664.955,598.4z"/>
		<path fill="#FFFFFF" d="M664.979,633.427c2.53-0.646,4.986-1.886,7.642-1.91c0.124,0,0.174,0.198,0.023,0.198
			c-2.653,0.024-5.108,1.266-7.64,1.91C664.881,633.675,664.855,633.451,664.979,633.427z"/>
		<path fill="#FFFFFF" d="M663.987,669.42c2.928-0.967,6.003-1.265,8.931-2.232c0.124-0.05,0.223,0.149,0.074,0.198
			c-2.928,0.968-6.003,1.267-8.931,2.233C663.963,669.668,663.863,669.47,663.987,669.42z"/>
		<path fill="#FFFFFF" d="M663.045,703.182c3.82-1.611,7.146-4.191,10.84-6.053c0.125-0.05,0.199,0.124,0.075,0.198
			c-3.696,1.86-6.995,4.439-10.841,6.053C662.995,703.43,662.921,703.23,663.045,703.182z"/>
	</g>
</g>
</svg>
