<?xml version="1.0" encoding="utf-8"?>
<!-- Generator: Adobe Illustrator 18.0.0, SVG Export Plug-In . SVG Version: 6.00 Build 0)  -->
<!DOCTYPE svg PUBLIC "-//W3C//DTD SVG 1.1//EN" "http://www.w3.org/Graphics/SVG/1.1/DTD/svg11.dtd">
<svg version="1.1" xmlns="http://www.w3.org/2000/svg" xmlns:xlink="http://www.w3.org/1999/xlink" x="0px" y="0px"
	 viewBox="90 180 432 432" enable-background="new 90 180 432 432" xml:space="preserve">
<g id="Layer_4_1_">
	<g id="Layer_1_1_">
		<g>
			<g id="Layer_4">
				<g>
					<path d="M451.3,396.7c0.2-31.6,0-38.1-11.4-44.1c-2.1-1.2-4.3-2.2-6.8-3.2c0,0-2.3-0.8-4.3-0.7s-4.1,1.1-8.5-0.5s-8,3-9.1,2.2
						c-1.2-0.8-2.8,0.5-2.8,1.9v20.1c0,1.5,1.3,3,2.8,3.4c0,0,0.4,0.1,1.1,0.2l0,0c3,1.1,5.7,3.2,5.4,6.7
						c-0.4,3.5-15.7,29.4-15.1,17.2c0.1-1.5,0-2.5-0.2-3.2c0-4.2,0-9.4,0-12.8c0-34.7-0.7-45-19-48.5c-3.7-0.7-7-1.3-10-1.9
						c-6.9-1.3-9.7,5.7-15.3,6.3c-0.8,0.1-1.6,0.1-2.5,0c-1.2,9.6-4.1,22.6-8.8,28c0.4,1.2,1.4,1.6,2.7,1.6l0,0
						c2.2,0.1,2.3,2.2,2.5,6.6c0,0.2,0,0.4,0,0.5v11.5c-0.7,4.1-4,16.6-19,27.6c-14.2,10.4-18.6,1.5-18.9-11.4l0,0v-35.5
						c0.2-1.9,0.8-3.4,2.1-3.9c1.8,0,3.6,0,5.4,0.1c-0.6-1.8-0.9-3.6-1.2-5.2c0.5,1.9,1.2,3.6,2.3,5.2c0.7,1.1,1.6,2.1,2.8,3
						c1.6,1.4,3.3,2.3,4.9,3c5.3,2.1,10,0.2,13.8-4.2c0.7-0.8,1.5-1.9,2.1-2.8c3.3-5,5.7-12.1,7.1-20c0.2-1.5,0.5-2.9,0.7-4.3
						c0.5-2.9,0.7-5.5,0.8-8c0.7-9.7,0-16.3-0.2-24c10.3-8.5,15.7-10.5,20.5-12.9l-0.8-2.8c-8.3,3.7-14.2,7.7-19.7,12.2
						c0-1.2,0-2.3,0.1-3.5c5.3-5.5,9.8-13.9,12.4-23.3c4.8-17.3,0.8-25.8-2.7-23.9c-4.3,2.2-9.4,17.1-11.6,39.9c0,0.1,0,0.1,0,0.2
						c-3,3.5-6.2,5.9-8.8,4.7c-6.2-2.6-5.7-16.6-1.1-29.3c4.7-12.6,15.1-24.7,25.1-18.9c2.2,1.3,3.6,0.1,2.7-2.2
						c-0.9-2.3-6.4-10.2-13.2-10.9c-6.8-0.7-18.6,3.7-24.7,27.6c-6.4,25.4-2.7,40.2,7.7,42.2c3.7,0.7,7.7-0.7,11.4-3.6
						c-0.1,1.2-0.2,2.5-0.4,3.6c-3.6,3.2-7.3,6.6-11.6,10.3c-2.5,2.1-5,5-7.6,8.3c-0.7,0.9-1.4,1.9-2.1,2.9
						c-4.2,6.1-8,13.1-9.6,19.9c0.9-5.9,3.2-11.6,4.2-13.8c1.6-3.7-0.7-6.3-4.3-6.4c0,0,0,0,0-0.1c-3.2-0.1-6.3-0.1-9.5-0.1
						c-2.6,0-5.3,0-7.8,0.1c-0.6,0.1-1.3,0.1-2.1,0.1c-9,0.2-15.8,4-18.2,3.6c-2.3-0.5-2.8-2.5-4.7-2.2l0,0
						c-0.8,0.1-1.6,0.1-2.5,0.2v36.5c0.5,0,0.8-0.1,1.3-0.1c0.9,1.3,2.1,1.4,2,3.7c0,4-1.6,3.7-0.1,5.9c1.2,1.6,0,10.2,1.9,8.7
						c0.5-0.4,0.4-5.9,1.3-5.9c1.4,0,0.6-7.3,0.6-9.3s0.1-3.2,3.9-3.5c4.6-0.5,14.4,1.1,14.9,10.9v1.8c-0.5,10.8-7.3,30.9-21.2,46.6
						c-6.9,7.8-14.8,9.8-19.4,14.4c-4.8,4.6-6.4,11.9-11.6,9.1c-0.2-0.1-0.5-0.2-0.7-0.4c-1.8-0.7-2.8,0.1-3.5,1.4
						c-0.2,0.5-0.4,0.9-0.5,1.4c-0.9-0.5-1.6-1.1-2.3-1.8c-1.1-1.3-1.9-2.9-2.3-4.7c-0.7-2.6-0.9-5.5-1.1-8.4v-7.5
						c0-0.4,0-0.8,0-1.2l0,0V415c0.1-0.4,0.2-0.6,0.4-0.6h0.2c0.7,0.1,0.9,1.8,0.9,2.9c0,1.2,1.1,1.2,1.1-0.1c0-1.3,0.9-2.8,2.9-2.8
						c1.4,0,2.3,0.6,3.2,1.6c0.2,0.2,0.5,0.6,0.7,0.9l0,0c1.3,1.8,4.2,5.5,7.3,6c0.1,0,0.2,0,0.2,0c0.1,0,0.2,0,0.4,0l0,0h9.3V397
						h-17.2v2.9c-0.1,1.5-0.7,4.2-4.7,4.2c-3.9,0-4.4-1.9-4.6-3.4v-4.3c0.9-10.2,10.9-23,13.4-26.5c0,0,0.1,0,0.2-0.1
						c1.9-2.9,3.2,4,3.3,5.5c0.2,1.6,0.9,2.1,0.9,3.2c0,0.9,0.4,2.2,1.4,2.2c0.9,0,1.4-1.3,1.4-2.8c-0.1-4.7,0.8-3.4,0.8-5.5
						c0-1.3-0.1-2.1,1.1-2c0.8,0.1,1.1,1.1,1.1,3c0,2,0,3,0,3c0,1.2,1.3,1.3,1.3,0c0-1.3,0.7-1.9,0.7-2.9c0-1.9,0.4-3.6,2-2.7
						c1.8,0.9,2.6-1.1,2.9-4c0.1,0,0.1,0,0.2,0v-36.4c-5.6,0.6-11.1,1.4-16.6,2.2l0.1,0.5c-3.6,0.6-9.1,1.5-9.3,7.4
						c-0.1,4.7-1.2,6.6-4.4,7c-3.3,0.5-5.3-2.1-5.6-5.6c-0.4-3.6-2.3-5-5.7-4.3v-0.1c-1.1,0.2-2.1,0.5-3.2,0.7v34.5
						c1.1-0.2,2.2-0.4,3.4-0.6v0.1c1.5-0.1,2.8,1.3,2.8,9.6c0,7.6-2.3,13.4-2.8,22v28.1c0,0.6,0,1.2,0,2c0,8.4-1.9,9.4-2.8,12.5
						c-0.1,0-0.4-0.1-0.5-0.1v3c0,0.5,0,0.9,0,1.5l0,0v38.4c7.7,2.7,15.7,5.2,24,7.3c0.8,1.1,1.4,2.7,1.4,5.6v8.7
						c-1.3,10.2-6,21.2-19.2,19.9c-14.3-1.4-13-28.6-12.4-43c0.1,0,0.1,0,0.2,0.1v-42.4c-1.6-0.4-3.4-0.8-5.3-1.3v-63
						c0.1-4.3,2.2-6.3,3.7-7.7c0.9-0.7,1.5-1.8,1.5-2.8l0.1-22.4c-0.2-5-2.6-8.1-7.1-7l-11.4,3.3c-1.5,0.5-2.8,2.1-2.8,3.7v27.1
						c0,1.6,1.3,2.6,2.8,2.2l3.5-0.8v7.1c-0.5,2.5-2,8.8-7.3,14.2c-2.8,2.8-4.4,2.8-5.5,1.3c-0.7-1.1-2.3-0.2-3,0
						c-0.1,0-0.1,0.1-0.2,0.1l0,0c0,0-1.2,0.6-2.1,0.6c-0.8,0-1.4,0.9-1.9,2.1c-0.4,0.9-0.9,2.3-2.1,4c-0.1,0.1-0.2,0.4-0.4,0.5
						c-0.9,1.4-2.2,2.9-3.9,4.6c-1.6,1.8-2.9,2.3-3.9,2.3v-7.7c0.1-4.5,0.6-9.5,1.2-9.6c0.8-0.2,1.1-2.9,1.1-6
						c0-1.4-0.1-2.6-0.2-3.4c0-0.8,0.4-1.2,0.6-1.6c0,0,0-0.1,0.1-0.1c0.1-0.2,0.1-0.4,0.1-0.6c0.1-0.6,0.1-1.2,0.1-1.9
						c0.1-1.2,0.2-2.2,0.2-3.4c0.6-7.7,0.9-15.5,1.6-18.4c0.2-1.2,0.6-1.6,1.1-1.2c1.8,2,1.6-4-1.1-5.5c-1.3-0.7-3.2-0.4-5.6,2.3
						c-4.2,4.7-6.9,3.5-8.4,3.4c-0.6,0-0.9,0.1-1.3,0.8c-0.4,0.8-0.5,2.2-0.5,5c0,0.1,0,0.1,0,0.2c0,7.1-0.2,14.2,0,19.3
						c0,0.1,0,0.1,0,0.2v5c0.4-0.1,0.7-0.4,0.9-0.5c0,1.2,0,2.2,0,2.9c-0.4,3.9,2.9,4.2,2,0.2c-0.8-3.6,1.1-6.2,1.4-1.4v34.4
						c0,1.3-0.8,1.9-1.5,1.5l-0.1,0.2c-0.9-0.5-1.8-0.9-2.7-1.5v28.2c1.6,1.8,3.4,3.4,5.3,5c2.1,3.7,4.7,12.9,4.8,22.4
						c0.5,21.8,6.4,43.2,18.7,28.6c0.1-0.1,1.5,1.3,2.8-1.6v-0.1c1.2,0.7,2.3,1.6,2.1,3.6c-0.2,2.7,0.5,10.5,0.2,13.9
						c-0.2,2.2-3.2,12.3,0.6,12.5c3.3,0.1,2-9.6,2.2-12.3c0.1-1.6-0.8-6.6-0.6-8.8c0.4-4.8,3.7-6.4,3.3-11.7c-0.4-3.9-2.5-6-3.6-8.2
						c-0.4-0.8-0.7-1.6-0.7-2.6c0-0.6-0.4-11.8-0.2-13.5c0.1-1.1,0.2-2.1,0.5-3c1.5-5.6,6.1-8.2,9.6-5.7l5.4,5.9
						c0.8,2.2,1.4,4.7,1.8,7.4c0.5,3.5,0.5,7.5,0.5,11.7c0,0.9,0,2,0,2.9c0,13.9-0.4,46.4,9.5,49c9.8,2.6,15.7-15.7,19.3-19.9
						c2.7-3,4.1-3,4.1,0.2c0,0.5-0.2,4,0.8,4.6c2.1,1.4,0.9,7.7,2.8,9c0.6,0.5,0.7-5.3,1.2-5.4c1.4-0.5,0.8-8.3,1.2-9.1
						c0.8-1.5-0.9-5.2-0.9-11.6v-14.3c0-1.6,1.3-2.8,2.8-2.7c1.1,0.1,2.9,1.4,2.9,4.1s0,3.5,0,3.5c0,2-1.5,7.8-1.5,11.8
						s0.9,5.6,2.6,5.6c1.6,0,2.1-1.1,2.7-3.3c0.4-1.4,0-3.5,0-5.5c0,0,0-4.1,0-5.5c0-2.5,1.2-4.2,3.5-3.6c1.9,0.6,2.7-3.7,3-7h0.1
						v-48.4c-0.8-0.1-1.6-0.1-2.5-0.2c-0.1,0-0.2-0.1-0.4-0.1c-3.6-0.6-2.9-1.8-2.9-4s1.9-4.8,3.6-4.8c1.8,0,1.8,3.5,4.9,3.2
						c3.2-0.4,4-12.2,12.1-22.7c7.8-10.3,16.9-21.9,17.3-11.7v33.3l0,0c0,1.9-0.6,4.3-0.9,5.7c-0.4,1.2-0.7,2.2-1.3,3.2
						c-0.1,0.1-0.2,0.4-0.2,0.5c-2.5,4.1-6.7,6.1-10.4,4.6c-4.6-1.9-12.2-4.7-12.8,0.6v41.6h0.1c0.8,12.6,5.2,24.7,4.4,35
						c-0.9,14.3-2.3,18.6-3.6,23c-1.1,3.5-3,13.6-3,17.4c0,8.2,4.8,18.2,13.6,18.2c8.7,0,13.2-13.1,13.2-21.2c0-5.5-2.3-13.4-3.5-16
						c-2.6-5.9-7.1-14.4-7.1-29.9c0-13.2,0-12.2,0-18.2c0-4.1,4.6-4.2,4.6-2.5c0,1.6,2,1.6,2,0s1.4-2.7,3.2-2.7
						c1.8,0,2.7,0.9,2.7,4.9c0,4.3,7.5,5.5,7.5,10.4c0,4.9,1.8,11.9,6.9,11.8c5.2-0.1,7-8,7.1-11.7c0-3.7-1.4-6-1.4-9.8
						c0-3.9,1.8-5.3,4.3-5.4c3-0.1,4.4,3.9,4.4,12.2c0,7.1-0.7,9.3-1.4,14.6c-0.7,5.4,5.2,8.7,5.2,15.2c0,4,0.2,15.7,0.2,20.8
						c0,3.4-1.2,8.2-1.8,10.2c-1.1,3.6-1.1,8.4,3.9,8.3c4.2-0.1,6.2-2.9,4.8-8.3c-0.5-1.9-0.7-3.3-0.7-4.2c0-0.8,0.1-1.2,0.4-1.3
						c0.2-0.1,0.7,0.2,1.1,0.6c16.9,18.5,25.8-1.1,25.5-22.1s-4.6-23.1-5-40c-0.2-7.5,2.9-10.8,4.6-13.2c0.5-0.1,0.8-0.2,1.3-0.4
						v-45c-0.1,0-0.2-0.1-0.2-0.2c-2.2-1.9-2,3.9-3.7,3.7c-1.1,0-1.3-1.8-1.4-3.6c0-0.4,0-0.7,0-1.1c0-0.5,0-0.9,0-1.4v-4.7
						c0,0,0-0.1,0-0.4c0-3.3,0.6-4.2,1.2-4.2c0.5,0,0.7-0.1,0.8-1.2c0-4.6,1.8-6.9,3.3-6.1c0.2,0.1,0.5,0.4,0.7,0.6s0.4,0.5,0.6,0.7
						c1.4,2.2,1.9,4.9,2.7,9.4c0.7,3.4,0.6,8,0.9,11.6v0.1c0,0.4,0,0.7,0.1,1.1c0.1,0.8,0.2,1.6,0.4,2.5c0.8,4.3,2.5,9.1,5.3,15.7
						c3,7.1,7.3,13.4,11.6,14.3c0.8,0.2,1.8,0.2,2.6-0.1c0.8-0.2,1.8-0.7,2.7-1.1c6.1-0.2,5.6,28.7,3.6,46.1c-1.9,16.5,8.2,11,6.4-2
						c-0.1-1.1-0.4-2.2-0.5-3.5c0.4-12.1,8.7-24.8,8.9-21.4c0,0.1,0,0.4,0,0.5c0.1,4.3,0.8,7.1,3,6.4c5.3-1.9,0.1-8.9,0.6-29.4
						c0-0.5,0-1.9,0.2-3.6c0.1-1.3,0.4-2.6,0.6-3.9c0.4-1.8,0.9-3.2,1.8-3.7c1.4-0.8,2.6-0.8,3.3,0.7c0.4,0.8,0.6,2.1,0.6,4
						c0,0,0,2,0,4.2c0,2,0,4.1,0,4.9c-0.1,4.3-0.7,17.2,6.2,15.3c5.6-1.5,4.4-13.2,4.8-18.7c0,0,0-6.3,0-7.6c0-1.3,0-3.3,1.6-4
						s1.1-3.4,2.7-3.6c0.7-0.1,0.7-1.4,1.5-1.5c1.1-0.2,1.8,19.4,1.8,25.1c0,5.3-0.6,25.8-0.6,26.7c0,1.6,1.8,3,3.2,3.3
						c1.4,0.2,2.8-1.4,2.8-2.7c0-2.8-2.6-11.9-2.6-27.1c0-19.9,2.2-21.7,2.3-23.2c0.7-5.5,1.1-9,1.5-28.7c0.8-7.1,0.8-13.8,0.8-17.1
						C451.3,416.8,451.2,413.1,451.3,396.7z M364.4,260.5c1.4-0.8,0.4,9.7-1.8,16.9c-1.1,3.3-3.6,8.7-6.8,13.2
						C358.2,272.4,363.1,261.3,364.4,260.5z M339.8,353.6v-23.8c-1.8-0.1-3.6-0.4-5.4-0.5c2.3-3.3,5.3-6.8,8.9-10.3
						c2.9-2.9,5.6-5.4,8.1-7.6c-1.5,13.9-2.9,24.2-5.4,30.9c-0.6,1.6-1.2,3.4-1.9,5c-1.3,3.4-2.7,6.8-4.3,9c-2.1,2.8-4.6,4-8,2
						C336.1,359.2,338,357.7,339.8,353.6z M252,369.1c0,0.1,0,0.4,0,0.5l-0.8-0.4C251.5,369.1,251.8,369.1,252,369.1z M238.9,375
						c0.2-2.6,1.8-4.1,3.5-4.3c0.2,0,0.4-0.1,0.5-0.2c0.2,0,0.6,0,1.1,0c4.7-0.7,4.7,1.4,1.1,7.6c-3.2,5.5-5.6,6.7-6.1,5.4
						L238.9,375L238.9,375z M173.7,422.9c0.1-3.2,1.2-6.3,3.9-9.1c2-2.1,2.3-2.2,2.1-1.4l-0.2,0.6c-0.4,0.9-1.1,2.3-1.3,3.5
						l-2.1,5.6C174.4,425.5,173.5,424.8,173.7,422.9z M194.5,439.1v38.4c0.1,0,0.1,0.1,0.2,0.1c0.1,12.8-1.2,21.9-2,26.2v0.1
						c-2.3,7-15.8,7.5-15.8-21.7c0-12.3,0-12.5,0.5-13.5c1.3-2.3-0.4,3.2,1.9,2.2c1.4-0.6,0.6-4.1,0.7-8.9c0-1.4,0-2.1-0.1-2.6
						v-25.5c-0.6-0.2-1.1-0.4-1.5-0.6l2.5-6.6c0.1-0.1,0.1-0.2,0.2-0.5c0.8-2.5,1.4-2,1.4,0c0,2,1.6,1.9,1.6-1.1
						c0-3,0.2-6.8,1.5-10.3c1.2-3.4,3-1.8,4.1,0.7l8.9,24.4C197.1,439.8,195.8,439.4,194.5,439.1z M203.6,435l-9-25.1
						c-0.8-3.5-0.7-6.9,1.8-9.5c4.3-4.6,6.9-2.5,7.3,0.1V435z M285.7,518.7c0,10.8-2.7,12.3-3.6,5.5c-0.9-6.8-3.5-15.5-3.6-19.9
						c0-0.6,0-1.1,0-1.6c0-1.6,0.1-2.9,0.2-4.1c0.6-4.7,2.2-5.6,3.9-2.7c0.5,0.7,0.8,1.6,1.2,2.7c0.5,1.4,0.8,3,1.2,5
						C285.5,507.6,285.8,512.7,285.7,518.7z M357.3,557.2c-5.4,10.5-15.7,9.3-16.3,3.2c0-0.2-0.9-3.3-2.1-6.6c0-1.8-0.1-0.9-0.1-2.1
						c0-7.3,4.2-3.7,3-11.6c-1.2-7.8-2.1-13-2.5-18.4c-0.2-2.5,0.1-13,0.2-18.5h0.1V455c-0.1,0-0.4-0.1-0.5-0.1
						c-4.6-1.6-3.7,1.1-13.4,5c-8.4,3.5-11.2-1.3-11.7-4.7c0,0,0,0-0.1,0v-0.6c0-0.2,0-0.5,0-0.7c0-0.4,0-0.7,0-1.1
						c0.2-2.9,1.2-7,3-11.5c3-7.4,8.3-15.7,15.8-21.4c11.4-8.5,17.9-6,19-1.3v8.2c0,0.8,0,1.8,0,2.9c0,11.8-0.4,17.4-1.4,20.4
						c-0.7,1.9-1.6,2.7-2.3,3.4c-0.6,0-1.1,0.1-1.6,0.1v2.7c0,0.4-0.1,0.8-0.1,1.3c0,1.6,0,4.1,0,6.9l0,0v37.9
						c0.9-0.1,1.8-0.2,2.7-0.5c1.8,0.9,1.8,3.7,1.8,3.7s0,0-0.1,3.6c-0.1,3.6,2.9,3.3,2.7-0.6c-0.2-3.9,1.1-6.9,3.5-6.9
						c2.6-0.1,4,0.5,4,8.2c0,0,0-2.9,0,7.7C361,523.5,362.7,546.8,357.3,557.2z M373.2,437c-0.1-0.1-0.1-0.1-0.2-0.2
						c-0.9-1.1-1.6-2.1-2.3-3c0-0.1-0.1-0.1-0.1-0.2c-0.9-1.3,0.6-2.2,1.4-2.3c1.2-0.1,2.3,0.6,2.3,2.2
						C374.4,435.1,374.3,438.3,373.2,437z M370,421.1c-0.4,0.4-0.7,0.7-1.2,1.1c-1.3,1.2-2.1,2-2.6,2.7c-0.8,1.2-1.2,2.8-1.2,3.5
						c0,1.1-1.3,0.8-1.3,0c0-0.6,0-3.3,0-6.7l0,0v-0.1h-0.1c0-7.1-4-7.7-4.1-13.5c-0.1-5.6,4.2-4.3,4.1-17.4c0-0.5,0-0.9,0.1-1.3
						v-9.3c0.1-2.1,0.6-4.8,1.5-4.8c1.2,0,0.8,5,2.9,5s1.6-6,4.7-5.4c3.2,0.6,1.1,6.7,3.7,7.1c2.7,0.5,0.9,6.7,2.3,6.8
						c1.5,0.1-0.2-10.5,2.9-10.5c1.5,0,0.4-4.3,2.7-3.9c1.3,0.2,2-0.9,2.5-2c2.1,1.2,3.3,2.9,3.9,5.4c0,0.2,0,0.5,0,0.5
						c1.1,4.5-0.2,9.1-1.2,12.5c-0.7,2.6-6.9,14.4-13.9,23.5C373.9,417,371.9,419.3,370,421.1z M391.4,401.1c0,2.2,0,3.6,0,3.6
						c-0.8,12.2-1.6,14.2-9.4,15.1c-1.2-0.1-2-0.4-2.7-0.7c-1.6-0.9-1.6-2.8-0.7-5c1.4-3.6,5.2-8.2,7.5-11.5
						C388.4,399.5,390.5,398.9,391.4,401.1z M382,438.4c-1.1,1.8-0.7,2.5,0,2.5c0,0-0.1,1.8-0.5,3.5c-0.5,2.1-1.4,4.1-3.2,2.7
						c-1.9-1.4-2.6-4.6-2.8-7.6c-0.2-2.2-0.1-4.3-0.2-5.7c-0.1-2.5,0.6-3,1.5-3.2c0.1,0,0.2,0,0.4,0c0.1,0,0.2,0,0.4,0
						c1.4,0,3,0.6,3,1.8C380.6,434.9,384.2,434.8,382,438.4z M420.9,404.7c-0.5,2.9-2.1,2.6-2.6,5.2v22.1c0,0.4,0.1,0.7,0.2,0.8
						c0.5,1.1,0.8,2.6,0.6,3.6l-0.8-0.1l0,0c-0.4,0.1-0.6,0.4-0.9,0.7c-1.5,1.5-2.2,4.8-4.4,5.5c-0.1,0-0.2,0.1-0.4,0.1
						c-0.9,0.4-1.5,0.5-1.5,0.5c-1.5,0.4-2.8,2-2.8,3.4v35.4c0,1.5,1.2,2.1,2.6,1.4c0,0,1.5-0.8,3.7-2.2c2-0.7,2.3,1.4,2.5,3l0,0
						c0.1,2-1.2,6.7-1.8,7.5c-0.5,0.7-0.8,2.7,0.8,3c-0.1,0.8-0.2,1.6-0.4,2.6c-3.2,11.9-10.4,19.6-11.8,11.2
						c-0.9-11.2-1.8-22.5-1.8-28.3l0,0v-32.6c0-1.5-1.3-2.5-2.8-2c0,0-3.2,0.9-7,1.6c-1.6,0.2-3.2,0.1-4.7-0.1c-0.1,0-0.2,0-0.4-0.1
						c-2.7-0.6-2.8-2.3-2.8-3.6c0-0.7-0.1-2.5-0.5-3.7c-0.5-1.4-0.1-4.2,0.1-4.9c0.2-0.5,0.7-1.8,0.7-2.6c0.1-2,0.7-1.9,2.7-2.2l0,0
						c6.2-1.2,10.1-4.5,12.2-9.8c2.5-4.5,8.2-17.6,12.6-23.5c2.6-3.5,4.8-3.9,5.4-0.7c0.1,0.5,0.1,1.2,0.2,1.9c0,0.5,0,0.9,0.1,1.4
						c0.2,2.5,0.8,2.3,1.5,1.1C420.6,401.3,421.2,403,420.9,404.7z M435.2,484.9c0,4.3-1.2,12.5-3.9,13c-3.7,0.7-4.3-7.5-4.3-9.6
						c0-5.3,0-9.1,0-11.5c0-1.3,1.2-1.2,1.5-0.1c0.2,0.6,1.3,0.7,1.9,0.4c1.4-0.8,4.7-1.5,4.8,0.4
						C435.3,479.4,435.2,484.9,435.2,484.9z M444.2,401.4c-0.5,2.7-0.9,7,0,9c-0.1,4.7-0.6,12.1-1.9,14.8c-0.6,1.2-1.5,2.7-2.6,4.6
						c-0.8,1.4-1.6,2.9-2.3,4.6c-0.2,0.5-0.5,1.1-0.7,1.6c-1.5,3.2-1.8,8.4-5.5,7.4c-3-0.8-3.9-2.9-4.1-5.4l0,0c-0.1-1.6,0-3.4,0-5
						l0,0v-13.1c0.4-3.3,0.2-7.8,0-13.2v-16.2l0,0c0-1.6,0.1-3.4,0.4-4.6c0.2-1.2,0.6-1.8,1.2-1.8c0.7,0,0.9,0.9,0.9,1.3
						s0.2,1.5,1.4,1.6c1.2,0,0.7,4.5,1.9,4.5s0.6,8.2,1.6,8.4c0.9,0.2,0.8-5,1.6-5.3c1.2-0.2-0.8-8,1.2-8.8c0.5-0.1,1.1-0.4,1.1-1.2
						s0.6-1.2,1.1-0.9l0,0c0.2,0.1,0.5,0.1,0.6,0.1c3.6,1.6,4.2,5.7,4.2,12.9C444.2,397.7,444.2,399.4,444.2,401.4z"/>
				</g>
				<path d="M291.9,303c4.2,2.6,15.1,6.8,21.8-2.5c1.5-2.1,4.8-2.1,2.5,1.9s-11.7,13.9-26.7,7.6C274.5,303.6,291.9,303,291.9,303z"
					/>
				<path d="M167.6,341.9c-0.6,0.8,0.1,1.8,0.7,1.5c8.4-3.5,14.5-38.9,13.1-62.4c-1.4-23.5-9.1-40.9-16.5-39.9
					c-7.4,0.9-9.8,19.6-4.1,45.3c5.7,25.8,19.1,47.2,36.7,41S205,303,205,303l-2.2-1.1c0,0,2.5,11.4-6.9,15.5
					c-12.8,5.6-23-15.1-27.1-32c-4.1-16.9-1.8-23.2,0.7-24c2.5-0.8,7.8,8.9,9.1,19.9C180.2,292.5,179.6,325.1,167.6,341.9"/>
				<path d="M204.6,301.4c11.8-7.6,15.2-33.7,4.9-33.1c-10.2,0.6-8.7,21.7-1.2,34.4c7.7,13,25.4,17.8,33.1-5s7.3-30.1,5.9-49
					s-6.8-27.4-8.9-24.2c-2.1,3.2-1.9,12.8-0.1,29.7s5.5,52.1,14.9,49.3c17.3-5.2,23-56.2,23-56.2l7.6,8.8c0,0-10,57.9-30.2,58.6
					s-24.4-37-27.4-58.7c-3-21.7,0.6-43.4,8.2-47.3s15.2,14.3,16.7,40s-3.5,39-7.5,53c-4,14.1-22.6,28.5-38.9,12.3
					c-16.2-16.2-14.3-55.3,2.1-59c16.4-3.7,16.2,36,0,48.5L204.6,301.4z"/>
				<path d="M283.4,259.3c1.9-8.9,4.9-16.9,2.7-25.6c-2.3-8.8-7.5-9.3-10.3-7.7s-5.2,8-3.9,13.9c1.3,6,13.6,19,18.9,35.1
					s-1.3,18.9-4.6,21.5c-4.6-2.3-14.5-1.2-16.4,7.5c-1.8,8.5,11.2,13.4,20.5,4.1s10.8-18.3,3.2-34.2S282,249.8,282,249.8"/>
				<path d="M237,240.2c20.3-9.6,46.4-12.8,62.8-12.2c2.2,0.1,4.2,4.3-1.1,4.6c-5.3,0.2-34.9,0.8-60.2,13.8
					c-17.8,9.1-24.8,19.6-29.2,20.8c-5.7,1.8-5.2-3.3-5.3-3.4C204,263.5,214.5,250.9,237,240.2z"/>
				<path d="M378.6,293.3c11.7-3.6,25.8-18.2,24.7-26.5c-1.1-8.3-16,1.9-20.8,18.6c-4.8,16.6,0.8,28.8,11.2,32.1
					c10.3,3.3,34.5-2.3,47.5-40.9c8.1-24.2,7.6-34.9,5.4-33.7c-2.3,1.2-22.7,57-1.8,95.4c2,3.6-0.7,5.2-3,1.5
					c-22.8-35.2-14.2-102-0.9-110.3c9.3-5.7,17.9,10.4,4.7,48.1c-13.7,39-40.9,49.4-56.2,43.2c-15.3-6.2-19.6-22.6-15-38.5
					c9.3-32.7,36.1-38.9,37.9-22.8c1.9,16.9-26.9,35.8-34.5,36.4L378.6,293.3z"/>
				<path d="M380.1,250.2c0.7-1.8,3.5-2.2,7.4-1.2c3.9,1.1,25.3,8.9,37.5,15.8c12.1,6.9,28.1,19.6,31.2,22.6c3,3,1.1,5-1.9,2.8
					c-2.9-2.2-16.3-12.9-30.6-20.3s-34.1-13.8-38.5-15C380.7,253.8,379.2,252.7,380.1,250.2z"/>
			</g>
		</g>
	</g>
</g>
<g id="Layer_0">
	<g id="Layer_2">
		<g id="Layer_6">
			<path fill="#FFFFFF" d="M441.6,437.4c-0.9-3.4,0.5-6.7,2.3-10c1.9-3.4,5.6-19,5.5-15.6c-0.2,3.9-0.8,13-1.3,17
				C447.3,434.9,442.7,441.4,441.6,437.4z"/>
			<g>
				<path fill="#FFFFFF" d="M449.9,397.2c0-0.7,0-2,0.1-3.3c0-0.5-0.4-0.2-0.4-1.2c0-0.8,0.5-1.9,0.4-2.6c0-1.9-0.1-3-0.6-1.8
					c0,0.1-0.1,0.2-0.1,0.2c-1.5,5.5-3.2,9.8-3.6,13.2c-0.1,1.2-1.1,5.9,0.6,6.2c1.1,0.2,1.8-2,2.3-3.9
					C449.2,402.2,449.9,399.7,449.9,397.2z"/>
			</g>
			<path fill="#FFFFFF" d="M288.7,538.6c0.2,14.4,6.8,23.5,7.7,28.8c0.9,5.3,1.1,13.9-2.7,16.9c-1.5,1.2-0.1-6.9-1.3-11.6
				c-0.7-2.6-3-10.4-4.2-14.5c-1.4-5.3-3.2-15.1-1.3-24.7C288.4,525.4,288.5,532,288.7,538.6z"/>
			<path fill="#FFFFFF" d="M199.9,359.2c0-2.7,0-7.4,0-8.3c0-0.9,0.4-3,2.1-3.5c1.8-0.5,6.2-1.6,6.9-1.9c0.7,0.7,1.3,1.3-0.7,3
				c-2,1.8-5.2,1.2-5.3,3.9c-0.1,2.7-1.2,2.2-1.8,3.4C200.7,357.2,199.9,361.3,199.9,359.2z"/>
			<path fill="#FFFFFF" d="M209.5,468.1c0.4,0.5,4.5,9.6,6.1,9.6c1.5,0,1.2-8.1,0.7-13.2c-0.5-5.2-1.5-2.7-3.6-4
				c-1.2-0.7-2.9-4.2-4.1-3.4c-1.6,1.1-0.8,6-0.5,6.9C208.4,465.2,209.1,467.7,209.5,468.1z"/>
			<g>
				<path fill="#FFFFFF" d="M252.2,415.1c-1.4-3.2-3.3-4.5-6.1-4.7c-0.2,0-0.4,0-0.5-0.1c-1.3-0.1-2.3,0-3.3,0c-2,0.2-2,0.6-2.1,1.2
					c0,0.7,1.3,0.7,1.5,1.2c0.2,0.5,0.5,0.1,0.7-0.2c0.2-0.4,0.6-0.6,1.9-0.5c1.3,0.1,4.3,1.3,5.7,3.5c0.7,1.1,1.4,2.3,2.5,3.3
					C253.4,419.2,253.4,417.7,252.2,415.1z"/>
				<path fill="#FFFFFF" d="M260.7,417.2c-0.2-0.8-1.4-3.3-6.1-5c-0.4-0.1-0.6-0.2-0.9-0.4c-1.1-0.1-1.8,0.6-0.7,2.6
					c1.6,2.9,3.9,6.1,5.3,6.2C261.3,420.1,260.9,417.9,260.7,417.2z"/>
			</g>
			<path fill="#FFFFFF" d="M257.3,335.8c4.6-0.6,10.3,1.4,9.6,10.5c-0.7,8.8-2.9-4.3-8.8-3.9C252.5,342.9,248.7,337.1,257.3,335.8z"
				/>
			<path fill="#FFFFFF" d="M301.1,331.9c-4.7,1.8-6.8,4.7-14.9,4.6c-5.5-0.1-7.5-3.7-7.3,2.1c0.1,1.8-0.2,4.8,0.4,5.9
				c0.9,1.6,4.3,2.9,8.7,0.8c8.3-4.1,9.8-10.2,14.1-12.3c2.2-1.2,4.6-1.6,5.4-1.9C308.2,330.8,305.3,330.3,301.1,331.9z"/>
			<path fill="#FFFFFF" d="M300.5,336.7c-4.1,2.8-2.7,14.4-12.5,14.1c-8.3-0.4-6,3,1.4,3.4c7.4,0.4,10.3-2.1,10.9-4.9
				c0.6-2.8,0.4-8.8,0.2-10C300.3,337.8,301.3,336.2,300.5,336.7z"/>
			<path fill="#FFFFFF" d="M382.7,338.7c6.8,1.5,13.6,6.9,14.3,14.3c0.2,1.9,0.8,11.2,0.1,12.8c-0.6,1.3-1.6-4.1-3.4-4.5
				c-2.2-0.5-2.8-3.5-2.6-6.2c1.1-10.1-6.4-13.6-8.1-15C381.5,338.8,375.9,337.2,382.7,338.7z"/>
		</g>
	</g>
</g>
</svg>
