<?xml version="1.0" encoding="utf-8"?>
<!-- Generator: Adobe Illustrator 18.0.0, SVG Export Plug-In . SVG Version: 6.00 Build 0)  -->
<!DOCTYPE svg PUBLIC "-//W3C//DTD SVG 1.1//EN" "http://www.w3.org/Graphics/SVG/1.1/DTD/svg11.dtd">
<svg version="1.1" xmlns="http://www.w3.org/2000/svg" xmlns:xlink="http://www.w3.org/1999/xlink" x="0px" y="0px"
	 viewBox="0 0 612 792" enable-background="new 0 0 612 792" xml:space="preserve">
<g id="Layer_4">
	<g id="Layer_5">
		<g id="Layer_4_2_">
			<polygon fill="#24285E" points="56.3,309.6 82.3,335.5 82.3,306.6 56.3,280.7 			"/>
			<polygon fill="#24285E" points="188.5,309.6 214.4,335.5 214.4,306.6 188.5,280.7 			"/>
			<polygon fill="#24285E" points="320.8,309.6 346.8,335.5 346.8,306.6 320.8,280.7 			"/>
			<polygon fill="#24285E" points="56.3,441.9 82.3,467.8 82.3,438.8 56.3,412.9 			"/>
			<polygon fill="#24285E" points="188.5,441.9 214.4,467.8 214.4,438.8 188.5,412.9 			"/>
			<polygon fill="#24285E" points="320.8,441.9 346.8,467.8 346.8,438.8 320.8,412.9 			"/>
			<polygon fill="#24285E" points="56.3,574.1 82.3,600 82.3,571.1 56.3,545.2 			"/>
			<polygon fill="#24285E" points="188.5,574.1 214.4,600 214.4,571.1 188.5,545.2 			"/>
			<polygon fill="#24285E" points="320.8,574.1 346.8,600 346.8,571.1 320.8,545.2 			"/>
		</g>
	</g>
</g>
<g id="Layer_3">
	<g id="Layer_4_1_">
		<polygon fill="#2B3990" points="30.1,480.3 30,480.3 30.1,480.4 		"/>
		<path fill="#2B3990" d="M1.4,480.3L1.4,480.3L1.4,480.3z"/>
		<polygon fill="#2B3990" points="30.1,613 30.1,612.9 30,613 		"/>
		<path fill="#2B3990" d="M1.4,613L1.4,613L1.4,613z"/>
		<path fill="#2B3990" d="M268.4,613L268.4,613L268.4,613z"/>
		<polygon fill="#2B3990" points="30.1,347.6 30,347.7 30.1,347.7 		"/>
		<path fill="#2B3990" d="M1.4,347.7L1.4,347.7L1.4,347.7z"/>
		<polygon fill="#2B3990" points="297.2,613 297.2,612.9 297,613 		"/>
		<path fill="#2B3990" d="M163.6,613v-0.1V613z"/>
		<polygon fill="#2B3990" points="134.8,613 134.8,613 135,613 		"/>
		<g>
			<polygon fill="#2B3990" points="-10.2,203.3 1.4,215 1.4,215 1.4,215 15.7,200.6 15.7,200.4 -10.2,174.4 			"/>
			<polygon fill="#2B3990" points="-50.5,243.9 -24.5,269.8 -24.5,240.9 -50.5,215 			"/>
			<polygon fill="#2B3990" points="30.1,214.8 30.1,215 30.1,215.1 41.6,226.7 41.6,255.3 56.1,269.6 56.1,240.7 			"/>
			<polygon fill="#2B3990" points="-10.2,226.7 -10.2,255.5 -10.2,255.6 15.5,281.4 15.7,281.1 15.7,252.6 1.4,238.2 			"/>
			<polygon fill="#2B3990" points="123.3,203.3 134.8,215 134.8,215 135,215 149.3,200.6 149.3,200.4 123.3,174.4 			"/>
			<polygon fill="#2B3990" points="83,243.9 108.9,269.8 108.9,240.9 83,215 			"/>
			<polygon fill="#2B3990" points="175.2,255.3 189.5,269.6 189.5,240.7 163.7,214.8 163.6,214.8 163.6,215 163.6,215.1 
				175.2,226.7 			"/>
			<polygon fill="#2B3990" points="123.3,226.7 123.3,255.5 123.3,255.6 149,281.4 149.3,281.1 149.3,252.6 134.8,238.2 			"/>
			<polygon fill="#2B3990" points="256.8,203.3 268.4,215 268.4,215 268.4,215 282.7,200.6 282.7,200.4 256.8,174.4 			"/>
			<polygon fill="#2B3990" points="216.6,243.9 242.5,269.8 242.5,240.9 216.6,215 			"/>
			<polygon fill="#2B3990" points="308.6,255.3 323.1,269.6 323.1,240.7 297.2,214.8 297.2,214.8 297.2,215 297.2,215.1 
				308.6,226.7 			"/>
			<polygon fill="#2B3990" points="256.8,226.7 256.8,255.5 256.8,255.6 282.6,281.4 282.7,281.1 282.7,252.6 268.4,238.2 			"/>
			<polygon fill="#2B3990" points="390.4,203.3 401.9,215 401.9,215 402,215 416.3,200.6 416.3,200.4 390.4,174.4 			"/>
			<polygon fill="#2B3990" points="350,243.9 375.9,269.8 375.9,240.9 350,215 			"/>
			<polygon fill="#2B3990" points="430.8,214.8 430.6,214.8 430.6,215 430.6,215.1 442.2,226.7 442.2,255.3 456.5,269.6 
				456.5,240.7 			"/>
			<polygon fill="#2B3990" points="390.4,226.7 390.4,255.5 390.4,255.6 416,281.4 416.3,281.1 416.3,252.6 401.9,238.2 			"/>
			<polygon fill="#2B3990" points="-10.2,335.9 1.4,347.6 1.4,347.7 1.4,347.7 15.7,333.4 15.7,333.1 -10.2,307 			"/>
			<polygon fill="#2B3990" points="-50.5,376.6 -24.5,402.5 -24.5,373.6 -50.5,347.6 			"/>
			<polygon fill="#2B3990" points="30.1,347.4 30.1,347.6 30.1,347.7 41.6,359.3 41.6,387.9 56.1,402.2 56.1,373.3 30.1,347.6 			
				"/>
			<polygon fill="#2B3990" points="-10.2,359.3 -10.2,388.2 -10.2,388.2 15.5,414 15.7,413.9 15.7,385.2 1.4,370.9 			"/>
			<polygon fill="#2B3990" points="123.3,335.9 134.8,347.6 134.8,347.7 135,347.7 149.3,333.4 149.3,333.1 123.3,307 			"/>
			<polygon fill="#2B3990" points="83,376.6 108.9,402.5 108.9,373.6 83,347.6 			"/>
			<polygon fill="#2B3990" points="175.2,387.9 189.5,402.2 189.5,373.3 163.7,347.6 163.6,347.4 163.6,347.6 163.6,347.7 
				175.2,359.3 			"/>
			<polygon fill="#2B3990" points="123.3,359.3 123.3,388.2 123.3,388.2 149,414 149.3,413.9 149.3,385.2 134.8,370.9 			"/>
			<polygon fill="#2B3990" points="256.8,335.9 268.4,347.6 268.4,347.7 268.4,347.7 282.7,333.4 282.7,333.1 256.8,307 			"/>
			<polygon fill="#2B3990" points="216.6,376.6 242.5,402.5 242.5,373.6 216.6,347.6 			"/>
			<polygon fill="#2B3990" points="308.6,387.9 323.1,402.2 323.1,373.3 297.2,347.6 297.2,347.4 297.2,347.6 297.2,347.7 
				308.6,359.3 			"/>
			<polygon fill="#2B3990" points="256.8,359.3 256.8,388.2 256.8,388.2 282.6,414 282.7,413.9 282.7,385.2 268.4,370.9 			"/>
			<polygon fill="#2B3990" points="390.4,335.9 401.9,347.6 401.9,347.7 402,347.7 416.3,333.4 416.3,333.1 390.4,307 			"/>
			<polygon fill="#2B3990" points="350,376.6 375.9,402.5 375.9,373.6 350,347.6 			"/>
			<polygon fill="#2B3990" points="430.6,347.4 430.6,347.6 430.6,347.7 442.2,359.3 442.2,387.9 456.5,402.2 456.5,373.3 
				430.8,347.6 			"/>
			<polygon fill="#2B3990" points="390.4,359.3 390.4,388.2 390.4,388.2 416,414 416.3,413.9 416.3,385.2 401.9,370.9 			"/>
			<polygon fill="#2B3990" points="-10.2,468.7 1.4,480.3 1.4,480.3 1.4,480.3 15.7,466 15.7,465.7 -10.2,439.8 			"/>
			<polygon fill="#2B3990" points="-50.5,509.2 -24.5,535.1 -24.5,506.2 -50.5,480.3 			"/>
			<polygon fill="#2B3990" points="30.1,480 30.1,480.3 30.1,480.4 41.6,491.9 41.6,520.5 56.1,535 56.1,506.1 30.1,480.2 			"/>
			<polygon fill="#2B3990" points="-10.2,491.9 -10.2,520.8 -10.2,521 15.5,546.7 15.7,546.5 15.7,517.8 1.4,503.5 			"/>
			<polygon fill="#2B3990" points="123.3,468.7 134.8,480.3 134.8,480.3 135,480.3 149.3,466 149.3,465.7 123.3,439.8 			"/>
			<polygon fill="#2B3990" points="83,509.2 108.9,535.1 108.9,506.2 83,480.3 			"/>
			<polygon fill="#2B3990" points="175.2,520.5 189.5,535 189.5,506.1 163.7,480.2 163.6,480 163.6,480.3 163.6,480.4 175.2,491.9 
							"/>
			<polygon fill="#2B3990" points="123.3,491.9 123.3,520.8 123.3,521 149,546.7 149.3,546.5 149.3,517.8 134.8,503.5 			"/>
			<polygon fill="#2B3990" points="256.8,468.7 268.4,480.3 268.4,480.3 268.4,480.3 282.7,466 282.7,465.7 256.8,439.8 			"/>
			<polygon fill="#2B3990" points="216.6,509.2 242.5,535.1 242.5,506.2 216.6,480.3 			"/>
			<polygon fill="#2B3990" points="308.6,520.5 323.1,535 323.1,506.1 297.2,480.2 297.2,480 297.2,480.3 297.2,480.4 308.6,491.9 
							"/>
			<polygon fill="#2B3990" points="256.8,491.9 256.8,520.8 256.8,521 282.6,546.7 282.7,546.5 282.7,517.8 268.4,503.5 			"/>
			<polygon fill="#2B3990" points="390.4,468.7 401.9,480.3 401.9,480.3 402,480.3 416.3,466 416.3,465.7 390.4,439.8 			"/>
			<polygon fill="#2B3990" points="350,509.2 375.9,535.1 375.9,506.2 350,480.3 			"/>
			<polygon fill="#2B3990" points="430.6,480 430.6,480.3 430.6,480.4 442.2,491.9 442.2,520.5 456.5,535 456.5,506.1 430.8,480.2 
							"/>
			<polygon fill="#2B3990" points="390.4,491.9 390.4,520.8 390.4,521 416,546.7 416.3,546.5 416.3,517.8 401.9,503.5 			"/>
			<polygon fill="#2B3990" points="-10.2,601.3 1.4,612.9 1.4,613 1.4,613 15.7,598.7 15.7,598.3 -10.2,572.4 			"/>
			<polygon fill="#2B3990" points="-50.5,641.9 -24.5,667.9 -24.5,638.8 -50.5,612.9 			"/>
			<polygon fill="#2B3990" points="30.1,612.8 30.1,612.9 30.1,613 41.6,624.7 41.6,653.3 56.1,667.6 56.1,638.7 30.1,612.9 			"/>
			<polygon fill="#2B3990" points="-10.2,624.7 -10.2,653.6 -10.2,653.6 15.7,679.5 15.7,650.6 1.4,636.3 			"/>
			<polygon fill="#2B3990" points="123.3,601.3 134.8,612.9 134.8,613 135,613 149.3,598.7 149.3,598.3 123.3,572.4 			"/>
			<polygon fill="#2B3990" points="83,641.9 108.9,667.9 108.9,638.8 83,612.9 			"/>
			<polygon fill="#2B3990" points="163.6,612.8 163.6,612.9 163.6,613 175.2,624.7 175.2,653.3 189.5,667.6 189.5,638.7 
				163.7,612.9 			"/>
			<polygon fill="#2B3990" points="123.3,624.7 123.3,653.6 123.3,653.6 149.3,679.5 149.3,650.6 134.8,636.3 			"/>
			<polygon fill="#2B3990" points="256.8,601.3 268.4,612.9 268.4,613 268.4,613 282.7,598.7 282.7,598.3 256.8,572.4 			"/>
			<polygon fill="#2B3990" points="216.6,641.9 242.5,667.9 242.5,638.8 216.6,612.9 			"/>
			<polygon fill="#2B3990" points="297.2,612.8 297.2,612.9 297.2,613 308.6,624.7 308.6,653.3 323.1,667.6 323.1,638.7 
				297.2,612.9 			"/>
			<polygon fill="#2B3990" points="256.8,624.7 256.8,653.6 256.8,653.6 282.7,679.5 282.7,650.6 268.4,636.3 			"/>
			<polygon fill="#2B3990" points="390.4,601.3 401.9,612.9 401.9,613 402,613 416.3,598.7 416.3,598.3 390.4,572.4 			"/>
			<polygon fill="#2B3990" points="350,641.9 375.9,667.9 375.9,638.8 350,612.9 			"/>
			<polygon fill="#2B3990" points="430.6,612.8 430.6,612.9 430.6,613 442.2,624.7 442.2,653.3 456.5,667.6 456.5,638.7 
				430.8,612.9 			"/>
			<polygon fill="#2B3990" points="390.4,624.7 390.4,653.6 390.4,653.6 416.3,679.5 416.3,650.6 401.9,636.3 			"/>
		</g>
		<polygon fill="#2B3990" points="108.2,280.7 82.3,306.6 82.3,335.5 108.2,309.6 		"/>
		<polygon fill="#2B3990" points="214.4,335.5 240.4,309.6 240.4,280.7 214.4,306.6 		"/>
		<polygon fill="#2B3990" points="346.8,335.5 372.7,309.6 372.7,280.7 346.8,306.6 		"/>
		<polygon fill="#2B3990" points="82.3,467.8 108.2,441.9 108.2,412.9 82.3,438.8 		"/>
		<polygon fill="#2B3990" points="214.4,467.8 240.4,441.9 240.4,412.9 214.4,438.8 		"/>
		<polygon fill="#2B3990" points="346.8,467.8 372.7,441.9 372.7,412.9 346.8,438.8 		"/>
		<polygon fill="#2B3990" points="108.2,545.2 82.3,571.1 82.3,600 108.2,574.1 		"/>
		<polygon fill="#2B3990" points="214.4,600 240.4,574.1 240.4,545.2 214.4,571.1 		"/>
		<polygon fill="#2B3990" points="346.8,600 372.7,574.1 372.7,545.2 346.8,571.1 		"/>
	</g>
</g>
<g id="Layer_2">
	<g id="Layer_3_2_">
		<g id="Layer_2_2_">
			<polygon fill="#1C75BC" points="15.7,200.6 30,215 30.1,215 30.1,214.8 41.6,203.2 41.6,174.4 15.7,200.4 			"/>
			<polygon fill="#1C75BC" points="1.4,215.1 1.4,215 1.4,215 -24.5,240.9 -24.5,269.8 -10.2,255.5 -10.2,226.7 			"/>
			<path fill="#1C75BC" d="M1.4,215L1.4,215L1.4,215z"/>
			<polygon fill="#1C75BC" points="56.1,269.6 82,243.7 82,214.8 56.1,240.7 			"/>
			<polygon fill="#1C75BC" points="30.1,238.2 15.7,252.6 15.7,281.1 15.8,281.4 41.6,255.6 41.6,255.3 30.1,243.7 			"/>
			<polygon fill="#1C75BC" points="30.1,238.2 30.1,243.7 41.6,255.3 41.6,226.7 			"/>
			<polygon fill="#1C75BC" points="149.3,200.6 163.6,215 163.6,215 163.6,214.8 175.2,203.2 175.2,174.4 149.3,200.4 			"/>
			<polygon fill="#1C75BC" points="134.8,215.1 134.8,215 134.8,215 108.9,240.9 108.9,269.8 123.3,255.5 123.3,226.7 			"/>
			<path fill="#1C75BC" d="M134.8,215L134.8,215L134.8,215z"/>
			<polygon fill="#1C75BC" points="189.5,269.6 215.4,243.7 215.4,214.8 189.5,240.7 			"/>
			<polygon fill="#1C75BC" points="163.6,238.2 149.3,252.6 149.3,281.1 149.4,281.4 175.2,255.6 175.2,255.3 163.6,243.7 			"/>
			<polygon fill="#1C75BC" points="163.6,238.2 163.6,243.7 175.2,255.3 175.2,226.7 			"/>
			<polygon fill="#1C75BC" points="282.7,200.6 297,215 297.2,215 297.2,214.8 308.6,203.2 308.6,174.4 282.7,200.4 			"/>
			<polygon fill="#1C75BC" points="268.4,215.1 268.4,215 268.4,215 242.5,240.9 242.5,269.8 256.8,255.5 256.8,226.7 			"/>
			<path fill="#1C75BC" d="M268.4,215L268.4,215L268.4,215z"/>
			<polygon fill="#1C75BC" points="323.1,269.6 349,243.7 349,214.8 323.1,240.7 			"/>
			<polygon fill="#1C75BC" points="297.2,238.2 282.7,252.6 282.7,281.1 282.9,281.4 308.6,255.6 308.6,255.3 297.2,243.7 			"/>
			<polygon fill="#1C75BC" points="297.2,238.2 297.2,243.7 308.6,255.3 308.6,226.7 			"/>
			<polygon fill="#1C75BC" points="416.3,200.6 430.6,215 430.6,215 430.6,214.8 442.2,203.2 442.2,174.4 416.3,200.4 			"/>
			<polygon fill="#1C75BC" points="401.9,215.1 401.9,215 401.9,215 375.9,240.9 375.9,269.8 390.4,255.5 390.4,226.7 			"/>
			<path fill="#1C75BC" d="M401.9,215L401.9,215L401.9,215z"/>
			<polygon fill="#1C75BC" points="456.5,269.6 482.5,243.7 482.5,214.8 456.5,240.7 			"/>
			<polygon fill="#1C75BC" points="442.2,255.3 430.6,243.7 430.6,238.2 416.3,252.6 416.3,281.1 416.5,281.4 442.2,255.6 			"/>
			<polygon fill="#1C75BC" points="430.6,238.2 430.6,243.7 442.2,255.3 442.2,226.7 			"/>
			<polygon fill="#1C75BC" points="15.7,333.4 30,347.7 30.1,347.6 30.1,347.4 41.6,335.8 41.6,307 15.7,333.1 			"/>
			<polygon fill="#1C75BC" points="1.4,347.7 1.4,347.7 1.4,347.7 -24.5,373.6 -24.5,402.5 -10.2,388.2 -10.2,359.3 			"/>
			<polygon fill="#1C75BC" points="1.4,347.7 1.4,347.7 1.4,347.6 			"/>
			<polygon fill="#1C75BC" points="56.1,402.2 82,376.3 82,347.4 56.1,373.3 			"/>
			<polygon fill="#1C75BC" points="30.1,370.9 15.7,385.2 15.7,413.9 15.8,414 41.6,388.2 41.6,387.9 30.1,376.3 			"/>
			<polygon fill="#1C75BC" points="30.1,370.9 30.1,376.3 41.6,387.9 41.6,359.3 			"/>
			<polygon fill="#1C75BC" points="149.3,333.4 163.6,347.7 163.6,347.6 163.6,347.4 175.2,335.8 175.2,307 149.3,333.1 			"/>
			<polygon fill="#1C75BC" points="134.8,347.7 134.8,347.7 134.8,347.7 108.9,373.6 108.9,402.5 123.3,388.2 123.3,359.3 			"/>
			<polygon fill="#1C75BC" points="134.8,347.7 134.8,347.7 134.8,347.6 			"/>
			<polygon fill="#1C75BC" points="189.5,402.2 215.4,376.3 215.4,347.4 189.5,373.3 			"/>
			<polygon fill="#1C75BC" points="163.6,370.9 149.3,385.2 149.3,413.9 149.4,414 175.2,388.2 175.2,387.9 163.6,376.3 			"/>
			<polygon fill="#1C75BC" points="163.6,370.9 163.6,376.3 175.2,387.9 175.2,359.3 			"/>
			<polygon fill="#1C75BC" points="282.7,333.4 297,347.7 297.2,347.6 297.2,347.4 308.6,335.8 308.6,307 282.7,333.1 			"/>
			<polygon fill="#1C75BC" points="268.4,347.7 268.4,347.7 268.4,347.7 242.5,373.6 242.5,402.5 256.8,388.2 256.8,359.3 			"/>
			<polygon fill="#1C75BC" points="268.4,347.7 268.4,347.7 268.4,347.6 			"/>
			<polygon fill="#1C75BC" points="323.1,402.2 349,376.3 349,347.4 323.1,373.3 			"/>
			<polygon fill="#1C75BC" points="297.2,370.9 282.7,385.2 282.7,413.9 282.9,414 308.6,388.2 308.6,387.9 297.2,376.3 			"/>
			<polygon fill="#1C75BC" points="297.2,370.9 297.2,376.3 308.6,387.9 308.6,359.3 			"/>
			<polygon fill="#1C75BC" points="416.3,333.4 430.6,347.7 430.6,347.6 430.6,347.4 442.2,335.8 442.2,307 416.3,333.1 			"/>
			<polygon fill="#1C75BC" points="401.9,347.7 401.9,347.7 401.9,347.7 375.9,373.6 375.9,402.5 390.4,388.2 390.4,359.3 			"/>
			<polygon fill="#1C75BC" points="401.9,347.7 401.9,347.7 401.9,347.6 			"/>
			<polygon fill="#1C75BC" points="456.5,402.2 482.5,376.3 482.5,347.4 456.5,373.3 			"/>
			<polygon fill="#1C75BC" points="430.6,370.9 416.3,385.2 416.3,413.9 416.5,414 442.2,388.2 442.2,387.9 430.6,376.3 			"/>
			<polygon fill="#1C75BC" points="430.6,370.9 430.6,376.3 442.2,387.9 442.2,359.3 			"/>
			<polygon fill="#1C75BC" points="15.7,466 30,480.3 30.1,480.3 30.1,480 41.6,468.5 41.6,439.8 15.7,465.7 			"/>
			<polygon fill="#1C75BC" points="1.4,480.3 1.4,480.3 1.4,480.3 -24.5,506.2 -24.5,535.1 -10.2,520.8 -10.2,491.9 			"/>
			<path fill="#1C75BC" d="M1.4,480.3L1.4,480.3L1.4,480.3z"/>
			<polygon fill="#1C75BC" points="56.1,535 82,509.1 82,480 56.1,506.1 			"/>
			<polygon fill="#1C75BC" points="30.1,503.5 15.7,517.8 15.7,546.5 15.8,546.7 41.6,521 41.6,520.5 30.1,509.1 			"/>
			<polygon fill="#1C75BC" points="30.1,503.5 30.1,509.1 41.6,520.5 41.6,491.9 			"/>
			<polygon fill="#1C75BC" points="149.3,466 163.6,480.3 163.6,480.3 163.6,480 175.2,468.5 175.2,439.8 149.3,465.7 			"/>
			<polygon fill="#1C75BC" points="134.8,480.3 134.8,480.3 134.8,480.3 108.9,506.2 108.9,535.1 123.3,520.8 123.3,491.9 			"/>
			<path fill="#1C75BC" d="M134.8,480.3L134.8,480.3L134.8,480.3z"/>
			<polygon fill="#1C75BC" points="189.5,535 215.4,509.1 215.4,480 189.5,506.1 			"/>
			<polygon fill="#1C75BC" points="163.6,503.5 149.3,517.8 149.3,546.5 149.4,546.7 175.2,521 175.2,520.5 163.6,509.1 			"/>
			<polygon fill="#1C75BC" points="163.6,503.5 163.6,509.1 175.2,520.5 175.2,491.9 			"/>
			<polygon fill="#1C75BC" points="282.7,466 297,480.3 297.2,480.3 297.2,480 308.6,468.5 308.6,439.8 282.7,465.7 			"/>
			<polygon fill="#1C75BC" points="268.4,480.3 268.4,480.3 268.4,480.3 242.5,506.2 242.5,535.1 256.8,520.8 256.8,491.9 			"/>
			<path fill="#1C75BC" d="M268.4,480.3L268.4,480.3L268.4,480.3z"/>
			<polygon fill="#1C75BC" points="323.1,535 349,509.1 349,480 323.1,506.1 			"/>
			<polygon fill="#1C75BC" points="297.2,503.5 282.7,517.8 282.7,546.5 282.9,546.7 308.6,521 308.6,520.5 297.2,509.1 			"/>
			<polygon fill="#1C75BC" points="297.2,503.5 297.2,509.1 308.6,520.5 308.6,491.9 			"/>
			<polygon fill="#1C75BC" points="416.3,466 430.6,480.3 430.6,480.3 430.6,480 442.2,468.5 442.2,439.8 416.3,465.7 			"/>
			<polygon fill="#1C75BC" points="401.9,480.3 401.9,480.3 401.9,480.3 375.9,506.2 375.9,535.1 390.4,520.8 390.4,491.9 			"/>
			<path fill="#1C75BC" d="M401.9,480.3L401.9,480.3L401.9,480.3z"/>
			<polygon fill="#1C75BC" points="456.5,535 482.5,509.1 482.5,480 456.5,506.1 			"/>
			<polygon fill="#1C75BC" points="430.6,503.5 416.3,517.8 416.3,546.5 416.5,546.7 442.2,521 442.2,520.5 430.6,509.1 			"/>
			<polygon fill="#1C75BC" points="430.6,503.5 430.6,509.1 442.2,520.5 442.2,491.9 			"/>
			<polygon fill="#1C75BC" points="15.7,598.7 30,613 30.1,612.9 30.1,612.8 41.6,601.1 41.6,572.4 15.7,598.3 			"/>
			<polygon fill="#1C75BC" points="1.4,613 1.4,613 1.4,612.9 -24.5,638.8 -24.5,667.9 -10.2,653.6 -10.2,624.7 			"/>
			<path fill="#1C75BC" d="M1.4,612.9v0.1V612.9z"/>
			<polygon fill="#1C75BC" points="56.1,667.6 82,641.7 82,612.8 56.1,638.7 			"/>
			<polygon fill="#1C75BC" points="30.1,636.1 15.7,650.6 15.7,679.5 41.6,653.6 41.6,653.3 30.1,641.7 			"/>
			<polygon fill="#1C75BC" points="30.1,636.1 30.1,641.7 41.6,653.3 41.6,624.7 			"/>
			<polygon fill="#1C75BC" points="149.3,598.7 163.6,613 163.6,612.9 163.6,612.8 175.2,601.1 175.2,572.4 149.3,598.3 			"/>
			<polygon fill="#1C75BC" points="134.8,613 134.8,613 134.8,612.9 108.9,638.8 108.9,667.9 123.3,653.6 123.3,624.7 			"/>
			<path fill="#1C75BC" d="M134.8,612.9v0.1V612.9z"/>
			<polygon fill="#1C75BC" points="189.5,667.6 215.4,641.7 215.4,612.8 189.5,638.7 			"/>
			<polygon fill="#1C75BC" points="163.6,636.1 149.3,650.6 149.3,679.5 175.2,653.6 175.2,653.3 163.6,641.7 			"/>
			<polygon fill="#1C75BC" points="163.6,636.1 163.6,641.7 175.2,653.3 175.2,624.7 			"/>
			<polygon fill="#1C75BC" points="282.7,598.7 297,613 297.2,612.9 297.2,612.8 308.6,601.1 308.6,572.4 282.7,598.3 			"/>
			<polygon fill="#1C75BC" points="268.4,613 268.4,613 268.4,612.9 242.5,638.8 242.5,667.9 256.8,653.6 256.8,624.7 			"/>
			<path fill="#1C75BC" d="M268.4,612.9v0.1V612.9z"/>
			<polygon fill="#1C75BC" points="323.1,667.6 349,641.7 349,612.8 323.1,638.7 			"/>
			<polygon fill="#1C75BC" points="297.2,636.1 282.7,650.6 282.7,679.5 308.6,653.6 308.6,653.3 297.2,641.7 			"/>
			<polygon fill="#1C75BC" points="297.2,636.1 297.2,641.7 308.6,653.3 308.6,624.7 			"/>
			<polygon fill="#1C75BC" points="416.3,598.7 430.6,613 430.6,612.9 430.6,612.8 442.2,601.1 442.2,572.4 416.3,598.3 			"/>
			<polygon fill="#1C75BC" points="401.9,613 401.9,613 401.9,612.9 375.9,638.8 375.9,667.9 390.4,653.6 390.4,624.7 			"/>
			<path fill="#1C75BC" d="M401.9,612.9v0.1V612.9z"/>
			<polygon fill="#1C75BC" points="456.5,667.6 482.5,641.7 482.5,612.8 456.5,638.7 			"/>
			<polygon fill="#1C75BC" points="430.6,636.1 416.3,650.6 416.3,679.5 442.2,653.6 442.2,653.3 430.6,641.7 			"/>
			<polygon fill="#1C75BC" points="430.6,636.1 430.6,641.7 442.2,653.3 442.2,624.7 			"/>
			
				<rect x="63.8" y="262.3" transform="matrix(-0.7071 0.7071 -0.7071 -0.7071 338.7523 420.99)" fill="#1C75BC" width="36.7" height="36.7"/>
			
				<rect x="196.2" y="262.3" transform="matrix(-0.7071 -0.7071 0.7071 -0.7071 167.764 630.7912)" fill="#1C75BC" width="36.7" height="36.7"/>
			
				<rect x="328.4" y="262.3" transform="matrix(-0.7071 -0.7071 0.7071 -0.7071 393.4728 724.1786)" fill="#1C75BC" width="36.7" height="36.7"/>
			
				<rect x="63.9" y="394.5" transform="matrix(0.7071 0.7071 -0.7071 0.7071 316.0343 62.7441)" fill="#1C75BC" width="36.7" height="36.7"/>
			
				<rect x="196.1" y="394.6" transform="matrix(-0.7071 -0.7071 0.7071 -0.7071 74.1344 856.5989)" fill="#1C75BC" width="36.7" height="36.7"/>
			
				<rect x="328.3" y="394.5" transform="matrix(-0.7071 -0.7071 0.7071 -0.7071 299.8436 949.9868)" fill="#1C75BC" width="36.7" height="36.7"/>
			
				<rect x="63.9" y="526.8" transform="matrix(0.7071 -0.7071 0.7071 0.7071 -361.3977 217.86)" fill="#1C75BC" width="36.7" height="36.7"/>
			
				<rect x="196.1" y="526.8" transform="matrix(0.7071 0.7071 -0.7071 0.7071 448.2535 8.0328)" fill="#1C75BC" width="36.7" height="36.7"/>
			
				<rect x="328.4" y="526.8" transform="matrix(0.7071 0.7071 -0.7071 0.7071 487.0367 -85.5028)" fill="#1C75BC" width="36.7" height="36.7"/>
		</g>
	</g>
</g>
<g id="Layer_1">
	<g id="Layer_2_1_">
		<g id="Layer_3_1_">
			<g>
				
					<rect x="-2.7" y="156.1" transform="matrix(0.7071 0.7071 -0.7071 0.7071 127.9032 40.0437)" fill="#00AEEF" width="36.7" height="36.7"/>
				
					<rect x="-42.9" y="196.7" transform="matrix(0.7071 0.7071 -0.7071 0.7071 144.8418 80.3757)" fill="#00AEEF" width="36.7" height="36.7"/>
				
					<rect x="37.6" y="196.4" transform="matrix(-0.7071 0.7071 -0.7071 -0.7071 247.4439 327.0129)" fill="#00AEEF" width="36.7" height="36.7"/>
				
					<rect x="-2.7" y="208.2" transform="matrix(0.7071 0.7071 -0.7071 0.7071 164.8062 55.2989)" fill="#00AEEF" width="36.7" height="36.7"/>
				
					<rect x="130.8" y="156.1" transform="matrix(0.7071 0.7071 -0.7071 0.7071 167.0623 -54.3966)" fill="#00AEEF" width="36.7" height="36.7"/>
				
					<rect x="90.5" y="196.6" transform="matrix(0.7071 0.7071 -0.7071 0.7071 183.9006 -14.02)" fill="#00AEEF" width="36.7" height="36.7"/>
				
					<rect x="171.2" y="196.4" transform="matrix(-0.7071 0.7071 -0.7071 -0.7071 475.4318 232.4803)" fill="#00AEEF" width="36.7" height="36.7"/>
				
					<rect x="130.9" y="208.3" transform="matrix(0.7071 0.7071 -0.7071 0.7071 203.9653 -39.1399)" fill="#00AEEF" width="36.7" height="36.7"/>
				
					<rect x="264.3" y="156.1" transform="matrix(0.7071 0.7071 -0.7071 0.7071 206.1211 -148.7951)" fill="#00AEEF" width="36.7" height="36.7"/>
				
					<rect x="224.1" y="196.7" transform="matrix(0.7071 0.7071 -0.7071 0.7071 223.0597 -108.457)" fill="#00AEEF" width="36.7" height="36.7"/>
				
					<rect x="304.7" y="196.4" transform="matrix(-0.7071 0.7071 -0.7071 -0.7071 703.3194 138.1892)" fill="#00AEEF" width="36.7" height="36.7"/>
				
					<rect x="264.4" y="208.2" transform="matrix(0.7071 0.7071 -0.7071 0.7071 243.0242 -133.5369)" fill="#00AEEF" width="36.7" height="36.7"/>
				
					<rect x="397.9" y="156.1" transform="matrix(0.7071 0.7071 -0.7071 0.7071 245.2802 -243.2354)" fill="#00AEEF" width="36.7" height="36.7"/>
				
					<rect x="357.6" y="196.6" transform="matrix(0.7071 0.7071 -0.7071 0.7071 262.1185 -202.8527)" fill="#00AEEF" width="36.7" height="36.7"/>
				
					<rect x="438.3" y="196.4" transform="matrix(-0.7071 0.7071 -0.7071 -0.7071 931.3071 43.6565)" fill="#00AEEF" width="36.7" height="36.7"/>
				
					<rect x="398" y="208.3" transform="matrix(0.7071 -0.7071 0.7071 0.7071 -38.3391 360.7573)" fill="#00AEEF" width="36.7" height="36.7"/>
				
					<rect x="-2.6" y="288.7" transform="matrix(-0.7071 0.7071 -0.7071 -0.7071 244.0217 513.0691)" fill="#00AEEF" width="36.7" height="36.7"/>
				
					<rect x="-42.9" y="329.3" transform="matrix(0.7071 0.7071 -0.7071 0.7071 238.625 119.1742)" fill="#00AEEF" width="36.7" height="36.7"/>
				
					<rect x="37.6" y="329" transform="matrix(-0.7071 0.7071 -0.7071 -0.7071 341.1454 553.4381)" fill="#00AEEF" width="36.7" height="36.7"/>
				
					<rect x="-2.6" y="340.9" transform="matrix(-0.7071 0.7071 -0.7071 -0.7071 280.8056 602.1327)" fill="#00AEEF" width="36.7" height="36.7"/>
				
					<rect x="130.9" y="288.8" transform="matrix(-0.7071 0.7071 -0.7071 -0.7071 471.9091 418.7829)" fill="#00AEEF" width="36.7" height="36.7"/>
				
					<rect x="90.6" y="329.3" transform="matrix(-0.7071 -0.7071 0.7071 -0.7071 -59.7975 670.509)" fill="#00AEEF" width="36.7" height="36.7"/>
				
					<rect x="171.2" y="329" transform="matrix(-0.7071 0.7071 -0.7071 -0.7071 569.133 458.9053)" fill="#00AEEF" width="36.7" height="36.7"/>
				
					<rect x="130.8" y="340.9" transform="matrix(0.7071 -0.7071 0.7071 0.7071 -210.3417 210.72)" fill="#00AEEF" width="36.7" height="36.7"/>
				
					<rect x="264.4" y="288.7" transform="matrix(-0.7071 0.7071 -0.7071 -0.7071 699.8972 324.2548)" fill="#00AEEF" width="36.7" height="36.7"/>
				
					<rect x="224.1" y="329.2" transform="matrix(-0.7071 -0.7071 0.7071 -0.7071 168.0902 764.7985)" fill="#00AEEF" width="36.7" height="36.7"/>
				
					<rect x="304.7" y="329" transform="matrix(-0.7071 0.7071 -0.7071 -0.7071 797.0206 364.6142)" fill="#00AEEF" width="36.7" height="36.7"/>
				
					<rect x="264.3" y="341" transform="matrix(0.7071 -0.7071 0.7071 0.7071 -171.2828 305.117)" fill="#00AEEF" width="36.7" height="36.7"/>
				
					<rect x="398" y="288.8" transform="matrix(0.7071 -0.7071 0.7071 0.7071 -95.222 384.3253)" fill="#00AEEF" width="36.7" height="36.7"/>
				
					<rect x="357.6" y="329.2" transform="matrix(0.7071 0.7071 -0.7071 0.7071 355.9017 -164.0542)" fill="#00AEEF" width="36.7" height="36.7"/>
				
					<rect x="438.2" y="329.2" transform="matrix(-0.7071 -0.7071 0.7071 -0.7071 533.705 916.0634)" fill="#00AEEF" width="36.7" height="36.7"/>
				
					<rect x="397.9" y="340.9" transform="matrix(0.7071 -0.7071 0.7071 0.7071 -132.124 399.5558)" fill="#00AEEF" width="36.7" height="36.7"/>
				
					<rect x="-2.6" y="421.3" transform="matrix(-0.7071 0.7071 -0.7071 -0.7071 337.7185 739.4944)" fill="#00AEEF" width="36.7" height="36.7"/>
				
					<rect x="-42.9" y="462" transform="matrix(0.7071 0.7071 -0.7071 0.7071 332.4495 158.0728)" fill="#00AEEF" width="36.7" height="36.7"/>
				
					<rect x="37.7" y="461.7" transform="matrix(0.7071 0.7071 -0.7071 0.7071 355.8726 100.953)" fill="#00AEEF" width="36.7" height="36.7"/>
				
					<rect x="-2.7" y="473.7" transform="matrix(0.7071 -0.7071 0.7071 0.7071 -343.327 155.1799)" fill="#00AEEF" width="36.7" height="36.7"/>
				
					<rect x="130.9" y="421.4" transform="matrix(-0.7071 -0.7071 0.7071 -0.7071 -56.1325 856.156)" fill="#00AEEF" width="36.7" height="36.7"/>
				
					<rect x="90.5" y="461.9" transform="matrix(0.7071 0.7071 -0.7071 0.7071 371.5085 63.6771)" fill="#00AEEF" width="36.7" height="36.7"/>
				
					<rect x="171.2" y="461.7" transform="matrix(0.7071 0.7071 -0.7071 0.7071 394.9314 6.5512)" fill="#00AEEF" width="36.7" height="36.7"/>
				
					<rect x="130.9" y="473.6" transform="matrix(0.7071 -0.7071 0.7071 0.7071 -304.1678 249.6186)" fill="#00AEEF" width="36.7" height="36.7"/>
				
					<rect x="264.5" y="421.4" transform="matrix(-0.7071 -0.7071 0.7071 -0.7071 171.8552 950.6843)" fill="#00AEEF" width="36.7" height="36.7"/>
				
					<rect x="224.1" y="462" transform="matrix(0.7071 0.7071 -0.7071 0.7071 410.6674 -30.7599)" fill="#00AEEF" width="36.7" height="36.7"/>
				
					<rect x="304.8" y="461.7" transform="matrix(0.7071 0.7071 -0.7071 0.7071 434.0903 -87.8919)" fill="#00AEEF" width="36.7" height="36.7"/>
				
					<rect x="264.4" y="473.7" transform="matrix(0.7071 -0.7071 0.7071 0.7071 -265.109 344.0158)" fill="#00AEEF" width="36.7" height="36.7"/>
				
					<rect x="397.9" y="421.4" transform="matrix(0.7071 -0.7071 0.7071 0.7071 -189.0082 423.1237)" fill="#00AEEF" width="36.7" height="36.7"/>
				
					<rect x="357.6" y="461.9" transform="matrix(0.7071 0.7071 -0.7071 0.7071 449.7263 -125.1556)" fill="#00AEEF" width="36.7" height="36.7"/>
				
					<rect x="438.3" y="461.8" transform="matrix(-0.7071 -0.7071 0.7071 -0.7071 440.0037 1142.4886)" fill="#00AEEF" width="36.7" height="36.7"/>
				
					<rect x="397.9" y="473.6" transform="matrix(0.7071 -0.7071 0.7071 0.7071 -225.9501 438.4545)" fill="#00AEEF" width="36.7" height="36.7"/>
				
					<rect x="-2.6" y="554.1" transform="matrix(-0.7071 -0.7071 0.7071 -0.7071 -377.9586 988.395)" fill="#00AEEF" width="36.7" height="36.7"/>
				
					<rect x="-42.9" y="594.6" transform="matrix(0.7071 -0.7071 0.7071 0.7071 -440.5865 162.1828)" fill="#00AEEF" width="36.7" height="36.7"/>
				
					<rect x="37.6" y="594.4" transform="matrix(-0.7071 -0.7071 0.7071 -0.7071 -337.8027 1085.6575)" fill="#00AEEF" width="36.7" height="36.7"/>
				
					<rect x="-2.6" y="606.3" transform="matrix(-0.7071 -0.7071 0.7071 -0.7071 -414.7464 1077.4786)" fill="#00AEEF" width="36.7" height="36.7"/>
				
					<rect x="130.8" y="554.1" transform="matrix(-0.7071 -0.7071 0.7071 -0.7071 -150.071 1082.6813)" fill="#00AEEF" width="36.7" height="36.7"/>
				
					<rect x="90.6" y="594.6" transform="matrix(0.7071 -0.7071 0.7071 0.7071 -401.5276 256.5844)" fill="#00AEEF" width="36.7" height="36.7"/>
				
					<rect x="171.2" y="594.5" transform="matrix(-0.7071 -0.7071 0.7071 -0.7071 -109.8148 1180.1901)" fill="#00AEEF" width="36.7" height="36.7"/>
				
					<rect x="130.9" y="606.2" transform="matrix(-0.7071 -0.7071 0.7071 -0.7071 -186.8589 1171.7666)" fill="#00AEEF" width="36.7" height="36.7"/>
				
					<rect x="264.4" y="554.1" transform="matrix(-0.7071 -0.7071 0.7071 -0.7071 77.9166 1177.2096)" fill="#00AEEF" width="36.7" height="36.7"/>
				
					<rect x="224.1" y="594.7" transform="matrix(0.7071 -0.7071 0.7071 0.7071 -362.4687 350.9861)" fill="#00AEEF" width="36.7" height="36.7"/>
				
					<rect x="304.6" y="594.4" transform="matrix(-0.7071 -0.7071 0.7071 -0.7071 118.0729 1274.481)" fill="#00AEEF" width="36.7" height="36.7"/>
				
					<rect x="264.5" y="606.3" transform="matrix(-0.7071 -0.7071 0.7071 -0.7071 41.1289 1266.296)" fill="#00AEEF" width="36.7" height="36.7"/>
				
					<rect x="397.9" y="554.1" transform="matrix(-0.7071 -0.7071 0.7071 -0.7071 305.8043 1271.4958)" fill="#00AEEF" width="36.7" height="36.7"/>
				
					<rect x="357.7" y="594.6" transform="matrix(0.7071 -0.7071 0.7071 0.7071 -323.3096 445.4293)" fill="#00AEEF" width="36.7" height="36.7"/>
				
					<rect x="438.2" y="594.5" transform="matrix(-0.7071 -0.7071 0.7071 -0.7071 346.0608 1369.0135)" fill="#00AEEF" width="36.7" height="36.7"/>
				
					<rect x="397.9" y="606.2" transform="matrix(-0.7071 -0.7071 0.7071 -0.7071 269.0167 1360.584)" fill="#00AEEF" width="36.7" height="36.7"/>
			</g>
		</g>
	</g>
</g>
</svg>
