<?xml version="1.0" encoding="utf-8"?>
<!-- Generator: Adobe Illustrator 18.0.0, SVG Export Plug-In . SVG Version: 6.00 Build 0)  -->
<!DOCTYPE svg PUBLIC "-//W3C//DTD SVG 1.1//EN" "http://www.w3.org/Graphics/SVG/1.1/DTD/svg11.dtd">
<svg version="1.1" xmlns="http://www.w3.org/2000/svg" xmlns:xlink="http://www.w3.org/1999/xlink" x="0px" y="0px"
	 viewBox="90 180 432 432" enable-background="new 90 180 432 432" xml:space="preserve">
<g id="Layer_4">
	<g>
		<path d="M523.8,179l-14,14.9l-14.5,15.5l-66.8,71.2c-1-1.1-2.1-2.2-3.2-3.2c-0.5-0.5-1-1-1.5-1.5c-0.9-0.9-1.9-1.8-2.8-2.6
			c-1.3-1.2-2.7-2.4-4-3.5c-1.3-1.1-2.6-2.2-3.9-3.2c-1.4-1.2-2.9-2.3-4.4-3.4c-1.6-1.2-3.3-2.4-5-3.6c-1.5-1-3-2-4.5-3
			c-2.2-1.4-4.3-2.8-6.6-4.1c-1.4-0.8-2.8-1.6-4.3-2.4c-2.6-1.4-5.2-2.8-7.9-4.1c-1.5-0.7-3-1.4-4.5-2.1c-3.2-1.4-6.4-2.8-9.7-4
			c-1.4-0.5-2.8-1-4.2-1.5c-3.6-1.2-7.3-2.4-11-3.4c-1.5-0.4-2.9-0.8-4.4-1.1c-4.1-1-8.3-1.8-12.6-2.5c-1.4-0.2-2.9-0.4-4.3-0.6
			c-4.3-0.6-8.7-1-13.1-1.2c-1.3-0.1-2.7-0.1-4.1-0.2c-1.8-0.1-3.5-0.1-5.3-0.1c-1.5,0-2.9,0-4.4,0.1c-0.1,0-0.3,0-0.4,0
			c-1.2,0-2.4,0.1-3.6,0.1c-1.4,0.1-2.9,0.2-4.3,0.3c-4.4,0.3-8.7,0.8-13,1.5c-1.4,0.2-2.7,0.4-4.1,0.7c-4.2,0.7-8.3,1.6-12.4,2.7
			c-1.5,0.4-3,0.8-4.4,1.2c-3.6,1-7.2,2.2-10.8,3.5c-1.5,0.5-3,1.1-4.5,1.7c-3.2,1.3-6.4,2.6-9.5,4.1c-1.4,0.7-2.9,1.4-4.3,2.1
			c-2.6,1.3-5.1,2.7-7.7,4.1c-1.5,0.9-3.1,1.8-4.6,2.7c-2.1,1.3-4.1,2.6-6.2,3.9c-1.4,1-2.8,1.9-4.2,3c-1.7,1.2-3.3,2.4-4.9,3.7
			c-1.5,1.2-3,2.3-4.4,3.5c-1.2,1-2.4,2-3.6,3.1c-1.4,1.3-2.9,2.6-4.3,3.9c-0.9,0.9-1.8,1.7-2.7,2.6c-1.5,1.5-3,3-4.5,4.5
			c-0.8,0.9-1.7,1.8-2.5,2.7c-1.3,1.4-2.5,2.9-3.8,4.3c-1,1.2-2,2.4-2.9,3.6c-1.1,1.4-2.2,2.8-3.2,4.2c-1.2,1.6-2.3,3.2-3.5,4.9
			c-1,1.5-2.1,3-3.1,4.6c-1.3,2-2.5,4-3.7,6.1c-0.8,1.4-1.7,2.9-2.5,4.4c-1.4,2.5-2.7,5-3.9,7.5c-0.7,1.4-1.4,2.9-2,4.4
			c-1.3,3-2.6,6-3.8,9.1c-0.5,1.4-1.1,2.9-1.6,4.3c-1.2,3.6-2.4,7.2-3.4,10.8c-0.4,1.5-0.8,3-1.2,4.6c-1,4-1.8,8-2.5,12.1
			c-0.3,1.5-0.5,3-0.7,4.5c-0.6,4.3-1,8.6-1.3,13c-0.1,1.5-0.2,3-0.2,4.5c-0.1,2.1-0.1,4.3-0.1,6.4c0,2.3,0.1,4.6,0.2,6.9
			c0.1,1.5,0.1,3,0.2,4.5c0.3,4.4,0.8,8.7,1.4,13c0.2,1.3,0.4,2.7,0.6,4c0.7,3.9,1.5,7.7,2.4,11.5c0.3,1.4,0.7,2.9,1.1,4.3
			c1,3.6,2.1,7.1,3.3,10.6c0.5,1.5,1,2.9,1.6,4.3c1.2,3.2,2.5,6.3,3.8,9.4c0.7,1.6,1.4,3.1,2.2,4.7c1.2,2.6,2.5,5.1,3.9,7.6
			c0.8,1.5,1.6,2.9,2.5,4.4c1.2,2.1,2.5,4.2,3.9,6.3c1,1.5,2,3.1,3.1,4.6c1.1,1.6,2.2,3.2,3.4,4.8c1.1,1.4,2.1,2.8,3.2,4.2
			c1,1.2,2,2.5,3,3.7c1.2,1.5,2.5,2.9,3.8,4.3c0.8,0.9,1.6,1.8,2.4,2.6c0.8,0.9,1.7,1.8,2.6,2.7c0.3,0.3,0.6,0.6,0.9,1l-69.1,67.5
			l-11.5,11.3l-3.4,3.4L89.1,614l-2.4,2.4h22.6l1-1.2l12.5-14.9l12-14.3l55.8-66.4c1.7,1.6,3.4,3.2,5.2,4.8L138.1,586l-13.4,14.3
			l-13.9,14.9l-1.1,1.2h22.5l0.9-1.2l11.3-14.9l10.8-14.3l44.3-58.5c1.3,1.1,2.7,2.2,4.1,3.3L157.7,586l-11.9,14.3l-12.4,14.9
			l-1,1.2h23.1l0.8-1.2l9.7-14.9l9.3-14.3l33.4-51.5c1.4,1,2.8,2,4.2,2.9l-35,48.5l-10.3,14.3l-10.7,14.9l-0.9,1.2h22.5l0.6-1.2
			l8.1-14.9l7.8-14.3l24.2-44.5c1.4,0.9,2.8,1.7,4.2,2.5l-25.9,42l-8.8,14.3l-9.2,14.9l-0.7,1.2h22.5l0.5-1.2l6.5-14.9l6.3-14.3
			l16.6-37.8c1.4,0.7,2.8,1.4,4.2,2.1L217,586l-7.3,14.3l-7.6,14.9l-0.6,1.2h22.5l0.4-1.2l5-14.9l4.8-14.3l10.6-31.7
			c1.4,0.6,2.8,1.1,4.2,1.6l-12.2,30l-5.8,14.3l-6.1,14.9l-0.5,1.2h22.5l0.3-1.2l3.4-14.9l3.3-14.3l6-26.4c1.4,0.4,2.7,0.8,4.1,1.1
			l-7.6,25.3l-4.3,14.3l-4.5,14.9l-0.4,1.2h22.5l0.1-1.2l1.8-14.9l1.8-14.3l2.8-22.5c1.3,0.2,2.7,0.5,4,0.7l-4.3,21.8l-2.8,14.3
			l-2.9,14.9l-0.2,1.2h23.7l0-1.2l0.1-14.9l0.1-14.3l0.2-20.2c1.5,0.1,3,0.2,4.5,0.3l-1.8,19.9l-1.3,14.3l-1.4,14.9l-0.1,1.2h23.1
			l-0.1-1.2l-1.4-14.9l-1.3-14.3l-1.8-19.8c1.4,0,2.8-0.1,4.2-0.2l0.3,19.9l0.2,14.3l0.2,14.9l0,1.2h23.1l-0.2-1.2l-2.9-14.9
			l-2.8-14.3l-4.2-21.2c1.3-0.2,2.7-0.4,4-0.6l2.7,21.8l1.8,14.3l1.8,14.9l0.1,1.2h22.5l-0.4-1.2l-4.5-14.9L354,586l-7.3-24.3
			c1.4-0.3,2.7-0.7,4.1-1l5.8,25.3l3.3,14.3l3.4,14.9l0.3,1.2h22.5l-0.5-1.2l-6.1-14.9l-5.8-14.3l-11.7-28.7c1.4-0.5,2.8-1,4.1-1.5
			l10.1,30.2l4.8,14.3l5,14.9l0.4,1.2h22.5l-0.6-1.2l-7.6-14.9l-7.3-14.3l-17.5-34.2c1.4-0.6,2.8-1.3,4.2-1.9l15.8,36.1l6.3,14.3
			l6.5,14.9l0.5,1.2h22.5l-0.7-1.2l-9.2-14.9l-8.8-14.3L388,545.8c1.4-0.8,2.9-1.6,4.3-2.4l23.1,42.7l7.7,14.3l8.1,14.9l0.6,1.2
			h22.7l-0.9-1.2l-10.7-14.9L432.6,586l-33.7-46.7c1.5-1,3-2,4.4-3l32,49.7l9.2,14.3l9.6,14.9l0.8,1.2h23.5l-1-1.2L465,600.3
			L453.1,586l-44.5-53.6c1.4-1,2.7-2.1,4.1-3.2l43,56.8l10.8,14.3l11.3,14.9l0.9,1.2h22.4l-1.1-1.2l-13.9-14.9L472.7,586l-56.1-60
			c1.3-1.1,2.7-2.3,4-3.5l54.7,63.4l12.3,14.3l12.9,14.9l1,1.2h22.4l-1.2-1.2l-15.5-14.9L492.2,586l-68.8-66.1
			c2.1-2,4.2-4.1,6.2-6.2l65.9,71.4l14.1,15.3l13.7,14.9l0.7,0.8v-0.8v-22.7l-13.7-12.2l-14.9-13.3l-63.1-56.3
			c1.2-1.3,2.3-2.6,3.4-3.9l59.7,57.7l14.9,14.4l13.7,13.3v-22.4L510.4,559l-14.9-11.7L439,502.9c1.1-1.3,2.1-2.7,3.1-4l53.4,45.9
			l14.9,12.8l13.7,11.8v-23l-13.7-9.2l-14.9-10l-49.6-33.5c0.9-1.4,1.9-2.7,2.8-4.1l46.9,35.1l14.9,11.2l13.7,10.3v-22.4l-13.7-7.8
			l-14.9-8.5l-42.9-24.3c0.8-1.4,1.6-2.8,2.4-4.2l40.5,26l14.9,9.6l13.7,8.8V501l-13.7-6.3l-14.9-6.9L459.1,471
			c0.7-1.4,1.3-2.8,1.9-4.2l34.5,18.4l14.9,8l13.7,7.3v-23l-13.7-4.8l-14.9-5.2L465,457.1c0.5-1.4,1-2.7,1.5-4.1l28.9,12.2l14.9,6.3
			l13.7,5.8v-22.4l-13.7-3.3l-14.9-3.6l-25.5-6.2c0.4-1.3,0.7-2.7,1-4.1l24.5,7.7l14.9,4.7l13.7,4.3v-23l-13.7-1.8l-14.9-1.9
			l-21.9-2.9c0.2-1.3,0.4-2.7,0.6-4l21.3,4.4l14.9,3l13.7,2.8v-22.4l-13.7-0.3l-14.9-0.3l-20-0.5c0.1-1.3,0.1-2.6,0.2-4l19.8,1.9
			l14.9,1.5l13.7,1.3v-23l-13.7,1.2l-14.9,1.3l-19.9,1.8c-0.1-1.3-0.1-2.6-0.2-4l20.1-0.3l14.9-0.2l13.7-0.2v-22.4l-13.7,2.7
			l-14.9,2.9l-21.5,4.2c-0.2-1.3-0.4-2.7-0.6-4l22.2-2.7l14.9-1.8l13.7-1.7v-22.4l-13.7,4.1l-14.9,4.5l-24.8,7.5
			c-0.3-1.4-0.7-2.7-1.1-4.1l25.9-5.9l14.9-3.4l13.7-3.1v-23l-13.7,5.7l-14.9,6.2L466,340.9c-0.5-1.4-1-2.8-1.5-4.2l31-10.5
			l14.9-5.1l13.7-4.7v-22.4l-13.7,7.1l-14.9,7.8l-35,18.3c-0.6-1.4-1.3-2.8-2-4.2l37-16.5l14.9-6.7l13.7-6.1v-23l-13.7,8.7
			l-14.9,9.4L454.2,315c-0.8-1.4-1.6-2.8-2.4-4.2l43.7-24.4l14.9-8.3l13.7-7.7v-22.4l-13.7,10.1l-14.9,11l-47.7,35.3
			c-0.9-1.4-1.9-2.8-2.8-4.1l50.6-33.6l14.9-9.9l13.7-9.1v-23l-13.7,11.7l-14.9,12.7l-54.3,46.2c-1-1.4-2.1-2.7-3.2-4l57.5-44.7
			l14.9-11.6l13.7-10.6V202l-13.7,13.1l-14.9,14.3l-60.6,58.1c-1.2-1.4-2.5-2.8-3.7-4.2l64.3-56.6l14.9-13.1l13.7-12V179v-0.3
			L523.8,179z M402.7,318.7c1.7,1.7,3.4,3.4,5,5.1c0.2,0.3,0.5,0.5,0.7,0.8c1.6,1.8,3.2,3.6,4.7,5.5c0.4,0.5,0.8,1,1.2,1.5
			c1.5,1.9,2.9,3.8,4.3,5.8c0.6,0.8,1.2,1.7,1.8,2.6c1.3,2,2.6,4,3.8,6.1c0.7,1.2,1.4,2.4,2.1,3.6c1.1,2.1,2.2,4.1,3.3,6.3
			c0.8,1.6,1.6,3.2,2.3,4.9c0.9,2.1,1.8,4.2,2.7,6.4c0.7,1.9,1.5,3.9,2.1,5.9c0.7,2.1,1.4,4.3,2,6.5c0.6,2.3,1.2,4.5,1.7,6.9
			c0.5,2.1,0.9,4.3,1.3,6.5c0.4,2.5,0.8,5.1,1.1,7.7c0.2,2.1,0.4,4.3,0.6,6.4c0.2,2.6,0.3,5.2,0.3,7.8c0,0.5,0,0.9,0,1.4
			c0,1.7,0,3.3-0.1,5c-0.1,2.6-0.3,5.2-0.5,7.8c-0.2,2.1-0.4,4.2-0.7,6.2c-0.3,2.4-0.7,4.7-1.2,7c-0.4,2-0.8,4.1-1.3,6.1
			c-0.5,2.1-1.1,4.3-1.7,6.4c-0.6,2-1.2,3.9-1.9,5.9c-0.6,1.8-1.2,3.5-1.9,5.2c-0.7,1.9-1.5,3.8-2.4,5.7c-0.6,1.4-1.3,2.8-1.9,4.2
			c-0.9,1.8-1.8,3.7-2.8,5.5c-0.6,1.1-1.2,2.2-1.9,3.3c-1,1.8-2.1,3.5-3.2,5.2c-0.5,0.8-1,1.6-1.6,2.4c-1.1,1.7-2.3,3.3-3.5,4.9
			c-0.4,0.6-0.9,1.2-1.3,1.7c-2,2.7-4.2,5.3-6.4,7.8c-0.5,0.5-0.9,1.1-1.4,1.6c-1.4,1.5-2.7,2.9-4.2,4.4c-0.7,0.7-1.5,1.5-2.2,2.2
			c-1.4,1.4-2.9,2.7-4.4,4.1c-1.1,1-2.2,1.9-3.4,2.9c-1.6,1.3-3.3,2.6-4.9,3.9c-1.5,1.1-3,2.2-4.5,3.2c-1.6,1.1-3.3,2.2-4.9,3.2
			c-1.9,1.2-3.9,2.4-5.9,3.5c-1.6,0.9-3.2,1.8-4.9,2.6c-2.4,1.2-4.9,2.4-7.4,3.5c-1.6,0.7-3.3,1.4-5,2c-2.9,1.1-5.8,2.1-8.8,3.1
			c-1.6,0.5-3.3,1-5,1.4c-3.3,0.9-6.6,1.6-10,2.3c-1.6,0.3-3.3,0.6-5,0.8c-3.7,0.5-7.4,0.9-11.1,1.2c-1.7,0.1-3.5,0.2-5.3,0.3
			c-1.3,0-2.6,0.1-3.9,0.1c-2.5,0-5-0.1-7.5-0.2c-1.9-0.1-3.7-0.2-5.6-0.4c-3.8-0.4-7.6-0.9-11.3-1.5c-1.7-0.3-3.3-0.6-5-1
			c-3.3-0.7-6.6-1.6-9.8-2.5c-1.7-0.5-3.4-1-5-1.6c-2.9-1-5.7-2.1-8.5-3.2c-1.7-0.7-3.3-1.4-5-2.2c-2.4-1.1-4.7-2.3-7.1-3.5
			c-1.7-0.9-3.3-1.8-4.9-2.8c-1.9-1.1-3.7-2.3-5.6-3.5c-1.6-1.1-3.2-2.2-4.8-3.3c-1.4-1-2.8-2.1-4.2-3.2c-1.6-1.2-3.1-2.5-4.6-3.8
			c-1.1-0.9-2.1-1.8-3.1-2.8c-1.5-1.4-3-2.8-4.4-4.2c-0.7-0.7-1.4-1.4-2.1-2.1c-1.9-2-3.7-4-5.5-6c-0.4-0.5-0.8-0.9-1.2-1.4
			c-0.3-0.4-0.7-0.8-1-1.2c-0.9-1.1-1.7-2.2-2.6-3.3c-0.3-0.4-0.7-0.9-1-1.3c-1.3-1.8-2.6-3.6-3.8-5.5c-0.5-0.7-0.9-1.4-1.4-2.1
			c-1.1-1.8-2.2-3.6-3.3-5.4c-0.5-0.9-1.1-1.9-1.6-2.9c-1.1-2-2.1-4-3.1-6c-0.6-1.3-1.2-2.6-1.8-3.9c-0.9-1.9-1.7-3.9-2.5-5.9
			c-0.6-1.6-1.2-3.2-1.8-4.8c-0.7-2.1-1.4-4.3-2.1-6.5c-0.6-1.9-1.1-3.9-1.6-5.9c-0.5-2.1-1-4.2-1.4-6.3c-0.4-2.2-0.8-4.3-1.1-6.5
			c-0.3-2.1-0.6-4.3-0.8-6.4c-0.2-2.3-0.4-4.6-0.5-6.9c-0.1-2-0.1-4.1-0.1-6.1c0,0,0,0,0,0c0-2.5,0.1-4.9,0.2-7.4
			c0.1-2.4,0.3-4.7,0.6-7.1c0.3-2.4,0.6-4.8,0.9-7.2c0.4-2.4,0.8-4.8,1.3-7.1c0.5-2.2,1-4.4,1.6-6.5c0.6-2.4,1.3-4.8,2.1-7.1
			c0.6-1.9,1.3-3.7,1.9-5.6c0.9-2.4,1.8-4.7,2.9-7c0.7-1.5,1.3-3,2-4.4c1.1-2.2,2.2-4.3,3.3-6.4c0.6-1.1,1.2-2.1,1.8-3.2
			c1.2-2.1,2.5-4.2,3.9-6.2c0.5-0.7,1-1.5,1.5-2.2c1.4-2,2.8-4,4.3-5.9c0.3-0.4,0.7-0.9,1-1.3c1.6-2,3.3-4,5-6
			c0.2-0.2,0.3-0.4,0.5-0.6c8.3-9.3,17.9-17.4,28.5-24.1c0.1-0.1,0.3-0.2,0.4-0.3c2.1-1.3,4.3-2.6,6.5-3.9c0.3-0.2,0.7-0.4,1-0.6
			c2.4-1.3,4.8-2.5,7.3-3.7c0.6-0.3,1.1-0.5,1.7-0.8c2.3-1.1,4.7-2,7.1-3c0.8-0.3,1.7-0.6,2.5-0.9c2.6-0.9,5.2-1.8,7.8-2.6
			c1-0.3,2.1-0.6,3.2-0.9c2.6-0.7,5.3-1.4,8-1.9c1.3-0.3,2.6-0.5,3.9-0.7c2.5-0.4,5.1-0.8,7.7-1.1c1.4-0.2,2.8-0.3,4.2-0.4
			c2.7-0.2,5.5-0.4,8.2-0.5c1.2,0,2.4,0,3.5,0c0.3,0,0.6,0,0.9,0c2.6,0,5.2,0.1,7.7,0.3c1.4,0.1,2.8,0.2,4.2,0.3
			c2.7,0.3,5.5,0.6,8.2,1c1.3,0.2,2.6,0.4,4,0.7c2.7,0.5,5.4,1.1,8,1.7c1.1,0.3,2.2,0.6,3.3,0.9c2.5,0.7,4.9,1.4,7.4,2.3
			c0.9,0.3,1.8,0.6,2.7,0.9c2.6,0.9,5.1,1.9,7.6,3c0.6,0.3,1.3,0.5,1.9,0.8c2.3,1,4.6,2.1,6.9,3.3c0.4,0.2,0.8,0.4,1.2,0.6
			c2.4,1.3,4.7,2.6,6.9,3.9c0.2,0.1,0.4,0.2,0.5,0.3c4.9,3,9.7,6.4,14.2,10c3.4,2.7,6.6,5.6,9.7,8.6
			C402.6,318.6,402.6,318.7,402.7,318.7z"/>
		<path d="M364,338.6c-16.3-10.9-35.8-17.2-56.9-17.2c-47.7,0-87.7,32.5-99.2,76.6c0,0.2-0.1,0.3-0.1,0.5c-0.8,3.3-1.5,6.6-2,9.9
			c0,0.3-0.1,0.6-0.1,0.9c-0.4,2.9-0.7,5.8-0.9,8.7c0,0.3,0,0.7-0.1,1c-0.1,1.6-0.1,3.2-0.1,4.8c0,1.4,0,2.9,0.1,4.3
			c0,0.3,0,0.7,0,1c0.2,3,0.4,5.9,0.8,8.8c0,0.3,0.1,0.6,0.1,0.9c0.4,3,1,6,1.7,9c0,0.2,0.1,0.3,0.1,0.5c0.7,2.7,1.4,5.4,2.3,8
			c0,0,0,0.1,0,0.1c2.9,8.7,7,16.9,12,24.4c3.4,5,7.2,9.7,11.4,14.1c0.2,0.2,0.4,0.4,0.5,0.6c1.7,1.8,3.5,3.5,5.4,5.2
			c0.4,0.4,0.9,0.8,1.3,1.1c1.9,1.6,3.8,3.2,5.8,4.6c0.7,0.5,1.5,1.1,2.2,1.6c2,1.4,4.1,2.7,6.2,4c1.1,0.6,2.2,1.3,3.3,1.9
			c2.1,1.2,4.3,2.2,6.5,3.2c1.4,0.7,2.9,1.3,4.4,1.9c2.2,0.9,4.4,1.7,6.7,2.4c1.8,0.6,3.6,1.1,5.4,1.6c2.2,0.6,4.5,1.1,6.8,1.5
			c2.1,0.4,4.3,0.8,6.5,1c2.6,0.3,5.1,0.5,7.7,0.7c1.7,0.1,3.4,0.1,5.1,0.1c0.5,0,1,0,1.5,0c2.5,0,4.9-0.2,7.3-0.4
			c2.2-0.2,4.3-0.4,6.4-0.7c2.3-0.3,4.6-0.8,6.8-1.3c1.9-0.4,3.8-0.9,5.6-1.4c2.3-0.6,4.5-1.3,6.7-2.1c1.6-0.6,3.1-1.2,4.7-1.8
			c2.2-0.9,4.3-1.9,6.5-2.9c1.2-0.6,2.4-1.2,3.6-1.9c2.1-1.2,4.2-2.4,6.2-3.7c0.9-0.6,1.7-1.1,2.5-1.7c2.1-1.4,4.1-2.9,6-4.4
			c0.5-0.4,1-0.8,1.5-1.2c2-1.7,3.9-3.4,5.8-5.2c0.2-0.2,0.5-0.5,0.7-0.7c1.7-1.7,3.4-3.5,5-5.3c0,0,0.1-0.1,0.1-0.1
			c7.1-8.1,13-17.4,17.3-27.5c0,0,0-0.1,0.1-0.1c1-2.4,2-4.9,2.8-7.4c0.1-0.2,0.1-0.4,0.2-0.6c0.8-2.6,1.6-5.2,2.2-7.8
			c0.1-0.3,0.2-0.7,0.2-1c0.6-2.7,1.1-5.5,1.5-8.2c0.1-0.5,0.1-0.9,0.2-1.4c0.4-2.8,0.6-5.7,0.8-8.6c0-0.5,0-1.1,0.1-1.6
			c0-1.1,0.1-2.2,0.1-3.3c0-1.9-0.1-3.7-0.2-5.6c0-0.6-0.1-1.1-0.1-1.6c-0.2-3.1-0.6-6.1-1-9.1c-0.1-0.5-0.2-0.9-0.2-1.4
			c-0.5-3.1-1.2-6.2-2-9.2c-0.1-0.3-0.2-0.7-0.3-1c-0.9-3.1-1.9-6.1-3-9.1c0-0.1-0.1-0.2-0.1-0.3C395,366.9,381.4,350.2,364,338.6z"
			/>
	</g>
</g>
<g id="Layer_3">
	<polygon fill="#6D6E71" points="104,430.7 89.1,432.6 89.1,453.9 104,449.5 	"/>
	<polygon fill="#6D6E71" points="104,599 89.1,613.6 89.1,614 104,599.1 	"/>
	<polygon fill="#6D6E71" points="315.5,193.9 316.8,179 294,179 295.4,193.9 	"/>
	<polygon fill="#6D6E71" points="422.4,193.9 431.4,179 409.1,179 402.8,193.9 	"/>
	<polygon fill="#6D6E71" points="104,409.4 89.1,409.5 89.1,432.1 104,429.2 	"/>
	<polygon fill="#6D6E71" points="401.2,193.9 408.7,179 385.9,179 381,193.9 	"/>
	<polygon fill="#6D6E71" points="486.9,193.9 500.7,179 495.5,179 477.8,179 466.8,193.9 	"/>
	<polygon fill="#6D6E71" points="104,387.9 89.1,386.5 89.1,409 104,407.7 	"/>
	<polygon fill="#6D6E71" points="444,193.9 454.7,179 431.8,179 423.9,193.9 	"/>
	<polygon fill="#6D6E71" points="465.2,193.9 477.4,179 455.1,179 445.6,193.9 	"/>
	<polygon fill="#6D6E71" points="104,451.1 89.1,454.5 89.1,476.4 104,470.4 	"/>
	<polygon fill="#6D6E71" points="104,556.8 89.1,568.1 89.1,585.4 89.1,590.6 104,576.5 	"/>
	<polygon fill="#6D6E71" points="336.6,193.9 339.5,179 317.2,179 317,193.9 	"/>
	<polygon fill="#6D6E71" points="358.4,193.9 362.8,179 339.9,179 338.2,193.9 	"/>
	<polygon fill="#6D6E71" points="104,514.4 89.1,522.5 89.1,545 104,534.1 	"/>
	<polygon fill="#6D6E71" points="104,578.2 89.1,591.1 89.1,613.1 104,597.5 	"/>
	<polygon fill="#6D6E71" points="104,493.5 89.1,500 89.1,522 104,512.7 	"/>
	<polygon fill="#6D6E71" points="379.6,193.9 385.5,179 363.2,179 359.9,193.9 	"/>
	<polygon fill="#6D6E71" points="104,472 89.1,477 89.1,499.5 104,491.7 	"/>
	<polygon fill="#6D6E71" points="104,535.9 89.1,545.6 89.1,567.5 104,555.1 	"/>
	<polygon fill="#6D6E71" points="524.1,385.2 525.3,385.2 525.3,362.6 524.1,362.9 	"/>
	<polygon fill="#6D6E71" points="524.1,408.6 525.3,408.7 525.3,385.5 524.1,385.6 	"/>
	<polygon fill="#6D6E71" points="208.2,193.9 201.7,179 179.4,179 188.5,193.9 	"/>
	<polygon fill="#6D6E71" points="229.8,193.9 224.9,179 202,179 209.7,193.9 	"/>
	<polygon fill="#6D6E71" points="524.1,362.5 525.3,362.4 525.3,339.8 524.1,340.1 	"/>
	<polygon fill="#6D6E71" points="524.1,477.3 525.3,477.8 525.3,455.2 524.1,454.9 	"/>
	<polygon fill="#6D6E71" points="187,193.9 178.9,179 156.7,179 167.3,193.9 	"/>
	<polygon fill="#6D6E71" points="524.1,431.3 525.3,431.5 525.3,408.9 524.1,408.9 	"/>
	<polygon fill="#6D6E71" points="524.1,454.6 525.3,455 525.3,431.8 524.1,431.6 	"/>
	<polygon fill="#6D6E71" points="524.1,270.4 525.3,269.8 525.3,247.2 524.1,248.1 	"/>
	<polygon fill="#6D6E71" points="524.1,247.7 525.3,246.9 525.3,223.7 524.1,224.8 	"/>
	<polygon fill="#6D6E71" points="293.8,193.9 293.6,179 271.3,179 274.2,193.9 	"/>
	<polygon fill="#6D6E71" points="525.3,200.9 524.1,202 524.1,224.4 525.3,223.5 525.3,209.4 	"/>
	<polygon fill="#6D6E71" points="524.1,339.8 525.3,339.5 525.3,316.3 524.1,316.8 	"/>
	<polygon fill="#6D6E71" points="524.1,500.6 525.3,501.3 525.3,478.1 524.1,477.7 	"/>
	<polygon fill="#6D6E71" points="524.1,316.5 525.3,316.1 525.3,293.5 524.1,294.1 	"/>
	<polygon fill="#6D6E71" points="251,193.9 247.6,179 225.3,179 231.4,193.9 	"/>
	<polygon fill="#6D6E71" points="524.1,293.7 525.3,293.2 525.3,270 524.1,270.8 	"/>
	<polygon fill="#6D6E71" points="272.7,193.9 270.9,179 248,179 252.6,193.9 	"/>
	<polygon fill="#6D6E71" points="524.1,523.4 525.3,524.1 525.3,501.5 524.1,501 	"/>
	<polygon fill="#6D6E71" points="104,260.8 89.1,249.8 89.1,271.8 104,280 	"/>
	<polygon fill="#6D6E71" points="104,281.7 89.1,272.3 89.1,294.2 104,300.9 	"/>
	<polygon fill="#6D6E71" points="104,218.4 89.1,204.2 89.1,208.8 89.1,226.2 104,237.6 	"/>
	<polygon fill="#6D6E71" points="104,302.6 89.1,294.8 89.1,316.7 104,321.8 	"/>
	<polygon fill="#6D6E71" points="104,239.3 89.1,226.7 89.1,249.2 104,259 	"/>
	<polygon fill="#6D6E71" points="104,366.4 89.1,363.4 89.1,385.9 104,386.2 	"/>
	<polygon fill="#6D6E71" points="104,344.9 89.1,340.3 89.1,362.8 104,364.7 	"/>
	<polygon fill="#6D6E71" points="165.9,193.9 156.3,179 133.4,179 145.7,193.9 	"/>
	<polygon fill="#6D6E71" points="525.3,200.6 525.3,179 524.1,179 524.1,201.7 	"/>
	<polygon fill="#6D6E71" points="104,323.5 89.1,317.2 89.1,339.8 104,343.2 	"/>
	<polygon fill="#6D6E71" points="104,196.9 89.1,181.2 89.1,203.7 104,216.7 	"/>
	<polygon fill="#6D6E71" points="524.1,569.4 525.3,570.4 525.3,547.2 524.1,546.4 	"/>
	<polygon fill="#6D6E71" points="508,193.9 523.3,179 501.1,179 488.4,193.9 	"/>
	<polygon fill="#6D6E71" points="144.2,193.9 133,179 118.8,179 110.7,179 124.5,193.9 	"/>
	<polygon fill="#6D6E71" points="524.1,546.1 525.3,547 525.3,524.4 524.1,523.7 	"/>
	<polygon fill="#6D6E71" points="104,193.9 122.9,193.9 110.3,179 89.1,179 89.1,180.6 104,195 	"/>
	<polygon fill="#6D6E71" points="524.1,592.1 525.3,593.3 525.3,585.4 525.3,570.7 524.1,569.7 	"/>
	<polygon fill="#6D6E71" points="524.1,615.2 525.3,615.2 525.3,593.5 524.1,592.5 	"/>
	<polygon fill="#6D6E71" points="118.8,291 104,281.7 104,300.9 118.8,307.6 	"/>
	<polygon fill="#6D6E71" points="118.8,409.3 104,409.4 104,429.2 118.8,426.3 	"/>
	<polygon fill="#6D6E71" points="118.8,329.7 104,323.5 104,343.2 118.8,346.7 	"/>
	<polygon fill="#6D6E71" points="118.8,369.5 104,366.4 104,386.2 118.8,386.5 	"/>
	<polygon fill="#6D6E71" points="118.8,389.4 104,387.9 104,407.7 118.8,406.4 	"/>
	<polygon fill="#6D6E71" points="118.8,349.6 104,344.9 104,364.7 118.8,366.6 	"/>
	<polygon fill="#6D6E71" points="118.8,232.5 104,218.4 104,237.6 118.8,249.1 	"/>
	<polygon fill="#6D6E71" points="118.8,251.8 104,239.3 104,259 118.8,268.8 	"/>
	<polygon fill="#6D6E71" points="118.8,271.7 104,260.8 104,280 118.8,288.3 	"/>
	<polygon fill="#6D6E71" points="118.8,310.4 104,302.6 104,321.8 118.8,326.9 	"/>
	<polygon fill="#6D6E71" points="118.8,545.4 104,556.8 104,576.5 118.8,562.4 	"/>
	<polygon fill="#6D6E71" points="118.8,506.2 104,514.4 104,534.1 118.8,523.2 	"/>
	<polygon fill="#6D6E71" points="118.8,428.8 104,430.7 104,449.5 118.8,445 	"/>
	<polygon fill="#6D6E71" points="118.8,212.6 104,196.9 104,216.7 118.8,229.6 	"/>
	<polygon fill="#6D6E71" points="104,599 104,599.1 107.3,595.7 	"/>
	<polygon fill="#6D6E71" points="118.8,526.1 104,535.9 104,555.1 118.8,542.7 	"/>
	<polygon fill="#6D6E71" points="118.8,447.7 104,451.1 104,470.4 118.8,464.3 	"/>
	<polygon fill="#6D6E71" points="118.8,467 104,472 104,491.7 118.8,484 	"/>
	<polygon fill="#6D6E71" points="118.8,486.9 104,493.5 104,512.7 118.8,503.5 	"/>
	<polygon fill="#6D6E71" points="175.8,209.4 165.9,193.9 145.7,193.9 158.5,209.4 	"/>
	<polygon fill="#6D6E71" points="373.4,209.4 379.6,193.9 359.9,193.9 356.5,209.4 	"/>
	<polygon fill="#6D6E71" points="118.8,209.4 136.1,209.4 122.9,193.9 104,193.9 104,195 118.8,209.4 	"/>
	<polygon fill="#6D6E71" points="393.3,209.4 401.2,193.9 381,193.9 376,209.4 	"/>
	<polygon fill="#6D6E71" points="333.7,209.4 336.6,193.9 317,193.9 316.8,209.4 	"/>
	<polygon fill="#6D6E71" points="413,209.4 422.4,193.9 402.8,193.9 396.1,209.4 	"/>
	<polygon fill="#6D6E71" points="472.6,209.4 486.9,193.9 466.8,193.9 455.3,209.4 	"/>
	<polygon fill="#6D6E71" points="314.2,209.4 315.5,193.9 295.4,193.9 296.9,209.4 	"/>
	<polygon fill="#6D6E71" points="452.5,209.4 465.2,193.9 445.6,193.9 435.7,209.4 	"/>
	<polygon fill="#6D6E71" points="432.9,209.4 444,193.9 423.9,193.9 415.6,209.4 	"/>
	<polygon fill="#6D6E71" points="353.8,209.4 358.4,193.9 338.2,193.9 336.5,209.4 	"/>
	<polygon fill="#6D6E71" points="492.1,209.4 508,193.9 488.4,193.9 475.2,209.4 	"/>
	<polygon fill="#6D6E71" points="195.3,209.4 187,193.9 167.3,193.9 178.4,209.4 	"/>
	<polygon fill="#6D6E71" points="215,209.4 208.2,193.9 188.5,193.9 198.1,209.4 	"/>
	<polygon fill="#6D6E71" points="155.8,209.4 144.2,193.9 124.5,193.9 138.9,209.4 	"/>
	<polygon fill="#6D6E71" points="254.5,209.4 251,193.9 231.4,193.9 237.7,209.4 	"/>
	<polygon fill="#6D6E71" points="274.6,209.4 272.7,193.9 252.6,193.9 257.3,209.4 	"/>
	<polygon fill="#6D6E71" points="234.9,209.4 229.8,193.9 209.7,193.9 217.6,209.4 	"/>
	<polygon fill="#6D6E71" points="294.1,209.4 293.8,193.9 274.2,193.9 277.2,209.4 	"/>
	<polygon fill="#6D6E71" points="118.8,565.3 104,578.2 104,597.5 118.8,581.9 	"/>
</g>
<g id="Layer_1">
	<g>
		<path fill="#FFFFFF" d="M524.1,477.3l-13.7-5.8l-14.9-6.3L466.5,453c-0.5,1.4-1,2.8-1.5,4.1l30.4,10.6l14.9,5.2l13.7,4.8l1.2,0.4
			l3.6,1.2l-3.6-1.5L524.1,477.3z"/>
		<path fill="#FFFFFF" d="M524.1,385.2l-13.7,0.2l-14.9,0.2l-20.1,0.3c0.1,1.3,0.2,2.6,0.2,4l19.9-1.8l14.9-1.3l13.7-1.2l1.2-0.1
			l3.6-0.3l-3.6,0L524.1,385.2z"/>
		<path fill="#FFFFFF" d="M524.1,569.4l-13.7-11.8l-14.9-12.8l-53.4-45.9c-1,1.4-2.1,2.7-3.1,4l56.5,44.4l14.9,11.7l13.7,10.8
			l1.2,0.9l3.6,2.8l-3.6-3.1L524.1,569.4z"/>
		<path fill="#FFFFFF" d="M524.1,431.3l-13.7-2.8l-14.9-3l-21.3-4.4c-0.2,1.3-0.4,2.7-0.6,4l21.9,2.9l14.9,1.9l13.7,1.8l1.2,0.2
			l3.6,0.5l-3.6-0.7L524.1,431.3z"/>
		<path fill="#FFFFFF" d="M524.1,408.6l-13.7-1.3l-14.9-1.5l-19.8-1.9c0,1.3-0.1,2.6-0.2,4l20,0.5l14.9,0.3l13.7,0.3l1.2,0l3.6,0.1
			l-3.6-0.3L524.1,408.6z"/>
		<path fill="#FFFFFF" d="M524.1,546.1l-13.7-10.3l-14.9-11.2l-46.9-35.1c-0.9,1.4-1.8,2.8-2.8,4.1l49.6,33.5l14.9,10l13.7,9.2
			l1.2,0.8l3.6,2.4l-3.6-2.7L524.1,546.1z"/>
		<path fill="#FFFFFF" d="M524.1,454.6l-13.7-4.3l-14.9-4.7l-24.5-7.7c-0.3,1.4-0.7,2.7-1,4.1l25.5,6.2l14.9,3.6l13.7,3.3l1.2,0.3
			l3.6,0.9l-3.6-1.1L524.1,454.6z"/>
		<path fill="#FFFFFF" d="M524.1,523.4l-13.7-8.8l-14.9-9.6L455,479c-0.8,1.4-1.6,2.8-2.4,4.2l42.9,24.3l14.9,8.5l13.7,7.8l1.2,0.7
			l3.6,2l-3.6-2.3L524.1,523.4z"/>
		<path fill="#FFFFFF" d="M524.1,500.6l-13.7-7.3l-14.9-8L461,466.9c-0.6,1.4-1.3,2.8-1.9,4.2l36.4,16.8l14.9,6.9l13.7,6.3l1.2,0.5
			l3.6,1.6l-3.6-1.9L524.1,500.6z"/>
		<path fill="#FFFFFF" d="M524.1,362.5l-13.7,1.7l-14.9,1.8l-22.2,2.7c0.2,1.3,0.4,2.7,0.6,4l21.5-4.2l14.9-2.9l13.7-2.7l1.2-0.2
			l3.6-0.7l-3.6,0.4L524.1,362.5z"/>
		<path fill="#FFFFFF" d="M524.1,247.7l-13.7,9.1l-14.9,9.9l-50.6,33.6c1,1.4,1.9,2.8,2.8,4.1l47.7-35.3l14.9-11l13.7-10.1l1.2-0.9
			l3.6-2.6l-3.6,2.4L524.1,247.7z"/>
		<path fill="#FFFFFF" d="M524.1,201.7l-13.7,12l-14.9,13.1l-64.3,56.6c1.3,1.4,2.5,2.8,3.7,4.2l60.6-58.1l14.9-14.3l13.7-13.1
			l1.2-1.1l3.6-3.4l-3.6,3.1L524.1,201.7z"/>
		<path fill="#FFFFFF" d="M524.1,270.4l-13.7,7.7l-14.9,8.3l-43.7,24.4c0.8,1.4,1.6,2.8,2.4,4.2l41.3-26.1l14.9-9.4l13.7-8.7
			l1.2-0.8l3.6-2.3l-3.6,2L524.1,270.4z"/>
		<path fill="#FFFFFF" d="M524.1,224.4l-13.7,10.6l-14.9,11.6L438,291.3c1.1,1.3,2.1,2.7,3.2,4l54.3-46.2l14.9-12.7l13.7-11.7l1.2-1
			l3.6-3l-3.6,2.8L524.1,224.4z"/>
		<path fill="#FFFFFF" d="M524.1,316.5l-13.7,4.7l-14.9,5.1l-31,10.5c0.5,1.4,1,2.8,1.5,4.2l29.5-12.2l14.9-6.2l13.7-5.7l1.2-0.5
			l3.6-1.5l-3.6,1.2L524.1,316.5z"/>
		<path fill="#FFFFFF" d="M524.1,293.7l-13.7,6.1l-14.9,6.7l-37,16.5c0.7,1.4,1.4,2.8,2,4.2l35-18.3l14.9-7.8l13.7-7.1l1.2-0.6
			l3.6-1.9l-3.6,1.6L524.1,293.7z"/>
		<path fill="#FFFFFF" d="M524.1,339.8l-13.7,3.1l-14.9,3.4l-25.9,5.9c0.4,1.4,0.7,2.7,1.1,4.1l24.8-7.5l14.9-4.5l13.7-4.1l1.2-0.4
			l3.6-1.1l-3.6,0.8L524.1,339.8z"/>
		<path fill="#FFFFFF" d="M524.1,592.1l-13.7-13.3l-14.9-14.4l-59.7-57.7c-1.1,1.3-2.2,2.6-3.4,3.9l63.1,56.3l14.9,13.3l13.7,12.2
			l1.2,1.1l3.6,3.2l-3.6-3.5L524.1,592.1z"/>
		<path fill="#FFFFFF" d="M523.4,615.2l-13.7-14.9L495.5,585l-65.9-71.4c-2,2.1-4.1,4.2-6.2,6.2l68.8,66.1l14.9,14.3l15.5,14.9
			l1.2,1.2l5,4.8l-4.8-5.2L523.4,615.2z"/>
		<path fill="#FFFFFF" d="M454.1,615.2l-9.6-14.9l-9.2-14.3l-32-49.7c-1.5,1-2.9,2-4.4,3l33.7,46.7l10.3,14.3l10.7,14.9l0.9,1.2
			l3.4,4.8l-3.1-4.8L454.1,615.2z"/>
		<path fill="#FFFFFF" d="M477.9,615.2l-11.3-14.9L455.7,586l-43-56.8c-1.3,1.1-2.7,2.1-4.1,3.2l44.5,53.6l11.9,14.3l12.4,14.9
			l1,1.2l4,4.8l-3.6-4.8L477.9,615.2z"/>
		<path fill="#FFFFFF" d="M500.5,615.2l-12.9-14.9L475.3,586l-54.7-63.4c-1.3,1.2-2.6,2.3-4,3.5l56.1,60l13.4,14.3l13.9,14.9
			l1.1,1.2l4.5,4.8l-4.1-4.8L500.5,615.2z"/>
		<path fill="#FFFFFF" d="M363.1,615.2l-3.4-14.9l-3.3-14.3l-5.8-25.3c-1.3,0.4-2.7,0.7-4.1,1L354,586l4.3,14.3l4.5,14.9l0.4,1.2
			l1.3,4.2l-1-4.2L363.1,615.2z"/>
		<path fill="#FFFFFF" d="M385.8,615.2l-5-14.9l-4.8-14.3L366,555.8c-1.4,0.5-2.7,1-4.1,1.5l11.7,28.7l5.8,14.3l6.1,14.9l0.5,1.2
			l1.7,4.2l-1.4-4.2L385.8,615.2z"/>
		<path fill="#FFFFFF" d="M340.5,615.2l-1.8-14.9l-1.8-14.3l-2.7-21.8c-1.3,0.2-2.7,0.4-4,0.6l4.2,21.2l2.8,14.3l2.9,14.9l0.2,1.2
			l0.8,4.2l-0.5-4.2L340.5,615.2z"/>
		<path fill="#FFFFFF" d="M317.2,615.2l-0.2-14.9l-0.2-14.3l-0.3-19.9c-1.4,0.1-2.8,0.1-4.2,0.2l1.8,19.8l1.3,14.3l1.4,14.9l0.1,1.2
			l0.4,4.2l-0.1-4.2L317.2,615.2z"/>
		<path fill="#FFFFFF" d="M408.5,615.2l-6.5-14.9l-6.3-14.3l-15.8-36.1c-1.4,0.7-2.8,1.3-4.2,1.9l17.5,34.2l7.3,14.3l7.6,14.9
			l0.6,1.2l2.1,4.2l-1.8-4.2L408.5,615.2z"/>
		<path fill="#FFFFFF" d="M431.2,615.2l-8.1-14.9l-7.7-14.3l-23.1-42.7c-1.4,0.8-2.9,1.7-4.3,2.4l24.8,40.3l8.8,14.3l9.2,14.9
			l0.7,1.2l2.6,4.2l-2.3-4.2L431.2,615.2z"/>
		<path fill="#FFFFFF" d="M273.3,586l-1.8,14.3l-1.8,14.9l-0.1,1.2l-0.5,4.2l0.8-4.2l0.2-1.2l2.9-14.9l2.8-14.3l4.3-21.8
			c-1.4-0.2-2.7-0.5-4-0.7L273.3,586z"/>
		<path fill="#FFFFFF" d="M253.7,586l-3.3,14.3l-3.4,14.9l-0.3,1.2l-1,4.2l1.3-4.2l0.4-1.2l4.5-14.9l4.3-14.3l7.6-25.3
			c-1.4-0.4-2.7-0.7-4.1-1.1L253.7,586z"/>
		<path fill="#FFFFFF" d="M293.8,586l-0.1,14.3l-0.1,14.9l0,1.2l0,4.2l0.4-4.2l0.1-1.2l1.4-14.9l1.3-14.3l1.8-19.9
			c-1.5-0.1-3-0.2-4.5-0.3L293.8,586z"/>
		<path fill="#FFFFFF" d="M203.6,530.8c-1.4-1.1-2.7-2.2-4.1-3.3L155.2,586l-10.8,14.3L133,615.2l-0.9,1.2l-3.2,4.2l3.5-4.2l1-1.2
			l12.4-14.9l11.9-14.3L203.6,530.8z"/>
		<path fill="#FFFFFF" d="M195.8,524.3c-1.8-1.6-3.5-3.1-5.2-4.8L134.8,586l-12,14.3l-12.5,14.9l-1,1.2l-3.5,4.2l3.9-4.2l1.1-1.2
			l13.9-14.9l13.4-14.3L195.8,524.3z"/>
		<path fill="#FFFFFF" d="M231,548.2L214.5,586l-6.3,14.3l-6.5,14.9l-0.5,1.2l-1.8,4.2l2.1-4.2l0.6-1.2l7.6-14.9L217,586l18.3-35.7
			C233.8,549.6,232.4,548.9,231,548.2z"/>
		<path fill="#FFFFFF" d="M212.8,537.5c-1.4-1-2.8-1.9-4.2-2.9L175.2,586l-9.3,14.3l-9.7,14.9l-0.8,1.2l-2.7,4.2l3-4.2l0.9-1.2
			l10.7-14.9l10.3-14.3L212.8,537.5z"/>
		<path fill="#FFFFFF" d="M244.6,554.4L234.1,586l-4.8,14.3l-5,14.9l-0.4,1.2l-1.4,4.2l1.7-4.2l0.5-1.2l6.1-14.9l5.8-14.3l12.2-30
			C247.4,555.4,246,554.9,244.6,554.4z"/>
		<path fill="#FFFFFF" d="M219,541.5L194.8,586l-7.8,14.3l-8.1,14.9l-0.6,1.2l-2.3,4.2l2.6-4.2l0.7-1.2l9.2-14.9l8.8-14.3l25.9-42
			C221.8,543.2,220.4,542.4,219,541.5z"/>
		<path fill="#FFFFFF" d="M118.8,584.5l69.1-67.5c-0.3-0.3-0.6-0.6-0.9-1c-0.9-0.9-1.7-1.8-2.6-2.7c-0.8-0.9-1.6-1.7-2.4-2.6
			c-1.3-1.4-2.5-2.9-3.8-4.3c-1-1.2-2-2.5-3-3.7c-1.1-1.4-2.2-2.8-3.2-4.2c-1.2-1.6-2.3-3.2-3.4-4.8c-1-1.5-2.1-3-3.1-4.6
			c-1.3-2.1-2.6-4.1-3.9-6.3c-0.8-1.4-1.7-2.9-2.5-4.4c-1.4-2.5-2.7-5-3.9-7.6c-0.7-1.5-1.5-3.1-2.2-4.7c-1.4-3.1-2.7-6.2-3.8-9.4
			c-0.5-1.4-1.1-2.9-1.6-4.3c-1.2-3.5-2.3-7-3.3-10.6c-0.4-1.4-0.8-2.9-1.1-4.3c-0.9-3.8-1.7-7.7-2.4-11.5c-0.2-1.3-0.4-2.6-0.6-4
			c-0.6-4.3-1.1-8.6-1.4-13c-0.1-1.5-0.2-3-0.2-4.5c-0.1-2.3-0.2-4.6-0.2-6.9c0-2.1,0.1-4.3,0.1-6.4c0.1-1.5,0.1-3,0.2-4.5
			c0.3-4.4,0.7-8.7,1.3-13c0.2-1.5,0.4-3,0.7-4.5c0.7-4.1,1.5-8.1,2.5-12.1c0.4-1.5,0.8-3.1,1.2-4.6c1-3.7,2.1-7.3,3.4-10.8
			c0.5-1.5,1-2.9,1.6-4.4c1.2-3.1,2.4-6.1,3.8-9.1c0.7-1.5,1.4-2.9,2.1-4.4c1.2-2.5,2.5-5,3.9-7.5c0.8-1.5,1.6-2.9,2.5-4.4
			c1.2-2,2.5-4.1,3.7-6.1c1-1.5,2-3.1,3.1-4.6c1.1-1.6,2.3-3.3,3.5-4.8c1.1-1.4,2.1-2.8,3.2-4.2c1-1.2,1.9-2.4,2.9-3.6
			c1.2-1.5,2.5-2.9,3.8-4.3c0.8-0.9,1.6-1.8,2.5-2.7c1.5-1.5,3-3.1,4.5-4.6c0.9-0.9,1.8-1.7,2.7-2.6c1.4-1.3,2.8-2.6,4.3-3.9
			c1.2-1,2.4-2.1,3.6-3.1c1.4-1.2,2.9-2.4,4.4-3.5c1.6-1.3,3.2-2.5,4.9-3.7c1.4-1,2.8-2,4.2-3c2-1.4,4.1-2.7,6.1-3.9
			c1.5-0.9,3-1.8,4.6-2.7c2.5-1.4,5.1-2.8,7.7-4.1c1.4-0.7,2.9-1.4,4.3-2.1c3.1-1.5,6.3-2.8,9.5-4.1c1.5-0.6,3-1.2,4.5-1.7
			c3.5-1.3,7.1-2.5,10.8-3.5c1.5-0.4,3-0.8,4.4-1.2c4.1-1.1,8.2-2,12.4-2.7c1.4-0.2,2.7-0.5,4.1-0.7c4.3-0.7,8.6-1.1,13-1.5
			c1.4-0.1,2.9-0.2,4.3-0.3c1.2-0.1,2.4-0.1,3.6-0.1c0.1,0,0.3,0,0.4,0c1.4,0,2.9-0.1,4.4-0.1c1.8,0,3.5,0,5.3,0.1
			c1.4,0,2.7,0.1,4.1,0.2c4.4,0.2,8.8,0.7,13.1,1.2c1.5,0.2,2.9,0.4,4.3,0.6c4.2,0.7,8.4,1.5,12.6,2.5c1.5,0.4,3,0.7,4.4,1.1
			c3.7,1,7.4,2.1,11,3.4c1.4,0.5,2.8,1,4.2,1.5c3.3,1.2,6.6,2.6,9.7,4c1.5,0.7,3,1.4,4.5,2.1c2.7,1.3,5.3,2.7,7.9,4.1
			c1.4,0.8,2.9,1.6,4.3,2.4c2.2,1.3,4.4,2.7,6.6,4.1c1.5,1,3,2,4.5,3c1.7,1.2,3.4,2.4,5,3.6c1.5,1.1,2.9,2.3,4.4,3.4
			c1.3,1.1,2.6,2.1,3.9,3.2c1.4,1.2,2.7,2.3,4,3.5c0.9,0.9,1.9,1.7,2.8,2.6c0.5,0.5,1,1,1.5,1.5c1.1,1.1,2.1,2.1,3.2,3.2l66.8-71.2
			l14.5-15.5l14-14.9l0.3-0.3l4.8-5.1l-5.5,5.4L508,193.9l-15.9,15.5h-16.9l13.2-15.5l12.7-14.9l4.6-5.4l-4.9,5.4l-13.7,14.9
			l-14.3,15.5h-17.3l11.5-15.5l11-14.9l4-5.4l-4.4,5.4l-12.2,14.9l-12.7,15.5h-16.9l9.9-15.5l9.5-14.9l3.4-5.4l-3.8,5.4L444,193.9
			l-11.1,15.5h-17.3l8.3-15.5l8-14.9l2.9-5.4l-3.3,5.4l-9,14.9l-9.4,15.5h-16.9l6.7-15.5l6.4-14.9l2.3-5.4l-2.7,5.4l-7.6,14.9
			l-7.9,15.5H376l5-15.5l4.8-14.9l1.7-5.4l-2.1,5.4l-5.9,14.9l-6.2,15.5h-16.9l3.4-15.5l3.3-14.9l1.2-5.4l-1.6,5.4l-4.4,14.9
			l-4.6,15.5h-17.3l1.8-15.5l1.7-14.9l0.6-5.4l-1,5.4l-2.9,14.9l-3,15.5h-16.9l0.2-15.5l0.2-14.9l0.1-5.4l-0.5,5.4l-1.3,14.9
			l-1.3,15.5h-17.3l-1.5-15.5L294,179l-0.5-5.4l0.1,5.4l0.3,14.9l0.3,15.5h-16.9l-3-15.5l-2.9-14.9l-1.1-5.4l0.7,5.4l1.8,14.9
			l1.9,15.5h-17.3l-4.7-15.5L248,179l-1.6-5.4l1.2,5.4l3.4,14.9l3.5,15.5h-16.9l-6.3-15.5l-6.1-14.9l-2.2-5.4l1.8,5.4l4.9,14.9
			l5.1,15.5h-17.3l-7.9-15.5L202,179l-2.7-5.4l2.4,5.4l6.5,14.9l6.8,15.5h-16.9l-9.6-15.5l-9.2-14.9l-3.3-5.4l2.9,5.4l8,14.9
			l8.3,15.5h-16.9l-11.1-15.5L156.7,179l-3.8-5.4l3.5,5.4l9.6,14.9l10,15.5h-17.3l-12.8-15.5L133.4,179l-4.4-5.4l4,5.4l11.2,14.9
			l11.6,15.5h-16.9l-14.4-15.5L110.7,179l-5-5.4l4.6,5.4l12.7,14.9l13.2,15.5h-17.3v0L104,195l-14.9-14.4l-7.2-6.9l7.2,7.5
			l14.9,15.7l14.9,15.7v17l-14.9-13l-14.9-13l-7.2-6.2l7.2,6.8l14.9,14.1l14.9,14.1v16.6L104,237.6l-14.9-11.4l-7.2-5.5l7.2,6
			l14.9,12.6l14.9,12.6v17L104,259l-14.9-9.8l-7.2-4.7l7.2,5.3l14.9,11l14.9,11v16.6L104,280l-14.9-8.3l-7.2-4l7.2,4.5l14.9,9.4
			l14.9,9.4v16.6l-14.9-6.7l-14.9-6.7l-7.2-3.2l7.2,3.7l14.9,7.8l14.9,7.8v16.6l-14.9-5.1l-14.9-5.1l-7.2-2.4l7.2,3l14.9,6.2
			l14.9,6.2v17l-14.9-3.4l-14.9-3.4l-7.2-1.7l7.2,2.2l14.9,4.6l14.9,4.6v17l-14.9-1.9l-14.9-1.9l-7.2-0.9l7.2,1.5l14.9,3l14.9,3v17
			l-14.9-0.3l-14.9-0.3l-7.2-0.1l7.2,0.7l14.9,1.4l14.9,1.4v17l-14.9,1.3L89.1,409l-7.2,0.6l7.2-0.1l14.9-0.1l14.9-0.1v17l-14.9,2.9
			l-14.9,2.9l-7.2,1.4l7.2-0.9l14.9-1.9l14.9-1.9V445l-14.9,4.5l-14.9,4.5l-7.2,2.2l7.2-1.6l14.9-3.4l14.9-3.4v16.6l-14.9,6.1
			l-14.9,6.1l-7.2,2.9l7.2-2.4l14.9-5l14.9-5v17l-14.9,7.7l-14.9,7.7l-7.2,3.7l7.2-3.1l14.9-6.6l14.9-6.6v16.6l-14.9,9.2L89.1,522
			l-7.2,4.4l7.2-3.9l14.9-8.1l14.9-8.1v17L104,534.1L89.1,545l-7.2,5.2l7.2-4.7l14.9-9.7l14.9-9.7v16.6L104,555.1l-14.9,12.4l-7.2,6
			l7.2-5.4l14.9-11.3l14.9-11.3v17L104,576.5l-14.9,14.1l-7.2,6.8l7.2-6.2l14.9-12.9l14.9-12.9v16.6L104,597.5l-14.9,15.6l-7.2,7.5
			l7.2-7L104,599l3.4-3.3L118.8,584.5z"/>
		<path fill="#FFFFFF" d="M356.3,543.5c1.7-0.6,3.3-1.3,5-2c2.5-1.1,5-2.2,7.4-3.5c1.7-0.8,3.3-1.7,4.9-2.6c2-1.1,4-2.3,5.9-3.5
			c1.7-1,3.3-2.1,4.9-3.2c1.5-1.1,3-2.1,4.5-3.2c1.7-1.3,3.3-2.5,4.9-3.9c1.1-0.9,2.3-1.9,3.4-2.9c1.5-1.3,3-2.7,4.4-4.1
			c0.8-0.7,1.5-1.4,2.2-2.2c1.4-1.4,2.8-2.9,4.2-4.4c0.5-0.5,1-1.1,1.4-1.6c2.2-2.5,4.4-5.1,6.4-7.8c0.4-0.6,0.9-1.1,1.3-1.7
			c1.2-1.6,2.4-3.3,3.5-4.9c0.5-0.8,1.1-1.6,1.6-2.4c1.1-1.7,2.2-3.4,3.2-5.2c0.6-1.1,1.3-2.2,1.9-3.3c1-1.8,1.9-3.6,2.8-5.5
			c0.7-1.4,1.3-2.8,1.9-4.2c0.8-1.9,1.6-3.8,2.4-5.7c0.7-1.7,1.3-3.5,1.9-5.2c0.7-1.9,1.3-3.9,1.9-5.9c0.6-2.1,1.2-4.2,1.7-6.4
			c0.5-2,0.9-4,1.3-6.1c0.5-2.3,0.8-4.7,1.2-7c0.3-2.1,0.5-4.1,0.7-6.2c0.2-2.6,0.4-5.2,0.5-7.8c0.1-1.7,0.1-3.3,0.1-5
			c0-0.5,0-0.9,0-1.4c0-2.6-0.1-5.2-0.3-7.8c-0.1-2.2-0.3-4.3-0.6-6.4c-0.3-2.6-0.7-5.2-1.1-7.7c-0.4-2.2-0.8-4.3-1.3-6.5
			c-0.5-2.3-1.1-4.6-1.7-6.9c-0.6-2.2-1.3-4.3-2-6.5c-0.7-2-1.4-3.9-2.1-5.9c-0.8-2.2-1.7-4.3-2.7-6.4c-0.7-1.6-1.5-3.3-2.3-4.9
			c-1-2.1-2.1-4.2-3.3-6.3c-0.7-1.2-1.4-2.4-2.1-3.6c-1.2-2.1-2.5-4.1-3.8-6.1c-0.6-0.9-1.2-1.7-1.8-2.6c-1.4-2-2.8-3.9-4.3-5.8
			c-0.4-0.5-0.8-1-1.2-1.5c-1.5-1.9-3.1-3.7-4.7-5.5c-0.2-0.3-0.5-0.5-0.7-0.8c-1.6-1.8-3.3-3.5-5-5.1c-0.1-0.1-0.1-0.1-0.2-0.2
			c-3.1-3-6.3-5.9-9.7-8.6c-4.5-3.6-9.2-7-14.2-10c-0.2-0.1-0.4-0.2-0.5-0.3c-2.3-1.4-4.6-2.7-6.9-3.9c-0.4-0.2-0.8-0.4-1.2-0.6
			c-2.2-1.2-4.5-2.3-6.9-3.3c-0.6-0.3-1.2-0.6-1.9-0.8c-2.5-1.1-5-2.1-7.6-3c-0.9-0.3-1.8-0.6-2.7-0.9c-2.4-0.8-4.9-1.6-7.4-2.3
			c-1.1-0.3-2.2-0.6-3.3-0.9c-2.6-0.7-5.3-1.2-8-1.7c-1.3-0.2-2.6-0.5-4-0.7c-2.7-0.4-5.4-0.8-8.2-1c-1.4-0.1-2.8-0.2-4.2-0.3
			c-2.6-0.2-5.1-0.3-7.7-0.3c-0.3,0-0.6,0-0.9,0c-1.2,0-2.4,0-3.5,0c-2.8,0.1-5.5,0.2-8.2,0.5c-1.4,0.1-2.8,0.3-4.2,0.4
			c-2.6,0.3-5.1,0.7-7.7,1.1c-1.3,0.2-2.6,0.5-3.9,0.7c-2.7,0.6-5.4,1.2-8,1.9c-1.1,0.3-2.1,0.6-3.2,0.9c-2.6,0.8-5.3,1.6-7.8,2.6
			c-0.8,0.3-1.7,0.6-2.5,0.9c-2.4,0.9-4.8,1.9-7.1,3c-0.6,0.3-1.1,0.5-1.7,0.8c-2.5,1.2-4.9,2.4-7.3,3.7c-0.3,0.2-0.7,0.4-1,0.6
			c-2.2,1.2-4.4,2.5-6.5,3.9c-0.1,0.1-0.3,0.2-0.4,0.3c-10.6,6.7-20.2,14.8-28.5,24.1c-0.2,0.2-0.3,0.4-0.5,0.6
			c-1.7,1.9-3.4,3.9-5,6c-0.3,0.4-0.7,0.9-1,1.3c-1.5,1.9-2.9,3.9-4.3,5.9c-0.5,0.7-1,1.5-1.5,2.2c-1.3,2-2.6,4.1-3.9,6.2
			c-0.6,1.1-1.2,2.1-1.8,3.2c-1.2,2.1-2.3,4.3-3.3,6.4c-0.7,1.5-1.4,2.9-2,4.4c-1,2.3-2,4.6-2.9,7c-0.7,1.8-1.3,3.7-1.9,5.6
			c-0.8,2.3-1.5,4.7-2.1,7.1c-0.6,2.2-1.1,4.3-1.6,6.5c-0.5,2.3-0.9,4.7-1.3,7.1c-0.4,2.4-0.7,4.8-0.9,7.2c-0.2,2.3-0.4,4.7-0.6,7.1
			c-0.1,2.4-0.2,4.9-0.2,7.4c0,0,0,0,0,0c0,2.1,0.1,4.1,0.1,6.1c0.1,2.3,0.3,4.6,0.5,6.9c0.2,2.2,0.5,4.3,0.8,6.4
			c0.3,2.2,0.7,4.4,1.1,6.5c0.4,2.1,0.9,4.2,1.4,6.3c0.5,2,1,3.9,1.6,5.9c0.6,2.2,1.3,4.4,2.1,6.5c0.6,1.6,1.1,3.2,1.8,4.8
			c0.8,2,1.6,4,2.5,5.9c0.6,1.3,1.2,2.6,1.8,3.9c1,2,2,4,3.1,6c0.5,1,1.1,1.9,1.6,2.9c1.1,1.8,2.2,3.6,3.3,5.4
			c0.5,0.7,0.9,1.4,1.4,2.1c1.2,1.9,2.5,3.7,3.8,5.5c0.3,0.4,0.7,0.9,1,1.3c0.8,1.1,1.7,2.2,2.6,3.3c0.3,0.4,0.7,0.8,1,1.2
			c0.4,0.5,0.8,0.9,1.2,1.4c1.8,2.1,3.6,4.1,5.5,6c0.7,0.7,1.4,1.4,2.1,2.1c1.4,1.4,2.9,2.8,4.4,4.2c1,0.9,2.1,1.9,3.1,2.8
			c1.5,1.3,3.1,2.6,4.6,3.8c1.4,1.1,2.8,2.1,4.2,3.2c1.6,1.1,3.2,2.3,4.8,3.3c1.8,1.2,3.7,2.4,5.6,3.5c1.6,1,3.3,1.9,4.9,2.8
			c2.3,1.2,4.7,2.4,7.1,3.5c1.6,0.8,3.3,1.5,5,2.2c2.8,1.2,5.6,2.3,8.5,3.2c1.7,0.6,3.3,1.1,5,1.6c3.2,1,6.5,1.8,9.8,2.5
			c1.7,0.4,3.3,0.7,5,1c3.7,0.7,7.5,1.2,11.3,1.5c1.9,0.2,3.7,0.3,5.6,0.4c2.5,0.1,5,0.2,7.5,0.2c1.3,0,2.6,0,3.9-0.1
			c1.8,0,3.5-0.1,5.3-0.3c3.8-0.2,7.5-0.6,11.1-1.2c1.7-0.2,3.3-0.5,5-0.8c3.4-0.6,6.7-1.4,10-2.3c1.7-0.4,3.3-0.9,5-1.4
			C350.5,545.7,353.4,544.6,356.3,543.5z M334.9,522.6c-1.9,0.5-3.7,1-5.6,1.4c-2.2,0.5-4.5,0.9-6.8,1.3c-2.1,0.3-4.3,0.6-6.4,0.7
			c-2.4,0.2-4.8,0.3-7.3,0.4c-0.5,0-1,0-1.5,0c-1.7,0-3.4,0-5.1-0.1c-2.6-0.1-5.2-0.4-7.7-0.7c-2.2-0.3-4.3-0.6-6.5-1
			c-2.3-0.4-4.6-1-6.8-1.5c-1.8-0.5-3.6-1-5.4-1.6c-2.3-0.7-4.5-1.5-6.7-2.4c-1.5-0.6-2.9-1.2-4.4-1.9c-2.2-1-4.4-2.1-6.5-3.2
			c-1.1-0.6-2.2-1.2-3.3-1.9c-2.1-1.3-4.2-2.6-6.2-4c-0.7-0.5-1.5-1.1-2.2-1.6c-2-1.5-3.9-3-5.8-4.6c-0.4-0.4-0.9-0.7-1.3-1.1
			c-1.9-1.7-3.7-3.4-5.4-5.2c-0.2-0.2-0.4-0.4-0.5-0.6c-4.2-4.3-8-9.1-11.4-14.1c-5-7.5-9.1-15.7-12-24.4c0,0,0-0.1,0-0.1
			c-0.9-2.6-1.7-5.3-2.3-8c0-0.2-0.1-0.3-0.1-0.5c-0.7-2.9-1.3-5.9-1.7-9c0-0.3-0.1-0.6-0.1-0.9c-0.4-2.9-0.7-5.8-0.8-8.8
			c0-0.3,0-0.7,0-1c-0.1-1.4-0.1-2.9-0.1-4.3c0-1.6,0-3.2,0.1-4.8c0-0.3,0-0.7,0.1-1c0.2-2.9,0.5-5.8,0.9-8.7c0-0.3,0.1-0.6,0.1-0.9
			c0.5-3.4,1.2-6.7,2-9.9c0-0.2,0.1-0.3,0.1-0.5c11.5-44.1,51.5-76.6,99.2-76.6c21,0,40.6,6.3,56.9,17.2
			c17.3,11.6,30.9,28.3,38.6,47.9c0,0.1,0.1,0.2,0.1,0.3c1.2,3,2.2,6,3,9.1c0.1,0.3,0.2,0.7,0.3,1c0.8,3,1.5,6.1,2,9.2
			c0.1,0.5,0.2,0.9,0.2,1.4c0.5,3,0.8,6,1,9.1c0,0.5,0.1,1.1,0.1,1.6c0.1,1.8,0.2,3.7,0.2,5.6c0,1.1,0,2.2-0.1,3.3
			c0,0.5,0,1.1-0.1,1.6c-0.1,2.9-0.4,5.8-0.8,8.6c-0.1,0.5-0.1,0.9-0.2,1.4c-0.4,2.8-0.9,5.5-1.5,8.2c-0.1,0.3-0.2,0.7-0.2,1
			c-0.6,2.6-1.4,5.3-2.2,7.8c-0.1,0.2-0.1,0.4-0.2,0.6c-0.8,2.5-1.8,5-2.8,7.4c0,0,0,0.1-0.1,0.1c-4.3,10.1-10.2,19.4-17.3,27.5
			c0,0-0.1,0.1-0.1,0.1c-1.6,1.8-3.3,3.6-5,5.3c-0.2,0.2-0.5,0.5-0.7,0.7c-1.9,1.8-3.8,3.6-5.8,5.2c-0.5,0.4-1,0.8-1.5,1.2
			c-1.9,1.6-4,3-6,4.4c-0.8,0.6-1.7,1.1-2.5,1.7c-2,1.3-4.1,2.5-6.2,3.7c-1.2,0.7-2.4,1.3-3.6,1.9c-2.1,1-4.3,2-6.5,2.9
			c-1.5,0.6-3.1,1.2-4.7,1.8C339.3,521.3,337.1,522,334.9,522.6z"/>
	</g>
</g>
</svg>
