<?xml version="1.0" encoding="utf-8"?>
<!-- Generator: Adobe Illustrator 18.0.0, SVG Export Plug-In . SVG Version: 6.00 Build 0)  -->
<!DOCTYPE svg PUBLIC "-//W3C//DTD SVG 1.1//EN" "http://www.w3.org/Graphics/SVG/1.1/DTD/svg11.dtd">
<svg version="1.1" xmlns="http://www.w3.org/2000/svg" xmlns:xlink="http://www.w3.org/1999/xlink" x="0px" y="0px"
	 viewBox="90 180 432 432" enable-background="new 90 180 432 432" xml:space="preserve">
<g id="Layer_3">
	<path d="M266,261.2c0-23.2,19.1-42.3,41.7-42.3v0c0.2,0,0.4,0,0.6,0v-13.7c-31,0-56,25-56,56c0,21,11.5,39.2,28.5,48.8l5.5-13.1
		C274.3,289.7,266,276.5,266,261.2z"/>
	<path d="M266.6,261.2c0-0.1,0-0.2,0-0.3c0-0.1,0-0.2,0-0.3c-0.6-22.5,18.2-41.4,41.1-41.7v0c-22.6,0-41.7,19.1-41.7,42.3
		c0,15.3,8.2,28.5,20.3,35.7l0.1-0.3C274.5,289.3,266.6,276,266.6,261.2z"/>
	<path d="M280.4,552.9c0,0.1,0,0.2,0,0.3c0,15.5,12.5,28,28,28v-0.6C293,580.6,280.5,568.3,280.4,552.9z"/>
	<path d="M275.5,526.4c-5.6,7.1-8.9,16.1-8.9,25.6c0,0.1,0,0.2,0,0.3c0.1-9.7,3.5-18.8,9.3-25.9H275.5z"/>
	<path d="M308.4,593.8v-12.5c-15.5,0-28-12.5-28-28c0-0.1,0-0.2,0-0.3c0-0.1,0-0.2,0-0.3c0-12,7.5-22.2,18.1-26.2H276
		c-5.8,7.1-9.3,16.2-9.3,25.9C266.8,575.4,285.8,593.8,308.4,593.8z"/>
	<path d="M442.6,458.1C442.6,458.1,442.6,458,442.6,458.1C442.6,458,442.6,458.1,442.6,458.1z"/>
	<path d="M441.9,457.4c-0.1-0.1-0.2-0.2-0.4-0.4C441.6,457.1,441.8,457.3,441.9,457.4z"/>
	<path d="M441.2,456.7c-0.2-0.2-0.4-0.5-0.6-0.7C440.7,456.2,440.9,456.4,441.2,456.7z"/>
	<polygon points="418,437.6 418,437.6 418,437.6 	"/>
	<path d="M440.5,455.9c-4.1-4.6-6.6-10.5-6.9-16.9C433.9,445.6,436.4,451.4,440.5,455.9z"/>
	<path d="M460.9,465c-0.5,0-0.9,0-1.4,0C460,465,460.4,465,460.9,465z"/>
	<path d="M460.9,480.5V465c-0.5,0-0.9,0-1.4,0c-6.6-0.3-12.4-2.9-16.9-6.9c0,0,0,0-0.1,0c-0.2-0.2-0.5-0.4-0.7-0.6
		c-0.1-0.1-0.2-0.2-0.4-0.4c-0.1-0.1-0.2-0.2-0.4-0.4c-0.2-0.2-0.4-0.5-0.6-0.7c0,0,0,0,0,0c-4-4.5-6.6-10.3-6.9-16.9
		c0-0.5,0-0.9,0-1.4c0-15.5,12.5-27.4,27.4-27.4v-15.5c-23.2,0-42.3,19.1-42.9,42.9c0,0,0,0,0,0C418,461.5,437.1,480.5,460.9,480.5z
		"/>
	<path d="M134.4,457.4c-0.1-0.1-0.2-0.2-0.4-0.4C134.1,457.1,134.3,457.3,134.4,457.4z"/>
	<path d="M133.7,456.7c-0.2-0.2-0.4-0.5-0.6-0.7C133.2,456.2,133.4,456.4,133.7,456.7z"/>
	<path d="M153.4,465c-0.5,0-0.9,0-1.4,0C152.5,465,152.9,465,153.4,465z"/>
	<path d="M110.5,437.6L110.5,437.6c0-3.7,0.5-7.3,1.3-10.8C111,430.3,110.5,433.9,110.5,437.6z"/>
	<path d="M133,419.3C133,419.3,133,419.3,133,419.3C133,419.3,133,419.3,133,419.3z"/>
	<path d="M135.1,458.1C135.1,458.1,135.1,458,135.1,458.1C135.1,458,135.1,458.1,135.1,458.1z"/>
	<path d="M134.4,417.9c0.2-0.2,0.5-0.4,0.7-0.6C134.8,417.4,134.6,417.6,134.4,417.9z"/>
	<path d="M133.7,418.6c0.1-0.1,0.2-0.2,0.3-0.4C133.9,418.3,133.8,418.5,133.7,418.6z"/>
	<path d="M126,437.6c0-0.5,0-0.9,0-1.4C126,436.7,126,437.2,126,437.6z"/>
	<path d="M133,455.9c-4.1-4.6-6.6-10.5-6.9-16.9C126.4,445.6,128.9,451.4,133,455.9z"/>
	<path d="M114.7,419c0.6-1.3,1.3-2.5,2-3.6C116,416.5,115.3,417.7,114.7,419z"/>
	<path d="M111.8,426.9c0.5-2.1,1.2-4.1,2-6C113,422.8,112.4,424.8,111.8,426.9z"/>
	<path d="M135.1,417.2c4.6-4.1,10.5-6.6,16.9-6.9C145.5,410.6,139.6,413.1,135.1,417.2z"/>
	<path d="M153.4,480.5V465c-0.5,0-0.9,0-1.4,0c-6.6-0.3-12.4-2.9-16.9-6.9c0,0,0,0-0.1,0c-0.2-0.2-0.5-0.4-0.7-0.6
		c-0.1-0.1-0.2-0.2-0.4-0.4c-0.1-0.1-0.2-0.2-0.4-0.4c-0.2-0.2-0.4-0.5-0.6-0.7c0,0,0,0,0,0c-4-4.5-6.6-10.3-6.9-16.9
		c0-0.5,0-0.9,0-1.4s0-0.9,0-1.4c0.3-6.6,2.9-12.4,6.9-16.9c0,0,0,0,0,0c0.2-0.2,0.4-0.5,0.6-0.7c0.1-0.1,0.2-0.2,0.3-0.4
		c0.1-0.1,0.2-0.2,0.4-0.4c0.2-0.2,0.5-0.4,0.7-0.6c0,0,0,0,0,0c4.5-4,10.3-6.6,16.9-6.9c0.5,0,0.9,0,1.4,0v-15.5
		c-15.6,0-29.2,8.2-36.7,20.6c-0.7,1.2-1.4,2.4-2,3.6c-0.3,0.6-0.6,1.3-0.9,1.9c-0.8,1.9-1.5,3.9-2,6c-0.9,3.4-1.3,7-1.3,10.8
		C110.5,461.5,129.6,480.5,153.4,480.5z"/>
</g>
<g id="Layer_1">
	<g>
		<g>
			<path fill="#6D6E71" d="M350.1,260.6c0,0.1,0,0.2,0,0.3c-0.1,15.6-8.9,29.1-21.5,36.1l0.3,0.6l5.5,13.2c17.9-9.3,30-28,30-49.6
				c0-31-25-56-56-56v13.7C331.6,218.9,350.1,238,350.1,260.6z"/>
			<path fill="#6D6E71" d="M308.4,594.4c23.2,0,41.7-19.1,41.7-41.7c0-9.8-3.6-19-9.5-26.2h-24.1c11.5,3.5,19.9,14.1,19.9,26.8
				c0,15.5-12.5,28-28,28v12.5"/>
			<path fill="#6D6E71" d="M460.9,480.5c23.8,0,42.9-19.1,42.9-42.9c0-23.8-19.1-42.9-42.9-42.9v15.5c14.9,0,27.4,11.9,27.4,27.4
				c0,14.9-11.9,27.4-27.4,27.4V480.5"/>
			<path fill="#6D6E71" d="M460.9,410.2"/>
			<path fill="#6D6E71" d="M460.9,394.7"/>
			<path fill="#6D6E71" d="M153.4,394.7v15.5c14.9,0,27.4,11.9,27.4,27.4c0,14.9-11.9,27.4-27.4,27.4v15.5v0
				c23.8,0,42.9-19.1,42.9-42.9C196.3,413.8,176.7,394.7,153.4,394.7z"/>
			<polygon fill="#6D6E71" points="316.4,302.6 316,301.6 308.4,283.2 307.8,281.7 307.2,280.3 307.2,302.3 307.2,302.9 
				307.2,302.9 307.2,317.2 307.2,510.4 307.2,511 307.2,512.7 308.4,512.7 320.2,512.7 403.7,512.7 321.8,315.6 			"/>
		</g>
	</g>
</g>
<g id="Layer_2">
	<polygon fill="#E6E7E8" points="298.5,301.2 298.3,301.7 298.2,301.8 292.7,315 210.6,512.7 294.5,512.7 296.3,512.7 307.2,512.7 
		307.2,511 307.2,510.4 307.2,317.2 307.2,302.9 307.2,302.9 307.2,302.3 307.2,280.3 	"/>
</g>
<g id="Layer_1_1_">
	<path fill="#FFFFFF" d="M334.3,310.9l-5.5-13.2l-0.3-0.6l-7.7-18.5l-12.5-29.4l-0.6-1.4l-0.6-1.4l-13.1,32.2l-7.4,17.7l-0.2,0.5
		l-0.1,0.3l-5.5,13.1l-90.5,216.4h85.2h0.5h22.5h1.8h16.2h24.1H424L334.3,310.9z M320.2,512.7h-11.8h-1.2h-10.9h-1.8h-83.9
		L292.7,315l5.5-13.2l0-0.1l0.2-0.5l8.7-20.9l0.6,1.4l0.6,1.4l7.7,18.5l0.4,0.9l5.4,13.1l81.9,197.1H320.2z"/>
</g>
</svg>
