<?xml version="1.0" encoding="utf-8"?>
<!-- Generator: Adobe Illustrator 18.0.0, SVG Export Plug-In . SVG Version: 6.00 Build 0)  -->
<!DOCTYPE svg PUBLIC "-//W3C//DTD SVG 1.1//EN" "http://www.w3.org/Graphics/SVG/1.1/DTD/svg11.dtd">
<svg version="1.1" xmlns="http://www.w3.org/2000/svg" xmlns:xlink="http://www.w3.org/1999/xlink" x="0px" y="0px"
	 viewBox="0 0 432 432" enable-background="new 0 0 432 432" xml:space="preserve">
<g id="Layer_1">
	<rect x="-373.8" y="-375.9" display="none" stroke="#FFFFFF" stroke-miterlimit="10" width="1164.7" height="1115.2"/>
	<path display="none" fill="#FFFFFF" d="M-229.5,313.1c1,2.8,2,11.5,4.5,13.8c2.5,2.3,1.3,5,1.3,5s4.3-2.3,6,0c1.8,2.3,3,4.8,4.3,6
		c1.3,1.3,1,2.8,1,2.8s3-2,4-0.3c1,1.8,2-2.8,3.8-2c1.8,0.8,1.5,3.8,3.3,4c1.8,0.3,2.3-4,4-3s2.8,6.3,4.3,6.8c1.5,0.5,2.3-4,3.8-2.3
		c1.5,1.8,5,5.3,4.3,7.8c-0.8,2.5,1.8,1.3,3,2.5c1.3,1.3,1.3,7,3.8,6.5c2.5-0.5,6-5,7.8-3.3c1.8,1.8,1.8,6.5,4.5,5.8
		c2.8-0.8,4.5-6.8,6.5-5.8c2,1,1,6.8,3.5,6.5c2.5-0.3,5.8,2.3,5.8,4c0,1.8-0.5,8,2.8,7.3c3.3-0.8,6,2.5,6,2.5s1.8-3,3.8-2
		c2,1,2,4,3.8,3s2.3-4,4.8-2.5s0.5,4,2.8,4.3s6.3-0.3,7.5,1.8c1.3,2,0,4,1.3,5c1.3,1,5-2,6.5,0.8c1.5,2.8,6.8,6.5,6.8,8.8
		c0,2.3,1.3,0.2,2.5-0.5c1.3-0.8,5.3,0,6.3,1.5c1,1.5,3.3,2.8,5,3.5s-0.5,3.8,2,3.8c2.5,0,5.5-3,7.3-3c1.8,0,2.5,1,4.8,1.5
		c2.3,0.5,3.2-2.2,4.8-2.1c1.3,0.1,3.5,4.4,4.8,4.3c1.3,0,2.1-2.3,4.4-1.5c2.3,0.7,4.5,5.3,5.3,6s0,3,0,3s4.3,0.4,5,1.2
		c0.7,0.8,2.3,3.4,2.3,5c0,1.6,2.7,1.5,3.5,1.4c0.8-0.1,4.2-5.5,6.2-5c2,0.5,6.6,1.9,7.3,3.1c0.7,1.2,0.5,3.2,1.6,2.8
		c1.1-0.4,3.6-6.5,6.4-6.1c2.9,0.4,3.1,5,4.5,5.2c1.4,0.2,6.3-0.9,7.9,1.3c1.3,1.9,1.1,5.1,2.4,6.1c1.3,0.9,4.1,0.7,4.7-0.3
		c0.6-1,2.5-1.4,3.5-0.6c1,0.8,2.9,3,4.1,2.2c1.2-0.7,3.1-2.9,5.2-1.3c2.1,1.5,4.9,0,5.2-1.5s4.5-3.2,6.9-0.5c2.4,2.6,4.2,3.1,5.6,2
		c1.4-1,5.5-1.8,7.2,1.7c1.7,3.5,4.4,4.1,6,2.5c1.6-1.6,5.3-1.5,7.7,2.6c2.4,4,3.4,5.7,6.3,5.7s2-4,5.9-3.8
		c3.8,0.2,6.6,7.2,13.6,7.2s7.5-5.7,10.5-5.6s3.3,2.8,5.3,2.4c2-0.4,0.9-4.1,4.3-4.5c3.4-0.4,5.1,4,5.1,4c0.7,0.9,1.4,0.2,1.4-0.6
		c0-0.9,1.5-2.3,3.6-2.2c2.1,0.1,5.7,5,7.3,5.2c1.6,0.1,2.3,3.2,2.3,3.2s3.9,0.3,5.6-0.3c1.7-0.7,5.2,0.4,5.2,4.8
		c0,4.4,3.7-0.3,4.8-1.6s6.5-5.7,12.6-5.8c6.1-0.1,6.4,2.6,8.3,2.3s2.7-7.2,7.2-7.6c4.5-0.4,4.6,5,6.3,5c1.7,0,3-3.2,6.3-2.2
		c3.3,0.9,3.2,4.9,5.3,6.4c2.1,1.5,6.1,1,7.1-0.4c1.1-1.4,3.7-1.2,4.9,0.2c1.2,1.4,3.5,1.2,4.6-0.2c1-1.4,5.1-2.1,6.9-0.4
		c1.8,1.7,3.3,0.1,3.7-1.3c0.4-1.4,7.1-5,10.5-0.4c0,0,0.4-1.4,3.3-1.7c2.8-0.3,24-4.1,34.1-10.4c10.1-6.3,17.4-12.6,19-25.6
		c1.6,8.5,0.6,20.2-3.2,26.5c-3.8,6.3,18,109,21.5,138.7c3.5,29.7-17.1,61.3-17.7,61.6c-0.6,0.3,5.7-94.2-101.4-91.9
		C59.1,543.6-31.9,639.4-47,669.1c-0.9,5.4-3.2,12.6-3.2,12.6S-61.6,676-70.7,670c-9.2-6-26.5-29.4-36.7-48
		c-10.1-18.6-17.1-29.4-21.8-33.5c-4.7-4.1-12.5-20.3-16.4-23.7c-13.9-12-52.8-55.6-73.3-84.7c-20.5-29.1-31-46.1-26.5-77.4
		c4.4-31.3,7.9-55.3,10.1-64.8c2.2-9.5,6-20.5,4.4-24C-232.5,310.4-229.5,313.1-229.5,313.1z"/>
	<g>
		<path d="M134.4,221.6l0,6c18.6,0,35,5.5,43.7,14.8c6.6,7,6.7,17.6,0.1,24.2c-3.2,3.2-7.5,5-12,5c-4.5,0-8.8-1.8-12-5
			c-6.2-6.2-8.3-15.3-4.9-21.2l3.2-5.4l-5.5-2.9c-7.6-4-18.4-6.3-29.5-6.3c-2.8,0-5.7,0.1-8.5,0.4c8.1-2.3,16.7-3.6,25.5-3.6V221.6
			 M134.4,221.6c-27,0-56.7,11.2-72,36.5c18-15.9,38.3-21.4,55-21.4c11,0,20.5,2.4,26.7,5.6c-5.1,8.8-1.7,20.9,5.9,28.5
			c4.5,4.5,10.4,6.7,16.3,6.7s11.8-2.2,16.3-6.7c9-9,8.7-23.3,0-32.5C172.4,227.5,154.1,221.6,134.4,221.6L134.4,221.6z"/>
	</g>
	<g>
		<path d="M224.2,364.3c0.1,0,0.1,0,0.2,0l0.1,0l0.1,0c0,0,0.1,0,0.1,0l0.7,0c4.6,0.2,5.6,1,6.6,2.2c1.9,2.4,4.1,4.2,6.3,5.1
			c-0.5,4.2-1.4,7.2-2,8c-1.1,1.5-4.5,3.3-11,3.6l-0.1,0l-0.1,0c0,0-0.4,0-0.6,0l-0.1,0l-0.1,0c-0.2,0-0.6,0-0.6,0l-0.1,0l-0.1,0
			c-6.5-0.3-9.9-2.1-11-3.6c-0.6-0.8-1.5-3.8-2-8c2.3-0.9,4.4-2.6,6.3-5.1c1-1.3,2-2.1,6.6-2.2L224.2,364.3 M225.7,358.3
			c-0.4,0-0.8,0-1.1,0c-0.4,0-0.8,0-1.1,0v0c-5.2,0.2-8.4,1.1-11.1,4.6c-1.8,2.3-3.8,3.5-5.3,3.5c-1.1,0-2.1-0.6-2.7-1.7
			c0,8.6,1.7,15.8,3.5,18.4c2.8,4,9.1,5.8,15.6,6.1c0,0,0.6,0,1,0c0,0,0.1,0,0.1,0c0,0,0.1,0,0.1,0c0.4,0,1,0,1,0
			c6.5-0.3,12.8-2.1,15.6-6.1c1.8-2.6,3.5-9.9,3.5-18.4c-0.6,1.2-1.6,1.7-2.7,1.7c-1.6,0-3.5-1.2-5.3-3.5
			C234.1,359.4,230.8,358.5,225.7,358.3L225.7,358.3L225.7,358.3z"/>
	</g>
	<g>
		<path d="M82.4,213.7c-8.1,0-15.4-4-19.7-10.8c-8-12.6-9.3-35.6-3.5-61.6l2.6-11.8l3.2,11.7c2.6,9.7,8,17.7,15.4,23.3
			c2.4,1.8,5.5,3.1,8.8,4.5c5.4,2.3,11,4.7,14.1,9.7c5.1,8.3,3.6,22.8-6.8,30.4C92.5,212.1,87.5,213.7,82.4,213.7z M63,153
			c-3,19.9-1.4,37.3,4.7,46.8c3.2,5.1,8.6,8,14.7,8c3.8,0,7.6-1.2,10.6-3.4c7.5-5.5,8.9-16.3,5.2-22.4c-2.1-3.4-6.6-5.3-11.3-7.3
			c-3.5-1.5-7-3-10-5.2C71,165.1,66.4,159.5,63,153z"/>
	</g>
	<g>
		<path d="M192.1,334.5c3.1,0,3.6,1.1,4,2.6c0.9,3.2-0.9,6.4-4.2,7.6c-0.1,0.1-8.5,3.4-15.5,9.4c0.3-4,1.3-7.8,3.1-11.2
			c2.4-4.5,5.8-7.5,9.4-8.2C190.2,334.6,191.2,334.5,192.1,334.5 M192.1,328.5c-1.3,0-2.7,0.2-4.3,0.5
			c-13.7,2.7-22.2,23.7-14.6,41.9c0.3-10.1,15.4-18.4,20.9-20.5c6.2-2.4,9.4-8.6,7.8-14.8C200.7,331.1,197.5,328.5,192.1,328.5
			L192.1,328.5z"/>
	</g>
	<g>
		<path d="M93.5,258.1c6.8,0,12.6,4.6,14.2,11.2l0,0.1l0,0.1c0.1,0.5,0.2,0.9,0.3,1.3c3.4,19.4,8.5,44,17.6,60.4
			c-15-5.3-25-14-31.2-21.2c-9.7-11.3-15.6-25.3-15.6-37.6c0.2-7,5.3-12.9,12.1-14.1C91.8,258.2,92.7,258.1,93.5,258.1 M93.5,252.1
			c-1.2,0-2.3,0.1-3.5,0.3c-9.9,1.7-16.9,10.2-17.1,19.9c0,25.4,22.4,62.5,69.2,68.9c-17.3-10.1-25.2-54.7-28.1-71.5
			c-0.1-0.7-0.3-1.3-0.4-1.9C111.3,258.5,102.9,252.1,93.5,252.1L93.5,252.1z"/>
	</g>
	<rect x="161" y="231.7" transform="matrix(0.7071 0.7071 -0.7071 0.7071 225.4587 -42.4344)" width="6" height="38.4"/>
	<rect x="95.8" y="273.6" transform="matrix(0.7072 0.707 -0.707 0.7072 235.3491 15.6259)" width="6" height="36.7"/>
	<rect x="91.3" y="258.8" transform="matrix(0.7071 0.7071 -0.7071 0.7071 224.46 14.8654)" width="6" height="39.2"/>
	<rect x="77.9" y="169.9" transform="matrix(0.7071 0.7071 -0.7071 0.7071 157.5021 -1.7511)" width="6" height="38.8"/>
</g>
<g id="Layer_5">
	<g>
		<path fill="#414042" d="M277.4,246.7c8.2,0,18,3.6,27.4,9.9c-3.6-1.4-6-2.1-6.3-2.2l-7.6-2.1v7.9c0,7.4-6.1,13.5-13.5,13.5
			c-7.4,0-13.5-6.1-13.5-13.5C263.9,252.7,270,246.7,277.4,246.7 M277.4,240.7c-10.8,0-19.5,8.7-19.5,19.5s8.7,19.5,19.5,19.5
			s19.5-8.7,19.5-19.5c0,0,22.1,6.1,38.1,22.8C325.8,260.2,298.4,240.7,277.4,240.7L277.4,240.7z"/>
	</g>
	<g>
		<path fill="#414042" d="M193.2,366.8c-0.1,7.2,0.8,15.8,5.5,22.7c0.4,0.5,0.7,1,1.1,1.5c-9.8-3.6-13.5-9.3-13.9-12.8
			C185.4,374,189,369.9,193.2,366.8 M200.1,356c0,0-21.9,8.9-20.1,22.9c1.2,9.4,13,21.6,43.5,21.6c6.5,0,6.2-6.9,0-6.9
			c-10,0-16.1-2.2-19.8-7.6C197.1,376.6,199.4,362.1,200.1,356L200.1,356z"/>
	</g>
	<g>
		<path fill="#414042" d="M255.5,366.9c4.1,3.1,7.8,7.1,7.3,11.3c-0.4,3.6-4.1,9.2-13.9,12.8c0.4-0.5,0.8-1,1.1-1.5
			C254.7,382.6,255.6,374,255.5,366.9 M248.6,356c0.7,6.1,3,20.5-3.6,30.1c-3.7,5.4-9.8,7.6-19.8,7.6c-6.2,0-6.5,6.9,0,6.9
			c30.5,0,42.4-12.3,43.5-21.6C270.5,364.9,248.6,356,248.6,356L248.6,356z"/>
	</g>
	<g>
		<path fill="#414042" d="M248.8,352.2l-7.7-0.8c-0.8-0.1-20.7-2.4-33.1-18.8c-8.7-11.6-11.5-27-8.2-45.9
			c2.7-15.6,3.4-35.7-15.1-52.9c-11.6-10.8-29.3-16.3-52.6-16.3c-4.9,0-10.1,0.3-15.4,0.8l-10.1,1l7.9-6.3
			c12-9.5,30.6-15.7,47.5-15.7c17.2,0,31.8,5.9,42.4,17.2c12.8,13.6,19.2,34.2,19.2,61.5c0,43.9,3.8,52.5,19.9,70.6L248.8,352.2z
			 M132.1,211.4c24.8,0,43.9,6,56.6,17.9c20.8,19.4,19.6,42.6,16.9,58.3c-3,17.2-0.6,31.1,7.1,41.3c6,8,14.2,12.1,20.3,14.3
			c-12.1-15.2-15.3-27.8-15.3-67.4c0-65.6-38.9-72.6-55.6-72.6c-11.6,0-24.1,3.1-34.2,8.3C129.3,211.4,130.7,211.4,132.1,211.4z"/>
	</g>
	<g>
		<path fill="#414042" d="M86.4,51.4c0.5,0,1.1,0.1,1.6,0.2c8.4,2,13,15.1,13,26.4c0,10.3-4.8,16.9-10,23.9
			c-3.2,4.4-6.5,8.9-8.5,14.2c-2.2,5.8-3,13.3-1.5,21.5c-15.2-20.2-14.7-44.8-13.2-56.8C69.9,63.2,79.1,51.4,86.4,51.4 M86.4,44.9
			c-11.3,0-22.6,14.3-25.1,35.1c-2.6,22.2,0,63.9,43.1,84.3c-18.9-16.4-19.8-35.1-15.8-45.9c4.6-12.5,18.9-20.9,18.9-40.3
			c0-13.4-5.6-29.8-17.9-32.7C88.5,45,87.5,44.9,86.4,44.9L86.4,44.9z"/>
	</g>
	<g>
		<path fill="#414042" d="M199.4,126.7c12.1,0,24.7,8.8,24.7,23.5c0,10.9-4,18.5-12.1,23.5c-8.3,5.1-18.7,5.8-24.1,5.8
			c-1.2,0-2.6,0-4.2-0.1c-2.3-0.1-4.8-0.2-7.8-0.2c-21.1,0-39.9,5.3-57,16.1c16.1-24.5,52.8-39.3,53.2-39.5l3.8-1.5v-4.1
			C175.9,137.3,186.5,126.7,199.4,126.7 M199.4,120.7c-16.3,0-29.5,13.2-29.5,29.5c0,0-59.1,23.4-64.1,62.6
			c27.2-24.7,53.6-27.6,70.1-27.6c5,0,9.1,0.3,12,0.3c16.3,0,42.2-6.1,42.2-35.3C230.1,133,215.8,120.7,199.4,120.7L199.4,120.7z"/>
	</g>
	<g>
		<path fill="#414042" d="M199.4,168.2c-9.9,0-17.9-8-17.9-17.9s8-17.9,17.9-17.9s17.9,8,17.9,17.9S209.3,168.2,199.4,168.2z
			 M199.4,138.3c-6.6,0-11.9,5.3-11.9,11.9c0,6.6,5.3,11.9,11.9,11.9s11.9-5.3,11.9-11.9C211.4,143.7,206,138.3,199.4,138.3z"/>
	</g>
	<g>
		<path fill="#414042" d="M132.8,266c3.5,10.2,11.2,19,24.1,23.2l0.9,0.3h0.9c11.7,0,21.2,9.5,21.2,21.2c0,11.6-8.2,19.7-20,19.7
			c-11.4,0-21.4-8.8-25.5-22.4C130.4,293.9,130.4,277.9,132.8,266 M137.1,244.3c-11.8,8.8-15.4,41.3-8.3,65.3
			c4.4,15,16.2,26.7,31.2,26.7s26-10.7,26-25.7c0-15-12.2-27.2-27.2-27.2C137.9,276.7,134.8,257,137.1,244.3L137.1,244.3z"/>
	</g>
	
		<rect x="152.2" y="283.1" transform="matrix(0.7071 0.7071 -0.7071 0.7071 261.9222 -20.0852)" fill="#414042" width="6" height="46.1"/>
	
		<rect x="80.3" y="60.5" transform="matrix(0.7071 0.7071 -0.7071 0.7071 85.7061 -33.4863)" fill="#414042" width="6" height="52.5"/>
	
		<rect x="197.9" y="220.6" transform="matrix(0.7071 0.7071 -0.7071 0.7071 222.5247 -74.2553)" fill="#414042" width="6" height="21.8"/>
	
		<rect x="273.6" y="240.9" transform="matrix(0.7071 0.7071 -0.7071 0.7071 262.3956 -120.4508)" fill="#414042" width="6" height="31.1"/>
	
		<rect x="172.1" y="154.8" transform="matrix(0.7072 0.707 -0.707 0.7072 172.1852 -73.7321)" fill="#414042" width="6" height="32.4"/>
</g>
<g id="Layer_4">
	<g>
		<path fill="#6D6E71" d="M230.4,235.4c11.2,11.5,14.5,19.5,17.8,34.4c2,9,1.7,17.9,1.5,28.2c-0.3,10.1-0.6,21,1.3,33.7
			c-3.6-5.9-7.1-13.3-9-22.5c-1.8-8.2-2.8-18-3.9-28.3C236.4,266.1,234.7,250.1,230.4,235.4 M211.1,209.9
			c21.4,25.6,18.6,71.4,24.9,100.5c6.3,29.1,26.3,42.8,26.3,42.8c-12.6-37.2-3-60.3-8.4-84.7C248.7,244.1,241.9,236,211.1,209.9
			L211.1,209.9z"/>
	</g>
	<g>
		<path fill="#6D6E71" d="M111.9,49.7c12.7,7.5,27.4,18.7,37.9,34.5c5.7,8.5,9,18.1,9.6,27.7c0.6,8.8-1.2,17.3-5,24.5
			c-6.1,11.3-16.6,17.8-28.9,17.8c-7.9,0-14.3-2.2-18.7-6.5c-3.8-3.7-5.9-8.9-5.9-14.5c0-4.7,3.4-11,7.1-17.7
			c5.5-10.2,12.4-22.9,12.4-38.3C120.4,67.1,116.6,57.7,111.9,49.7 M87.9,31.4c0,0,26,21.3,26,45.6s-19.4,41.6-19.4,56
			c0,14.5,10.7,27.5,31.1,27.5c35.4,0,53.5-44.3,29.7-80.1C131.4,44.8,87.9,31.4,87.9,31.4L87.9,31.4z"/>
	</g>
	<g>
		<path fill="#6D6E71" d="M263.9,221.1c-15,0-27.3-12.2-27.3-27.3c0-15,12.2-27.3,27.3-27.3s27.3,12.2,27.3,27.3
			C291.1,208.9,278.9,221.1,263.9,221.1z M263.9,172.6c-11.7,0-21.3,9.5-21.3,21.3c0,11.7,9.5,21.3,21.3,21.3s21.3-9.5,21.3-21.3
			C285.1,182.1,275.6,172.6,263.9,172.6z"/>
	</g>
	<g>
		<path fill="#6D6E71" d="M248.8,143.3c-9.1,0-17.2-5.4-20.7-13.7c-0.1-0.2-9.5-18.2-31.2-17.3l-7.3,0.3l5-5.4
			c9.7-10.4,23.9-16.4,39.1-16.4c22.2,0,37.7,12.3,37.7,29.9C271.3,133.2,261.2,143.3,248.8,143.3z M204.1,106.7
			c18.1,2.5,27.8,16.5,29.5,20.6c2.6,6.1,8.6,10.1,15.2,10.1c9.1,0,16.5-7.4,16.5-16.5c0-16.4-16.4-23.9-31.7-23.9
			C222.6,96.9,212.2,100.4,204.1,106.7z"/>
	</g>
	<g>
		<path fill="#6D6E71" d="M360.6,287.9c-1.3,10.1-4.9,17.9-8.4,23.3c-6.1,9.3-14.9,16.4-23.7,19c-0.8,0.2-1.7,0.3-2.5,0.3
			c-3.8,0-7.2-2.1-8.9-5.6c-2.3-4.7-0.5-10.3,4-12.9l0.1-0.1l0.1-0.1c0.3-0.2,0.5-0.3,0.7-0.4C335.4,304.9,350.4,296.9,360.6,287.9
			 M366.2,270c-3.8,15-35.1,30.4-46.9,36.1c-0.5,0.2-0.9,0.5-1.3,0.7c-7.2,4.1-10.1,13.2-6.4,20.7c2.7,5.7,8.4,9,14.3,9
			c1.4,0,2.7-0.2,4.1-0.5C348.8,330.5,371.5,306,366.2,270L366.2,270z"/>
	</g>
	
		<rect x="261.1" y="169" transform="matrix(0.7071 0.7071 -0.7071 0.7071 213.4141 -130.3713)" fill="#6D6E71" width="6" height="46.9"/>
	
		<rect x="123.4" y="73.7" transform="matrix(0.7071 0.7071 -0.7071 0.7071 115.1917 -57.003)" fill="#6D6E71" width="6" height="73.8"/>
	
		<rect x="336.3" y="278.6" transform="matrix(0.7071 0.7071 -0.7071 0.7071 317.0226 -149.7908)" fill="#6D6E71" width="6" height="58.4"/>
	
		<rect x="242.1" y="274.5" transform="matrix(0.7071 0.7071 -0.7071 0.7071 273.7441 -89.6413)" fill="#6D6E71" width="6" height="22.2"/>
	
		<rect x="235.1" y="91.1" transform="matrix(0.7071 0.7071 -0.7071 0.7071 146.5309 -136.5875)" fill="#6D6E71" width="6" height="35"/>
</g>
<g id="Layer_3">
	<g>
		<path fill="#A7A9AC" d="M264.7,159.2c19.8,0,36,16.1,36,36v3.5l3.1,1.7c0.1,0.1,11.2,6.3,20.5,18.8c9.7,12.9,13.8,27.2,12.2,42.8
			c-22.5-28.3-45.9-30.8-71.8-30.8c-19.8,0-36-16.1-36-36C228.7,175.3,244.9,159.2,264.7,159.2 M264.7,153.2c-23.2,0-42,18.8-42,42
			c0,23.2,18.8,42,42,42c26.5,0,51.1,2.1,75,39.7c15.8-54.4-33-81.6-33-81.6C306.6,172,287.9,153.2,264.7,153.2L264.7,153.2z"/>
	</g>
	<g>
		<path fill="#A7A9AC" d="M275.1,373l-4.9-12.2c-0.3-0.8-8-20.4-4-44.4c2.3-13.9,11.2-22,19.1-29.1c6.3-5.7,12.2-11,14.3-18.6l1.1-4
			l3.4,2.3c10.1,6.9,15.3,17.9,13.9,29.4c-1.5,11.9-9.5,21.9-20.9,26.1c-19,7-21.2,37.1-21.2,37.4L275.1,373z M303.8,274.3
			c-3.2,7.1-9,12.3-14.6,17.4c-7.8,7.1-15.3,13.8-17.2,25.6c-1.8,11-1,21.1,0.4,28.6c2.9-10.5,9.2-24.2,22.7-29.1
			c9.3-3.4,15.8-11.5,17-21.2C313.1,287.4,310.1,279.8,303.8,274.3z"/>
	</g>
	<g>
		<path fill="#A7A9AC" d="M350.5,38.7c0,0,17.4,28,17.4,58.2c0,46.9-27.9,62.4-48.1,62.4c-23.2,0-38.1-14.8-38.1-37.3
			c0-27.3,24.6-33.5,42.7-51.7C340.8,53.8,350.5,38.7,350.5,38.7 M350.6,27.5l-5.1,8l0,0c-0.1,0.1-9.5,14.8-25.2,30.5
			c-5.1,5.1-10.9,9.3-16.5,13.4c-13.8,10-28,20.4-28,42.6c0,25.9,17.7,43.3,44.1,43.3c13.3,0,26.3-5.6,35.9-15.4
			c11.9-12.2,18.2-30.5,18.2-53c0-31.6-17.5-60.2-18.3-61.4L350.6,27.5L350.6,27.5z"/>
	</g>
	<g>
		<path fill="#A7A9AC" d="M346.6,287.3l2.4-14.5c0.1-0.4,6.5-41.7-12.5-58.5c-12-10.6-14-20.2-13.6-26.4c0.6-8.1,5.4-14,9.6-16.8
			c4-2.6,9.1-4.1,14.2-4.1c10.9,0,20.2,6.3,25,16.8c16.6,36.8-15.9,88.9-17.3,91.1L346.6,287.3z M346.8,173.1c-4,0-7.9,1.1-10.9,3.1
			c-2.9,1.9-6.5,6.3-6.9,12.2c-0.5,6.9,3.5,14.4,11.6,21.5c13.9,12.3,16,34.7,15.6,49.5c8.5-17.3,20.9-49.4,10.2-73.1
			C360.9,174.3,350.8,173.1,346.8,173.1z"/>
	</g>
	
		<rect x="344.8" y="168.4" transform="matrix(0.7071 0.7071 -0.7071 0.7071 236.7536 -190.0347)" fill="#A7A9AC" width="6" height="44.8"/>
	
		<rect x="287.8" y="270.7" transform="matrix(0.7071 0.7071 -0.7071 0.7071 298.7489 -117.1351)" fill="#A7A9AC" width="6" height="62.7"/>
	
		<rect x="342.7" y="54.3" transform="matrix(0.7071 0.7071 -0.7071 0.7071 156.4154 -221.6086)" fill="#A7A9AC" width="6" height="47.5"/>
	<g>
		<path fill="#A7A9AC" d="M319.8,153.1c-17.1,0-31.1-13.9-31.1-31.1c0-17.1,13.9-31.1,31.1-31.1s31.1,13.9,31.1,31.1
			C350.9,139.1,336.9,153.1,319.8,153.1z M319.8,96.9c-13.8,0-25.1,11.3-25.1,25.1c0,13.8,11.3,25.1,25.1,25.1s25.1-11.3,25.1-25.1
			C344.9,108.1,333.6,96.9,319.8,96.9z"/>
	</g>
	<g>
		
			<rect x="319.1" y="95.6" transform="matrix(0.7071 0.7071 -0.7071 0.7071 181.6893 -191.6066)" fill="#A7A9AC" width="6" height="55.9"/>
	</g>
</g>
</svg>
