<?xml version="1.0" encoding="utf-8"?>
<!-- Generator: Adobe Illustrator 18.0.0, SVG Export Plug-In . SVG Version: 6.00 Build 0)  -->
<!DOCTYPE svg PUBLIC "-//W3C//DTD SVG 1.1//EN" "http://www.w3.org/Graphics/SVG/1.1/DTD/svg11.dtd">
<svg version="1.1" xmlns="http://www.w3.org/2000/svg" xmlns:xlink="http://www.w3.org/1999/xlink" x="0px" y="0px"
	 viewBox="90 180 432 432" enable-background="new 90 180 432 432" xml:space="preserve">
<g id="Layer_1">
	<polygon fill="#D1D3D4" points="479,535.6 489.6,544 489.6,541.4 480.8,533.8 	"/>
	<polygon fill="#D1D3D4" points="459.6,555 488.2,582.4 489.6,582.4 489.6,579.8 463.2,551.4 	"/>
	<polygon fill="#D1D3D4" points="469.4,545.2 489.6,563.2 489.6,560.7 471.5,543.1 	"/>
	<polygon fill="#D1D3D4" points="451.1,563.5 468.9,582.4 471.4,582.4 453.3,561.3 	"/>
	<polygon fill="#D1D3D4" points="441.7,572.9 449.6,582.4 452.1,582.4 443.5,571 	"/>
	<polygon fill="#D1D3D4" points="432.2,582.4 432.8,582.4 432.6,582 	"/>
	<polygon fill="#D1D3D4" points="523.8,570.8 489.6,541.4 489.6,544 	"/>
	<polygon fill="#D1D3D4" points="500.9,616.6 471.4,582.4 468.9,582.4 	"/>
	<polygon fill="#D1D3D4" points="523.8,547.8 491.2,523.3 489.8,524.8 	"/>
	<polygon fill="#D1D3D4" points="488.2,582.4 523.8,616.6 489.6,579.8 489.6,582.4 	"/>
	<polygon fill="#D1D3D4" points="523.8,524.8 503.1,511.5 502.1,512.5 	"/>
	<polygon fill="#D1D3D4" points="431,583.5 455,616.6 432.8,582.4 432.2,582.4 	"/>
	<polygon fill="#D1D3D4" points="409.1,616.6 405.7,608.8 405.4,609.2 	"/>
	<polygon fill="#D1D3D4" points="432.1,616.6 420.1,594.5 419,595.5 	"/>
	<polygon fill="#D1D3D4" points="523.8,501.9 516.5,498 516.2,498.4 	"/>
	<polygon fill="#D1D3D4" points="478,616.6 452.1,582.4 449.6,582.4 	"/>
	<polygon fill="#D1D3D4" points="523.8,593.8 489.6,560.7 489.6,563.2 	"/>
	<polygon fill="#D1D3D4" points="143.2,251.9 122.4,233.8 122.4,236.4 141,254 	"/>
	<polygon fill="#D1D3D4" points="179.9,215.2 179.1,215.2 179.4,215.6 	"/>
	<polygon fill="#D1D3D4" points="133.5,261.5 122.4,253.1 122.4,255.7 131.6,263.4 	"/>
	<polygon fill="#D1D3D4" points="152.2,242.8 123.6,215.2 122.4,215.2 122.4,217.1 149.4,245.6 	"/>
	<polygon fill="#D1D3D4" points="160.8,234.3 143,215.2 140.4,215.2 158.6,236.5 	"/>
	<polygon fill="#D1D3D4" points="122.6,272.5 122.4,272.4 122.4,272.6 	"/>
	<polygon fill="#D1D3D4" points="170.3,224.8 162.4,215.2 159.8,215.2 168.4,226.7 	"/>
	<polygon fill="#D1D3D4" points="88.2,272.7 109.2,285.9 110.2,284.9 	"/>
	<polygon fill="#D1D3D4" points="88.2,295.7 95.5,299.5 95.9,299.1 	"/>
	<polygon fill="#D1D3D4" points="180.9,214.1 157,181 179.1,215.2 179.9,215.2 	"/>
	<polygon fill="#D1D3D4" points="123.6,215.2 88.2,181 122.4,217.1 122.4,215.2 	"/>
	<polygon fill="#D1D3D4" points="180,181 191.9,203.1 193,202.1 	"/>
	<polygon fill="#D1D3D4" points="134.1,181 159.8,215.2 162.4,215.2 	"/>
	<polygon fill="#D1D3D4" points="111.1,181 140.4,215.2 143,215.2 	"/>
	<polygon fill="#D1D3D4" points="88.2,226.8 122.4,255.7 122.4,253.1 	"/>
	<polygon fill="#D1D3D4" points="202.9,181 206.3,188.7 206.7,188.4 	"/>
	<polygon fill="#D1D3D4" points="122.4,272.4 88.2,249.8 121.1,274 122.4,272.6 	"/>
	<polygon fill="#D1D3D4" points="88.2,203.9 122.4,236.4 122.4,233.8 	"/>
	<polygon fill="#D1D3D4" points="462.9,245.9 489.6,217.4 489.6,215.2 488.7,215.2 460,243 	"/>
	<polygon fill="#D1D3D4" points="489.6,272.6 489.6,272.5 489.6,272.6 	"/>
	<polygon fill="#D1D3D4" points="471.2,254.2 489.6,236.6 489.6,234.1 469.1,252.1 	"/>
	<polygon fill="#D1D3D4" points="453.7,236.7 472,215.2 469.4,215.2 451.5,234.5 	"/>
	<polygon fill="#D1D3D4" points="443.9,226.9 452.6,215.2 450,215.2 442,224.9 	"/>
	<polygon fill="#D1D3D4" points="480.6,263.5 489.6,255.9 489.6,253.3 478.7,261.7 	"/>
	<polygon fill="#D1D3D4" points="432.8,215.8 433.2,215.2 432.2,215.2 	"/>
	<polygon fill="#D1D3D4" points="500.9,181.1 469.4,215.2 472,215.2 	"/>
	<polygon fill="#D1D3D4" points="523.8,226.8 489.6,253.3 489.6,255.9 	"/>
	<polygon fill="#D1D3D4" points="523.8,203.9 489.6,234.1 489.6,236.6 	"/>
	<polygon fill="#D1D3D4" points="491,274 523.8,249.8 489.6,272.5 489.6,272.6 	"/>
	<polygon fill="#D1D3D4" points="478,181 450,215.2 452.6,215.2 	"/>
	<polygon fill="#D1D3D4" points="433.2,215.2 455,181 431.2,214.2 432.2,215.2 	"/>
	<polygon fill="#D1D3D4" points="409.1,181 405.4,188.4 405.8,188.8 	"/>
	<polygon fill="#D1D3D4" points="432.1,181 419.2,202.2 420.2,203.2 	"/>
	<polygon fill="#D1D3D4" points="523.8,295.7 516.1,299.1 516.5,299.5 	"/>
	<polygon fill="#D1D3D4" points="523.8,272.7 501.9,284.9 502.9,285.9 	"/>
	<polygon fill="#D1D3D4" points="489.6,217.4 523.8,181 488.7,215.2 489.6,215.2 	"/>
	<polygon fill="#D1D3D4" points="141.3,543.8 122.4,561.5 122.4,564.1 143.4,546 	"/>
	<polygon fill="#D1D3D4" points="149.7,552.2 122.4,580.8 122.4,582.4 123.3,582.4 151.9,554.5 	"/>
	<polygon fill="#D1D3D4" points="158.3,560.8 140,582.4 143.2,582.4 160.9,563.5 	"/>
	<polygon fill="#D1D3D4" points="122.4,524.9 122.4,525.5 122.8,525.3 	"/>
	<polygon fill="#D1D3D4" points="131.8,534.4 122.4,542.2 122.4,544.8 133.7,536.2 	"/>
	<polygon fill="#D1D3D4" points="168.5,571 159.9,582.4 162.5,582.4 170.4,572.9 	"/>
	<polygon fill="#D1D3D4" points="179.5,582 179.2,582.4 179.9,582.4 	"/>
	<polygon fill="#D1D3D4" points="134.1,616.6 162.5,582.4 159.9,582.4 	"/>
	<polygon fill="#D1D3D4" points="179.2,582.4 157,616.6 181,583.5 179.9,582.4 	"/>
	<polygon fill="#D1D3D4" points="202.8,616.6 206.6,609.2 206.2,608.8 	"/>
	<polygon fill="#D1D3D4" points="111.1,616.6 143.2,582.4 140,582.4 	"/>
	<polygon fill="#D1D3D4" points="180,616.6 193,595.5 192,594.5 	"/>
	<polygon fill="#D1D3D4" points="88.2,570.7 122.4,544.8 122.4,542.2 	"/>
	<polygon fill="#D1D3D4" points="88.2,593.7 122.4,564.1 122.4,561.5 	"/>
	<polygon fill="#D1D3D4" points="121.3,523.8 88.2,547.8 122.4,525.5 122.4,524.9 	"/>
	<polygon fill="#D1D3D4" points="88.2,502 96,498.6 95.7,498.2 	"/>
	<polygon fill="#D1D3D4" points="122.4,580.8 88.2,616.6 123.3,582.4 122.4,582.4 	"/>
	<polygon fill="#D1D3D4" points="88.2,524.9 110.4,512.9 109.3,511.9 	"/>
	<polygon fill="#D1D3D4" points="213.9,447.1 171.2,473.5 175.2,477.6 213.9,456.5 179.3,481.6 183.5,485.8 213.9,466 186.5,488.8 
		190.7,493.1 213.9,475.5 192.9,495.2 197.2,499.5 213.9,485.1 198.7,501 202.7,505 218.4,489.6 204.2,506.5 209.4,511.7 
		230.1,489.6 211.7,514 215.8,518.2 239.5,489.6 219,521.3 223.1,525.4 249.1,489.6 227.3,529.6 231.3,533.6 258.5,489.6 
		236.8,539.1 240.6,542.9 268,489.6 247.8,550.2 251.4,553.7 277.5,489.6 260.8,563.2 263.9,566.2 287,489.6 276.2,578.6 
		278.6,580.9 296.6,489.6 295.1,582.4 297.6,582.4 306,489.6 314.4,582.4 316.9,582.4 315.5,489.6 333.4,581 335.8,578.6 325,489.6 
		348.2,566.2 351.2,563.2 334.5,489.6 360.6,553.8 364.1,550.2 343.9,489.6 371.4,543 375.2,539.1 353.5,489.6 380.7,533.6 
		384.7,529.6 363,489.6 388.9,525.4 393.1,521.3 372.5,489.6 396.2,518.1 400.4,514 382,489.6 402.6,511.7 406.9,507.4 391.5,489.6 
		408.5,505.9 414.9,499.4 398.8,482.1 416.4,497.9 420.5,493.8 398.8,472.7 422.8,491.5 426.8,487.5 398.8,463.4 429.9,484.4 
		433.9,480.4 398.8,454 438,476.3 441.9,472.3 398.8,444.7 447.4,466.9 451.1,463.2 398.8,435.3 458.2,456.1 461.6,452.6 398.8,426 
		470.9,443.4 473.9,440.4 398.8,416.8 486,428.2 488.4,425.9 398.8,407.4 489.6,409.5 489.6,406.9 398.8,398.1 489.6,390.3 
		489.6,387.7 398.8,388.7 488,371.3 485.7,369 398.8,379.5 473.5,356.8 470.5,353.8 398.8,370.2 461.2,344.5 457.7,341 398.8,360.9 
		450.6,333.9 446.8,330.1 398.8,351.5 441.4,324.7 437.4,320.7 398.8,342.1 433.3,316.6 429.3,312.6 398.8,332.9 426.3,309.6 
		422.2,305.5 398.8,323.5 420,303.3 415.8,299.1 398.8,314.2 414.3,297.6 409.2,292.5 393.2,308 407.7,291 403.3,286.6 383.6,308 
		401.1,284.4 396.8,280.1 373.9,308 393.7,277 389.4,272.7 364.3,307.9 385.3,268.6 381.1,264.4 354.6,307.9 375.7,259 371.7,255 
		345,307.9 364.5,247.8 360.9,244.2 335.3,307.9 351.5,234.8 348.3,231.6 325.7,307.9 336,219.3 333.6,216.9 316.1,308 317.1,215.2 
		314.5,215.2 306.4,308 297.7,215.2 295.1,215.2 296.8,307.9 278.7,216.7 276.3,219.1 287.1,307.9 263.9,231.4 260.8,234.5 
		277.5,307.9 251.4,243.9 247.8,247.5 267.9,307.9 240.6,254.7 236.8,258.6 258.3,307.9 231.3,264.1 227.2,268.2 248.7,307.9 
		223,272.4 218.8,276.6 239,307.9 215.7,279.7 211.4,284 229.4,307.9 209.1,286.2 204.8,290.5 219.7,307.9 203.3,292.1 198.2,297.1 
		213.9,313.6 196.7,298.6 192.5,302.8 213.9,323.1 190.3,305.1 186.1,309.3 213.9,332.7 183,312.3 178.9,316.5 213.9,342.2 
		174.7,320.6 170.7,324.6 213.9,351.7 165.3,330 161.4,333.9 213.9,361.3 154.3,341 150.8,344.6 213.9,370.8 141.4,353.9 138.3,357 
		213.9,380.4 126.1,369.2 123.8,371.6 213.9,389.8 122.4,388 122.4,390.6 213.9,399.4 122.4,407.3 122.4,409.9 213.9,408.8 
		123.9,426.3 126.4,428.7 213.9,418.4 138.7,441 141.8,444.1 213.9,428 151.1,453.5 154.7,457.1 213.9,437.5 161.9,464.2 
		165.8,468.1 	"/>
	<polygon fill="#D1D3D4" points="402.6,511.7 426.9,537.6 430.1,534.4 406.9,507.4 	"/>
	<polygon fill="#D1D3D4" points="438,476.3 470.1,494.4 472.5,491.9 441.9,472.3 	"/>
	<polygon fill="#D1D3D4" points="470.9,443.4 489.6,447.9 489.6,445.4 473.9,440.4 	"/>
	<polygon fill="#D1D3D4" points="380.7,533.6 399.9,564.6 402.4,562.1 384.7,529.6 	"/>
	<polygon fill="#D1D3D4" points="486,428.2 489.6,428.7 489.6,426.1 488.4,425.9 	"/>
	<polygon fill="#D1D3D4" points="388.9,525.4 410,554.5 412.8,551.6 393.1,521.3 	"/>
	<polygon fill="#D1D3D4" points="422.8,491.5 450.9,513.6 453.8,510.7 426.8,487.5 	"/>
	<polygon fill="#D1D3D4" points="458.2,456.1 489.6,467 489.6,464.5 461.6,452.6 	"/>
	<polygon fill="#D1D3D4" points="481.8,482.7 483.9,480.6 451.1,463.2 447.4,466.9 	"/>
	<polygon fill="#D1D3D4" points="396.2,518.1 418.9,545.5 422,542.5 400.4,514 	"/>
	<polygon fill="#D1D3D4" points="433.9,480.4 429.9,484.4 459.9,504.6 462.6,501.9 	"/>
	<polygon fill="#D1D3D4" points="348.2,566.2 353,582.4 355.6,582.4 351.2,563.2 	"/>
	<polygon fill="#D1D3D4" points="333.4,581 333.6,582.4 336.2,582.4 335.8,578.6 	"/>
	<polygon fill="#D1D3D4" points="360.6,553.8 372.3,582.4 374.8,582.4 364.1,550.2 	"/>
	<polygon fill="#D1D3D4" points="408.5,505.9 434,530.4 439.1,525.4 414.9,499.4 	"/>
	<polygon fill="#D1D3D4" points="371.4,543 388.4,576.1 390.5,574 375.2,539.1 	"/>
	<polygon fill="#D1D3D4" points="416.4,497.9 442.9,521.5 446,518.4 420.5,493.8 	"/>
	<polygon fill="#D1D3D4" points="141.4,353.9 122.4,349.5 122.4,352.1 138.3,357 	"/>
	<polygon fill="#D1D3D4" points="130.6,314.6 128.5,316.7 161.4,333.9 165.3,330 	"/>
	<polygon fill="#D1D3D4" points="139.9,305.2 170.7,324.6 174.7,320.6 142.4,302.7 	"/>
	<polygon fill="#D1D3D4" points="278.7,216.7 278.4,215.2 275.8,215.2 276.3,219.1 	"/>
	<polygon fill="#D1D3D4" points="251.4,243.9 239.7,215.2 237.1,215.2 247.8,247.5 	"/>
	<polygon fill="#D1D3D4" points="173.8,271.3 198.2,297.1 203.3,292.1 177.7,267.4 	"/>
	<polygon fill="#D1D3D4" points="166.7,278.4 192.5,302.8 196.7,298.6 169.9,275.2 	"/>
	<polygon fill="#D1D3D4" points="240.6,254.7 223.6,221.5 221.5,223.6 236.8,258.6 	"/>
	<polygon fill="#D1D3D4" points="149.9,295.2 178.9,316.5 183,312.3 152.8,292.4 	"/>
	<polygon fill="#D1D3D4" points="158.8,286.3 186.1,309.3 190.3,305.1 161.9,283.3 	"/>
	<polygon fill="#D1D3D4" points="209.5,235.6 227.2,268.2 231.3,264.1 212.1,233 	"/>
	<polygon fill="#D1D3D4" points="263.9,231.4 259,215.2 256.5,215.2 260.8,234.5 	"/>
	<polygon fill="#D1D3D4" points="189.9,255.3 211.4,284 215.7,279.7 192.9,252.2 	"/>
	<polygon fill="#D1D3D4" points="126.1,369.2 122.4,368.7 122.4,371.3 123.8,371.6 	"/>
	<polygon fill="#D1D3D4" points="199.1,246.1 218.8,276.6 223,272.4 201.9,243.2 	"/>
	<polygon fill="#D1D3D4" points="154.3,341 122.4,330.2 122.4,332.8 150.8,344.6 	"/>
	<polygon fill="#D1D3D4" points="181.7,263.5 204.8,290.5 209.1,286.2 184.9,260.2 	"/>
	<polygon fill="#D1D3D4" points="441.4,324.7 472.2,305.3 469.7,302.8 437.4,320.7 	"/>
	<polygon fill="#D1D3D4" points="450.6,333.9 483.6,316.7 481.5,314.6 446.8,330.1 	"/>
	<polygon fill="#D1D3D4" points="488,371.3 489.6,371 489.6,368.5 485.7,369 	"/>
	<polygon fill="#D1D3D4" points="385.3,268.6 402.8,235.9 400.2,233.3 381.1,264.4 	"/>
	<polygon fill="#D1D3D4" points="390.7,223.8 388.6,221.7 371.7,255 375.7,259 	"/>
	<polygon fill="#D1D3D4" points="407.7,291 430.7,263.8 427.5,260.6 403.3,286.6 	"/>
	<polygon fill="#D1D3D4" points="401.1,284.4 422.5,255.6 419.4,252.5 396.8,280.1 	"/>
	<polygon fill="#D1D3D4" points="393.7,277 413.3,246.4 410.4,243.5 389.4,272.7 	"/>
	<polygon fill="#D1D3D4" points="351.5,234.8 355.8,215.2 353.2,215.2 348.3,231.6 	"/>
	<polygon fill="#D1D3D4" points="433.3,316.6 462.2,295.3 459.5,292.6 429.3,312.6 	"/>
	<polygon fill="#D1D3D4" points="364.5,247.8 375.1,215.2 372.5,215.2 360.9,244.2 	"/>
	<polygon fill="#D1D3D4" points="336,219.3 336.5,215.2 333.9,215.2 333.6,216.9 	"/>
	<polygon fill="#D1D3D4" points="426.3,309.6 453.4,286.5 450.5,283.6 422.2,305.5 	"/>
	<polygon fill="#D1D3D4" points="414.3,297.6 438.6,271.7 434.7,267.7 409.2,292.5 	"/>
	<polygon fill="#D1D3D4" points="420,303.3 445.6,278.7 442.5,275.6 415.8,299.1 	"/>
	<polygon fill="#D1D3D4" points="461.2,344.5 489.6,332.7 489.6,330.2 457.7,341 	"/>
	<polygon fill="#D1D3D4" points="473.5,356.8 489.6,351.9 489.6,349.4 470.5,353.8 	"/>
	<polygon fill="#D1D3D4" points="186.5,488.8 159.2,511.6 162.2,514.7 190.7,493.1 	"/>
	<polygon fill="#D1D3D4" points="161.9,464.2 128.8,481.2 130.9,483.3 165.8,468.1 	"/>
	<polygon fill="#D1D3D4" points="179.3,481.6 150.3,502.7 153.1,505.5 183.5,485.8 	"/>
	<polygon fill="#D1D3D4" points="276.2,578.6 275.8,582.4 278.3,582.4 278.6,580.9 	"/>
	<polygon fill="#D1D3D4" points="260.8,563.2 256.5,582.4 259,582.4 263.9,566.2 	"/>
	<polygon fill="#D1D3D4" points="219,521.3 199.2,551.6 202.1,554.5 223.1,525.4 	"/>
	<polygon fill="#D1D3D4" points="192.9,495.2 167.1,519.5 170.3,522.7 197.2,499.5 	"/>
	<polygon fill="#D1D3D4" points="247.8,550.2 237.1,582.4 239.7,582.4 251.4,553.7 	"/>
	<polygon fill="#D1D3D4" points="211.7,514 190.1,542.5 193.1,545.5 215.8,518.2 	"/>
	<polygon fill="#D1D3D4" points="227.3,529.6 209.6,562.1 212.2,564.6 231.3,533.6 	"/>
	<polygon fill="#D1D3D4" points="221.5,573.9 223.6,576 240.6,542.9 236.8,539.1 	"/>
	<polygon fill="#D1D3D4" points="171.2,473.5 140.3,492.7 142.8,495.2 175.2,477.6 	"/>
	<polygon fill="#D1D3D4" points="198.7,501 174.2,526.6 177.3,529.7 202.7,505 	"/>
	<polygon fill="#D1D3D4" points="151.1,453.5 122.4,465.2 122.4,467.8 154.7,457.1 	"/>
	<polygon fill="#D1D3D4" points="204.2,506.5 181.2,533.6 185.2,537.6 209.4,511.7 	"/>
	<polygon fill="#D1D3D4" points="138.7,441 122.4,445.9 122.4,448.5 141.8,444.1 	"/>
	<polygon fill="#D1D3D4" points="123.9,426.3 122.4,426.6 122.4,429.2 126.4,428.7 	"/>
	<polygon fill="#D1D3D4" points="122.4,388 107.6,387.7 106.3,389.1 122.4,390.6 	"/>
	<polygon fill="#D1D3D4" points="489.6,409.5 504.5,409.8 505.8,408.5 489.6,406.9 	"/>
	<polygon fill="#D1D3D4" points="489.6,390.3 505.6,388.9 504.2,387.5 489.6,387.7 	"/>
	<polygon fill="#D1D3D4" points="297.7,215.2 296.2,199.1 294.9,200.4 295.1,215.2 	"/>
	<polygon fill="#D1D3D4" points="295.1,582.4 294.9,597.2 296.2,598.5 297.6,582.4 	"/>
	<polygon fill="#D1D3D4" points="314.4,582.4 315.9,598.6 317.2,597.3 316.9,582.4 	"/>
	<polygon fill="#D1D3D4" points="122.4,407.3 106.4,408.7 107.7,410 122.4,409.9 	"/>
	<polygon fill="#D1D3D4" points="317.1,215.2 317.3,200.6 315.9,199.2 314.5,215.2 	"/>
	<polygon fill="#D1D3D4" points="479,535.6 480.8,533.8 453.8,510.7 450.9,513.6 	"/>
	<polygon fill="#D1D3D4" points="442.9,521.5 469.4,545.2 471.5,543.1 446,518.4 	"/>
	<polygon fill="#D1D3D4" points="470.1,494.4 489.6,505.5 489.6,502.9 472.5,491.9 	"/>
	<polygon fill="#D1D3D4" points="481.8,482.7 489.6,486.2 489.6,483.7 483.9,480.6 	"/>
	<polygon fill="#D1D3D4" points="459.9,504.6 489.6,524.7 489.6,522.1 462.6,501.9 	"/>
	<polygon fill="#D1D3D4" points="410,554.5 430.2,582.4 432.2,582.4 432.6,582 412.8,551.6 	"/>
	<polygon fill="#D1D3D4" points="388.4,576.1 391.6,582.4 394.2,582.4 390.5,574 	"/>
	<polygon fill="#D1D3D4" points="426.9,537.6 451.1,563.5 453.3,561.3 430.1,534.4 	"/>
	<polygon fill="#D1D3D4" points="418.9,545.5 441.7,572.9 443.5,571 422,542.5 	"/>
	<polygon fill="#D1D3D4" points="434,530.4 459.6,555 463.2,551.4 439.1,525.4 	"/>
	<polygon fill="#D1D3D4" points="399.9,564.6 410.9,582.4 413.5,582.4 402.4,562.1 	"/>
	<polygon fill="#D1D3D4" points="363.4,616.6 355.6,582.4 353,582.4 	"/>
	<polygon fill="#D1D3D4" points="386.2,616.6 374.8,582.4 372.3,582.4 	"/>
	<polygon fill="#D1D3D4" points="391.6,582.4 405.4,609.2 405.7,608.8 394.2,582.4 	"/>
	<polygon fill="#D1D3D4" points="317.5,616.6 317.2,597.3 315.9,598.6 	"/>
	<polygon fill="#D1D3D4" points="340.3,616.6 336.2,582.4 333.6,582.4 	"/>
	<polygon fill="#D1D3D4" points="523.8,479 489.6,464.5 489.6,467 	"/>
	<polygon fill="#D1D3D4" points="523.8,410.3 505.8,408.5 504.5,409.8 	"/>
	<polygon fill="#D1D3D4" points="523.8,433.2 489.6,426.1 489.6,428.7 	"/>
	<polygon fill="#D1D3D4" points="523.8,456.1 489.6,445.4 489.6,447.9 	"/>
	<polygon fill="#D1D3D4" points="410.9,582.4 419,595.5 420.1,594.5 413.5,582.4 	"/>
	<polygon fill="#D1D3D4" points="489.6,505.5 502.1,512.5 503.1,511.5 489.6,502.9 	"/>
	<polygon fill="#D1D3D4" points="489.6,486.2 516.2,498.4 516.5,498 489.6,483.7 	"/>
	<polygon fill="#D1D3D4" points="430.2,582.4 431,583.5 432.2,582.4 	"/>
	<polygon fill="#D1D3D4" points="489.6,524.7 489.8,524.8 491.2,523.3 489.6,522.1 	"/>
	<polygon fill="#D1D3D4" points="169.9,275.2 143.2,251.9 141,254 166.7,278.4 	"/>
	<polygon fill="#D1D3D4" points="177.7,267.4 152.2,242.8 149.4,245.6 173.8,271.3 	"/>
	<polygon fill="#D1D3D4" points="161.9,283.3 133.5,261.5 131.6,263.4 158.8,286.3 	"/>
	<polygon fill="#D1D3D4" points="192.9,252.2 170.3,224.8 168.4,226.7 189.9,255.3 	"/>
	<polygon fill="#D1D3D4" points="201.9,243.2 181.7,215.2 179.9,215.2 179.4,215.6 199.1,246.1 	"/>
	<polygon fill="#D1D3D4" points="184.9,260.2 160.8,234.3 158.6,236.5 181.7,263.5 	"/>
	<polygon fill="#D1D3D4" points="221.5,223.6 223.6,221.5 220.4,215.2 217.8,215.2 	"/>
	<polygon fill="#D1D3D4" points="130.6,314.6 122.4,310.9 122.4,313.5 128.5,316.7 	"/>
	<polygon fill="#D1D3D4" points="142.4,302.7 122.4,291.6 122.4,294.2 139.9,305.2 	"/>
	<polygon fill="#D1D3D4" points="212.1,233 201.1,215.2 198.5,215.2 209.5,235.6 	"/>
	<polygon fill="#D1D3D4" points="152.8,292.4 122.6,272.5 122.4,272.6 122.4,275 149.9,295.2 	"/>
	<polygon fill="#D1D3D4" points="181.7,215.2 180.9,214.1 179.9,215.2 	"/>
	<polygon fill="#D1D3D4" points="294.6,181 294.9,200.4 296.2,199.1 	"/>
	<polygon fill="#D1D3D4" points="201.1,215.2 193,202.1 191.9,203.1 198.5,215.2 	"/>
	<polygon fill="#D1D3D4" points="225.7,181 237.1,215.2 239.7,215.2 	"/>
	<polygon fill="#D1D3D4" points="88.2,341.5 122.4,352.1 122.4,349.5 	"/>
	<polygon fill="#D1D3D4" points="88.2,364.4 122.4,371.3 122.4,368.7 	"/>
	<polygon fill="#D1D3D4" points="88.2,318.6 122.4,332.8 122.4,330.2 	"/>
	<polygon fill="#D1D3D4" points="271.6,181 275.8,215.2 278.4,215.2 	"/>
	<polygon fill="#D1D3D4" points="248.7,181 256.5,215.2 259,215.2 	"/>
	<polygon fill="#D1D3D4" points="88.2,387.3 106.3,389.1 107.6,387.7 	"/>
	<polygon fill="#D1D3D4" points="220.4,215.2 206.7,188.4 206.3,188.7 217.8,215.2 	"/>
	<polygon fill="#D1D3D4" points="122.4,291.6 110.2,284.9 109.2,285.9 122.4,294.2 	"/>
	<polygon fill="#D1D3D4" points="95.9,299.1 95.5,299.5 122.4,313.5 122.4,310.9 	"/>
	<polygon fill="#D1D3D4" points="122.4,272.6 121.1,274 122.4,275 	"/>
	<polygon fill="#D1D3D4" points="413.3,246.4 432.8,215.8 432.2,215.2 430.6,215.2 410.4,243.5 	"/>
	<polygon fill="#D1D3D4" points="402.8,235.9 413.8,215.2 411.2,215.2 400.2,233.3 	"/>
	<polygon fill="#D1D3D4" points="390.7,223.8 394.5,215.2 391.8,215.2 388.6,221.7 	"/>
	<polygon fill="#D1D3D4" points="438.6,271.7 462.9,245.9 460,243 434.7,267.7 	"/>
	<polygon fill="#D1D3D4" points="483.6,316.7 489.6,313.5 489.6,310.9 481.5,314.6 	"/>
	<polygon fill="#D1D3D4" points="430.7,263.8 453.7,236.7 451.5,234.5 427.5,260.6 	"/>
	<polygon fill="#D1D3D4" points="422.5,255.6 443.9,226.9 442,224.9 419.4,252.5 	"/>
	<polygon fill="#D1D3D4" points="453.4,286.5 480.6,263.5 478.7,261.7 450.5,283.6 	"/>
	<polygon fill="#D1D3D4" points="462.2,295.3 489.6,275 489.6,272.6 489.6,272.6 459.5,292.6 	"/>
	<polygon fill="#D1D3D4" points="445.6,278.7 471.2,254.2 469.1,252.1 442.5,275.6 	"/>
	<polygon fill="#D1D3D4" points="472.2,305.3 489.6,294.3 489.6,291.7 469.7,302.8 	"/>
	<polygon fill="#D1D3D4" points="489.6,294.3 502.9,285.9 501.9,284.9 489.6,291.7 	"/>
	<polygon fill="#D1D3D4" points="394.5,215.2 405.8,188.8 405.4,188.4 391.8,215.2 	"/>
	<polygon fill="#D1D3D4" points="523.8,364.4 489.6,368.5 489.6,371 	"/>
	<polygon fill="#D1D3D4" points="432.2,215.2 431.2,214.2 430.6,215.2 	"/>
	<polygon fill="#D1D3D4" points="317.5,181.1 315.9,199.2 317.3,200.6 	"/>
	<polygon fill="#D1D3D4" points="386.2,181 372.5,215.2 375.1,215.2 	"/>
	<polygon fill="#D1D3D4" points="363.4,181 353.2,215.2 355.8,215.2 	"/>
	<polygon fill="#D1D3D4" points="489.6,313.5 516.5,299.5 516.1,299.1 489.6,310.9 	"/>
	<polygon fill="#D1D3D4" points="523.8,341.5 489.6,349.4 489.6,351.9 	"/>
	<polygon fill="#D1D3D4" points="523.8,318.6 489.6,330.2 489.6,332.7 	"/>
	<polygon fill="#D1D3D4" points="340.4,181 333.9,215.2 336.5,215.2 	"/>
	<polygon fill="#D1D3D4" points="489.6,275 491,274 489.6,272.6 	"/>
	<polygon fill="#D1D3D4" points="413.8,215.2 420.2,203.2 419.2,202.2 411.2,215.2 	"/>
	<polygon fill="#D1D3D4" points="523.8,387.3 504.2,387.5 505.6,388.9 	"/>
	<polygon fill="#D1D3D4" points="174.2,526.6 149.7,552.2 151.9,554.5 177.3,529.7 	"/>
	<polygon fill="#D1D3D4" points="190.1,542.5 168.5,571 170.4,572.9 193.1,545.5 	"/>
	<polygon fill="#D1D3D4" points="181.2,533.6 158.3,560.8 160.9,563.5 185.2,537.6 	"/>
	<polygon fill="#D1D3D4" points="221.5,573.9 217.8,582.4 220.4,582.4 223.6,576 	"/>
	<polygon fill="#D1D3D4" points="167.1,519.5 141.3,543.8 143.4,546 170.3,522.7 	"/>
	<polygon fill="#D1D3D4" points="140.3,492.7 122.4,503.7 122.4,506.3 142.8,495.2 	"/>
	<polygon fill="#D1D3D4" points="130.9,483.3 128.8,481.2 122.4,484.5 122.4,487.1 	"/>
	<polygon fill="#D1D3D4" points="150.3,502.7 122.4,522.9 122.4,524.9 122.8,525.3 153.1,505.5 	"/>
	<polygon fill="#D1D3D4" points="199.2,551.6 179.5,582 179.9,582.4 181.8,582.4 202.1,554.5 	"/>
	<polygon fill="#D1D3D4" points="159.2,511.6 131.8,534.4 133.7,536.2 162.2,514.7 	"/>
	<polygon fill="#D1D3D4" points="209.6,562.1 198.6,582.4 201.1,582.4 212.2,564.6 	"/>
	<polygon fill="#D1D3D4" points="271.6,616.6 278.3,582.4 275.8,582.4 	"/>
	<polygon fill="#D1D3D4" points="179.9,582.4 181,583.5 181.8,582.4 	"/>
	<polygon fill="#D1D3D4" points="122.4,522.9 121.3,523.8 122.4,524.9 	"/>
	<polygon fill="#D1D3D4" points="198.6,582.4 192,594.5 193,595.5 201.1,582.4 	"/>
	<polygon fill="#D1D3D4" points="122.4,484.5 95.7,498.2 96,498.6 122.4,487.1 	"/>
	<polygon fill="#D1D3D4" points="122.4,503.7 109.3,511.9 110.4,512.9 122.4,506.3 	"/>
	<polygon fill="#D1D3D4" points="217.8,582.4 206.2,608.8 206.6,609.2 220.4,582.4 	"/>
	<polygon fill="#D1D3D4" points="225.7,616.6 239.7,582.4 237.1,582.4 	"/>
	<polygon fill="#D1D3D4" points="88.2,410.3 107.7,410 106.4,408.7 	"/>
	<polygon fill="#D1D3D4" points="88.2,433.2 122.4,429.2 122.4,426.6 	"/>
	<polygon fill="#D1D3D4" points="88.2,456.1 122.4,448.5 122.4,445.9 	"/>
	<polygon fill="#D1D3D4" points="88.2,479.1 122.4,467.8 122.4,465.2 	"/>
	<polygon fill="#D1D3D4" points="248.7,616.6 259,582.4 256.5,582.4 	"/>
	<polygon fill="#D1D3D4" points="294.6,616.6 296.2,598.5 294.9,597.2 	"/>
</g>
<g id="Layer_3_1_">
	<polygon fill="#939598" points="525,474.8 525,489.5 516.5,498 523.8,501.9 516.2,498.4 514.7,499.9 503.1,511.5 523.8,524.8 
		502.1,512.5 491.2,523.3 523.8,547.8 489.8,524.8 489.6,524.9 489.6,541.4 523.8,570.8 489.6,544 489.6,560.7 523.8,593.8 
		489.6,563.2 489.6,579.8 523.8,616.6 488.2,582.4 471.4,582.4 500.9,616.6 468.9,582.4 452.1,582.4 478,616.6 449.6,582.4 
		432.8,582.4 455,616.6 431,583.5 420.1,594.5 432.1,616.6 419,595.5 407.1,607.4 405.7,608.8 409.1,616.6 405.4,609.2 396.8,617.8 
		382.1,617.8 315.5,617.8 315.6,617.9 382.2,617.9 489.7,617.9 525.1,617.9 525.1,582.5 525.1,474.8 525.1,408.4 525,408.3 	"/>
	<polygon fill="#939598" points="88.2,295.7 95.9,299.1 97.4,297.7 109.2,285.9 88.2,272.7 110.2,284.9 121.1,274 88.2,249.8 
		122.4,272.4 122.4,255.7 88.2,226.8 122.4,253.1 122.4,236.4 88.2,203.9 122.4,233.8 122.4,217.1 88.2,181 123.6,215.2 
		140.4,215.2 111.1,181 143,215.2 159.8,215.2 134.1,181 162.4,215.2 179.1,215.2 157,181 180.9,214.1 191.9,203.1 180,181 
		193,202.1 204.9,190.1 206.3,188.7 202.9,181 206.7,188.4 215.3,179.8 122.4,179.8 87,179.8 87,215.2 87,308 95.5,299.5 	"/>
	<polygon fill="#939598" points="525,179.8 489.6,179.8 396.8,179.8 405.4,188.4 409.1,181 405.8,188.8 407.1,190.1 419.2,202.2 
		432.1,181 420.2,203.2 431.2,214.2 455,181 433.2,215.2 450,215.2 478,181 452.6,215.2 469.4,215.2 500.9,181.1 472,215.2 
		488.7,215.2 523.8,181 489.6,217.4 489.6,234.1 523.8,203.9 489.6,236.6 489.6,253.3 523.8,226.8 489.6,255.9 489.6,272.5 
		523.8,249.8 491,274 501.9,284.9 523.8,272.7 502.9,285.9 514.7,297.7 516.1,299.1 523.8,295.7 516.5,299.5 525,308 525,322.7 
		525,389.2 525,389.2 525.1,389.2 525.1,322.8 525.1,215.2 525.1,179.8 	"/>
	<polygon fill="#939598" points="525,389.2 525,408.3 525.1,408.4 525.1,389.2 525,389.2 	"/>
	<polygon fill="#939598" points="230,617.8 215.3,617.8 206.6,609.2 202.8,616.6 206.2,608.8 204.9,607.4 193,595.5 180,616.6 
		192,594.5 181,583.5 157,616.6 179.2,582.4 162.5,582.4 134.1,616.6 159.9,582.4 143.2,582.4 111.1,616.6 140,582.4 123.3,582.4 
		88.2,616.6 122.4,580.8 122.4,564.1 88.2,593.7 122.4,561.5 122.4,544.8 88.2,570.7 122.4,542.2 122.4,525.5 88.2,547.8 
		121.3,523.8 110.4,512.9 88.2,524.9 109.3,511.9 97.4,499.9 96,498.6 88.2,502 95.7,498.2 87,489.5 87,582.5 87,617.9 122.4,617.9 
		230,617.9 296.6,617.9 296.7,617.8 	"/>
	<polygon fill="#939598" points="296.7,617.8 296.6,617.9 315.6,617.9 315.5,617.8 	"/>
	<polygon fill="#939598" points="107.7,410 122.4,424.7 122.4,409.9 	"/>
	<polygon fill="#939598" points="122.4,372.9 107.6,387.7 122.4,388 	"/>
	<polygon fill="#939598" points="489.6,406.9 505.8,408.5 515.5,398.8 505.6,388.9 489.6,390.3 	"/>
	<polygon fill="#939598" points="489.6,424.6 504.5,409.8 489.6,409.5 	"/>
	<polygon fill="#939598" points="122.4,390.6 106.3,389.1 96.5,398.8 106.4,408.7 122.4,407.3 	"/>
	<polygon fill="#939598" points="331.9,215.2 317.3,200.6 317.1,215.2 	"/>
	<polygon fill="#939598" points="297.6,582.4 296.2,598.5 306.1,608.4 315.9,598.6 314.4,582.4 	"/>
	<polygon fill="#939598" points="314.5,215.2 315.9,199.2 306,189.3 296.2,199.1 297.7,215.2 	"/>
	<polygon fill="#939598" points="504.2,387.5 489.6,372.9 489.6,387.7 	"/>
	<polygon fill="#939598" points="317.2,597.3 332,582.4 316.9,582.4 	"/>
	<polygon fill="#939598" points="294.9,200.4 280.2,215.2 295.1,215.2 	"/>
	<polygon fill="#939598" points="280.1,582.4 294.9,597.2 295.1,582.4 	"/>
	<polygon fill="#939598" points="489.6,483.7 489.6,474.8 483.9,480.6 	"/>
	<polygon fill="#939598" points="422,542.5 443.5,571 451.1,563.5 426.9,537.6 	"/>
	<polygon fill="#939598" points="430.1,534.4 453.3,561.3 459.6,555 434,530.4 	"/>
	<polygon fill="#939598" points="459.9,504.6 453.8,510.7 480.8,533.8 489.6,524.9 489.6,524.7 	"/>
	<polygon fill="#939598" points="439.1,525.4 463.2,551.4 469.4,545.2 442.9,521.5 	"/>
	<polygon fill="#939598" points="446,518.4 471.5,543.1 479,535.6 450.9,513.6 	"/>
	<polygon fill="#939598" points="390.5,574 394.2,582.4 410.9,582.4 399.9,564.6 	"/>
	<polygon fill="#939598" points="412.8,551.6 432.6,582 441.7,572.9 418.9,545.5 	"/>
	<polygon fill="#939598" points="402.4,562.1 413.5,582.4 430.2,582.4 410,554.5 	"/>
	<polygon fill="#939598" points="472.5,491.9 489.6,502.9 489.6,486.2 481.8,482.7 	"/>
	<polygon fill="#939598" points="382.1,582.4 391.6,582.4 388.4,576.1 	"/>
	<polygon fill="#939598" points="462.6,501.9 489.6,522.1 489.6,505.5 470.1,494.4 	"/>
	<polygon fill="#939598" points="413.5,582.4 420.1,594.5 431,583.5 430.2,582.4 	"/>
	<polygon fill="#939598" points="394.2,582.4 405.7,608.8 407.1,607.4 419,595.5 410.9,582.4 	"/>
	<polygon fill="#939598" points="505.8,408.5 523.8,410.3 504.5,409.8 489.6,424.6 489.6,426.1 523.8,433.2 489.6,428.7 
		489.6,445.4 523.8,456.1 489.6,447.9 489.6,464.5 523.8,479 489.6,467 489.6,474.8 489.6,483.7 516.5,498 525,489.5 525,474.8 
		525,408.3 515.5,398.8 	"/>
	<polygon fill="#939598" points="382.1,582.4 374.8,582.4 386.2,616.6 372.3,582.4 355.6,582.4 363.4,616.6 353,582.4 336.2,582.4 
		340.3,616.6 333.6,582.4 332,582.4 317.2,597.3 317.5,616.6 315.9,598.6 306.1,608.4 315.5,617.8 382.1,617.8 396.8,617.8 
		405.4,609.2 391.6,582.4 	"/>
	<polygon fill="#939598" points="489.6,522.1 491.2,523.3 502.1,512.5 489.6,505.5 	"/>
	<polygon fill="#939598" points="489.6,524.9 489.8,524.8 489.6,524.7 	"/>
	<polygon fill="#939598" points="489.6,502.9 503.1,511.5 514.7,499.9 516.2,498.4 489.6,486.2 	"/>
	<polygon fill="#939598" points="189.9,255.3 168.4,226.7 160.8,234.3 184.9,260.2 	"/>
	<polygon fill="#939598" points="230,215.2 220.4,215.2 223.6,221.5 	"/>
	<polygon fill="#939598" points="173.8,271.3 149.4,245.6 143.2,251.9 169.9,275.2 	"/>
	<polygon fill="#939598" points="209.5,235.6 198.5,215.2 181.7,215.2 201.9,243.2 	"/>
	<polygon fill="#939598" points="181.7,263.5 158.6,236.5 152.2,242.8 177.7,267.4 	"/>
	<polygon fill="#939598" points="199.1,246.1 179.4,215.6 170.3,224.8 192.9,252.2 	"/>
	<polygon fill="#939598" points="221.5,223.6 217.8,215.2 201.1,215.2 212.1,233 	"/>
	<polygon fill="#939598" points="149.9,295.2 122.4,275 122.4,291.6 142.4,302.7 	"/>
	<polygon fill="#939598" points="122.4,294.2 122.4,310.9 130.6,314.6 139.9,305.2 	"/>
	<polygon fill="#939598" points="122.4,313.5 122.4,322.7 128.5,316.7 	"/>
	<polygon fill="#939598" points="158.8,286.3 131.6,263.4 122.6,272.5 152.8,292.4 	"/>
	<polygon fill="#939598" points="166.7,278.4 141,254 133.5,261.5 161.9,283.3 	"/>
	<polygon fill="#939598" points="220.4,215.2 230,215.2 237.1,215.2 225.7,181 239.7,215.2 256.5,215.2 248.7,181 259,215.2 
		275.8,215.2 271.6,181 278.4,215.2 280.2,215.2 294.9,200.4 294.6,181 296.2,199.1 306,189.3 296.5,179.8 230,179.8 215.3,179.8 
		206.7,188.4 	"/>
	<polygon fill="#939598" points="106.3,389.1 88.2,387.3 107.6,387.7 122.4,372.9 122.4,371.3 88.2,364.4 122.4,368.7 122.4,352.1 
		88.2,341.5 122.4,349.5 122.4,332.8 88.2,318.6 122.4,330.2 122.4,322.7 122.4,313.5 95.5,299.5 87,308 87,322.7 87,389.3 
		96.5,398.8 	"/>
	<polygon fill="#939598" points="122.4,275 121.1,274 110.2,284.9 122.4,291.6 	"/>
	<polygon fill="#939598" points="122.4,294.2 109.2,285.9 97.4,297.7 95.9,299.1 122.4,310.9 	"/>
	<polygon fill="#939598" points="198.5,215.2 191.9,203.1 180.9,214.1 181.7,215.2 	"/>
	<polygon fill="#939598" points="217.8,215.2 206.3,188.7 204.9,190.1 193,202.1 201.1,215.2 	"/>
	<polygon fill="#939598" points="427.5,260.6 451.5,234.5 443.9,226.9 422.5,255.6 	"/>
	<polygon fill="#939598" points="434.7,267.7 460,243 453.7,236.7 430.7,263.8 	"/>
	<polygon fill="#939598" points="419.4,252.5 442,224.9 432.8,215.8 413.3,246.4 	"/>
	<polygon fill="#939598" points="400.2,233.3 411.2,215.2 394.5,215.2 390.7,223.8 	"/>
	<polygon fill="#939598" points="391.8,215.2 382.1,215.2 388.6,221.7 	"/>
	<polygon fill="#939598" points="410.4,243.5 430.6,215.2 413.8,215.2 402.8,235.9 	"/>
	<polygon fill="#939598" points="442.5,275.6 469.1,252.1 462.9,245.9 438.6,271.7 	"/>
	<polygon fill="#939598" points="481.5,314.6 489.6,310.9 489.6,294.3 472.2,305.3 	"/>
	<polygon fill="#939598" points="469.7,302.8 489.6,291.7 489.6,275 462.2,295.3 	"/>
	<polygon fill="#939598" points="450.5,283.6 478.7,261.7 471.2,254.2 445.6,278.7 	"/>
	<polygon fill="#939598" points="489.6,322.7 489.6,313.5 483.6,316.7 	"/>
	<polygon fill="#939598" points="459.5,292.6 489.6,272.6 480.6,263.5 453.4,286.5 	"/>
	<polygon fill="#939598" points="430.6,215.2 431.2,214.2 420.2,203.2 413.8,215.2 	"/>
	<polygon fill="#939598" points="411.2,215.2 419.2,202.2 407.1,190.1 405.8,188.8 394.5,215.2 	"/>
	<polygon fill="#939598" points="489.6,322.7 489.6,330.2 523.8,318.6 489.6,332.7 489.6,349.4 523.8,341.5 489.6,351.9 
		489.6,368.5 523.8,364.4 489.6,371 489.6,372.9 504.2,387.5 523.8,387.3 505.6,388.9 515.5,398.8 525,389.2 525,322.7 525,308 
		516.5,299.5 489.6,313.5 	"/>
	<polygon fill="#939598" points="489.6,291.7 501.9,284.9 491,274 489.6,275 	"/>
	<polygon fill="#939598" points="489.6,310.9 516.1,299.1 514.7,297.7 502.9,285.9 489.6,294.3 	"/>
	<polygon fill="#939598" points="315.9,199.2 317.5,181.1 317.3,200.6 331.9,215.2 333.9,215.2 340.4,181 336.5,215.2 353.2,215.2 
		363.4,181 355.8,215.2 372.5,215.2 386.2,181 375.1,215.2 382.1,215.2 391.8,215.2 405.4,188.4 396.8,179.8 382.1,179.8 
		315.6,179.8 306,189.3 	"/>
	<polygon fill="#939598" points="525,408.3 525,389.2 515.5,398.8 	"/>
	<polygon fill="#939598" points="315.6,179.8 296.5,179.8 306,189.3 	"/>
	<polygon fill="#939598" points="212.2,564.6 201.1,582.4 217.8,582.4 221.5,573.9 	"/>
	<polygon fill="#939598" points="122.4,474.8 122.4,484.5 128.8,481.2 	"/>
	<polygon fill="#939598" points="220.4,582.4 230,582.4 223.6,576 	"/>
	<polygon fill="#939598" points="170.3,522.7 143.4,546 149.7,552.2 174.2,526.6 	"/>
	<polygon fill="#939598" points="153.1,505.5 122.8,525.3 131.8,534.4 159.2,511.6 	"/>
	<polygon fill="#939598" points="142.8,495.2 122.4,506.3 122.4,522.9 150.3,502.7 	"/>
	<polygon fill="#939598" points="162.2,514.7 133.7,536.2 141.3,543.8 167.1,519.5 	"/>
	<polygon fill="#939598" points="177.3,529.7 151.9,554.5 158.3,560.8 181.2,533.6 	"/>
	<polygon fill="#939598" points="193.1,545.5 170.4,572.9 179.5,582 199.2,551.6 	"/>
	<polygon fill="#939598" points="185.2,537.6 160.9,563.5 168.5,571 190.1,542.5 	"/>
	<polygon fill="#939598" points="202.1,554.5 181.8,582.4 198.6,582.4 209.6,562.1 	"/>
	<polygon fill="#939598" points="130.9,483.3 122.4,487.1 122.4,503.7 140.3,492.7 	"/>
	<polygon fill="#939598" points="181.8,582.4 181,583.5 192,594.5 198.6,582.4 	"/>
	<polygon fill="#939598" points="201.1,582.4 193,595.5 204.9,607.4 206.2,608.8 217.8,582.4 	"/>
	<polygon fill="#939598" points="122.4,487.1 96,498.6 97.4,499.9 109.3,511.9 122.4,503.7 	"/>
	<polygon fill="#939598" points="122.4,506.3 110.4,512.9 121.3,523.8 122.4,522.9 	"/>
	<polygon fill="#939598" points="122.4,484.5 122.4,474.8 122.4,467.8 88.2,479.1 122.4,465.2 122.4,448.5 88.2,456.1 122.4,445.9 
		122.4,429.2 88.2,433.2 122.4,426.6 122.4,424.7 107.7,410 88.2,410.3 106.4,408.7 96.5,398.8 87,408.3 87,474.8 87,474.9 
		87,489.5 95.7,498.2 	"/>
	<polygon fill="#939598" points="296.2,598.5 294.6,616.6 294.9,597.2 280.1,582.4 278.3,582.4 271.6,616.6 275.8,582.4 259,582.4 
		248.7,616.6 256.5,582.4 239.7,582.4 225.7,616.6 237.1,582.4 230,582.4 220.4,582.4 206.6,609.2 215.3,617.8 230,617.8 
		296.7,617.8 306.1,608.4 	"/>
	<polygon fill="#939598" points="296.7,617.8 315.5,617.8 306.1,608.4 	"/>
	<polygon fill="#939598" points="87,389.3 87,408.3 96.5,398.8 	"/>
</g>
</svg>
