<?xml version="1.0" encoding="utf-8"?>
<!-- Generator: Adobe Illustrator 18.0.0, SVG Export Plug-In . SVG Version: 6.00 Build 0)  -->
<!DOCTYPE svg PUBLIC "-//W3C//DTD SVG 1.1//EN" "http://www.w3.org/Graphics/SVG/1.1/DTD/svg11.dtd">
<svg version="1.1" id="Layer_2_1_" xmlns="http://www.w3.org/2000/svg" xmlns:xlink="http://www.w3.org/1999/xlink" x="0px" y="0px"
	 viewBox="90 180 432 432" enable-background="new 90 180 432 432" xml:space="preserve">
<g>
	<path fill="#010101" d="M185.8,272.8c-2.3,2.3-4.2,5.1-5.4,8.2c-1.4,3.1-2,6.5-2,9.9c0,8,3.9,11.8,6.5,14.5
		c1.8,1.8,2.3,2.4,2.3,3.4c0,2,0.1,4.2,1,6.2c0.6,1.4,1.7,2.4,2.9,3.1c1.3,0.7,2.7,1.2,4.3,1.2c1.2,0,2.3-0.2,3.5-0.6
		c1.3,0.9,2.7,1.7,4.7,1.7c1.9,0,3.5-0.8,4.7-1.7c1,0.4,2.3,0.6,3.5,0.6c1.6,0,3-0.4,4.3-1.2c1.3-0.7,2.2-1.8,2.9-3.1
		c0.9-1.8,1-3.9,1-5.8c0.3-0.4,1.2-1.2,1.7-1.7c1.6-1.5,3.5-3.4,5.1-5.9c1.9-3.1,2.9-6.7,2.9-10.6c0-3.5-0.6-6.8-2-9.9
		c-1.3-3-3.1-5.8-5.4-8.2c-2.3-2.3-5.1-4.2-8.2-5.4c-3.1-1.4-6.5-2-9.9-2s-6.8,0.6-9.9,2C190.9,268.7,188.2,270.5,185.8,272.8z
		 M225,291c0,11.3-9.7,13.6-9.7,17.8c0,3.4-0.4,6-3.8,6c-1.6,0-3-0.6-4.1-1.6c-1,0.9-2.5,2.7-4.1,2.7c-1.6,0-3-1.7-4.1-2.7
		c-1,0.9-2.5,1.6-4.1,1.6c-3.4,0-3.8-2.7-3.8-6c0-6.6-8.8-7-8.8-17.8c0-11.6,9.4-21.2,21.2-21.2S225,279.3,225,291z"/>
	<path fill="#010101" d="M203.8,302.6c0.3,0.3,0.7,0.4,1.2,0.4c0.9,0,1.7-0.7,1.7-1.7c0-0.9-2.9-3.9-2.9-3.9s-2.9,2.9-2.9,3.9
		c0,0.9,0.7,1.7,1.7,1.7C203.1,303,203.5,302.9,203.8,302.6z"/>
	<circle fill="#010101" cx="193.3" cy="303.4" r="2.6"/>
	<circle fill="#010101" cx="214.4" cy="303.4" r="2.6"/>
	<path fill="#010101" d="M206.9,285.1c-0.4,0.5-0.7,1-1,1.6h-0.1c-0.6,0-1.2,0.4-1.3,0.9c-0.1,0.3-0.1,0.7,0.1,1
		c0.1,0.2,0.3,0.4,0.6,0.5c-0.1,0.5-0.1,1,0,1.6c0,0.2,0,0.4,0.1,0.6c-0.2,0.1-0.4,0.3-0.6,0.6c-0.1,0.3-0.2,0.7-0.1,1
		c0.2,0.5,0.7,0.9,1.3,0.9c0.1,0,0.2,0,0.3,0c0.4,0.6,0.8,1.3,1.4,1.8c-0.1,0.3-0.2,0.5-0.1,0.8s0.3,0.6,0.5,0.8
		c0.2,0.1,0.5,0.2,0.7,0.2c0.4,0,0.7-0.2,1-0.4c0.7,0.3,1.5,0.5,2.3,0.6c0.1,0.6,0.7,1.2,1.4,1.2c0.3,0,0.6-0.2,0.9-0.4
		c0.2-0.2,0.3-0.5,0.3-0.8c0.7-0.2,1.4-0.4,2-0.7c0.2,0.2,0.5,0.4,0.9,0.4c0.3,0,0.6-0.1,0.8-0.3c0.3-0.2,0.4-0.5,0.5-0.9
		c0-0.3,0-0.5-0.2-0.8l0.1-0.1c0.4-0.5,0.8-1.2,1.2-1.8h0.1c0.6,0,1.2-0.4,1.3-1c0.1-0.3,0-0.7-0.1-1c-0.1-0.2-0.3-0.4-0.6-0.5
		c0-0.4,0-0.8,0-1.4c0-0.3-0.1-0.6-0.1-0.8c0.2-0.1,0.4-0.3,0.5-0.6s0.1-0.7,0-1c-0.2-0.5-0.7-0.8-1.3-0.8c-0.1,0-0.1,0-0.2,0
		c-0.4-0.6-0.8-1.3-1.5-1.8l0,0c0.1-0.2,0.1-0.5,0-0.7c-0.1-0.3-0.3-0.6-0.6-0.8c-0.2-0.1-0.4-0.2-0.7-0.2s-0.7,0.1-0.9,0.4
		c-0.7-0.3-1.5-0.5-2.3-0.5c-0.2-0.5-0.7-0.9-1.3-0.9h-0.1c-0.6,0.1-1.2,0.5-1.3,1.2c-0.6,0.2-1.3,0.4-1.9,0.7
		c-0.2-0.2-0.5-0.3-0.8-0.3s-0.6,0.1-0.8,0.3c-0.3,0.2-0.4,0.5-0.5,0.9C206.8,284.5,206.9,284.7,206.9,285.1
		C207,285,206.9,285,206.9,285.1z M207.6,287.2c0.2-0.3,0.3-0.6,0.6-0.9c0,0,0-0.1,0.1-0.1c0.5-0.6,1.2-1.2,1.9-1.6h0.1
		c0.3-0.1,0.6-0.3,1-0.4c0.4-0.1,0.7-0.2,1.2-0.2c0.2,0,0.3,0,0.5,0c0.3,0,0.6,0,0.8,0.1c0.4,0.1,0.8,0.2,1.2,0.3
		c0.8,0.3,1.6,0.8,2.2,1.5c0.3,0.3,0.5,0.6,0.7,0.9c0.5,0.7,0.8,1.6,0.9,2.5c0,0.1,0,0.2,0,0.3c0,0.2,0,0.5,0,0.7
		c0,0.9-0.3,1.8-0.7,2.6c-0.2,0.3-0.4,0.6-0.6,0.9c-0.5,0.7-1.3,1.3-2.1,1.7c-0.3,0.1-0.6,0.3-1,0.4l0,0c-0.3,0.1-0.7,0.2-1.2,0.2
		c-0.2,0-0.3,0-0.5,0c-0.3,0-0.7,0-1-0.1c-0.4-0.1-0.8-0.2-1.2-0.3c-0.8-0.3-1.6-0.8-2.2-1.5c-0.3-0.3-0.5-0.6-0.7-0.9
		c-0.4-0.7-0.7-1.6-0.8-2.5c0-0.1,0-0.1,0-0.2c0-0.3,0-0.6,0-0.8l0,0C206.9,288.8,207.1,287.9,207.6,287.2z"/>
	<path fill="#010101" d="M208.4,289.7c0.1,0.1,0.1,0.3,0.2,0.4l0.1,0.1c0.6,0.9,1.9,2.2,2.8,3.1c0.1,0.1,0.2,0.1,0.2,0.2l0.1,0.1
		c0.3,0.3,0.5,0.5,0.7,0.7c0.3,0.2,0.4,0.4,0.4,0.4s0.1-0.1,0.2-0.2c0.1-0.1,0.2-0.2,0.3-0.4c0.1-0.1,0.2-0.2,0.3-0.4
		c0.1-0.1,0.2-0.2,0.2-0.3c0.6-0.8,1.4-1.9,2-2.8c0.1-0.2,0.2-0.3,0.3-0.5c0.1-0.1,0.1-0.2,0.2-0.4c0.2-0.4,0.3-0.7,0.3-0.9
		c0-0.1,0-0.2,0-0.2c0-0.2,0-0.3-0.1-0.5s-0.1-0.4-0.2-0.5c0-0.1-0.1-0.1-0.1-0.2c-0.2-0.3-0.5-0.5-0.8-0.7
		c-0.2-0.1-0.5-0.2-0.8-0.3c-0.2,0-0.3,0-0.5,0c-0.1,0-0.1,0-0.2,0c-0.1,0-0.2,0-0.3,0s-0.1,0-0.2,0c-0.4,0.1-0.8,0.4-1.2,0.7
		c-0.2-0.2-0.5-0.3-0.7-0.4c-0.2-0.1-0.3-0.1-0.5-0.1c-0.2,0-0.3,0-0.5,0l0,0c-0.2,0-0.3,0-0.5,0.1c-0.1,0-0.3,0.1-0.4,0.2
		c-0.2,0.1-0.4,0.2-0.5,0.3c-0.1,0.1-0.2,0.2-0.3,0.3c-0.2,0.3-0.4,0.6-0.5,0.9s-0.1,0.5-0.1,0.8v0.1
		C208.3,289.4,208.4,289.5,208.4,289.7z"/>
	<path fill="#010101" d="M188.3,286h-0.1c-0.6-0.1-1.2,0.3-1.4,0.8c-0.1,0.3-0.1,0.7,0,1c0.1,0.2,0.3,0.4,0.5,0.6
		c-0.1,0.5-0.2,1-0.2,1.5c0,0.2,0,0.4,0,0.6c-0.3,0.1-0.5,0.3-0.6,0.5c-0.2,0.3-0.2,0.6-0.1,1c0.1,0.5,0.6,0.9,1.2,1
		c0.1,0,0.2,0,0.3,0c0.3,0.7,0.7,1.4,1.3,1.9c-0.2,0.2-0.2,0.5-0.2,0.8s0.2,0.6,0.5,0.9c0.2,0.2,0.4,0.3,0.7,0.3
		c0.4,0,0.7-0.1,1-0.3c0.6,0.4,1.5,0.6,2.2,0.8c0,0.6,0.6,1.3,1.3,1.3c0.3,0,0.7-0.1,0.9-0.3c0.2-0.2,0.3-0.5,0.4-0.7
		c0.7-0.1,1.5-0.3,2.1-0.5c0.2,0.2,0.5,0.4,0.8,0.4s0.6,0,0.8-0.2c0.3-0.2,0.5-0.5,0.5-0.8c0.1-0.3,0-0.6-0.1-0.8l0.1-0.1
		c0.5-0.5,0.9-1,1.3-1.7h0.1c0.6,0.1,1.2-0.3,1.4-0.8c0.1-0.3,0.1-0.7-0.1-1c-0.1-0.2-0.3-0.4-0.5-0.6c0.1-0.4,0.1-0.8,0.1-1.4
		c0-0.3,0-0.6,0-0.8c0.2-0.1,0.4-0.3,0.5-0.5c0.2-0.3,0.2-0.6,0.1-1c-0.1-0.5-0.6-0.9-1.2-0.9c-0.1,0-0.1,0-0.2,0
		c-0.3-0.7-0.7-1.4-1.3-1.9c0.1-0.2,0.1-0.5,0.1-0.7c0-0.3-0.2-0.6-0.5-0.8c-0.2-0.1-0.4-0.2-0.6-0.3c-0.3,0-0.7,0.1-0.9,0.3
		c-0.7-0.4-1.5-0.6-2.2-0.8c-0.1-0.5-0.6-1-1.2-1h-0.1c-0.6,0-1.2,0.4-1.4,1c-0.6,0.1-1.4,0.3-2,0.5c-0.2-0.2-0.5-0.3-0.8-0.4
		c-0.3,0-0.6,0-0.8,0.2c-0.3,0.2-0.5,0.5-0.5,0.8c-0.1,0.2,0,0.5,0.1,0.7l-0.1,0.1C189,285,188.6,285.5,188.3,286z M189.9,286.7
		c0.2-0.3,0.4-0.6,0.6-0.8c0,0,0,0,0.1-0.1c0.6-0.6,1.3-1,2.1-1.4h0.1c0.3-0.1,0.6-0.2,1-0.3c0.3-0.1,0.7-0.1,1.2-0.1h0.1
		c0.4,0,0.9,0.1,1.4,0.2c0.4,0.1,0.7,0.2,1.2,0.4c0.8,0.4,1.6,0.9,2.1,1.7c0.2,0.3,0.4,0.6,0.6,0.9c0.4,0.7,0.6,1.7,0.7,2.6
		c0,0.1,0,0.2,0,0.3c0,0.2,0,0.5-0.1,0.7c-0.1,0.9-0.4,1.8-0.9,2.5c-0.2,0.3-0.4,0.6-0.7,0.8c-0.6,0.6-1.4,1.2-2.2,1.5
		c-0.3,0.1-0.6,0.2-1,0.3l0,0c-0.3,0.1-0.7,0.1-1,0.1h-0.1c-0.5,0-1-0.1-1.5-0.2c-0.4-0.1-0.7-0.2-1.2-0.4c-0.8-0.4-1.5-1-2.1-1.7
		c-0.2-0.3-0.4-0.6-0.6-0.9c-0.4-0.7-0.6-1.7-0.6-2.6c0-0.1,0-0.1,0-0.2c0-0.3,0-0.6,0.1-0.8l0,0C189,288.2,189.4,287.4,189.9,286.7
		z"/>
	<path fill="#010101" d="M190.7,289.7c0,0,0,0.1,0.1,0.1c0.5,1,1.6,2.3,2.5,3.4c0.1,0.1,0.1,0.2,0.2,0.2l0.1,0.1
		c0.3,0.3,0.5,0.5,0.7,0.7c0.2,0.3,0.4,0.4,0.4,0.4s0.1-0.1,0.2-0.2c0.1-0.1,0.2-0.2,0.3-0.4c0.1-0.1,0.2-0.2,0.3-0.4
		c0.1-0.1,0.2-0.2,0.3-0.3c0.7-0.7,1.6-1.7,2.2-2.6c0.1-0.1,0.2-0.3,0.3-0.4s0.2-0.2,0.2-0.3c0.2-0.3,0.4-0.6,0.4-0.9
		c0-0.1,0-0.1,0-0.2c0-0.2,0-0.4,0-0.5c0-0.2-0.1-0.4-0.2-0.6c0-0.1-0.1-0.2-0.1-0.2c-0.2-0.3-0.4-0.6-0.7-0.8
		c-0.2-0.1-0.5-0.3-0.7-0.3c-0.2,0-0.3-0.1-0.5-0.1c-0.1,0-0.1,0-0.2,0s-0.2,0-0.3,0c-0.1,0-0.1,0-0.2,0c-0.5,0.1-0.9,0.3-1.3,0.6
		c-0.2-0.2-0.4-0.3-0.7-0.5c-0.2-0.1-0.3-0.1-0.5-0.2c-0.2,0-0.3-0.1-0.5-0.1l0,0c-0.2,0-0.3,0-0.5,0c-0.1,0-0.3,0.1-0.4,0.1
		c-0.2,0.1-0.4,0.2-0.6,0.3c-0.1,0.1-0.2,0.2-0.3,0.2c-0.3,0.2-0.5,0.5-0.6,0.9c-0.1,0.2-0.2,0.5-0.2,0.8v0.1c0,0.1,0,0.2,0.1,0.4
		C190.6,289.4,190.6,289.5,190.7,289.7z"/>
	<path fill="#010101" d="M203.5,284.9c0.1,0.3,0.3,0.3,0.5,0l2.7-6.9c0.1-0.3,0.1-0.8-0.1-1.2L204,272c-0.2-0.3-0.4-0.3-0.6,0
		l-2.5,4.8c-0.2,0.3-0.2,0.8-0.1,1.3L203.5,284.9z M202.1,276.8l1.3-2.3c0.2-0.3,0.4-0.3,0.6,0l1.3,2.3c0.2,0.3,0.2,0.8,0.1,1.2
		l-1.4,3.5c-0.1,0.3-0.3,0.3-0.5,0l-1.4-3.5C201.9,277.8,202,277.2,202.1,276.8z"/>
	<path fill="#010101" d="M211.5,280c0.2,0.3,0.6,0.3,0.9,0l1.8-2c0.2-0.3,0.2-0.7,0-0.9l-1.9-2c-0.2-0.3-0.6-0.3-0.9,0l-1.8,2
		c-0.2,0.3-0.2,0.7,0,0.9L211.5,280z"/>
	<path fill="#010101" d="M195.1,280c0.2,0.3,0.6,0.3,0.9,0l1.8-2c0.2-0.3,0.2-0.7,0-0.9l-1.9-2c-0.2-0.3-0.6-0.2-0.9,0l-1.8,2
		c-0.2,0.3-0.2,0.7,0,0.9L195.1,280z"/>
	<path fill="#010101" d="M196.2,305.8c0,2.2,1.2,4.2,2.9,5.2v0.1h0.1c0.9,0.5,2,0.8,3,0.8h3.2c3.4,0,6.2-2.7,6.2-6.2v-0.7h-15.5
		V305.8z M200.4,310c0.1-0.3,0.3-0.5,0.4-0.5c0.2,0,0.4,0.3,0.5,0.8C201.1,310.3,200.8,310.2,200.4,310z M202.5,310.4
		c0.1-0.6,0.4-0.9,0.6-0.9s0.4,0.3,0.6,0.9H202.5z M205.6,310.4h-0.7c0.1-0.6,0.4-0.9,0.6-0.9c0.2,0,0.4,0.3,0.5,0.9
		C205.9,310.4,205.8,310.4,205.6,310.4z M206.6,309.3c0-0.1-0.1-0.1-0.1-0.2c0.1,0,0.3-0.1,0.4-0.1
		C206.8,309.1,206.7,309.2,206.6,309.3z M210.2,306.7c0,0.2-0.1,0.5-0.2,0.7c-0.1,0.1-0.2,0.2-0.3,0.2c-0.3,0-0.6-0.3-0.8-0.8h1.4
		V306.7z M208.1,307.5c0.3,0.5,0.7,0.8,1.3,0.9c-0.2,0.2-0.3,0.4-0.5,0.6c-0.3-0.4-0.6-0.6-1-0.6c-0.2,0-0.3,0-0.4,0.1
		C207.6,308.5,207.9,308,208.1,307.5z M207.8,309.6c0.1,0,0.2,0.1,0.3,0.2c-0.2,0.1-0.5,0.3-0.7,0.4
		C207.3,309.8,207.6,309.6,207.8,309.6z M207.1,306.7c-0.2,0.8-0.6,1.3-0.9,1.3s-0.7-0.5-0.9-1.3H207.1z M204.4,307.7
		c0.2,0.4,0.4,0.6,0.7,0.8c-0.3,0.1-0.5,0.3-0.7,0.6c-0.2-0.3-0.4-0.5-0.6-0.6C203.9,308.5,204.2,308.1,204.4,307.7z M203.6,306.7
		c-0.2,0.8-0.6,1.3-0.9,1.3s-0.7-0.5-0.9-1.3H203.6z M200.6,307.4c0.4,0.8,0.9,1.5,1.6,1.6c-0.1,0.1-0.1,0.1-0.2,0.2
		c-0.3-0.4-0.7-0.7-1.2-0.7s-0.8,0.3-1.2,0.7c-0.3-0.4-0.6-0.7-1-0.7c0,0,0,0,0-0.1c0.1,0,0.3,0.1,0.4,0.1
		C199.7,308.6,200.2,308.1,200.6,307.4z M199.9,306.7c-0.2,0.5-0.5,0.8-0.8,0.8s-0.6-0.3-0.8-0.8H199.9z"/>
	<path fill="#010101" d="M217.8,298.9c-0.8,0.4-1.2,1.4-0.8,2c0.3,0.7,1.3,0.9,2.1,0.5c3.2-1.6,4.9-7.2,5-9.4
		C223.4,294.3,221.2,297.2,217.8,298.9z"/>
	<path fill="#010101" d="M221,285.9c0,0.1,0.1,0.1,0.1,0.2c1.5,2.4,1.9,4.9,0.9,8.7c1.2-1.7,3-7,1.5-10.2c-0.4-0.7-1.3-1.2-2-0.7
		C220.8,284.3,220.5,285.2,221,285.9z"/>
	<path fill="#010101" d="M190.1,298.9c-3.2-1.6-5.6-4.5-6.3-6.8c0.1,2.2,1.8,7.7,5,9.4c0.8,0.4,1.8,0.1,2.1-0.5
		C191.3,300.2,190.9,299.2,190.1,298.9z"/>
	<path fill="#010101" d="M186.9,286.1c0-0.1,0.1-0.1,0.1-0.2c0.4-0.7,0.2-1.7-0.5-2.1c-0.7-0.3-1.6,0-2,0.7
		c-1.7,3.1,0.3,8.4,1.5,10.2C185,291.1,185.4,288.6,186.9,286.1z"/>
	<circle fill="#010101" cx="187.8" cy="281.9" r="1.6"/>
	<circle fill="#010101" cx="219.8" cy="281.9" r="1.6"/>
</g>
<g>
	<path fill="#010101" d="M225.6,508.1c2-3.1,3-6.8,3-10.5c0-3.5-0.6-6.8-2-9.9c-1.3-3-3.1-5.8-5.4-8.2c-2.3-2.3-5.1-4.2-8.2-5.4
		c-3.1-1.4-6.5-2-9.9-2s-6.8,0.6-9.9,2c-3,1.3-5.8,3.1-8.2,5.4c-2.3,2.3-4.2,5.1-5.4,8.2c-1.4,3.1-2,6.5-2,9.9s0.9,7,2.8,10.1
		c1,1.8,2.4,3.5,4.1,4.9c-0.2,0.9-0.4,1.9-0.4,2.8c0,5.8,4.7,10.5,10.5,10.5c1.4,0,2.8-0.3,4.1-0.8c1.3,0.5,2.6,0.8,4.1,0.8
		c1.4,0,2.8-0.3,4.1-0.8c1.3,0.5,2.6,0.8,4.1,0.8c5.8,0,10.5-4.7,10.5-10.5c0-0.7-0.1-1.5-0.2-2.1
		C222.8,511.7,224.4,510,225.6,508.1z M215.4,511.7c0.8,1,1.3,2.3,1.3,3.7c0,3.4-2.7,6-6,6c-1.6,0-3-0.6-4.1-1.6
		c-1,0.9-2.5,1.6-4.1,1.6c-1.6,0-3-0.6-4.1-1.6c-1,0.9-2.5,1.6-4.1,1.6c-3.4,0-6-2.7-6-6c0-1.6,0.6-3,1.6-4.1
		c-4.9-3.1-8.2-8.2-8.2-13.7c0-11.6,9.4-21.2,21.2-21.2c11.6,0,21.2,9.4,21.2,21.2C224.2,503.4,220.8,508.6,215.4,511.7z"/>
	<path fill="#010101" d="M201.8,510.6c0.4,0,0.8-0.2,1.2-0.4c0.3,0.3,0.7,0.4,1.2,0.4c0.9,0,1.7-0.7,1.7-1.7c0-0.9-2.8-6.7-2.8-6.7
		s-2.8,5.8-2.8,6.7C200.1,509.8,200.9,510.6,201.8,510.6z"/>
	<path fill="#010101" d="M185.8,500.7l1.7-0.4c0,0,0,0.1,0.1,0.1l-1.2,1.4c-0.6,0.8-0.5,2,0.3,2.6s2,0.5,2.6-0.3l1.2-1.4
		c0.1,0,0.1,0,0.2,0.1v1.8c0,1,0.8,1.9,1.9,1.9c1,0,1.9-0.8,1.9-1.9v-1.8l0,0l1,1.5c0.6,0.8,1.8,1,2.6,0.5c0.8-0.6,1-1.8,0.5-2.6
		l-0.9-1.4c0,0,0,0,0.1-0.1l1.7,0.5c0.9,0.3,2.1-0.2,2.4-1.2s-0.2-2.1-1.2-2.4l-1.6-0.5l0,0l1.7-0.5c1-0.3,1.6-1.4,1.3-2.4
		s-1.4-1.6-2.4-1.3l-1.6,0.5c0,0,0-0.1-0.1-0.1l1-1.4c0.6-0.8,0.4-2-0.4-2.6c-0.8-0.6-2-0.4-2.6,0.4l-0.9,1.3H195v-1.7
		c0-1-0.8-1.9-1.9-1.9c-1,0-1.9,0.8-1.9,1.9v1.5l-0.8-1.3c-0.6-0.8-1.8-1-2.6-0.5c-0.8,0.6-1,1.8-0.5,2.6l0.8,1.3l-1.5-0.5
		c-0.9-0.4-2.1,0.1-2.4,1c-0.4,0.9,0.1,2.1,1,2.4l1.6,0.6l0,0l-1.7,0.4c-1,0.3-1.7,1.3-1.4,2.3C183.7,500.3,184.7,500.9,185.8,500.7
		z M188.9,495.9c0.1-0.3,0.2-0.5,0.3-0.8c0.2-0.4,0.5-0.8,0.9-1.3c0.2-0.2,0.4-0.3,0.7-0.5c0.4-0.2,0.9-0.4,1.5-0.4
		c0.1,0,0.2,0,0.4,0c0.2,0,0.4,0,0.6,0c0.4,0.1,0.9,0.2,1.3,0.4c0.3,0.2,0.6,0.4,0.9,0.7c0.3,0.3,0.6,0.7,0.8,1.2
		c0.1,0.3,0.2,0.6,0.3,1c0,0.2,0,0.3,0,0.5c0,0.3,0,0.6-0.1,0.9c-0.1,0.3-0.2,0.6-0.3,0.9c-0.2,0.4-0.5,0.8-0.9,1.2
		c-0.2,0.2-0.5,0.4-0.8,0.5c-0.4,0.2-0.9,0.3-1.5,0.4c-0.1,0-0.2,0-0.3,0c-0.2,0-0.5,0-0.7-0.1c-0.5-0.1-0.9-0.2-1.4-0.5
		c-0.3-0.2-0.6-0.4-0.8-0.6c-0.3-0.3-0.6-0.7-0.8-1.3c-0.1-0.3-0.2-0.6-0.2-0.9c0-0.2,0-0.3,0-0.5
		C188.7,496.5,188.8,496.2,188.9,495.9z"/>
	<path fill="#010101" d="M192.7,499.9c1.7,0,2.9-1.4,2.9-2.9c0-0.1,0-0.3,0-0.4c0-0.3-0.1-0.6-0.3-0.9c-0.1-0.2-0.2-0.4-0.4-0.6
		c-0.3-0.3-0.6-0.5-1-0.7c-0.2-0.1-0.4-0.1-0.6-0.2c-0.2,0-0.4-0.1-0.6-0.1s-0.4,0-0.6,0.1c-0.2,0-0.4,0.1-0.5,0.2
		c-0.3,0.1-0.6,0.3-0.8,0.6c-0.2,0.2-0.4,0.5-0.6,0.8c-0.1,0.1-0.1,0.3-0.1,0.4c-0.1,0.3-0.1,0.5-0.1,0.8
		C189.8,498.5,191.1,499.9,192.7,499.9z"/>
	<path fill="#010101" d="M220.8,497.7l-1.6-0.5l0,0l1.7-0.5c1-0.3,1.6-1.4,1.3-2.4c-0.3-1-1.4-1.6-2.4-1.3l-1.6,0.5
		c0,0,0-0.1-0.1-0.1l1-1.4c0.6-0.8,0.4-2-0.4-2.6c-0.8-0.6-2-0.4-2.6,0.4l-0.9,1.3H215v-1.7c0-1-0.8-1.9-1.9-1.9s-1.9,0.8-1.9,1.9
		v1.5l-0.8-1.3c-0.6-0.8-1.8-1-2.6-0.5c-0.8,0.6-1,1.8-0.5,2.6l0.8,1.3l-1.5-0.5c-0.9-0.4-2.1,0.1-2.4,1c-0.4,0.9,0.1,2.1,1,2.4
		l1.6,0.6l0,0l-1.7,0.4c-1,0.3-1.7,1.3-1.4,2.3c0.2,1,1.3,1.7,2.3,1.4l1.7-0.4c0,0,0,0.1,0.1,0.1l-1.2,1.4c-0.6,0.8-0.5,2,0.3,2.6
		c0.8,0.6,2,0.5,2.6-0.3l1.2-1.4c0.1,0,0.1,0,0.2,0.1v1.8c0,1,0.8,1.9,1.9,1.9c1,0,1.9-0.8,1.9-1.9v-1.8l0,0l1,1.5
		c0.6,0.8,1.8,1,2.6,0.5c0.8-0.6,1-1.8,0.5-2.6l-0.9-1.4c0,0,0,0,0.1-0.1l1.7,0.5c0.9,0.3,2.1-0.2,2.4-1.2
		C222.3,499,221.8,498,220.8,497.7z M216.9,497.8c-0.1,0.3-0.2,0.6-0.3,0.9c-0.2,0.4-0.5,0.8-0.9,1.2c-0.2,0.2-0.5,0.4-0.8,0.5
		c-0.4,0.2-0.9,0.3-1.5,0.4c-0.1,0-0.2,0-0.3,0c-0.2,0-0.5,0-0.7-0.1c-0.5-0.1-0.9-0.2-1.4-0.5c-0.3-0.2-0.6-0.4-0.8-0.6
		c-0.3-0.3-0.6-0.7-0.8-1.3c-0.1-0.3-0.2-0.6-0.2-0.9c0-0.2,0-0.3,0-0.5c0-0.3,0-0.6,0.1-0.9c0.1-0.3,0.2-0.5,0.3-0.8
		c0.2-0.4,0.5-0.8,0.9-1.3c0.2-0.2,0.4-0.3,0.7-0.5c0.4-0.2,0.9-0.4,1.5-0.4c0.1,0,0.2,0,0.4,0c0.2,0,0.4,0,0.6,0
		c0.4,0.1,0.9,0.2,1.3,0.4s0.6,0.4,0.9,0.7c0.3,0.3,0.6,0.7,0.8,1.2c0.1,0.3,0.2,0.6,0.3,1c0,0.2,0,0.3,0,0.5
		C217,497.3,216.9,497.6,216.9,497.8z"/>
	<path fill="#010101" d="M215.6,495.6c-0.1-0.2-0.2-0.4-0.4-0.6c-0.3-0.3-0.6-0.5-1-0.7c-0.2-0.1-0.4-0.1-0.6-0.2
		c-0.2,0-0.4-0.1-0.6-0.1c-0.2,0-0.4,0-0.6,0.1c-0.2,0-0.4,0.1-0.5,0.2c-0.3,0.1-0.6,0.3-0.8,0.6c-0.2,0.2-0.4,0.5-0.6,0.8
		c-0.1,0.1-0.1,0.3-0.1,0.4c-0.1,0.3-0.1,0.5-0.1,0.8c0,1.7,1.4,2.9,2.9,2.9c1.7,0,2.9-1.4,2.9-2.9c0-0.1,0-0.3,0-0.4
		C215.8,496.2,215.8,495.9,215.6,495.6z"/>
	<path fill="#010101" d="M213.8,507.6c-0.9,0.1-1.6,0.8-1.5,1.7c0.1,0.8,0.9,1.4,1.8,1.3c3.7-0.5,7-5.3,7.7-7.3
		C220.9,505.2,217.5,507.2,213.8,507.6z"/>
	<path fill="#010101" d="M193.7,486.1c0.9,0,1.7-0.7,1.6-1.5c0-0.8-0.7-1.5-1.7-1.5c-3.7,0.1-7.5,4.5-8.6,6.4
		C186.5,487.6,190.1,486.1,193.7,486.1z"/>
	<path fill="#010101" d="M212.6,486.1c3.7,0.1,7.2,1.7,8.6,3.5c-0.9-1.9-4.8-6.3-8.6-6.4c-0.9,0-1.7,0.6-1.7,1.5
		C211,485.3,211.7,486.1,212.6,486.1z"/>
	<path fill="#010101" d="M211.5,512.3h-17c-1.8,0-3.2,1.5-3.2,3.2s1.5,3.2,3.2,3.2h17c1.8,0,3.2-1.5,3.2-3.2
		C214.8,513.8,213.3,512.3,211.5,512.3z M208.8,513.5h2.7c0.2,0,0.4,0,0.5,0.1c-0.1,0.8-0.8,1.4-1.7,1.4s-1.5-0.5-1.7-1.4
		C208.8,513.6,208.8,513.6,208.8,513.5z M202.7,513.5c0,0.9-0.8,1.8-1.9,1.8c-1,0-1.8-0.8-1.9-1.8H202.7z M194.6,513.5h3.1
		c-0.1,0.8-0.8,1.5-1.7,1.5c-0.8,0-1.6-0.6-1.7-1.5C194.5,513.5,194.5,513.5,194.6,513.5z M193.8,517.4c-0.7-0.3-1.3-1-1.3-1.9
		c0-0.6,0.3-1.3,0.8-1.6c0.2,0.9,0.9,1.7,1.9,2C194.6,516.2,194,516.7,193.8,517.4z M194.8,517.6c0.1-0.4,0.5-0.7,0.9-0.7
		s0.8,0.3,0.9,0.7H194.8z M197.3,516.6c-0.2-0.2-0.4-0.4-0.7-0.5c0.7-0.1,1.3-0.5,1.7-1c0.2,0.3,0.5,0.6,0.8,0.9c-0.1,0-0.2,0-0.2,0
		C198.2,515.9,197.6,516.1,197.3,516.6z M197.8,517.6c0.1-0.4,0.5-0.7,0.9-0.7s0.8,0.3,0.9,0.7H197.8z M200.3,516.5
		c0-0.1-0.1-0.1-0.1-0.1S200.3,516.4,200.3,516.5L200.3,516.5z M200.8,517.6c0.1-0.4,0.5-0.7,0.9-0.7s0.8,0.3,0.9,0.7H200.8z
		 M203.3,516.5c-0.2-0.2-0.4-0.4-0.7-0.5c0.3-0.2,0.6-0.4,0.8-0.7c0.2,0.3,0.5,0.5,0.7,0.7C203.8,516.1,203.5,516.3,203.3,516.5z
		 M203.8,517.6c0.1-0.4,0.5-0.7,0.9-0.7s0.8,0.3,0.9,0.7H203.8z M203.9,513.5h3.8c0,0.9-0.8,1.8-1.9,1.8
		C204.8,515.3,204,514.5,203.9,513.5z M206.2,516.5L206.2,516.5c0-0.1,0-0.1,0.1-0.1C206.3,516.5,206.3,516.5,206.2,516.5z
		 M206.7,517.6c0.1-0.4,0.5-0.7,0.9-0.7c0.4,0,0.8,0.3,0.9,0.7H206.7z M209.2,516.6c-0.3-0.4-0.9-0.7-1.6-0.7h-0.1
		c0.3-0.2,0.5-0.5,0.7-0.8c0.4,0.5,0.9,0.8,1.7,0.9C209.7,516.2,209.4,516.3,209.2,516.6z M211.5,517.6h-1.8
		c0.1-0.4,0.5-0.7,0.9-0.7s0.8,0.3,0.9,0.7C211.6,517.6,211.6,517.6,211.5,517.6z M212.6,517.3c-0.2-0.6-0.7-1-1.4-1.3
		c0.8-0.3,1.5-0.9,1.8-1.8c0.3,0.3,0.5,0.8,0.5,1.4C213.5,516.2,213.2,516.9,212.6,517.3z"/>
	<path fill="#010101" d="M193.8,509.3c0.1-0.8-0.5-1.6-1.5-1.7c-3.7-0.5-6.9-2.4-8.2-4.5c0.7,2,4.1,6.8,7.7,7.3
		C192.9,510.7,193.7,510.1,193.8,509.3z"/>
	<circle fill="#010101" cx="198.8" cy="485.3" r="2"/>
	<circle fill="#010101" cx="207.3" cy="485.3" r="2"/>
</g>
<g>
	<path fill="#010101" d="M390.5,272.8c-2.3,2.3-4.2,5.1-5.4,8.2c-1.4,3.1-2,6.5-2,9.9c0,7.5,2.7,11.2,4.7,13.9
		c1.4,1.8,1.8,2.5,1.8,3.9v0.3c0,1.9,0,3.9,0.7,5.7c1.2,2.9,3.7,4.5,7,4.5c1.4,0,2.5-0.2,3.5-0.6c1.9,1,4.4,1.8,7.4,1.8
		c3.1,0,5.6-0.7,7.4-1.8c0.9,0.4,2.1,0.6,3.5,0.6c3.4,0,5.9-1.7,7-4.5c0.7-1.8,0.7-3.8,0.7-5.7V309c0.2-0.4,0.8-1.3,1.4-1.9
		c1.3-1.5,2.7-3.4,4-5.9c1.5-3,2.2-6.4,2.2-10.2c0-3.5-0.6-6.8-2-9.9c-1.3-3-3.1-5.8-5.4-8.2c-2.3-2.3-5.1-4.2-8.2-5.4
		c-3.1-1.4-6.5-2-9.9-2s-6.8,0.6-9.9,2C395.6,268.7,392.9,270.5,390.5,272.8z M429.8,291c0,11.3-7.4,13.6-7.4,17.8
		c0,3.4,0.1,6-3.2,6c-1.6,0-2.4-0.6-3.5-1.6c-1,0.9-3.5,2.7-7.4,2.7c-4,0-6.3-1.7-7.4-2.7c-1,0.9-1.9,1.6-3.5,1.6
		c-3.4,0-3.2-2.7-3.2-6c0-6.6-6.6-7-6.6-17.8c0-11.6,9.4-21.2,21.2-21.2S429.8,279.3,429.8,291z"/>
	<path fill="#010101" d="M414.2,305.2h-11c-2,0-3.6,1.6-3.6,3.6c0,2,1.6,3.6,3.6,3.6h11c2,0,3.6-1.6,3.6-3.6
		C417.7,306.8,416.2,305.2,414.2,305.2z M408.3,306.7c0,1-0.9,1.9-2,1.9c-1,0-1.9-0.8-2-1.9H408.3z M401.2,309.2c0,0.1,0,0.1,0,0.2
		c0,0.1,0,0.1,0,0.2C401.2,309.4,401.2,309.3,401.2,309.2z M401.2,308.2c0.2-0.8,1-1.6,2-1.6c-0.1,0.8-0.8,1.6-1.8,1.6
		C401.3,308.2,401.2,308.2,401.2,308.2z M402.7,309.9c-0.2-0.3-0.5-0.5-0.8-0.6c0.7-0.1,1.4-0.5,1.9-1.2c0.2,0.4,0.5,0.7,0.9,1
		c-0.1,0-0.2,0-0.3,0C403.6,309.2,403.1,309.5,402.7,309.9z M403.2,310.9c0.1-0.4,0.5-0.7,1-0.7s0.9,0.3,1,0.7H403.2z M405.8,309.9
		c-0.1-0.1-0.1-0.2-0.2-0.2c0.1,0,0.2,0.1,0.4,0.1C405.9,309.8,405.8,309.8,405.8,309.9z M406.3,310.9c0.1-0.4,0.5-0.7,1-0.7
		c0.5,0,0.9,0.3,1,0.7H406.3z M408.8,309.9c-0.2-0.3-0.5-0.4-0.8-0.6c0.3-0.2,0.6-0.5,0.9-0.8c0.2,0.3,0.5,0.6,0.8,0.8
		C409.5,309.4,409.2,309.6,408.8,309.9z M409.4,310.9c0.1-0.4,0.5-0.7,1-0.7s0.9,0.3,1,0.7H409.4z M409.6,306.7h3.9
		c0,1-0.9,1.9-2,1.9C410.4,308.6,409.6,307.7,409.6,306.7z M412,309.9l-0.1-0.1c0.1,0,0.2,0,0.3,0C412.1,309.7,412,309.8,412,309.9z
		 M414.2,310.9h-1.7c0.1-0.4,0.5-0.7,1-0.7c0.4,0,0.8,0.3,1,0.7C414.4,310.9,414.3,310.9,414.2,310.9z M415.1,309.9
		c-0.4-0.5-0.9-0.7-1.6-0.7c-0.1,0-0.1,0-0.2,0c0.3-0.2,0.6-0.5,0.8-0.8c0.4,0.5,1,0.9,1.8,1C415.6,309.4,415.3,309.6,415.1,309.9z
		 M414.7,306.8c0.7,0.2,1.4,0.7,1.6,1.5C415.3,308.2,414.8,307.6,414.7,306.8z"/>
	<path fill="#010101" d="M402.1,287.7l-0.4,0.6c-0.2-0.1-0.4-0.2-0.6-0.2v-0.8c0-1-0.8-1.9-1.9-1.9s-1.9,0.8-1.9,1.9v0.7
		c-0.1,0-0.2,0.1-0.4,0.1l-0.4-0.6c-0.6-0.8-1.8-1-2.6-0.5c-0.8,0.6-1,1.8-0.5,2.6l0.4,0.6c-0.1,0.1-0.2,0.2-0.2,0.3l-0.8-0.3
		c-0.9-0.4-2.1,0.1-2.4,1c-0.4,0.9,0.1,2.1,1,2.4l0.8,0.3c0,0.2,0,0.3,0,0.5l-0.8,0.2c-1,0.3-1.7,1.3-1.4,2.3c0.3,1,1.3,1.7,2.3,1.4
		l0.8-0.2c0.1,0.2,0.2,0.3,0.3,0.5l-0.6,0.7c-0.6,0.8-0.5,2,0.3,2.6c0.8,0.6,2,0.5,2.6-0.3l0.5-0.7c0.2,0.1,0.4,0.2,0.7,0.2v0.9
		c0,1,0.8,1.9,1.9,1.9c1,0,1.9-0.8,1.9-1.9v-0.9c0.2,0,0.3-0.1,0.5-0.1l0.5,0.7c0.6,0.8,1.8,1,2.6,0.5c0.8-0.6,1-1.8,0.5-2.6
		l-0.5-0.7c0.1-0.2,0.2-0.3,0.4-0.5l0.8,0.3c0.9,0.3,2.1-0.2,2.4-1.2c0.3-0.9-0.2-2.1-1.2-2.4l-0.8-0.3c0-0.2,0-0.3,0-0.5
		c0,0,0,0,0-0.1l0.8-0.2c1-0.3,1.6-1.4,1.3-2.4s-1.4-1.6-2.4-1.3l-0.7,0.2c-0.1-0.2-0.2-0.3-0.3-0.5l0.5-0.6c0.6-0.8,0.4-2-0.4-2.6
		C403.9,286.8,402.8,286.9,402.1,287.7z M403.7,291.6c0,0.1,0.1,0.1,0.1,0.2c0.6,0.9,0.9,2,0.9,3.1l0,0c0,0.1,0,0.2,0,0.3
		c-0.1,1.2-0.5,2.2-1.2,3c0,0.1-0.1,0.1-0.2,0.2c-0.7,0.8-1.6,1.5-2.7,1.8c-0.1,0-0.2,0.1-0.3,0.1c-0.4,0.1-0.9,0.2-1.4,0.2
		c-0.6,0-1.4-0.1-1.9-0.3c-0.1,0-0.1,0-0.2-0.1c-1-0.4-2-1.2-2.6-2.1c0-0.1-0.1-0.1-0.1-0.2c-0.5-0.8-0.8-1.9-0.8-3
		c0-0.1,0-0.1,0-0.2c0-0.1,0-0.2,0-0.3c0.1-1,0.5-2.1,1-2.9c0.1-0.1,0.2-0.2,0.2-0.3c0.6-0.7,1.5-1.4,2.5-1.7c0.1,0,0.3-0.1,0.4-0.1
		c0.4-0.1,0.9-0.2,1.5-0.2c0.6,0,1.3,0.1,1.8,0.3c0.1,0,0.1,0,0.2,0.1C402.1,289.9,403.1,290.6,403.7,291.6z"/>
	<path fill="#010101" d="M396.4,293.3h-0.5c-0.1,0-0.1,0-0.2,0c-0.6,0.1-1,0.4-1.4,0.9c-0.1,0.2-0.2,0.5-0.2,0.8l0,0
		c0,0.7,0.4,1.4,1,1.6c0.2,0.1,0.4,0.1,0.6,0.1l0,0h0.5h0.1h5h0.1h0.4c0.1,0,0.2,0,0.3,0c0.6-0.1,1-0.5,1.3-1.2
		c0.1-0.2,0.1-0.4,0.1-0.6c0-0.1,0-0.2,0-0.3c-0.1-0.6-0.5-1.2-1.2-1.4c-0.2-0.1-0.4-0.1-0.6-0.1l0,0h-0.5l0,0h-5L396.4,293.3z"/>
	<path fill="#010101" d="M412.1,290.2l0.6,0.7c-0.1,0.2-0.2,0.3-0.3,0.5l-0.8-0.2c-1-0.3-2.1,0.3-2.3,1.4c-0.3,1,0.3,2.1,1.4,2.3
		l0.8,0.2c0,0.2,0,0.3,0,0.5l-0.8,0.3c-0.9,0.4-1.5,1.5-1,2.4c0.4,0.9,1.5,1.5,2.4,1l0.8-0.3c0.1,0.1,0.2,0.2,0.2,0.3l-0.4,0.6
		c-0.6,0.8-0.3,2.1,0.5,2.6c0.8,0.6,2.1,0.4,2.6-0.5l0.4-0.6c0.1,0,0.2,0.1,0.4,0.1v0.7c0,1,0.8,1.9,1.9,1.9s1.9-0.8,1.9-1.9v-0.8
		c0.2-0.1,0.4-0.1,0.6-0.2l0.4,0.6c0.6,0.8,1.8,1,2.6,0.4c0.8-0.6,1-1.8,0.4-2.6l-0.5-0.6c0.1-0.2,0.2-0.3,0.3-0.5l0.7,0.2
		c1,0.3,2.1-0.2,2.4-1.3c0.3-1-0.2-2.1-1.3-2.4l-0.8-0.2c0,0,0,0,0-0.1c0-0.2,0-0.3,0-0.5l0.8-0.3c0.9-0.3,1.6-1.4,1.2-2.4
		c-0.3-0.9-1.4-1.6-2.4-1.2l-0.8,0.3c-0.1-0.2-0.2-0.3-0.4-0.5l0.5-0.7c0.6-0.8,0.4-2.1-0.5-2.6c-0.8-0.6-2.1-0.4-2.6,0.5l-0.5,0.7
		c-0.2-0.1-0.3-0.1-0.5-0.1v-0.9c0-1-0.8-1.9-1.9-1.9s-1.9,0.8-1.9,1.9v0.9c-0.2,0.1-0.4,0.2-0.7,0.2l-0.5-0.7
		c-0.6-0.8-1.9-0.9-2.6-0.3C411.6,288.2,411.5,289.4,412.1,290.2z M413.6,292c0-0.1,0.1-0.1,0.1-0.2c0.6-0.9,1.6-1.7,2.6-2.1
		c0.1,0,0.1,0,0.2-0.1c0.6-0.2,1.3-0.3,1.9-0.3c0.5,0,0.9,0.1,1.4,0.2c0.1,0,0.2,0.1,0.3,0.1c1,0.3,2,0.9,2.7,1.8
		c0.1,0.1,0.1,0.1,0.2,0.2c0.6,0.8,1,1.9,1.2,3c0,0.1,0,0.2,0,0.3l0,0c0,1.2-0.3,2.2-0.9,3.1c0,0.1-0.1,0.1-0.1,0.2
		c-0.6,0.9-1.6,1.7-2.7,2.1c-0.1,0-0.1,0-0.2,0.1c-0.5,0.2-1.2,0.3-1.8,0.3c-0.5,0-0.9-0.1-1.5-0.2c-0.1,0-0.3-0.1-0.4-0.1
		c-0.9-0.3-1.8-0.9-2.5-1.7c-0.1-0.1-0.2-0.2-0.2-0.3c-0.6-0.8-1-1.8-1-2.9c0-0.1,0-0.2,0-0.3s0-0.1,0-0.2
		C412.7,293.9,413,293,413.6,292z"/>
	<path fill="#010101" d="M415,296.7c0.1,0,0.1,0,0.2,0h0.5h0.2h5l0,0h0.5l0,0c0.2,0,0.4,0,0.6-0.1c0.6-0.2,1-0.7,1.2-1.4
		c0-0.1,0-0.2,0-0.3c0-0.2,0-0.4-0.1-0.6c-0.2-0.5-0.7-0.9-1.3-1.2c-0.1,0-0.2,0-0.3,0h-0.4h-0.1h-5H416h-0.5l0,0
		c-0.2,0-0.4,0-0.6,0.1c-0.6,0.2-1,0.8-1,1.6l0,0c0,0.3,0.1,0.6,0.2,0.8C414,296.3,414.4,296.6,415,296.7z"/>
	<path fill="#010101" d="M407.5,304.5c0.4,0,0.8-0.2,1.2-0.4c0.3,0.3,0.7,0.4,1.2,0.4c0.9,0,1.7-0.7,1.7-1.7l0,0v-0.2
		c0-1.6-1.3-2.8-2.8-2.8c-1.6,0-2.8,1.3-2.8,2.8v0.2l0,0C405.8,303.7,406.5,304.5,407.5,304.5z"/>
	<path fill="#010101" d="M400.4,280.7c1.5-0.4,2.3-1.7,2-2.8c-0.3-1.2-1.4-1.9-2.8-1.5c-5.9,1.5-10.2,8.4-10.2,13.4
		C389.5,287.3,394.5,282.2,400.4,280.7z"/>
	<path fill="#010101" d="M417,280.6c5.9,1.5,10.9,6.6,11,9.1c0-5-4.3-11.9-10.2-13.4c-1.5-0.4-2.5,0.3-2.8,1.5
		C414.6,278.9,415.5,280.2,417,280.6z"/>
	<circle fill="#010101" cx="408.6" cy="278.3" r="4.6"/>
</g>
<g>
	<path fill="#010101" d="M276.2,362.5c-3.9,3.9-7,8.5-9.1,13.5c-2.2,5.2-3.4,10.8-3.4,16.5s1.6,11.4,4.7,16.4c2,3.2,4.6,6.3,7.6,8.9
		c-0.6,1.8-0.9,3.6-0.9,5.4c0,9,7.3,16.2,16.2,16.2c3.2,0,6.4-0.9,9-2.7c1,0,2.3,0,3.8,0c2.2,0,4.5,0,6.2,0c0.1,0,0.1,0,0.2,0
		c2.6,1.8,5.8,2.7,9,2.7c9,0,16.2-7.3,16.2-16.2c0-1.6-0.2-3-0.6-4.4c3.5-2.7,6.4-5.9,8.6-9.3c3.4-5.2,5-11.1,5-17.1
		c0-5.8-1.2-11.3-3.4-16.5c-2.1-5-5.2-9.6-9.1-13.5c-3.9-3.9-8.5-7-13.5-9.1c-5.2-2.2-10.8-3.4-16.5-3.4s-11.3,1.2-16.5,3.4
		C284.6,355.6,280.1,358.6,276.2,362.5z M343,392.5c0,10.1-6,19-15.2,24.5c1.4,1.8,2.2,4,2.2,6.4c0,5.8-4.7,10.5-10.5,10.5
		c-2.7,0-5.2-1-7-2.7c0,0-0.8,0-2.2,0c-3,0-8.6,0-10.8,0c-0.6,0-1,0-1,0c-1.9,1.7-4.3,2.7-7,2.7c-5.8,0-10.5-4.7-10.5-10.5
		c0-2.7,1-5.2,2.7-7c-8.6-5.6-14.1-14.1-14.1-23.8c0-20.2,16.4-36.7,36.7-36.7C326.5,355.9,343,372.3,343,392.5z"/>
	<path fill="#010101" d="M299.9,410.5c0,1.9,1.6,3.5,3.5,3.5c0.9,0,1.8-0.3,2.3-0.9c0.6,0.5,1.5,0.9,2.3,0.9c1.9,0,3.5-1.6,3.5-3.5
		v-0.1l-5.9-10.9L299.9,410.5L299.9,410.5z"/>
	<path fill="#010101" d="M290.6,418.4c0,5.8,4.6,10.4,10.4,10.4h9.8c5.8,0,10.4-4.6,10.4-10.4v-1.3h-30.7v1.3H290.6z M295,423.5
		c0.4,0.1,0.7,0.4,0.9,0.9C295.5,424.2,295.3,423.9,295,423.5z M300.7,426.3c-1.3,0-2.5-0.4-3.6-0.9c0-0.1,0-0.2,0-0.4
		c0-0.7,0.8-1.4,1.8-1.4c0.9,0,1.8,0.9,1.8,2C300.7,425.8,300.7,426.1,300.7,426.3z M305.3,426.3h-3.4c-0.1-0.2-0.1-0.5-0.1-0.7
		c0-1.2,0.8-2,1.8-2c0.9,0,1.8,0.9,1.8,2C305.4,425.8,305.4,426.1,305.3,426.3z M310,426.3h-3.4c-0.1-0.2-0.1-0.5-0.1-0.7
		c0-1.2,0.8-2,1.8-2s1.8,0.9,1.8,2C310.1,425.8,310.1,426.1,310,426.3z M314.7,425.3c-1,0.5-2.2,0.9-3.5,0.9c0-0.2,0-0.4,0-0.7
		c0-1.2,0.8-2,1.8-2s1.8,0.6,1.8,1.4C314.8,424.9,314.7,425.1,314.7,425.3z M316.1,424.3c0.1-0.4,0.4-0.6,0.7-0.7
		C316.6,423.9,316.3,424.1,316.1,424.3z M315.9,419.7h2.2c0.1,0.1,0.1,0.2,0.2,0.3c0.1,0.1,0.1,0.2,0.1,0.2
		c-0.2,0.7-0.4,1.4-0.8,2.1c-0.2,0.1-0.4,0.1-0.6,0.1c-0.5,0-1.2-0.8-1.2-2C315.9,420.1,315.9,419.9,315.9,419.7z M315.3,422.3
		c0.1,0.2,0.2,0.4,0.4,0.5c-0.1,0.1-0.3,0.3-0.4,0.4c-0.1-0.2-0.3-0.3-0.5-0.4C314.9,422.7,315.1,422.5,315.3,422.3z M311.6,419.7
		h3.1c0,0.2,0.1,0.4,0.1,0.7c0,1.2-0.8,2-1.8,2c-0.9,0-1.8-0.9-1.8-2C311.2,420.2,311.3,419.9,311.6,419.7z M310.6,422.2
		c0.2,0.3,0.4,0.5,0.7,0.7c-0.3,0.2-0.5,0.4-0.7,0.7c-0.2-0.3-0.4-0.5-0.7-0.7C310.2,422.7,310.5,422.5,310.6,422.2z M306.8,419.7
		h3.1c0,0.2,0.1,0.4,0.1,0.7c0,1.2-0.8,2-1.8,2c-0.9,0-1.8-0.9-1.8-2C306.5,420.1,306.6,419.9,306.8,419.7z M305.9,422.2
		c0.2,0.3,0.4,0.5,0.7,0.7c-0.3,0.2-0.5,0.4-0.7,0.7c-0.2-0.3-0.4-0.5-0.7-0.7C305.5,422.7,305.8,422.5,305.9,422.2z M302.1,419.7
		h3.1c0,0.2,0.1,0.4,0.1,0.7c0,1.2-0.8,2-1.8,2s-1.8-0.9-1.8-2C301.8,420.1,301.9,419.9,302.1,419.7z M301.2,422.2
		c0.2,0.3,0.4,0.5,0.7,0.7c-0.3,0.2-0.5,0.4-0.7,0.7c-0.2-0.3-0.4-0.5-0.7-0.7C300.8,422.7,301.1,422.5,301.2,422.2z M297.4,419.7
		h3.1c0,0.2,0.1,0.4,0.1,0.7c0,1.2-0.8,2-1.8,2s-1.8-0.9-1.8-2C297.1,420.1,297.2,419.9,297.4,419.7z M296.6,422.3
		c0.2,0.2,0.3,0.4,0.5,0.5c-0.2,0.1-0.4,0.3-0.5,0.4c-0.1-0.2-0.3-0.3-0.4-0.4C296.4,422.7,296.5,422.5,296.6,422.3z M295.8,419.7
		c0,0.2,0.1,0.4,0.1,0.7c0,1.2-0.6,2-1.2,2c-0.2,0-0.6-0.3-1-0.8c-0.3-0.6-0.4-1.3-0.5-1.9H295.8L295.8,419.7z"/>
	<path fill="#010101" d="M317.5,408.5c0.4-0.8-0.1-1.8-1-2.2c-3.1-1.5-6.1-3.8-8.2-6.2c0.3,0.7,0.6,1.5,0.9,2.2
		c2.1,4.4,4.3,6.2,5.9,6.9c0.3,0.1,0.6,0.2,0.9,0.2C316.8,409.3,317.3,409,317.5,408.5z"/>
	<path fill="#010101" d="M295.4,409c0.3,0,0.5,0,0.7-0.1c1.6-0.6,4-2.2,6.4-6.4c0.4-0.7,0.7-1.5,1.2-2.2c-2.2,2.3-5.3,4.4-8.6,5.6
		c-0.5,0.2-0.9,0.5-1.2,0.9c-0.2,0.4-0.2,0.8-0.1,1.2C294.1,408.6,294.7,409,295.4,409z"/>
	<path fill="#010101" d="M281.7,405.6c-3.2-1.5-6.2-3.7-8.2-6.2c0.3,0.7,0.6,1.5,0.9,2.2c2.1,4.4,4.4,6.1,6,6.8
		c0.3,0.1,0.6,0.2,0.9,0.2c0.6,0,1.3-0.3,1.5-0.8C283.2,407.1,282.6,406.1,281.7,405.6z"/>
	<path fill="#010101" d="M330,406.2c-1.2,0.6-1.7,1.9-1.2,2.8c0.3,0.6,1,1,1.8,1c0.4,0,0.8-0.1,1.2-0.3c1.7-0.8,4.1-2.8,6.2-7.6
		c0.6-1.5,1.2-2.9,1.5-4.2C337.4,401.1,334,404.3,330,406.2z"/>
	<path fill="#010101" d="M295,373c4.9,1.6,9,5.1,10.2,8.2c-0.5-3-4-10.5-8.9-12c-1.3-0.4-2.5,0.1-2.8,1.3
		C293.1,371.4,293.9,372.5,295,373z"/>
	<path fill="#010101" d="M328.5,373c4.9,1.6,9,5.1,10.2,8.2c-0.5-3-4-10.5-8.9-12c-1.3-0.4-2.5,0.1-2.8,1.3
		C326.6,371.4,327.3,372.5,328.5,373z"/>
	<path fill="#010101" d="M316.7,373c1.3-0.4,1.9-1.6,1.6-2.6c-0.3-1-1.6-1.6-2.8-1.3c-4.9,1.6-8.4,9.1-8.9,12
		C307.7,378.1,311.8,374.5,316.7,373z"/>
	<path fill="#010101" d="M274,381.1c1.2-3,5.2-6.6,10.2-8.2c1.3-0.4,1.9-1.6,1.6-2.6c-0.3-1-1.6-1.6-2.8-1.3
		C277.9,370.7,274.5,378.2,274,381.1z"/>
	<circle fill="#010101" cx="289.1" cy="370.3" r="1.3"/>
	<circle fill="#010101" cx="322.9" cy="370.3" r="1.3"/>
	<path fill="#010101" d="M324.4,407.2c-1.7,0-3,1.4-3,3c0,1.7,3,3.8,3,3.8s3-2.1,3-3.8C327.5,408.6,326.1,407.2,324.4,407.2z"/>
	<path fill="#010101" d="M316.5,378c-0.6,0.3-1.2,0.7-1.7,1.3c-1.3-0.5-2.7-0.1-3.6,0.9c-0.8,1.2-0.7,2.6,0.1,3.7
		c-0.3,0.7-0.6,1.5-0.7,2.2c-1.4,0.3-2.3,1.5-2.3,2.9c0,1.4,0.9,2.6,2.2,2.9c0.2,0.8,0.4,1.7,0.7,2.5c-0.8,1-0.9,2.6-0.1,3.7
		c0.8,1.2,2.3,1.6,3.6,1c0.7,0.6,1.5,1.2,2.2,1.6c-0.1,1.4,0.7,2.6,2.2,3c1.4,0.4,2.8-0.2,3.5-1.4c0.3,0,0.5,0,0.8,0s0.5,0,0.8,0
		c0.2,0,0.4,0,0.6-0.1c0.7,1.2,2.2,1.8,3.6,1.3c1.4-0.5,2.2-1.9,2-3.2c0.6-0.4,1.4-0.9,1.9-1.5c1.3,0.5,2.8,0.1,3.7-1.2
		c0.8-1.2,0.6-2.7-0.3-3.8c0.3-0.7,0.5-1.4,0.6-2.1c1.4-0.3,2.4-1.6,2.3-3c0-1.5-1-2.6-2.4-2.8c-0.2-0.7-0.4-1.5-0.7-2.2
		c0.9-1,0.9-2.6,0.1-3.8c-0.8-1.2-2.4-1.5-3.7-0.8c-0.3-0.3-0.7-0.5-1-0.8c0.2-0.9,0-1.9-0.4-2.7c-0.5-0.9-1.4-1.6-2.4-1.9
		s-2.1-0.1-3,0.4c-0.8,0.4-1.4,1.2-1.8,2c-0.2,0-0.3,0-0.5,0c-0.1,0-0.2,0-0.4,0c-0.7-1.2-2.2-1.7-3.6-1.3
		C317.1,375.4,316.4,376.6,316.5,378z M317.8,381.3c1.2-0.8,2.5-1.4,4-1.6c0.2,0,0.5-0.1,0.7-0.1c0.1,0,0.2,0,0.3,0s0.2,0,0.3,0l0,0
		l0,0l0,0c0.2,0,0.4,0,0.6,0c0.8,0.1,1.7,0.2,2.5,0.5s1.6,0.6,2.2,1.2l0,0c1.7,1.2,2.9,2.7,3.6,4.7v0.1c0.3,0.7,0.4,1.6,0.5,2.5
		c0.1,1.2,0,2.2-0.3,3.2c0,0.1,0,0.1-0.1,0.2c-0.4,1.3-1,2.4-2,3.5c-0.4,0.4-0.8,0.8-1.4,1.3c0,0,0,0-0.1,0
		c-1.5,1.2-3.2,1.8-5.1,1.9c-0.1,0-0.2,0-0.3,0h-0.1c-0.1,0-0.1,0-0.2,0c-2,0-3.9-0.6-5.4-1.8l-0.1-0.1c-1.7-1.2-2.9-2.9-3.6-4.9
		l0,0c-0.2-0.7-0.3-1.5-0.4-2.2c-0.1-1.3,0.1-2.5,0.5-3.7v-0.1c0.4-1.2,1-2.2,1.8-3.1c0.4-0.5,0.9-0.9,1.5-1.4
		C317.6,381.4,317.7,381.4,317.8,381.3z"/>
	<path fill="#010101" d="M316.5,386.1c0.1,0.5,0.4,0.9,0.7,1.3l0.9,0.9l0.4,0.4l0.5,0.5l-0.5,0.5l-0.4,0.4l-0.9,0.9
		c-0.3,0.3-0.5,0.6-0.6,0.9c-0.4,1-0.2,2.3,0.6,3.1c0.2,0.2,0.5,0.4,0.8,0.6c0.2,0.1,0.5,0.2,0.7,0.2c0.1,0,0.3,0,0.4,0
		c0.7,0,1.5-0.3,2.1-0.8l0.5-0.5l0,0l0.7-0.7l0.6-0.6l0.6,0.6l0.4,0.4l0.3,0.3l0.4,0.4c0.5,0.5,1.4,0.8,2.1,0.8c0.2,0,0.4,0,0.6-0.1
		c0.3-0.1,0.6-0.2,0.8-0.3s0.4-0.3,0.6-0.5c0.8-0.8,1-2.1,0.6-3.1c-0.1-0.4-0.3-0.7-0.6-1l-0.9-0.9l-0.3-0.3l-0.5-0.5l0.5-0.5
		l0.5-0.5l0.8-0.8c0.3-0.3,0.6-0.7,0.7-1.3c0.3-1,0.1-2.1-0.7-2.9c-0.3-0.3-0.6-0.5-0.9-0.6c-0.3-0.1-0.6-0.2-0.9-0.2
		c-0.8,0-1.6,0.2-2.2,0.8l-0.5,0.5l-0.2,0.2l-0.6,0.6l-0.5,0.5l-0.5-0.3l-0.3-0.3l0,0l-0.3-0.3l-0.3-0.3l-0.4-0.4
		c-0.1-0.1-0.3-0.2-0.4-0.3c-0.5-0.4-1.3-0.5-1.9-0.5c-0.4,0-0.8,0.1-1.3,0.3c-0.2,0.1-0.5,0.3-0.7,0.5
		C316.5,384,316.3,385.1,316.5,386.1z"/>
	<path fill="#010101" d="M283.9,375c-1.4,0.4-2.1,1.8-2,3c-0.6,0.3-1.2,0.7-1.7,1.3c-1.3-0.5-2.7-0.1-3.6,0.9
		c-0.8,1.2-0.7,2.6,0.1,3.7c-0.3,0.7-0.6,1.5-0.7,2.2c-1.4,0.3-2.3,1.5-2.3,2.9c0,1.4,0.9,2.6,2.2,2.9c0.2,0.8,0.4,1.7,0.7,2.5
		c-0.8,1-0.9,2.6-0.1,3.7c0.8,1.2,2.3,1.6,3.6,1c0.7,0.6,1.5,1.2,2.2,1.6c-0.1,1.4,0.7,2.6,2.2,3c1.4,0.4,2.8-0.2,3.5-1.4
		c0.3,0,0.5,0,0.8,0s0.5,0,0.8,0c0.2,0,0.4,0,0.6-0.1c0.7,1.2,2.2,1.8,3.6,1.3s2.2-1.9,2-3.2c0.6-0.4,1.4-0.9,1.9-1.5
		c1.3,0.5,2.8,0.1,3.7-1.2c0.8-1.2,0.6-2.7-0.3-3.8c0.3-0.7,0.5-1.4,0.6-2.1c1.4-0.3,2.4-1.6,2.3-3c0-1.5-1-2.6-2.4-2.8
		c-0.2-0.7-0.4-1.5-0.7-2.2c0.9-1,0.9-2.6,0.1-3.8s-2.4-1.5-3.7-0.8c-0.3-0.3-0.7-0.5-1-0.8c0.2-0.9,0-1.9-0.4-2.7
		c-0.5-0.9-1.4-1.6-2.4-1.9s-2.1-0.1-3,0.4c-0.8,0.4-1.4,1.2-1.8,2c-0.2,0-0.3,0-0.5,0c-0.1,0-0.2,0-0.4,0
		C286.7,375,285.3,374.4,283.9,375z M287.3,379.8c0.2,0,0.5-0.1,0.7-0.1c0.1,0,0.2,0,0.3,0c0.1,0,0.2,0,0.3,0l0,0l0,0l0,0
		c0.2,0,0.4,0,0.6,0c0.8,0.1,1.7,0.2,2.5,0.5c0.8,0.3,1.6,0.6,2.2,1.2l0,0c1.7,1.2,2.9,2.7,3.6,4.7v0.1c0.3,0.7,0.4,1.6,0.5,2.5
		c0.1,1.2,0,2.2-0.3,3.2c0,0.1,0,0.1-0.1,0.2c-0.4,1.3-1,2.4-2,3.5c-0.4,0.4-0.8,0.8-1.4,1.3c0,0,0,0-0.1,0
		c-1.5,1.2-3.2,1.8-5.1,1.9c-0.1,0-0.2,0-0.3,0h-0.1c-0.1,0-0.1,0-0.2,0c-2,0-3.9-0.6-5.4-1.8l-0.1-0.1c-1.7-1.2-2.9-2.9-3.6-4.9
		l0,0c-0.2-0.7-0.3-1.5-0.4-2.2c-0.1-1.3,0.1-2.5,0.5-3.7v-0.1c0.4-1.2,1-2.2,1.8-3.1c0.4-0.5,0.9-0.9,1.5-1.4
		c0.1-0.1,0.2-0.1,0.3-0.2C284.4,380.5,285.8,380,287.3,379.8z"/>
	<path fill="#010101" d="M281.9,386.1c0.1,0.5,0.4,0.9,0.7,1.3l0.9,0.9l0.4,0.4l0.5,0.5l-0.5,0.5l-0.4,0.4l-0.9,0.9
		c-0.3,0.3-0.5,0.6-0.6,0.9c-0.4,1-0.2,2.3,0.6,3.1c0.2,0.2,0.5,0.4,0.8,0.6c0.2,0.1,0.5,0.2,0.7,0.2c0.1,0,0.3,0,0.4,0
		c0.7,0,1.5-0.3,2.1-0.8l0.5-0.5l0,0l0.7-0.7l0.6-0.6l0.6,0.6l0.4,0.4l0.3,0.3l0.4,0.4c0.5,0.5,1.4,0.8,2.1,0.8c0.2,0,0.4,0,0.6-0.1
		c0.3-0.1,0.6-0.2,0.8-0.3s0.4-0.3,0.6-0.5c0.8-0.8,1-2.1,0.6-3.1c-0.1-0.4-0.3-0.7-0.6-1l-0.9-0.9l-0.3-0.3l-0.5-0.5l0.5-0.5
		l0.5-0.5l0.8-0.8c0.3-0.3,0.6-0.7,0.7-1.3c0.3-1,0.1-2.1-0.7-2.9c-0.3-0.3-0.6-0.5-0.9-0.6s-0.6-0.2-0.9-0.2
		c-0.8,0-1.6,0.2-2.2,0.8l-0.5,0.5l-0.2,0.2l-0.6,0.6l-0.5,0.5l-0.5-0.3l-0.3-0.3l0,0l-0.3-0.3l-0.3-0.3l-0.4-0.4
		c-0.1-0.1-0.3-0.2-0.4-0.3c-0.5-0.4-1.3-0.5-1.9-0.5c-0.4,0-0.8,0.1-1.3,0.3c-0.2,0.1-0.5,0.3-0.7,0.5
		C281.9,384,281.7,385.1,281.9,386.1z"/>
	<path fill="#010101" d="M286.6,407.2c-1.7,0-3,1.4-3,3c0,1.7,3,3.8,3,3.8s3-2.1,3-3.8C289.7,408.6,288.3,407.2,286.6,407.2z"/>
</g>
<g>
	<path fill="#010101" d="M434.3,497.7c0-3.5-0.6-6.8-2-10.1c-1.3-3-3.1-5.8-5.6-8.2s-5.1-4.2-8.2-5.6c-3.1-1.4-6.5-2-10.1-2
		c-3.5,0-6.8,0.6-10.1,2c-3,1.3-5.8,3.1-8.2,5.6c-2.4,2.4-4.2,5.1-5.6,8.2c-1.4,3.1-2,6.5-2,10.1c0,3.1,0.7,6.2,2.3,9.1
		c1,2.1,2.5,4,4.3,5.6c0,1,0,2.3,0,3.1c0,5.8,4.7,10.5,10.5,10.5h16.3c5.8,0,10.5-4.7,10.5-10.5c0-0.6,0-1.5,0-2.3
		C431.6,509.2,434.3,503.7,434.3,497.7z M422.2,511.1c0,0.8,0,3.1,0,4.5c0,3.4-2.7,6.1-6.1,6.1c-1.6,0-14.8,0-16.3,0
		c-3.4,0-6.1-2.7-6.1-6.1c0-1.6,0-4.5,0-5.2c-4.1-3.1-6.5-7.6-6.5-12.6c0-11.7,9.5-21.3,21.3-21.3s21.3,9.5,21.3,21.3
		C429.8,503,426.9,507.8,422.2,511.1z"/>
	<path fill="#010101" d="M422.2,506.1c-0.3,0.2-0.6,0.4-0.7,0.7s-0.1,0.6,0,0.8c0.2,0.3,0.6,0.6,1,0.6c0.2,0,0.4-0.1,0.6-0.2
		c2.2-1.2,3.8-4.3,4.4-6.8C426.5,503.1,424.5,504.9,422.2,506.1z"/>
	<path fill="#010101" d="M417.3,484.6c4.9,1.3,9.1,4.3,10.3,7c-0.6-2.7-4.3-9.4-9.2-10.6c-1.3-0.3-2.4,0.2-2.7,1.3
		C415.3,483.2,416.1,484.3,417.3,484.6z"/>
	<path fill="#010101" d="M413.1,487.3c0.5-0.3,0.8-0.9,0.5-1.4c-0.2-0.5-0.9-0.6-1.5-0.4c-2.3,1.2-3.4,5-3.5,6.5
		C409.2,490.6,410.8,488.5,413.1,487.3z"/>
	<path fill="#010101" d="M416.2,507.5c0,1.3,1,2.2,2.2,2.2c1.3,0,2.2-1,2.2-2.2s-2.2-3.9-2.2-3.9S416.2,506.3,416.2,507.5z"/>
	<path fill="#010101" d="M424.1,503.3c1-0.8,1.2-2.3,0.4-3.2l-0.2-0.2c0.4-0.6,0.7-1.4,0.9-2.1c0.1-0.6,0.2-1.2,0.2-1.8l0.3-0.1
		c0.6-0.2,1-0.6,1.3-1.3c0.2-0.5,0.3-1.2,0.1-1.8c-0.3-0.9-1.3-1.5-2.2-1.5c-0.3,0-0.5,0-0.8,0.1l-0.3,0.1c-0.8-1-2-1.8-3.2-2.3V489
		c0-1.3-1-2.3-2.3-2.3h-0.1c-0.6,0-1.2,0.3-1.7,0.7c-0.4,0.4-0.6,1-0.6,1.7v0.2c-1.3,0.4-2.4,1.3-3.2,2.3l-0.2-0.1
		c-0.2-0.1-0.5-0.1-0.7-0.1c-1,0-1.9,0.6-2.2,1.6c-0.2,0.6-0.1,1.3,0.1,1.8c0.3,0.5,0.7,0.9,1.4,1.2l0.2,0.1c0,1.6,0.5,3,1.5,4.2
		l-0.2,0.2c-0.3,0.5-0.5,1.2-0.3,1.8c0.1,0.6,0.5,1.2,0.9,1.5c0.4,0.2,0.8,0.4,1.3,0.4c0.7,0,1.5-0.4,2-1l0.2-0.2h0.1
		c0.5,0.1,1.2,0.2,1.7,0.2c0.8,0,1.6-0.1,2.3-0.4l0.2,0.3c0.4,0.5,1.2,0.8,1.8,0.8C423.2,503.9,423.7,503.7,424.1,503.3z
		 M420.6,500.7c-0.2,0.1-0.4,0.2-0.5,0.2c-0.2,0.1-0.4,0.1-0.6,0.2c-0.3,0.1-0.7,0.1-1,0.1c-0.2,0-0.4,0-0.7,0
		c-0.2,0-0.4-0.1-0.5-0.1c0,0,0,0-0.1,0c-0.2-0.1-0.4-0.1-0.6-0.2c-0.7-0.3-1.4-0.7-1.9-1.3c-0.1-0.1-0.3-0.3-0.4-0.5
		c-0.1-0.2-0.2-0.3-0.3-0.5c-0.3-0.6-0.5-1.3-0.6-1.9c0-0.2,0-0.4,0-0.6c0-0.2,0-0.4,0-0.6s0.1-0.4,0.1-0.7c0.1-0.5,0.3-1,0.6-1.5
		c0.1-0.2,0.2-0.3,0.3-0.5c0.1-0.2,0.3-0.3,0.4-0.5c0.4-0.4,0.8-0.7,1.4-0.9c0.2-0.1,0.4-0.2,0.6-0.2c0.2-0.1,0.4-0.1,0.6-0.2
		c0.4-0.1,0.8-0.1,1.2-0.1v-0.9l0,0v0.9l0,0c0.4,0,0.7,0,1.2,0.1h0.1c0.1,0,0.3,0.1,0.4,0.1c0.2,0.1,0.4,0.1,0.6,0.2
		c0.5,0.2,0.9,0.5,1.4,0.9c0.1,0.1,0.3,0.3,0.4,0.4c0.1,0.2,0.2,0.3,0.3,0.5c0.4,0.6,0.7,1.4,0.7,2.2c0,0.2,0,0.4,0,0.6s0,0.4,0,0.6
		s-0.1,0.4-0.1,0.6c-0.1,0.3-0.2,0.7-0.3,1c-0.1,0.2-0.2,0.4-0.3,0.5c-0.1,0.2-0.2,0.3-0.3,0.5C421.9,499.9,421.3,500.3,420.6,500.7
		z"/>
	<path fill="#010101" d="M423.1,496.7c0.1-0.2,0.2-0.4,0.3-0.7c0-0.1,0-0.1,0-0.2s0-0.3,0-0.4c-0.2-0.7-0.8-1.4-1.7-1.4h-0.5h-0.6
		h-0.4v-0.2v-0.9v-0.3c0-0.2,0-0.4-0.1-0.5c-0.1-0.3-0.3-0.6-0.6-0.8c-0.3-0.2-0.6-0.3-1-0.3c-0.5,0-0.9,0.2-1.3,0.5
		s-0.5,0.7-0.5,1.3v0.3v0.4v0.6v0.1h-0.4h-0.6h-0.4l0,0c-0.8,0-1.6,0.6-1.8,1.5c0,0.1,0,0.2,0,0.3c0,0.1,0,0.2,0,0.3
		c0.1,0.3,0.2,0.5,0.3,0.7c0.2,0.2,0.4,0.4,0.7,0.5c0.2,0.1,0.4,0.1,0.6,0.1l0,0h0.7h0.8v0.5v0.7v0.2c0,0.4,0.1,0.7,0.3,1
		c0.1,0.2,0.3,0.3,0.4,0.4c0.2,0.1,0.3,0.2,0.5,0.2c0.1,0,0.3,0.1,0.4,0.1c0.2,0,0.4,0,0.6-0.1c0.2-0.1,0.3-0.2,0.5-0.3
		c0.1-0.1,0.3-0.3,0.4-0.5c0.1-0.2,0.2-0.5,0.2-0.8v-0.2v-0.7v-0.5h0.6h0.8l0,0h0.1c0.2,0,0.4-0.1,0.6-0.2
		C422.7,497.2,423,497,423.1,496.7z"/>
	<path fill="#010101" d="M394.8,506.1c-2.3-1.2-4.3-2.9-5.4-4.7c0.7,2.5,2.2,5.7,4.4,6.8c0.2,0.1,0.4,0.2,0.6,0.2
		c0.4,0,0.8-0.2,1-0.6c0.1-0.3,0.1-0.6,0-0.8C395.3,506.5,395.1,506.2,394.8,506.1z"/>
	<path fill="#010101" d="M399.7,484.6c1.3-0.3,2-1.4,1.7-2.3c-0.3-0.9-1.6-1.6-2.7-1.3c-4.9,1.3-8.6,8-9.2,10.6
		C390.7,488.9,394.9,485.9,399.7,484.6z"/>
	<path fill="#010101" d="M403.9,487.3c2.3,1.2,4,3.1,4.3,4.7c0-1.5-1.2-5.3-3.5-6.5c-0.5-0.3-1.3-0.1-1.5,0.4
		C403.1,486.5,403.4,487.1,403.9,487.3z"/>
	<path fill="#010101" d="M400.9,507.5c0-1.3-2.2-3.9-2.2-3.9s-2.2,2.6-2.2,3.9s1,2.2,2.2,2.2S400.9,508.8,400.9,507.5z"/>
	<path fill="#010101" d="M398.7,503c0.5,0,1.2-0.1,1.7-0.2h0.1l0.2,0.2c0.4,0.6,1.2,1,2,1l0,0c0.4,0,0.9-0.1,1.3-0.4
		c0.5-0.3,0.8-0.8,0.9-1.5s0-1.3-0.3-1.8l-0.2-0.2c0.9-1.2,1.4-2.6,1.5-4.2l0.2-0.1c0.6-0.2,1-0.6,1.4-1.2c0.3-0.5,0.3-1.2,0.1-1.8
		c-0.3-0.9-1.3-1.6-2.2-1.6c-0.2,0-0.5,0-0.7,0.1l-0.2,0.1c-0.8-1-2-1.9-3.2-2.3v-0.2c0-0.6-0.2-1.3-0.6-1.7c-0.4-0.4-1-0.7-1.7-0.7
		h-0.1c-1.3,0-2.3,1-2.3,2.3v0.3c-1.4,0.4-2.4,1.3-3.2,2.3l-0.3-0.1c-0.3-0.1-0.5-0.1-0.8-0.1c-0.9,0-1.9,0.6-2.2,1.5
		c-0.2,0.6-0.2,1.3,0.1,1.8c0.2,0.5,0.7,1,1.3,1.3l0.3,0.1c0,0.6,0.1,1.2,0.2,1.8c0.2,0.7,0.5,1.5,0.9,2.1l-0.2,0.2
		c-0.8,1-0.6,2.5,0.4,3.2c0.4,0.3,0.9,0.5,1.5,0.5l0,0c0.7,0,1.4-0.3,1.8-0.8l0.2-0.3C397.1,502.9,397.8,503,398.7,503z
		 M394.6,499.3c-0.1-0.2-0.2-0.3-0.3-0.5c-0.1-0.2-0.2-0.3-0.3-0.5c-0.1-0.3-0.3-0.6-0.3-1c0-0.2-0.1-0.4-0.1-0.6s0-0.4,0-0.6
		s0-0.4,0-0.6c0.1-0.7,0.4-1.6,0.7-2.2c0.1-0.2,0.2-0.3,0.3-0.5c0.1-0.2,0.3-0.3,0.4-0.4c0.4-0.4,0.8-0.7,1.4-0.9
		c0.2-0.1,0.4-0.2,0.6-0.2c0.1,0,0.3-0.1,0.4-0.1h0.1c0.3-0.1,0.7-0.1,1.2-0.1s0.8,0,1.2,0.1c0.2,0,0.4,0.1,0.6,0.2
		c0.2,0.1,0.4,0.1,0.6,0.2c0.5,0.2,0.9,0.5,1.4,0.9c0.1,0.1,0.3,0.3,0.4,0.5c0.1,0.2,0.2,0.3,0.3,0.5c0.3,0.4,0.5,0.9,0.6,1.5
		c0.1,0.2,0.1,0.4,0.1,0.7c0,0.2,0,0.4,0,0.6c0,0.2,0,0.4,0,0.6c-0.1,0.6-0.3,1.3-0.6,1.9c-0.1,0.2-0.2,0.4-0.3,0.5
		c-0.1,0.2-0.2,0.3-0.4,0.5c-0.5,0.5-1.2,1-1.9,1.3c-0.2,0.1-0.4,0.1-0.6,0.2c0,0,0,0-0.1,0c-0.2,0-0.4,0.1-0.5,0.1
		c-0.2,0-0.4,0-0.7,0s-0.7,0-1-0.1c-0.2,0-0.4-0.1-0.6-0.2c-0.2-0.1-0.4-0.1-0.5-0.2C395.7,500.3,395.1,499.9,394.6,499.3z"/>
	<path fill="#010101" d="M396.9,498v0.7v0.2c0,0.3,0.1,0.6,0.2,0.8c0.1,0.2,0.2,0.3,0.4,0.5c0.1,0.1,0.3,0.2,0.5,0.3
		c0.2,0.1,0.4,0.1,0.6,0.1l0,0c0.2,0,0.3,0,0.4-0.1c0.2-0.1,0.4-0.1,0.5-0.2c0.2-0.1,0.3-0.2,0.4-0.4c0.2-0.3,0.3-0.6,0.3-1v-0.2
		V498v-0.5h0.8h0.7l0,0c0.2,0,0.4,0,0.6-0.1c0.3-0.1,0.5-0.3,0.7-0.5c0.2-0.2,0.3-0.4,0.3-0.7c0-0.1,0-0.2,0-0.3c0-0.1,0-0.2,0-0.3
		c-0.1-0.8-0.8-1.5-1.8-1.5h-0.4h-0.6h-0.4v-0.1v-0.6v-0.4v-0.3c0-0.5-0.2-0.9-0.5-1.3c-0.3-0.3-0.7-0.5-1.3-0.5l0,0
		c-0.4,0-0.7,0.1-1,0.3c-0.3,0.2-0.5,0.5-0.6,0.8c-0.1,0.2-0.1,0.4-0.1,0.5v0.3v0.9v0.2h-0.4h-0.6h-0.5c-0.8,0-1.6,0.6-1.7,1.4
		c0,0.1,0,0.2,0,0.4c0,0.1,0,0.1,0,0.2c0,0.3,0.1,0.5,0.3,0.7c0.2,0.3,0.4,0.5,0.7,0.6c0.2,0.1,0.4,0.1,0.6,0.2h0.1h0.8h0.6
		L396.9,498z"/>
	<path fill="#010101" d="M418.9,513.6c0-1.5-1.2-2.6-2.6-2.6c-0.8,0-1.5,0.3-2,0.9c-0.5-0.5-1.2-0.9-2-0.9c-0.8,0-1.5,0.3-2,0.9
		c-0.5-0.5-1.2-0.9-2-0.9c-0.8,0-1.5,0.3-2,0.9c-0.5-0.5-1.2-0.9-2-0.9c-0.8,0-1.5,0.3-2,0.9c-0.5-0.5-1.2-0.9-2-0.9
		c-1.5,0-2.6,1.2-2.6,2.6c0,0.8,0.4,1.6,0.9,2c-0.6,0.5-0.9,1.3-0.9,2c0,1.5,1.2,2.6,2.6,2.6c0.8,0,1.5-0.3,2-0.9
		c0.5,0.5,1.2,0.9,2,0.9c0.8,0,1.5-0.3,2-0.9c0.5,0.5,1.2,0.9,2,0.9c0.8,0,1.5-0.3,2-0.9c0.5,0.5,1.2,0.9,2,0.9c0.8,0,1.5-0.3,2-0.9
		c0.5,0.5,1.2,0.9,2,0.9c1.5,0,2.6-1.2,2.6-2.6c0-0.8-0.4-1.6-0.9-2C418.5,515.1,418.9,514.3,418.9,513.6z M400.3,518.9
		c-0.7,0-1.4-0.6-1.4-1.4c0-0.7,0.6-1.4,1.4-1.4s1.4,0.6,1.4,1.4C401.6,518.3,401,518.9,400.3,518.9z M400.3,514.9
		c-0.7,0-1.4-0.6-1.4-1.4s0.6-1.4,1.4-1.4s1.4,0.6,1.4,1.4C401.6,514.3,401,514.9,400.3,514.9z M402.2,515.9
		c-0.1-0.1-0.2-0.2-0.3-0.3c0.1-0.1,0.2-0.2,0.3-0.3c0.1,0.1,0.2,0.2,0.3,0.3C402.5,515.7,402.3,515.8,402.2,515.9z M404.2,518.9
		c-0.7,0-1.4-0.6-1.4-1.4c0-0.7,0.6-1.4,1.4-1.4c0.7,0,1.4,0.6,1.4,1.4C405.6,518.3,405,518.9,404.2,518.9z M404.2,514.9
		c-0.7,0-1.4-0.6-1.4-1.4s0.6-1.4,1.4-1.4c0.7,0,1.4,0.6,1.4,1.4C405.6,514.3,405,514.9,404.2,514.9z M406.2,515.9
		c-0.1-0.1-0.2-0.2-0.3-0.3c0.1-0.1,0.2-0.2,0.3-0.3c0.1,0.1,0.2,0.2,0.3,0.3C406.4,515.7,406.3,515.8,406.2,515.9z M408.2,518.9
		c-0.7,0-1.4-0.6-1.4-1.4c0-0.7,0.6-1.4,1.4-1.4c0.7,0,1.4,0.6,1.4,1.4C409.6,518.3,408.9,518.9,408.2,518.9z M408.2,514.9
		c-0.7,0-1.4-0.6-1.4-1.4s0.6-1.4,1.4-1.4c0.7,0,1.4,0.6,1.4,1.4C409.6,514.3,408.9,514.9,408.2,514.9z M410.2,515.9
		c-0.1-0.1-0.2-0.2-0.3-0.3c0.1-0.1,0.2-0.2,0.3-0.3c0.1,0.1,0.2,0.2,0.3,0.3C410.4,515.7,410.3,515.8,410.2,515.9z M412.3,518.9
		c-0.7,0-1.4-0.6-1.4-1.4c0-0.7,0.6-1.4,1.4-1.4c0.7,0,1.4,0.6,1.4,1.4C413.7,518.3,413,518.9,412.3,518.9z M412.3,514.9
		c-0.7,0-1.4-0.6-1.4-1.4s0.6-1.4,1.4-1.4c0.7,0,1.4,0.6,1.4,1.4C413.6,514.3,413,514.9,412.3,514.9z M414.3,515.9
		c-0.1-0.1-0.2-0.2-0.3-0.3c0.1-0.1,0.2-0.2,0.3-0.3c0.1,0.1,0.2,0.2,0.3,0.3C414.4,515.7,414.3,515.8,414.3,515.9z M416.3,518.9
		c-0.7,0-1.4-0.6-1.4-1.4c0-0.7,0.6-1.4,1.4-1.4c0.7,0,1.4,0.6,1.4,1.4C417.6,518.3,417,518.9,416.3,518.9z M416.3,514.9
		c-0.7,0-1.4-0.6-1.4-1.4s0.6-1.4,1.4-1.4c0.7,0,1.4,0.6,1.4,1.4C417.5,514.3,417,514.9,416.3,514.9z"/>
	<path fill="#010101" d="M404.9,507.7v0.2l0,0c0,1.2,0.9,2,2,2c0.5,0,1-0.2,1.4-0.5c0.3,0.3,0.8,0.5,1.4,0.5c1.2,0,2-0.9,2-2l0,0
		v-0.2c0-1.9-1.5-3.4-3.4-3.4S404.9,506,404.9,507.7z"/>
</g>
</svg>
