<?xml version="1.0" encoding="utf-8"?>
<!-- Generator: Adobe Illustrator 16.0.0, SVG Export Plug-In . SVG Version: 6.00 Build 0)  -->
<!DOCTYPE svg PUBLIC "-//W3C//DTD SVG 1.1//EN" "http://www.w3.org/Graphics/SVG/1.1/DTD/svg11.dtd">
<svg version="1.1" xmlns="http://www.w3.org/2000/svg" xmlns:xlink="http://www.w3.org/1999/xlink" x="0px" y="0px" width="1024px"
	 height="768px" viewBox="0 0 1024 768" enable-background="new 0 0 1024 768" xml:space="preserve">
<g id="Layer_4">
	<path fill="#B7B7B7" d="M706.382,454.276c-29.197-4.095-63.083-4.64-70.822-7.89c-14.388-6.077-16.693,4.341-32.099,8.633
		c-15.405,4.291-25.973-3.943-38.797,0.024c-12.825,3.969-150.426,32.298-171.089,32.868c-20.664,0.57-33.587,0.918-33.587,0.918
		s45.445,6.523,32.62,10.741c-12.825,4.217-63.132,8.186-42.121,20.539c21.036,12.354,65.637,35.721,163.597,23.987l-68.267-33.117
		c0,0,58.616,11.411,219.36-21.432c40.583-7.393,88.311-14.537,88.311-14.537S730.791,457.699,706.382,454.276z"/>
	<path fill="#B7B7B7" d="M356.118,392.831c29.197-4.093,63.083-4.639,70.822-7.889c14.388-6.077,16.693,4.341,32.1,8.633
		c15.404,4.291,25.972-3.944,38.797,0.023c12.824,3.971,150.425,32.298,171.088,32.868c20.664,0.571,33.588,0.918,33.588,0.918
		s-45.444,6.524-32.62,10.741s63.133,8.187,42.121,20.54c-21.036,12.354-65.638,35.721-163.597,23.987l68.266-33.116
		c0,0-58.615,11.411-219.359-21.434c-40.583-7.393-88.311-14.535-88.311-14.535S331.708,396.254,356.118,392.831z"/>
	<g>
		<path fill="#B7B7B7" d="M417.141,490.642c0.149-1.065,0.051-2.183-0.321-3.349c0,0-1.836,2.58-1.464-1.712l-0.05-3.795
			l-1.538,4.043l-0.743-1.959v3.051l-0.992-6.871l-1.019,1.836v-5.88l-1.189,1.836l-0.67-4.911l-0.818,1.463l-2.332-6.747
			l-0.941,22.972h12.079L417.141,490.642L417.141,490.642z"/>
		<path fill="#B7B7B7" d="M399.355,490.642h5.53c-0.422-1.661-1.414-5.729-1.414-5.433c0,0.372-1.339,4.044-1.339,4.044
			s-0.745-10.171-5.88-10.171C396.229,479.082,400.074,481.042,399.355,490.642z"/>
	</g>
	<path fill="#B7B7B7" d="M311.913,391.467c0,0-4.019-15.802-1.984-19.076c2.059-3.25,7.566-2.257,9.724-2.332
		c2.158-0.073,10.592-2.679,13.197-3.695c2.604-1.018,6.747-2.331,10.096-0.1c3.374,2.232,15.057,6.972,18.604,9.055
		c3.547,2.084,8.583,4.241,8.41,8.335c-0.174,4.094-4.093,16.024-9.129,19.199c-5.011,3.2-13.296,5.829-20.54,4.292
		c-7.268-1.537-20.316-7.119-22.227-7.664C316.13,398.934,311.913,391.467,311.913,391.467z"/>
	<path fill="#BCBCBC" d="M314.741,359.591c0,0,2.431-2.456,5.457-3.721c3.026-1.267,7.79-5.434,8.385-6.228s3.895-0.272,5.036,0.62
		c1.141,0.894,3.448,3.547,3.646,5.953c0.198,2.382,1.463,3.424,1.116,6.251c-0.347,2.828-5.73,11.039-11.659,10.567
		c-5.929-0.472-8.782-1.812-10.642-5.928C314.195,363.014,313.625,360.583,314.741,359.591z"/>
	<path fill="#7D7D7D" d="M340.192,363.758c0,0,1.24-1.983,3.374-4.093c2.134-2.109,4.416-3.448,5.284-3.349
		c0.868,0.099,6.946,4.465,7.938,6.599c0.992,2.108,2.257,7.02-1.042,8.483c-3.299,1.463-7.144,2.258-10.27,1.115
		c-3.101-1.141-6.971-5.902-5.557-8.234L340.192,363.758z"/>
</g>
<g id="Layer_3">
	<path fill="#B7B7B7" d="M232.112,209.538l273.885,180.118c0,0-100.862,3.721-107.733,4.465c-6.872,0.744-10.369-4.614-10.369-4.614
		l-17.935-5.805l-16.347-24.187l-25.029-9.873l-19.225-7.641l2.605-6.697l-10.691-3.722l-3.225-2.977l-4.292-6.697l-8.161-5.953
		l-8.062-39.442l-27.535-29.023l-0.744-8.186l-7.442-7.442v-7.442l-20.837-14.884L232.112,209.538L232.112,209.538z"/>
</g>
<g id="Layer_2">
	<path fill="#B7B7B7" d="M430.884,326.351c0,0-22.375-87.765-10.964-105.873c11.386-18.108,41.947-12.552,53.953-12.924
		c11.98-0.372,58.791-14.884,73.253-20.465s37.407-12.899,56.111-0.496c18.704,12.378,83.571,38.673,103.243,50.257
		s47.604,23.591,46.686,46.289c-0.918,22.697-22.797,88.93-50.68,106.667s-73.773,32.349-114.083,23.766
		c-40.285-8.583-112.794-39.492-123.437-42.617C454.325,367.802,430.884,326.351,430.884,326.351z"/>
</g>
<g id="Layer_1">
	<path fill="#C6C6C5" d="M398.586,129.091c0,0-16.744-65.662-8.211-79.231c8.533-13.544,31.405-9.376,40.359-9.674
		c8.979-0.273,43.981-11.138,54.798-15.33c10.814-4.167,27.98-9.65,41.996-0.372c13.991,9.277,62.537,28.949,77.271,37.606
		c14.71,8.682,35.622,17.662,34.928,34.629c-0.694,16.968-17.042,66.555-37.929,79.827c-20.862,13.271-55.194,24.211-85.358,17.786
		s-84.391-29.544-92.354-31.901C416.124,160.099,398.586,129.091,398.586,129.091z"/>
</g>
</svg>
