<?xml version="1.0" encoding="utf-8"?>
<!-- Generator: Adobe Illustrator 16.0.0, SVG Export Plug-In . SVG Version: 6.00 Build 0)  -->
<!DOCTYPE svg PUBLIC "-//W3C//DTD SVG 1.1//EN" "http://www.w3.org/Graphics/SVG/1.1/DTD/svg11.dtd">
<svg version="1.1" xmlns="http://www.w3.org/2000/svg" xmlns:xlink="http://www.w3.org/1999/xlink" x="0px" y="0px" width="1024px"
	 height="768px" viewBox="0 0 1024 768" enable-background="new 0 0 1024 768" xml:space="preserve">
<g id="Layer_4">
	<path fill="#D7D7D7" d="M583.739,269.023c-27.634-61.52-56.335-188.205-87.591-226.555
		c-38.647-47.405-93.396,204.726-93.396,204.726L361.972,348.13l31.132,10.691c0,0,89.699,13.47,190.661,28.402V269.023H583.739z"/>
</g>
<g id="Layer_3">
	<path fill="#F1F1F1" d="M629.73,373.433c-3.746-18.63-7.566-34.529-11.512-45.47c-0.843-2.729-1.711-5.333-2.604-7.839
		c-8.905-25.005-19.82-38.549-32.546-20.515c-35.671,50.53-71.863,54.945-91.561,28.75c-19.694-26.22-40.037-199.813-62.685-244.961
		c-22.648-45.147-54.698,194.977-54.698,194.977l-23.64,95.058H629.73L629.73,373.433z"/>
</g>
<g id="Layer_2">
	<path opacity="0.3" fill="#383938" enable-background="new    " d="M413.35,350.735c31.603-4.44,68.241-5.013,76.626-8.534
		c15.578-6.573,18.06,4.688,34.729,9.353c16.67,4.663,28.105-4.267,41.973,0.024c13.865,4.292,162.729,34.952,185.104,35.548
		c22.375,0.62,36.342,0.992,36.342,0.992s-49.166,7.045-35.299,11.634s68.316,8.855,45.568,22.227
		c-22.746,13.37-70.994,38.623-176.992,25.947l73.848-35.845c0,0-63.43,12.328-237.319-23.194
		C414.022,380.9,362.4,373.16,362.4,373.16S386.956,354.456,413.35,350.735z"/>
	<path opacity="0.3" fill="#383938" enable-background="new    " d="M608.918,441.228c-29.197-4.093-63.082-4.639-70.822-7.888
		c-14.387-6.078-16.693,4.341-32.099,8.632c-15.405,4.292-25.973-3.942-38.797,0.025c-12.825,3.969-150.425,32.298-171.088,32.868
		c-20.663,0.569-33.588,0.918-33.588,0.918s45.445,6.522,32.62,10.741c-12.825,4.217-63.132,8.186-42.121,20.538
		c21.036,12.354,65.637,35.722,163.597,23.987l-68.267-33.116c0,0,58.617,11.411,219.361-21.433
		c40.583-7.392,88.311-14.536,88.311-14.536S633.352,444.651,608.918,441.228z"/>
</g>
<g id="Layer_1">
	<g>
		<path fill="#D1D3D4" d="M417.488,96.446c0,0,28.081-3.299,28.898,0c0.818,3.299,0.546,7.69,0,8.236
			c-0.546,0.546-1.438,3.845,0.521,3.845c1.96,0,11.039,2.753,11.856,0c0.818-2.754-3.571-5.185,3.026-6.152
			c6.599-0.967,18.184,1.513,19.82,0c1.662-1.513,1.363-3.175,4.143-3.175c2.754,0-4.688-4.019,4.416-4.217
			c9.079-0.173,25.327,6.4,23.962,11.336c-1.389,4.937-0.271,8.781-5.779,9.873c-5.507,1.091-3.299,4.937-2.208,5.482
			c1.093,0.546,1.662,0.546,1.391,3.845c-0.273,3.299-2.48,3.299,3.572,3.299c6.052,0,43.781,2.208,37.184,10.419
			c-6.598,8.235-19.819,9.873-24.235,9.873c-4.415,0-1.935-0.546-7.715,4.391c-5.779,4.937-9.922,0-11.832,4.937
			c-1.936,4.936,0.272,4.936-6.053,7.689c-6.326,2.754-14.313,2.754-18.456,0c-4.143-2.753-7.441-10.989-12.105-7.689
			c-4.688,3.299,3.572,5.482-10.194,7.144c-13.769,1.637-47.9-4.937-57.552-6.574c-9.648-1.637-8.806-9.873-11.014-15.926
			c-2.208-6.028-1.662-4.937-7.715-6.028c-6.053-1.091-9.649-2.208-9.922-9.327c-0.273-7.144,5.78-13.718,12.676-12.081
			s12.105-1.091,12.948-7.69c0.819-6.598,3.324-9.327,7.467-9.327c4.118,0,4.938,3.845,7.963,3.299
			C415.554,101.383,414.734,96.744,417.488,96.446z"/>
		<path fill="#FFFFFF" d="M418.01,105.922c0,0,20.516-2.406,21.109,0c0.596,2.406,0.396,5.606,0,6.003
			c-0.396,0.396-1.042,2.803,0.372,2.803c1.438,0,20.168,2.009,20.788,0c0.595-2.009-2.604-3.795,2.207-4.49
			c4.838-0.719,13.271,1.116,14.486,0c1.217-1.116,1.018-2.307,3.026-2.307s-3.423-2.927,3.225-3.076
			c6.623-0.124,18.507,4.664,17.488,8.285c-1.017,3.597-0.198,6.425-4.217,7.219c-4.02,0.793-2.406,3.597-1.612,4.019
			c0.794,0.397,1.216,0.397,1.018,2.803c-0.198,2.406-1.537,6.598,2.878,6.598s18.231-0.347,13.396,5.681
			c-4.838,6.003-5.631,4.564-9.849,8.161c-4.217,3.597-7.243,0-8.657,3.597c-1.414,3.597,0.199,3.597-4.415,5.606
			c-4.614,2.009-10.443,2.009-13.47,0c-3.027-2.009-5.434-8.012-8.856-5.606c-3.423,2.406,2.604,4.019-7.44,5.209
			c-10.047,1.191-47.107-3.597-54.127-4.812c-7.045-1.19-6.426-7.218-8.037-11.634c-1.613-4.416-1.216-3.597-5.631-4.416
			c-4.416-0.794-7.045-1.612-7.244-6.822c-0.198-5.209,4.217-10.021,9.253-8.806c5.036,1.191,8.854-0.794,9.451-5.606
			c0.596-4.812,2.431-6.822,5.457-6.822c3.025,0,3.598,2.803,5.805,2.406C416.596,109.544,416,106.146,418.01,105.922z"/>
	</g>
	<g>
		<path fill="#D1D3D4" d="M487.441,45.123c0,0,28.081-3.299,28.925,0c0.817,3.299,0.546,7.69,0,8.236
			c-0.546,0.545-1.439,3.845,0.521,3.845s11.039,2.753,11.857,0s-3.572-5.185,3.025-6.152c6.599-0.967,18.184,1.513,19.82,0
			c1.662-1.513,1.364-3.175,4.144-3.175c2.753,0-4.688-4.019,4.415-4.217c9.078-0.174,25.326,6.4,23.963,11.336
			c-1.39,4.937-0.272,8.782-5.779,9.873c-5.507,1.091-3.3,4.937-2.208,5.482s1.662,0.545,1.39,3.845
			c-0.272,3.299-2.48,3.299,3.571,3.299s43.783,2.183,37.185,10.418c-6.599,8.236-19.819,9.873-24.234,9.873
			c-4.416,0-1.936-0.546-7.715,4.391c-5.78,4.938-9.923,0-11.833,4.938c-1.936,4.937,0.272,4.937-6.054,7.69
			c-6.324,2.753-14.312,2.753-18.455,0c-4.143-2.753-7.441-10.989-12.104-7.69c-4.688,3.299,3.572,5.482-10.195,7.144
			c-13.768,1.637-47.9-4.937-57.551-6.574c-9.649-1.637-8.806-9.873-11.014-15.925c-2.208-6.028-1.662-4.937-7.715-6.028
			c-6.054-1.092-9.649-2.208-9.924-9.327c-0.271-7.145,5.78-13.718,12.678-12.081c6.896,1.637,12.104-1.091,12.947-7.689
			c0.818-6.599,3.324-9.327,7.468-9.327c4.117,0,4.937,3.845,7.963,3.299C485.507,50.059,484.688,45.42,487.441,45.123z"/>
		<path fill="#FFFFFF" d="M487.963,54.599c0,0,20.516-2.406,21.11,0c0.595,2.406,0.396,5.606,0,6.003
			c-0.397,0.397-1.042,2.803,0.372,2.803c1.438,0,20.167,2.009,20.787,0c0.596-2.009-2.604-3.795,2.208-4.49
			c4.837-0.719,13.271,1.117,14.485,0c1.216-1.116,1.019-2.307,3.026-2.307c2.01,0-3.423-2.927,3.226-3.076
			c6.623-0.124,18.505,4.664,17.488,8.285c-1.018,3.597-0.199,6.425-4.218,7.219c-4.02,0.794-2.406,3.597-1.612,4.019
			c0.794,0.397,1.216,0.397,1.018,2.803c-0.197,2.406-1.537,6.599,2.878,6.599c4.416,0,18.232-0.348,13.396,5.68
			c-4.837,6.003-5.631,4.564-9.848,8.162c-4.217,3.597-7.244,0-8.657,3.597c-1.414,3.597,0.198,3.597-4.416,5.606
			s-10.443,2.009-13.47,0c-3.026-2.01-5.434-8.013-8.855-5.606c-3.424,2.406,2.604,4.019-7.441,5.209
			c-10.047,1.19-47.106-3.597-54.127-4.812c-7.046-1.191-6.426-7.219-8.037-11.634c-1.612-4.415-1.217-3.597-5.631-4.416
			c-4.416-0.793-7.046-1.612-7.243-6.822c-0.199-5.209,4.217-10.021,9.252-8.806c5.036,1.191,8.855-0.793,9.45-5.606
			c0.597-4.812,2.433-6.822,5.459-6.822c3.025,0,3.597,2.803,5.805,2.406C486.573,58.195,485.979,54.822,487.963,54.599z"/>
	</g>
</g>
</svg>
