<?xml version="1.0" encoding="utf-8"?>
<!-- Generator: Adobe Illustrator 16.0.0, SVG Export Plug-In . SVG Version: 6.00 Build 0)  -->
<!DOCTYPE svg PUBLIC "-//W3C//DTD SVG 1.1//EN" "http://www.w3.org/Graphics/SVG/1.1/DTD/svg11.dtd">
<svg version="1.1" xmlns="http://www.w3.org/2000/svg" xmlns:xlink="http://www.w3.org/1999/xlink" x="0px" y="0px" width="1024px"
	 height="768px" viewBox="0 0 1024 768" enable-background="new 0 0 1024 768" xml:space="preserve">
<g id="Layer_5">
	<g>
		<path fill="#666666" d="M659.895,721.464c0,0-0.023-0.024-0.073-0.05s-0.149-0.074-0.248-0.149
			c-0.225-0.124-0.57-0.297-0.992-0.471c-0.844-0.348-2.01-0.72-3.25-0.794c-0.298-0.024-0.62-0.024-0.918-0.024
			s-0.595,0.05-0.894,0.074c-0.148,0.024-0.272,0.05-0.422,0.074c-0.148,0.024-0.272,0.074-0.396,0.1
			c-0.248,0.074-0.496,0.148-0.72,0.248c-0.225,0.074-0.422,0.173-0.597,0.272c-0.173,0.1-0.321,0.174-0.445,0.248
			c-0.248,0.147-0.372,0.248-0.372,0.248s0.124-0.101,0.321-0.299c0.101-0.099,0.248-0.197,0.397-0.321
			c0.174-0.124,0.347-0.248,0.545-0.372c0.199-0.124,0.447-0.272,0.695-0.396c0.124-0.05,0.271-0.124,0.396-0.174
			c0.149-0.05,0.298-0.1,0.422-0.174c0.298-0.1,0.62-0.198,0.942-0.273c0.323-0.073,0.67-0.123,0.992-0.173
			c0.67-0.075,1.363-0.1,2.01-0.05c0.645,0.05,1.24,0.124,1.736,0.223c0.496,0.101,0.918,0.225,1.216,0.299
			c0.147,0.05,0.271,0.074,0.347,0.124c0.101,0.024,0.124,0.05,0.124,0.05L659.895,721.464z"/>
	</g>
	<g>
		<path fill="#B7B7B7" d="M368.67,624.224c-0.174-1.066-0.124-2.184,0.223-3.374c0,0,1.91,2.506,1.414-1.762l-0.075-3.795
			l1.662,3.994l0.67-1.984l0.099,3.051l0.769-6.896l1.066,1.812l-0.173-5.88l1.24,1.812l0.521-4.912l0.843,1.439l2.133-6.798
			l1.637,22.922L368.67,624.224z"/>
		<path fill="#B7B7B7" d="M673.166,712.211c-0.174-1.066-0.124-2.183,0.223-3.374c0,0,1.91,2.506,1.414-1.761l-0.073-3.796
			l1.661,3.994l0.67-1.984l0.1,3.051l0.77-6.896l1.066,1.811l-0.174-5.879l1.24,1.811l0.521-4.91l0.843,1.438l2.134-6.797
			l1.639,22.921L673.166,712.211z"/>
		<path fill="#B7B7B7" d="M386.431,623.702l-5.532,0.174c0.372-1.662,1.265-5.78,1.265-5.481c0,0.371,1.463,3.993,1.463,3.993
			s0.422-10.194,5.582-10.345C389.209,612.043,385.439,614.127,386.431,623.702z"/>
		<path fill="#B7B7B7" d="M685.146,709.73l-5.531,0.174c0.372-1.662,1.266-5.78,1.266-5.482c0,0.372,1.463,3.994,1.463,3.994
			s0.422-10.196,5.582-10.345C687.926,698.071,684.155,700.155,685.146,709.73z"/>
	</g>
	<path fill="#666666" d="M782.264,586.567c0.744,0.1,1.514,0.197,2.258,0.298c-0.05-0.273-0.125-0.521-0.174-0.794
		c-0.348-0.05-0.67-0.074-1.018-0.124c0.273-0.198,0.57-0.372,0.844-0.57c-0.05-0.248-0.124-0.521-0.174-0.77
		c-0.645,0.422-1.29,0.844-1.91,1.289C781.817,586.096,781.941,586.518,782.264,586.567z"/>
	<path fill="#414042" d="M435.398,704.148c-24.386,2.556-49.514,4.315-73.798,0.1c-5.929-1.042-11.808-2.506-17.464-4.589
		c-2.679-0.992-5.457-2.084-7.888-3.597c-2.48-1.563-4.713-3.498-6.847-5.532c-4.391-4.192-8.285-8.881-12.974-12.775
		c-4.986-4.143-10.989-6.995-17.091-9.104c-7.715-2.654-15.802-4.168-23.392-7.194c6.673-1.463,13.346-2.854,19.919-4.737
		c6.747-1.936,13.495-4.416,19.25-8.483c0.124-0.1,0.173-0.298,0.124-0.446c-3.423-8.062-11.957-12.354-19.696-15.306
		c-9.501-3.646-19.498-5.729-29.172-8.807c-3.225-1.018-6.45-2.158-9.476-3.672c31.851-0.248,63.107-7.219,94.636-10.79
		c3.671-0.422,7.367-0.794,11.039-1.092c0.471-0.05,0.397-0.769-0.099-0.744c-32.174,2.704-63.802,10.096-96.099,11.634
		c-3.671,0.174-7.368,0.273-11.039,0.273c-0.397,0-0.397,0.545-0.099,0.719c8.211,4.44,17.711,6.375,26.642,8.881
		c9.228,2.604,19.274,5.358,26.815,11.561c2.431,2.01,4.465,4.466,5.755,7.367c-5.557,3.869-12.006,6.201-18.456,8.111
		c-6.995,2.06-14.189,3.474-21.308,5.062c-0.348,0.073-0.472,0.545-0.1,0.719c6.227,2.63,12.85,4.143,19.324,6.028
		c6.574,1.909,13.073,4.341,18.803,8.16c9.897,6.623,15.975,17.836,27.063,22.798c10.915,4.861,22.971,6.921,34.778,7.963
		c12.626,1.116,25.327,0.918,37.979,0.174c7.665-0.447,15.305-1.143,22.944-1.937C435.969,704.844,435.895,704.1,435.398,704.148z"
		/>
	<path fill="#414142" d="M827.485,525.544c-0.473,0-0.372,0.744,0.099,0.744C828.056,526.288,827.981,525.544,827.485,525.544z"/>
	<path fill="#666666" d="M449.141,702.14c-0.471,0-0.372,0.744,0.101,0.744C449.713,702.884,449.612,702.14,449.141,702.14z"/>
	<path fill="#414042" d="M704.322,730.766c0,0,2.704-3.671,6.227-5.979c3.522-2.307,9.923-7.541,9.923-7.541
		s4.938,0.447,5.755,1.365c0.795,0.941,3.572,4.936,3.646,6.944c0.099,2.011,2.107,10.741,0.174,13.595
		c-1.936,2.853-3.846,3.521-6.797,3.175c-2.952-0.348-7.988-0.72-10.567-2.877c-2.58-2.134-8.979-6.251-8.385-8.36"/>
	<path fill="#414042" d="M684.329,726.549c0,0,2.431-2.456,5.457-3.721c3.025-1.266,7.789-5.434,8.385-6.228
		c0.595-0.794,3.896-0.272,5.035,0.62c1.142,0.894,3.448,3.547,3.646,5.953c0.198,2.382,1.465,3.424,1.116,6.251
		c-0.347,2.828-5.729,11.039-11.658,10.568c-5.929-0.472-8.781-1.812-10.643-5.929C683.808,729.947,683.213,727.541,684.329,726.549
		z"/>
	<path fill="#414042" d="M672.794,727.839c0,0,1.24-1.983,3.374-4.093c2.133-2.109,4.415-3.448,5.283-3.35
		c0.868,0.1,6.945,4.466,7.938,6.599c0.993,2.107,2.259,7.021-1.041,8.483c-3.3,1.464-7.145,2.258-10.271,1.116
		c-3.102-1.142-6.97-5.903-5.556-8.235L672.794,727.839z"/>
	<path fill="#414042" d="M652.254,733.892c0,0-5.507-7.193-5.085-8.509c0.422-1.314,4.564-2.58,6.475-2.952
		c1.91-0.396,5.457-1.711,7.491-2.083s6.549,0.67,9.451,2.406s5.557,4.688,6.921,5.729s1.786,1.712,1.515,2.928
		c-0.273,1.215-6.6,7.069-9.056,8.757C667.51,741.854,660.291,742.871,652.254,733.892z"/>
	<path fill="#414042" d="M682.567,718.14c0,0-1.066-4.217-0.694-5.903c0.372-1.711,1.811-5.357,3.299-5.186
		c1.488,0.174,7.07,0.025,9.427,4.64c2.356,4.613,6.128,9.823,3.896,11.063s-6.549,3.125-8.483,2.555
		c-1.936-0.569-4.888-1.588-5.605-2.604C683.733,721.688,682.567,718.14,682.567,718.14z"/>
	<path fill="none" stroke="#414042" stroke-width="15.6902" stroke-miterlimit="10" d="M647.145,745.203"/>
	<path fill="none" stroke="#414042" stroke-width="15.6902" stroke-miterlimit="10" d="M626.133,735.256"/>
	<path fill="#414042" d="M668.081,733.197c-0.075-0.101-0.149-0.199-0.224-0.298l-0.225-0.248c-0.147-0.175-0.271-0.322-0.421-0.496
		c-0.546-0.67-1.042-1.364-1.438-2.108c-0.1-0.199-0.175-0.372-0.248-0.57c-0.074-0.198-0.124-0.372-0.148-0.57
		c-0.025-0.198-0.025-0.372,0.024-0.521c0.05-0.148,0.148-0.298,0.298-0.396c0.147-0.1,0.321-0.174,0.521-0.223
		c0.198-0.051,0.396-0.075,0.619-0.075c0.422-0.024,0.869,0.024,1.29,0.075c0.868,0.099,1.737,0.297,2.58,0.521
		c-0.818-0.298-1.662-0.57-2.53-0.769c-0.446-0.101-0.868-0.175-1.34-0.175c-0.223,0-0.471,0-0.694,0.024
		c-0.223,0.025-0.471,0.1-0.693,0.224c-0.124,0.074-0.225,0.148-0.322,0.248c-0.1,0.1-0.174,0.224-0.224,0.348
		c-0.1,0.247-0.124,0.521-0.124,0.77c0.024,0.496,0.197,0.942,0.372,1.364c0.372,0.844,0.867,1.611,1.363,2.332
		c0.124,0.173,0.273,0.372,0.397,0.546l0.198,0.271c0.05,0.074,0.124,0.148,0.174,0.248c0.05,0.074,0.099,0.148,0.099,0.225
		c0.025,0.023,0.025,0.073,0.025,0.099c-0.025,0-0.05,0.025-0.074,0.025c-0.124,0.049-0.323,0.049-0.497,0.049
		c-0.198,0-0.396,0-0.595-0.024c-0.422-0.023-0.844-0.1-1.267-0.174c-0.843-0.147-1.711-0.322-2.555-0.521
		c-0.868-0.198-1.712-0.397-2.604-0.571c-0.446-0.074-0.895-0.173-1.364-0.223c-0.05,0-0.124-0.025-0.174-0.025h-0.101h-0.099
		c-0.074,0-0.124,0-0.174,0h-0.198c-0.248,0-0.472,0.025-0.72,0.05c-0.918,0.1-1.762,0.225-2.53,0.198
		c-0.396,0-0.744-0.049-1.091-0.148c-0.323-0.1-0.62-0.248-0.868-0.472c-0.249-0.198-0.472-0.471-0.646-0.793
		c-0.175-0.298-0.322-0.67-0.446-1.018l-0.074-0.272c-0.025-0.1-0.05-0.224-0.075-0.323l-0.074-0.322
		c-0.023-0.123-0.073-0.247-0.123-0.371c-0.175-0.496-0.446-0.992-0.77-1.414s-0.72-0.794-1.166-1.092
		c-0.422-0.298-0.894-0.521-1.364-0.72c-0.941-0.348-1.936-0.521-2.952-0.496c-0.495,0.024-1.018,0.074-1.537,0.225
		c-0.248,0.073-0.521,0.147-0.77,0.271c-0.273,0.124-0.521,0.273-0.794,0.496c-0.248,0.224-0.496,0.546-0.646,0.942
		c-0.148,0.396-0.148,0.844-0.05,1.216c0.1,0.372,0.248,0.67,0.421,0.918c0.051,0.05,0.075,0.124,0.149,0.174l0.074,0.099
		c0.023,0.025,0.05,0.074,0.073,0.074l0.101,0.124l0.124,0.149c0.298,0.322,0.57,0.62,0.843,0.941
		c0.273,0.322,0.521,0.646,0.72,0.942c0.101,0.149,0.198,0.323,0.272,0.447c0.075,0.147,0.125,0.271,0.125,0.372
		c0.023,0.099,0,0.124,0,0.147c0,0.025-0.025,0.074-0.101,0.124c-0.147,0.149-0.472,0.322-0.817,0.446l-0.273,0.1
		c-0.099,0.024-0.197,0.074-0.271,0.101c-0.101,0.023-0.174,0.049-0.298,0.074l-0.248,0.073h-0.024h-0.024
		c-0.372,0.101-0.744,0.148-1.142,0.198c-0.396,0.025-0.794,0.05-1.216,0.05c-0.818-0.023-1.638-0.1-2.456-0.248
		c-0.818-0.147-1.612-0.372-2.356-0.67c-0.743-0.298-1.464-0.67-2.059-1.141c-0.298-0.225-0.546-0.496-0.72-0.771l-0.124-0.197
		c-0.024-0.024-0.024-0.051-0.05-0.074l-0.024-0.05c0-0.025-0.025-0.025-0.025-0.051l-0.099-0.271l-0.1-0.323l-0.1-0.322
		l-0.124-0.321c-0.074-0.225-0.174-0.446-0.248-0.646c-0.074-0.223-0.198-0.421-0.298-0.645c-0.05-0.101-0.1-0.224-0.174-0.322
		c-0.05-0.1-0.1-0.224-0.174-0.322c-0.248-0.422-0.546-0.844-0.918-1.24c-0.372-0.372-0.868-0.72-1.414-0.918
		c-0.545-0.198-1.115-0.224-1.612-0.198c-0.521,0.024-0.992,0.124-1.438,0.198c-0.894,0.198-1.712,0.423-2.556,0.57
		c-0.1,0.024-0.198,0.024-0.298,0.05c-0.1,0.024-0.197,0.024-0.298,0.05c-0.1,0.024-0.198,0.024-0.298,0.05l-0.322,0.024
		l-0.174,0.024c-0.05,0-0.124,0-0.173,0.024c-0.125,0.024-0.248,0.024-0.373,0.05c-0.248,0.05-0.496,0.1-0.769,0.224
		c-0.124,0.05-0.272,0.124-0.396,0.198c-0.148,0.1-0.273,0.197-0.396,0.348c-0.124,0.148-0.248,0.322-0.299,0.521
		c-0.073,0.197-0.099,0.396-0.073,0.569c0.024,0.349,0.124,0.646,0.248,0.895s0.248,0.472,0.396,0.67
		c0.297,0.396,0.62,0.744,0.942,1.065c0.174,0.175,0.347,0.322,0.521,0.473c0.149,0.124,0.273,0.248,0.422,0.372
		c0.198,0.197,0.248,0.471,0.198,0.645c-0.023,0-0.023,0.025-0.049,0.025c-0.447,0.372-1.092,0.271-1.092,0.271
		s-0.446,0.198-0.694-0.05c0,0-1.34-0.769-2.778-0.074s-2.58,1.34-1.314,2.208s2.704,0.396,2.854,0.372
		c0.148,0,1.463-0.224,1.86-0.272c0.546-0.074,1.066-0.421,1.389-0.694c0.225-0.174,0.422-0.372,0.57-0.62
		c0.248-0.372,0.447-0.918,0.447-1.34c-0.025-0.372-0.199-0.868-0.546-1.215c-0.101-0.101-0.397-0.349-0.547-0.496
		c-0.147-0.149-0.298-0.298-0.445-0.447c-0.273-0.297-0.546-0.62-0.771-0.941c-0.099-0.148-0.197-0.322-0.248-0.472
		c-0.073-0.148-0.099-0.298-0.099-0.372c0-0.05,0-0.075,0.024-0.075c0-0.023,0.024-0.023,0.05-0.049
		c0.023-0.024,0.05-0.05,0.099-0.074c0.05-0.024,0.125-0.051,0.199-0.074c0.147-0.05,0.322-0.1,0.496-0.124
		c0.099,0,0.198-0.024,0.297-0.024c0.05,0,0.1,0,0.148,0h0.175l0.321-0.024c0.101,0,0.225-0.024,0.349-0.024s0.248-0.025,0.347-0.05
		c0.124-0.024,0.224-0.024,0.348-0.05c0.919-0.124,1.786-0.348,2.63-0.496c0.422-0.074,0.818-0.124,1.19-0.148
		c0.372,0,0.694,0.05,0.967,0.148c0.273,0.124,0.521,0.298,0.771,0.546c0.223,0.248,0.445,0.546,0.62,0.894
		c0.05,0.074,0.099,0.173,0.124,0.272c0.05,0.099,0.1,0.174,0.124,0.271c0.073,0.199,0.174,0.372,0.224,0.571
		c0.074,0.198,0.148,0.396,0.223,0.595l0.101,0.298l0.099,0.299l0.101,0.298l0.023,0.073l0.025,0.051l0.023,0.073l0.05,0.148
		c0,0.024,0.024,0.075,0.051,0.1l0.05,0.101l0.099,0.223c0.074,0.124,0.149,0.248,0.225,0.372c0.297,0.472,0.67,0.844,1.065,1.166
		c0.794,0.645,1.638,1.116,2.53,1.464c0.868,0.347,1.786,0.62,2.704,0.793c0.918,0.174,1.835,0.298,2.778,0.323
		c0.471,0,0.941,0,1.413-0.05c0.472-0.051,0.968-0.101,1.464-0.225h0.05l0.05-0.023l0.074-0.025l0.147-0.049
		c0.101-0.025,0.225-0.075,0.349-0.1c0.124-0.025,0.224-0.074,0.348-0.101c0.124-0.049,0.223-0.074,0.347-0.123
		c0.225-0.1,0.473-0.198,0.721-0.323c0.247-0.123,0.495-0.298,0.743-0.521c0.248-0.224,0.496-0.546,0.62-0.942
		s0.124-0.818,0.074-1.142c-0.074-0.348-0.174-0.62-0.298-0.868s-0.248-0.472-0.396-0.693c-0.272-0.423-0.569-0.795-0.867-1.143
		c-0.299-0.347-0.62-0.694-0.918-1.017l-0.101-0.101l-0.099-0.124c-0.025-0.023-0.025-0.023-0.05-0.05l-0.024-0.023
		c-0.025-0.024-0.05-0.051-0.05-0.074c-0.074-0.124-0.124-0.225-0.149-0.273c-0.023-0.074,0-0.074,0-0.099
		c0-0.025,0.025-0.074,0.101-0.124c0.147-0.149,0.445-0.298,0.769-0.372c0.323-0.101,0.695-0.149,1.092-0.174
		c0.744-0.025,1.538,0.073,2.232,0.321c0.695,0.248,1.313,0.646,1.762,1.19c0.224,0.273,0.396,0.571,0.521,0.894
		c0.024,0.074,0.05,0.175,0.073,0.248l0.101,0.299l0.1,0.321l0.124,0.372c0.173,0.473,0.372,0.918,0.646,1.364
		c0.272,0.446,0.62,0.868,1.065,1.19c0.447,0.348,0.943,0.596,1.464,0.72c0.521,0.147,1.042,0.174,1.538,0.174
		c0.992,0,1.886-0.198,2.729-0.298c0.198-0.025,0.422-0.05,0.596-0.074h0.124c0.05,0,0.124,0,0.148,0h0.05h0.074
		c0.05,0,0.1,0,0.148,0c0.396,0.024,0.818,0.074,1.24,0.148c0.843,0.124,1.711,0.298,2.579,0.422
		c0.868,0.147,1.735,0.298,2.63,0.396c0.446,0.05,0.893,0.101,1.364,0.101c0.224,0,0.472,0,0.72,0
		c0.248-0.024,0.496-0.051,0.794-0.148c0.148-0.05,0.322-0.124,0.471-0.298c0.074-0.074,0.149-0.198,0.198-0.298
		c0.025-0.05,0.05-0.124,0.05-0.174c0-0.024,0-0.051,0-0.074c0-0.025,0-0.05,0-0.074c0-0.199-0.073-0.372-0.124-0.496
		C668.205,733.42,668.155,733.296,668.081,733.197z M667.436,734.065L667.436,734.065
		C667.436,734.04,667.436,734.065,667.436,734.065z"/>
	<path fill="#414042" d="M316.354,805.358c-0.471,0-0.372,0.743,0.099,0.743C316.924,806.077,316.825,805.358,316.354,805.358z"/>
	<path fill="#414042" d="M611.547,718.586c-31.28-0.023-62.437-2.754-93.643-3.969c-30.983-1.216-62.065-0.496-92.554,5.457
		c-2.405,0.472-4.837,0.968-7.242,1.514c-0.473,0.099-0.372,0.843,0.1,0.744c30.76-6.822,62.238-8.137,93.644-7.169
		c31.009,0.967,61.916,3.795,92.948,4.143c2.282,0.024,4.564,0.05,6.847,0.05C612.118,719.33,612.019,718.586,611.547,718.586z"/>
	<path fill="#414042" d="M611.547,730.493c-31.9-0.025-63.727-2.978-95.627-2.604c-12.801,0.148-25.601,0.868-38.301,2.604
		c-0.473,0.074-0.397,0.794,0.099,0.744c31.504-4.316,63.454-2.406,95.107-1.042c12.948,0.569,25.872,1.042,38.821,1.042
		C612.118,731.237,612.019,730.493,611.547,730.493z"/>
	<path fill="none" stroke="#414142" stroke-width="11" stroke-linecap="round" stroke-miterlimit="10" d="M648.955,372.614
		c-1.266,1.463-2.01,3.2-2.506,4.937c-1.488,8.931,1.24,17.116,2.382,25.601"/>
	<path fill="none" stroke="#414142" stroke-width="11" stroke-linecap="round" stroke-miterlimit="10" d="M716.651,372.118
		c-1.116,2.977,1.189,6.945,1.189,10.468c0,3.523-2.307,6.648-1.189,9.625"/>
</g>
<g id="Layer_4">
	<g>
		<path fill="#D1D3D4" d="M276.341,73.079c0,0,24.311-2.853,25.005,0c0.719,2.853,0.471,6.648,0,7.119
			c-0.471,0.472-1.24,3.324,0.446,3.324c1.687,0,9.551,2.381,10.27,0s-3.101-4.49,2.629-5.333c5.706-0.843,15.727,1.315,17.141,0
			c1.439-1.314,1.191-2.753,3.572-2.753c2.381,0-4.043-3.473,3.82-3.646c7.864-0.149,21.904,5.532,20.713,9.823
			c-1.191,4.267-0.248,7.591-5.011,8.558c-4.763,0.943-2.853,4.267-1.91,4.738c0.942,0.471,1.439,0.471,1.191,3.324
			c-0.249,2.853-2.134,2.853,3.101,2.853c5.234,0,37.879,1.91,32.149,9.029c-5.706,7.12-17.141,8.558-20.961,8.558
			c-3.82,0-1.662-0.471-6.673,3.795c-5.011,4.266-8.583,0-10.245,4.267s0.248,4.267-5.234,6.648c-5.482,2.381-12.378,2.381-15.951,0
			c-3.572-2.381-6.425-9.5-10.493-6.648c-4.043,2.853,3.101,4.738-8.806,6.177c-11.907,1.414-41.451-4.267-49.786-5.706
			c-8.335-1.414-7.616-8.558-9.525-13.767c-1.91-5.234-1.439-4.267-6.673-5.234c-5.234-0.942-8.334-1.91-8.583-8.062
			c-0.248-6.177,5.011-11.882,10.964-10.443c5.953,1.414,10.493-0.942,11.188-6.648c0.719-5.706,2.877-8.062,6.45-8.062
			c3.572,0,4.267,3.324,6.896,2.853C274.679,77.346,273.96,73.327,276.341,73.079z"/>
		<path fill="#FFFFFF" d="M276.788,81.29c0,0,17.736-2.084,18.257,0c0.521,2.083,0.347,4.862,0,5.209
			c-0.347,0.348-0.918,2.431,0.322,2.431c1.241,0,17.464,1.736,17.985,0c0.521-1.736-2.257-3.274,1.91-3.895s11.485,0.967,12.527,0
			c1.042-0.967,0.868-2.009,2.604-2.009c1.737,0-2.952-2.53,2.778-2.654s16,4.043,15.132,7.169
			c-0.868,3.126-0.173,5.557-3.646,6.251c-3.473,0.695-2.083,3.126-1.389,3.473c0.695,0.347,1.042,0.347,0.868,2.431
			c-0.173,2.083-1.339,5.705,2.505,5.705c3.82,0,15.777-0.297,11.585,4.912c-4.167,5.209-4.862,3.944-8.534,7.07
			c-3.646,3.126-6.251,0-7.491,3.126c-1.216,3.125,0.173,3.125-3.82,4.862c-3.993,1.737-9.054,1.736-11.659,0
			c-2.605-1.736-4.688-6.946-7.641-4.862c-2.952,2.083,2.257,3.473-6.425,4.515c-8.707,1.042-40.756-3.126-46.834-4.167
			c-6.078-1.042-5.557-6.251-6.946-10.046c-1.389-3.82-1.042-3.126-4.862-3.82c-3.82-0.695-6.078-1.389-6.251-5.904
			c-0.173-4.515,3.646-8.658,8.013-7.616c4.341,1.042,7.665-0.694,8.186-4.862s2.108-5.904,4.713-5.904
			c2.605,0,3.126,2.431,5.036,2.083C275.572,84.391,275.051,81.463,276.788,81.29z"/>
	</g>
	<g>
		<path fill="#D1D3D4" d="M757.457,14.909c0,0-30.734-3.597-31.628,0c-0.894,3.597-0.595,8.409,0,9.004
			c0.596,0.596,1.562,4.192-0.57,4.192s-12.08,3.001-12.998,0c-0.894-3.001,3.919-5.681-3.323-6.747
			c-7.243-1.067-19.896,1.662-21.705,0c-1.812-1.662-1.515-3.473-4.516-3.473c-3.002,0,5.109-4.416-4.812-4.614
			c-9.947-0.199-27.709,6.995-26.222,12.403c1.515,5.408,0.299,9.6,6.326,10.815c6.027,1.191,3.621,5.408,2.406,6.003
			c-1.216,0.595-1.812,0.595-1.514,4.192c0.298,3.597,2.703,3.597-3.919,3.597c-6.624,0-47.901,2.406-40.684,11.411
			c7.243,9.005,21.705,10.816,26.519,10.816c4.812,0,2.107-0.596,8.435,4.812c6.325,5.408,10.84,0,12.948,5.408
			c2.108,5.408-0.297,5.408,6.624,8.41c6.921,3.001,15.677,3.001,20.19,0c4.516-3.002,8.138-12.006,13.247-8.41
			c5.11,3.597-3.92,6.003,11.139,7.814c15.058,1.811,52.416-5.408,62.982-7.218c10.542-1.811,9.649-10.815,12.057-17.414
			c2.406-6.599,1.811-5.408,8.434-6.599c6.624-1.19,10.543-2.406,10.841-10.22s-6.326-15.007-13.867-13.222
			c-7.541,1.811-13.245-1.19-14.164-8.409c-0.893-7.219-3.646-10.22-8.16-10.22c-4.516,0-5.408,4.192-8.707,3.597
			C759.566,20.316,760.459,15.231,757.457,14.909z"/>
		<path fill="#FFFFFF" d="M756.887,25.277c0,0-22.448-2.629-23.095,0c-0.67,2.63-0.446,6.127,0,6.574
			c0.446,0.447,1.142,3.076-0.422,3.076c-1.562,0-22.077,2.183-22.747,0c-0.67-2.183,2.854-4.143-2.431-4.912
			s-14.513,1.215-15.853,0c-1.313-1.216-1.091-2.53-3.299-2.53s3.745-3.225-3.521-3.374c-7.27-0.149-20.242,5.11-19.15,9.054
			s0.223,7.02,4.614,7.888c4.391,0.868,2.629,3.944,1.761,4.391c-0.868,0.447-1.314,0.447-1.092,3.076
			c0.224,2.629,1.688,7.218-3.15,7.218c-4.837,0-19.943-0.372-14.66,6.202c5.284,6.574,6.152,4.986,10.791,8.93
			c4.613,3.944,7.913,0,9.451,3.944s-0.224,3.944,4.837,6.152c5.062,2.183,11.437,2.183,14.735,0
			c3.299-2.183,5.929-8.781,9.674-6.152c3.746,2.629-2.854,4.391,8.137,5.706c10.989,1.314,51.547-3.944,59.237-5.259
			c7.688-1.315,7.045-7.889,8.806-12.726c1.763-4.812,1.315-3.944,6.152-4.812c4.837-0.868,7.688-1.761,7.913-7.467
			c0.224-5.706-4.614-10.964-10.121-9.649c-5.507,1.314-9.674-0.869-10.344-6.152c-0.67-5.259-2.654-7.467-5.954-7.467
			c-3.299,0-3.943,3.076-6.351,2.629C758.425,29.222,759.069,25.525,756.887,25.277z"/>
	</g>
</g>
<g id="Layer_3">
	<path fill="#B7B7B7" d="M313.352,622.586c0,0,37.408-2.084,50.282-2.505c12.875-0.422,23.987,0,27.436-2.084
		c3.473-2.084,4.564-3.597,4.564-3.597s0.967,4.438-0.968,5.53c0,0,4.441-2.355,4.986-5.53c0,0,1.936,3.869,0,5.828
		c0,0,12.18-3.745,13.99-13.022c0,0,0.547,9.973-4.439,12.18c0,0,9.972-1.389,12.18-8.037c0,0-1.513,7.616-4.837,8.583
		c0,0,97.116,0.695,108.056,0.547s21.756-0.423,21.756-0.423s7.193-2.355,7.49-4.291v4.02c0,0,9.974-6.648,9.85-9.699
		c0,0,3.473,5.953-2.356,10.245c0,0,12.603-4.02,13.99-11.089c0,0,1.39,7.069-3.473,10.121c0,0,74.791-1.364,84.763,0.298
		c11.212-3.324,16.62-7.889,16.62-7.889v7.889c0,0,13.296-8.732,22.027-4.788c0,0-7.069,2.704-10.814,3.548
		c0,0,23.268,2.505,26.17,6.646c0,0-136.31,14.141-204.056,14.537C438.871,640.05,326.648,628.416,313.352,622.586z"/>
</g>
<g id="Layer_2">
	<path fill="#414142" d="M698.195,446.611l-50.902-57.575c-15.926,11.56-41.848,29.966-41.848,29.966l51.771,67.597
		C672,471.193,698.195,446.611,698.195,446.611z M645.408,398.536c-0.744-1.389-0.225-3.125,1.165-3.869s3.126-0.224,3.87,1.166
		c0.744,1.389,0.224,3.125-1.166,3.869C647.889,400.446,646.152,399.926,645.408,398.536z M685.892,443.213
		c-0.743-1.39-0.224-3.126,1.166-3.87s3.125-0.224,3.869,1.166s0.225,3.125-1.165,3.869S686.636,444.602,685.892,443.213z"/>
	<g>
		<circle fill="none" cx="648.931" cy="370.853" r="1.984"/>
		<path fill="#414142" d="M630.673,365.42h-9.327v141.619h9.327V374.821h107.411V354.43L630.673,365.42z M648.931,372.837
			c-1.092,0-1.984-0.893-1.984-1.984c0-1.091,0.894-1.983,1.984-1.983c1.092,0,1.984,0.894,1.984,1.983
			C650.915,371.944,650.021,372.837,648.931,372.837z M716.105,372.837c-1.093,0-1.984-0.893-1.984-1.984
			c0-1.091,0.893-1.983,1.984-1.983c1.091,0,1.983,0.894,1.983,1.983C718.09,371.944,717.197,372.837,716.105,372.837z"/>
	</g>
	<path fill="#414042" d="M656.744,717.271c0,0-2.034-7.964-0.992-9.602c1.042-1.637,3.795-1.141,4.887-1.165
		c1.093-0.024,5.333-1.34,6.648-1.861c1.314-0.495,3.398-1.165,5.085-0.049s7.565,3.497,9.352,4.564
		c1.786,1.065,4.316,2.133,4.242,4.19c-0.073,2.061-2.059,8.062-4.589,9.676c-2.53,1.612-6.698,2.927-10.345,2.157
		s-10.22-3.571-11.188-3.87C658.878,721.018,656.744,717.271,656.744,717.271z"/>
</g>
<g id="Layer_1">
	<g>
		<g>
			
				<rect x="312.028" y="532.636" transform="matrix(0.0984 0.9952 -0.9952 0.0984 817.4827 174.7094)" fill="#666666" width="0.596" height="11.709"/>
			<g>
				<polygon fill="#666666" points="376.186,603.609 381.271,508.254 335.008,492.577 316.527,498.084 298.021,509.742 
					301.271,607.206 				"/>
				<path fill="#414142" d="M319.33,454.177c0,0,30.189,9.873,43.287,9.649v2.754l3.051,5.531h-2.58l4.217,4.763h-2.803l4.688,7.318
					h-2.108l4.44,4.713h-1.414l3.274,3.672h-1.86l5.383,4.763h-2.828l6.797,5.209h-2.828l4.688,4.465l-1.463,1.24l6.598,5.21v2.232
					l-7.02,0.991v-2.231h-5.16c0,0-5.854-1.488-7.244-1.488c-1.414,0-6.325-0.744-7.02-0.744c-0.694,0-9.6-1.984-9.6-1.984
					l-2.108-2.978v2.978l-3.746-0.248l-3.274-0.496l-2.332-1.24l-3.498-8.186c0,0-17.786-24.138-17.538-27.957
					C319.554,468.316,319.33,454.177,319.33,454.177z"/>
				<polygon fill="#414142" points="304.645,451.771 306.381,484.812 293.73,488.285 295.144,490.518 295.367,491.957 
					297.625,491.014 296.533,517.557 334.115,510.512 334.289,480.918 335.38,480.298 335.231,478.536 336.322,476.205 
					324.862,478.859 325.209,443.213 326.003,442.964 325.979,441.029 326.871,440.757 326.847,439.541 302.04,449.464 
					302.388,450.456 303.206,450.084 303.43,452.043 				"/>
				<polygon fill="#666666" points="303.033,452.391 304.744,485.433 292.118,488.905 293.507,491.138 293.755,492.577 
					296.012,491.634 294.921,518.177 332.478,511.132 332.651,481.538 333.743,480.918 333.594,479.156 334.685,476.825 
					323.225,479.479 323.572,443.833 324.366,443.584 324.366,441.649 325.234,441.377 325.209,440.161 300.403,450.084 
					300.775,451.076 301.594,450.704 301.792,452.664 				"/>
				<polygon fill="#414142" points="308.639,526.958 308.639,549.532 301.271,550.4 301.271,528.818 				"/>
				<rect x="302.989" y="523.6" fill="#666666" width="0.57" height="30.189"/>
				<rect x="306.213" y="523.6" fill="#666666" width="0.57" height="30.189"/>
				<polygon fill="#414142" points="328.831,524.304 328.831,546.878 321.463,547.746 321.463,526.164 				"/>
				<rect x="323.182" y="520.947" fill="#666666" width="0.57" height="30.189"/>
				<rect x="326.432" y="520.947" fill="#666666" width="0.57" height="30.189"/>
			</g>
			
				<rect x="325.265" y="531.033" transform="matrix(0.0982 0.9952 -0.9952 0.0982 827.882 160.1711)" fill="#666666" width="0.597" height="11.708"/>
			
				<rect x="305.777" y="532.813" transform="matrix(0.0974 0.9952 -0.9952 0.0974 812.3707 181.5825)" fill="#666666" width="0.597" height="11.707"/>
		</g>
		<polygon fill="#414142" points="289.711,606.512 288.223,564.019 312.161,560.372 312.161,606.734 314.418,606.734 
			314.418,556.75 285.569,561.364 287.231,606.512 		"/>
		<polygon fill="#414142" points="330.046,553.923 330.046,562.854 300.006,567.641 300.006,559.156 		"/>
		<polygon fill="#666666" points="287.727,606.76 286.239,564.267 310.202,560.62 310.202,606.982 312.459,606.982 312.459,556.998 
			283.609,561.612 285.247,606.76 		"/>
		<polygon fill="#666666" points="299.584,556.75 282.294,560.794 283.609,561.612 311.169,557.197 330.046,553.923 
			328.831,552.633 		"/>
	</g>
	<g>
		<g>
			<polygon fill="#414142" points="735.926,533.953 698.369,540.676 704.992,447.404 728.311,447.404 			"/>
			<g>
				<path fill="#666666" d="M795.088,450.679l-49.959-19.025l-57.203,19.771c0,0,6.697,268.279,4.465,285.023h100.838
					C793.229,736.446,791.367,453.284,795.088,450.679z M702.562,529.266l5.232-73.427l14.512-4.961l6.004,75.906L702.562,529.266z"
					/>
			</g>
			<polygon fill="#414142" points="679.269,448.645 680.509,450.63 683.609,449.637 683.609,451.87 685.594,451.87 685.594,452.738 
				687.926,452.738 701.47,449.885 745.749,437.358 746.071,437.482 779.312,447.926 792.855,450.778 795.188,450.778 
				795.188,449.91 797.172,449.91 797.172,447.678 800.271,448.67 801.514,446.686 801.514,444.552 761.997,426.443 
				743.765,421.606 716.974,428.552 			"/>
			<polygon fill="#414142" points="716.105,423.095 716.105,429.023 743.393,426.071 762.121,427.436 762.121,421.606 
				741.507,413.668 			"/>
			<polygon fill="#414142" points="713.005,420.49 713.005,422.103 715.113,422.103 715.113,423.343 716.105,423.095 741.507,415.9 
				762.121,422.103 763.237,422.227 763.237,420.614 764.85,420.738 764.85,419.002 741.507,409.947 			"/>
			<rect x="739.101" y="403.746" fill="#414142" width="2.406" height="8.806"/>
			<polygon fill="#414142" points="739.101,403.746 740.316,397.172 741.507,403.746 			"/>
			<rect x="719.9" y="410.319" fill="#414142" width="2.405" height="8.807"/>
			<polygon fill="#414142" points="719.9,410.319 721.116,403.746 722.307,410.319 			"/>
			<rect x="756.366" y="410.319" fill="#414142" width="2.406" height="8.807"/>
			<polygon fill="#414142" points="756.366,410.319 757.581,403.746 758.771,410.319 			"/>
			<g>
				<path fill="none" stroke="#414142" stroke-width="5" stroke-linecap="round" stroke-miterlimit="10" d="M685.346,441.451
					c0,0-1.115-1.612-4.217,0.372c-3.87,2.479,0.868,8.311,5.953,1.859c5.086-6.448,7.938-9.674,9.551-9.178
					s3.671,5.135-1.886,4.861"/>
				<path fill="none" stroke="#414142" stroke-width="5" stroke-linecap="round" stroke-miterlimit="10" d="M703.082,432
					c0,0-1.116-1.612-4.217,0.372c-3.87,2.479,0.868,8.311,5.953,1.86c5.086-6.449,7.938-9.675,9.551-9.179s3.671,5.136-1.886,4.861
					"/>
			</g>
			<g>
				<path fill="none" stroke="#414142" stroke-width="5" stroke-linecap="round" stroke-miterlimit="10" d="M794.319,436.713
					c0,0,1.018-1.687,4.241,0.101c4.02,2.208-0.322,8.358-5.83,2.231c-5.48-6.103-8.558-9.129-10.119-8.533
					c-1.588,0.597-3.324,5.358,2.207,4.713"/>
				<path fill="none" stroke="#414142" stroke-width="5" stroke-linecap="round" stroke-miterlimit="10" d="M776.013,428.453
					c0,0,1.018-1.688,4.241,0.099c4.02,2.208-0.322,8.36-5.829,2.232c-5.481-6.103-8.558-9.128-10.121-8.533
					c-1.587,0.596-3.323,5.358,2.208,4.713"/>
			</g>
			<polygon fill="#414142" points="763.237,452.118 759.839,529.266 781.817,529.266 777.997,455.095 763.237,451.126 			"/>
			
				<rect x="762.752" y="467.733" transform="matrix(0.9962 0.0871 -0.0871 0.9962 43.7059 -65.3651)" fill="#666666" width="16.495" height="0.993"/>
			
				<rect x="760.427" y="500.526" transform="matrix(0.9962 0.0871 -0.0871 0.9962 46.5826 -65.385)" fill="#666666" width="24.012" height="0.992"/>
			<rect x="767.826" y="451.126" fill="#666666" width="0.868" height="89.55"/>
			<rect x="772.267" y="451.126" fill="#666666" width="0.868" height="89.55"/>
			
				<rect x="713.248" y="454.017" transform="matrix(1 -0.0074 0.0074 1 -3.6993 5.3286)" fill="#666666" width="0.918" height="90.821"/>
			
				<rect x="718.333" y="450.395" transform="matrix(1 -0.0074 0.0074 1 -3.6526 5.3605)" fill="#666666" width="0.919" height="86.628"/>
			
				<rect x="716.877" y="453.189" transform="matrix(-0.241 -0.9705 0.9705 -0.241 435.7648 1277.3435)" fill="#666666" width="0.92" height="30.188"/>
			
				<rect x="715.626" y="488.343" transform="matrix(-0.2403 -0.9707 0.9707 -0.2403 399.4608 1319.5114)" fill="#666666" width="0.919" height="30.19"/>
		</g>
		<g>
			<polygon fill="#666666" points="764.577,638.412 806.945,627.374 809.947,628.291 809.947,632.285 767.95,642.754 
				764.949,642.754 			"/>
			<path fill="none" stroke="#666666" stroke-width="1.4594" stroke-miterlimit="10" d="M769.637,658.456"/>
			<polygon fill="#414142" points="806.945,627.374 807.095,631.119 764.949,642.754 767.95,642.754 809.947,632.285 
				809.947,628.291 			"/>
			<g>
				<circle fill="none" cx="802.282" cy="639.355" r="1.166"/>
				<path fill="#414142" d="M814.238,640.348c0,0-1.266,1.266-4.291,0.894c-3.026-0.372-4.043-4.516-4.043-4.516l-30.761,7.243
					c1.092,8.014-5.481,6.921-5.481,6.921l1.513,10.098c4.887-1.439,6.698,3.993,6.698,3.993l34.58-5.605
					c-0.125-5.805,4.167-7.244,4.167-7.244L814.238,640.348z M778.22,646.499c-0.645,0-1.165-0.521-1.165-1.166
					s0.521-1.165,1.165-1.165c0.646,0,1.166,0.521,1.166,1.165C779.386,645.979,778.865,646.499,778.22,646.499z M802.282,640.521
					c-0.646,0-1.166-0.521-1.166-1.165c0-0.646,0.521-1.166,1.166-1.166c0.645,0,1.166,0.521,1.166,1.166
					C803.473,640,802.927,640.521,802.282,640.521z"/>
			</g>
			<path fill="none" stroke="#414142" stroke-width="2.9188" stroke-linecap="round" stroke-miterlimit="10" d="M800.62,634.096
				c0.124,2.828,1.662,4.738,1.662,4.738"/>
			<path fill="none" stroke="#414142" stroke-width="2.9188" stroke-linecap="round" stroke-miterlimit="10" d="M776.831,639.776
				c0.124,2.827,1.662,4.737,1.662,4.737"/>
		</g>
		<polygon fill="#414142" points="755.671,669.768 755.671,664.979 779.163,668.105 777.823,669.768 777.327,736.174 
			775.517,736.174 775.839,670.934 756.986,668.453 755.671,673.066 		"/>
		<line fill="none" stroke="#414142" stroke-miterlimit="10" x1="745.749" y1="437.358" x2="741.507" y2="736.446"/>
	</g>
</g>
</svg>
