<?xml version="1.0" encoding="utf-8"?>
<!-- Generator: Adobe Illustrator 18.1.0, SVG Export Plug-In . SVG Version: 6.00 Build 0)  -->
<!DOCTYPE svg PUBLIC "-//W3C//DTD SVG 1.1//EN" "http://www.w3.org/Graphics/SVG/1.1/DTD/svg11.dtd">
<svg version="1.1" id="Layer_1" xmlns="http://www.w3.org/2000/svg" xmlns:xlink="http://www.w3.org/1999/xlink" x="0px" y="0px"
	 viewBox="0 0 94.8 94.7" enable-background="new 0 0 94.8 94.7" xml:space="preserve">
<g>
	<g>
		<g>
			<path fill="#FFF32A" d="M94.9,46.7c0,12.6-5.3,24-13.9,32.2L47.4,46.7H94.9z"/>
			<path fill="#D7DF23" d="M81,14.5c8.6,8.2,13.9,19.6,13.9,32.2H47.4L81,14.5z"/>
			<path fill="#FDB913" d="M81,78.9c-8.6,8.3-20.5,13.4-33.6,13.4V46.7L81,78.9z"/>
			<path fill="#009444" d="M47.4,1.2c13.1,0,25,5.1,33.6,13.3L47.4,46.7V1.2z"/>
			<path fill="#2E3192" d="M-0.1,46.7c0-12.6,5.3-24,13.9-32.2l33.6,32.2H-0.1z"/>
			<path fill="#008EBA" d="M47.4,46.7L13.8,14.5C22.4,6.3,34.3,1.2,47.4,1.2V46.7z"/>
			<path fill="#EC008C" d="M13.8,78.9C5.2,70.7-0.1,59.3-0.1,46.7h47.5L13.8,78.9z"/>
			<path fill="#F05237" d="M47.4,92.3c-13.1,0-25-5.1-33.6-13.3l33.6-32.2L47.4,92.3z"/>
		</g>
	</g>
</g>
</svg>
