<?xml version="1.0" encoding="utf-8"?>
<!-- Generator: Adobe Illustrator 15.0.0, SVG Export Plug-In . SVG Version: 6.00 Build 0)  -->
<!DOCTYPE svg PUBLIC "-//W3C//DTD SVG 1.1//EN" "http://www.w3.org/Graphics/SVG/1.1/DTD/svg11.dtd">
<svg version="1.1" id="Layer_1" xmlns="http://www.w3.org/2000/svg" xmlns:xlink="http://www.w3.org/1999/xlink" x="0px" y="0px"
	 width="91.083px" height="91.084px" viewBox="65.915 -15.701 91.083 91.084" enable-background="new 65.915 -15.701 91.083 91.084"
	 xml:space="preserve">
<g>
	<circle fill="#FFFFFF" cx="111.457" cy="29.841" r="45.542"/>
	<g>
		<g>
			<g>
				<path fill="#80838E" d="M111.458,5.227c-29.316,0-40.983,24.615-40.983,24.615s12.657,24.613,40.983,24.613
					s40.982-24.613,40.982-24.613S140.773,5.227,111.458,5.227z M128.882,29.842c0,9.607-7.816,17.424-17.424,17.424
					c-9.608,0-17.424-7.816-17.424-17.424c0-9.609,7.816-17.425,17.424-17.425c2.715,0,5.287,0.624,7.58,1.737
					c0.575-0.153,1.18-0.236,1.804-0.236c3.853,0,6.975,3.121,6.975,6.975c0,0.738-0.115,1.452-0.329,2.121
					C128.384,25.111,128.882,27.42,128.882,29.842z M84.971,37.754c-3.262-2.936-5.608-5.917-7.062-8.009
					c1.374-2.067,3.6-4.996,6.755-7.88c2.183-1.996,4.499-3.701,6.943-5.119c-2.487,3.759-3.939,8.262-3.939,13.096
					c0,4.652,1.345,8.998,3.664,12.67C89.123,41.165,87.002,39.58,84.971,37.754z M137.944,37.754
					c-2.031,1.826-4.153,3.411-6.361,4.758c2.319-3.672,3.664-8.018,3.664-12.67c0-4.834-1.451-9.337-3.939-13.096
					c2.444,1.418,4.762,3.123,6.943,5.119c3.154,2.884,5.382,5.812,6.754,7.88C143.552,31.837,141.205,34.818,137.944,37.754z"/>
				<path fill="#80838E" d="M120.842,27.867c-3.852,0-6.974-3.124-6.974-6.975c0-0.66,0.093-1.297,0.264-1.902
					c-0.856-0.21-1.752-0.324-2.674-0.324c-6.172,0-11.175,5.003-11.175,11.176c0,6.172,5.003,11.174,11.175,11.174
					s11.176-5.002,11.176-11.174c0-0.739-0.074-1.459-0.211-2.158C121.915,27.803,121.385,27.867,120.842,27.867z"/>
			</g>
		</g>
		<g>
			<path fill="#FFFFFF" d="M84.664,21.865c-3.155,2.884-5.381,5.812-6.755,7.88c1.454,2.092,3.801,5.073,7.062,8.009
				c2.03,1.826,4.152,3.411,6.36,4.758c-2.319-3.672-3.664-8.018-3.664-12.67c0-4.834,1.452-9.337,3.939-13.096
				C89.163,18.164,86.846,19.869,84.664,21.865z"/>
			<path fill="#FFFFFF" d="M138.251,21.865c-2.182-1.996-4.499-3.701-6.943-5.119c2.488,3.759,3.939,8.262,3.939,13.096
				c0,4.652-1.345,8.998-3.664,12.67c2.208-1.347,4.33-2.932,6.361-4.758c3.261-2.936,5.607-5.917,7.061-8.009
				C143.633,27.678,141.405,24.749,138.251,21.865z"/>
			<path fill="#FFFFFF" d="M127.816,20.893c0-3.854-3.122-6.975-6.975-6.975c-0.624,0-1.229,0.083-1.804,0.236
				c-2.293-1.113-4.865-1.737-7.58-1.737c-9.608,0-17.424,7.815-17.424,17.425c0,9.607,7.816,17.424,17.424,17.424
				c9.607,0,17.424-7.816,17.424-17.424c0-2.422-0.498-4.73-1.395-6.828C127.701,22.345,127.816,21.631,127.816,20.893z
				 M111.458,41.016c-6.172,0-11.175-5.002-11.175-11.174c0-6.173,5.003-11.176,11.175-11.176c0.922,0,1.817,0.114,2.674,0.324
				c-0.171,0.605-0.264,1.242-0.264,1.902c0,3.851,3.122,6.975,6.974,6.975c0.544,0,1.073-0.064,1.581-0.184
				c0.137,0.699,0.211,1.419,0.211,2.158C122.634,36.014,117.63,41.016,111.458,41.016z"/>
		</g>
	</g>
</g>
</svg>
