<?xml version="1.0" encoding="utf-8"?>
<!-- Generator: Adobe Illustrator 18.1.0, SVG Export Plug-In . SVG Version: 6.00 Build 0)  -->
<!DOCTYPE svg PUBLIC "-//W3C//DTD SVG 1.1//EN" "http://www.w3.org/Graphics/SVG/1.1/DTD/svg11.dtd">
<svg version="1.1" id="Layer_1" xmlns="http://www.w3.org/2000/svg" xmlns:xlink="http://www.w3.org/1999/xlink" x="0px" y="0px"
	 viewBox="-449.3 478.2 84 51" enable-background="new -449.3 478.2 84 51" xml:space="preserve">
<g>
	<g>
		<g>
			<g>
				<path fill="#27002B" d="M-407.5,479.1c-29.3,0-41,24.6-41,24.6s12.7,24.6,41,24.6s41-24.6,41-24.6S-378.1,479.1-407.5,479.1z
					 M-390,503.8c0,9.6-7.8,17.4-17.4,17.4s-17.4-7.8-17.4-17.4c0-9.6,7.8-17.4,17.4-17.4c2.7,0,5.3,0.6,7.6,1.7
					c0.6-0.2,1.2-0.2,1.8-0.2c3.9,0,7,3.1,7,7c0,0.7-0.1,1.5-0.3,2.1C-390.5,499-390,501.3-390,503.8z M-433.9,511.7
					c-3.3-2.9-5.6-5.9-7.1-8c1.4-2.1,3.6-5,6.8-7.9c2.2-2,4.5-3.7,6.9-5.1c-2.5,3.8-3.9,8.3-3.9,13.1c0,4.7,1.3,9,3.7,12.7
					C-429.8,515.1-431.9,513.5-433.9,511.7z M-381,511.7c-2,1.8-4.2,3.4-6.4,4.8c2.3-3.7,3.7-8,3.7-12.7c0-4.8-1.5-9.3-3.9-13.1
					c2.4,1.4,4.8,3.1,6.9,5.1c3.2,2.9,5.4,5.8,6.8,7.9C-375.4,505.8-377.7,508.7-381,511.7z"/>
				<path fill="#27002B" d="M-398.1,501.8c-3.9,0-7-3.1-7-7c0-0.7,0.1-1.3,0.3-1.9c-0.9-0.2-1.8-0.3-2.7-0.3
					c-6.2,0-11.2,5-11.2,11.2c0,6.2,5,11.2,11.2,11.2s11.2-5,11.2-11.2c0-0.7-0.1-1.5-0.2-2.2C-397,501.7-397.5,501.8-398.1,501.8z"
					/>
			</g>
		</g>
		<g>
		</g>
	</g>
</g>
</svg>
