<?xml version="1.0" encoding="utf-8"?>
<!-- Generator: Adobe Illustrator 18.1.0, SVG Export Plug-In . SVG Version: 6.00 Build 0)  -->
<!DOCTYPE svg PUBLIC "-//W3C//DTD SVG 1.1//EN" "http://www.w3.org/Graphics/SVG/1.1/DTD/svg11.dtd">
<svg version="1.1"
	 id="svg2" xmlns:inkscape="http://www.inkscape.org/namespaces/inkscape" xmlns:rdf="http://www.w3.org/1999/02/22-rdf-syntax-ns#" xmlns:svg="http://www.w3.org/2000/svg" xmlns:sodipodi="http://sodipodi.sourceforge.net/DTD/sodipodi-0.dtd" xmlns:cc="http://creativecommons.org/ns#" xmlns:dc="http://purl.org/dc/elements/1.1/" sodipodi:docname="Twitter_bird_logo_2012.svg" inkscape:version="0.48.4 r9939"
	 xmlns="http://www.w3.org/2000/svg" xmlns:xlink="http://www.w3.org/1999/xlink" x="0px" y="0px" viewBox="-219 327.6 171.5 139.4"
	 enable-background="new -219 327.6 171.5 139.4" xml:space="preserve">
<sodipodi:namedview  inkscape:cy="50.181142" borderopacity="1.0" bordercolor="#666666" inkscape:cx="101.29413" showgrid="false" pagecolor="#ffffff" fit-margin-left="0" inkscape:zoom="3.7200571" fit-margin-top="0" id="base" inkscape:document-units="px" inkscape:window-x="-8" inkscape:window-y="-8" inkscape:current-layer="layer1" inkscape:window-maximized="1" inkscape:pageopacity="0.0" inkscape:pageshadow="2" inkscape:window-height="962" inkscape:window-width="1280" fit-margin-right="0" fit-margin-bottom="0">
	</sodipodi:namedview>
<path fill="#F9F9F9" d="M-140.5,419.7c-3.7,19.2-8.1,37.6-21.4,47.2c-4.1-29,6-50.7,10.7-73.9c-8-13.4,1-40.5,17.8-33.8
	c20.7,8.2-17.9,50,8,55.2c27.1,5.4,38.2-47,21.4-64.1c-24.3-24.6-70.7-0.6-65,34.7c1.4,8.6,10.3,11.2,3.6,23.1
	c-15.5-3.4-20.2-15.7-19.6-32c1-26.7,24-45.5,47.2-48c29.3-3.3,56.7,10.7,60.5,38.3c4.3,31.1-13.2,64.7-44.5,62.3
	C-130.3,428-133.8,423.8-140.5,419.7z"/>
</svg>
