<?xml version="1.0" encoding="utf-8"?>
<!-- Generator: Adobe Illustrator 18.1.0, SVG Export Plug-In . SVG Version: 6.00 Build 0)  -->
<!DOCTYPE svg PUBLIC "-//W3C//DTD SVG 1.1//EN" "http://www.w3.org/Graphics/SVG/1.1/DTD/svg11.dtd">
<svg version="1.1" id="Layer_1" xmlns:sketch="http://www.bohemiancoding.com/sketch/ns"
	 xmlns="http://www.w3.org/2000/svg" xmlns:xlink="http://www.w3.org/1999/xlink" x="0px" y="0px" viewBox="0 0 30.5 40.2"
	 enable-background="new 0 0 30.5 40.2" xml:space="preserve">
<title>lock</title>
<description>Created with Sketch (http://www.bohemiancoding.com/sketch)</description>
<g>
	<path d="M6.9,9.5c0,0,0.1-7.6,8.6-7.6S24,9.6,24,9.6l0,3.8l1.9,0.1l0-3.8c0,0,0.1-9.5-10.4-9.6C5-0.1,5,9.5,5,9.5l0,3.8l1.9,0.1
		L6.9,9.5z"/>
	<path d="M28.7,14.4L2.1,14.2c-1.1,0-1.9,0.8-1.9,1.9L0,38c0,1.1,0.8,1.9,1.9,1.9l26.7,0.2c1.1,0,1.9-0.8,1.9-1.9l0.1-21.9
		C30.6,15.2,29.8,14.4,28.7,14.4z M17.2,29l0,3.4c0,0,0,1.9-1.9,1.9c-1.9,0-1.9-1.9-1.9-1.9l0-3.4c-1.1-0.7-1.9-1.9-1.9-3.3
		c0-2.1,1.7-3.8,3.8-3.8c2.1,0,3.8,1.7,3.8,3.8C19.1,27.2,18.3,28.4,17.2,29z"/>
</g>
</svg>
