<?xml version="1.0" encoding="utf-8"?>
<!-- Generator: Adobe Illustrator 18.1.0, SVG Export Plug-In . SVG Version: 6.00 Build 0)  -->
<!DOCTYPE svg PUBLIC "-//W3C//DTD SVG 1.1//EN" "http://www.w3.org/Graphics/SVG/1.1/DTD/svg11.dtd">
<svg version="1.1" id="Layer_1" xmlns="http://www.w3.org/2000/svg" xmlns:xlink="http://www.w3.org/1999/xlink" x="0px" y="0px"
	 viewBox="-332 443.4 113.7 114.6" enable-background="new -332 443.4 113.7 114.6" xml:space="preserve">
<g>
	<g id="Layer1">
		<g>
			<defs>
				<rect id="SVGID_1_" x="-387" y="443.4" width="224.6" height="114.6"/>
			</defs>
			<clipPath id="SVGID_2_">
				<use xlink:href="#SVGID_1_"  overflow="visible"/>
			</clipPath>
			<path clip-path="url(#SVGID_2_)" fill="#038EBA" d="M-274.7,445.7c-30.7,0-55.5,24.8-55.5,55.5c0,0,23.5,23.6,55.5,0
				C-251.1,483.8-274.7,445.7-274.7,445.7"/>
		</g>
	</g>
	<g id="Layer2">
		<g>
			<defs>
				<rect id="SVGID_3_" x="-387" y="443.4" width="224.6" height="114.6"/>
			</defs>
			<clipPath id="SVGID_4_">
				<use xlink:href="#SVGID_3_"  overflow="visible"/>
			</clipPath>
			<path clip-path="url(#SVGID_4_)" fill="#D7E027" d="M-219.2,501.2c0-30.7-24.8-55.5-55.5-55.5c0,0-23.6,23.5,0,55.5
				C-257.4,524.8-219.2,501.2-219.2,501.2"/>
		</g>
	</g>
	<g id="Layer4">
		<g>
			<defs>
				<rect id="SVGID_5_" x="-387" y="443.4" width="224.6" height="114.6"/>
			</defs>
			<clipPath id="SVGID_6_">
				<use xlink:href="#SVGID_5_"  overflow="visible"/>
			</clipPath>
			<path clip-path="url(#SVGID_6_)" fill="#FCB917" d="M-274.7,556.7c30.7,0,55.5-24.8,55.5-55.5c0,0-23.5-23.6-55.5,0
				C-298.3,518.6-274.7,556.7-274.7,556.7"/>
		</g>
	</g>
	<g id="Layer3">
		<g>
			<defs>
				<rect id="SVGID_7_" x="-387" y="443.4" width="224.6" height="114.6"/>
			</defs>
			<clipPath id="SVGID_8_">
				<use xlink:href="#SVGID_7_"  overflow="visible"/>
			</clipPath>
			<path clip-path="url(#SVGID_8_)" fill="#EA0E8C" d="M-274.7,501.2c-32,23.6-55.5,0-55.5,0c0,30.7,24.8,55.5,55.5,55.5
				C-274.7,556.7-251.1,533.2-274.7,501.2"/>
		</g>
	</g>
	<g>
		<defs>
			<rect id="SVGID_9_" x="-387" y="443.4" width="224.6" height="114.6"/>
		</defs>
		<clipPath id="SVGID_10_">
			<use xlink:href="#SVGID_9_"  overflow="visible"/>
		</clipPath>
	</g>
	<g>
		<defs>
			<rect id="SVGID_11_" x="-387" y="443.4" width="224.6" height="114.6"/>
		</defs>
		<clipPath id="SVGID_12_">
			<use xlink:href="#SVGID_11_"  overflow="visible"/>
		</clipPath>
	</g>
	<g>
		<defs>
			<rect id="SVGID_13_" x="-387" y="443.4" width="224.6" height="114.6"/>
		</defs>
		<clipPath id="SVGID_14_">
			<use xlink:href="#SVGID_13_"  overflow="visible"/>
		</clipPath>
	</g>
</g>
</svg>
