<?xml version="1.0" encoding="utf-8"?>
<!-- Generator: Adobe Illustrator 18.1.0, SVG Export Plug-In . SVG Version: 6.00 Build 0)  -->
<!DOCTYPE svg PUBLIC "-//W3C//DTD SVG 1.1//EN" "http://www.w3.org/Graphics/SVG/1.1/DTD/svg11.dtd">
<svg version="1.1" id="Layer_1" xmlns="http://www.w3.org/2000/svg" xmlns:xlink="http://www.w3.org/1999/xlink" x="0px" y="0px"
	 viewBox="0 0 94.8 94.7" enable-background="new 0 0 94.8 94.7" xml:space="preserve">
<g>
	<g>
		<g>
			<path fill="#FDB913" d="M94.6,47.3c0,13.1-5.3,24.9-13.8,33.4L47.3,47.3H94.6z"/>
			<path fill="#D7DF23" d="M80.7,13.8c8.6,8.6,13.8,20.4,13.8,33.4H47.3L80.7,13.8z"/>
			<path fill="#FDB913" d="M80.7,80.7c-8.6,8.6-20.4,13.9-33.4,13.9V47.3L80.7,80.7z"/>
			<path fill="#D7DF23" d="M47.3,0c13.1,0,24.9,5.3,33.4,13.8L47.3,47.3V0z"/>
			<path fill="#008EBA" d="M0,47.3c0-13,5.3-24.9,13.9-33.4l33.4,33.4H0z"/>
			<path fill="#008EBA" d="M47.3,47.3L13.9,13.8C22.4,5.3,34.2,0,47.3,0V47.3z"/>
			<path fill="#EC008C" d="M13.9,80.7C5.3,72.1,0,60.3,0,47.3h47.3L13.9,80.7z"/>
			<path fill="#EC008C" d="M47.3,94.5c-13,0-24.9-5.3-33.4-13.8l33.4-33.4L47.3,94.5z"/>
		</g>
	</g>
</g>
</svg>
