<?xml version="1.0" encoding="utf-8"?>
<!-- Generator: Adobe Illustrator 18.1.1, SVG Export Plug-In . SVG Version: 6.00 Build 0)  -->
<svg version="1.1" id="Layer_1" xmlns="http://www.w3.org/2000/svg" xmlns:xlink="http://www.w3.org/1999/xlink" x="0px" y="0px"
	 viewBox="-274.4 506.4 612 268.3" enable-background="new -274.4 506.4 612 268.3" xml:space="preserve">
<path fill="#6A8CC4" d="M203.5,774.6h-343.7c-73.8,0-134.1-60.4-134.1-134.1l0,0c0-73.8,60.4-134.1,134.1-134.1h343.7
	c73.8,0,134.1,60.4,134.1,134.1l0,0C337.6,714.3,277.2,774.6,203.5,774.6z"/>
<g enable-background="new    ">
	<path fill="#FFFFFF" d="M-100.5,557.6c28.2,0,44.5,16.3,44.5,38.2c0,14.7-9.3,26.8-20.9,30.6c12.9,3,25.4,14.9,25.4,33.4
		c0,23.3-17.7,40.4-44.7,40.4h-57.5V557.6H-100.5z M-105.5,614.7c11.1,0,18.3-5.8,18.3-15.5c0-9.3-6.2-15.3-18.7-15.3h-16.9v30.8
		H-105.5z M-102.9,674.3c12.3,0,19.7-6.4,19.7-16.7c0-9.9-7.2-16.7-19.7-16.7h-19.9v33.4H-102.9z"/>
	<path fill="#FFFFFF" d="M-30.9,648.7v-91.1H0.9v88.5c0,17.3,9.7,26,24.7,26s24.7-8.7,24.7-26v-88.5h31.8v91.1
		c0,35.8-25.2,54.7-56.5,54.7S-30.9,684.6-30.9,648.7z"/>
	<path fill="#FFFFFF" d="M98.5,557.6h37.2l29.2,52.9l29.6-52.9h35.4l-50.1,83.1v59.6H148v-59.6L98.5,557.6z"/>
</g>
</svg>
