<?xml version="1.0" encoding="utf-8"?>
<!-- Generator: Adobe Illustrator 16.0.0, SVG Export Plug-In . SVG Version: 6.00 Build 0)  -->
<!DOCTYPE svg PUBLIC "-//W3C//DTD SVG 1.1//EN" "http://www.w3.org/Graphics/SVG/1.1/DTD/svg11.dtd">
<svg version="1.1" id="Layer_1" xmlns="http://www.w3.org/2000/svg" xmlns:xlink="http://www.w3.org/1999/xlink" x="0px" y="0px"
	 width="21px" height="20.578px" viewBox="0 0 21 20.578" enable-background="new 0 0 21 20.578" xml:space="preserve">
<polygon id="create-icon" display="none" fill="#FFFFFF" points="21,8.035 12.965,8.035 12.965,0 8.515,0 8.515,8.035 0.48,8.035 
	0.48,12.484 8.515,12.484 8.515,20.52 12.965,20.52 12.965,12.484 21,12.484 "/>
<g id="share-icon" display="none">
	<polygon display="inline" fill="#FFFFFF" points="20.578,20.578 0,20.578 0,0.001 6.574,0.001 6.574,3.844 3.843,3.844 
		3.843,16.735 16.735,16.735 16.735,14.051 20.578,14.051 	"/>
	<polygon display="inline" fill="#FFFFFF" points="9.814,0 9.814,3.844 14.018,3.844 8.364,9.497 9.789,10.921 11.082,12.214 
		16.735,6.561 16.735,10.811 20.578,10.811 20.578,0 	"/>
</g>
<g>
	<path fill="#FFFFFF" d="M20,2.149V0h-4.239l-0.799,4.653H2.254l1.512,8.518h10.948c0.603,0.052,1.082,0.551,1.086,1.167
		c-0.005,0.65-0.535,1.178-1.187,1.178H3.854v2.149h10.76c1.833,0,3.326-1.486,3.337-3.316c0-0.004,0-0.007,0-0.01
		c0-0.003,0-0.006,0-0.009h0c-0.008-1.336-0.806-2.486-1.949-3.011l1.184-6.665h-0.043l0.431-2.503H20z M14.591,6.802l-0.723,4.209
		H5.566L4.819,6.802H14.591z"/>
	<circle fill="#FFFFFF" cx="14.584" cy="19.449" r="1.111"/>
	<circle fill="#FFFFFF" cx="5.203" cy="19.449" r="1.111"/>
</g>
</svg>
