<svg xmlns="http://www.w3.org/2000/svg" xmlns:xlink="http://www.w3.org/1999/xlink" version="1.1" x="0px" y="0px" viewBox="0 0 100 100" enable-background="new 0 0 100 100" xml:space="preserve"><path d="M81,61.839C81,60.271,79.729,59,78.161,59H46.839C45.271,59,44,60.271,44,61.839v25.322C44,88.729,45.271,90,46.839,90  h31.322C79.729,90,81,88.729,81,87.161V61.839z"></path><path d="M87,38.839C87,37.271,85.729,36,84.161,36H46.839C45.271,36,44,37.271,44,38.839v12.322C44,52.729,45.271,54,46.839,54  h37.322C85.729,54,87,52.729,87,51.161V38.839z"></path><path d="M37,87.161C37,88.729,35.729,90,34.161,90H22.839C21.271,90,20,88.729,20,87.161V61.839C20,60.271,21.271,59,22.839,59  h11.322C35.729,59,37,60.271,37,61.839V87.161z"></path><path d="M37,51.16c0,1.568-1.271,2.84-2.839,2.84H16.839C15.271,54,14,52.729,14,51.16V38.839C14,37.271,15.271,36,16.839,36h17.322  C35.729,36,37,37.271,37,38.839V51.16z"></path><path d="M78.221,13.109c-1.655-2.867-5.098-4.578-9.205-4.578c-9.352,0-15.979,8.532-19.234,13.918  c-3.261-5.38-9.886-13.864-19.217-13.864c-5.918,0-10.212,3.561-10.212,8.392c0,8.568,9.675,14.158,29.124,14.158  c19.449,0,29.754-7.186,29.754-14.087C79.229,15.676,78.928,14.333,78.221,13.109z M30.463,21.642  c-3.269-1.68-4.433-3.566-4.433-4.772c0-1.542,1.906-2.661,4.534-2.661c6.33,0,11.339,6.29,14.061,10.669  C37.333,24.411,32.957,22.925,30.463,21.642z M73.111,18.305c-1.647,2.851-7.258,5.873-18.128,6.572  c2.744-4.378,7.776-10.667,14.032-10.667c2.421,0,3.802,0.898,4.288,1.739C73.69,16.619,73.625,17.412,73.111,18.305z"></path></svg>