<?xml version="1.0" encoding="utf-8"?>
<!-- Generator: Adobe Illustrator 18.1.0, SVG Export Plug-In . SVG Version: 6.00 Build 0)  -->
<!DOCTYPE svg PUBLIC "-//W3C//DTD SVG 1.1//EN" "http://www.w3.org/Graphics/SVG/1.1/DTD/svg11.dtd">
<svg version="1.1" id="Layer_1" xmlns="http://www.w3.org/2000/svg" xmlns:xlink="http://www.w3.org/1999/xlink" x="0px" y="0px"
	 viewBox="-14 15.4 21 20.6" enable-background="new -14 15.4 21 20.6" xml:space="preserve">
<polygon id="create-icon" display="none" fill="#FFFFFF" points="7,23.5 -1,23.5 -1,15.4 -5.5,15.4 -5.5,23.5 -13.5,23.5 
	-13.5,27.9 -5.5,27.9 -5.5,35.9 -1,35.9 -1,27.9 7,27.9 "/>
<g id="share-icon">
	<polygon points="6.6,36 -14,36 -14,15.4 -7.4,15.4 -7.4,19.3 -10.2,19.3 -10.2,32.2 2.7,32.2 2.7,29.5 6.6,29.5 	"/>
	<polygon points="-4.2,15.4 -4.2,19.3 0,19.3 -5.6,24.9 -4.2,26.3 -2.9,27.6 2.7,22 2.7,26.2 6.6,26.2 6.6,15.4 	"/>
</g>
</svg>
