<?xml version="1.0" encoding="utf-8"?>
<!-- Generator: Adobe Illustrator 16.0.0, SVG Export Plug-In . SVG Version: 6.00 Build 0)  -->
<!DOCTYPE svg PUBLIC "-//W3C//DTD SVG 1.1//EN" "http://www.w3.org/Graphics/SVG/1.1/DTD/svg11.dtd">
<svg version="1.1" id="Layer_1" xmlns="http://www.w3.org/2000/svg" xmlns:xlink="http://www.w3.org/1999/xlink" x="0px" y="0px"
	 width="224.605px" height="114.575px" viewBox="0 0 224.605 114.575" enable-background="new 0 0 224.605 114.575"
	 xml:space="preserve">
<g>
	<defs>
		<rect id="SVGID_1_" width="224.605" height="114.575"/>
	</defs>
	<clipPath id="SVGID_2_">
		<use xlink:href="#SVGID_1_"  overflow="visible"/>
	</clipPath>
	<g id="Layer1">
		<path clip-path="url(#SVGID_2_)" fill="#038EBA" d="M112.256,2.261c-30.652,0-55.5,24.848-55.5,55.5c0,0,23.456,23.608,55.5,0
			C135.854,40.375,112.256,2.261,112.256,2.261"/>
	</g>
	<g id="Layer2">
		<path clip-path="url(#SVGID_2_)" fill="#D7E027" d="M167.756,57.761c0-30.651-24.849-55.5-55.5-55.5c0,0-23.608,23.456,0,55.5
			C129.642,81.359,167.756,57.761,167.756,57.761"/>
	</g>
	<g id="Layer3">
		<path clip-path="url(#SVGID_2_)" fill="#FCB917" d="M112.256,113.261c30.651,0,55.5-24.848,55.5-55.5c0,0-23.456-23.607-55.5,0
			C88.658,75.147,112.256,113.261,112.256,113.261"/>
	</g>
	<g id="Layer4">
		<path clip-path="url(#SVGID_2_)" fill="#EA0E8C" d="M112.256,57.761c-32.044,23.608-55.5,0-55.5,0c0,30.652,24.848,55.5,55.5,55.5
			C112.256,113.261,135.863,89.806,112.256,57.761"/>
	</g>
	<path clip-path="url(#SVGID_2_)" fill="none" stroke="#81858F" stroke-width="13" stroke-miterlimit="10" d="M201.777,54.058
		c0.404,22.119-9.178,42.099-24.597,55.632"/>
	<polygon clip-path="url(#SVGID_2_)" fill="#81858F" points="178.982,57.598 201.377,34.37 224.604,56.764 	"/>
	<path clip-path="url(#SVGID_2_)" fill="none" stroke="#81858F" stroke-width="13" stroke-miterlimit="10" d="M22.719,60.356
		C22.488,38.234,32.225,18.332,47.75,4.918"/>
	<polygon clip-path="url(#SVGID_2_)" fill="#81858F" points="45.627,57.094 23.052,80.146 0,57.571 	"/>
</g>
</svg>
